<?xml version="1.0" encoding="UTF-8" standalone="no"?>
<svg
   xmlns:svg="http://www.w3.org/2000/svg"
   xmlns="http://www.w3.org/2000/svg"
   xmlns:sodipodi="http://sodipodi.sourceforge.net/DTD/sodipodi-0.dtd"
   xmlns:inkscape="http://www.inkscape.org/namespaces/inkscape"
   version="1.0"
   width="142.54102"
   height="145.73828"
   inkscape:version="1.0.1 (3bc2e813f5, 2020-09-07)"
   sodipodi:docname="7th_column.svg">
  <defs>
    <inkscape:path-effect
       effect="fillet_chamfer"
       id="path-effect926"
       is_visible="true"
       lpeversion="1"
       satellites_param="F,0,0,1,0,5,0,1 @ F,0,0,1,0,5,0,1 @ F,0,0,1,0,5,0,1 @ F,0,0,1,0,5,0,1 | F,0,0,1,0,5,0,1 @ F,0,0,1,0,5,0,1 @ F,0,0,1,0,5,0,1 @ F,0,0,1,0,5,0,1 @ F,0,0,1,0,5,0,1 @ F,0,0,1,0,5,0,1 @ F,0,0,1,0,5,0,1 @ F,0,0,1,0,5,0,1 @ F,0,0,1,0,5,0,1 @ F,0,0,1,0,5,0,1 @ F,0,0,1,0,5,0,1 @ F,0,0,1,0,5,0,1 @ F,0,0,1,0,5,0,1 @ F,0,0,1,0,5,0,1 @ F,0,0,1,0,5,0,1 @ F,0,0,1,0,5,0,1 @ F,0,0,1,0,5,0,1 @ F,0,0,1,0,5,0,1 @ F,0,0,1,0,5,0,1 @ F,0,0,1,0,5,0,1 @ F,0,0,1,0,5,0,1 @ F,0,0,1,0,5,0,1 @ F,0,0,1,0,5,0,1 @ F,0,0,1,0,5,0,1 @ F,0,0,1,0,5,0,1"
       unit="px"
       method="auto"
       mode="F"
       radius="5"
       chamfer_steps="1"
       flexible="false"
       use_knot_distance="true"
       apply_no_radius="true"
       apply_with_radius="true"
       only_selected="false"
       hide_knots="false" />
    <inkscape:path-effect
       effect="fillet_chamfer"
       id="path-effect923"
       is_visible="true"
       lpeversion="1"
       satellites_param="F,0,0,1,0,5,0,1 @ F,0,0,1,0,5,0,1 @ F,0,0,1,0,5,0,1 @ F,0,0,1,0,5,0,1 | F,0,0,1,0,5,0,1 @ F,0,0,1,0,5,0,1 @ F,0,0,1,0,5,0,1 @ F,0,0,1,0,5,0,1 @ F,0,0,1,0,5,0,1 @ F,0,0,1,0,5,0,1 @ F,0,0,1,0,5,0,1 @ F,0,0,1,0,5,0,1 @ F,0,0,1,0,5,0,1 @ F,0,0,1,0,5,0,1 @ F,0,0,1,0,5,0,1 @ F,0,0,1,0,5,0,1 @ F,0,0,1,0,5,0,1 @ F,0,0,1,0,5,0,1 @ F,0,0,1,0,5,0,1 @ F,0,0,1,0,5,0,1 @ F,0,0,1,0,5,0,1 @ F,0,0,1,0,5,0,1 @ F,0,0,1,0,5,0,1 @ F,0,0,1,0,5,0,1 @ F,0,0,1,0,5,0,1 @ F,0,0,1,0,5,0,1 @ F,0,0,1,0,5,0,1 @ F,0,0,1,0,5,0,1 @ F,0,0,1,0,5,0,1"
       unit="px"
       method="auto"
       mode="F"
       radius="5"
       chamfer_steps="1"
       flexible="false"
       use_knot_distance="true"
       apply_no_radius="true"
       apply_with_radius="true"
       only_selected="false"
       hide_knots="false" />
  </defs>
  <sodipodi:namedview
     inkscape:zoom="4.45"
     inkscape:cx="50.233769"
     inkscape:cy="55.975996"
     inkscape:window-width="1754"
     inkscape:window-height="1057"
     inkscape:window-x="158"
     inkscape:window-y="-8"
     inkscape:window-maximized="1" />
  <path
     d="m 54.269531,5 v 78 a 5,5 45 0 0 5,5 h 24 a 5,5 135 0 0 5,-5 l 0,-78 a 5,5 45 0 0 -5,-5 h -24 a 5,5 135 0 0 -5,5 z M 24.441077,23.909103 9.476892,42.672928 a 4.9998891,4.9998891 83.57179 0 0 0.791655,7.026533 L 29.114266,64.728273 A 2.407834,2.407834 102.85723 0 1 28.14879,68.958269 L 4.8746484,74.270246 a 5.0001061,5.0001061 122.14392 0 0 -3.7621858,5.987238 l 5.3395279,23.397146 a 4.9999653,4.9999653 32.144329 0 0 5.9871265,3.76217 l 23.610047,-5.38828 a 2.4079938,2.4079938 51.428721 0 1 2.705322,3.39238 l -10.141785,21.06055 a 5.0000802,5.0000802 70.713772 0 0 2.335504,6.67429 l 21.623121,10.41313 a 5.0000149,5.0000149 160.71432 0 0 6.674274,-2.33543 l 9.854503,-20.46298 a 2.4078857,2.4078857 180 0 1 4.338856,0 l 9.854504,20.46298 a 5.0000147,5.0000147 19.28568 0 0 6.674274,2.33543 l 21.623113,-10.41313 a 5.0002078,5.0002078 109.28696 0 0 2.33562,-6.67435 L 103.78446,105.419 a 2.4079003,2.4079003 128.57361 0 1 2.70537,-3.39217 l 23.61018,5.3897 a 4.9999668,4.9999668 147.85888 0 0 5.98734,-3.76184 l 5.34093,-23.397268 a 4.9998255,4.9998255 57.857688 0 0 -3.76191,-5.987176 l -23.27414,-5.311977 a 2.4078341,2.4078341 77.142765 0 1 -0.96548,-4.229997 l 18.84572,-15.02881 a 4.9998892,4.9998892 96.428208 0 0 0.79165,-7.026534 L 118.09994,23.909103 a 5.0000563,5.0000563 6.4278959 0 0 -7.02666,-0.79163 L 99.178669,32.60323 a 10.382689,10.382689 115.71411 0 0 -3.909138,8.117473 V 56 a 33.063811,33.063811 81.400731 0 0 1.478418,9.77643 l 3.543161,11.44714 a 9.9791328,9.9791328 99.414416 0 1 -1.462438,8.820111 L 88.710389,99.956319 A 9.8188499,9.8188499 153.01369 0 1 80.769531,104 h -19 A 9.8188502,9.8188502 26.986313 0 1 53.828673,99.95632 L 43.710389,86.04368 A 9.9791319,9.9791319 80.585584 0 1 42.24795,77.223571 L 45.791112,65.776429 A 33.063806,33.063806 98.599271 0 0 47.269531,56 V 40.71875 a 10.382526,10.382526 64.285539 0 0 -3.909177,-8.117425 l -11.892583,-9.4839 a 5.0001177,5.0001177 173.57175 0 0 -7.026694,0.791678 z"
     inkscape:path-effect="#path-effect926"
     inkscape:original-d="m 54.269531,0 v 88 h 34 V 0 Z M 27.558594,20 6.359375,46.582031 33.023438,67.845703 0,75.382812 7.5644531,108.5293 l 33.3593749,-7.61328 -14.480469,30.07031 30.632813,14.75195 14.193359,-29.47266 14.19336,29.47266 30.632809,-14.75195 -14.48047,-30.07227 33.35938,7.61524 7.56641,-33.146488 L 109.51758,67.845703 136.18164,46.582031 114.98242,20 95.269531,35.720703 V 61 l 6.499999,21 -15.999999,22 h -29 l -16,-22 6.5,-21 V 35.71875 Z" />
</svg>
