<?xml version="1.0" encoding="UTF-8" standalone="no"?>
<svg
   xmlns:svg="http://www.w3.org/2000/svg"
   xmlns="http://www.w3.org/2000/svg"
   xmlns:sodipodi="http://sodipodi.sourceforge.net/DTD/sodipodi-0.dtd"
   xmlns:inkscape="http://www.inkscape.org/namespaces/inkscape"
   version="1.0"
   width="97.479492"
   height="101.24176"
   inkscape:version="1.0.1 (3bc2e813f5, 2020-09-07)"
   sodipodi:docname="executioner.svg">
  <defs />
  <sodipodi:namedview
     inkscape:zoom="2.5834508"
     inkscape:cx="63.392249"
     inkscape:cy="83.34924"
     inkscape:window-width="1754"
     inkscape:window-height="1057"
     inkscape:window-x="158"
     inkscape:window-y="-8"
     inkscape:window-maximized="1" />
  <path
     d="m 48.739746,0 c -2.90748,0 -12.736538,5.4719925 -18.708984,10.091308 -6.77137,5.237236 -9.182045,9.102688 -10.201172,15.799805 -0.380889,2.502983 -1.385243,6.322462 -1.999512,9.499512 -1.548407,8.008477 -4.044664,15.656325 -6.18457,22.907228 C 9.9529538,64.032938 7.8300982,69.523695 4.6274415,73.727047 3.7127235,74.927572 0.67748475,77.7942 0,78.471682 c 1.3804612,4.549065 8.6649728,14.72391 13.855958,18.215333 5.190984,3.491415 8.114003,3.034057 13.967285,3.922845 5.831166,0.88545 13.941641,0.58155 20.916503,0.58155 6.974862,0 15.085335,0.3039 20.916503,-0.58155 5.853284,-0.888788 8.776304,-0.43143 13.967287,-3.922845 5.19099,-3.491423 12.4755,-13.666268 13.855958,-18.215333 C 96.802011,77.7942 93.766768,74.927572 92.852053,73.727047 89.649388,69.523687 87.526543,64.032945 85.833988,58.297853 83.694081,51.04695 81.197826,43.399102 79.649413,35.390625 79.035156,32.213575 78.030794,28.394096 77.649906,25.891113 76.630783,19.193996 74.220104,15.328543 67.448729,10.091308 61.476284,5.4719925 51.647226,0 48.739746,0 Z M 24.355958,45.61377 c 0,0 7.375988,2.215793 10.974609,3.577147 1.341101,0.507338 3.947756,1.708005 3.947756,1.708005 l 0.05859,4.274416 c 0,0 -1.802204,0.312029 -4.20703,0.517094 -3.400867,0.289995 -4.500194,-0.100492 -6.700196,-2.500492 -0.899493,-0.963743 -1.56167,-2.075438 -2.185546,-3.209475 -0.764365,-1.389398 -1.888183,-4.366695 -1.888183,-4.366695 z m 48.767578,0 c 0,0 -1.123823,2.977305 -1.888185,4.366695 -0.62388,1.134037 -1.286055,2.24574 -2.185545,3.209475 -2.199997,2.4 -3.299325,2.790487 -6.700193,2.500492 -2.404837,-0.205065 -4.207035,-0.517094 -4.207035,-0.517094 l 0.05859,-4.274416 c 7e-6,0 2.606647,-1.200667 3.947759,-1.708005 3.598621,-1.361354 10.974608,-3.577147 10.974609,-3.577147 z" />
</svg>
