<?xml version="1.0" encoding="UTF-8" standalone="no"?>
<svg
   xmlns:svg="http://www.w3.org/2000/svg"
   xmlns="http://www.w3.org/2000/svg"
   xmlns:sodipodi="http://sodipodi.sourceforge.net/DTD/sodipodi-0.dtd"
   xmlns:inkscape="http://www.inkscape.org/namespaces/inkscape"
   width="100"
   height="100"
   inkscape:version="1.0.1 (3bc2e813f5, 2020-09-07)"
   sodipodi:docname="finisher.svg">
  <defs />
  <sodipodi:namedview
     inkscape:zoom="5.6"
     inkscape:cx="30.307441"
     inkscape:cy="34.823664"
     inkscape:window-width="1754"
     inkscape:window-height="1057"
     inkscape:window-x="158"
     inkscape:window-y="-8"
     inkscape:window-maximized="1" />
  <path
     d="m 49.719341,5.000248 a 37.862251,35.689826 0 0 0 -37.582488,35.690054 37.862251,35.689826 0 0 0 0.04811,1.77055 9.8534961,9.8534961 0 0 0 -0.04811,0.943011 V 68.38722 a 9.8534961,9.8534961 0 0 0 9.853495,9.853496 h 3.804116 V 88.431002 A 6.5689963,6.5689963 0 0 0 32.363461,95 h 2.12017 V 83.205955 H 37.5853 V 95 h 6.206548 V 83.205955 h 3.104877 V 95 h 6.206548 V 83.205955 H 56.20815 V 95 h 6.206548 V 83.205955 h 3.101671 V 95 h 2.12017 a 6.5689963,6.5689963 0 0 0 6.568997,-6.568998 V 78.240716 h 3.804115 A 9.8534961,9.8534961 0 0 0 87.863147,68.38722 V 43.403863 a 9.8534961,9.8534961 0 0 0 -0.04811,-0.955839 37.862251,35.689826 0 0 0 0.04811,-1.757722 37.862251,35.689826 0 0 0 -37.861544,-35.690054 37.862251,35.689826 0 0 0 -0.282262,0 z" />
</svg>
