<?xml version="1.0" standalone="no"?>
<!DOCTYPE svg PUBLIC "-//W3C//DTD SVG 20010904//EN"
 "http://www.w3.org/TR/2001/REC-SVG-20010904/DTD/svg10.dtd">
<svg version="1.0" xmlns="http://www.w3.org/2000/svg"
 width="900.000000pt" height="900.000000pt" viewBox="0 0 900.000000 900.000000"
 preserveAspectRatio="xMidYMid meet">
<metadata>
Created by potrace 1.10, written by Peter Selinger 2001-2011
</metadata>
<g transform="translate(0.000000,900.000000) scale(0.100000,-0.100000)"
fill="#000000" stroke="none">
<path d="M1379 8548 c-2 -17 -1 -23 16 -233 9 -99 20 -238 26 -310 5 -71 14
-146 20 -165 5 -19 13 -116 16 -215 4 -117 10 -192 19 -214 8 -18 14 -48 14
-65 0 -17 7 -41 15 -53 21 -29 31 -109 16 -126 -6 -8 -21 -12 -34 -10 -19 4
-26 -3 -44 -44 -12 -26 -38 -102 -58 -168 -20 -66 -43 -142 -51 -170 -22 -72
-33 -133 -33 -188 -1 -54 -12 -40 154 -192 200 -183 360 -332 374 -348 7 -10
21 -17 31 -17 36 0 140 182 140 245 0 18 7 38 15 45 10 8 15 30 15 64 0 29 6
61 15 73 8 11 17 40 21 64 4 24 11 52 16 62 5 10 13 41 18 70 4 29 11 64 15
79 5 21 2 30 -19 43 -37 24 -162 55 -227 55 -42 0 -63 5 -83 21 -33 26 -33 53
-1 114 41 75 65 155 65 211 0 56 -59 299 -111 454 -17 52 -35 109 -39 125 -5
17 -27 82 -50 145 -97 268 -122 337 -130 365 -14 50 -88 252 -100 274 -12 23
-39 28 -41 9z"/>
<path d="M7595 8521 c-3 -6 -16 -43 -30 -83 -13 -40 -33 -95 -43 -123 -72
-186 -138 -368 -202 -555 -16 -47 -36 -103 -44 -125 -24 -65 -107 -297 -117
-330 -5 -17 -7 -70 -3 -122 8 -115 -3 -140 -124 -284 -49 -58 -91 -112 -95
-122 -4 -12 7 -32 38 -67 25 -28 72 -92 106 -143 34 -50 83 -119 109 -152 69
-89 70 -93 63 -184 -9 -119 0 -118 159 25 73 66 171 156 217 200 l84 82 -8 58
c-4 32 -13 67 -21 78 -8 11 -14 29 -14 39 0 11 -6 33 -14 50 -22 50 -59 176
-71 241 -8 51 -15 62 -40 76 l-30 17 3 94 c1 52 9 121 17 154 7 33 16 94 19
135 3 41 13 134 21 205 45 398 55 503 59 635 2 80 2 160 -1 178 -5 30 -25 43
-38 23z"/>
<path d="M5566 8333 c-3 -10 -17 -72 -31 -138 -15 -66 -33 -145 -40 -175 -7
-30 -20 -91 -30 -135 -9 -44 -23 -106 -31 -137 -8 -32 -14 -91 -14 -131 0 -56
-13 -125 -56 -293 -30 -120 -59 -239 -64 -264 -4 -25 -18 -81 -30 -125 -12
-44 -25 -102 -30 -130 -4 -27 -14 -72 -23 -100 -8 -27 -25 -95 -38 -150 -27
-120 -59 -182 -97 -191 -15 -4 -42 -16 -60 -26 -27 -17 -50 -20 -130 -20 -53
1 -275 1 -492 2 -354 0 -399 2 -430 18 -42 20 -60 56 -88 172 -44 180 -114
468 -129 535 -9 39 -22 93 -29 120 -7 28 -25 102 -39 165 -15 63 -33 138 -40
165 -8 28 -23 91 -35 140 -12 50 -27 115 -35 145 -7 30 -20 87 -29 125 -9 39
-24 108 -35 155 -11 47 -23 103 -27 125 -14 85 -44 94 -58 17 -25 -132 -22
-939 4 -1006 5 -14 14 -90 19 -169 6 -78 17 -173 25 -212 23 -105 21 -294 -3
-342 -10 -21 -22 -67 -26 -103 -6 -59 -31 -154 -55 -205 -5 -11 -21 -49 -36
-85 -32 -80 -157 -328 -195 -390 -32 -52 -45 -95 -31 -104 26 -16 95 32 225
156 66 63 89 73 100 44 3 -7 54 -77 114 -157 59 -79 135 -182 168 -228 33 -46
71 -98 85 -115 14 -17 34 -44 45 -61 32 -50 117 -135 136 -135 22 0 84 70 158
181 85 125 78 122 296 127 101 3 217 1 258 -2 69 -7 75 -9 92 -39 10 -18 37
-53 59 -78 23 -25 54 -71 70 -102 38 -74 79 -113 105 -101 11 5 89 104 173
219 165 226 274 367 352 458 57 65 76 63 76 -7 0 -40 4 -46 64 -94 35 -29 67
-52 70 -52 4 0 31 -19 61 -41 87 -66 111 -31 56 79 -16 32 -34 76 -40 99 -6
22 -18 44 -26 47 -9 3 -15 18 -15 34 0 16 -7 35 -15 42 -8 7 -15 20 -15 29 0
9 -7 29 -15 45 -21 40 -58 156 -78 241 -30 132 -49 680 -51 1480 -2 554 -4
624 -18 658 -18 39 -43 49 -52 20z"/>
<path d="M6625 8318 c-2 -7 -9 -38 -14 -68 -9 -51 -14 -76 -43 -190 -6 -25
-19 -79 -29 -120 -9 -41 -22 -95 -28 -120 -28 -112 -52 -217 -76 -325 -7 -33
-25 -112 -39 -175 -18 -75 -25 -129 -21 -154 5 -33 -1 -85 -21 -183 -6 -29
-34 -30 -34 -2 0 12 -8 23 -20 26 -17 5 -20 14 -20 63 0 61 -15 90 -48 90 -9
0 -30 7 -46 15 -15 8 -49 15 -75 15 -34 0 -51 5 -64 20 -22 26 -25 26 -75 -11
-44 -32 -53 -60 -27 -85 10 -10 15 -35 15 -68 0 -36 5 -58 15 -66 9 -7 27 -37
41 -66 14 -30 29 -56 35 -59 5 -3 21 13 35 37 29 47 89 92 110 84 20 -8 17
-39 -6 -69 -20 -25 -28 -77 -12 -77 20 0 71 68 77 103 4 20 11 39 15 42 15 9
40 -45 46 -102 4 -32 14 -66 22 -76 21 -24 29 -169 10 -184 -7 -6 -78 -34
-158 -62 -80 -29 -160 -59 -178 -67 -18 -8 -37 -14 -41 -14 -5 0 -45 -14 -90
-31 -88 -33 -99 -47 -82 -101 6 -18 21 -73 35 -123 13 -49 37 -121 51 -160 15
-38 34 -97 42 -130 15 -64 157 -365 189 -402 10 -12 56 -40 101 -63 63 -30 94
-40 132 -40 46 0 52 3 84 43 19 23 45 61 58 84 41 71 143 243 161 271 10 15
21 34 25 42 5 9 44 75 88 148 44 73 87 145 95 160 30 55 48 75 65 68 10 -3 14
-13 11 -23 -13 -46 -17 -131 -7 -137 6 -4 11 -15 11 -24 0 -10 9 -34 20 -55
11 -20 20 -43 20 -51 0 -17 47 -49 55 -37 3 6 10 40 15 78 5 37 13 84 19 103
6 19 11 71 11 115 0 75 -2 84 -35 134 -19 29 -35 55 -35 57 0 3 -25 48 -55
100 -30 53 -55 99 -55 102 0 4 -27 50 -60 102 -96 152 -120 211 -120 288 -1
37 -5 99 -10 137 -11 77 -18 308 -24 800 -4 262 -7 327 -20 357 -18 41 -34 56
-41 36z"/>
<path d="M2366 8304 c-3 -9 -6 -184 -6 -389 0 -301 3 -388 16 -447 21 -98 21
-281 0 -330 -9 -21 -16 -46 -16 -57 0 -11 -6 -35 -14 -53 -7 -18 -23 -58 -34
-88 -32 -89 -103 -272 -118 -308 -8 -18 -14 -43 -14 -55 0 -12 -7 -31 -15 -41
-8 -11 -15 -28 -15 -38 0 -9 -25 -92 -55 -183 -30 -92 -55 -172 -55 -178 0 -7
50 -73 111 -147 61 -74 129 -158 152 -186 178 -217 308 -372 321 -383 16 -13
80 -8 101 9 12 9 240 110 249 110 4 0 20 10 36 22 21 15 54 70 108 182 120
247 140 291 148 322 4 16 22 61 40 99 18 39 36 88 40 110 3 22 14 52 22 67 13
21 13 30 3 42 -15 17 -112 47 -231 70 -190 37 -269 60 -349 99 -129 64 -149
113 -83 208 56 82 78 134 64 162 -6 12 -13 51 -16 87 -2 36 -12 79 -20 95 -9
17 -16 36 -16 43 0 8 -6 26 -14 40 -14 29 -23 53 -66 185 -16 49 -32 105 -36
125 -4 20 -10 42 -15 48 -11 14 -49 132 -49 151 0 9 -6 36 -14 62 -8 25 -21
78 -30 116 -55 255 -102 431 -116 440 -4 3 -11 -2 -14 -11z"/>
<path d="M4660 7509 c-19 -5 -98 -14 -175 -20 l-140 -10 -52 -51 c-53 -52 -83
-59 -83 -19 0 11 -7 27 -16 36 -20 20 -33 10 -69 -51 -14 -24 -30 -44 -35 -44
-16 0 -98 38 -104 49 -4 6 -24 11 -46 11 -33 0 -41 -5 -60 -37 -43 -72 -36
-163 26 -311 8 -18 14 -38 14 -45 0 -20 180 -192 225 -215 22 -11 51 -32 65
-46 35 -38 93 -63 181 -79 85 -16 92 -14 152 40 41 37 51 39 87 18 38 -22 120
-18 212 11 99 30 146 52 158 74 17 32 170 504 170 524 0 12 -11 38 -25 59 -26
37 -26 37 -96 37 -56 0 -76 4 -100 22 -25 19 -34 21 -59 11 -27 -10 -31 -9
-42 10 -6 12 -16 25 -22 29 -15 10 -122 8 -166 -3z"/>
<path d="M3146 7156 c-37 -41 -55 -44 -81 -16 -41 45 -60 15 -45 -73 9 -57 44
-134 87 -193 13 -17 23 -40 23 -52 0 -11 4 -24 10 -27 10 -6 89 32 103 50 4 6
5 39 2 75 -3 36 -5 76 -4 90 1 14 2 59 3 100 l1 75 -33 3 c-27 3 -39 -3 -66
-32z"/>
<path d="M1788 5659 c-69 -74 -64 -93 27 -101 30 -3 30 -4 36 -78 6 -66 4 -78
-14 -97 -18 -20 -19 -31 -13 -116 4 -67 2 -117 -9 -173 -23 -121 -15 -238 21
-321 8 -17 14 -34 14 -38 0 -4 15 -39 33 -79 18 -39 46 -111 60 -161 15 -49
34 -109 42 -133 23 -69 2 -91 -49 -51 -15 12 -34 18 -43 15 -20 -8 -14 -50 28
-189 69 -231 83 -314 68 -423 -14 -111 -3 -161 55 -229 60 -71 71 -106 47
-159 -19 -42 -70 -99 -129 -144 -48 -36 -75 -133 -70 -250 3 -78 6 -92 35
-135 17 -27 35 -63 39 -80 3 -18 19 -48 35 -68 16 -20 29 -44 29 -52 0 -20 66
-69 88 -65 10 2 18 14 20 31 2 19 9 27 23 27 10 0 19 -6 19 -14 0 -8 10 -31
21 -51 18 -30 20 -45 15 -95 -8 -66 6 -112 44 -145 24 -22 70 -106 70 -128 0
-8 6 -20 14 -27 8 -6 16 -26 18 -43 4 -40 38 -48 79 -18 15 12 33 21 39 21 9
0 57 -22 110 -52 46 -26 73 -29 175 -26 71 2 121 9 140 19 28 13 30 19 30 68
0 31 5 56 11 58 16 5 44 -24 44 -46 0 -10 7 -24 15 -31 8 -7 15 -25 15 -40 0
-15 7 -33 15 -40 8 -7 15 -18 15 -25 0 -8 9 -33 19 -58 15 -35 27 -47 60 -60
54 -22 115 -31 134 -21 30 18 168 178 182 211 18 42 36 39 51 -8 5 -19 15 -45
21 -59 16 -39 6 -52 -27 -35 -28 15 -29 14 -64 -35 -20 -28 -36 -54 -36 -58 0
-14 39 -90 50 -97 5 -3 10 -13 10 -22 0 -8 8 -27 18 -41 24 -35 42 -138 42
-240 0 -46 5 -84 11 -87 29 -18 110 36 93 62 -13 21 16 113 36 113 13 0 60
-59 60 -77 0 -3 6 -14 14 -22 8 -9 17 -28 21 -43 6 -24 3 -28 -21 -34 -15 -4
-35 -2 -45 5 -47 29 -68 -6 -42 -70 17 -45 44 -57 75 -35 33 23 71 20 98 -9
l24 -25 -43 -44 c-48 -49 -50 -72 -9 -95 29 -17 31 -16 122 23 l38 17 -6 -55
c-4 -31 -3 -56 1 -56 24 0 46 31 54 75 11 57 29 81 69 89 40 7 110 53 110 71
0 21 -33 35 -87 36 -101 2 -127 30 -78 83 20 21 32 27 53 23 36 -7 72 9 72 32
0 22 25 45 40 36 13 -8 13 -52 0 -60 -22 -14 -9 -53 26 -80 31 -24 35 -31 30
-58 -7 -36 -51 -105 -102 -162 -66 -75 -91 -110 -86 -124 2 -7 27 -24 56 -37
73 -34 167 -33 233 2 50 26 64 27 180 8 49 -8 88 12 103 52 12 29 31 38 65 30
33 -8 32 -26 -5 -61 -16 -16 -30 -37 -30 -46 0 -16 7 -17 53 -13 106 11 97 -4
97 149 0 132 7 162 33 136 6 -6 14 -49 18 -94 9 -112 13 -122 60 -141 125 -50
261 -29 489 76 36 17 85 39 110 50 76 33 75 32 76 84 1 97 4 114 24 134 34 34
50 16 50 -54 0 -35 6 -70 13 -80 12 -17 15 -16 45 8 58 50 102 120 102 164 0
42 -33 111 -53 113 -7 1 -28 2 -47 3 -28 1 -36 6 -44 28 -11 32 0 58 51 118
18 21 33 41 33 44 0 4 -27 36 -61 72 -85 92 -68 131 31 69 22 -14 42 -25 46
-25 3 0 23 18 45 40 22 22 63 55 92 73 28 19 61 44 72 56 11 13 34 29 51 36
17 7 57 36 88 64 61 56 68 58 86 36 7 -8 19 -15 28 -15 15 0 81 65 114 113 10
14 41 37 70 51 29 13 62 36 72 50 22 30 42 33 54 9 12 -23 0 -139 -16 -155
-28 -28 -14 -57 41 -85 104 -53 200 -29 249 64 l23 42 -24 68 c-18 54 -21 75
-14 103 8 32 13 36 54 41 84 11 134 56 95 84 -25 19 -19 42 24 89 44 47 49 70
23 98 -14 16 -15 20 -1 31 18 15 48 63 48 76 0 19 -93 -1 -146 -30 -56 -32
-74 -26 -74 22 0 38 38 65 103 72 30 4 70 14 90 22 22 9 68 15 117 15 79 0 81
1 91 28 6 15 9 61 7 102 -5 91 -31 137 -111 202 -30 24 -66 61 -80 83 -23 38
-25 50 -31 230 -11 299 -25 474 -42 514 -30 70 -63 167 -85 251 -34 125 -32
346 4 520 25 118 59 223 80 245 6 6 7 -19 3 -70 -4 -44 -11 -150 -16 -235 -18
-299 -13 -359 27 -319 21 21 43 2 43 -35 0 -26 6 -38 23 -47 12 -7 25 -17 29
-23 13 -18 9 -61 -7 -82 -16 -22 -20 -54 -5 -54 5 0 14 17 19 38 6 20 17 47
25 58 9 12 20 39 25 60 6 22 19 71 31 109 76 254 130 599 130 827 0 124 -24
358 -42 413 -9 28 -19 41 -35 43 -23 3 -28 -10 -67 -178 -27 -114 -26 -111
-49 -108 -19 3 -23 11 -27 63 -5 59 -5 60 -38 63 -21 2 -38 12 -48 27 -22 34
-40 37 -86 13 l-41 -22 -22 28 c-16 20 -28 26 -42 22 -22 -7 -143 -139 -143
-156 0 -7 -7 -24 -15 -38 -8 -15 -19 -45 -25 -67 -11 -46 -68 -120 -121 -158
-37 -27 -37 -27 -61 -7 -29 22 -141 48 -249 57 -71 5 -77 4 -102 -20 -24 -22
-37 -25 -102 -26 -41 -1 -104 3 -140 8 -100 14 -145 -12 -110 -65 22 -33 19
-44 -12 -44 -52 0 -103 13 -103 25 0 7 11 29 25 49 14 20 25 43 25 51 0 28
-49 29 -118 2 -207 -80 -253 -97 -265 -97 -23 0 -94 -79 -123 -136 -31 -60
-34 -63 -83 -81 -42 -14 -75 -3 -113 38 -15 16 -33 29 -41 29 -8 0 -38 -13
-68 -30 -30 -16 -64 -30 -77 -30 -13 0 -44 -16 -69 -35 -25 -19 -54 -35 -63
-35 -9 0 -22 -12 -29 -27 -12 -27 -13 -27 -27 -8 -8 10 -14 22 -14 26 0 4 -13
12 -30 17 -27 10 -191 139 -205 162 -13 21 -48 8 -128 -45 -45 -30 -89 -55
-97 -55 -9 0 -33 -9 -55 -20 -22 -11 -47 -20 -57 -20 -9 0 -20 -4 -23 -10 -9
-14 -42 -12 -68 4 -120 75 -181 117 -229 162 -48 43 -65 53 -99 56 -25 2 -45
9 -49 18 -44 95 -69 136 -106 170 l-43 40 -75 -7 c-64 -5 -80 -3 -116 16 -59
31 -73 28 -192 -35 -14 -8 -33 -14 -41 -14 -9 0 -28 -7 -44 -15 -15 -8 -44
-21 -63 -29 -96 -39 -155 -68 -205 -101 l-55 -37 -68 68 c-37 37 -76 82 -87
100 -42 68 -322 368 -347 372 -16 3 -18 -5 -18 -55 0 -50 4 -63 30 -93 16 -19
28 -39 27 -45 -8 -22 -33 -8 -54 30 -46 83 -53 93 -66 98 -8 3 -20 1 -28 -4
-38 -24 -79 3 -64 43 3 8 -1 21 -10 28 -8 7 -15 21 -15 30 0 66 -40 66 -102
-1z m1347 -1648 c15 -30 51 -44 360 -138 28 -9 65 -22 83 -29 18 -8 39 -14 47
-14 27 0 229 -83 270 -111 80 -53 145 -141 170 -227 10 -35 -52 -235 -110
-355 -39 -79 -138 -201 -159 -194 -6 2 -15 17 -21 34 -5 16 -14 30 -20 31 -5
0 -59 -37 -119 -84 -59 -46 -114 -84 -121 -84 -6 0 -17 11 -23 25 -6 14 -18
25 -26 25 -17 0 -36 -51 -36 -99 0 -54 -23 -81 -70 -81 -38 0 -40 2 -70 64
-37 74 -60 89 -145 94 -171 8 -206 -2 -254 -79 -19 -31 -37 -49 -49 -49 -13 0
-38 26 -71 70 -49 68 -53 71 -84 65 -40 -8 -50 2 -71 73 -8 30 -36 83 -61 118
-49 68 -52 81 -74 261 -11 88 -30 134 -80 197 -36 46 -38 72 -10 146 11 30 25
69 32 85 21 58 76 142 120 182 64 59 107 71 292 78 88 3 176 10 195 14 68 17
88 13 105 -18z m3063 -68 c67 -6 92 -21 92 -55 0 -30 29 -58 59 -58 14 0 58
16 96 35 82 40 106 43 160 14 52 -28 89 -63 127 -122 l31 -48 -6 -172 c-7
-190 -46 -486 -70 -532 -46 -90 -171 -136 -271 -102 -46 16 -47 15 -111 -14
-35 -17 -91 -34 -125 -39 -70 -10 -85 -20 -105 -67 -8 -18 -19 -33 -24 -33 -6
0 -26 24 -44 53 -19 28 -53 76 -76 105 -42 52 -42 52 -71 37 -42 -22 -46 -20
-94 32 -38 40 -49 47 -81 46 -20 -1 -44 -8 -54 -17 -38 -35 -97 -7 -116 55 -8
26 -33 24 -76 -5 -72 -49 -115 -43 -179 25 -89 96 -121 225 -81 326 31 78 123
212 188 274 69 66 128 102 210 128 34 11 81 32 105 47 90 59 129 72 278 98 26
5 128 0 238 -11z m-1568 -1185 c11 -12 20 -33 20 -47 0 -14 9 -37 20 -51 11
-14 20 -30 20 -36 0 -6 7 -17 15 -24 8 -7 17 -27 21 -46 3 -19 10 -37 15 -40
12 -7 59 -107 59 -125 0 -8 -9 -28 -19 -46 -33 -53 -2 -59 71 -12 43 28 51 30
79 20 18 -6 44 -11 59 -11 45 0 142 -81 177 -147 63 -119 62 -215 -1 -302 -59
-81 -76 -125 -81 -207 -6 -112 -43 -138 -81 -58 -22 46 -68 67 -153 68 -75 2
-91 17 -91 83 0 45 0 46 -60 47 -23 1 -37 7 -45 21 -60 114 -105 156 -145 135
-11 -6 -40 -41 -64 -78 -101 -154 -215 -211 -403 -203 -52 2 -57 22 -43 180 6
74 16 143 21 153 5 9 24 18 42 20 31 3 32 4 38 63 7 84 46 158 123 238 37 37
70 67 74 67 5 0 21 -20 37 -45 34 -55 60 -57 60 -4 0 20 5 42 11 50 18 23 44
80 65 143 26 77 61 145 94 185 32 37 38 38 65 9z m2020 -15 c0 -15 -7 -34 -15
-43 -8 -9 -15 -39 -16 -74 -2 -48 1 -62 17 -73 30 -22 49 -12 49 27 0 24 5 36
16 38 13 2 17 -11 23 -71 4 -41 4 -81 0 -90 -8 -23 -37 -21 -59 3 -10 11 -24
20 -32 20 -13 0 -15 -4 -18 -51 -3 -44 -13 -59 -39 -59 -30 0 -46 25 -46 75 0
45 -25 95 -48 95 -24 -1 -70 -44 -83 -77 -6 -15 -15 -55 -19 -88 -8 -49 -14
-63 -37 -80 -15 -10 -46 -38 -68 -61 -22 -23 -60 -52 -85 -65 -25 -13 -46 -27
-48 -31 -6 -14 -32 -8 -32 6 0 27 52 76 109 103 31 14 60 31 64 37 5 6 6 46 4
88 -5 82 7 116 36 105 20 -7 30 6 68 84 17 35 36 67 42 71 7 4 30 5 52 2 37
-5 41 -4 59 28 30 53 87 119 97 113 5 -4 9 -18 9 -32z m-712 -525 c18 -18 15
-37 -13 -70 -14 -16 -25 -38 -25 -49 0 -22 -44 -53 -65 -45 -22 8 -18 38 11
82 15 21 31 51 36 66 10 29 36 36 56 16z m-2388 -373 c0 -8 -4 -15 -10 -15 -5
0 -10 7 -10 15 0 8 5 15 10 15 6 0 10 -7 10 -15z"/>
<path d="M6068 1915 c-55 -37 -80 -96 -40 -94 24 0 136 82 140 102 5 27 -57
22 -100 -8z"/>
<path d="M3327 1703 c-14 -13 -6 -79 11 -108 26 -42 82 -96 93 -89 16 10 10
36 -28 113 -42 86 -58 103 -76 84z"/>
<path d="M3357 1163 c-11 -10 -8 -111 3 -118 6 -4 22 -24 35 -44 15 -25 33
-40 52 -44 21 -4 37 -20 62 -61 18 -31 37 -53 42 -50 5 3 9 45 9 93 0 77 -3
90 -21 107 -12 10 -35 19 -52 19 -29 0 -32 3 -40 43 -7 35 -12 42 -32 42 -13
0 -27 5 -30 10 -7 12 -19 13 -28 3z"/>
<path d="M5792 1142 c-5 -9 -12 -29 -16 -44 -7 -30 -25 -35 -57 -15 -17 10
-22 9 -34 -7 -11 -14 -12 -24 -4 -39 6 -11 12 -43 13 -71 1 -45 4 -51 21 -49
11 1 25 10 30 19 6 10 21 29 33 42 45 47 69 163 37 176 -8 3 -19 -2 -23 -12z"/>
<path d="M5570 988 c0 -29 -3 -77 -6 -105 -6 -44 -4 -54 11 -59 11 -5 26 3 45
22 39 40 46 112 16 157 -12 18 -32 33 -44 35 -20 3 -22 -1 -22 -50z"/>
<path d="M3637 984 c-13 -13 -8 -183 7 -218 8 -18 31 -46 52 -62 20 -16 67
-59 104 -96 67 -69 104 -85 113 -50 25 90 30 154 16 214 l-14 63 -43 6 c-23 3
-55 15 -70 26 -15 11 -37 23 -49 27 -13 4 -35 26 -51 49 -27 40 -50 55 -65 41z"/>
<path d="M5328 929 l-58 -51 0 -74 c0 -57 -3 -76 -15 -80 -29 -11 -48 17 -42
61 7 48 2 57 -41 79 -44 22 -85 23 -116 2 -44 -28 -59 -60 -52 -111 3 -25 9
-66 12 -92 3 -27 12 -62 20 -80 13 -28 13 -37 -1 -69 -19 -46 -20 -44 14 -44
28 0 76 43 124 114 26 38 55 34 62 -8 4 -19 16 -44 27 -55 l19 -21 29 20 c41
29 86 90 116 155 23 49 26 66 22 138 -4 80 -29 156 -53 164 -5 1 -36 -20 -67
-48z"/>
<path d="M4358 828 c-15 -13 -39 -32 -54 -43 -25 -20 -26 -25 -35 -175 -5 -85
-11 -167 -14 -181 -9 -42 13 -52 107 -45 88 6 158 14 197 22 l24 5 -6 122 c-6
129 -28 230 -55 261 -23 24 -60 43 -102 50 -27 5 -41 1 -62 -16z"/>
<path d="M4800 841 c-87 -27 -149 -90 -151 -154 -3 -76 2 -262 7 -279 9 -31
51 -33 117 -5 140 57 179 75 189 85 7 7 6 24 -5 56 -11 31 -13 55 -7 75 11 39
-10 128 -39 170 -18 26 -71 64 -83 60 -2 0 -14 -4 -28 -8z"/>
<path d="M3999 828 c-2 -17 -4 -57 -14 -199 -7 -104 -6 -119 11 -148 21 -36
138 -101 154 -85 11 11 34 211 32 281 -2 88 -37 133 -100 133 -16 0 -35 7 -42
15 -15 18 -40 20 -41 3z"/>
</g>
</svg>
