<svg
	id="postmaster"
	width="66"
	height="56"
	viewBox="0 0 66 56">
	<title>postmaster</title>
	<g transform="translate(-12,-17)">
		<path d="m 12,17 c 0,9 0,18 0,27 2.516927,0 5.033854,0 7.550781,0 0.366116,-4.394131 3.980542,-8.232474 8.341797,-8.869141 4.415625,-0.800047 9.137312,1.806832 10.814453,5.96875 0.528265,0.847362 0.452626,2.253355 0.909663,2.900391 1.461102,0 2.922204,0 4.383306,0 0,-1.35026 0,-2.700521 0,-4.050781 -4.394131,-0.366116 -8.232474,-3.980542 -8.869141,-8.341797 -0.800047,-4.415625 1.806832,-9.137312 5.96875,-10.814453 C 41.946971,20.264704 43.352964,20.340343 44,19.883306 44,18.922204 44,17.961102 44,17 33.333333,17 22.666667,17 12,17 Z" />
		<path d="M 19.550781,46 C 17.033854,46 14.516927,46 12,46 c 0,9 0,18 0,27 10.666667,0 21.333333,0 32,0 0,-1.016927 0,-2.033854 0,-3.050781 -4.829955,-0.376 -8.918873,-4.748629 -9.005849,-9.589001 -0.229995,-4.778062 3.431041,-9.496547 8.217112,-10.170191 C 44.209902,50.214051 43.997326,49.305586 44,48.626747 44,47.751164 44,46.875582 44,46 c -1.516927,0 -3.033854,0 -4.550781,0 -0.366116,4.394131 -3.980542,8.232474 -8.341797,8.869141 C 26.691797,55.669188 21.97011,53.062309 20.292969,48.900391 19.901676,47.978535 19.648279,46.996957 19.550781,46 Z" />
		<path d="m 46,17 c 0,1.016927 0,2.033854 0,3.050781 4.394131,0.366116 8.232474,3.980542 8.869141,8.341797 0.800047,4.415625 -1.806832,9.137312 -5.96875,10.814453 C 48.053029,39.735296 46.647036,39.659657 46,40.116694 46,41.41113 46,42.705565 46,44 c 1.516927,0 3.033854,0 4.550781,0 0.376,-4.829955 4.748629,-8.918873 9.589001,-9.005849 4.778063,-0.229995 9.496546,3.431041 10.170191,8.217112 -0.02402,0.998639 0.884441,0.786063 1.56328,0.788737 2.042249,0 4.084498,0 6.126747,0 0,-9 0,-18 0,-27 -10.666667,0 -21.333333,0 -32,0 z" />
		<path d="M 50.550781,46 C 49.033854,46 47.516927,46 46,46 c 0,1.35026 0,2.700521 0,4.050781 4.829955,0.376 8.918873,4.748629 9.005849,9.589001 0.229995,4.778063 -3.431041,9.496546 -8.217112,10.170191 -0.998639,-0.02402 -0.786063,0.884441 -0.788737,1.56328 0,0.542249 0,1.084498 0,1.626747 10.666667,0 21.333333,0 32,0 0,-9 0,-18 0,-27 -2.516927,0 -5.033854,0 -7.550781,0 -0.366116,4.394131 -3.980542,8.232474 -8.341797,8.869141 C 57.691797,55.669188 52.97011,53.062309 51.292969,48.900391 50.901676,47.978535 50.648279,46.996957 50.550781,46 Z" />
  </g>
</svg>
