<?xml version="1.0" encoding="UTF-8" standalone="no"?>
<svg
   xmlns:dc="http://purl.org/dc/elements/1.1/"
   xmlns:cc="http://creativecommons.org/ns#"
   xmlns:rdf="http://www.w3.org/1999/02/22-rdf-syntax-ns#"
   xmlns:svg="http://www.w3.org/2000/svg"
   xmlns="http://www.w3.org/2000/svg"
   xmlns:sodipodi="http://sodipodi.sourceforge.net/DTD/sodipodi-0.dtd"
   xmlns:inkscape="http://www.inkscape.org/namespaces/inkscape"
   version="1.0"
   width="1000"
   height="1000"
   inkscape:version="1.0.1 (3bc2e813f5, 2020-09-07)"
   sodipodi:docname="resonance.svg"
   id="svg8">
  <metadata
     id="metadata10">
    <rdf:RDF>
      <cc:Work
         rdf:about="">
        <dc:format>image/svg+xml</dc:format>
        <dc:type
           rdf:resource="http://purl.org/dc/dcmitype/StillImage" />
      </cc:Work>
    </rdf:RDF>
  </metadata>
  <defs
     id="defs2" />
  <sodipodi:namedview
     inkscape:zoom="0.74166667"
     inkscape:cx="506.84717"
     inkscape:cy="510.54249"
     inkscape:window-width="1754"
     inkscape:window-height="1057"
     inkscape:window-x="158"
     inkscape:window-y="-8"
     inkscape:window-maximized="1"
     id="namedview4"
     inkscape:document-rotation="0"
     showgrid="false"
     inkscape:current-layer="svg8" />
  <path
     d="m 50,50 v 239.4 162 h 162 a 162,162 0 0 0 162,-162 V 140 h 81 V 50 Z m 495,0 v 90 h 81 v 149.4 a 162,162 0 0 0 162,162 H 950 V 289.4 50 Z M 50,537.8 V 699.8 950 H 455 V 845.6 H 374 V 699.8 a 162,162 0 0 0 -162,-162 z m 738,0 a 162,162 0 0 0 -162,162 V 845.6 H 545 V 950 h 405 v -250.2 -162 z"
     id="path6"
     style="stroke-width:0.9" />
</svg>
