<svg width="117.2" height="117.2" viewBox="0 0 117.2 117.2"><g id="revive_token" fill-rule="evenodd"><title>revive_token</title><path unicode="E146" d="M 58.6 0 L 0 58.6 L 58.6 117.2 L 117.2 58.6 L 58.6 0 Z M 6.1 58.6 L 58.6 6.1 L 111.1 58.6 L 58.6 111.1 L 6.1 58.6 Z M 58.6 26 C 40.6 26 26 40.6 26 58.6 C 26 76.6 40.6 91.3 58.6 91.3 C 76.6 91.3 91.3 76.6 91.3 58.6 C 91.3 40.6 76.6 26 58.6 26 Z M 58.6 86.5 C 43.3 86.5 30.7 74 30.7 58.6 C 30.7 43.3 43.3 30.7 58.6 30.7 C 74 30.7 86.5 43.3 86.5 58.6 C 86.5 74 74 86.5 58.6 86.5 Z M 58.6 35.9 C 46.1 35.9 35.9 46.1 35.9 58.6 C 35.9 71.2 46.1 81.3 58.6 81.3 C 71.2 81.3 81.3 71.2 81.3 58.6 C 81.3 46.1 71.2 35.9 58.6 35.9 Z M 74 61.6 L 60.5 75.1 L 56.8 75.1 L 43.3 61.6 L 43.3 60.5 L 50.5 60.5 A 1.969 1.969 0 0 1 51.295 60.657 C 51.7 60.834 52.01 61.157 52.2 61.6 A 7.105 7.105 0 0 0 58.584 65.7 A 6.862 6.862 0 0 0 58.6 65.7 A 7.083 7.083 0 0 0 63.09 64.111 A 7.601 7.601 0 0 0 65.1 61.6 A 1.895 1.895 0 0 1 65.607 60.897 A 1.662 1.662 0 0 1 66.7 60.5 L 74 60.5 L 74 61.6 Z M 74 56.8 L 66.7 56.8 A 1.869 1.869 0 0 1 65.118 55.735 A 2.165 2.165 0 0 1 65.1 55.7 C 63.9 53.3 61.5 51.6 58.6 51.6 C 55.8 51.6 53.3 53.3 52.2 55.7 A 1.981 1.981 0 0 1 51.061 56.713 A 1.811 1.811 0 0 1 50.5 56.8 L 43.3 56.8 L 43.3 55.7 L 56.8 42.2 L 60.5 42.2 L 74 55.7 L 74 56.8 Z M 54.8 58.6 C 54.8 56.5 56.5 54.8 58.6 54.8 C 60.7 54.8 62.4 56.5 62.4 58.6 C 62.4 60.7 60.7 62.4 58.6 62.4 C 56.5 62.4 54.8 60.7 54.8 58.6 Z"/></g></svg>