<svg width="125.6" height="125.6" viewBox="0 0 125.6 125.6"><g id="settings" fill-rule="evenodd"><title>settings</title><path unicode="E059" d="M 125.6 70.5 L 125.6 55.1 L 107.5 52.1 C 106.4 47.4 104.5 42.9 102 38.8 L 112.7 23.9 L 101.8 13 L 86.9 23.7 C 82.7 21.2 78.2 19.3 73.5 18.1 L 70.5 0 L 55.1 0 L 52.1 18.1 C 47.4 19.3 42.9 21.2 38.8 23.7 L 23.9 13 L 13 23.9 L 23.7 38.8 C 21 42.9 19.3 47.4 18.1 52.1 L 0 55.1 L 0 70.5 L 18.1 73.5 C 19.3 78.3 21 82.8 23.7 86.9 L 13 101.8 L 23.9 112.7 L 38.8 102 C 42.9 104.5 47.4 106.4 52.1 107.5 L 55.1 125.6 L 70.5 125.6 L 73.5 107.5 C 78.3 106.4 82.8 104.5 86.9 102 L 101.8 112.7 L 112.7 101.8 L 102 86.9 C 104.5 82.8 106.4 78.3 107.5 73.5 L 125.6 70.5 Z M 62.8 91.2 C 47.2 91.2 34.4 78.4 34.4 62.8 C 34.4 47.2 47.2 34.4 62.8 34.4 C 78.4 34.4 91.2 47.2 91.2 62.8 C 91.2 78.4 78.4 91.2 62.8 91.2 Z"/></g></svg>