<?xml version="1.0" encoding="UTF-8" standalone="no"?>
<svg
   xmlns:svg="http://www.w3.org/2000/svg"
   xmlns="http://www.w3.org/2000/svg"
   xmlns:sodipodi="http://sodipodi.sourceforge.net/DTD/sodipodi-0.dtd"
   xmlns:inkscape="http://www.inkscape.org/namespaces/inkscape"
   width="3700"
   height="1000"
   inkscape:version="1.0.1 (3bc2e813f5, 2020-09-07)"
   sodipodi:docname="hive_relic.svg">
  <defs
     id="defs2" />
  <sodipodi:namedview
     inkscape:zoom="0.22249952"
     inkscape:cx="2368.8195"
     inkscape:cy="473.58194"
     inkscape:window-width="1754"
     inkscape:window-height="1057"
     inkscape:window-x="158"
     inkscape:window-y="-8"
     inkscape:window-maximized="1" />
  <path
     d="m 110.45317,650.9915 c 53.2519,24.75086 111.75398,38.2513 122.25436,27.75099 3.75013,-3.75014 3.0001,-22.50083 -3.00011,-42.00153 -10.50037,-40.50141 2.25008,-60.75216 24.75088,-38.25139 27.00096,27.00098 58.50208,30.00111 80.25286,8.25038 54.75195,-54.75198 404.2644,-42.75156 450.01603,15.00046 9.75035,12.75043 12.00042,34.50125 6.0002,58.50209 -9.75034,35.25126 -12.00041,37.50138 -48.0017,49.50181 -20.25072,6.75017 -69.00245,16.50057 -107.25382,21.75082 -79.50283,10.50031 -87.75313,27.75088 -33.00118,67.50239 15.75056,12.75043 53.25189,45.75156 81.00289,73.50255 48.00171,48.00169 54.00192,51.00182 97.50347,49.5018 39.75142,-2.25012 51.75185,-8.25038 88.50316,-45.00166 30.75111,-30.75111 55.50197,-45.00156 93.75336,-56.25197 28.50099,-7.50028 59.25213,-17.25068 68.25253,-20.25071 8.2501,-3.75014 50.2517,-11.25041 91.5032,-16.50067 41.2514,-5.25015 77.2527,-12.75043 79.5028,-15.00045 3,-3.00013 27.7509,-8.25038 56.252,-11.25041 27.751,-3.75014 53.2519,-8.25039 56.252,-11.25042 3,-3.00013 27.0009,-9.00039 53.2519,-12.75043 27.0009,-3.00013 58.502,-9.00039 72.0024,-12.00042 13.5006,-3.00013 61.5024,-15.00065 107.2539,-26.25097 83.253,-20.2507 285.0101,-28.50099 716.2754,-29.251 218.2578,0.75001 324.7617,3.75004 659.2735,15.75047 98.2535,3.75023 189.7568,6.75026 203.2573,6.75026 48.0018,1.50012 130.5046,15.00056 152.2555,26.25097 21.0007,12.00042 36.7513,8.25029 153.0054,-39.0014 42.0015,-16.50056 119.2542,-86.25308 108.7538,-96.75348 -3.75,-3.75005 -3,-18.00064 0.7501,-32.25112 5.2501,-14.25048 12.0005,-42.00151 16.5005,-63.00227 3.7502,-20.25063 11.2504,-47.25165 15.0007,-60.00209 3.75,-12.75044 10.5003,-39.00144 15.0004,-60.0022 3.7502,-20.25063 11.2504,-47.25166 15.0007,-60.0021 3.75,-12.75043 10.5002,-39.00133 15.0004,-60.00208 3.7502,-20.25075 10.5004,-45.0016 13.5005,-54.00194 3.0001,-10.50038 9.7504,-42.75153 15.0005,-72.00261 7.5003,-42.001528 4.5002,-58.502067 -11.2504,-71.252507 -15.0006,-12.000412 -27.001,-12.000412 -42.0014,0 -12.0005,9.000342 -41.2516,14.250476 -64.5024,12.000423 l -44.2515,-3.750099 -82.503,85.502983 c -79.5028,82.50299 -83.2529,84.75305 -118.5042,84.00302 -20.2507,-0.75002 -47.2517,-8.25031 -61.5022,-16.50063 -20.2507,-12.75044 -24.7509,-23.25082 -21.0007,-60.0021 2.25,-27.75104 -1.5001,-46.50163 -12.0005,-51.00186 -21.0008,-9.00023 -39.0014,9.00035 -71.2525,71.2526 -14.2505,27.75093 -33.0011,54.00194 -41.2515,57.75204 -21.7507,9.75036 -49.5018,-19.50072 -51.0018,-51.00186 -2.25,-42.75143 -25.5009,-37.50129 -68.2524,14.25058 -47.2517,59.25208 -63.0023,63.00217 -96.0035,22.5008 l -27.0009,-31.50114 -60.0021,52.5019 -60.0022,52.50179 -30.0011,-22.5008 c -26.2509,-20.25063 -32.251,-20.25063 -56.252,0.75002 -49.5017,45.0016 -125.2544,60.75222 -306.7608,63.75229 -65.2524,0.75003 -192.007,6.00027 -282.0101,10.50039 -90.0032,4.50022 -192.0068,9.00034 -225.008,9.00034 -34.5012,0 -78.7528,2.25005 -98.2535,3.75009 -24.0008,1.50004 -44.2516,-5.25014 -58.5021,-19.50061 -24.0009,-24.00095 -57.7521,-24.75096 -82.503,-1.50015 -11.2503,11.2504 -22.5007,10.50038 -42.0014,-3.00008 -41.2515,-29.25108 -79.5028,-33.00117 -102.7536,-9.75036 -19.5007,19.50072 -23.2509,18.7507 -53.2519,-11.25039 -30.0011,-30.00111 -36.0014,-31.50114 -78.0028,-19.50072 -80.2529,21.75077 -140.255,-3.7501 -153.0055,-67.5024 -5.2502,-26.25089 -0.75,-36.75127 27.751,-65.25233 54.752,-54.75195 36.0014,-64.50221 -109.5039,-61.50213 -71.25253,0.75002 -147.00521,7.5002 -168.00592,13.50046 -36.75136,11.25039 -38.2514,12.75044 -49.50181,49.50181 -6.75024,21.75067 -12.00042,69.00243 -12.00042,105.00369 0,58.50206 -3.75014,69.75245 -33.75121,101.25359 -31.50111,31.50113 -40.50143,34.50122 -105.00374,33.00118 -38.25135,-0.75002 -97.50347,-4.50012 -131.25467,-9.75036 -83.25297,-11.2504 -203.25723,11.2504 -236.25841,44.25157 -21.75078,21.75078 -46.50166,12.00042 -81.75291,-33.75119 -39.75141,-50.25173 -56.25201,-47.25165 -93.75334,14.25047 -12.75045,20.25074 -39.00139,54.00194 -58.502083,73.50266 -24.750872,24.75085 -37.501322,48.00167 -41.25146,74.25268 -6.750239,44.25157 -5.250194,45.75159 57.752043,74.25267 z m 855.03042,-37.50138 c 28.50109,-19.50074 51.75181,-24.75088 109.50391,-22.50082 41.2514,0.75002 76.5027,4.50023 79.5029,7.50027 8.2502,8.25038 -20.2508,50.25181 -40.5015,58.5021 -9.0003,4.50024 -51.7518,9.75039 -93.7533,11.25041 -92.25329,2.25002 -109.50397,-15.00055 -54.75201,-54.75196 z m 5.25025,-224.25798 c 10.50031,-22.50079 18.00059,-27.00102 46.50156,-28.50106 39.7515,-0.75002 74.7635,30.00195 75.0028,64.50232 0.095,13.71885 -0.8476,30.62118 -0.8476,30.62118 0,0 -19.0166,2.24147 -38.1539,0.87996 -67.48167,-4.80094 -99.00352,-30.0011 -82.50286,-67.5024 z M 1230.243,650.2415 c -8.2502,-18.75069 12.7505,-45.75177 32.2511,-41.25152 18.0007,4.50014 19.5008,40.50151 3.0002,57.00198 -15.0006,15.00055 -23.2508,11.25041 -35.2513,-15.75046 z m -27.7509,-179.25649 c -2.2501,-51.75177 62.2522,-77.25276 101.2535,-38.25131 36.7513,36.75128 15.0006,84.00293 -42.0015,90.00319 -34.5011,4.50011 -57.752,-15.75051 -59.252,-51.75188 z m 315.0111,40.50148 c 13.8667,-44.37334 51.6533,-66.53928 85.5031,-51.00186 23.9704,11.00283 44.1451,40.87082 44.1451,40.87082 0,0 -3.3419,31.27817 -13.394,51.38253 -18.0007,36.00126 -23.2509,39.75136 -48.7518,41.2514 -17.2506,0.75012 -38.2513,-8.25022 -53.2519,-23.25082 -11.9801,-11.98016 -23.3939,-32.4529 -23.3939,-32.4529 0,0 5.6166,-15.51334 9.1434,-26.79917 z m 1278.7956,-17.25066 c 8.2502,-36.75128 31.5011,-49.50172 61.5022,-31.50103 32.2511,18.75059 31.5011,34.50121 -2.2501,68.25241 -25.5009,25.50087 -31.5012,27.00092 -47.2516,11.2504 -10.5004,-10.50038 -15.0007,-30.0011 -12.0005,-48.00178 z m 222.7579,24.75096 c -0.75,-3.75021 17.2506,-12.75044 37.5013,-19.50072 26.2511,-9.75036 52.5019,-9.00034 84.7531,3.7501 59.1844,23.39857 81.6467,53.68903 118.8533,85.17426 9.9783,8.44389 27.1924,27.01688 27.8011,27.657 0,0 -31.5542,-2.96828 -47.3071,-4.68521 -25.6443,-2.79521 -38.7545,-3.42865 -76.8465,-9.14251 -91.5032,-13.50047 -104.2538,-18.7506 -123.7544,-45.75163 -11.2504,-17.25055 -21.0008,-34.50121 -21.0008,-37.50129 z"
     id="path837"
     style="stroke-width:1.06069" />
</svg>
