<?xml version="1.0" standalone="no"?>
<!DOCTYPE svg PUBLIC "-//W3C//DTD SVG 20010904//EN"
 "http://www.w3.org/TR/2001/REC-SVG-20010904/DTD/svg10.dtd">
<svg version="1.0" xmlns="http://www.w3.org/2000/svg"
 width="720.000000pt" height="720.000000pt" viewBox="0 0 720.000000 720.000000"
 preserveAspectRatio="xMidYMid meet">
<metadata>
Created by potrace 1.10, written by Peter Selinger 2001-2011
</metadata>
<g transform="translate(0.000000,720.000000) scale(0.100000,-0.100000)"
fill="#000000" stroke="none">
<path d="M1368 6760 c-41 -36 -129 -154 -145 -198 -4 -9 -32 -55 -63 -102 -31
-47 -64 -103 -74 -125 -10 -22 -25 -53 -32 -68 -8 -16 -14 -38 -14 -48 0 -11
-5 -30 -12 -42 -6 -12 -15 -40 -19 -62 -3 -22 -11 -60 -17 -85 -6 -25 -17 -79
-26 -120 -8 -41 -20 -102 -27 -135 -10 -44 -14 -195 -17 -555 -2 -415 0 -505
13 -562 10 -43 15 -118 15 -210 0 -79 5 -159 11 -178 5 -19 14 -55 18 -80 5
-25 15 -61 21 -80 7 -19 18 -51 25 -70 7 -19 18 -51 25 -70 6 -19 16 -51 20
-70 4 -19 13 -48 18 -65 6 -16 18 -57 28 -90 26 -94 42 -134 104 -270 32 -71
50 -113 77 -175 8 -19 21 -48 29 -63 8 -16 14 -35 14 -42 0 -7 6 -26 14 -42
25 -49 43 -96 62 -158 28 -94 78 -179 196 -337 32 -42 58 -80 58 -83 0 -3 26
-41 58 -83 32 -42 68 -97 81 -122 39 -79 83 -141 151 -215 21 -23 45 -63 55
-92 14 -45 31 -66 123 -152 155 -143 260 -229 492 -399 113 -82 134 -96 165
-112 11 -6 34 -19 50 -30 17 -11 37 -22 45 -26 8 -3 22 -10 30 -15 8 -5 22
-12 30 -15 8 -3 33 -13 55 -21 22 -9 54 -21 70 -28 77 -33 245 -89 300 -100
11 -2 37 -7 58 -10 41 -7 51 -25 12 -25 -14 0 -25 -4 -25 -10 0 -15 37 -12 63
4 14 9 67 16 152 19 108 5 124 4 95 -6 -19 -7 -42 -16 -50 -22 -8 -5 -49 -12
-90 -15 -41 -3 -75 -9 -75 -15 0 -5 28 -13 62 -17 53 -6 66 -11 91 -39 29 -32
30 -32 131 -34 57 -2 107 -7 113 -13 17 -17 -6 -38 -60 -52 -91 -24 -90 -23
-50 -32 21 -4 47 -17 58 -28 25 -25 100 -29 100 -5 0 12 15 15 75 15 41 0 75
-2 75 -5 0 -3 -12 -11 -27 -17 -25 -11 -20 -12 55 -19 46 -3 88 -11 93 -16 12
-12 -26 -53 -49 -53 -17 0 -48 -38 -38 -47 3 -3 36 7 73 21 72 27 118 33 128
16 3 -6 -5 -14 -20 -20 -22 -8 -24 -14 -19 -37 10 -41 22 -49 30 -19 4 17 13
26 26 26 11 0 29 5 41 12 26 14 100 24 296 39 121 9 150 8 180 -4 58 -23 103
-38 146 -48 21 -6 44 -14 50 -18 5 -5 24 -11 40 -14 17 -2 44 -9 60 -15 29
-10 92 -28 200 -57 100 -26 141 -36 180 -44 43 -9 116 -26 180 -44 22 -5 60
-13 85 -17 25 -4 65 -12 90 -18 141 -33 190 -42 232 -42 48 0 73 16 41 26 -27
9 -111 43 -173 71 -30 13 -70 31 -88 39 -18 8 -48 14 -67 14 -18 0 -46 5 -62
11 -15 6 -48 15 -73 19 -25 5 -65 14 -90 20 -154 39 -357 95 -405 112 -16 5
-46 14 -65 18 -37 9 -77 22 -150 51 -40 15 -45 21 -48 51 -3 35 30 127 51 140
9 6 9 12 0 27 -7 12 -9 22 -3 26 5 3 13 -3 19 -12 8 -14 12 -15 22 -6 10 10
10 18 0 39 -13 29 -6 48 9 24 8 -12 10 -12 16 3 3 9 4 27 1 38 -4 14 6 38 29
71 37 55 42 79 19 98 -18 15 -35 5 -35 -23 -1 -40 -70 -101 -86 -76 -3 6 -29
-13 -59 -43 -119 -118 -173 -167 -179 -161 -3 3 16 27 42 54 89 90 128 134
135 152 3 9 11 17 17 17 5 0 10 8 10 19 0 10 7 24 15 31 8 7 15 25 15 40 0 15
7 33 15 40 8 7 15 20 15 30 0 10 7 34 15 53 23 54 19 164 -7 232 -26 68 -36
56 -37 -39 -1 -47 -7 -68 -31 -108 -16 -26 -30 -52 -30 -56 0 -10 -68 -81
-106 -109 -68 -52 -120 -90 -134 -97 -81 -38 -150 -115 -150 -166 0 -48 -30
-67 -50 -31 -5 11 -10 73 -10 139 0 81 -5 133 -15 162 -11 30 -15 84 -15 184
-1 161 -11 204 -75 301 -51 78 -67 118 -72 185 -3 30 -10 61 -16 69 -7 8 -14
66 -17 135 -5 124 -20 158 -30 69 -8 -69 -41 -157 -85 -231 -39 -65 -132 -201
-152 -221 -23 -24 -31 -15 -14 17 16 30 41 194 41 268 0 39 -7 93 -15 120 -8
27 -15 60 -15 74 0 14 -5 32 -10 40 -8 13 -11 12 -24 -5 -12 -16 -15 -17 -16
-5 0 9 5 21 11 27 13 13 8 82 -6 86 -5 1 -11 -12 -13 -30 -2 -17 -10 -37 -18
-43 -16 -14 -19 -51 -4 -66 15 -15 31 -167 23 -222 -10 -75 -175 -382 -205
-382 -13 0 -9 97 7 190 29 165 17 253 -61 437 -8 18 -20 48 -27 65 -8 18 -21
49 -29 68 -9 19 -23 54 -32 78 -9 23 -24 61 -33 84 -13 30 -18 70 -18 144 0
99 1 104 33 148 17 26 32 50 32 55 0 5 25 28 56 51 69 52 94 76 94 91 0 6 -8
9 -17 6 -113 -36 -212 -105 -213 -148 0 -14 -36 -47 -70 -62 -8 -4 -28 -16
-45 -27 -16 -11 -37 -23 -45 -27 -88 -41 -164 -134 -184 -225 -9 -41 -24 -34
-30 15 -17 141 -26 260 -26 345 0 93 -10 145 -45 227 -7 17 -20 50 -30 75 -42
112 -96 205 -165 285 -55 64 -120 167 -120 190 0 8 -6 29 -14 47 -8 18 -21 60
-29 93 -35 141 -40 161 -44 190 -2 17 -8 39 -13 50 -5 11 -15 36 -23 55 -8 20
-39 62 -68 94 -75 82 -139 179 -139 213 0 21 -20 26 -39 9 -10 -9 -23 -16 -30
-16 -7 0 -25 -6 -39 -14 -15 -8 -49 -25 -77 -39 -27 -14 -70 -36 -94 -49 -59
-30 -248 -218 -264 -261 -8 -22 -27 -13 -27 13 0 10 6 31 14 47 7 15 20 44 28
63 25 58 86 181 123 245 18 33 45 80 58 105 14 25 34 61 45 80 26 44 85 163
107 216 20 50 16 223 -8 299 -9 28 -20 64 -25 80 -40 124 -42 136 -42 279 0
123 -2 146 -15 146 -8 0 -15 -7 -15 -15 0 -43 -104 -152 -335 -351 -44 -38
-90 -81 -102 -95 -13 -15 -31 -29 -42 -32 -59 -15 47 107 239 274 107 93 210
198 210 214 0 7 7 15 15 19 8 3 15 12 15 21 0 8 -7 15 -15 15 -8 0 -15 -5 -15
-10 0 -12 -60 -71 -121 -121 -85 -68 -185 -151 -221 -185 -21 -19 -38 -31 -38
-26 0 13 27 64 37 71 5 3 56 62 114 131 58 69 119 140 136 159 40 43 93 144
93 175 0 14 -7 37 -14 53 -8 15 -17 36 -20 46 -6 20 -34 16 -65 -8 -73 -60
-229 -165 -245 -165 -19 0 5 39 55 89 35 35 139 203 139 224 0 5 -11 18 -25
29 -14 11 -25 27 -25 36 0 14 -45 89 -61 102 -4 3 -21 30 -39 60 -18 30 -45
71 -60 90 -15 19 -30 44 -34 56 -3 12 -18 26 -32 33 -19 8 -25 17 -21 31 6 25
-24 64 -74 96 -32 20 -51 24 -111 24 -71 0 -75 -1 -120 -40z m2118 -4137 c4
-21 2 -68 -4 -106 -7 -37 -12 -102 -12 -145 -1 -42 -7 -95 -15 -117 -9 -24
-15 -81 -16 -145 -1 -141 -14 -172 -24 -57 -5 59 -3 118 5 175 8 48 16 164 20
257 4 94 8 171 8 173 1 1 9 2 17 2 8 0 17 -15 21 -37z m-17 -890 c1 -89 -6
-124 -20 -101 -10 16 -12 172 -2 208 l7 25 7 -25 c4 -14 7 -62 8 -107z m661
-8 c0 -9 -7 -18 -15 -21 -8 -4 -15 -14 -15 -24 0 -10 -6 -23 -14 -30 -8 -6
-16 -25 -18 -42 -2 -18 -9 -33 -15 -36 -19 -6 -17 63 2 78 8 7 15 18 15 26 0
7 6 17 13 21 8 4 16 16 20 26 8 21 27 23 27 2z"/>
<path d="M3925 2601 c-8 -25 3 -64 16 -56 11 8 12 46 0 64 -7 11 -10 9 -16 -8z"/>
<path d="M3865 2578 c-9 -22 4 -43 17 -30 7 7 7 16 0 29 -10 17 -11 17 -17 1z"/>
<path d="M3894 2495 c-8 -20 3 -48 16 -40 13 8 13 55 0 55 -6 0 -13 -7 -16
-15z"/>
<path d="M5066 1413 c-3 -3 -6 -15 -6 -25 0 -10 -7 -21 -15 -24 -9 -4 -15 -19
-15 -40 0 -24 -5 -34 -16 -34 -11 0 -14 -8 -12 -25 4 -34 22 -37 26 -5 2 14
10 29 18 33 8 4 14 21 14 36 0 16 7 34 15 41 8 7 15 18 15 26 0 15 -15 26 -24
17z"/>
<path d="M5130 1365 c1 -26 2 -28 11 -12 8 14 8 22 0 30 -8 8 -11 3 -11 -18z"/>
<path d="M3695 970 c3 -5 12 -10 20 -10 8 0 17 5 20 10 4 6 -5 10 -20 10 -15
0 -24 -4 -20 -10z"/>
<path d="M3772 839 c2 -7 10 -15 17 -17 8 -3 12 1 9 9 -2 7 -10 15 -17 17 -8
3 -12 -1 -9 -9z"/>
<path d="M4005 800 c-4 -6 -13 -9 -21 -6 -14 5 -44 -18 -44 -35 0 -15 38 -10
48 7 7 13 13 14 30 5 36 -19 132 -12 132 10 0 7 -13 11 -107 25 -17 2 -34 0
-38 -6z"/>
<path d="M4132 583 c2 -21 8 -38 13 -38 6 0 11 17 13 38 3 29 0 37 -13 37 -13
0 -16 -8 -13 -37z"/>
</g>
</svg>
