<?xml version="1.0" encoding="UTF-8" standalone="no"?>
<svg
   xmlns:svg="http://www.w3.org/2000/svg"
   xmlns="http://www.w3.org/2000/svg"
   xmlns:sodipodi="http://sodipodi.sourceforge.net/DTD/sodipodi-0.dtd"
   xmlns:inkscape="http://www.inkscape.org/namespaces/inkscape"
   version="1.0"
   width="385.45224"
   height="815.66602"
   inkscape:version="1.0.1 (3bc2e813f5, 2020-09-07)"
   sodipodi:docname="gunsmith.svg">
  <defs />
  <sodipodi:namedview
     inkscape:zoom="0.46354167"
     inkscape:cx="-4.1380722"
     inkscape:cy="281.7923"
     inkscape:window-width="1754"
     inkscape:window-height="1057"
     inkscape:window-x="158"
     inkscape:window-y="-8"
     inkscape:window-maximized="1" />
  <path
     d="M 192.72612,0 C 163.70561,18.30198 139.10072,42.463347 117.59331,69.066406 63.210761,139.57438 34.178851,226.7619 18.544481,313.74805 -1.8240389,429.9999 -4.3106889,550.32067 5.7261211,667.66602 h 186.9999989 187 C 389.76293,550.32067 387.27629,429.99992 366.90776,313.74805 351.27339,226.76192 322.24148,139.57437 267.85893,69.066406 246.35152,42.463337 221.74663,18.30198 192.72612,0 Z m 0,64.132816 c 38.22131,30.08408 64.48953,73.415814 84.88086,117.019534 39.55831,90.84573 52.17798,190.95035 54.24805,289.25976 -0.30104,49.60252 2.53576,98.83808 -2.06641,148.25391 H 192.72612 55.663621 c -4.60217,-49.41583 -1.76537,-98.64943 -2.06641,-148.25195 2.07007,-98.30942 14.68974,-198.416 54.248049,-289.26172 20.39133,-43.60374 46.65955,-86.935454 84.88086,-117.019534 z M 5.7261211,692.66602 v 51 H 379.72612 v -51 z m 0,72 v 51 H 379.72612 v -51 z" />
</svg>
