<?xml version="1.0" encoding="UTF-8" standalone="no"?>
<svg
   xmlns:svg="http://www.w3.org/2000/svg"
   xmlns="http://www.w3.org/2000/svg"
   xmlns:sodipodi="http://sodipodi.sourceforge.net/DTD/sodipodi-0.dtd"
   xmlns:inkscape="http://www.inkscape.org/namespaces/inkscape"
   width="100"
   height="100"
   inkscape:version="1.0.1 (3bc2e813f5, 2020-09-07)"
   sodipodi:docname="loom.svg">
  <defs />
  <sodipodi:namedview
     inkscape:zoom="3.7083333"
     inkscape:cx="-34.440581"
     inkscape:cy="20.127402"
     inkscape:window-width="1754"
     inkscape:window-height="1057"
     inkscape:window-x="158"
     inkscape:window-y="-8"
     inkscape:window-maximized="1" />
  <path
     d="M 45.701232,0.18566123 A -40,40 0 0 0 41.00006,19.000114 a -40,40 0 0 0 40,40 -40,40 0 0 0 18.814453,-4.703125 -49.999874,49.999874 0 0 1 -2.142578,10.779297 -49,49 0 0 1 -16.671875,2.923828 -49,49 0 0 1 -15.525391,-2.523438 -49,49 0 0 1 2.525391,15.523438 -49,49 0 0 1 -2.923828,16.671875 -49.999874,49.999874 0 0 1 -10.777344,2.142578 -40,40 0 0 0 4.701172,-18.814453 -40,40 0 0 0 -39.923828,-40 -40,40 0 0 0 -0.07617,0 A -40,40 0 0 0 0.18560889,45.703239 -49.999874,49.999874 0 0 1 2.3281849,34.923942 -49,49 0 0 1 19.00006,32.000114 -49,49 0 0 1 34.525451,34.523552 -49,49 0 0 1 32.00006,19.000114 -49,49 0 0 1 34.923888,2.3282393 -49.999874,49.999874 0 0 1 45.701232,0.18566123 Z m 10.509766,0.203125 a -49.999874,49.999874 0 0 1 7.835937,1.62499997 -24,24 0 0 0 -7.046875,16.9863278 -24,24 0 0 0 24,24 -24,24 0 0 0 16.986328,-7.044922 -49.999874,49.999874 0 0 1 1.625,7.833984 -31,31 0 0 1 -18.611328,6.210938 -31,31 0 0 1 -31,-31 -31,31 0 0 1 6.210938,-18.61132777 z M 71.537169,4.8770674 a -49.999874,49.999874 0 0 1 11.21875,7.3476556 -7,7 0 0 0 -1.662109,-0.224609 -7,7 0 0 0 -0.09375,0 -7,7 0 0 0 -7,7 -7,7 0 0 0 7,7 -7,7 0 0 0 7,-7 -7,7 0 0 0 -0.222656,-1.753906 -49.999874,49.999874 0 0 1 7.345703,11.214844 -17,17 0 0 1 -14.123047,7.539062 -17,17 0 0 1 -17,-17 -17,17 0 0 1 7.537109,-14.1230466 z M 25.392638,6.4747237 a -57,57 0 0 0 -1.392578,12.5253903 -57,57 0 0 0 0.242188,5.242188 -57,57 0 0 0 -5.242188,-0.242188 -57,57 0 0 0 -12.5234381,1.392578 -49.999874,49.999874 0 0 1 0.240235,-0.421875 -49.999874,49.999874 0 0 1 0.263672,-0.451172 -49.999874,49.999874 0 0 1 0.03711,-0.0625 -49.999874,49.999874 0 0 1 0.05469,-0.0918 -49.999874,49.999874 0 0 1 0.251953,-0.417968 -49.999874,49.999874 0 0 1 0.05664,-0.0918 -49.999874,49.999874 0 0 1 0.25586,-0.414063 -49.999874,49.999874 0 0 1 0.05664,-0.08984 -49.999874,49.999874 0 0 1 0.261719,-0.412109 -49.999874,49.999874 0 0 1 0.05859,-0.08984 -49.999874,49.999874 0 0 1 0.267578,-0.408203 -49.999874,49.999874 0 0 1 0.05859,-0.08984 -49.999874,49.999874 0 0 1 0.271484,-0.404296 -49.999874,49.999874 0 0 1 0.06055,-0.08789 -49.999874,49.999874 0 0 1 0.337891,-0.490234 -49.999874,49.999874 0 0 1 0.341796,-0.484375 -49.999874,49.999874 0 0 1 0.28711,-0.396485 -49.999874,49.999874 0 0 1 0.0625,-0.08594 -49.999874,49.999874 0 0 1 0.291016,-0.390625 -49.999874,49.999874 0 0 1 0.06445,-0.08594 -49.999874,49.999874 0 0 1 0.294921,-0.388672 -49.999874,49.999874 0 0 1 0.06445,-0.08398 -49.999874,49.999874 0 0 1 0.300781,-0.384766 -49.999874,49.999874 0 0 1 0.06641,-0.08398 -49.999874,49.999874 0 0 1 0.302735,-0.380859 -49.999874,49.999874 0 0 1 0.06836,-0.08398 -49.999874,49.999874 0 0 1 0.308594,-0.376953 -49.999874,49.999874 0 0 1 0.06836,-0.08203 -49.999874,49.999874 0 0 1 0.3125,-0.373047 -49.999874,49.999874 0 0 1 0.07031,-0.08203 -49.999874,49.999874 0 0 1 0.316407,-0.369141 -49.999874,49.999874 0 0 1 0.07227,-0.08203 -49.999874,49.999874 0 0 1 0.320313,-0.365235 -49.999874,49.999874 0 0 1 0.07227,-0.08008 -49.999874,49.999874 0 0 1 0.326172,-0.363281 -49.999874,49.999874 0 0 1 0.07227,-0.07813 -49.999874,49.999874 0 0 1 0.404297,-0.4375 -49.999874,49.999874 0 0 1 0.333984,-0.353516 -49.999874,49.999874 0 0 1 0.07422,-0.07812 -49.999874,49.999874 0 0 1 0.339844,-0.34961 -49.999874,49.999874 0 0 1 0.07422,-0.07617 -49.999874,49.999874 0 0 1 0.34375,-0.345703 -49.999874,49.999874 0 0 1 0.07617,-0.07617 -49.999874,49.999874 0 0 1 0.345704,-0.341797 -49.999874,49.999874 0 0 1 0.07812,-0.07617 -49.999874,49.999874 0 0 1 0.05859,-0.05664 -49.999874,49.999874 0 0 1 0.369141,-0.353516 -49.999874,49.999874 0 0 1 0.355469,-0.333984 -49.999874,49.999874 0 0 1 0.08008,-0.07422 -49.999874,49.999874 0 0 1 0.357422,-0.328125 -49.999874,49.999874 0 0 1 0.08008,-0.07227 -49.999874,49.999874 0 0 1 0.363281,-0.326171 -49.999874,49.999874 0 0 1 0.08008,-0.07031 -49.999874,49.999874 0 0 1 0.367188,-0.320312 -49.999874,49.999874 0 0 1 0.08203,-0.07031 -49.999874,49.999874 0 0 1 0.36914,-0.316406 -49.999874,49.999874 0 0 1 0.457032,-0.380859 -49.999874,49.999874 0 0 1 0.08203,-0.06836 -49.999874,49.999874 0 0 1 0.378906,-0.308594 -49.999874,49.999874 0 0 1 0.08398,-0.06641 -49.999874,49.999874 0 0 1 0.380859,-0.302734 -49.999874,49.999874 0 0 1 0.08594,-0.06641 -49.999874,49.999874 0 0 1 0.384766,-0.298829 -49.999874,49.999874 0 0 1 0.08398,-0.06445 -49.999874,49.999874 0 0 1 0.388672,-0.2929682 -49.999874,49.999874 0 0 1 0.08789,-0.064453 -49.999874,49.999874 0 0 1 0.390625,-0.2890625 -49.999874,49.999874 0 0 1 0.08789,-0.064453 -49.999874,49.999874 0 0 1 0.394531,-0.2832032 -49.999874,49.999874 0 0 1 0.08789,-0.0625 -49.999874,49.999874 0 0 1 0.39844,-0.279314 -49.999874,49.999874 0 0 1 0.08984,-0.0625 -49.999874,49.999874 0 0 1 0.40039,-0.2734376 -49.999874,49.999874 0 0 1 0.08984,-0.060547 -49.999874,49.999874 0 0 1 0.40625,-0.2695313 -49.999874,49.999874 0 0 1 0.498047,-0.3242187 -49.999874,49.999874 0 0 1 0.34375,-0.21875 -49.999874,49.999874 0 0 1 0.158203,-0.099609 -49.999874,49.999874 0 0 1 0.0918,-0.056641 -49.999874,49.999874 0 0 1 0.414063,-0.2558594 -49.999874,49.999874 0 0 1 0.0918,-0.056641 -49.999874,49.999874 0 0 1 0.417969,-0.25 -49.999874,49.999874 0 0 1 0.0918,-0.054687 -49.999874,49.999874 0 0 1 0.15625,-0.089844 -49.999874,49.999874 0 0 1 0.359375,-0.2089843 -49.999874,49.999874 0 0 1 0.125,-0.072266 -49.999874,49.999874 0 0 1 0.158203,-0.089844 z M 19.003966,50.000114 a -31,31 0 0 1 30.996094,31 -31,31 0 0 1 -6.210938,18.611328 -49.999874,49.999874 0 0 1 -7.835937,-1.625 -24,24 0 0 0 7.046875,-16.986328 -24,24 0 0 0 -23.787109,-24 -24,24 0 0 0 -0.002,0 -24,24 0 0 0 -0.210891,0 A -24,24 0 0 0 2.0137319,64.045036 -49.999874,49.999874 0 0 1 0.38873189,56.211052 -31,31 0 0 1 19.00006,50.000114 a -31,31 0 0 1 0.0039,0 z m 0.0039,14 a -17,17 0 0 1 16.992194,17 -17,17 0 0 1 -7.535156,14.123047 -49.999874,49.999874 0 0 1 -11.222656,-7.347656 -7,7 0 0 0 1.757812,0.224609 -7,7 0 0 0 7,-7 -7,7 0 0 0 -6.90625,-7 -7,7 0 0 0 -0.09375,0 -7,7 0 0 0 -7,7 -7,7 0 0 0 0.222656,1.753906 -49.999874,49.999874 0 0 1 -7.3437501,-11.216797 -17,17 0 0 1 14.1210941,-7.537109 -17,17 0 0 1 0.0078,0 z m 74.515631,10.607422 a -49.999874,49.999874 0 0 1 -0.240234,0.421875 -49.999874,49.999874 0 0 1 -0.263672,0.451172 -49.999874,49.999874 0 0 1 -0.06055,0.101562 -49.999874,49.999874 0 0 1 -0.115234,0.191407 -49.999874,49.999874 0 0 1 -0.220703,0.365234 -49.999874,49.999874 0 0 1 -0.02148,0.03516 -49.999874,49.999874 0 0 1 -0.273438,0.441406 -49.999874,49.999874 0 0 1 -0.275391,0.431641 -49.999874,49.999874 0 0 1 -0.0078,0.01367 -49.999874,49.999874 0 0 1 -0.152343,0.234375 -49.999874,49.999874 0 0 1 -0.232422,0.353516 -49.999874,49.999874 0 0 1 -0.271485,0.404296 -49.999874,49.999874 0 0 1 -0.06055,0.08789 -49.999874,49.999874 0 0 1 -0.33789,0.490234 -49.999874,49.999874 0 0 1 -0.302735,0.427735 -49.999874,49.999874 0 0 1 -0.189453,0.263672 -49.999874,49.999874 0 0 1 -0.166015,0.228515 -49.999874,49.999874 0 0 1 -0.238282,0.322266 -49.999874,49.999874 0 0 1 -0.105468,0.138672 -49.999874,49.999874 0 0 1 -0.04492,0.0625 -49.999874,49.999874 0 0 1 -0.294921,0.386719 -49.999874,49.999874 0 0 1 -0.191407,0.248046 -49.999874,49.999874 0 0 1 -0.240234,0.306641 -49.999874,49.999874 0 0 1 -0.357422,0.449219 -49.999874,49.999874 0 0 1 -0.08984,0.107422 -49.999874,49.999874 0 0 1 -0.285156,0.347656 -49.999874,49.999874 0 0 1 -0.07227,0.08789 -49.999874,49.999874 0 0 1 -0.255859,0.304688 -49.999874,49.999874 0 0 1 -0.07031,0.08203 -49.999874,49.999874 0 0 1 -0.316407,0.369141 -49.999874,49.999874 0 0 1 -0.07226,0.08203 -49.999874,49.999874 0 0 1 -0.71875,0.806641 -49.999874,49.999874 0 0 1 -0.357422,0.388672 -49.999874,49.999874 0 0 1 -0.05664,0.06055 -49.999874,49.999874 0 0 1 -0.322265,0.34375 -49.999874,49.999874 0 0 1 -0.0918,0.09766 -49.999874,49.999874 0 0 1 -0.169922,0.175781 -49.999874,49.999874 0 0 1 -0.300781,0.308594 -49.999874,49.999874 0 0 1 -0.419922,0.421875 -49.999874,49.999874 0 0 1 -0.384766,0.378906 -49.999874,49.999874 0 0 1 -0.236328,0.228516 -49.999874,49.999874 0 0 1 -0.191406,0.183593 -49.999874,49.999874 0 0 1 -0.197266,0.185547 -49.999874,49.999874 0 0 1 -0.244141,0.228516 -49.999874,49.999874 0 0 1 -0.162109,0.148437 -49.999874,49.999874 0 0 1 -0.277344,0.253907 -49.999874,49.999874 0 0 1 -0.03125,0.0293 -49.999874,49.999874 0 0 1 -0.363281,0.324218 -49.999874,49.999874 0 0 1 -0.322266,0.283203 -49.999874,49.999874 0 0 1 -0.125,0.109375 -49.999874,49.999874 0 0 1 -0.08203,0.07031 -49.999874,49.999874 0 0 1 -0.36914,0.316406 -49.999874,49.999874 0 0 1 -0.457032,0.380859 -49.999874,49.999874 0 0 1 -0.08203,0.06836 -49.999874,49.999874 0 0 1 -0.378906,0.30664 -49.999874,49.999874 0 0 1 -0.257813,0.207032 -49.999874,49.999874 0 0 1 -0.207031,0.164062 -49.999874,49.999874 0 0 1 -0.08594,0.06641 -49.999874,49.999874 0 0 1 -0.394532,0.304688 -49.999874,49.999874 0 0 1 -0.259765,0.197266 -49.999874,49.999874 0 0 1 -0.203125,0.154296 -49.999874,49.999874 0 0 1 -0.08789,0.06445 -49.999874,49.999874 0 0 1 -0.417969,0.308593 -49.999874,49.999874 0 0 1 -0.335937,0.242188 -49.999874,49.999874 0 0 1 -0.154297,0.111328 -49.999874,49.999874 0 0 1 -0.3125,0.21875 -49.999874,49.999874 0 0 1 -0.166016,0.115234 -49.999874,49.999874 0 0 1 -0.296875,0.205079 -49.999874,49.999874 0 0 1 -0.214843,0.146484 -49.999874,49.999874 0 0 1 -0.244141,0.162109 -49.999874,49.999874 0 0 1 -0.232422,0.154297 -49.999874,49.999874 0 0 1 -0.06055,0.04102 -49.999874,49.999874 0 0 1 -0.408203,0.263672 -49.999874,49.999874 0 0 1 -0.34375,0.21875 -49.999874,49.999874 0 0 1 -0.158203,0.09961 -49.999874,49.999874 0 0 1 -0.0918,0.05664 -49.999874,49.999874 0 0 1 -0.417969,0.257812 -49.999874,49.999874 0 0 1 -0.458984,0.277344 -49.999874,49.999874 0 0 1 -0.05859,0.0332 -49.999874,49.999874 0 0 1 -0.08008,0.04883 -49.999874,49.999874 0 0 1 -0.421875,0.244141 -49.999874,49.999874 0 0 1 -0.09375,0.05469 -49.999874,49.999874 0 0 1 -0.283203,0.160157 -57,57 0 0 0 1.392572,-12.52345 -57,57 0 0 0 -0.242188,-5.242188 -57,57 0 0 0 5.242188,0.242188 -57,57 0 0 0 12.523437,-1.392578 z" />
</svg>
