<svg width="108.638" height="121" viewBox="0 0 108.638 121"><g id="arc_jolt" fill-rule="evenodd"><title>arc_jolt</title><path unicode="EEFE" d="M 33.972 30.635 C 33.962 30.667 33.937 30.686 33.905 30.707 A 0.686 0.686 0 0 1 33.904 30.707 C 33.937 30.686 33.962 30.667 33.972 30.635 A 0.113 0.113 0 0 0 33.978 30.6 A 6.713 6.713 0 0 0 34.528 30.138 C 34.703 29.975 34.878 29.8 35.078 29.6 A 43.942 43.942 0 0 1 44.433 23.64 C 51.19 20.33 57.947 18.494 59.531 18.087 A 25.548 25.548 0 0 1 59.878 18 L 56.978 17.7 A 79.058 79.058 0 0 0 51.424 17.506 C 50.141 17.506 48.87 17.536 47.615 17.595 A 84.124 84.124 0 0 0 36.878 18.8 C 34.878 19.1 32.878 19.5 30.978 20 C 32.778 19.2 34.578 18.5 36.378 17.8 C 39.385 16.652 42.932 15.683 46.852 14.991 A 76.582 76.582 0 0 1 57.278 13.9 L 58.478 0 A 969.193 969.193 0 0 1 58.507 0.223 C 58.687 1.58 59.645 8.841 60.278 13.9 A 76.789 76.789 0 0 1 62.298 13.927 C 69.205 14.108 76.474 15.232 83.578 17.6 A 180.547 180.547 0 0 1 85.128 18.062 A 20.574 20.574 0 0 1 86.678 18.6 C 85.678 18.7 84.678 18.7 83.678 18.8 C 77.178 19.3 70.978 20.7 65.078 22.8 A 57.895 57.895 0 0 1 72.305 24.355 C 83.159 27.445 94.947 34.459 104.478 50.1 C 107.272 55.207 109.231 61.243 108.475 59.617 A 9.591 9.591 0 0 1 108.378 59.4 C 98.213 37.36 81.189 29.128 64.165 27.846 A 64.561 64.561 0 0 0 61.478 27.7 L 60.278 27.7 L 60.978 42.9 L 81.578 44.8 L 61.178 46.7 L 61.178 48.3 L 100.678 54.9 L 61.578 61.4 L 61.478 63.1 L 81.578 65 L 61.378 66.9 L 60.678 81.6 C 69.389 81.778 77.468 79.743 82.737 78.025 A 80.808 80.808 0 0 0 84.578 77.4 C 86.628 76.619 88.012 76.028 88.541 75.815 A 13.784 13.784 0 0 1 88.578 75.8 L 88.678 75.7 C 88.578 76 88.378 76.2 88.078 76.5 L 88.078 76.6 A 47.772 47.772 0 0 1 75.175 87.349 C 69.339 90.84 63.503 93.185 60.078 94.4 L 59.978 95.8 L 60.378 95.8 C 63.912 96.098 67.392 96.142 70.786 95.979 A 86.193 86.193 0 0 0 83.978 94.3 C 86.278 93.8 88.578 93.2 90.878 92.5 C 88.778 93.6 86.678 94.6 84.478 95.6 A 46.429 46.429 0 0 1 81.814 96.746 C 75.777 99.128 68.216 100.753 59.978 101.1 L 59.078 114.4 L 58.778 121 L 58.778 119.8 L 58.678 120.7 A 1202.149 1202.149 0 0 1 58.644 120.395 C 58.435 118.507 57.301 108.257 56.578 101.2 C 50.711 101.133 44.578 100.444 38.444 98.926 A 71.849 71.849 0 0 1 29.278 96 L 25.678 94.5 C 26.878 94.4 27.978 94.3 29.178 94.2 C 36.778 93.5 44.078 91.5 50.978 88.5 A 56.438 56.438 0 0 1 41.264 85.888 C 28.908 81.333 15.59 71.325 4.878 49.9 A 73.553 73.553 0 0 1 3.865 47.554 C 1.156 40.979 -0.564 34.403 0.17 36.484 A 19.838 19.838 0 0 1 0.278 36.8 A 113.536 113.536 0 0 0 0.88 38.346 C 12.777 68.245 32.258 79.578 51.74 81.382 A 61.848 61.848 0 0 0 55.078 81.6 L 56.978 81.6 L 56.278 67 L 36.578 65 L 56.078 63 L 56.078 62 L 17.478 54.9 L 56.378 47.8 L 56.478 46.9 L 36.578 44.8 L 56.678 42.8 L 57.278 27.7 L 57.078 27.7 A 59.247 59.247 0 0 0 56.389 27.696 C 48.954 27.696 42.177 29.083 37.832 30.28 A 61.56 61.56 0 0 0 36.378 30.7 C 34.578 31.3 33.378 31.7 32.878 31.9 L 32.778 31.9 C 33.078 31.5 33.478 31.2 33.778 30.8 A 0.434 0.434 0 0 1 33.813 30.768 C 33.844 30.744 33.874 30.726 33.899 30.71 A 1.585 1.585 0 0 0 33.9 30.709 M 57.578 95.5 L 56.978 95.4 A 0.574 0.574 0 0 1 56.992 95.393 C 57.045 95.369 57.24 95.284 57.578 95.2 L 57.578 95.5 Z M 57.278 27.7 A 11.764 11.764 0 0 1 57.195 27.711 A 9.209 9.209 0 0 1 57.131 27.72 M 57.23 27.7 C 56.904 27.707 56.673 27.774 57.059 27.729"/></g></svg>