<svg width="133.3" height="112.5" viewBox="0 0 133.3 112.5"><g id="arc_warlock_super" fill-rule="evenodd"><title>arc_warlock_super</title><path unicode="E125" d="M 29.8 39.7 L 31.6 40.6 C 30.3 44.4 29.6 48.3 29.6 52.3 C 29.6 57.1 30.6 61.5 32.3 65.8 L 30.1 67 L 26 69.4 L 23.3 70.9 A 6.35 6.35 0 0 1 22.681 71.28 A 2.059 2.059 0 0 1 22.4 71.4 A 2.158 2.158 0 0 0 22.724 71.371 C 22.873 71.348 23.034 71.313 23.199 71.274 A 27.303 27.303 0 0 0 23.5 71.2 C 24.2 70.9 25.1 70.7 26.4 70.3 L 30.9 69 C 31.7 68.7 32.5 68.6 33.3 68.3 C 36 73.8 39.9 78.3 44.8 81.8 L 43.5 84.3 A 40.052 40.052 0 0 0 42.697 85.81 C 42.195 86.797 41.77 87.694 41.3 88.5 A 40.792 40.792 0 0 0 40.841 89.306 C 40.412 90.082 40.127 90.67 39.9 91.2 C 39.725 91.463 39.55 91.725 39.442 91.988 A 1.752 1.752 0 0 0 39.4 92.1 L 40.2 91.3 C 40.597 90.903 41.058 90.442 41.682 89.717 A 31.761 31.761 0 0 0 42.2 89.1 C 43 88 44.1 87 45.3 85.5 C 45.8 84.8 46.4 84.1 47.1 83.4 A 36.979 36.979 0 0 0 63.03 88.562 A 41.627 41.627 0 0 0 65 88.7 L 65.2 93.5 L 65.2 95.8 A 33.391 33.391 0 0 0 65.213 96.938 A 9.873 9.873 0 0 0 65.3 98 L 65.6 101.1 A 169.776 169.776 0 0 0 65.604 101.136 C 65.876 103.394 66.065 104.589 66.171 106.216 A 37.653 37.653 0 0 1 66.2 106.7 C 66.43 108.155 66.542 109.258 66.627 110.188 A 1597.739 1597.739 0 0 1 66.7 111 A 3.696 3.696 0 0 0 66.707 111.22 C 66.729 111.594 66.8 111.847 66.8 112.1 L 66.8 112.5 A 0.307 0.307 0 0 0 66.892 112.307 C 66.9 112.251 66.9 112.184 66.9 112.1 A 7.638 7.638 0 0 1 66.919 111.426 C 66.933 111.271 66.958 111.127 67 111 A 14.157 14.157 0 0 1 67.044 109.977 C 67.108 109.091 67.229 108.046 67.3 106.7 A 19.097 19.097 0 0 0 67.425 105.756 C 67.577 104.34 67.553 103.163 67.8 101.1 L 68.1 98 L 68.1 95.8 A 11.923 11.923 0 0 1 68.024 94.932 C 68 94.461 68 94 68 93.5 L 67.8 88.7 C 74.3 88.4 80.4 86.3 85.6 83 L 87.5 85.1 C 88.7 86.6 89.8 87.5 90.6 88.6 C 91.263 89.41 91.818 89.95 92.264 90.377 A 29.986 29.986 0 0 1 92.7 90.8 L 93.4 91.6 C 93.3 91.3 93.1 91 92.9 90.7 A 17.239 17.239 0 0 0 92.519 89.874 C 92.266 89.359 91.943 88.759 91.5 88 A 22.674 22.674 0 0 1 90.987 87.064 C 90.481 86.094 89.975 85.025 89.3 83.9 L 87.9 81.4 C 92.7 77.8 96.4 73.2 99.1 67.6 C 99.9 67.9 100.7 68 101.5 68.3 A 69.099 69.099 0 0 0 101.54 68.312 C 103.139 68.781 104.648 69.162 105.815 69.539 A 20.629 20.629 0 0 1 106 69.6 A 20.353 20.353 0 0 0 106.81 69.783 C 107.652 69.958 108.364 70.07 108.9 70.3 L 110 70.6 A 3.434 3.434 0 0 1 109.564 70.432 C 109.419 70.361 109.273 70.267 109.128 70.127 A 1.88 1.88 0 0 1 109.1 70.1 A 11.26 11.26 0 0 1 108.385 69.76 C 107.898 69.509 107.34 69.188 106.713 68.797 A 39.058 39.058 0 0 1 106.4 68.6 A 26.704 26.704 0 0 0 105.041 67.802 C 104.379 67.434 103.649 67.047 102.865 66.615 A 76.056 76.056 0 0 1 102.3 66.3 L 100.1 65.2 C 101.6 61.2 102.5 56.8 102.5 52.3 C 102.5 48.1 101.8 44 100.3 39.9 C 101 39.6 101.5 39.3 102 39 L 106.1 36.6 C 107.039 36.003 107.759 35.551 108.385 35.245 A 6.963 6.963 0 0 1 108.7 35.1 A 6.35 6.35 0 0 1 109.319 34.72 A 2.059 2.059 0 0 1 109.6 34.6 C 109.3 34.6 109 34.7 108.6 34.8 A 5.738 5.738 0 0 1 108.099 34.985 C 107.453 35.192 106.638 35.366 105.7 35.6 C 104.4 36 102.9 36.3 101.2 37 A 10.38 10.38 0 0 1 101.182 37.004 C 100.684 37.102 99.992 37.204 99.3 37.5 C 96.8 31.8 92.9 27 87.8 23.2 A 6.345 6.345 0 0 0 88.074 22.678 C 88.197 22.422 88.311 22.167 88.44 21.944 A 2.489 2.489 0 0 1 88.6 21.7 A 40.052 40.052 0 0 0 89.403 20.19 C 89.905 19.203 90.33 18.306 90.8 17.5 A 16.818 16.818 0 0 0 91.324 16.619 C 91.652 16.027 91.892 15.507 92.088 15.059 A 39.86 39.86 0 0 0 92.2 14.8 L 92.7 13.8 L 92 14.6 C 91.617 14.983 91.117 15.483 90.5 16.19 A 29.021 29.021 0 0 0 89.9 16.9 L 86.9 20.5 L 85.8 21.7 A 37.373 37.373 0 0 0 67.745 15.933 A 41.268 41.268 0 0 0 67.1 15.9 L 67.1 15.7 A 46.711 46.711 0 0 0 67.095 14.832 C 67.087 14.408 67.067 13.992 67.018 13.549 A 11.256 11.256 0 0 0 67 13.4 L 66.7 10.4 A 96.043 96.043 0 0 1 66.6 9.462 C 66.395 7.436 66.363 6.463 66.1 4.8 A 97.954 97.954 0 0 1 66.031 4.357 C 65.799 2.844 65.792 2.508 65.7 1.5 C 65.6 1.2 65.6 0.8 65.6 0.4 A 3.185 3.185 0 0 0 65.6 0.358 C 65.599 0.268 65.591 0.136 65.535 0.045 A 0.239 0.239 0 0 0 65.5 0 L 65.5 0.4 A 2.296 2.296 0 0 1 65.473 0.717 C 65.443 0.93 65.4 1.172 65.4 1.5 A 80.345 80.345 0 0 0 65.374 1.79 C 65.297 2.67 65.272 3.078 65 4.8 C 64.904 6.623 64.716 7.618 64.613 10.082 A 64.728 64.728 0 0 0 64.6 10.4 L 64.3 13.5 C 64.2 14.2 64.2 14.9 64.3 15.7 L 64.3 15.9 C 57.4 16.3 51.2 18.5 45.7 22.1 L 44.6 20.9 C 43.4 19.4 42.3 18.5 41.5 17.4 L 39.4 15.2 L 38.7 14.4 C 38.75 14.55 38.825 14.7 38.913 14.85 A 9.025 9.025 0 0 0 39.2 15.3 C 39.5 16 39.9 16.9 40.6 18 A 26.704 26.704 0 0 1 41.398 19.359 C 41.766 20.021 42.153 20.751 42.585 21.535 A 76.056 76.056 0 0 0 42.9 22.1 L 43.7 23.6 C 38.8 27.5 34.9 32.3 32.5 38.2 C 31.888 37.938 31.428 37.828 30.854 37.738 A 18.401 18.401 0 0 0 30.6 37.7 C 28.986 37.225 27.462 36.841 26.285 36.461 A 20.629 20.629 0 0 1 26.1 36.4 C 24.869 36.116 23.906 36.011 23.213 35.746 A 3.105 3.105 0 0 1 23.1 35.7 L 22.1 35.4 L 23 36 C 23.573 36.328 24.213 36.588 25.085 37.056 A 19.75 19.75 0 0 1 25.7 37.4 A 26.704 26.704 0 0 0 27.059 38.198 C 27.721 38.566 28.451 38.953 29.235 39.385 A 76.056 76.056 0 0 1 29.8 39.7 Z M 43.2 45.4 L 44.1 42.7 C 41.569 41.669 39.038 40.813 36.753 39.804 A 36.346 36.346 0 0 1 36.3 39.6 L 34.8 39 A 11.609 11.609 0 0 1 34.788 38.995 C 34.294 38.797 33.897 38.599 33.5 38.5 C 35.8 32.8 39.4 28.2 44.2 24.5 A 1.701 1.701 0 0 0 44.2 24.533 C 44.201 24.597 44.211 24.6 44.288 24.6 A 6.453 6.453 0 0 0 44.3 24.6 A 1.98 1.98 0 0 0 44.402 24.841 C 44.511 25.062 44.678 25.334 44.885 25.619 A 7.785 7.785 0 0 0 45.1 25.9 L 46.1 27.3 L 50.8 33.8 A 5.608 5.608 0 0 1 51.327 33.338 C 51.724 33.028 52.129 32.782 52.56 32.457 A 7.787 7.787 0 0 0 53 32.1 A 100.565 100.565 0 0 1 51.193 29.56 C 50.236 28.178 49.338 26.85 48.4 25.6 L 47.4 24.3 A 2.865 2.865 0 0 0 46.908 23.48 A 2.611 2.611 0 0 0 46.5 23.1 C 46.414 23.014 46.402 22.928 46.4 22.905 A 0.083 0.083 0 0 1 46.4 22.9 A 34.628 34.628 0 0 1 61.205 17.211 A 38.171 38.171 0 0 1 64.3 16.9 L 64.3 18 L 64.4 28.3 A 7.17 7.17 0 0 0 64.708 28.293 C 65.227 28.271 65.578 28.2 66 28.2 A 20.176 20.176 0 0 1 66.439 28.203 C 66.738 28.21 66.99 28.231 67.195 28.298 A 1.199 1.199 0 0 1 67.2 28.3 L 67.1 18 L 67.1 16.9 A 36.441 36.441 0 0 1 81.344 20.317 A 32.387 32.387 0 0 1 85.2 22.5 L 85 22.7 L 84.1 23.9 L 83.2 25.3 L 78.7 31.9 A 35.971 35.971 0 0 0 79.298 32.263 C 79.847 32.591 80.384 32.919 80.876 33.38 A 5.267 5.267 0 0 1 81 33.5 A 249.003 249.003 0 0 0 83.655 29.535 C 84.267 28.619 84.875 27.733 85.5 26.9 L 86.4 25.5 A 4.511 4.511 0 0 0 86.993 24.787 A 3.288 3.288 0 0 0 87.3 24.2 A 2.501 2.501 0 0 1 87.3 24.174 C 87.301 24.099 87.309 24.091 87.4 24 C 92.1 27.6 95.9 32.2 98.4 37.8 C 97.9 37.9 97.4 38.1 97 38.4 L 95.5 39 L 87.7 42.3 A 15.724 15.724 0 0 1 88.473 44.227 A 85.033 85.033 0 0 1 88.7 44.9 A 223.966 223.966 0 0 1 92.8 43.212 C 93.242 43.033 93.678 42.856 94.107 42.678 A 72.899 72.899 0 0 0 96.6 41.6 L 98.1 41 A 1.956 1.956 0 0 1 98.666 40.728 C 98.918 40.643 99.175 40.569 99.4 40.4 A 35.938 35.938 0 0 1 101.437 50.215 A 34.255 34.255 0 0 1 101.5 52.3 C 101.5 56.7 100.7 60.8 99.2 64.7 L 98.3 64.4 L 96.8 63.8 L 88.3 60.4 C 88.167 60.7 88.044 60.989 87.922 61.27 A 11.997 11.997 0 0 1 87.1 62.9 L 95.7 66.4 C 96.2 66.7 96.8 66.7 97.2 67 C 97.555 67.089 97.832 67.257 98.029 67.363 A 2.625 2.625 0 0 0 98.1 67.4 C 95.7 72.6 91.9 77.1 87.4 80.6 C 87.306 80.506 87.125 80.325 87.02 80.056 A 1.198 1.198 0 0 1 87 80 A 7.808 7.808 0 0 0 86.759 79.698 C 86.506 79.394 86.225 79.075 86 78.7 L 80.5 70.9 C 79.75 71.369 79 71.925 78.25 72.323 A 7.168 7.168 0 0 1 78.1 72.4 L 83.7 80.3 L 84.7 81.7 A 0.954 0.954 0 0 0 84.726 81.769 C 84.809 81.967 84.893 81.934 84.977 82.137 A 0.973 0.973 0 0 1 85 82.2 A 35.048 35.048 0 0 1 68.398 87.667 A 35.418 35.418 0 0 1 67.8 87.7 L 67.7 75.7 A 6.795 6.795 0 0 0 67.412 75.706 C 66.958 75.725 66.666 75.785 66.187 75.798 A 6.946 6.946 0 0 1 66 75.8 A 25.136 25.136 0 0 1 65.679 75.799 C 65.562 75.797 65.456 75.794 65.359 75.786 A 1.861 1.861 0 0 1 64.9 75.7 L 65 87.7 C 58.6 87.5 52.8 85.8 47.7 82.6 L 48 82 L 48.9 80.7 L 54.4 72.7 A 18.897 18.897 0 0 1 53.556 72.2 C 53.022 71.867 52.533 71.533 52 71.2 L 46.6 79.1 L 45.7 80.5 C 45.6 80.6 45.4 80.7 45.3 81 C 40.6 77.5 36.8 73.2 34.3 68 L 35.1 67.6 L 36.6 67 C 39.3 65.9 42.1 64.6 45.2 63.3 A 27.523 27.523 0 0 1 44.601 62.168 A 14.659 14.659 0 0 1 44 60.8 L 35.5 64.4 L 34 65 C 33.645 65.089 33.368 65.257 33.171 65.363 A 2.625 2.625 0 0 1 33.1 65.4 C 31.4 61.1 30.6 56.8 30.6 52.3 C 30.6 48.5 31.2 44.8 32.5 41.1 A 3.355 3.355 0 0 0 33.008 41.347 C 33.32 41.469 33.603 41.534 33.8 41.6 L 35.3 42.2 C 37.34 43.135 39.597 43.926 41.947 44.879 A 68.818 68.818 0 0 1 43.2 45.4 Z M 133.1 10.6 L 96.7 58.1 L 114.7 55.1 L 88.4 104.3 L 133.3 45 L 113.9 47 L 133.1 10.6 Z M 19.3 47 L 0 45 L 44.9 104.3 L 18.6 55.1 L 36.6 58.1 L 0.1 10.6 L 19.3 47 Z M 70.6 52.4 L 72.1 52.4 C 71.716 52.4 71.701 52.031 72.054 51.913 A 0.621 0.621 0 0 1 72.1 51.9 A 1.285 1.285 0 0 1 71.989 51.922 C 71.506 51.997 70.391 51.993 70.58 51.908 A 0.223 0.223 0 0 1 70.6 51.9 C 70.351 51.651 70.309 51.401 70.416 51.152 A 0.966 0.966 0 0 1 70.5 51 A 3.15 3.15 0 0 0 70.48 51.007 C 70.266 51.08 71.508 50.697 71.8 50.6 A 0.33 0.33 0 0 1 71.761 50.61 C 71.492 50.665 71.413 50.296 71.7 50.2 A 4.791 4.791 0 0 1 71.621 50.225 C 71.212 50.354 70.021 50.693 70.3 50.6 A 0.878 0.878 0 0 1 70.062 50.368 A 0.984 0.984 0 0 1 69.9 49.8 A 0.541 0.541 0 0 1 69.881 49.806 C 69.664 49.87 70.731 49.331 71.067 49.031 A 0.797 0.797 0 0 0 71.1 49 A 0.463 0.463 0 0 1 71.04 49.051 C 70.763 49.247 70.52 48.88 70.8 48.6 C 70.509 48.891 69.56 49.464 69.685 49.498 A 0.057 0.057 0 0 0 69.7 49.5 A 1.224 1.224 0 0 1 69.425 49.399 C 69.244 49.304 69.125 49.163 69.048 48.955 A 1.437 1.437 0 0 1 69 48.8 A 0.541 0.541 0 0 0 68.994 48.819 C 68.93 49.036 69.469 47.969 69.769 47.633 A 0.797 0.797 0 0 1 69.8 47.6 C 69.518 47.882 69.237 47.723 69.452 47.454 A 0.654 0.654 0 0 1 69.5 47.4 C 69.2 47.7 68.5 48.9 68.6 48.6 A 1.025 1.025 0 0 1 68.244 48.54 C 68.084 48.48 67.956 48.381 67.873 48.252 A 0.667 0.667 0 0 1 67.8 48.1 C 67.7 48.399 68.195 47.112 68.299 46.804 A 2.491 2.491 0 0 0 68.3 46.8 C 68.201 47.098 67.706 47.001 67.798 46.607 A 0.495 0.495 0 0 1 67.8 46.6 C 67.702 46.99 67.319 48.238 67.394 48.019 A 3.191 3.191 0 0 0 67.4 48 A 0.932 0.932 0 0 1 67.22 48.095 C 66.98 48.188 66.74 48.14 66.5 47.9 L 66.5 46.4 C 66.5 46.784 66.131 46.799 66.013 46.446 A 0.621 0.621 0 0 1 66 46.4 A 1.233 1.233 0 0 1 66.019 46.497 C 66.098 46.974 66.1 48.122 66.1 47.918 A 87.172 87.172 0 0 0 66.1 47.9 C 65.851 48.149 65.601 48.191 65.352 48.084 A 0.966 0.966 0 0 1 65.2 48 C 65.2 48.279 64.853 47.17 64.725 46.775 A 10.207 10.207 0 0 0 64.7 46.7 A 0.33 0.33 0 0 1 64.71 46.739 C 64.765 47.008 64.396 47.087 64.3 46.8 A 4.791 4.791 0 0 1 64.325 46.879 C 64.454 47.288 64.793 48.479 64.7 48.2 C 64.6 48.5 64.4 48.6 63.9 48.6 C 64.2 48.9 63.4 47.7 63.1 47.4 A 0.463 0.463 0 0 1 63.151 47.46 C 63.347 47.737 62.98 47.98 62.7 47.7 A 2.003 2.003 0 0 1 62.777 47.782 C 63.104 48.15 63.692 48.992 63.6 48.9 A 0.924 0.924 0 0 1 63.139 49.397 A 1.513 1.513 0 0 1 62.9 49.5 C 62.994 49.783 62.022 49.088 61.827 48.756 A 0.3 0.3 0 0 1 61.8 48.7 A 0.55 0.55 0 0 1 61.856 48.766 C 62.056 49.041 61.778 49.278 61.5 49 C 61.8 49.3 63 50 62.7 49.9 A 0.946 0.946 0 0 1 62.464 50.561 A 0.911 0.911 0 0 1 62.3 50.7 C 62.6 50.8 61.2 50.5 60.9 50.2 A 0.836 0.836 0 0 1 60.981 50.293 C 61.173 50.553 61.073 50.78 60.816 50.705 A 0.455 0.455 0 0 1 60.8 50.7 A 9.136 9.136 0 0 0 60.877 50.725 C 61.265 50.85 62.322 51.176 62.119 51.106 A 3.236 3.236 0 0 0 62.1 51.1 A 0.932 0.932 0 0 1 62.195 51.28 C 62.278 51.493 62.249 51.706 62.074 51.919 A 1.131 1.131 0 0 1 62 52 L 60.5 52 A 0.484 0.484 0 0 1 60.612 52.012 C 60.897 52.08 60.869 52.41 60.6 52.5 A 0.665 0.665 0 0 1 60.683 52.48 C 61.097 52.401 62.276 52.407 62.001 52.5 A 0.611 0.611 0 0 1 62.133 52.618 C 62.27 52.783 62.269 52.997 62.163 53.261 A 1.857 1.857 0 0 1 62.1 53.4 A 3.15 3.15 0 0 0 62.12 53.393 C 62.334 53.32 61.092 53.703 60.8 53.8 A 0.33 0.33 0 0 1 60.839 53.79 C 61.108 53.735 61.187 54.104 60.9 54.2 A 4.791 4.791 0 0 1 60.979 54.175 C 61.388 54.046 62.579 53.707 62.3 53.8 A 0.878 0.878 0 0 1 62.538 54.032 A 0.984 0.984 0 0 1 62.7 54.6 C 63 54.3 61.8 55.1 61.5 55.4 A 0.463 0.463 0 0 1 61.56 55.349 C 61.837 55.153 62.08 55.52 61.8 55.8 C 62.1 55.5 63.3 54.8 63 54.9 A 0.924 0.924 0 0 1 63.497 55.361 A 1.513 1.513 0 0 1 63.6 55.6 C 63.9 55.3 63.1 56.5 62.8 56.8 C 63.082 56.518 63.363 56.677 63.148 56.946 A 0.654 0.654 0 0 1 63.1 57 C 63.4 56.7 64.1 55.5 64 55.8 A 0.832 0.832 0 0 1 64.463 55.954 A 1.264 1.264 0 0 1 64.8 56.3 A 3.15 3.15 0 0 1 64.807 56.28 C 64.88 56.066 64.499 57.302 64.401 57.598 A 2.713 2.713 0 0 1 64.4 57.6 A 0.309 0.309 0 0 1 64.44 57.519 C 64.575 57.328 64.878 57.437 64.805 57.779 A 0.597 0.597 0 0 1 64.8 57.8 C 64.898 57.41 65.281 56.162 65.206 56.381 A 3.191 3.191 0 0 0 65.2 56.4 C 65.442 56.319 65.683 56.304 65.925 56.405 A 1.045 1.045 0 0 1 66.1 56.5 L 66.1 58 C 66.1 57.6 66.6 57.6 66.6 58 L 66.6 56.5 C 66.849 56.251 67.099 56.209 67.348 56.316 A 0.966 0.966 0 0 1 67.5 56.4 A 3.15 3.15 0 0 0 67.493 56.38 C 67.42 56.166 67.801 57.402 67.899 57.698 A 2.713 2.713 0 0 0 67.9 57.7 A 0.33 0.33 0 0 1 67.89 57.661 C 67.835 57.392 68.204 57.313 68.3 57.6 A 4.791 4.791 0 0 1 68.275 57.521 C 68.146 57.112 67.807 55.921 67.9 56.2 A 0.878 0.878 0 0 1 68.132 55.962 A 0.984 0.984 0 0 1 68.7 55.8 A 0.277 0.277 0 0 1 68.695 55.782 C 68.639 55.568 69.299 56.551 69.47 56.926 A 0.768 0.768 0 0 1 69.5 57 A 0.51 0.51 0 0 1 69.477 56.899 C 69.448 56.654 69.614 56.457 69.857 56.661 A 0.67 0.67 0 0 1 69.9 56.7 A 2.891 2.891 0 0 1 69.827 56.624 C 69.489 56.26 68.824 55.41 69.099 55.5 A 0.212 0.212 0 0 1 69.1 55.5 A 0.519 0.519 0 0 1 69.349 55.045 C 69.412 55.003 69.487 54.967 69.574 54.937 A 1.526 1.526 0 0 1 69.7 54.9 C 69.4 54.6 70.6 55.4 70.9 55.7 C 70.618 55.418 70.777 55.137 71.046 55.352 A 0.654 0.654 0 0 1 71.1 55.4 A 1.537 1.537 0 0 0 71.022 55.328 C 70.647 55.002 69.722 54.407 70 54.5 C 69.9 54.2 70 53.9 70.4 53.7 A 0.768 0.768 0 0 1 70.378 53.692 C 70.178 53.619 71.358 53.897 71.68 54.182 A 0.431 0.431 0 0 1 71.7 54.2 C 71.409 53.909 71.494 53.618 71.865 53.692 A 0.758 0.758 0 0 1 71.9 53.7 C 71.51 53.602 70.262 53.219 70.481 53.294 A 3.191 3.191 0 0 0 70.5 53.3 A 0.932 0.932 0 0 1 70.405 53.12 C 70.322 52.907 70.351 52.694 70.526 52.481 A 1.131 1.131 0 0 1 70.6 52.4 Z M 48.3 43.7 L 56.1 46.8 L 57 45.5 L 53.4 41.9 L 57.8 44.5 A 8.376 8.376 0 0 1 58.325 43.901 C 58.508 43.713 58.691 43.545 58.873 43.398 A 4.87 4.87 0 0 1 59 43.3 L 54.1 36.3 L 53.5 35.5 L 53.5 35.4 A 22.874 22.874 0 0 0 48.172 41.289 A 22.968 22.968 0 0 0 47.1 43.2 A 0.351 0.351 0 0 0 47.168 43.254 C 47.207 43.277 47.245 43.288 47.284 43.294 A 0.78 0.78 0 0 0 47.4 43.3 A 1.753 1.753 0 0 1 47.404 43.302 C 47.597 43.399 47.882 43.587 48.258 43.689 A 2.123 2.123 0 0 0 48.3 43.7 Z M 57.5 59.4 L 53.6 61.8 L 56.8 58.5 A 4.419 4.419 0 0 1 56.312 57.7 C 56.267 57.608 56.222 57.517 56.178 57.426 A 7.045 7.045 0 0 0 55.9 56.9 A 112.663 112.663 0 0 0 55.837 56.926 C 53.653 57.817 51.665 58.707 49.766 59.49 A 75.376 75.376 0 0 1 48.5 60 A 1.753 1.753 0 0 0 48.496 60.002 A 1.842 1.842 0 0 0 48.491 60.004 C 48.488 60.006 48.485 60.007 48.483 60.009 C 48.286 60.11 48.007 60.29 47.642 60.389 A 2.123 2.123 0 0 1 47.6 60.4 L 47 60.7 C 48.5 63.9 50.7 66.7 53.4 68.8 C 53.488 68.624 53.576 68.448 53.801 68.203 A 3.402 3.402 0 0 1 53.9 68.1 A 2.611 2.611 0 0 1 53.983 67.878 C 54.054 67.717 54.145 67.573 54.305 67.399 A 3.235 3.235 0 0 1 54.4 67.3 L 58.8 60.8 C 58.3 60.4 57.9 59.9 57.5 59.4 Z M 74.7 44 L 78.4 41.6 L 75.4 44.8 A 26.564 26.564 0 0 0 75.698 45.163 C 75.892 45.396 76.08 45.63 76.25 45.912 A 3.959 3.959 0 0 1 76.5 46.4 L 83.6 43.4 A 1.753 1.753 0 0 0 83.604 43.398 A 1.842 1.842 0 0 0 83.609 43.396 C 83.612 43.394 83.615 43.393 83.617 43.391 C 83.814 43.29 84.093 43.11 84.458 43.011 A 2.123 2.123 0 0 1 84.5 43 C 84.6 42.9 84.7 42.9 84.8 42.9 C 83.3 39.8 81 37.2 78.3 35.2 A 1.701 1.701 0 0 0 78.267 35.2 C 78.203 35.201 78.2 35.211 78.2 35.288 A 6.453 6.453 0 0 0 78.2 35.3 C 77.9 35.6 77.9 35.8 77.6 36.1 C 76.3 38.1 74.8 40.3 73.1 42.7 C 73.7 43.1 74.2 43.5 74.7 44 Z M 46.9 58.9 L 47.8 58.5 A 118.436 118.436 0 0 0 51.4 57.013 A 355.153 355.153 0 0 0 55.3 55.3 C 55.047 54.541 54.936 53.71 54.908 52.688 A 21.173 21.173 0 0 1 54.9 52.1 C 54.9 50.8 55.1 49.6 55.5 48.4 L 47.7 45.3 A 1.753 1.753 0 0 1 47.696 45.298 C 47.503 45.201 47.218 45.013 46.842 44.911 A 2.123 2.123 0 0 0 46.8 44.9 A 0.231 0.231 0 0 1 46.713 44.88 C 46.66 44.858 46.607 44.824 46.554 44.809 A 0.191 0.191 0 0 0 46.5 44.8 C 45.6 47.2 45.1 49.6 45.1 52.1 A 19.899 19.899 0 0 0 45.555 56.266 C 45.634 56.641 45.722 57.014 45.817 57.388 A 39.265 39.265 0 0 0 46.3 59.1 C 46.584 59.005 46.778 58.911 46.883 58.901 A 0.181 0.181 0 0 1 46.9 58.9 Z M 85.3 60.3 L 84.7 60.1 A 1.753 1.753 0 0 1 84.696 60.098 C 84.503 60.001 84.218 59.813 83.842 59.711 A 2.123 2.123 0 0 0 83.8 59.7 L 76.9 57 A 6.941 6.941 0 0 1 76.716 57.394 C 76.478 57.867 76.227 58.23 75.915 58.773 A 15.892 15.892 0 0 0 75.9 58.8 L 78.6 61.5 L 75.3 59.5 C 74.8 60.1 74.3 60.6 73.7 61.1 C 75.2 63.4 76.7 65.2 77.9 67.1 L 78.5 67.9 L 79 68.5 A 21.26 21.26 0 0 0 85.012 60.913 A 25.806 25.806 0 0 0 85.3 60.3 Z M 85.2 44.5 L 84.3 44.9 L 77.2 47.9 C 77.7 49.3 78 50.7 78 52.1 C 78 53.2 77.8 54.3 77.5 55.4 L 84.4 58.1 A 1.753 1.753 0 0 1 84.404 58.102 C 84.597 58.199 84.882 58.387 85.258 58.489 A 2.123 2.123 0 0 0 85.3 58.5 L 85.9 58.7 C 86.6 56.7 86.9 54.5 86.9 52.1 C 86.9 49.4 86.4 46.9 85.5 44.4 A 0.231 0.231 0 0 0 85.413 44.42 C 85.36 44.442 85.307 44.476 85.254 44.491 A 0.191 0.191 0 0 1 85.2 44.5 Z M 65.4 73 L 65.4 72.6 L 65.3 63.6 A 11.355 11.355 0 0 1 61.213 62.399 A 10.821 10.821 0 0 1 60.2 61.8 L 55.8 68.2 L 55.2 69 C 55.103 69.29 54.913 69.581 54.81 69.69 A 0.487 0.487 0 0 1 54.8 69.7 C 57.9 71.7 61.5 72.9 65.4 73 Z M 77.6 69.5 L 77.1 68.8 L 76.6 68 A 97.057 97.057 0 0 1 74.828 65.596 C 74.037 64.493 73.2 63.294 72.3 62 A 9.989 9.989 0 0 1 69.458 63.277 A 9.45 9.45 0 0 1 67 63.6 L 67.1 72.6 L 67.1 73 A 22.354 22.354 0 0 0 75.738 70.58 A 22.476 22.476 0 0 0 77.6 69.5 Z M 54.9 34.6 L 55.5 35.4 A 39.202 39.202 0 0 1 55.535 35.447 C 56.617 36.893 57.7 38.547 58.935 40.294 A 71.274 71.274 0 0 0 60.4 42.3 C 61.9 41.4 63.4 40.8 65.1 40.6 L 65 31.2 C 61.3 31.4 57.9 32.5 54.8 34.5 A 1.701 1.701 0 0 1 54.833 34.5 C 54.897 34.501 54.9 34.511 54.9 34.588 A 6.453 6.453 0 0 1 54.9 34.6 Z M 66.7 31.2 L 66.7 40.6 C 68.6 40.6 70.2 41.1 71.7 41.8 C 73.4 39.4 74.8 37.1 76.3 35.2 A 2.611 2.611 0 0 1 76.383 34.978 C 76.454 34.817 76.545 34.673 76.705 34.499 A 3.235 3.235 0 0 1 76.8 34.4 A 2.501 2.501 0 0 1 76.8 34.374 C 76.801 34.299 76.809 34.291 76.9 34.2 C 73.8 32.3 70.4 31.3 66.7 31.2 Z M 68.2 49.3 L 71.8 44.2 L 72.1 43.8 A 0.586 0.586 0 0 0 72.156 43.735 C 72.234 43.629 72.3 43.481 72.3 43.4 A 3.033 3.033 0 0 0 72.377 43.321 C 72.601 43.079 72.609 42.972 72.7 42.7 A 4.856 4.856 0 0 0 72.85 42.429 C 73.007 42.126 73.11 41.865 73.272 41.648 A 1.35 1.35 0 0 1 73.4 41.5 L 73.8 40.7 A 0.351 0.351 0 0 0 73.854 40.632 C 73.877 40.593 73.888 40.555 73.894 40.516 A 0.78 0.78 0 0 0 73.9 40.4 L 73.7 40.6 A 0.813 0.813 0 0 1 73.63 40.756 C 73.518 40.947 73.341 41.059 73.1 41.3 C 73.017 41.467 72.794 41.703 72.433 42.066 A 106.156 106.156 0 0 1 72.2 42.3 L 71.7 43 L 71.4 43.3 L 71.1 43.7 C 70 45.2 68.9 46.9 67.6 48.8 C 67.692 48.8 67.784 48.8 67.877 48.878 A 0.394 0.394 0 0 1 67.9 48.9 L 68.2 49.3 Z M 54.5 47 L 53.7 46.8 A 0.486 0.486 0 0 1 53.508 46.774 C 53.481 46.763 53.454 46.747 53.427 46.725 A 0.389 0.389 0 0 1 53.4 46.7 A 0.113 0.113 0 0 0 53.405 46.735 C 53.415 46.767 53.44 46.786 53.473 46.807 A 0.686 0.686 0 0 0 53.474 46.807 C 53.503 46.826 53.533 46.843 53.565 46.868 A 0.434 0.434 0 0 1 53.6 46.9 L 54.4 47.3 L 55.6 47.9 A 0.479 0.479 0 0 0 55.776 48.082 C 55.846 48.127 55.929 48.165 56.018 48.201 A 5.627 5.627 0 0 0 56.3 48.3 A 0.586 0.586 0 0 0 56.365 48.356 C 56.471 48.434 56.619 48.5 56.7 48.5 L 57.2 48.7 C 58.8 49.4 60.7 50.2 62.8 51 L 62.9 50.9 L 63.3 50.4 A 13.224 13.224 0 0 0 62.712 50.108 C 61.115 49.357 58.609 48.448 57.532 47.916 A 7.018 7.018 0 0 1 57.5 47.9 A 1.07 1.07 0 0 1 57.437 47.898 C 57.221 47.885 57.273 47.806 57.027 47.8 A 1.227 1.227 0 0 0 57 47.8 A 0.586 0.586 0 0 0 56.935 47.744 C 56.829 47.666 56.681 47.6 56.6 47.6 C 56.254 47.513 55.983 47.427 55.851 47.405 A 0.327 0.327 0 0 0 55.8 47.4 A 4.817 4.817 0 0 1 55.794 47.398 C 55.55 47.316 55.177 47.171 54.78 47.065 A 4.7 4.7 0 0 0 54.5 47 Z M 64.8 49 L 61.2 43.9 C 61.2 43.9 61.116 43.816 61.025 43.57 A 2.22 2.22 0 0 1 61 43.5 L 60.7 43.2 A 2.141 2.141 0 0 1 60.266 42.659 A 1.186 1.186 0 0 1 60.2 42.5 A 2.426 2.426 0 0 1 59.841 42.207 C 59.662 42.03 59.483 41.804 59.304 41.507 A 4.958 4.958 0 0 1 59.3 41.5 A 2.834 2.834 0 0 1 59.054 41.317 C 58.888 41.179 58.771 41.04 58.701 40.902 A 0.75 0.75 0 0 1 58.7 40.9 L 58.5 40.6 A 0.486 0.486 0 0 0 58.526 40.792 C 58.537 40.819 58.553 40.846 58.575 40.873 A 0.389 0.389 0 0 0 58.6 40.9 A 2.996 2.996 0 0 1 58.634 41.008 C 58.704 41.249 58.737 41.434 58.993 41.693 A 1.9 1.9 0 0 0 59 41.7 C 59.29 41.99 59.393 42.374 59.672 42.852 A 4.316 4.316 0 0 0 59.7 42.9 A 6.221 6.221 0 0 1 59.726 42.979 C 59.797 43.202 59.824 43.311 60.043 43.542 A 3.23 3.23 0 0 0 60.1 43.6 A 0.235 0.235 0 0 0 60.106 43.648 C 60.125 43.738 60.19 43.867 60.262 43.957 A 0.535 0.535 0 0 0 60.3 44 L 60.6 44.4 C 61.146 45.151 61.692 46.041 62.333 47.008 A 35.924 35.924 0 0 0 63.3 48.4 L 64.5 49.1 A 0.231 0.231 0 0 0 64.587 49.08 C 64.64 49.058 64.693 49.024 64.746 49.009 A 0.191 0.191 0 0 1 64.8 49 Z M 53.6 57 L 53.4 57.1 A 0.486 0.486 0 0 0 53.592 57.074 C 53.619 57.063 53.646 57.047 53.673 57.025 A 0.389 0.389 0 0 0 53.7 57 A 1.135 1.135 0 0 0 53.811 56.995 C 54.03 56.973 54.151 56.888 54.49 56.803 A 3.477 3.477 0 0 1 54.5 56.8 C 55 56.7 55.5 56.5 55.8 56.4 C 55.877 56.4 56.074 56.34 56.344 56.267 A 13.124 13.124 0 0 1 56.6 56.2 A 0.235 0.235 0 0 0 56.648 56.194 C 56.738 56.175 56.867 56.11 56.957 56.038 A 0.535 0.535 0 0 0 57 56 A 0.244 0.244 0 0 0 57.097 55.975 C 57.18 55.939 57.291 55.87 57.5 55.8 A 31.123 31.123 0 0 1 58.08 55.567 C 59.448 55.03 61.707 54.203 63 53.6 L 62.9 52.9 L 62.8 52.8 C 60.965 53.499 59.282 54.198 57.819 54.831 A 153.195 153.195 0 0 0 57.2 55.1 L 56.7 55.3 A 0.235 0.235 0 0 0 56.652 55.306 C 56.562 55.325 56.433 55.39 56.343 55.462 A 0.535 0.535 0 0 0 56.3 55.5 C 56.01 55.597 55.719 55.787 55.61 55.89 A 0.487 0.487 0 0 0 55.6 55.9 L 54.4 56.5 A 21.554 21.554 0 0 0 54.396 56.503 C 53.999 56.801 53.899 56.9 53.6 57 Z M 69.3 50.8 L 75 48.5 A 0.586 0.586 0 0 1 75.065 48.444 C 75.171 48.366 75.319 48.3 75.4 48.3 L 75.8 48.1 A 0.913 0.913 0 0 0 75.939 48.041 C 76.137 47.936 76.248 47.787 76.49 47.704 A 0.941 0.941 0 0 1 76.5 47.7 L 77.7 47.1 C 77.972 46.828 78.162 46.803 78.418 46.726 A 2.783 2.783 0 0 0 78.5 46.7 L 78.8 46.5 C 78.7 46.6 78.6 46.6 78.5 46.6 L 77.6 46.8 L 76.3 47.1 L 75.5 47.4 A 0.253 0.253 0 0 0 75.453 47.405 C 75.359 47.423 75.224 47.483 75.134 47.497 A 0.224 0.224 0 0 1 75.1 47.5 A 2.344 2.344 0 0 0 75.096 47.501 A 2.293 2.293 0 0 0 75.093 47.502 A 2.311 2.311 0 0 0 75.084 47.505 C 74.797 47.603 74.698 47.7 74.6 47.7 L 69.9 49.7 L 69.2 50.6 A 0.124 0.124 0 0 0 69.204 50.63 C 69.22 50.698 69.292 50.71 69.299 50.787 A 0.138 0.138 0 0 1 69.3 50.8 Z M 58.6 62.9 L 58.5 63.1 L 59.3 62.3 L 60.2 61.2 L 60.7 60.6 L 61 60.2 A 2.214 2.214 0 0 0 61.103 60.092 C 61.135 60.056 61.162 60.019 61.179 59.983 A 0.193 0.193 0 0 0 61.2 59.9 L 64.8 54.8 A 0.231 0.231 0 0 1 64.713 54.78 C 64.66 54.758 64.607 54.724 64.554 54.709 A 0.191 0.191 0 0 0 64.5 54.7 L 63.7 54.9 C 62.6 56.4 61.4 58.2 60.6 59.4 L 60.3 59.8 A 0.586 0.586 0 0 0 60.244 59.865 C 60.166 59.971 60.1 60.119 60.1 60.2 A 3.033 3.033 0 0 0 60.023 60.279 C 59.799 60.521 59.791 60.628 59.7 60.9 L 59 62.1 L 58.6 62.9 Z M 72.1 59.6 L 71.8 59.2 L 69 55.2 L 67.8 54.5 A 2.501 2.501 0 0 0 67.774 54.5 C 67.699 54.501 67.691 54.509 67.6 54.6 L 71.1 59.6 L 71.4 60 L 71.7 60.4 L 72.2 61 L 73.1 62 L 73.7 62.7 A 0.438 0.438 0 0 1 73.737 62.742 C 73.802 62.826 73.814 62.9 73.9 62.9 L 73.4 61.9 L 72.7 60.7 L 72.3 59.9 A 0.214 0.214 0 0 0 72.266 59.792 C 72.228 59.728 72.164 59.664 72.1 59.6 Z M 75 54.9 L 69.3 52.5 A 0.124 0.124 0 0 1 69.296 52.53 C 69.28 52.598 69.208 52.61 69.201 52.687 A 0.138 0.138 0 0 0 69.2 52.7 L 70.3 53.8 L 74.6 55.6 L 75.1 55.8 L 75.5 56 L 76.3 56.2 A 4.817 4.817 0 0 1 76.306 56.202 C 76.55 56.284 76.923 56.429 77.32 56.535 A 4.7 4.7 0 0 0 77.6 56.6 A 10.264 10.264 0 0 1 77.609 56.602 C 77.989 56.698 78.278 56.792 78.477 56.8 A 0.648 0.648 0 0 0 78.5 56.8 A 0.394 0.394 0 0 0 78.523 56.822 C 78.566 56.858 78.608 56.877 78.65 56.888 C 78.6 56.875 78.55 56.85 78.5 56.8 L 77.7 56.3 C 77.41 56.01 77.026 55.907 76.548 55.628 A 4.316 4.316 0 0 1 76.5 55.6 A 1.336 1.336 0 0 1 76.28 55.503 C 76.094 55.401 75.947 55.273 75.8 55.2 A 0.253 0.253 0 0 1 75.753 55.195 C 75.659 55.177 75.524 55.117 75.434 55.103 A 0.224 0.224 0 0 0 75.4 55.1 C 75.122 55.007 75.016 54.915 75.002 54.902 A 0.071 0.071 0 0 1 75 54.9 Z M 87.1 69.5 L 84.6 66.8 C 84.3 67.1 84.3 67.3 84 67.6 L 87.1 69.5 Z M 45.3 69.9 L 48.4 67.9 A 24.547 24.547 0 0 1 48.194 67.693 C 48.054 67.549 47.945 67.428 47.867 67.314 A 1.008 1.008 0 0 1 47.8 67.2 L 45.3 69.9 Z M 86.8 36.1 L 84.8 37.4 C 84.892 37.492 84.985 37.585 85.077 37.835 A 2.149 2.149 0 0 1 85.1 37.9 L 86.8 36.1 Z M 45 36.5 L 46.7 38.2 C 46.792 38.108 46.885 38.015 46.977 37.765 A 2.149 2.149 0 0 0 47 37.7 L 45 36.5 Z M 78.65 56.888 A 0.609 0.609 0 0 0 78.8 56.9 A 0.609 0.609 0 0 1 78.65 56.888 Z M 48.483 60.009 C 48.481 60.01 48.48 60.01 48.478 60.011 M 83.617 43.391 C 83.619 43.39 83.62 43.39 83.622 43.389 M 75.093 47.502 C 75.092 47.503 75.091 47.503 75.09 47.504"/></g></svg>