<svg width="152.6" height="120.7" viewBox="0 0 152.6 120.7"><g id="arc_titan_melee2" fill-rule="evenodd"><title>arc_titan_melee2</title><path unicode="EEFB" d="M 141.4 29.1 A 73.387 73.387 0 0 0 139.201 25.772 C 130.171 12.89 120.359 7.876 118.734 7.107 A 8.458 8.458 0 0 0 118.5 7 C 118.5 7 130.8 15.1 138.5 31.4 C 139.8 34.1 140.9 36.8 141.8 39.4 A 95.637 95.637 0 0 0 137.883 34.471 C 135.887 32.129 133.654 29.765 131.118 27.447 A 73.333 73.333 0 0 0 128.3 25 A 106.928 106.928 0 0 0 120.712 19.194 C 101.214 5.589 80.882 0.539 78.779 0.042 A 17.511 17.511 0 0 0 78.6 0 A 37.014 37.014 0 0 1 79.235 0.228 C 83.373 1.749 106.819 10.873 122 27.6 A 78.22 78.22 0 0 1 128.422 35.668 C 134.879 45.018 136.995 52.849 137.7 57 A 6.242 6.242 0 0 1 137.344 56.623 C 137.263 56.527 137.181 56.422 137.1 56.3 A 18.549 18.549 0 0 1 137.397 59.365 A 21.117 21.117 0 0 1 137.4 59.7 C 137.5 61.3 137.4 62.9 137.1 64.5 A 3.423 3.423 0 0 1 137.306 64.222 C 137.438 64.062 137.569 63.931 137.7 63.8 A 40.315 40.315 0 0 1 136.715 68.092 C 135.25 73.232 132.169 80.601 125.667 88.865 A 81.602 81.602 0 0 1 122 93.2 A 85.121 85.121 0 0 1 108.352 105.133 C 93.742 115.539 78.6 120.7 78.6 120.7 A 37.02 37.02 0 0 0 79.488 120.487 C 84.345 119.274 108.198 112.686 128.3 95.8 A 73.916 73.916 0 0 0 133.252 91.324 C 136.609 88.004 139.394 84.631 141.8 81.4 A 76.005 76.005 0 0 1 139.494 87.207 A 123.777 123.777 0 0 1 138.5 89.4 C 130.8 105.7 118.5 113.8 118.5 113.8 A 13.566 13.566 0 0 0 119.136 113.496 C 121.807 112.153 132.391 106.166 141.4 91.7 C 149.951 77.865 152.409 61.722 152.589 60.477 A 10.785 10.785 0 0 0 152.6 60.4 C 152.6 60.4 150.855 47.575 144.521 34.75 A 68.148 68.148 0 0 0 141.4 29.1 Z M 117.1 55.4 L 5.8 60.4 L 117 65 C 117 65 115.829 67.432 111.777 71.014 A 43.329 43.329 0 0 1 111.1 71.6 A 37.035 37.035 0 0 1 108.069 73.891 C 103.502 77.017 98.221 79.487 97.256 79.929 A 22.694 22.694 0 0 1 97.1 80 C 97.1 80 112.994 77.54 124.998 73.265 A 76.874 76.874 0 0 0 126 72.9 A 102.943 102.943 0 0 0 130.127 71.218 C 139.41 67.215 149.187 61.671 151.074 60.588 A 73.72 73.72 0 0 0 151.4 60.4 C 151.4 60.4 138.162 52.608 127.061 48.303 A 80.803 80.803 0 0 0 126 47.9 A 95.96 95.96 0 0 0 119.831 45.863 C 110.124 42.99 99.747 41.229 97.531 40.869 A 63.72 63.72 0 0 0 97.1 40.8 C 97.1 40.8 105.348 44.497 110.674 48.846 A 28.695 28.695 0 0 1 111.1 49.2 C 115.277 52.741 116.816 54.964 117.063 55.342 A 2.391 2.391 0 0 1 117.1 55.4 Z M 67.4 35 L 5.8 58.7 L 69.5 40.3 A 2.377 2.377 0 0 1 69.965 40.209 C 71.716 40.047 73.067 41.971 72.252 43.696 A 2.702 2.702 0 0 1 72.2 43.8 A 0.688 0.688 0 0 0 72.034 44.018 C 72.018 44.056 72.007 44.099 72.002 44.148 A 0.551 0.551 0 0 0 72 44.2 C 69.874 47.712 65.784 51.48 65.176 52.031 A 13.573 13.573 0 0 1 65.1 52.1 C 65.1 52.1 74.8 47.1 81.2 41.9 C 83.9 39.7 86.8 36.9 89.2 34.5 C 89 34.1 88.8 33.7 88.8 33.4 C 88.5 31.8 88.2 30.1 88.2 28.4 L 88.2 28.1 A 136.832 136.832 0 0 0 84.496 27.535 C 81.759 27.156 78.814 26.836 76.1 26.7 C 68.583 26.517 58.965 28.014 57.415 28.265 A 38.646 38.646 0 0 0 57.2 28.3 A 17.927 17.927 0 0 1 57.355 28.316 C 58.281 28.416 63.15 28.988 66.818 30.284 A 19.184 19.184 0 0 1 67.4 30.5 A 0.127 0.127 0 0 0 67.402 30.525 C 67.415 30.589 67.478 30.599 67.496 30.6 A 0.079 0.079 0 0 0 67.5 30.6 A 2.335 2.335 0 0 1 68.359 31.183 C 69.233 32.131 69.129 33.695 68.113 34.57 A 2.523 2.523 0 0 1 67.4 35 Z M 69.5 80.7 L 5.8 62.3 L 67.4 86.1 A 2.32 2.32 0 0 1 68.34 86.706 C 69.202 87.631 69.162 89.167 68.155 90.012 A 2.4 2.4 0 0 1 67.5 90.4 A 0.127 0.127 0 0 1 67.498 90.425 C 67.485 90.489 67.422 90.499 67.404 90.5 A 0.079 0.079 0 0 1 67.4 90.5 C 63.756 92.011 58.532 92.574 57.415 92.68 A 18.134 18.134 0 0 1 57.2 92.7 C 57.2 92.7 66.391 94.332 74.265 94.332 A 50.289 50.289 0 0 0 76.1 94.3 A 57.15 57.15 0 0 0 80.453 93.983 C 82.412 93.771 84.371 93.486 86.2 93.2 A 0.87 0.87 0 0 1 86.207 93.071 C 86.214 93.02 86.229 92.962 86.26 92.886 A 1.377 1.377 0 0 1 86.3 92.8 A 15.096 15.096 0 0 1 87.315 89.578 A 107.634 107.634 0 0 1 88 88 A 5.538 5.538 0 0 1 88.781 86.98 A 4.648 4.648 0 0 1 89.2 86.6 A 118.158 118.158 0 0 0 87.317 84.683 C 85.363 82.738 83.225 80.75 81.2 79.1 A 61.116 61.116 0 0 0 77.617 76.421 C 71.71 72.307 65.1 68.9 65.1 68.9 A 15.734 15.734 0 0 1 65.192 68.985 C 65.851 69.597 69.892 73.417 72 76.9 C 72 77 72.1 77.1 72.2 77.3 C 73.171 79.048 71.595 81.174 69.671 80.745 A 2.462 2.462 0 0 1 69.5 80.7 Z M 74.4 97.1 A 9.235 9.235 0 0 0 74.487 97.091 C 75.024 97.037 77.921 96.714 80 95.9 A 11.947 11.947 0 0 0 82.815 94.365 A 8.953 8.953 0 0 0 82.9 94.3 C 84.5 93.2 85.8 91.7 86.6 89.9 C 87.058 88.656 87.259 87.369 87.259 86.095 A 12.802 12.802 0 0 0 87.1 84.1 A 9.316 9.316 0 0 0 86.423 81.526 A 16.011 16.011 0 0 0 86.2 81 A 10.496 10.496 0 0 0 85.959 80.487 C 84.971 78.514 83.295 76.541 83.034 76.24 A 6.592 6.592 0 0 0 83 76.2 A 6.296 6.296 0 0 1 83.987 76.746 C 86.927 78.699 90.838 83.921 90.838 88.609 A 7.14 7.14 0 0 1 90.3 91.4 C 88.014 96.923 78.837 98.366 74.944 97.282 A 5.284 5.284 0 0 1 74.4 97.1 Z M 74.487 23.809 A 9.235 9.235 0 0 0 74.4 23.8 A 5.284 5.284 0 0 1 74.944 23.618 C 78.837 22.534 88.014 23.977 90.3 29.5 A 7.14 7.14 0 0 1 90.838 32.291 C 90.838 36.979 86.927 42.201 83.987 44.154 A 6.296 6.296 0 0 1 83 44.7 C 83 44.7 84.782 42.594 85.867 40.569 A 11.472 11.472 0 0 0 86.2 39.9 A 13.462 13.462 0 0 0 86.667 38.711 A 8.593 8.593 0 0 0 87.1 36.7 A 12.646 12.646 0 0 0 87.259 34.8 C 87.261 34.583 87.256 34.366 87.245 34.149 A 10.63 10.63 0 0 0 86.6 31 C 85.8 29.2 84.5 27.7 82.9 26.6 A 8.953 8.953 0 0 0 82.815 26.535 A 11.947 11.947 0 0 0 80 25 C 77.921 24.186 75.024 23.863 74.487 23.809 Z M 34.1 29.9 L 33.8 29.9 L 33.7 26 L 34.1 26 C 36.8 26 39.4 26.3 42 27 L 41.1 30.8 C 38.8 30.2 36.5 29.9 34.1 29.9 Z M 19.6 33.6 L 17.8 30.1 C 20.2 28.9 22.8 27.9 25.5 27.2 L 26.5 31 C 24.1 31.6 21.7 32.5 19.6 33.6 Z M 0.1 64.8 L 4 64.3 A 31.072 31.072 0 0 0 4.281 66.112 A 27.261 27.261 0 0 0 5.8 71.4 L 2.1 72.8 C 1.2 70.2 0.5 67.5 0.1 64.8 Z M 5.9 80.2 L 9.1 78 C 10.5 80 12.1 81.9 14 83.5 L 11.4 86.4 C 9.3 84.6 7.5 82.5 5.9 80.2 Z M 34.4 94.7 L 34.3 94.7 L 34.3 90.8 L 34.4 90.8 C 35.6 90.8 36.8 90.7 38 90.6 C 39.2 90.4 40.4 90.2 41.6 89.9 L 42.5 93.7 C 41.2 94 39.8 94.3 38.4 94.5 L 38.3 94.5 A 102.16 102.16 0 0 1 36.35 94.637 A 33.859 33.859 0 0 1 34.4 94.7 Z M 18.3 91 L 20 87.5 C 22.2 88.6 24.5 89.4 26.9 90 L 26.1 93.8 C 23.3 93.2 20.7 92.3 18.3 91 Z M 48 33.3 L 49.8 29.8 C 52.2 31.1 54.5 32.6 56.6 34.5 L 54.1 37.4 C 52.2 35.8 50.2 34.4 48 33.3 Z M 3.9 56.9 L 0 56.5 A 38.861 38.861 0 0 1 0.281 54.462 A 34.291 34.291 0 0 1 1.8 48.5 L 5.5 49.8 C 4.7 52 4.1 54.5 3.9 56.9 Z M 8.7 43.2 L 5.5 41 C 7 38.7 8.9 36.6 11 34.8 L 13.5 37.7 C 11.7 39.3 10.1 41.2 8.7 43.2 Z M 50.3 90.7 L 48.4 87.3 C 50.6 86.1 52.6 84.7 54.4 83.1 L 57 86 C 55 87.8 52.7 89.4 50.3 90.7 Z"/></g></svg>