<svg width="188.7" height="98" viewBox="0 0 188.7 98"><g id="arc_drone" fill-rule="evenodd"><title>arc_drone</title><path unicode="E118" d="M 143.8 80.4 L 127.2 74.8 A 41.785 41.785 0 0 0 136.09 49.907 A 42.645 42.645 0 0 0 136.1 49 A 41.251 41.251 0 0 0 132.65 32.306 A 42.859 42.859 0 0 0 127.2 23.2 L 143.8 17.6 L 146.8 40 L 188.7 0 L 153.7 20.4 L 150.7 0.4 L 125.1 20.7 A 41.387 41.387 0 0 0 95.037 7.205 A 42.969 42.969 0 0 0 94.4 7.2 A 41.457 41.457 0 0 0 73.257 12.871 A 41.878 41.878 0 0 0 63.6 20.7 L 38 0.4 L 35 20.4 L 0 0 L 41.9 40 L 45 17.6 L 61.5 23.2 A 41.33 41.33 0 0 0 52.686 46.248 A 43.727 43.727 0 0 0 52.6 49 A 41.641 41.641 0 0 0 59.393 71.843 A 43.28 43.28 0 0 0 61.5 74.8 L 45 80.4 L 41.9 57.9 L 0 98 L 35 77.6 L 38 97.5 L 63.6 77.3 A 41.052 41.052 0 0 0 91.545 90.609 A 44.695 44.695 0 0 0 94.4 90.7 C 106.5 90.7 117.4 85.7 125.1 77.3 L 150.7 97.5 L 153.7 77.6 L 188.7 98 L 146.8 57.9 L 143.8 80.4 Z M 94.4 85.4 C 73.9 85.4 57.3 68.9 57.3 48.4 A 33.651 33.651 0 0 1 57.627 43.902 A 45.698 45.698 0 0 1 58.1 41.1 C 58.1 41.422 58.035 41.744 58.01 42.118 A 4.169 4.169 0 0 0 58 42.4 A 35.984 35.984 0 0 0 67.678 67.022 A 36.052 36.052 0 0 0 76.8 74.1 A 30.429 30.429 0 0 1 63.706 49.608 A 31.714 31.714 0 0 1 63.7 49 A 30.508 30.508 0 0 1 93.502 18.313 A 32.117 32.117 0 0 1 94.4 18.3 C 111.3 18.3 125 31.9 125 49 A 30.316 30.316 0 0 1 117.913 68.593 A 31.119 31.119 0 0 1 111.9 74.1 A 36.037 36.037 0 0 0 130.65 44.314 A 36.832 36.832 0 0 0 130.7 42.4 A 4.344 4.344 0 0 0 130.684 42.042 C 130.66 41.743 130.614 41.476 130.602 41.213 A 2.657 2.657 0 0 1 130.6 41.1 A 41.125 41.125 0 0 1 131.345 46.641 A 29.311 29.311 0 0 1 131.4 48.4 C 131.4 68.9 114.8 85.4 94.4 85.4 Z M 114.2 49 C 114.2 38 105.3 29.1 94.4 29.1 C 83.4 29.1 74.5 38 74.5 49 C 74.5 59.9 83.4 68.8 94.4 68.8 C 105.3 68.8 114.2 59.9 114.2 49 Z"/></g></svg>