<svg width="100.1" height="120.6" viewBox="0 0 100.1 120.6"><g id="arc_hunter_super" fill-rule="evenodd"><title>arc_hunter_super</title><path unicode="EEFD" d="M 98.7 87.9 L 88.4 81.7 A 3.254 3.254 0 0 1 86.929 79.22 C 86.925 79.159 86.923 79.098 86.923 79.037 A 2.626 2.626 0 0 1 87 78.4 C 87.5 76.5 87.9 74.5 88 72.6 C 88.2 71.2 89.3 70.1 90.7 69.9 L 96.4 69.3 L 88.2 68.3 A 35.728 35.728 0 0 0 87.651 63.136 A 21.65 21.65 0 0 0 87.4 62 A 2.246 2.246 0 0 1 87.357 61.622 C 87.333 60.736 87.825 59.85 88.7 59.5 L 94 57 L 86.5 58.6 A 3.185 3.185 0 0 0 86.5 58.558 C 86.499 58.468 86.491 58.336 86.435 58.245 A 0.239 0.239 0 0 0 86.4 58.2 A 2.809 2.809 0 0 1 86.279 57.478 C 86.238 56.384 86.818 55.291 87.8 54.8 L 100.1 48.6 L 84 52.6 C 83 50.7 81.9 49 80.6 47.3 L 92 35.7 L 80.9 42.8 L 88.8 32.9 L 77.9 41.6 A 2.424 2.424 0 0 1 76.925 42.062 C 76.381 42.18 75.808 42.094 75.296 41.79 A 2.57 2.57 0 0 1 74.9 41.5 C 73 40 70.9 38.7 68.8 37.6 C 67.911 37.115 67.414 36.239 67.414 35.287 A 2.833 2.833 0 0 1 67.5 34.6 L 70.2 26.5 L 64.7 35.7 C 64.799 35.799 64.898 35.8 64.996 35.897 A 0.421 0.421 0 0 1 65 35.9 C 62.7 35 60.3 34.4 57.8 34 L 59.5 35.7 L 57 35.7 L 59.5 38.2 L 57 38.2 A 6.003 6.003 0 0 0 59.948 39.886 A 10.014 10.014 0 0 0 60 39.9 C 73.1 43.3 82.8 55.2 82.8 69.3 C 82.8 86.1 69.2 99.7 52.4 99.7 A 30.04 30.04 0 0 1 42.323 98.004 A 27.141 27.141 0 0 1 40.1 97.1 L 40.1 97 A 23.01 23.01 0 0 0 40.092 96.996 C 39.394 96.698 38.597 96.398 37.9 96 C 28.4 90.9 22 80.8 22 69.3 C 22 55.2 31.7 43.4 44.7 40 C 45.9 39.7 46.9 39.1 47.8 38.2 L 45.3 38.2 L 47.8 35.7 L 45.3 35.7 L 47 34 C 45.5 34.3 44 34.6 42.6 35 L 35.1 20.2 L 38.4 33.5 A 3.29 3.29 0 0 1 38.487 33.952 C 38.635 35.172 38.085 36.392 36.994 37.084 A 3.478 3.478 0 0 1 36.6 37.3 C 34.4 38.4 32.3 39.7 30.4 41.2 A 3.812 3.812 0 0 1 28.15 41.987 C 27.35 42 26.55 41.75 25.9 41.2 L 18.8 35.7 L 26 45 L 18.6 39.5 C 18.6 39.5 21.834 43.67 23.905 46.436 A 159.437 159.437 0 0 1 24.4 47.1 C 23.4 48.4 22.5 49.7 21.6 51.1 C 20.8 52.5 19.1 53.2 17.6 52.6 L 9.7 49.8 L 16.9 54.6 A 3.692 3.692 0 0 1 18.284 56.389 C 18.417 56.763 18.483 57.155 18.475 57.547 A 3.019 3.019 0 0 1 18.3 58.5 C 17.4 61.3 16.9 64.3 16.7 67.3 L 0 69.3 L 14.4 70.9 C 15.7 71.1 16.7 72.1 16.9 73.4 C 17 74.9 17.3 76.3 17.6 77.7 L 7.3 83 L 16.2 80.9 C 16.387 80.853 16.577 80.831 16.765 80.831 A 2.479 2.479 0 0 1 19.1 82.5 C 19.9 84.5 20.9 86.4 22.1 88.2 C 22.8 89.3 22.6 90.8 21.7 91.7 L 16.4 97.2 L 24.8 92 A 3.274 3.274 0 0 1 25.437 93.85 C 25.45 94.5 25.25 95.15 24.8 95.7 L 20.7 100.9 L 27.9 95.3 C 29.4 96.7 31 98 32.7 99.2 A 2.895 2.895 0 0 1 33.853 100.587 C 34.012 100.996 34.072 101.439 34.017 101.882 A 2.664 2.664 0 0 1 33.9 102.4 L 30.4 113.2 L 36.2 103.9 A 2.844 2.844 0 0 1 38.662 102.508 C 39.01 102.508 39.362 102.57 39.7 102.7 C 41.2 103.3 42.7 103.8 44.3 104.1 L 43.9 113.4 L 45.9 106.2 A 2.082 2.082 0 0 1 47.883 104.789 A 2.181 2.181 0 0 1 48.1 104.8 C 48.4 104.8 48.7 104.9 49 104.9 C 50 105 50.7 105.7 50.8 106.7 L 52.4 120.6 L 54.2 105 A 35.713 35.713 0 0 0 64.45 102.956 A 28.927 28.927 0 0 0 64.6 102.9 L 67.5 108.4 L 66.1 102.4 C 69.4 101 72.5 99.1 75.3 96.8 L 80.4 102 L 76.6 95.9 L 88.8 105.6 L 79 93.3 C 79.613 92.6 80.148 91.9 80.742 91.133 A 161.865 161.865 0 0 1 81 90.8 A 2.491 2.491 0 0 1 82.859 89.956 C 83.209 89.956 83.562 90.032 83.893 90.197 A 2.336 2.336 0 0 1 83.9 90.2 L 88.6 92.5 L 83.8 88.6 L 98.3 93.9 L 84.6 85 C 84.8 84.5 85.1 84 85.3 83.5 L 98.7 87.9 Z M 37 61.5 L 37.6 61.8 L 46.1 65.7 L 38.3 60.7 L 37.4 60.3 A 20.333 20.333 0 0 1 39.324 56.503 C 40.026 55.404 40.854 54.305 41.807 53.206 A 33.591 33.591 0 0 1 41.9 53.1 A 7.24 7.24 0 0 0 41.962 53.038 C 42.458 52.529 40.446 54.365 38.9 56.2 A 29.762 29.762 0 0 0 38.039 57.513 C 37.918 57.709 37.801 57.905 37.688 58.1 A 22.829 22.829 0 0 0 36.7 60 L 30.5 57.1 L 36.3 61 A 20.51 20.51 0 0 0 35.279 64.478 A 21.07 21.07 0 0 0 34.9 67.6 L 24.8 68.4 L 34.9 69.1 A 23.974 23.974 0 0 0 35.137 72.454 C 35.34 73.885 35.653 75.159 36 76.2 L 35.9 76.2 C 34.2 74.8 32.6 73.1 31.4 71.2 C 31.225 71.025 31.05 70.773 30.875 70.512 A 56.076 56.076 0 0 1 30.8 70.4 C 30.8 70.7 30.9 71.1 30.9 71.5 C 31.2 74 31.8 76.3 32.7 78.3 L 30.5 79.8 L 32.9 78.7 A 24.441 24.441 0 0 0 35.651 83.119 C 36.683 84.433 37.791 85.543 38.9 86.4 C 39.4 86.8 40 87.2 40.6 87.6 A 27.947 27.947 0 0 1 39.384 86.331 A 14.981 14.981 0 0 1 39.1 86 A 28.798 28.798 0 0 1 36.548 82.245 A 26.809 26.809 0 0 1 34.9 78.8 A 27.638 27.638 0 0 0 40.408 81.469 A 45.443 45.443 0 0 0 42.6 82.2 A 10.191 10.191 0 0 1 42.849 82.266 C 43.131 82.344 43.366 82.422 43.6 82.5 C 43.3 82.3 43.1 82.1 42.8 81.9 A 12.171 12.171 0 0 1 41.034 80.249 C 40.421 79.56 39.826 78.765 39.266 77.881 A 22.716 22.716 0 0 1 38.3 76.2 L 39 75.9 L 46.1 71.2 L 38.3 74.7 L 37.8 75 C 37 73.3 36.5 71.3 36.3 69.1 L 45.8 68.4 L 36.2 67.6 C 36.1 65.6 36.4 63.6 37 61.5 Z M 58.8 65.7 L 67.3 61.8 L 67.5 61.6 C 68.024 63.433 68.319 65.19 68.319 66.871 A 13.865 13.865 0 0 1 68.3 67.6 L 59 68.4 L 68.2 69.1 A 20.883 20.883 0 0 1 67.395 73.18 A 23.404 23.404 0 0 1 66.8 74.9 L 66.6 74.7 L 58.8 71.2 L 65.9 75.9 L 66.2 76 A 17.411 17.411 0 0 1 64.601 78.766 C 63.687 80.056 62.675 81.108 61.7 81.9 C 61.4 82.1 61.2 82.3 60.9 82.5 C 61.195 82.402 61.491 82.303 61.881 82.205 A 10.462 10.462 0 0 1 61.9 82.2 A 32.748 32.748 0 0 0 68.414 79.512 A 24.124 24.124 0 0 0 69.6 78.8 A 25.66 25.66 0 0 1 67.189 83.473 A 25.244 25.244 0 0 1 65.3 86 C 64.9 86.6 64.4 87.1 63.9 87.6 A 35.123 35.123 0 0 0 65.208 86.7 A 12.229 12.229 0 0 0 65.6 86.4 A 16.868 16.868 0 0 0 66.428 85.716 C 68.077 84.265 69.725 82.273 71.043 79.823 A 22.885 22.885 0 0 0 71.7 78.5 L 74.4 79.8 L 71.8 78.1 A 22.122 22.122 0 0 0 73.34 73.155 A 25.999 25.999 0 0 0 73.6 71.5 A 7.638 7.638 0 0 1 73.619 70.826 C 73.633 70.671 73.658 70.527 73.7 70.4 C 73.5 70.7 73.3 71 73.1 71.2 C 71.9 73.1 70.4 74.7 68.7 76.1 L 68.6 76 A 29.738 29.738 0 0 0 69.095 73.943 C 69.267 73.095 69.413 72.171 69.503 71.19 A 22.88 22.88 0 0 0 69.6 69.1 L 80 68.4 L 69.6 67.6 A 20.121 20.121 0 0 0 69.134 64.172 A 18.776 18.776 0 0 0 68.2 61.2 L 74.4 57.1 L 67.8 60.1 A 26.867 26.867 0 0 0 66.239 57.175 A 23.112 23.112 0 0 0 65.6 56.2 C 64.051 54.361 62.033 52.521 62.542 53.041 A 7.417 7.417 0 0 0 62.6 53.1 A 23.235 23.235 0 0 1 64.356 55.259 C 65.314 56.594 66.059 57.942 66.64 59.268 A 22.472 22.472 0 0 1 67.1 60.4 L 66.6 60.7 L 58.8 65.7 Z M 49.1 97.9 L 49.2 97.9 L 50.6 94.7 L 51.3 96.3 L 52.4 92.6 L 53.5 96.3 L 54.2 94.7 L 55.6 97.9 L 55.7 97.9 L 55.7 64.7 L 49.1 64.7 L 49.1 97.9 Z M 57.4 31.3 L 55.6 29.9 L 56.4 28.7 A 2.69 2.69 0 0 1 56.383 28.68 C 56.249 28.518 55.338 27.394 55.028 26.397 A 2.877 2.877 0 0 1 55 26.3 C 54.8 25.301 54.8 20.408 54.999 18.405 A 13.01 13.01 0 0 1 55 18.4 A 4.717 4.717 0 0 1 55.09 17.725 C 55.422 16.094 56.5 14.4 56.5 14.4 C 56.5 14.4 55.8 11.4 54.8 7.6 C 53.826 4.323 52.694 0.889 52.449 0.147 A 92.224 92.224 0 0 0 52.4 0 A 47.423 47.423 0 0 0 52.361 0.116 C 52.151 0.754 51.12 3.906 50.248 7.058 A 98.289 98.289 0 0 0 50.1 7.6 A 154.246 154.246 0 0 0 49.396 10.112 C 48.831 12.197 48.453 13.758 48.337 14.242 A 38.031 38.031 0 0 0 48.3 14.4 C 48.3 14.4 49.62 16.475 49.88 18.243 A 4.52 4.52 0 0 1 49.9 18.4 A 15.781 15.781 0 0 1 49.949 19.046 C 50.079 21.283 49.982 25.332 49.804 26.278 A 1.962 1.962 0 0 1 49.8 26.3 C 49.6 27.4 48.5 28.7 48.5 28.7 L 49.2 29.9 L 47.5 31.3 A 6.522 6.522 0 0 1 47.52 31.322 C 47.687 31.504 48.83 32.759 49.2 33.5 C 49.676 34.738 49.427 37.607 49.402 37.879 A 4.677 4.677 0 0 1 49.4 37.9 C 49.4 37.9 50.692 36.906 52.385 36.9 A 4.313 4.313 0 0 1 52.4 36.9 A 4.616 4.616 0 0 1 53.308 36.992 C 54.419 37.215 55.225 37.772 55.375 37.881 A 1.302 1.302 0 0 1 55.4 37.9 C 55.4 37.9 55.227 35.212 55.606 33.793 A 2.923 2.923 0 0 1 55.7 33.5 C 55.978 32.759 57.199 31.503 57.378 31.322 A 4.962 4.962 0 0 1 57.4 31.3 Z M 46.1 42 L 49.1 44.4 L 49.1 58.2 L 47.8 59.4 L 47.8 62.9 L 48.6 63.7 L 52.4 63.7 L 56.1 63.7 L 56.9 62.9 L 56.9 59.4 L 55.6 58.2 L 55.6 44.4 L 58.8 42 A 1.873 1.873 0 0 0 58.759 41.911 C 58.489 41.357 56.841 38.4 52.4 38.4 A 8.986 8.986 0 0 0 51.013 38.504 C 47.394 39.068 46.203 41.752 46.107 41.984 A 0.815 0.815 0 0 0 46.1 42 Z M 51.625 11.798 A 33.316 33.316 0 0 0 51.5 14.6 L 51.5 25.9 A 0.931 0.931 0 0 0 51.5 25.906 A 0.896 0.896 0 0 0 52.4 26.8 A 0.931 0.931 0 0 0 52.406 26.8 A 0.896 0.896 0 0 0 53.3 25.9 L 53.3 14.6 A 32.823 32.823 0 0 0 53.197 12.067 C 52.988 9.389 52.529 7.186 52.422 6.7 A 10.104 10.104 0 0 0 52.4 6.6 C 52.4 6.6 51.872 8.886 51.625 11.798 Z"/></g></svg>