<svg width="126.8" height="120.559" viewBox="0 0 126.8 120.559"><g id="arc_warlock_aspect" fill-rule="evenodd"><title>arc_warlock_aspect</title><path unicode="EEFC" d="M 84.5 34.029 L 83.3 34.029 L 89.6 45.729 L 65.8 45.729 L 65.8 47.029 L 73.2 51.529 L 19.1 51.529 L 66.1 51.929 A 0.814 0.814 0 0 0 66.149 52.192 C 66.153 52.204 66.158 52.217 66.163 52.229 A 3.196 3.196 0 0 0 66.3 52.529 L 22.8 52.829 L 22.8 53.529 L 66.7 53.829 A 1.108 1.108 0 0 1 66.776 54.036 C 66.808 54.154 66.83 54.272 66.882 54.391 A 0.865 0.865 0 0 0 66.9 54.429 L 66.9 54.529 L 25.5 54.829 L 25.5 55.529 L 67.2 55.729 A 0.231 0.231 0 0 0 67.22 55.816 C 67.242 55.869 67.276 55.922 67.291 55.975 A 0.191 0.191 0 0 1 67.3 56.029 A 0.944 0.944 0 0 0 67.336 56.266 C 67.358 56.35 67.384 56.425 67.395 56.482 A 0.258 0.258 0 0 1 67.4 56.529 L 26.8 56.829 L 26.8 57.529 L 67.6 57.729 A 7.853 7.853 0 0 0 67.601 57.851 C 67.603 58.008 67.614 58.193 67.665 58.345 A 0.662 0.662 0 0 0 67.7 58.429 L 67.8 58.429 L 67.8 58.529 L 67.7 58.529 L 67.7 58.629 L 30.1 58.829 L 30.1 59.429 L 67.7 59.529 L 67.7 59.729 L 67.8 59.729 L 67.8 59.829 L 67.7 59.829 C 67.6 60.029 67.6 60.229 67.6 60.429 L 26.8 60.629 L 26.8 61.429 L 67.4 61.629 C 67.4 61.827 67.302 61.927 67.3 62.122 A 0.595 0.595 0 0 0 67.3 62.129 A 0.231 0.231 0 0 1 67.28 62.216 C 67.258 62.269 67.224 62.322 67.209 62.375 A 0.191 0.191 0 0 0 67.2 62.429 L 25.5 62.629 L 25.5 63.429 L 66.9 63.629 L 66.9 63.729 A 1.108 1.108 0 0 0 66.824 63.936 C 66.792 64.054 66.77 64.172 66.718 64.291 A 0.865 0.865 0 0 1 66.7 64.329 L 22.8 64.629 L 22.8 65.429 L 66.3 65.629 A 2.051 2.051 0 0 0 66.235 65.773 C 66.164 65.949 66.104 66.158 66.1 66.312 A 0.634 0.634 0 0 0 66.1 66.329 L 19.1 66.629 L 73.3 66.629 L 65.8 71.129 L 65.8 72.429 L 89.6 72.429 L 83.3 84.129 L 84.5 84.129 L 120.2 60.329 L 120.2 57.929 L 84.5 34.029 Z M 10.6 43.929 C 21.3 16.329 49.6 5.629 75.3 6.229 C 75.9 6.229 76.5 6.229 77.1 6.329 A 66.004 66.004 0 0 0 62.074 12.236 A 51.943 51.943 0 0 0 51.5 19.829 C 66.303 14.447 82.796 14.939 96.575 19.213 A 68.651 68.651 0 0 1 101.2 20.829 C 95.4 20.729 90 21.429 85.2 22.729 C 95.3 24.429 104.3 28.429 110.9 33.629 A 45.098 45.098 0 0 1 120.918 42.013 A 35.704 35.704 0 0 1 126.2 49.829 A 33.594 33.594 0 0 0 122.295 41.601 A 38.875 38.875 0 0 0 117.8 35.929 A 43.624 43.624 0 0 1 124.986 43.762 A 34.283 34.283 0 0 1 126.8 46.629 C 123.9 39.029 117.7 31.629 108.8 26.129 A 62.634 62.634 0 0 1 119.472 28.281 A 60.046 60.046 0 0 1 125.3 30.329 A 64.64 64.64 0 0 0 106.6 17.927 A 80.253 80.253 0 0 0 79.2 11.229 A 71.704 71.704 0 0 1 92.737 8.869 C 94.899 8.696 97.106 8.608 99.352 8.608 A 90.392 90.392 0 0 1 108 9.029 C 83.4 -2.771 47 -4.571 20.2 13.129 C 24.3 12.129 28.4 11.529 32.5 11.129 A 55.517 55.517 0 0 0 11.746 39.732 A 58.939 58.939 0 0 0 10.6 43.929 Z M 10.6 76.629 C 21.3 104.229 49.6 114.929 75.3 114.329 C 75.9 114.329 76.5 114.229 77.1 114.229 A 66.004 66.004 0 0 1 62.074 108.323 A 51.943 51.943 0 0 1 51.5 100.729 C 66.303 106.112 82.796 105.62 96.575 101.345 A 68.651 68.651 0 0 0 101.2 99.729 A 63.056 63.056 0 0 1 100.113 99.739 C 96.83 99.739 93.681 99.48 90.704 98.981 A 48.022 48.022 0 0 1 85.2 97.729 A 62.477 62.477 0 0 0 100.571 93.073 A 52.116 52.116 0 0 0 110.9 86.929 A 45.098 45.098 0 0 0 120.918 78.546 A 35.704 35.704 0 0 0 126.2 70.729 A 33.594 33.594 0 0 1 122.295 78.958 A 38.875 38.875 0 0 1 117.8 84.629 A 43.624 43.624 0 0 0 124.986 76.797 A 34.283 34.283 0 0 0 126.8 73.929 C 123.9 81.529 117.7 88.829 108.8 94.429 A 62.634 62.634 0 0 0 119.472 92.278 A 60.046 60.046 0 0 0 125.3 90.229 A 64.64 64.64 0 0 1 106.6 102.632 A 80.253 80.253 0 0 1 79.2 109.329 A 71.704 71.704 0 0 0 92.737 111.69 C 94.899 111.863 97.106 111.95 99.352 111.95 A 90.392 90.392 0 0 0 108 111.529 C 83.4 123.329 47 125.129 20.2 107.429 C 24.3 108.429 28.4 109.029 32.5 109.429 A 55.915 55.915 0 0 1 11.552 80.192 A 58.827 58.827 0 0 1 10.6 76.629 Z M 21.125 59.603 A 0.554 0.554 0 0 0 21.3 59.629 A 5.953 5.953 0 0 1 21.282 59.629 C 20.668 59.628 18.327 59.535 18.575 59.622 A 0.287 0.287 0 0 0 18.6 59.629 A 2.004 2.004 0 0 0 18.541 59.691 C 18.101 60.171 18.112 60.654 18.4 61.229 A 0.896 0.896 0 0 0 18.375 61.225 C 18.015 61.163 19.985 61.824 20.745 62.078 A 426.642 426.642 0 0 0 20.9 62.129 C 20.3 61.929 20 62.629 20.6 62.829 C 20.015 62.634 17.813 61.869 18.075 62.016 A 0.583 0.583 0 0 0 18.1 62.029 A 1.97 1.97 0 0 0 17.921 62.131 C 17.441 62.437 17.211 62.903 17.3 63.529 C 16.928 63.25 18.635 64.531 19.357 65.032 A 9.439 9.439 0 0 0 19.5 65.129 A 1.058 1.058 0 0 0 19.481 65.117 C 18.891 64.742 18.505 65.334 19 65.729 A 7.018 7.018 0 0 0 18.869 65.628 C 18.239 65.148 16.608 64.011 16.782 64.211 A 0.388 0.388 0 0 0 16.8 64.229 A 2.354 2.354 0 0 0 16.442 64.307 C 15.962 64.454 15.681 64.759 15.6 65.329 A 0.513 0.513 0 0 0 15.585 65.315 C 15.356 65.105 16.808 67.039 17.2 67.529 C 16.826 67.062 16.191 67.468 16.435 67.931 A 0.623 0.623 0 0 0 16.5 68.029 A 5.389 5.389 0 0 1 16.394 67.891 C 15.899 67.228 14.715 65.459 14.9 65.829 C 14.418 65.749 14.001 65.862 13.648 66.272 A 2.279 2.279 0 0 0 13.4 66.629 A 1.24 1.24 0 0 1 13.395 66.602 C 13.334 66.256 13.909 68.217 14.15 68.974 A 11.972 11.972 0 0 0 14.2 69.129 A 0.653 0.653 0 0 0 14.14 68.997 C 13.901 68.602 13.365 68.852 13.391 69.35 A 0.713 0.713 0 0 0 13.4 69.429 C 13.302 68.843 12.535 66.534 12.595 66.807 A 0.807 0.807 0 0 0 12.6 66.829 C 12.117 66.588 11.699 66.606 11.294 66.882 A 2.063 2.063 0 0 0 11 67.129 A 0.954 0.954 0 0 0 11 67.128 C 10.9 66.634 10.9 69.13 10.9 69.729 A 0.599 0.599 0 0 0 10.891 69.624 C 10.813 69.189 10.256 69.166 10.127 69.554 A 0.554 0.554 0 0 0 10.1 69.729 A 6.042 6.042 0 0 1 10.1 69.711 C 10.102 69.081 10.199 66.634 10.1 67.129 A 2.494 2.494 0 0 0 10.03 67.062 C 9.629 66.691 9.226 66.577 8.768 66.72 A 1.79 1.79 0 0 0 8.5 66.829 A 0.896 0.896 0 0 0 8.505 66.805 C 8.571 66.416 7.796 68.74 7.6 69.329 A 0.781 0.781 0 0 0 7.604 69.316 C 7.774 68.774 7.206 68.484 6.881 68.9 A 0.767 0.767 0 0 0 6.8 69.029 A 3.579 3.579 0 0 0 6.865 68.892 C 7.2 68.141 7.887 66.155 7.7 66.529 A 1.97 1.97 0 0 0 7.599 66.35 C 7.292 65.871 6.826 65.64 6.2 65.729 A 0.606 0.606 0 0 0 6.209 65.711 C 6.343 65.418 5.177 67.078 4.696 67.786 A 22.256 22.256 0 0 0 4.6 67.929 C 5 67.329 4.3 66.929 3.9 67.429 C 4.3 66.929 5.8 64.929 5.5 65.229 A 1.794 1.794 0 0 0 5.45 64.99 C 5.343 64.617 5.124 64.382 4.791 64.214 A 2.795 2.795 0 0 0 4.3 64.029 C 4.672 63.751 2.972 65.025 2.328 65.528 A 14.424 14.424 0 0 0 2.2 65.629 C 2.662 65.26 2.271 64.72 1.814 64.876 A 0.598 0.598 0 0 0 1.7 64.929 C 2.188 64.637 4.106 63.2 3.918 63.411 A 0.457 0.457 0 0 1 3.9 63.429 A 1.98 1.98 0 0 0 3.908 63.363 C 3.981 62.698 3.681 62.22 3.1 61.929 A 0.436 0.436 0 0 0 3.122 61.918 C 3.379 61.77 1.389 62.348 0.723 62.665 A 1.473 1.473 0 0 0 0.6 62.729 A 0.689 0.689 0 0 0 0.666 62.684 C 1.08 62.365 0.872 61.739 0.3 61.929 A 12.268 12.268 0 0 1 0.463 61.877 C 1.243 61.629 3.263 61.037 2.8 61.129 C 3.121 60.568 3.12 60.135 2.849 59.728 A 1.966 1.966 0 0 0 2.6 59.429 L 0 59.429 A 0.599 0.599 0 0 0 0.106 59.42 C 0.54 59.343 0.563 58.785 0.175 58.656 A 0.554 0.554 0 0 0 0 58.629 L 2.6 58.629 A 1.816 1.816 0 0 0 2.857 58.31 C 3.055 57.993 3.114 57.649 3.034 57.298 A 1.64 1.64 0 0 0 2.9 56.929 A 0.796 0.796 0 0 0 2.919 56.934 C 3.194 56.995 1.304 56.337 0.555 56.162 A 2.511 2.511 0 0 0 0.4 56.129 C 0.944 56.22 1.159 55.653 0.747 55.397 A 0.696 0.696 0 0 0 0.6 55.329 C 1.186 55.525 3.487 56.292 3.224 56.142 A 0.513 0.513 0 0 0 3.2 56.129 A 1.656 1.656 0 0 0 3.399 56.013 C 3.792 55.742 3.951 55.35 3.921 54.836 A 2.472 2.472 0 0 0 3.9 54.629 C 4.271 54.908 2.576 53.636 1.93 53.212 A 3.888 3.888 0 0 0 1.8 53.129 A 0.645 0.645 0 0 0 1.826 53.144 C 2.287 53.392 2.732 52.892 2.381 52.505 A 0.695 0.695 0 0 0 2.3 52.429 C 2.8 52.829 4.8 54.329 4.4 54.029 A 1.919 1.919 0 0 0 4.665 53.973 C 5.025 53.868 5.284 53.662 5.441 53.355 A 1.661 1.661 0 0 0 5.6 52.829 A 1.855 1.855 0 0 0 5.616 52.851 C 5.844 53.145 4.492 51.119 4.1 50.629 A 0.8 0.8 0 0 0 4.148 50.684 C 4.519 51.07 5.016 50.758 4.847 50.325 A 0.63 0.63 0 0 0 4.8 50.229 C 5.093 50.718 6.533 52.64 6.318 52.353 A 292.417 292.417 0 0 1 6.3 52.329 C 6.821 52.404 7.232 52.312 7.531 52.012 A 1.457 1.457 0 0 0 7.8 51.629 A 0.513 0.513 0 0 0 7.813 51.653 C 7.962 51.916 7.195 49.615 7 49.029 A 0.649 0.649 0 0 0 7.054 49.15 C 7.301 49.576 7.921 49.404 7.821 48.907 A 0.66 0.66 0 0 0 7.8 48.829 C 8 49.43 8.7 51.829 8.6 51.329 A 2.788 2.788 0 0 0 8.722 51.378 C 9.186 51.552 9.562 51.54 9.913 51.376 A 1.937 1.937 0 0 0 10.3 51.129 L 10.3 48.429 C 10.3 49.029 11.1 49.029 11.2 48.429 A 1.384 1.384 0 0 0 11.2 48.432 C 11.1 49.035 11.1 51.529 11.1 51.129 A 1.816 1.816 0 0 0 11.419 51.387 C 11.736 51.585 12.08 51.644 12.432 51.563 A 1.64 1.64 0 0 0 12.8 51.429 A 0.882 0.882 0 0 0 12.795 51.449 C 12.729 51.742 13.502 49.418 13.6 48.829 A 0.733 0.733 0 0 0 13.595 48.866 C 13.535 49.39 14.089 49.665 14.336 49.267 A 0.647 0.647 0 0 0 14.4 49.129 A 855.924 855.924 0 0 0 14.347 49.288 C 14.088 50.065 13.415 52.093 13.6 51.629 A 1.97 1.97 0 0 0 13.701 51.809 C 14.008 52.288 14.474 52.519 15.1 52.429 C 14.821 52.801 16.096 51.102 16.599 50.457 A 14.424 14.424 0 0 1 16.7 50.329 C 16.3 50.829 16.9 51.329 17.3 50.829 C 16.91 51.317 15.474 53.136 15.681 52.948 A 0.566 0.566 0 0 0 15.7 52.929 C 15.851 53.457 16.058 53.814 16.451 54.001 A 1.548 1.548 0 0 0 16.9 54.129 A 0.512 0.512 0 0 0 16.885 54.144 C 16.691 54.356 18.33 53.133 18.966 52.714 A 3.986 3.986 0 0 1 19.1 52.629 C 18.6 52.929 19.1 53.629 19.6 53.229 A 5.389 5.389 0 0 1 19.462 53.335 C 18.799 53.831 17.03 55.014 17.4 54.829 C 17.318 55.401 17.437 55.772 17.863 56.107 A 2.778 2.778 0 0 0 18.2 56.329 A 1.24 1.24 0 0 1 18.172 56.335 C 17.827 56.396 19.788 55.82 20.545 55.58 A 11.972 11.972 0 0 0 20.7 55.529 A 0.653 0.653 0 0 0 20.568 55.59 C 20.173 55.829 20.423 56.364 20.92 56.338 A 0.713 0.713 0 0 0 21 56.329 C 20.413 56.427 18.105 57.195 18.378 57.135 A 0.807 0.807 0 0 0 18.4 57.129 C 18.159 57.612 18.176 58.03 18.453 58.436 A 2.063 2.063 0 0 0 18.7 58.729 A 0.954 0.954 0 0 0 18.699 58.73 C 18.204 58.829 20.701 58.829 21.3 58.829 A 0.599 0.599 0 0 0 21.194 58.838 C 20.76 58.916 20.737 59.474 21.125 59.603 Z"/></g></svg>