<svg width="86.3" height="99.7" viewBox="0 0 86.3 99.7"><g id="balloom" fill-rule="evenodd"><title>balloom</title><path unicode="E094" d="M 54.9 15.1 L 53.9 18.8 C 70.6 23.6 82.4 39.1 82.4 56.6 C 82.4 78.2 64.8 95.8 43.1 95.8 C 21.5 95.8 3.9 78.2 3.9 56.6 C 3.9 39.2 15.5 23.8 32.1 18.9 L 31 15.1 C 12.8 20.5 0 37.5 0 56.6 C 0 80.4 19.4 99.7 43.1 99.7 C 66.9 99.7 86.3 80.4 86.3 56.6 C 86.3 37.4 73.4 20.3 54.9 15.1 Z M 43.1 40.2 A 57.116 57.116 0 0 0 10.587 50.283 A 58.406 58.406 0 0 0 2 57.5 C 2 58.4 2 59.3 2.1 60.2 C 12.3 49.1 26.9 42.2 43.1 42.2 A 55.732 55.732 0 0 1 76.609 53.334 A 55.59 55.59 0 0 1 84.2 60.2 C 84.2 59.3 84.3 58.4 84.3 57.5 A 57.548 57.548 0 0 0 46.287 40.287 A 58.586 58.586 0 0 0 43.1 40.2 Z M 43.1 53.3 A 44.83 44.83 0 0 0 10.695 67.196 A 44.836 44.836 0 0 0 5.6 73.6 C 6.3 75 7 76.4 7.8 77.7 A 40.52 40.52 0 0 1 41.69 57.224 A 41.551 41.551 0 0 1 43.1 57.2 C 58.2 57.2 71.5 65.4 78.5 77.7 C 79.3 76.4 80 75 80.6 73.6 A 44.816 44.816 0 0 0 45.658 53.372 A 45.38 45.38 0 0 0 43.1 53.3 Z M 43.1 65.8 C 29.9 65.8 18.5 73.8 13.6 85.3 C 15.1 86.8 16.6 88.1 18.3 89.4 C 21.8 79.1 31.6 71.7 43.1 71.7 C 54.6 71.7 64.4 79.1 68 89.4 C 69.7 88.1 71.2 86.8 72.7 85.3 C 67.7 73.8 56.4 65.8 43.1 65.8 Z M 43.1 34 L 64.6 12.5 L 60.5 8.4 L 43.1 25.7 L 25.8 8.4 L 21.7 12.5 L 43.1 34 Z M 25.8 94.2 L 43.1 98 L 60.4 94 C 58.7 86 51.6 80.1 43.1 80.1 C 34.6 80.1 27.5 86.1 25.8 94.2 Z M 43.1 16.4 L 55.4 4.2 L 51.3 0 L 43.1 8.1 L 35 0 L 30.9 4.2 L 43.1 16.4 Z"/></g></svg>