<?xml version="1.0" standalone="no"?>
<!DOCTYPE svg PUBLIC "-//W3C//DTD SVG 20010904//EN"
 "http://www.w3.org/TR/2001/REC-SVG-20010904/DTD/svg10.dtd">
<svg version="1.0" xmlns="http://www.w3.org/2000/svg"
 width="900.000000pt" height="900.000000pt" viewBox="0 0 900.000000 900.000000"
 preserveAspectRatio="xMidYMid meet">
<metadata>
Created by potrace 1.10, written by Peter Selinger 2001-2011
</metadata>
<g transform="translate(0.000000,900.000000) scale(0.100000,-0.100000)"
fill="#000000" stroke="none">
<path d="M4413 8458 c-17 -22 -132 -301 -135 -328 l-3 -25 213 -3 c176 -2 213
0 218 12 5 12 -78 224 -124 316 -17 35 -18 35 -88 38 -49 2 -74 -1 -81 -10z"/>
<path d="M4367 8024 c-10 -11 -8 -1117 2 -1133 7 -12 15 -8 41 17 54 54 106
55 158 2 24 -24 32 -27 41 -16 8 9 10 174 9 572 l-3 559 -121 3 c-66 1 -123
-1 -127 -4z"/>
<path d="M4286 7088 c-2 -7 -11 -42 -21 -78 -9 -36 -22 -77 -27 -92 -6 -15
-11 -90 -12 -165 -1 -158 9 -191 71 -242 99 -81 292 -80 389 3 61 52 77 108
71 258 -3 77 -11 143 -22 178 -9 30 -23 75 -30 100 -10 37 -16 45 -36 45 l-24
0 -2 -150 c-1 -82 -4 -164 -6 -182 -6 -37 -44 -83 -68 -83 -10 0 -21 -4 -24
-10 -3 -5 -28 -10 -55 -10 -27 0 -52 5 -55 10 -3 6 -14 10 -24 10 -9 0 -28 12
-42 28 -23 26 -24 33 -27 210 l-4 182 -24 0 c-14 0 -26 -6 -28 -12z"/>
<path d="M3565 6798 c-5 -12 69 -195 125 -313 21 -44 6 -35 365 -220 83 -43
154 -81 160 -86 5 -5 18 -9 28 -9 23 0 19 26 -19 103 -14 29 -49 108 -79 177
-29 69 -68 154 -87 189 -36 69 -50 78 -168 100 -48 9 -113 24 -195 46 -90 24
-125 27 -130 13z m416 -230 c13 -21 -9 -34 -31 -20 -11 6 -26 12 -34 12 -7 0
-19 7 -26 15 -7 8 -23 15 -36 15 -13 0 -24 4 -24 9 0 5 -15 15 -34 21 -38 12
-61 34 -52 49 7 11 225 -82 237 -101z m-128 -8 c8 0 20 -7 27 -15 7 -8 20 -15
30 -15 10 0 23 -7 30 -15 7 -8 19 -15 27 -15 21 0 74 -40 68 -51 -4 -5 -13 -9
-22 -9 -19 0 -221 99 -229 112 -3 5 -3 16 0 25 6 14 9 14 31 -1 13 -9 31 -16
38 -16z m-13 -75 c7 -8 20 -15 30 -15 10 0 23 -7 30 -15 7 -8 20 -15 29 -15
10 0 26 -7 37 -15 10 -8 26 -15 35 -15 8 0 26 -11 38 -24 19 -20 20 -24 7 -29
-9 -4 -28 0 -43 8 -16 8 -67 33 -115 55 -80 36 -100 54 -81 73 10 11 19 8 33
-8z"/>
<path d="M5300 6789 c-47 -11 -108 -27 -136 -35 -28 -8 -59 -14 -70 -14 -10 0
-46 -9 -79 -19 -56 -16 -62 -21 -85 -67 -30 -59 -76 -159 -123 -269 -19 -44
-47 -105 -61 -135 -45 -95 -37 -99 79 -38 44 23 156 81 250 129 93 48 179 96
190 107 11 11 31 46 44 78 28 69 75 175 98 221 16 34 12 63 -9 62 -7 0 -51 -9
-98 -20z m-75 -149 c-10 -11 -26 -20 -35 -20 -10 0 -23 -7 -30 -15 -7 -8 -23
-15 -35 -15 -12 0 -28 -7 -35 -15 -7 -8 -20 -15 -30 -15 -10 0 -23 -7 -30 -15
-15 -18 -30 -11 -30 14 0 11 14 24 38 34 20 9 71 31 112 50 77 35 108 34 75
-3z m-28 -82 c-6 -16 -205 -118 -230 -118 -9 0 -18 4 -22 9 -6 11 47 51 68 51
8 0 20 7 27 15 7 8 20 15 30 15 10 0 23 7 30 15 7 8 20 15 29 15 9 0 25 7 35
15 22 17 42 6 33 -17z m-19 -82 c3 -12 -18 -26 -85 -56 -48 -22 -101 -47 -117
-55 -20 -11 -32 -13 -39 -6 -13 13 19 51 43 51 9 0 25 7 36 15 10 8 26 15 35
15 9 0 22 7 29 15 7 8 20 15 30 15 10 0 23 7 30 15 16 19 34 15 38 -9z"/>
<path d="M4380 6750 c0 -19 19 -40 37 -40 19 0 16 20 -4 27 -10 4 -21 11 -25
17 -5 7 -8 5 -8 -4z"/>
<path d="M4591 6754 c-1 -7 -11 -14 -23 -18 -18 -4 -20 -8 -10 -18 10 -10 15
-9 28 4 9 9 14 22 11 30 -3 7 -6 8 -6 2z"/>
<path d="M4154 6556 c-6 -16 24 -91 102 -254 30 -62 54 -116 54 -121 0 -4 8
-15 18 -24 26 -24 292 -25 315 -2 9 8 38 61 65 117 136 283 136 283 105 295
-11 4 -22 -1 -32 -18 -61 -94 -159 -142 -291 -142 -131 0 -229 47 -285 136
-19 29 -42 35 -51 13z"/>
<path d="M3986 6105 c-3 -9 -6 -74 -6 -143 0 -178 -33 -361 -101 -565 -28 -86
-51 -139 -110 -261 -25 -51 -29 -71 -29 -142 0 -46 4 -85 9 -88 23 -15 145
220 198 379 73 220 93 338 93 550 0 140 -3 180 -18 223 -22 61 -27 68 -36 47z"/>
<path d="M4975 6105 c-4 -11 -13 -37 -21 -58 -20 -55 -19 -356 2 -462 41 -207
86 -350 154 -485 75 -149 106 -200 121 -200 5 0 9 41 9 92 0 87 -2 95 -44 182
-63 132 -72 153 -101 241 -65 199 -95 373 -95 550 0 126 -11 184 -25 140z"/>
<path d="M4297 6073 c-3 -5 -1 -213 4 -463 5 -250 13 -738 19 -1085 21 -1176
37 -1734 60 -2080 6 -96 5 -143 -2 -152 -6 -7 -32 -13 -59 -13 -40 0 -53 5
-71 25 -27 31 -38 32 -38 1 0 -20 -6 -25 -40 -31 -21 -4 -48 -4 -59 0 -10 3
-57 46 -104 95 -46 50 -90 90 -96 90 -9 0 -11 -17 -6 -65 5 -44 4 -65 -3 -65
-10 0 -112 117 -176 202 -32 43 -53 53 -73 36 -17 -14 -22 -8 -123 117 -30 38
-73 89 -96 115 -23 25 -53 65 -67 90 -15 25 -40 59 -58 75 -34 32 -96 150
-122 230 -53 163 -52 152 -51 350 1 161 4 201 22 265 19 70 148 468 173 535 6
17 15 46 19 65 5 19 18 67 29 105 22 71 27 94 55 225 9 41 21 90 27 108 11 32
33 43 42 20 8 -23 22 5 56 112 36 115 55 167 79 220 11 25 17 77 20 182 6 220
-5 227 -81 52 -40 -90 -155 -432 -172 -509 l-7 -30 -22 28 c-30 37 -44 34 -51
-10 -22 -144 -122 -534 -170 -663 -7 -19 -22 -64 -33 -100 -11 -36 -37 -110
-56 -165 -37 -102 -63 -195 -91 -319 -24 -109 -21 -378 5 -490 58 -244 146
-398 341 -601 157 -164 284 -335 262 -355 -14 -13 -75 -30 -107 -30 -17 0 -42
9 -56 20 -14 11 -32 20 -40 20 -22 0 -78 32 -164 93 -209 148 -466 417 -705
737 -86 114 -130 164 -139 155 -2 -2 1 -11 7 -22 5 -10 96 -193 202 -408 471
-957 487 -989 528 -1032 22 -23 60 -55 85 -72 50 -35 211 -118 253 -131 16 -5
53 -18 83 -30 182 -69 526 -138 812 -161 448 -37 1150 119 1443 321 104 71
114 87 359 584 411 831 468 947 464 952 -9 8 -49 -39 -139 -159 -186 -248
-377 -460 -548 -610 -123 -107 -258 -201 -306 -213 -17 -4 -41 -15 -54 -26
-13 -10 -38 -18 -56 -18 -33 0 -93 17 -108 30 -22 20 108 194 270 363 193 199
276 351 338 612 24 98 24 374 0 482 -16 72 -123 418 -151 488 -54 135 -174
589 -199 758 -7 43 -18 47 -41 12 -9 -14 -20 -25 -24 -25 -5 0 -16 26 -25 58
-70 245 -202 587 -227 587 -10 0 -14 -30 -16 -123 -3 -135 5 -188 38 -272 12
-30 25 -68 30 -85 5 -16 13 -43 19 -60 6 -16 20 -58 32 -92 20 -57 23 -61 42
-52 15 8 22 8 28 -2 12 -19 29 -79 29 -103 0 -51 104 -410 202 -696 75 -222
88 -275 102 -413 20 -195 -3 -363 -71 -517 -46 -104 -69 -143 -107 -179 -20
-19 -36 -38 -36 -43 0 -14 -48 -79 -142 -190 -157 -187 -144 -174 -161 -159
-23 18 -36 8 -117 -94 -140 -175 -145 -178 -135 -80 5 44 4 65 -3 65 -6 0 -48
-39 -94 -86 -46 -47 -91 -90 -102 -96 -10 -6 -38 -7 -63 -3 -43 6 -45 8 -41
35 4 27 3 27 -18 13 -12 -8 -25 -21 -28 -29 -8 -22 -112 -19 -124 4 -6 10 -6
67 -1 137 22 316 39 906 58 2015 6 338 16 840 21 1115 5 275 6 503 1 508 -4 4
-41 7 -82 5 l-74 -3 -8 -1195 c-4 -657 -10 -1214 -13 -1238 -12 -98 -22 -16
-28 245 -3 153 -9 706 -12 1228 -4 523 -8 953 -11 958 -2 4 -37 7 -78 7 -41 0
-76 -3 -78 -7z m87 -3849 c17 -17 23 -124 7 -124 -16 0 -84 108 -78 124 8 21
51 20 71 0z m283 1 c7 -20 -64 -128 -78 -119 -16 9 -6 114 12 125 22 14 59 10
66 -6z m-427 -14 c12 -24 13 -68 1 -75 -12 -8 -83 72 -76 84 11 18 64 11 75
-9z m580 10 c0 -15 -64 -90 -75 -87 -17 4 -17 46 -1 72 11 16 26 24 46 24 17
0 30 -4 30 -9z m-922 -39 c15 -15 47 -53 72 -84 187 -231 226 -277 238 -277
22 -1 13 70 -23 184 -25 81 -31 112 -23 122 14 18 34 0 96 -87 85 -118 187
-323 207 -413 11 -52 54 -44 55 9 0 67 189 413 264 483 20 19 24 20 36 6 10
-12 9 -25 -8 -73 -50 -141 -66 -232 -39 -232 11 1 135 146 256 299 72 91 104
111 118 75 5 -14 -4 -86 -19 -143 -1 -7 2 -15 9 -18 6 -2 36 28 65 67 29 39
63 73 75 76 13 4 66 -5 120 -17 72 -18 99 -28 101 -41 5 -28 -142 -234 -287
-402 -136 -157 -261 -249 -369 -271 -229 -46 -671 -31 -785 27 -115 58 -278
216 -418 403 -85 114 -161 235 -156 249 5 13 170 56 213 56 15 0 39 -23 78
-76 32 -41 63 -73 69 -71 14 5 13 10 -3 89 -10 46 -10 61 0 73 18 21 28 19 58
-13z m-450 -94 c6 -13 36 -84 66 -158 57 -144 71 -177 92 -225 7 -16 20 -46
28 -67 9 -20 16 -46 16 -58 0 -21 -4 -22 -39 -17 -52 7 -116 38 -221 108 -106
71 -154 120 -177 184 -16 41 -23 50 -41 48 -27 -3 -28 18 -4 67 20 41 75 81
157 115 76 31 108 32 123 3z m2218 -7 c85 -36 130 -72 149 -118 20 -49 19 -63
-6 -60 -17 2 -25 -8 -40 -49 -24 -63 -69 -110 -179 -183 -148 -100 -260 -140
-260 -92 0 16 25 80 75 196 7 17 28 68 47 115 94 230 89 220 119 220 15 0 58
-13 95 -29z"/>
<path d="M6266 5214 c-3 -8 -6 -26 -6 -38 0 -36 -41 -138 -127 -316 -110 -227
-116 -247 -115 -395 0 -114 11 -197 44 -320 6 -22 14 -58 19 -80 4 -22 25
-110 47 -195 77 -299 89 -499 42 -670 -26 -93 -34 -140 -25 -140 22 0 207 154
319 266 174 174 298 382 347 582 18 76 20 108 16 257 -4 168 -7 185 -57 350
-19 66 -39 110 -47 108 -4 -1 -11 -28 -14 -60 -3 -32 -13 -74 -21 -94 -34 -78
-53 -57 -62 66 -3 50 -15 122 -25 162 -27 99 -73 236 -83 248 -16 18 -28 -18
-28 -84 0 -57 -15 -211 -26 -268 -5 -27 -30 -30 -38 -5 -3 9 -13 80 -21 157
-26 237 -44 326 -83 415 -24 56 -47 78 -56 54z"/>
<path d="M2686 5187 c-50 -83 -79 -201 -106 -437 -12 -102 -24 -188 -27 -192
-11 -19 -33 -5 -37 25 -10 60 -27 232 -29 287 -3 83 -24 71 -58 -35 -48 -147
-69 -241 -77 -338 -5 -72 -10 -92 -22 -92 -22 0 -52 71 -59 138 -7 64 -21 78
-32 32 -4 -16 -18 -61 -32 -100 -44 -128 -52 -181 -52 -365 0 -199 5 -227 72
-392 51 -126 180 -307 310 -435 92 -91 276 -241 296 -243 12 0 8 38 -12 98
-11 31 -25 102 -31 157 -18 152 0 305 66 562 20 76 39 156 43 178 4 22 13 58
19 80 53 197 62 398 24 517 -11 36 -25 75 -31 85 -5 10 -43 86 -83 168 -78
159 -108 234 -109 275 0 14 -3 33 -7 42 -6 14 -10 12 -26 -15z"/>
</g>
</svg>
