<svg width="124.1" height="114.4" viewBox="0 0 124.1 114.4"><g id="fist_of_havoc" fill-rule="evenodd"><title>fist_of_havoc</title><path unicode="E122" d="M 46.4 44.4 L 38.9 41.4 L 58.2 69.2 L 59.1 72.4 L 52.2 66.6 L 53.3 69.9 A 42.191 42.191 0 0 1 54.104 72.327 C 54.381 73.248 54.602 74.072 54.768 74.681 A 150.793 150.793 0 0 0 54.8 74.8 C 55.3 77.2 55.5 82.6 53.1 84.2 A 1.55 1.55 0 0 1 52.498 84.428 C 51.834 84.53 51.109 84.208 50.429 83.708 A 8.226 8.226 0 0 1 49.5 82.9 A 12.139 12.139 0 0 1 48.243 81.669 A 9.386 9.386 0 0 1 47.5 80.7 A 4.94 4.94 0 0 1 47.51 80.736 C 47.715 81.513 47.926 83.029 48.463 84.544 A 9.273 9.273 0 0 0 49.4 86.5 A 7.09 7.09 0 0 1 50.045 87.828 C 51.442 91.705 48.944 95.831 45 96.1 A 3.971 3.971 0 0 1 44.507 96.13 C 42.509 96.13 40.116 94.733 38.001 92.976 A 26.405 26.405 0 0 1 37 92.1 A 51.205 51.205 0 0 1 33.906 89.212 A 39.755 39.755 0 0 1 32.5 87.7 C 34.487 96.309 43.097 112.258 59.178 113.953 A 26.91 26.91 0 0 0 62 114.1 A 25.574 25.574 0 0 0 72.901 111.706 C 83.786 106.64 89.879 94.726 91.5 87.7 A 54.831 54.831 0 0 1 90.117 89.212 C 89.115 90.265 88.131 91.206 87.1 92.1 C 84.768 94.245 81.827 96.13 79.575 96.13 A 3.674 3.674 0 0 1 79.1 96.1 C 74.6 95.8 72 90.7 74.6 86.5 A 9.273 9.273 0 0 0 75.537 84.544 C 75.967 83.33 76.188 82.117 76.364 81.282 A 10.813 10.813 0 0 1 76.5 80.7 C 75.812 81.584 75.125 82.275 74.437 82.868 A 16.693 16.693 0 0 1 74.4 82.9 C 73.2 84 72 84.9 70.9 84.2 A 2.616 2.616 0 0 1 70.037 83.161 C 69.054 81.227 69.071 77.596 69.387 75.447 A 11.108 11.108 0 0 1 69.5 74.8 C 69.705 74.049 69.956 72.925 70.318 71.683 A 27.009 27.009 0 0 1 70.9 69.9 C 71.2 68.8 71.6 67.7 72.1 66.6 L 65.2 72.4 L 66 69.2 L 85.2 41.5 L 77.6 44.5 L 76.1 46.5 L 72.3 49.2 L 78 35.1 L 78.6 27.2 L 71.1 48.1 L 71.3 33.1 L 69.1 35 L 67.2 9.5 L 63.2 79.6 L 63 92.5 A 25.687 25.687 0 0 0 63.047 94.098 C 63.266 97.596 64.198 98.937 64.9 99.2 A 2.001 2.001 0 0 0 65.259 99.264 C 66.198 99.343 66.978 98.711 67.6 98 A 9.478 9.478 0 0 0 68.393 96.904 A 5.165 5.165 0 0 0 68.7 96.3 L 68.3 99.1 A 10.118 10.118 0 0 0 68.277 99.771 C 68.277 100.999 68.536 102.045 69.3 102.3 A 1.927 1.927 0 0 0 69.667 102.38 C 70.497 102.485 71.73 102.222 72.964 101.862 A 29.771 29.771 0 0 0 73.5 101.7 A 39.435 39.435 0 0 0 75.145 101.124 C 75.49 100.992 75.85 100.845 76.234 100.675 A 21.891 21.891 0 0 0 76.4 100.6 L 76.4 100.7 A 24.103 24.103 0 0 1 75.032 103.357 C 71.593 109.089 67.109 110.428 63.88 110.722 A 20.57 20.57 0 0 1 62 110.8 C 58.7 110.8 52.4 110.2 48.2 100.7 L 48.2 100.6 A 11.841 11.841 0 0 0 49.619 101.258 A 70.789 70.789 0 0 0 50.8 101.7 A 20.36 20.36 0 0 0 52.48 102.194 C 53.207 102.368 53.874 102.454 54.399 102.372 A 1.872 1.872 0 0 0 54.7 102.3 A 1.331 1.331 0 0 0 55.444 101.604 C 55.763 100.988 55.864 100.065 55.8 99.1 L 55.4 96.3 A 5.261 5.261 0 0 0 55.808 97.068 A 10.766 10.766 0 0 0 56.5 98 A 4.847 4.847 0 0 0 57.561 98.961 C 57.964 99.208 58.412 99.334 58.927 99.239 A 2.095 2.095 0 0 0 59.1 99.2 A 1.246 1.246 0 0 0 59.404 99.047 C 60.201 98.507 61.039 96.806 61.097 92.932 A 28.899 28.899 0 0 0 61.1 92.5 L 60.9 79.6 L 56.7 9.5 L 54.9 35 L 52.8 33.1 L 52.9 48.1 L 45.4 27.1 L 46 35.1 L 51.7 49.2 L 47.9 46.5 L 46.4 44.4 Z M 24.2 95.5 L 34.1 100.2 L 22.1 79.1 L 28.8 95.6 L 0 72.7 L 22.5 98.4 L 42.7 114.4 L 24.2 95.5 Z M 81.3 114.4 L 101.5 98.4 L 124.1 72.7 L 95.3 95.6 L 102 79.1 L 90 100.2 L 99.8 95.5 L 81.3 114.4 Z M 26.2 32.8 L 40.9 58.9 L 32.7 56.7 L 47.7 67.4 L 55.5 70.4 L 26.5 32.8 L 27.3 34.2 L 26.2 32.8 Z M 68.7 70.4 L 76.5 67.4 L 91.5 56.8 L 83.3 59 L 97.8 32.9 L 96.7 34.4 L 97.5 32.9 L 68.7 70.4 Z M 62 29 L 64.1 33 L 62 0 L 59.9 33 L 62 29 Z" id="0"/></g></svg>