<svg width="132.767" height="107.037" viewBox="0 0 132.767 107.037"><g id="golden_gun" fill-rule="evenodd"><title>golden_gun</title><path unicode="E123" d="M 119.5 11.5 L 116.8 10.1 A 99.832 99.832 0 0 0 106.688 6.425 C 103.025 5.3 99 4.25 94.4 3.2 A 45.732 45.732 0 0 1 92.547 2.799 C 91.483 2.553 90.35 2.287 89.1 2.1 C 88.6 1.8 88 1.8 87.5 1.7 L 79.3 0 L 86.6 3.6 A 173.736 173.736 0 0 1 91.398 5.99 C 95.605 8.172 99.179 10.28 102.315 12.437 A 71.401 71.401 0 0 1 104.5 14 A 0.954 0.954 0 0 0 104.431 14.026 C 104.233 14.109 104.266 14.193 104.063 14.277 A 0.973 0.973 0 0 1 104 14.3 C 92.75 10.34 80.042 7.919 67.334 5.652 A 4052.192 4052.192 0 0 0 63.1 4.9 L 61.2 4.5 A 53.048 53.048 0 0 0 58.788 4.188 C 57.831 4.081 56.88 3.98 55.878 3.828 A 34.065 34.065 0 0 1 55.7 3.8 L 62.3 6.7 C 70.6 10.4 78.8 14.2 86.3 18.7 C 76 15.9 65 14 54.2 12.1 C 48.2 11 42.3 10.1 36.7 8.9 L 29.1 7.4 L 35.8 10.8 C 40.5 13.1 45.1 15.3 49.8 17.4 A 141.397 141.397 0 0 1 52.468 18.575 C 56.632 20.462 59.809 22.154 64.3 24.4 C 56.8 22.8 51 22.5 43.4 21.1 C 35.155 19.706 27.204 18.385 19.814 16.692 A 117.393 117.393 0 0 1 6.2 12.8 L 0 10.7 L 5 14.6 A 87.474 87.474 0 0 0 12.643 19.787 A 283.029 283.029 0 0 0 13.8 20.5 C 15 21.2 15.5 21.6 17 22.3 A 240.307 240.307 0 0 0 31.15 29.356 A 1429.588 1429.588 0 0 1 34 30.7 C 34.086 30.786 34.172 30.798 34.195 30.8 A 0.083 0.083 0 0 0 34.2 30.8 L 37.1 30 A 4.47 4.47 0 0 1 37.646 29.854 C 38.873 29.611 39.813 30.038 40.6 31 C 40.9 31 41.144 31.056 41.416 31.127 A 34.565 34.565 0 0 0 41.7 31.2 L 43 30.8 L 43.3 30.7 C 43.75 30.55 44.175 30.45 44.588 30.35 A 10.317 10.317 0 0 0 45.8 30 L 46.1 29.9 A 9.887 9.887 0 0 1 48.513 29.6 C 49.223 29.6 49.944 29.677 50.682 29.83 A 12.215 12.215 0 0 1 51 29.9 A 14.551 14.551 0 0 0 54.844 30.42 C 55.844 30.42 56.863 30.316 57.9 30.1 L 60.3 29.5 L 62.4 28.9 A 37.731 37.731 0 0 1 64.35 28.362 A 110.079 110.079 0 0 1 66.3 27.9 L 101.5 18.4 A 2.812 2.812 0 0 1 101.911 17.964 C 102.07 17.827 102.255 17.694 102.465 17.57 A 4.684 4.684 0 0 1 103 17.3 L 104.4 16.7 L 104.8 16.5 L 105 16.5 A 1.701 1.701 0 0 0 105.033 16.5 C 105.097 16.499 105.1 16.489 105.1 16.412 A 6.453 6.453 0 0 0 105.1 16.4 L 105.1 16.3 C 105.4 15.4 106.3 14.1 107.8 13.7 C 108.6 13.4 109.5 13.2 110.4 12.9 L 112.8 12.2 C 114.4 11.7 116.1 12.6 116.8 14.2 A 3.93 3.93 0 0 1 117.397 14.127 C 118.074 14.097 118.695 14.254 119.218 14.557 A 3.161 3.161 0 0 1 120.3 15.6 L 120.7 16.2 A 1.753 1.753 0 0 0 120.702 16.204 A 1.842 1.842 0 0 0 120.704 16.209 C 120.706 16.212 120.707 16.215 120.709 16.217 C 120.81 16.414 120.99 16.693 121.089 17.058 A 2.123 2.123 0 0 1 121.1 17.1 L 122.6 22.3 C 122.798 23.19 122.702 24.081 122.216 24.874 A 3.392 3.392 0 0 1 122.2 24.9 L 122.5 25.7 L 123.1 27.1 L 123.5 28.2 A 26.16 26.16 0 0 0 123.9 29.54 A 16.756 16.756 0 0 0 124.5 31.1 A 9.073 9.073 0 0 1 124.796 32.232 A 19.574 19.574 0 0 1 125 33.6 C 125.291 34.472 125.394 35.438 125.491 36.315 A 164.234 164.234 0 0 0 125.5 36.4 C 125.8 38.4 124.8 40.2 122.8 41 L 121 41.6 L 108.1 45.8 A 14.442 14.442 0 0 0 109.826 46.388 C 110.912 46.683 111.984 46.834 113.1 46.9 L 113.1 47 C 123.1 47.8 131.9 40.4 132.7 30.5 A 19.266 19.266 0 0 0 132.767 28.9 A 17.932 17.932 0 0 0 128.6 17.3 C 126.2 14.4 123.2 12.4 119.5 11.5 Z M 72.1 63.3 L 71.2 59.8 C 71.102 59.308 70.81 58.719 71.086 58.224 A 0.895 0.895 0 0 1 71.1 58.2 C 71.2 57.7 71.6 57.3 71.9 56.9 A 4.041 4.041 0 0 1 73.034 55.844 A 8.884 8.884 0 0 1 75 55 L 81.1 53 A 24.781 24.781 0 0 0 81.783 52.803 C 82.555 52.569 83.197 52.334 83.9 52.1 C 85.9 51.4 87.9 50.9 89.9 50.2 A 10.326 10.326 0 0 0 90.573 49.991 C 91.325 49.73 91.941 49.434 92.8 49.2 C 94.8 48.5 96.7 48 98.7 47.3 L 101.6 46.4 L 107.5 44.4 L 110.4 43.5 C 112.4 42.8 114.3 42.3 116.3 41.6 L 119.2 40.6 C 119.9 40.3 120.6 40.2 121.3 39.9 C 121.762 39.808 121.968 39.544 121.918 39.11 A 1.366 1.366 0 0 0 121.9 39 C 121.802 38.121 121.8 37.242 121.521 36.363 A 4.784 4.784 0 0 0 121.5 36.3 A 3.256 3.256 0 0 1 121.29 35.521 C 121.225 35.119 121.194 34.717 121.046 34.315 A 2.425 2.425 0 0 0 121 34.2 C 120.6 33 120.2 31.8 119.7 30.6 C 119.6 30.3 119.5 29.8 119.2 29.1 L 118 26.4 C 117.83 26.145 117.877 25.89 118.141 25.696 A 1.102 1.102 0 0 1 118.3 25.6 L 119.1 25.3 L 117.6 20.1 L 117.2 19.6 L 114.5 20.3 A 1.956 1.956 0 0 1 114.228 19.734 C 114.143 19.482 114.069 19.225 113.9 19 A 4.695 4.695 0 0 0 113.898 18.993 C 113.797 18.692 113.599 18.195 113.5 17.5 L 108.5 19 C 108.308 19 108.197 19.123 108.117 19.291 A 2.691 2.691 0 0 0 108 19.6 A 2.966 2.966 0 0 1 107.092 20.897 C 106.791 21.158 106.433 21.389 106.029 21.591 A 6.847 6.847 0 0 1 105.8 21.7 A 3.968 3.968 0 0 1 105.284 21.955 C 104.988 22.079 104.691 22.182 104.394 22.346 A 3.074 3.074 0 0 0 104.3 22.4 A 1.542 1.542 0 0 1 104.211 22.426 C 103.916 22.505 103.522 22.564 103.596 23.171 A 1.461 1.461 0 0 0 103.6 23.2 L 103.4 23.4 L 97.9 24.8 C 95.8 25.5 93.8 26 91.7 26.5 A 80.862 80.862 0 0 1 87.449 27.665 A 42.783 42.783 0 0 1 86.4 27.9 C 84.497 28.534 82.594 28.922 80.542 29.511 A 41.061 41.061 0 0 0 79.9 29.7 C 78.178 30.153 76.456 30.524 74.66 31.111 A 28.082 28.082 0 0 0 74.1 31.3 C 72.1 31.8 70.1 32.2 68.1 32.9 C 66.1 33.4 64.2 33.8 62.3 34.5 L 58.6 35.4 A 19.998 19.998 0 0 1 55.452 35.78 C 55.208 35.789 54.967 35.794 54.726 35.794 A 18.33 18.33 0 0 1 50.1 35.2 A 5.992 5.992 0 0 0 49.037 35.005 C 48.329 34.944 47.637 35.032 46.9 35.3 L 43.9 36.1 L 41.5 36.7 A 11.548 11.548 0 0 1 41.482 36.718 C 41.4 36.8 41.394 36.8 41.3 36.8 L 41.2 36.8 A 0.904 0.904 0 0 0 41.095 36.656 C 40.881 36.421 40.628 36.451 40.366 36.48 A 2.382 2.382 0 0 1 40.1 36.5 A 0.993 0.993 0 0 1 39.905 36.519 C 39.462 36.519 38.956 36.242 38.449 35.748 A 4.987 4.987 0 0 1 38.4 35.7 L 38.1 35.3 L 35.1 36.2 A 2.603 2.603 0 0 1 34.39 37.137 C 34.062 37.418 33.657 37.648 33.2 37.8 A 155.064 155.064 0 0 1 29.8 38.938 A 218.159 218.159 0 0 1 26.4 40 A 0.231 0.231 0 0 0 26.313 40.02 C 26.26 40.042 26.207 40.076 26.154 40.091 A 0.191 0.191 0 0 1 26.1 40.1 L 26 40.1 C 25.904 41.153 24.983 41.198 24.554 41.814 A 1.136 1.136 0 0 0 24.5 41.9 L 22 45.6 L 21.2 46.2 A 11.581 11.581 0 0 0 21.265 46.502 C 21.371 46.966 21.519 47.55 21.6 48.2 A 1.058 1.058 0 0 1 21.66 48.517 C 21.662 48.684 21.612 48.852 21.473 49.02 A 1.152 1.152 0 0 1 21.4 49.1 A 2.949 2.949 0 0 1 20.874 49.431 C 20.272 49.722 19.669 49.717 19.067 49.476 A 3.226 3.226 0 0 1 18.7 49.3 A 4.906 4.906 0 0 0 17.024 48.848 C 16.2 48.78 15.369 48.928 14.56 49.278 A 6.254 6.254 0 0 0 14.1 49.5 L 13.9 49.7 A 1.701 1.701 0 0 1 13.9 49.733 C 13.899 49.797 13.889 49.8 13.812 49.8 A 6.453 6.453 0 0 1 13.8 49.8 A 22.934 22.934 0 0 1 13.87 49.871 C 13.973 49.974 14.041 50.048 14.075 50.111 A 0.187 0.187 0 0 1 14.1 50.2 A 0.848 0.848 0 0 0 14.273 50.392 C 14.447 50.532 14.659 50.571 14.872 50.509 A 0.778 0.778 0 0 0 14.9 50.5 L 16.2 50.2 A 2.044 2.044 0 0 1 16.385 50.192 C 17.39 50.192 18.123 50.951 18.5 51.8 C 19 53.1 18.8 54.2 17.7 55.1 A 16.779 16.779 0 0 0 16.41 56.157 C 15.687 56.806 15.023 57.476 14.241 58.15 A 19.207 19.207 0 0 1 13.7 58.6 C 13.005 57.905 12.606 58.59 12.11 58.894 A 1.321 1.321 0 0 1 12.1 58.9 C 11.2 59.3 11.1 59.4 11.4 60.5 C 11.8 62.2 12.1 63.9 12.4 65.6 A 7.293 7.293 0 0 1 12.528 66.888 C 12.546 68.492 12.054 69.996 11.5 71.5 L 9.5 78.2 A 22.822 22.822 0 0 0 9.063 80.65 C 8.95 81.475 8.85 82.3 8.7 83.1 A 21.96 21.96 0 0 0 8.262 86.6 A 65.844 65.844 0 0 0 8.2 90.1 A 71.28 71.28 0 0 0 8.112 92.9 A 207.216 207.216 0 0 0 8.1 95.7 L 8.4 105.3 A 2.501 2.501 0 0 1 8.4 105.326 C 8.399 105.401 8.391 105.409 8.3 105.5 L 8.4 105.6 L 9.3 106.7 C 9.478 106.967 9.735 107.076 10.072 107.026 A 1.339 1.339 0 0 0 10.2 107 A 1.496 1.496 0 0 1 10.606 106.832 C 10.971 106.739 11.335 106.773 11.7 106.7 L 26.3 102.5 A 7.451 7.451 0 0 1 26.737 102.254 C 27.047 102.096 27.323 102 27.6 102 A 2.003 2.003 0 0 0 28.481 101.708 C 28.884 101.447 29.161 101.01 29.291 100.35 A 3.673 3.673 0 0 0 29.3 100.3 A 2.784 2.784 0 0 0 29.261 99.817 C 29.211 99.529 29.107 99.254 28.924 98.941 A 4.131 4.131 0 0 0 28.9 98.9 L 27.9 96.6 A 36.483 36.483 0 0 0 27.586 95.638 C 27.263 94.681 26.925 93.725 26.7 92.6 C 26.4 91.5 26.2 90.2 26.1 88.9 A 15.874 15.874 0 0 1 26.011 87.207 A 25.924 25.924 0 0 1 27 80.7 C 27.25 79.783 27.847 79.006 28.444 78.309 A 52.77 52.77 0 0 1 28.8 77.9 C 29.3 77.4 30 77.3 30.7 77.6 C 32.527 78.273 34.262 78.576 36.172 78.243 A 9.533 9.533 0 0 0 36.4 78.2 C 37.516 77.921 38.545 77.642 39.648 77.203 A 17.342 17.342 0 0 0 39.9 77.1 L 42.7 75.8 A 19.183 19.183 0 0 0 44.037 75.004 A 13.161 13.161 0 0 0 45.5 73.9 C 47.4 72.3 49.3 70.7 51.2 69.2 A 2.061 2.061 0 0 1 51.739 68.823 C 52.012 68.683 52.306 68.576 52.6 68.4 A 0.664 0.664 0 0 1 52.87 68.468 C 53.05 68.549 53.23 68.684 53.41 68.765 A 0.959 0.959 0 0 0 53.5 68.8 A 4.828 4.828 0 0 1 53.505 68.802 C 53.802 68.901 54.001 68.999 54.2 68.9 A 14.906 14.906 0 0 0 55.853 68.359 A 5.761 5.761 0 0 0 56.2 68.2 L 56.8 67.7 C 57 67.4 57.4 67.2 58.1 66.9 A 14.304 14.304 0 0 1 62.71 66.049 A 113.757 113.757 0 0 1 63.6 66 A 14.024 14.024 0 0 0 63.914 65.998 C 64.161 65.992 64.356 65.972 64.5 65.9 A 7.948 7.948 0 0 1 65.769 65.586 C 66.291 65.488 66.814 65.389 67.336 65.151 A 3.772 3.772 0 0 0 67.8 64.9 A 1.999 1.999 0 0 1 68.378 64.616 C 68.658 64.524 68.961 64.467 69.237 64.413 A 27.885 27.885 0 0 0 69.3 64.4 A 4.595 4.595 0 0 1 70.35 64.169 C 70.775 64.114 71.2 64.073 71.625 63.927 A 2.974 2.974 0 0 0 71.7 63.9 A 0.856 0.856 0 0 0 71.859 63.887 C 72.125 63.836 72.185 63.641 72.1 63.3 Z M 60.4 43.3 L 53.6 40.1 L 54.9 44.8 L 54.6 44.9 L 47.8 41.6 L 49.1 46.4 L 48.8 46.4 L 42 43.2 L 43.3 48 L 43 48 L 36.1 44.8 L 37.4 49.5 L 37.2 49.6 L 30.3 46.4 L 31.6 51.1 L 31.4 51.2 L 24.5 48 L 24 46.2 L 27.7 43.1 L 40.7 38.9 L 42.1 40 L 46.3 38.8 L 49.4 39.5 L 78.1 31.9 L 84.9 30 L 85.1 30 A 0.351 0.351 0 0 1 85.168 29.946 C 85.207 29.923 85.245 29.912 85.284 29.906 A 0.78 0.78 0 0 1 85.4 29.9 L 90 28.7 A 1.654 1.654 0 0 1 90.184 28.605 C 90.605 28.419 90.988 28.463 91.6 28.2 C 92 28.1 92.4 28 92.7 28 L 100.7 25.8 L 103.5 25 L 105.7 23.1 L 113.5 20.7 L 116.9 26.7 L 111.8 24.3 L 113.1 28.9 L 112.7 29 L 106.5 26.1 C 106.416 26.1 106.349 26.1 106.293 26.108 A 0.307 0.307 0 0 0 106.1 26.2 L 107.3 30.5 L 106.9 30.6 L 100.7 27.7 C 100.616 27.7 100.549 27.7 100.493 27.708 A 0.307 0.307 0 0 0 100.3 27.8 L 101.5 32.1 L 101.1 32.2 L 94.4 29 L 95.6 33.7 L 95.3 33.8 L 88.9 30.8 A 0.486 0.486 0 0 0 88.708 30.826 C 88.681 30.837 88.654 30.853 88.627 30.875 A 0.389 0.389 0 0 0 88.6 30.9 L 89.8 35.3 L 89.5 35.4 L 82.7 32.2 L 84 36.9 L 83.7 36.9 L 77.4 34 A 0.253 0.253 0 0 0 77.353 34.005 C 77.259 34.023 77.124 34.083 77.034 34.097 A 0.224 0.224 0 0 1 77 34.1 L 78.2 38.4 L 77.9 38.5 L 71.5 35.5 L 71.1 35.5 L 72.4 40 L 72.1 40.1 L 65.2 36.9 L 66.5 41.6 L 66.3 41.7 L 59.4 38.5 L 60.7 43.2 L 60.4 43.3 Z M 66.9 77.4 L 79.6 74.6 C 85.5 73.1 91.1 71.7 96.7 69.4 C 93.966 72.134 91.191 74.505 88.298 76.897 A 1684.544 1684.544 0 0 0 83.2 81.1 C 83.485 81.1 101.081 72.174 103.627 70.931 A 10.747 10.747 0 0 1 103.9 70.8 A 6.495 6.495 0 0 1 104.205 70.666 C 105.436 70.167 105.621 70.666 104.6 72.8 A 32.896 32.896 0 0 1 104.12 73.978 C 102.697 77.307 100.378 81.577 100.2 82.2 C 102.85 79.302 106.46 75.512 109.27 72.193 A 68.738 68.738 0 0 0 110.9 70.2 A 340.134 340.134 0 0 0 110.362 75.95 A 673.505 673.505 0 0 0 109.9 81.7 C 116.2 74.8 121.8 67.7 125.3 58.6 A 38.957 38.957 0 0 1 120.146 59.587 C 118.848 59.743 117.579 59.82 116.339 59.82 A 25.667 25.667 0 0 1 99.1 53.4 L 88.5 57.4 C 85.979 60.294 68.643 73.123 63.502 77.012 A 127.259 127.259 0 0 0 62.6 77.7 A 54.403 54.403 0 0 0 64.224 77.684 C 65.103 77.658 65.963 77.588 66.9 77.4 Z M 25 34.8 L 25.3 34.7 L 27.6 34 C 29.1 33.6 30.2 33.1 31.7 32.7 L 17.4 31.9 C 16.088 31.813 14.928 31.648 13.654 31.408 A 52.475 52.475 0 0 1 13.1 31.3 C 13 31.4 19.5 35.7 21.9 36.9 L 22.3 37.1 L 22.8 36.7 A 3.253 3.253 0 0 1 24.456 34.994 A 3.659 3.659 0 0 1 25 34.8 Z M 37.9 67.7 L 38.1 66.3 A 8.74 8.74 0 0 0 38.308 66.298 C 38.395 66.296 38.473 66.291 38.547 66.279 A 0.855 0.855 0 0 0 38.8 66.2 L 43.7 65.1 A 1.282 1.282 0 0 1 43.859 65.09 C 44.527 65.09 45.392 65.561 45.815 66.158 A 1.52 1.52 0 0 1 46 66.5 A 3.994 3.994 0 0 1 46.251 67.193 C 46.564 68.409 46.174 69.504 45.5 70.6 C 44 72.5 42.3 73.7 40.2 74.8 A 2.344 2.344 0 0 0 40.196 74.801 A 2.293 2.293 0 0 0 40.193 74.802 A 2.345 2.345 0 0 0 40.19 74.804 A 2.311 2.311 0 0 0 40.184 74.805 C 39.897 74.903 39.798 75 39.7 75 A 0.351 0.351 0 0 1 39.632 75.054 C 39.593 75.077 39.555 75.088 39.516 75.094 A 0.78 0.78 0 0 1 39.4 75.1 A 1.302 1.302 0 0 1 39.557 74.866 C 39.644 74.759 39.748 74.652 39.854 74.546 A 44.423 44.423 0 0 1 39.9 74.5 C 39.375 74.125 39.019 73.75 38.663 73.417 A 6.266 6.266 0 0 0 38.3 73.1 C 37.4 72.3 37.1 71.2 37.3 69.9 A 9.477 9.477 0 0 1 37.439 69.151 C 37.549 68.662 37.703 68.159 37.9 67.7 Z M 33.7 75.7 L 32.2 74.9 A 2.624 2.624 0 0 1 31.661 74.249 C 31.43 73.858 31.305 73.433 31.18 72.998 A 14.731 14.731 0 0 0 31 72.4 A 0.124 0.124 0 0 1 31.004 72.37 C 31.02 72.302 31.092 72.29 31.099 72.213 A 0.138 0.138 0 0 0 31.1 72.2 A 1.861 1.861 0 0 1 30.969 71.93 C 30.577 70.909 31.466 70.177 31.773 69.376 A 1.818 1.818 0 0 0 31.8 69.3 A 0.37 0.37 0 0 1 31.849 69.201 C 31.979 69.019 32.239 69.061 32.5 68.8 C 33.192 69.294 33.884 69.691 34.382 70.376 A 3.3 3.3 0 0 1 34.4 70.4 A 3.365 3.365 0 0 1 35.012 71.324 C 35.133 71.57 35.249 71.828 35.386 72.09 A 6.398 6.398 0 0 0 35.5 72.3 A 19.891 19.891 0 0 1 35.506 72.308 C 35.98 72.973 36.456 73.728 37.103 74.401 A 7.082 7.082 0 0 0 37.2 74.5 C 37.5 74.8 37.7 74.6 38 74.9 L 38.9 75.3 L 38.7 75.5 A 7.195 7.195 0 0 1 35.833 76.178 C 35.284 76.178 34.731 76.092 34.176 75.896 A 5.145 5.145 0 0 1 33.7 75.7 Z M 120.709 16.217 C 120.71 16.219 120.71 16.22 120.711 16.222"/></g></svg>