<?xml version="1.0" standalone="no"?>
<!DOCTYPE svg PUBLIC "-//W3C//DTD SVG 20010904//EN"
 "http://www.w3.org/TR/2001/REC-SVG-20010904/DTD/svg10.dtd">
<svg version="1.0" xmlns="http://www.w3.org/2000/svg"
 width="900.000000pt" height="900.000000pt" viewBox="0 0 900.000000 900.000000"
 preserveAspectRatio="xMidYMid meet">
<metadata>
Created by potrace 1.10, written by Peter Selinger 2001-2011
</metadata>
<g transform="translate(0.000000,900.000000) scale(0.100000,-0.100000)"
fill="#000000" stroke="none">
<path d="M5344 6758 c-140 -144 -246 -287 -331 -448 -35 -68 -55 -113 -121
-275 -11 -27 -24 -49 -29 -48 -14 5 -15 189 -2 383 16 238 16 269 4 271 -17 2
-73 -121 -150 -331 -21 -57 -34 -118 -56 -250 -33 -193 -29 -178 -43 -158 -13
18 -48 176 -82 368 -9 52 -18 101 -20 108 -6 21 -24 3 -24 -25 0 -14 -7 -53
-17 -87 -13 -49 -16 -109 -17 -304 0 -135 -4 -241 -9 -239 -10 3 -58 112 -112
255 -38 101 -54 124 -56 80 -4 -73 4 -182 17 -238 51 -218 108 -394 128 -387
6 2 36 41 67 88 118 176 258 291 459 377 144 61 362 95 529 82 63 -5 78 -3 98
13 12 10 23 22 23 26 0 11 170 266 245 367 70 95 161 207 267 330 119 140 108
145 -96 45 -142 -70 -295 -165 -396 -248 -138 -112 -356 -347 -381 -412 -7
-18 -13 -21 -21 -13 -15 15 95 384 161 537 5 11 17 40 26 65 10 25 29 68 42
97 48 106 22 99 -103 -29z"/>
<path d="M3404 6409 c13 -177 79 -456 143 -599 70 -159 180 -352 235 -412 29
-33 39 -38 87 -40 50 -3 55 -1 61 22 42 140 55 179 65 200 31 63 31 61 -77
197 -94 116 -199 257 -289 388 -19 27 -72 112 -119 189 -47 77 -92 142 -99
144 -12 4 -13 -12 -7 -89z"/>
<path d="M5990 5852 c-190 -88 -280 -140 -392 -224 -76 -58 -111 -95 -103
-108 3 -4 26 -11 52 -15 107 -16 264 -86 372 -167 l64 -48 84 0 c70 0 103 6
191 35 59 20 127 42 152 50 61 19 266 71 312 79 39 7 57 30 31 41 -78 29 -502
30 -638 0 -78 -17 -139 -20 -131 -6 9 14 135 87 311 181 97 51 117 65 108 73
-11 12 -47 8 -177 -18 -152 -30 -293 -75 -405 -130 -29 -14 -56 -24 -59 -20
-9 9 52 68 183 178 66 55 122 104 123 109 6 13 -40 8 -78 -10z"/>
<path d="M3140 5815 c0 -28 154 -305 209 -375 18 -23 27 -25 116 -28 105 -4
188 4 183 18 -2 5 -62 53 -133 107 -119 89 -271 212 -335 270 -29 27 -40 29
-40 8z"/>
<path d="M6597 5321 c-16 -4 -33 -16 -40 -31 -12 -24 -17 -25 -132 -30 -103
-5 -126 -9 -165 -30 l-45 -25 -1125 4 -1124 4 -55 28 c-46 24 -68 29 -129 29
-63 0 -78 4 -106 25 l-33 25 -341 0 -341 0 -63 -55 c-66 -58 -76 -73 -77 -117
-1 -19 -13 -36 -42 -59 l-42 -33 -37 21 c-44 26 -197 50 -213 34 -11 -11 -14
-10 70 -37 60 -19 72 -30 79 -76 4 -24 0 -40 -15 -59 -17 -22 -28 -26 -80 -26
-67 -1 -120 -26 -149 -72 -9 -14 -36 -46 -60 -70 -50 -53 -56 -70 -43 -134 14
-74 -10 -172 -65 -263 -24 -42 -44 -78 -44 -81 0 -7 -85 -116 -147 -190 -51
-61 -56 -71 -67 -143 -3 -19 -12 -69 -19 -110 -8 -41 -27 -142 -42 -225 -18
-101 -35 -163 -51 -191 -18 -31 -27 -66 -34 -140 -5 -54 -14 -124 -20 -154 -9
-48 -8 -58 8 -79 34 -45 66 -60 177 -81 200 -37 269 -51 320 -62 87 -20 248
-4 280 28 27 27 18 67 -20 93 -40 27 -43 42 -16 68 10 10 23 27 29 39 16 31
25 163 14 211 -13 57 6 144 46 208 17 28 36 73 43 100 6 28 15 57 20 65 5 8
13 25 19 37 16 38 114 133 137 133 21 0 40 -14 65 -48 7 -9 32 -34 56 -55 l43
-38 157 6 c104 4 170 12 197 22 22 8 58 22 80 31 22 9 66 37 98 62 32 25 81
61 109 81 l50 37 381 4 c242 3 392 9 408 16 47 19 82 61 129 154 52 105 53
106 175 107 44 0 163 7 265 15 198 16 412 31 655 46 83 5 256 16 385 24 129 9
316 20 415 27 99 6 205 14 235 18 53 6 55 7 68 46 11 34 11 48 -3 97 -13 47
-14 65 -4 100 16 57 12 233 -6 267 -7 15 -22 62 -34 106 -37 147 -50 187 -79
238 -31 54 -55 67 -105 58z m-2959 -96 c26 -22 39 -25 110 -25 68 0 89 -4 145
-30 l65 -31 1129 -6 1129 -6 50 25 c45 23 69 26 200 33 175 8 164 14 213 -109
52 -131 42 -147 -44 -71 -34 30 -65 51 -69 48 -3 -3 -6 -41 -6 -84 0 -43 -4
-80 -9 -84 -10 -5 -137 92 -180 139 -45 48 -61 28 -61 -76 0 -46 -3 -58 -16
-58 -9 0 -58 36 -110 81 -51 44 -98 78 -104 74 -5 -3 -10 -38 -10 -76 0 -52
-4 -71 -15 -75 -14 -6 -65 32 -162 118 -64 57 -73 52 -73 -37 0 -101 -11 -104
-96 -29 -107 95 -137 116 -146 102 -4 -7 -8 -45 -8 -84 0 -39 -3 -73 -6 -77
-3 -3 -51 33 -106 79 -55 47 -105 83 -112 81 -6 -2 -12 -34 -14 -80 -2 -55 -7
-77 -16 -77 -7 0 -55 36 -107 80 -51 44 -98 79 -104 77 -5 -2 -12 -37 -15 -77
-3 -40 -10 -75 -16 -77 -9 -3 -120 77 -134 96 -3 4 -22 20 -43 36 -48 36 -57
26 -57 -67 0 -94 -6 -93 -142 31 -54 48 -77 63 -88 56 -6 -3 -10 -38 -10 -76
0 -52 -4 -71 -15 -75 -9 -4 -51 25 -111 77 -91 78 -97 82 -110 64 -8 -11 -14
-44 -14 -82 0 -46 -4 -63 -13 -63 -8 0 -53 34 -101 75 -48 41 -96 75 -107 75
-17 0 -19 -8 -19 -70 0 -52 -4 -72 -14 -76 -9 -4 -53 26 -111 75 -52 45 -99
81 -104 81 -15 0 -21 -28 -21 -95 0 -35 -4 -66 -8 -69 -4 -2 -55 35 -112 84
-57 49 -108 86 -112 84 -4 -3 -8 -41 -8 -84 0 -43 -5 -82 -10 -85 -6 -3 -57
35 -115 85 -68 59 -107 87 -110 78 -2 -7 -6 -46 -7 -87 -2 -41 -7 -76 -13 -78
-5 -1 -55 35 -110 82 -54 47 -104 84 -110 82 -5 -2 -11 -38 -13 -80 -2 -61 -6
-77 -18 -77 -9 0 -60 37 -114 83 l-99 82 2 44 2 45 82 43 82 43 198 9 c345 14
337 14 371 -14z m-758 -249 c0 -43 -5 -78 -11 -81 -13 -8 -104 67 -104 86 0
16 74 68 98 69 15 0 17 -10 17 -74z m663 -779 c23 -10 41 -28 53 -52 19 -41
20 -35 -45 -150 -25 -44 -39 -55 -112 -92 -45 -24 -104 -46 -130 -49 -43 -6
-49 -4 -75 25 -88 98 -84 165 20 330 12 19 237 9 289 -12z m-500 -41 c31 -28
39 -44 47 -87 18 -107 38 -152 81 -187 48 -39 39 -52 -37 -52 -127 0 -206 73
-207 192 -1 59 46 169 72 168 3 -1 23 -16 44 -34z"/>
<path d="M6850 5122 c0 -10 7 -42 15 -70 18 -59 4 -53 194 -72 74 -8 116 -9
123 -2 14 14 -279 161 -324 162 -5 0 -8 -8 -8 -18z"/>
<path d="M6922 4662 c-9 -26 -7 -148 3 -198 3 -13 22 -27 57 -41 29 -11 116
-47 193 -78 151 -62 195 -74 195 -56 0 17 -243 259 -325 323 -103 80 -111 84
-123 50z"/>
<path d="M6140 4265 c0 -8 5 -15 11 -15 5 0 41 -20 78 -44 117 -77 170 -105
176 -96 8 12 -5 30 -75 108 l-55 62 -67 0 c-54 0 -68 -3 -68 -15z"/>
<path d="M5925 4256 c-11 -8 -24 -37 -31 -67 -24 -106 -33 -131 -82 -232 -97
-197 -252 -365 -451 -487 l-54 -33 8 -163 c12 -288 1 -739 -20 -841 -5 -24 3
-53 15 -53 10 0 83 122 126 210 46 93 78 172 109 270 15 47 33 103 41 125 8
23 14 52 14 66 0 14 6 45 14 70 15 48 36 233 36 319 0 61 8 100 20 100 11 0
138 -389 186 -570 35 -133 51 -181 60 -181 5 0 17 37 27 83 15 66 19 132 20
328 2 218 -1 258 -21 363 -13 64 -34 151 -47 193 -28 83 -29 94 -15 94 17 0
169 -216 290 -412 41 -67 81 -124 88 -126 26 -8 -10 176 -69 362 -28 88 -128
305 -154 336 -19 23 -28 60 -15 60 11 0 274 -235 334 -299 67 -71 61 -23 -13
111 -72 129 -150 242 -226 326 l-57 62 -57 0 c-33 0 -65 -6 -76 -14z"/>
<path d="M3651 3840 c-97 -72 -166 -110 -238 -129 -24 -7 -43 -16 -43 -21 0
-40 362 -7 564 51 91 27 136 34 136 21 0 -12 -263 -208 -385 -287 -140 -90
-187 -120 -222 -141 -41 -23 -43 -44 -3 -44 53 0 264 44 345 71 17 6 44 14 60
18 105 27 328 135 454 220 142 95 144 87 19 -81 -92 -124 -105 -140 -243 -303
-50 -59 -71 -91 -62 -93 20 -4 157 70 252 136 132 92 205 154 306 260 53 56
99 99 102 96 6 -7 -85 -218 -161 -373 -33 -67 -55 -121 -48 -121 15 0 201 191
257 265 25 33 70 100 99 148 30 49 57 90 62 93 22 14 6 -96 -37 -251 -8 -27
-17 -69 -21 -93 -6 -36 -4 -41 9 -36 25 9 129 194 178 317 27 66 79 244 79
268 0 25 -10 24 -73 -5 -99 -44 -130 -53 -287 -77 -115 -17 -311 7 -433 53
-28 11 -60 22 -70 25 -11 3 -53 23 -95 44 l-76 39 -166 0 -166 0 -93 -70z"/>
</g>
</svg>
