<svg width="114.8" height="113.5" viewBox="0 0 114.8 113.5"><g id="healing_sword" fill-rule="evenodd"><title>healing_sword</title><path unicode="E056" d="M 104.6 89 L 85.1 58.8 L 86 58.1 A 21.936 21.936 0 0 0 78.404 61.497 C 76.464 62.734 74.613 64.043 72.7 65 A 25.33 25.33 0 0 0 75.147 63.269 C 75.938 62.638 76.754 61.92 77.594 61.101 A 41.918 41.918 0 0 0 79.6 59 A 74.622 74.622 0 0 0 81.413 56.87 C 82.659 55.364 83.906 53.837 85.443 52.362 A 26.286 26.286 0 0 1 87.6 50.5 L 92.1 54.6 A 10.26 10.26 0 0 0 90.975 54.358 C 90.107 54.224 89.127 54.195 88.1 54.4 L 85.8 55.4 A 4.176 4.176 0 0 1 85.406 55.663 C 85.138 55.82 84.869 55.933 84.6 56 L 85.7 56 A 7.108 7.108 0 0 0 86.4 55.966 C 86.913 55.915 87.521 55.798 88.202 55.554 A 8.449 8.449 0 0 0 88.6 55.4 C 89.9 54.7 91.5 54.8 92.4 54.9 L 114.8 74.2 L 89.6 49.1 C 91.442 47.899 93.54 46.826 96.203 45.83 A 50.12 50.12 0 0 1 98.3 45.1 C 94 44.3 88.8 43.6 81.6 47.1 L 80.5 47.7 C 80.6 47.6 80.6 47.4 80.9 47.3 C 84.488 43.712 90.401 41.413 96.315 38.534 A 41.108 41.108 0 0 0 109.1 29.8 C 96.4 37.2 90.2 33.4 77.9 42 A 2.501 2.501 0 0 0 77.874 42 C 77.799 42.001 77.791 42.009 77.7 42.1 A 49.219 49.219 0 0 1 83.46 37.636 C 89.735 33.37 97.142 29.508 102.257 24.03 A 25.574 25.574 0 0 0 105.3 20.1 C 93.6 29.1 86.8 28.4 75.8 36.2 A 35.699 35.699 0 0 0 72.604 38.787 C 71.547 39.75 70.61 40.728 69.78 41.705 A 30.264 30.264 0 0 0 69.7 41.8 L 69.6 41.8 L 69.8 41.4 C 73.406 34.871 82.9 30.336 87.546 21.964 A 22.155 22.155 0 0 0 87.9 21.3 A 44.665 44.665 0 0 1 84.764 24.26 C 77.969 30.059 72.972 30.39 66 37.1 L 65.7 37.4 A 10.74 10.74 0 0 0 66.282 36.119 C 66.743 34.907 67.15 33.254 67.373 30.898 A 34.342 34.342 0 0 0 67.4 30.6 A 24.727 24.727 0 0 1 68.725 24.796 A 26.754 26.754 0 0 1 69.8 22.2 C 70.4 20.9 71 19.6 71.7 18.3 L 69.6 20.3 A 24.857 24.857 0 0 0 68.676 21.36 C 67.718 22.524 66.702 23.971 65.8 25.7 A 16.445 16.445 0 0 1 65.832 24.784 C 65.861 24.258 65.9 23.688 65.9 23 C 65.8 20.1 66.4 17.6 67.1 15.9 A 11.62 11.62 0 0 1 67.855 13.989 A 10.037 10.037 0 0 1 68.3 13.2 A 10.127 10.127 0 0 1 68.294 13.206 C 67.862 13.638 67.356 14.07 66.904 14.631 A 5.914 5.914 0 0 0 66.7 14.9 A 9.82 9.82 0 0 0 65.862 16.11 C 65.342 16.987 64.844 18.085 64.408 19.423 A 23.115 23.115 0 0 0 64.2 20.1 L 64.2 15.7 L 61.9 14.8 A 19.524 19.524 0 0 0 60.138 14.208 C 59.647 14.072 59.142 13.958 58.637 13.886 A 8.033 8.033 0 0 0 57.5 13.8 C 56 13.8 54.5 14.3 53.3 14.8 L 51.2 15.7 L 51.1 20.8 A 21.971 21.971 0 0 0 50.564 19.032 C 49.937 17.248 49.189 15.919 48.5 15 A 9.387 9.387 0 0 0 47.165 13.517 A 11.489 11.489 0 0 0 46.8 13.2 A 10.646 10.646 0 0 1 47.756 15.169 A 12.528 12.528 0 0 1 48 15.9 A 13.441 13.441 0 0 1 48.589 17.716 C 48.776 18.459 48.929 19.281 49.035 20.167 A 23.912 23.912 0 0 1 49.2 23 A 19.237 19.237 0 0 0 49.209 23.589 C 49.229 24.244 49.276 24.794 49.293 25.324 A 11.509 11.509 0 0 1 49.3 25.7 C 48.119 23.436 46.647 21.656 45.456 20.361 A 39.116 39.116 0 0 0 45.4 20.3 L 43.4 18.3 C 44.1 19.6 44.7 20.9 45.3 22.2 A 26.903 26.903 0 0 1 46.551 25.309 A 24.421 24.421 0 0 1 47.7 30.6 A 30.821 30.821 0 0 0 47.938 32.523 C 48.17 33.998 48.481 35.137 48.836 36.092 A 14.796 14.796 0 0 0 49.3 37.2 A 1.701 1.701 0 0 1 49.267 37.2 C 49.203 37.199 49.2 37.189 49.2 37.112 A 6.453 6.453 0 0 1 49.2 37.1 A 39.852 39.852 0 0 0 46.183 34.464 C 40.564 30.046 36.088 29.155 30.208 24.064 A 44.905 44.905 0 0 1 27.3 21.3 A 34.58 34.58 0 0 0 35.313 30.945 C 38.312 33.657 41.373 36.103 43.585 38.778 A 17.138 17.138 0 0 1 45.4 41.4 L 45.7 41.8 L 45.6 41.8 L 45.6 41.9 A 34.181 34.181 0 0 0 43.647 39.763 C 42.463 38.575 41.088 37.388 39.4 36.2 C 29.684 29.336 23.066 29.942 13.598 23.709 A 50.871 50.871 0 0 1 10 21.1 A 31.106 31.106 0 0 0 20.506 30.945 C 26.374 34.685 32.956 37.73 37.5 42.1 L 37.4 42 A 40.824 40.824 0 0 0 33.513 39.666 C 24.622 35.008 18.909 36.795 9.937 32.779 A 40.367 40.367 0 0 1 6.1 30.8 A 35.289 35.289 0 0 0 18.451 38.975 C 24.507 41.664 30.624 43.624 34.3 47.3 A 0.55 0.55 0 0 1 34.377 47.332 C 34.58 47.436 34.531 47.603 34.784 47.694 A 0.65 0.65 0 0 0 34.8 47.7 L 33.6 47.1 A 29.107 29.107 0 0 0 30.214 45.701 C 24.697 43.832 20.429 44.431 17 45.1 C 19.598 45.916 21.644 46.788 23.468 47.796 A 29.335 29.335 0 0 1 25.3 48.9 L 0 75.2 L 22.4 54.8 C 23 54.8 23.956 54.756 24.911 54.933 A 4.765 4.765 0 0 1 26.3 55.4 A 8.16 8.16 0 0 0 27.263 55.734 C 28.039 55.948 28.697 56 29.2 56 L 30.4 56 A 2.979 2.979 0 0 1 29.725 55.736 A 4.024 4.024 0 0 1 29.2 55.4 L 26.8 54.4 A 6.42 6.42 0 0 0 25.891 54.241 C 24.667 54.117 23.586 54.358 22.7 54.6 L 27.4 50.3 C 30.9 53.1 33 56.1 35.7 59 A 28.973 28.973 0 0 0 37.067 60.51 C 38.24 61.72 39.422 62.738 40.5 63.6 C 36.8 61.3 33.4 58.6 28.7 57.7 L 29.9 58.5 L 10.2 90 L 31.7 60 A 33.266 33.266 0 0 1 32.744 61.002 C 34.687 62.952 36.09 64.894 37.2 67.2 L 26.1 97.7 L 38.4 69.7 C 40.55 74.467 41.826 79.932 44.923 86.097 A 53.406 53.406 0 0 0 45.6 87.4 A 24.682 24.682 0 0 1 44.154 86.118 C 42.213 84.277 40.159 81.974 38.361 80.822 A 6.249 6.249 0 0 0 37.6 80.4 C 42.7 88.1 44 93.2 47.8 105.8 A 266.036 266.036 0 0 0 38.708 106.253 C 29.681 106.87 23.33 107.892 22.185 109.178 A 0.637 0.637 0 0 0 22 109.6 A 1.07 1.07 0 0 0 22.721 110.371 C 25.407 111.791 35.334 112.966 48.139 113.359 A 305.992 305.992 0 0 0 57.5 113.5 C 75.916 113.5 91.011 111.927 92.901 110.006 A 0.589 0.589 0 0 0 93.1 109.6 C 93.1 107.7 82.4 106.3 67.7 105.8 A 706.682 706.682 0 0 0 67.734 105.692 C 71.707 93.171 72.915 88.178 78 80.4 C 75.853 81.345 73.338 84.501 70.961 86.577 A 14.298 14.298 0 0 1 69.8 87.5 C 72.455 82.569 73.844 78.098 75.233 74.001 A 86.335 86.335 0 0 1 76.6 70.2 L 88.7 97.7 L 77.8 67.7 A 24.583 24.583 0 0 1 81.669 61.85 A 24.164 24.164 0 0 1 83.3 60.2 L 104.6 89 Z M 62.7 60.5 L 61 109.6 C 60.747 109.684 60.423 109.698 60.147 109.7 A 19.46 19.46 0 0 1 60 109.7 A 9.683 9.683 0 0 1 58.937 109.786 C 58.528 109.8 58.067 109.8 57.5 109.8 A 115.127 115.127 0 0 1 56.744 109.798 C 56.484 109.797 56.247 109.793 56.026 109.785 A 9.557 9.557 0 0 1 55 109.7 A 2.937 2.937 0 0 1 54.156 109.618 A 1.603 1.603 0 0 1 54.1 109.6 L 52.4 60.5 L 40 54 L 37.9 48.5 L 51.5 51.8 A 1.859 1.859 0 0 1 51.562 51.35 A 6.176 6.176 0 0 1 51.7 50.9 C 51.8 50.3 52.1 49.7 52.6 49.1 C 53.1 48.6 53.8 48.2 54.2 47.9 L 54.9 47.5 L 53.9 46.5 L 54.1 22.8 L 55.2 22.4 A 4.938 4.938 0 0 1 56.859 22.02 A 9.282 9.282 0 0 1 57.5 22 A 8.375 8.375 0 0 1 58.737 22.082 A 4.702 4.702 0 0 1 59.9 22.4 L 61 22.8 L 61.2 46.5 L 60.2 47.5 L 60.9 47.9 L 62.5 49.1 C 62.833 49.567 62.989 49.989 63.144 50.367 A 3.938 3.938 0 0 0 63.4 50.9 L 63.6 51.8 L 77.2 48.5 L 75.1 54 L 62.7 60.5 Z M 39 19.4 C 39.5 16.4 40.7 13.7 42.5 11.2 C 44.4 8.9 46.5 6.9 49.2 5.6 C 51.9 4.3 54.6 3.6 57.5 3.6 C 60.4 3.6 63.2 4.3 65.9 5.6 C 68.6 6.9 70.7 8.9 72.6 11.2 C 74.4 13.7 75.6 16.4 76.1 19.4 A 18.339 18.339 0 0 1 76.478 23.125 C 76.478 24.412 76.348 25.734 76.079 27.091 A 23.32 23.32 0 0 1 75.7 28.7 C 77.2 26.074 77.909 23.097 77.909 19.85 A 22.767 22.767 0 0 0 77.9 19.2 C 77.7 15.7 76.7 12.6 74.9 9.7 C 73 6.7 70.6 4.3 67.5 2.6 C 64.4 1 61.1 0.1 57.5 0 C 54 0.1 50.7 1 47.6 2.6 C 44.5 4.3 42.1 6.7 40.2 9.7 C 38.4 12.6 37.4 15.7 37.2 19.2 A 22.767 22.767 0 0 0 37.191 19.85 C 37.191 23.097 37.9 26.074 39.4 28.7 A 22.175 22.175 0 0 1 38.729 25.168 C 38.657 24.477 38.622 23.796 38.622 23.125 A 18.339 18.339 0 0 1 39 19.4 Z M 98.1 41.1 L 96.2 41.9 L 97.9 42.1 C 99 42.2 100.4 42.2 102.3 41.7 C 103.425 41.4 104.662 41.213 105.759 41.095 A 35.315 35.315 0 0 1 106.8 41 L 109 40.8 L 106.8 40.4 A 18.35 18.35 0 0 0 104.869 40.11 C 104.028 40.033 103.135 40.024 102.192 40.133 A 12.008 12.008 0 0 0 101.7 40.2 A 9.098 9.098 0 0 0 100.828 40.327 C 100.032 40.478 99.172 40.727 98.417 40.988 A 20.582 20.582 0 0 0 98.1 41.1 Z M 8.8 40.9 L 6.6 41.8 L 8.8 41.5 A 35.344 35.344 0 0 1 9.833 41.432 C 10.706 41.391 11.661 41.396 12.632 41.561 A 8.865 8.865 0 0 1 13.3 41.7 A 14.804 14.804 0 0 0 14.463 41.958 C 15.586 42.159 16.509 42.178 17.288 42.131 A 13.24 13.24 0 0 0 17.7 42.1 L 19.3 41.9 L 17.4 41.1 C 16.3 40.7 15 40.3 13.9 40.2 C 12 39.9 10.1 40.5 8.8 40.9 Z M 69.1 59.9 L 69.1 59.7 L 69.2 59.7 L 69.1 59.9 Z"/></g></svg>