<svg width="228.1" height="106.3" viewBox="0 0 228.1 106.3"><g id="hunter_staff" fill-rule="evenodd"><title>hunter_staff</title><path unicode="E121" d="M 112.6 65 L 108.6 64.9 L 82.4 64.9 L 64.8 82.5 L 88.7 82.3 L 88.5 106.3 L 113.3 81.5 L 113.3 65.1 L 112.6 65.1 L 112.6 65 Z M 147.6 65 L 117.7 65 L 116.6 65 L 116.6 81.5 L 141.3 106.3 L 141.2 82.3 L 165.1 82.5 L 147.6 65 Z M 117.4 41.1 L 117.4 41.3 L 121.3 41.3 L 147.5 41.3 L 165.1 23.7 L 141.2 23.9 L 141.3 0 L 116.6 24.7 L 116.6 41.1 L 117.4 41.1 Z M 82.3 41.2 L 111.8 41.2 L 112.5 41.2 L 113.2 41.2 L 113.3 41.2 L 113.3 24.7 L 88.5 0 L 88.7 23.9 L 64.8 23.7 L 82.3 41.2 Z M 54 44.8 L 51.6 47.7 L 49.4 46.5 L 48.1 47.4 C 47.369 47.857 46.47 48.398 45.634 48.564 A 2.783 2.783 0 0 1 45.4 48.6 A 5.913 5.913 0 0 1 44.619 48.742 C 41.883 49.094 34.855 49.069 31.774 48.806 A 24.246 24.246 0 0 1 31.7 48.8 C 30.1 48.7 28.4 48.1 27.1 47.4 A 17.217 17.217 0 0 1 26.132 46.949 C 25.7 46.731 25.25 46.481 24.8 46.2 L 21.4 47 L 13.1 49.1 L 4.1 51.6 C 2.6 52 1.3 52.4 0 52.9 A 35.926 35.926 0 0 0 3.009 53.898 A 58.172 58.172 0 0 0 4.1 54.2 C 6.6 54.9 9.9 55.9 13.1 56.7 C 16.3 57.6 19.3 58.2 21.4 58.7 L 24.8 59.5 L 27.1 58.4 A 10.559 10.559 0 0 1 29.023 57.628 C 29.889 57.365 30.81 57.167 31.7 57 A 35.533 35.533 0 0 1 32.945 56.919 C 36.868 56.723 43.699 56.831 45.4 57.1 C 46.225 57.375 47.134 57.818 47.896 58.275 A 13.076 13.076 0 0 1 48.1 58.4 L 49.4 59.3 L 51.6 58.1 L 54 60.9 C 54.5 60.4 54.9 60 55.4 59.7 C 56.2 59 57.1 58.5 57.8 58.2 C 58.9 57.8 60.7 57.7 62.3 57.7 A 56.088 56.088 0 0 1 63.725 57.712 A 23.916 23.916 0 0 1 65.3 57.8 A 4.432 4.432 0 0 1 64.95 57.231 C 64.808 56.966 64.67 56.683 64.5 56.4 A 10.477 10.477 0 0 1 64.041 55.197 C 63.924 54.813 63.826 54.393 63.766 53.931 A 7.957 7.957 0 0 1 63.7 52.9 A 7.88 7.88 0 0 1 63.8 51.635 C 63.944 50.748 64.222 50.026 64.5 49.4 A 10.463 10.463 0 0 0 64.806 48.843 C 64.94 48.585 65.068 48.337 65.218 48.115 A 2.93 2.93 0 0 1 65.3 48 A 23.916 23.916 0 0 1 63.725 48.087 A 56.089 56.089 0 0 1 62.3 48.1 A 33.028 33.028 0 0 1 61.214 48.083 C 59.935 48.041 58.656 47.911 57.8 47.6 C 57.333 47.4 56.778 47.067 56.222 46.659 A 12.318 12.318 0 0 1 55.4 46 C 55.025 45.775 54.706 45.494 54.359 45.156 A 37.463 37.463 0 0 1 54 44.8 Z M 206.7 47 L 203.3 46.2 C 202.688 46.638 201.998 46.998 201.367 47.283 A 16.067 16.067 0 0 1 201.1 47.4 A 12.217 12.217 0 0 1 199.759 48.015 C 198.704 48.426 197.531 48.731 196.5 48.8 C 193.451 49.069 186.3 49.097 183.558 48.739 A 5.805 5.805 0 0 1 182.8 48.6 A 4.548 4.548 0 0 1 181.088 48.049 C 180.702 47.845 180.342 47.614 180 47.4 L 178.7 46.5 L 176.6 47.7 L 174.1 44.8 A 51.601 51.601 0 0 1 173.616 45.28 C 173.443 45.448 173.28 45.601 173.122 45.739 A 5.819 5.819 0 0 1 172.8 46 A 12.318 12.318 0 0 1 171.978 46.659 C 171.422 47.067 170.867 47.4 170.4 47.6 C 169.3 48 167.4 48.1 165.8 48.1 A 46.737 46.737 0 0 1 164.112 48.079 A 19.057 19.057 0 0 1 162.9 48 A 4.432 4.432 0 0 1 163.25 48.569 C 163.392 48.834 163.53 49.117 163.7 49.4 A 10.477 10.477 0 0 1 164.159 50.603 C 164.276 50.987 164.374 51.407 164.434 51.869 A 7.957 7.957 0 0 1 164.5 52.9 A 7.88 7.88 0 0 1 164.4 54.165 C 164.256 55.052 163.978 55.774 163.7 56.4 A 10.463 10.463 0 0 0 163.394 56.957 C 163.26 57.215 163.132 57.463 162.982 57.685 A 2.93 2.93 0 0 1 162.9 57.8 A 23.822 23.822 0 0 1 165.108 57.702 A 103.847 103.847 0 0 1 165.8 57.7 A 33.086 33.086 0 0 1 167.143 57.726 C 168.208 57.769 169.275 57.875 170.062 58.093 A 4.521 4.521 0 0 1 170.4 58.2 C 171.1 58.5 172 59 172.8 59.7 C 173.2 60 173.6 60.4 174.1 60.9 L 176.6 58.1 L 178.7 59.3 L 180 58.4 A 13.235 13.235 0 0 1 181.463 57.592 A 8.504 8.504 0 0 1 182.8 57.1 A 11.528 11.528 0 0 1 183.617 57.011 C 186.423 56.783 193.375 56.732 196.5 57 C 197.78 57.256 199.279 57.585 200.499 58.111 A 7.704 7.704 0 0 1 201.1 58.4 L 203.3 59.5 L 206.7 58.7 C 208.534 58.263 211.055 57.75 213.796 57.028 A 76.02 76.02 0 0 0 215 56.7 A 106.43 106.43 0 0 0 216.069 56.427 C 218.803 55.713 221.537 54.895 223.715 54.28 A 152.646 152.646 0 0 1 224 54.2 A 49.708 49.708 0 0 0 226.125 53.587 A 33.416 33.416 0 0 0 228.1 52.9 A 35.926 35.926 0 0 0 225.091 51.902 A 58.172 58.172 0 0 0 224 51.6 L 215 49.1 L 206.7 47 Z M 93.8 56.8 L 134.3 56.8 L 134.3 49 L 93.8 49 L 93.8 56.8 Z M 142.6 48.9 L 141 47.4 L 136.6 47.4 L 135.6 48.4 L 135.6 52.9 L 135.6 57.2 L 136.6 58.2 L 141 58.2 L 142.6 56.7 L 155.5 56.7 L 158.5 60.4 A 5.3 5.3 0 0 0 159.688 59.75 A 8.78 8.78 0 0 0 160.8 58.8 A 7.411 7.411 0 0 0 161.055 58.532 C 161.998 57.49 162.94 55.858 163.082 53.512 A 10.159 10.159 0 0 0 163.1 52.9 A 9.302 9.302 0 0 0 162.914 51.01 C 162.573 49.362 161.814 48.175 161.055 47.288 A 11.158 11.158 0 0 0 160.8 47 C 160.1 46.3 159.3 45.8 158.5 45.4 L 155.5 48.9 L 142.6 48.9 Z M 85.6 49.1 L 72.6 49.1 L 69.6 45.4 C 68.7 45.8 68 46.3 67.3 47 A 8.405 8.405 0 0 0 66.165 48.549 C 65.551 49.636 65.1 51.042 65.1 52.9 A 10.158 10.158 0 0 0 65.289 54.891 C 65.581 56.354 66.177 57.468 66.83 58.277 A 6.65 6.65 0 0 0 67.3 58.8 A 7.978 7.978 0 0 0 68.735 59.992 A 4.165 4.165 0 0 0 69.6 60.4 L 72.6 56.9 L 85.6 56.9 L 87.1 58.4 L 91.5 58.4 L 92.5 57.4 L 92.5 52.9 L 92.5 48.6 L 91.5 47.6 L 87.1 47.6 L 85.6 49.1 Z M 25.2 51.4 L 44.7 51.4 C 45.5 51.4 46.3 52.1 46.3 52.9 C 46.3 53.7 45.5 54.4 44.7 54.4 L 25.2 54.4 A 65.22 65.22 0 0 1 19.851 54.176 C 18.549 54.068 17.316 53.928 16.181 53.769 A 60.693 60.693 0 0 1 15.7 53.7 C 14.388 53.438 13.075 53.252 11.896 53.008 A 21.959 21.959 0 0 1 11.4 52.9 A 1230.93 1230.93 0 0 0 13.475 52.588 A 52.069 52.069 0 0 0 15.7 52.2 A 90.255 90.255 0 0 1 18.97 51.771 C 20.903 51.556 23.013 51.4 25.2 51.4 Z M 183.5 51.4 L 203 51.4 A 54.779 54.779 0 0 1 208.349 51.679 C 209.651 51.807 210.884 51.966 212.019 52.13 A 118.537 118.537 0 0 1 212.5 52.2 L 216.7 52.9 C 215.563 53.163 214.348 53.348 213.058 53.592 A 51.511 51.511 0 0 0 212.5 53.7 C 210.222 54.038 207.517 54.304 204.624 54.379 A 62.699 62.699 0 0 1 203 54.4 L 183.5 54.4 A 1.644 1.644 0 0 1 182.461 54.037 A 1.472 1.472 0 0 1 181.9 52.9 A 1.525 1.525 0 0 1 182.976 51.483 A 1.676 1.676 0 0 1 183.5 51.4 Z"/></g></svg>