<?xml version="1.0" standalone="no"?>
<!DOCTYPE svg PUBLIC "-//W3C//DTD SVG 20010904//EN"
 "http://www.w3.org/TR/2001/REC-SVG-20010904/DTD/svg10.dtd">
<svg version="1.0" xmlns="http://www.w3.org/2000/svg"
 width="900.000000pt" height="900.000000pt" viewBox="0 0 900.000000 900.000000"
 preserveAspectRatio="xMidYMid meet">
<metadata>
Created by potrace 1.10, written by Peter Selinger 2001-2011
</metadata>
<g transform="translate(0.000000,900.000000) scale(0.100000,-0.100000)"
fill="#000000" stroke="none">
<path d="M6025 6723 c-114 -35 -313 -127 -403 -187 -53 -35 -107 -47 -128 -27
-32 31 -307 126 -444 155 -194 40 -259 46 -480 46 -221 0 -286 -6 -480 -46
-132 -28 -278 -73 -385 -120 -97 -42 -345 -170 -355 -183 -8 -10 -49 -31 -60
-31 -5 0 -25 34 -44 74 -78 170 -237 276 -414 276 -223 0 -402 -141 -458 -363
-39 -152 17 -322 145 -443 28 -27 51 -51 51 -55 0 -4 -26 -51 -58 -106 -72
-120 -127 -236 -176 -368 -21 -55 -44 -115 -52 -133 -8 -18 -14 -39 -14 -47 0
-8 -6 -29 -14 -47 -7 -18 -19 -53 -25 -78 -6 -25 -20 -76 -30 -115 -69 -255
-110 -588 -118 -945 -5 -282 8 -625 25 -642 20 -20 22 -11 57 332 16 153 32
273 60 440 8 47 17 102 20 123 6 37 19 48 28 24 3 -8 10 -58 17 -113 46 -387
186 -739 415 -1044 40 -52 79 -101 88 -109 26 -21 21 -46 -25 -124 -24 -40
-51 -90 -62 -112 -10 -22 -23 -49 -28 -60 -6 -10 -17 -44 -24 -75 -46 -193 23
-294 201 -294 118 1 252 45 428 141 42 24 81 43 86 43 4 0 62 -26 127 -59 265
-131 523 -200 833 -222 319 -22 600 18 921 133 144 52 274 115 424 205 l88 54
82 -83 c126 -129 249 -175 404 -151 126 19 229 81 306 183 80 107 109 239 81
367 -23 106 -57 164 -144 250 l-75 74 22 42 c12 23 36 69 54 102 65 118 145
312 199 480 10 33 24 76 31 95 6 19 14 49 18 65 4 17 18 66 30 110 53 195 107
530 132 825 17 198 18 694 1 711 -17 17 -30 -15 -37 -101 -8 -88 -42 -351 -56
-430 -5 -30 -16 -100 -25 -155 -23 -139 -29 -160 -45 -160 -11 0 -19 20 -27
65 -65 370 -230 726 -469 1012 -51 62 -94 118 -94 123 0 6 25 48 56 94 193
294 216 504 62 582 -46 24 -170 25 -243 2z m-1355 -88 c210 -26 390 -69 525
-126 155 -64 209 -93 212 -111 2 -7 -20 -31 -47 -52 -82 -65 -120 -101 -120
-114 0 -15 35 -8 59 11 14 12 46 31 71 44 8 4 49 27 90 51 93 55 272 146 331
167 56 21 166 45 202 45 97 0 125 -83 57 -169 -29 -37 -43 -78 -55 -166 -12
-86 -94 -231 -192 -336 -33 -35 -77 -98 -98 -139 -69 -134 -257 -299 -415
-365 -81 -34 -90 -41 -141 -129 -24 -39 -80 -109 -126 -156 -74 -76 -101 -120
-73 -120 24 0 401 283 567 426 138 119 401 376 467 457 21 26 44 47 51 47 27
0 184 -223 265 -375 94 -178 165 -387 216 -635 26 -123 26 -547 0 -670 -63
-303 -138 -499 -277 -725 -88 -143 -102 -156 -154 -145 -52 11 -113 34 -178
66 -49 25 -416 245 -600 361 -45 28 -85 52 -89 52 -20 2 -3 -37 61 -141 218
-356 321 -529 343 -578 30 -64 68 -174 68 -194 0 -8 -28 -33 -61 -56 -64 -43
-275 -156 -319 -170 -14 -5 -50 -18 -80 -30 -100 -40 -263 -80 -410 -101 -245
-36 -569 -15 -810 51 -159 44 -320 108 -320 127 0 4 19 26 42 50 23 23 38 46
34 50 -7 8 -40 -8 -151 -73 -266 -155 -375 -205 -518 -238 -73 -17 -80 -17
-121 -2 -68 26 -75 78 -20 150 29 38 38 62 49 129 21 130 101 282 199 379 29
29 70 85 91 123 20 39 53 92 74 118 69 91 243 223 353 266 32 13 65 30 75 40
20 18 63 77 63 86 0 17 66 98 134 165 69 68 87 96 70 112 -7 8 -104 -59 -291
-199 -217 -163 -352 -281 -562 -490 -101 -101 -188 -183 -193 -183 -13 0 -61
53 -138 156 -185 246 -324 545 -384 824 -44 210 -48 250 -43 486 2 126 10 256
16 289 24 119 43 201 58 250 66 222 203 504 252 520 23 7 190 -39 282 -79 63
-28 242 -132 474 -276 120 -75 248 -150 256 -150 18 0 8 20 -73 154 -46 75
-89 146 -96 159 -7 12 -21 34 -30 49 -64 100 -167 277 -189 321 -14 28 -29 60
-34 69 -14 28 -46 129 -64 206 -17 69 -17 73 0 92 36 39 159 112 280 165 17 7
60 27 98 44 37 17 71 31 77 31 5 0 24 6 42 14 88 37 272 76 473 100 81 9 284
4 395 -9z m-1748 -91 c93 -34 149 -77 191 -144 123 -197 31 -440 -192 -510
-76 -24 -112 -25 -177 -4 -70 22 -103 41 -152 88 -184 176 -115 478 131 567
64 23 143 24 199 3z m3402 -3388 c121 -58 196 -175 196 -307 0 -141 -77 -257
-208 -315 -50 -22 -68 -25 -142 -22 -139 6 -231 65 -290 185 -72 144 -43 293
76 404 100 92 245 114 368 55z"/>
<path d="M3954 5605 c-9 -63 1 -115 37 -194 17 -36 41 -88 54 -116 12 -27 37
-80 54 -118 17 -37 31 -69 31 -71 0 -2 17 -42 39 -88 21 -45 51 -112 66 -148
15 -36 31 -70 37 -77 6 -8 6 -19 -1 -32 -30 -55 -88 -31 -384 163 -151 99
-175 93 -71 -19 199 -215 190 -246 -46 -160 -19 7 -89 30 -155 50 -66 20 -130
40 -143 46 -28 11 -72 12 -72 1 0 -4 42 -30 93 -57 50 -27 101 -55 112 -62 11
-7 27 -15 35 -19 18 -9 196 -106 258 -141 42 -24 43 -25 26 -44 -9 -11 -29
-25 -43 -32 -61 -31 -310 -166 -376 -204 -22 -12 -49 -27 -60 -32 -11 -6 -31
-19 -45 -30 -38 -31 -3 -26 110 14 33 12 88 30 312 99 98 31 132 31 136 1 3
-19 -26 -54 -182 -222 -24 -27 -27 -33 -14 -38 10 -4 66 26 150 79 252 162
291 182 332 172 32 -8 41 -39 22 -73 -15 -29 -17 -34 -116 -258 -35 -77 -80
-177 -101 -223 -22 -46 -39 -85 -39 -87 0 -3 -11 -28 -24 -57 -28 -62 -38
-118 -29 -171 8 -52 32 -49 97 13 43 41 60 68 96 152 24 57 60 139 80 183 21
44 48 105 61 135 89 208 124 221 153 57 42 -234 49 -273 57 -281 11 -13 24 25
38 114 44 271 46 280 82 280 17 0 53 -65 127 -230 11 -25 38 -84 60 -131 22
-47 43 -97 47 -110 10 -31 61 -129 77 -149 23 -28 84 -70 101 -70 14 0 17 12
17 74 0 75 -12 112 -91 284 -61 134 -95 209 -170 381 -55 126 -58 136 -42 153
9 10 26 18 37 18 28 0 111 -43 221 -115 50 -32 121 -78 158 -102 41 -27 75
-42 84 -39 18 7 17 8 -68 101 -94 102 -130 148 -127 164 4 20 50 26 87 12 14
-5 73 -24 131 -41 58 -18 121 -37 140 -44 100 -37 150 -52 200 -62 l25 -6 -25
22 c-14 11 -34 25 -45 31 -11 5 -33 17 -50 27 -16 10 -91 51 -165 92 -143 78
-233 128 -264 146 -32 19 -32 19 209 149 106 57 228 125 245 135 8 6 25 14 38
20 26 11 29 30 4 30 -10 0 -58 -13 -107 -29 -50 -16 -137 -43 -195 -61 -58
-17 -120 -38 -138 -46 -38 -16 -88 -18 -97 -4 -10 16 12 46 111 156 52 58 94
109 94 114 0 22 -36 6 -143 -64 -148 -97 -233 -148 -284 -170 -40 -18 -44 -18
-68 -2 -14 9 -25 20 -25 25 0 9 59 147 114 264 20 43 36 80 36 82 0 2 18 43
41 92 134 289 129 274 129 358 0 93 -11 99 -83 40 -46 -37 -60 -57 -91 -129
-20 -47 -52 -120 -72 -163 -50 -110 -67 -148 -103 -228 -79 -176 -109 -180
-136 -20 -63 374 -62 374 -121 15 -19 -112 -26 -130 -55 -130 -21 0 -40 38
-198 387 -28 62 -51 115 -51 117 0 3 -11 30 -25 60 -23 51 -67 96 -122 125
-31 16 -31 16 -39 -34z m687 -903 c71 -35 169 -138 169 -179 0 -29 -91 -121
-151 -153 -58 -31 -71 -34 -149 -34 -71 0 -94 4 -140 26 -61 29 -108 70 -147
129 -23 35 -24 42 -13 69 17 42 101 117 163 146 69 32 197 30 268 -4z"/>
<path d="M2740 6379 c-110 -66 -131 -199 -46 -289 117 -125 316 -43 316 130 0
51 -13 82 -54 128 -47 54 -153 69 -216 31z"/>
<path d="M6105 3016 c-43 -19 -92 -78 -106 -128 -19 -74 23 -163 96 -205 145
-82 324 77 260 230 -17 41 -68 95 -102 108 -35 13 -113 10 -148 -5z"/>
</g>
</svg>
