<svg width="115" height="106.1" viewBox="0 0 115 106.1"><g id="nova_bomb" fill-rule="evenodd"><title>nova_bomb</title><path unicode="E120" d="M 114.7 35.95 L 114.6 35.95 C 112.3 36.65 110 37.45 107.6 38.15 L 107.8 38.15 L 93.1 42.75 L 86.6 44.75 A 13.83 13.83 0 0 1 85.553 45.059 C 85.218 45.142 84.901 45.201 84.6 45.23 A 4.187 4.187 0 0 1 84.2 45.25 C 82.3 45.15 82.4 43.85 84.5 41.55 L 92.1 33.25 A 30.497 30.497 0 0 0 92.633 32.636 C 93.704 31.364 94.056 30.674 93.637 30.565 A 0.551 0.551 0 0 0 93.5 30.55 A 1.158 1.158 0 0 0 93.167 30.612 C 92.818 30.72 92.327 30.972 91.692 31.367 A 22.807 22.807 0 0 0 91.1 31.75 L 77.5 40.55 A 58.951 58.951 0 0 1 75.064 41.983 C 73.049 43.086 71.32 43.74 69.8 43.45 C 69.3 43.45 68.1 42.45 68 42.35 A 0.028 0.028 0 0 1 67.995 42.332 C 67.984 42.113 68.79 40.148 69.951 37.544 A 208.999 208.999 0 0 1 70.9 35.45 L 71.9 33.15 L 74.9 26.75 C 75.951 24.507 76.757 22.51 77.455 20.862 A 51.014 51.014 0 0 1 78.3 18.95 C 78.769 17.919 79.15 16.975 79.607 16.12 A 12.274 12.274 0 0 1 79.7 15.95 C 81.3 12.25 83.2 8.25 83.2 7.95 A 0.75 0.75 0 0 0 83.365 7.664 C 83.471 7.364 83.494 6.935 83.499 6.506 A 30.582 30.582 0 0 0 83.5 6.15 L 83.5 5.55 A 29.656 29.656 0 0 0 83.473 4.352 C 83.443 3.617 83.4 2.941 83.4 2.35 L 83.3 0.65 C 83.208 0.188 82.944 -0.018 82.51 0.033 A 1.366 1.366 0 0 0 82.4 0.05 L 82.5 0.05 A 1.701 1.701 0 0 1 82.5 0.083 C 82.499 0.147 82.489 0.15 82.412 0.15 A 6.453 6.453 0 0 1 82.4 0.15 L 81.1 1.15 L 79.7 2.25 L 79.5 2.25 L 78.5 3.05 L 78.1 3.45 C 77.8 3.75 77.2 4.25 76.8 4.75 L 77 4.75 A 3.2 3.2 0 0 0 76.863 4.896 C 76.673 5.111 76.603 5.26 76.6 5.344 A 0.158 0.158 0 0 0 76.6 5.35 C 76.516 5.434 76.29 5.944 75.981 6.76 A 42.258 42.258 0 0 0 75.8 7.25 L 75.6 7.25 L 74.8 9.35 L 74.9 9.35 L 73.4 12.75 L 72 15.75 C 71.402 17.012 70.716 18.627 69.883 20.477 A 117.508 117.508 0 0 1 68.5 23.45 A 256.296 256.296 0 0 0 68.475 23.505 C 67.29 26.173 66.595 27.859 65.9 29.15 L 65.1 31.05 C 64.25 32.845 63.489 33.658 62.733 33.658 A 1.067 1.067 0 0 1 62.6 33.65 A 1.315 1.315 0 0 1 61.725 33.135 C 61.305 32.63 60.982 31.757 60.733 30.517 A 17.183 17.183 0 0 1 60.7 30.35 L 58.6 17.15 A 29.804 29.804 0 0 0 58.43 16.167 C 58.18 14.873 57.906 14.131 57.5 14.05 A 0.579 0.579 0 0 0 57.152 14.32 C 56.846 14.765 56.623 15.736 56.4 17.15 L 54.4 30.35 A 13.484 13.484 0 0 1 54.153 31.426 C 53.805 32.68 53.342 33.406 52.724 33.603 A 1.156 1.156 0 0 1 52.5 33.65 C 51.6 33.75 50.8 32.95 50 31.05 L 49.2 29.15 C 48.65 28.129 48.039 26.862 47.269 25.058 A 106.683 106.683 0 0 1 46.6 23.45 C 45.1 20.35 44 17.65 43.1 15.75 L 41.7 12.75 C 40 9.05 38.6 5.65 38.5 5.35 C 38.409 4.985 37.651 4.037 36.988 3.57 A 2.382 2.382 0 0 0 36.8 3.45 L 36.4 3.05 L 34 1.15 L 32.7 0.15 C 32.489 0.009 32.278 -0.032 32.137 0.025 A 0.256 0.256 0 0 0 32 0.15 L 32.1 0.15 A 1.571 1.571 0 0 0 31.969 0.298 C 31.864 0.434 31.808 0.557 31.801 0.634 A 0.175 0.175 0 0 0 31.8 0.65 L 31.7 2.15 L 31.6 2.15 L 31.6 2.35 C 31.508 2.995 31.501 3.811 31.5 4.639 A 310.296 310.296 0 0 0 31.5 4.85 L 31.6 4.85 L 31.6 5.55 L 31.6 6.15 C 31.6 6.65 31.6 6.95 31.7 7.15 L 31.5 7.15 A 1.83 1.83 0 0 1 31.556 7.372 C 31.605 7.621 31.623 7.873 31.7 7.95 L 32.4 9.45 L 32.5 9.45 L 33.7 12.05 L 33.5 12.05 L 34.4 14.15 L 34.5 14.15 L 35.4 15.95 A 14.272 14.272 0 0 0 35.892 17.189 C 36.107 17.675 36.349 18.185 36.595 18.719 A 61.541 61.541 0 0 1 36.7 18.95 C 37.5 20.85 38.7 23.55 40.2 26.75 C 41.119 28.894 41.92 30.627 42.56 31.995 A 2629.656 2629.656 0 0 1 43.1 33.15 L 44.2 35.45 A 204.73 204.73 0 0 1 45.345 37.987 C 46.436 40.449 47.164 42.245 47.102 42.348 A 0.011 0.011 0 0 1 47.1 42.35 C 46.8 42.45 45.8 43.45 45.3 43.45 C 43.372 43.817 41.108 42.668 38.351 41.007 A 115.805 115.805 0 0 1 37.6 40.55 L 24 31.75 C 22.8 30.95 22 30.55 21.5 30.55 C 20.9 30.55 21.4 31.45 23 33.25 L 30.6 41.55 A 13.489 13.489 0 0 1 31.188 42.236 C 32.679 44.108 32.502 45.16 30.8 45.25 A 4.171 4.171 0 0 1 30.297 45.218 C 29.849 45.164 29.273 45.031 28.5 44.75 C 25.4 43.85 22.3 42.85 19.1 41.85 C 14.433 40.433 8.794 38.669 3.341 36.906 A 804.276 804.276 0 0 1 0.1 35.85 A 11.548 11.548 0 0 0 0.118 35.868 C 0.2 35.95 0.206 35.95 0.3 35.95 L 0.1 35.95 C 0.8 36.25 2.2 37.05 4.2 38.25 L 4.4 38.15 C 11.536 42.114 25.351 49.713 31.535 52.963 A 234.93 234.93 0 0 0 31.7 53.05 L 31.6 53.05 C 23.802 57.295 2.655 68.75 0.091 70.198 A 22.11 22.11 0 0 0 0 70.25 A 11.548 11.548 0 0 1 0.018 70.232 C 0.1 70.15 0.106 70.15 0.2 70.15 L 0.4 70.15 L 7.3 67.95 L 7.2 67.95 L 21.8 63.35 L 28.4 61.25 C 29.058 61.031 29.61 60.918 30.132 60.874 A 6.654 6.654 0 0 1 30.7 60.85 A 2.993 2.993 0 0 1 31.244 60.924 C 32.449 61.216 32.309 62.299 30.826 64.065 A 15.697 15.697 0 0 1 30.4 64.55 L 22.9 72.85 C 21.395 74.543 20.864 75.439 21.304 75.54 A 0.43 0.43 0 0 0 21.4 75.55 C 21.858 75.55 22.567 75.215 23.605 74.544 A 24.961 24.961 0 0 0 23.9 74.35 L 37.5 65.55 C 39.078 64.603 40.594 63.781 41.9 63.23 A 13.962 13.962 0 0 1 42.9 62.85 A 3.341 3.341 0 0 1 43.488 62.763 C 43.628 62.753 43.762 62.751 43.883 62.75 A 23.965 23.965 0 0 1 44 62.75 A 48.159 48.159 0 0 1 44.488 62.752 C 44.938 62.756 45.275 62.775 45.5 62.85 C 46.3 63.15 46.8 63.75 46.9 63.75 A 0.008 0.008 0 0 1 46.906 63.76 C 46.917 63.941 45.906 66.473 44.45 69.844 A 270.586 270.586 0 0 1 44.1 70.65 L 43 72.95 L 40.1 79.35 A 145.491 145.491 0 0 0 39.047 81.652 C 38.063 83.85 37.275 85.725 36.6 87.15 L 35.2 90.15 A 415.164 415.164 0 0 0 34.899 90.847 C 33.393 94.347 31.888 97.963 31.7 98.15 A 5.865 5.865 0 0 0 31.618 98.535 C 31.567 98.817 31.525 99.16 31.508 99.563 A 9.204 9.204 0 0 0 31.5 99.95 L 31.5 100.55 A 86.433 86.433 0 0 0 31.508 102.051 C 31.519 102.655 31.544 103.2 31.6 103.65 L 31.7 105.45 A 1.377 1.377 0 0 0 31.717 105.679 C 31.788 106.096 32.07 106.208 32.5 105.95 L 32.4 105.95 L 32.5 105.95 L 33.9 104.95 L 35.3 103.85 L 35.4 103.85 L 36.4 103.05 L 36.8 102.65 A 4.026 4.026 0 0 0 37.236 102.258 C 37.489 102.003 37.755 101.699 38.057 101.393 A 10.984 10.984 0 0 1 38.1 101.35 L 38 101.35 C 38.094 101.256 38.275 101.075 38.38 100.806 A 1.198 1.198 0 0 0 38.4 100.75 C 38.4 100.653 38.685 99.985 39.163 98.839 A 350.882 350.882 0 0 0 39.2 98.75 L 39.3 98.75 C 39.6 98.25 39.9 97.65 40.2 96.75 L 40.1 96.75 A 26.392 26.392 0 0 1 41.01 94.476 A 14.249 14.249 0 0 1 41.6 93.35 A 14.272 14.272 0 0 1 42.092 92.111 C 42.307 91.625 42.549 91.115 42.795 90.581 A 61.541 61.541 0 0 0 42.9 90.35 A 92.828 92.828 0 0 1 43.573 88.795 C 44.086 87.638 44.698 86.302 45.396 84.8 A 723.283 723.283 0 0 1 46.4 82.65 A 337.407 337.407 0 0 0 46.425 82.593 C 47.512 80.121 48.305 78.24 49 76.95 L 49.8 75.05 C 50.7 73.15 51.5 72.35 52.4 72.45 C 53.289 72.549 53.885 73.622 54.188 75.67 A 15.13 15.13 0 0 1 54.2 75.75 L 56.3 88.95 A 28.564 28.564 0 0 0 56.456 89.893 C 56.709 91.264 56.986 91.95 57.4 91.95 C 57.778 91.95 58.155 91.059 58.449 89.277 A 23.113 23.113 0 0 0 58.5 88.95 L 60.6 75.75 A 11.724 11.724 0 0 1 60.81 74.634 C 61.119 73.367 61.593 72.649 62.232 72.481 A 1.162 1.162 0 0 1 62.4 72.45 C 63.3 72.35 64.1 73.15 65 75.05 L 65.8 76.95 A 18.783 18.783 0 0 1 66.333 78.038 C 66.868 79.209 67.47 80.702 68.336 82.516 A 60.762 60.762 0 0 0 68.4 82.65 A 107.21 107.21 0 0 1 69.438 84.936 C 70.016 86.249 70.512 87.433 70.963 88.479 A 59.22 59.22 0 0 0 71.8 90.35 A 74.753 74.753 0 0 1 72.159 91.156 C 72.477 91.878 72.772 92.553 73.107 93.18 A 12.274 12.274 0 0 0 73.2 93.35 A 378.974 378.974 0 0 1 74.417 96.025 C 75.556 98.556 76.4 100.525 76.4 100.75 A 0.663 0.663 0 0 0 76.467 100.905 C 76.733 101.382 77.655 102.294 78.1 102.65 L 78.5 103.05 C 79.4 103.75 80.2 104.25 80.9 104.95 L 82.3 105.95 C 82.6 106.15 82.8 106.15 83 105.95 L 82.8 105.95 A 0.802 0.802 0 0 0 82.945 105.862 C 83.035 105.788 83.087 105.693 83.098 105.525 A 1.134 1.134 0 0 0 83.1 105.45 L 83.2 103.95 L 83.4 103.95 L 83.4 103.65 A 12.288 12.288 0 0 1 83.423 102.964 C 83.453 102.44 83.5 101.869 83.5 101.25 L 83.3 101.25 L 83.3 100.55 L 83.3 99.95 L 83.3 98.95 L 83.4 98.95 A 2.221 2.221 0 0 0 83.383 98.67 C 83.352 98.43 83.285 98.251 83.216 98.167 A 0.247 0.247 0 0 0 83.2 98.15 C 83.2 98.071 83.013 97.681 82.787 97.127 A 17.802 17.802 0 0 1 82.6 96.65 L 82.4 96.65 L 81.3 93.95 L 81.4 94.05 L 80.5 91.95 L 80.4 91.95 L 79.6 90.15 L 78.2 87.15 C 77.3 85.25 76.2 82.55 74.7 79.35 C 73.722 77.318 72.97 75.57 72.36 74.19 A 68.757 68.757 0 0 0 71.8 72.95 L 70.7 70.65 C 69.1 66.75 67.8 63.75 67.9 63.75 C 67.996 63.75 68.464 63.193 69.214 62.884 A 2.88 2.88 0 0 1 69.3 62.85 A 1.563 1.563 0 0 1 69.591 62.788 C 69.793 62.762 70.044 62.754 70.344 62.751 A 52.481 52.481 0 0 1 70.8 62.75 A 10.094 10.094 0 0 1 71.141 62.754 C 71.302 62.759 71.476 62.772 71.655 62.8 A 2.889 2.889 0 0 1 71.9 62.85 A 16.019 16.019 0 0 1 73.417 63.456 C 74.012 63.725 74.647 64.043 75.313 64.396 A 75.161 75.161 0 0 1 77.4 65.55 L 90.9 74.35 A 11.513 11.513 0 0 0 91.641 74.806 C 92.469 75.271 93.087 75.472 93.4 75.55 C 94.047 75.55 93.668 74.694 92.262 73.221 A 22.036 22.036 0 0 0 91.9 72.85 L 84.4 64.55 C 82.3 62.25 82.2 60.95 84.1 60.85 C 84.722 60.85 85.344 60.929 86.107 61.157 A 9.923 9.923 0 0 1 86.4 61.25 L 95.8 64.25 A 528.284 528.284 0 0 1 101.402 65.992 C 105.726 67.358 110.431 68.875 114.9 70.25 A 0.124 0.124 0 0 1 114.87 70.246 C 114.802 70.23 114.79 70.158 114.713 70.151 A 0.138 0.138 0 0 0 114.7 70.15 L 114.8 70.15 C 114.103 69.851 112.711 68.957 110.724 67.863 A 67.928 67.928 0 0 0 110.7 67.85 L 110.6 67.85 A 890.445 890.445 0 0 0 107.933 66.375 C 100.387 62.217 88.819 55.953 83.283 53.093 A 226.135 226.135 0 0 0 83.2 53.05 L 83.4 53.05 A 864.697 864.697 0 0 1 86.013 51.601 C 95.211 46.521 112.83 36.935 115 35.85 A 0.231 0.231 0 0 0 114.913 35.87 C 114.86 35.892 114.807 35.926 114.754 35.942 A 0.191 0.191 0 0 1 114.7 35.95 Z M 90 53.05 L 90 52.95 L 86.4 52.85 C 86.4 52.55 86.3 52.25 86.3 51.95 L 89.9 51.85 A 0.817 0.817 0 0 1 89.83 51.621 C 89.8 51.442 89.8 51.219 89.8 50.95 L 86.3 50.85 A 0.798 0.798 0 0 1 86.231 50.624 C 86.21 50.496 86.203 50.339 86.201 50.143 A 28.057 28.057 0 0 1 86.2 49.85 L 89.6 49.75 A 1.13 1.13 0 0 0 89.598 49.673 C 89.583 49.462 89.511 49.426 89.501 49.201 A 1.203 1.203 0 0 1 89.5 49.15 L 89.5 48.95 L 86 48.85 A 2.775 2.775 0 0 0 85.983 48.549 C 85.954 48.284 85.9 48.044 85.9 47.75 L 89.2 47.65 L 89.2 47.55 A 1.13 1.13 0 0 0 89.198 47.473 C 89.183 47.262 89.111 47.226 89.101 47.001 A 1.203 1.203 0 0 1 89.1 46.95 L 85.7 46.85 L 85.4 45.65 L 88.7 45.55 L 88.5 44.95 L 85.1 44.85 C 85 44.35 84.8 43.85 84.7 43.55 L 88 43.45 A 0.486 0.486 0 0 0 87.974 43.258 C 87.963 43.231 87.947 43.204 87.925 43.177 A 0.389 0.389 0 0 0 87.9 43.15 A 0.486 0.486 0 0 0 87.874 42.958 C 87.863 42.931 87.847 42.904 87.825 42.877 A 0.389 0.389 0 0 0 87.8 42.85 L 84.5 42.85 L 83.9 41.45 L 87.2 41.35 A 0.244 0.244 0 0 0 87.175 41.253 C 87.139 41.171 87.07 41.059 87 40.85 L 83.6 40.75 L 82.8 39.35 L 85.5 39.35 L 86.3 39.25 L 86 38.85 L 82.5 38.75 L 81.6 37.25 L 85.2 37.25 L 85.1 37.05 L 84.9 36.75 L 81.2 36.75 A 12.604 12.604 0 0 0 80.825 36.217 C 80.55 35.847 80.275 35.525 80 35.25 C 80.3 35.25 80.5 35.15 80.8 35.15 L 83.8 35.15 L 83.6 34.75 L 79.6 34.65 L 78.2 33.15 L 82.3 33.05 L 82 32.75 L 81.8 32.75 L 81.4 32.75 L 81.3 32.75 L 77.7 32.65 A 23.056 23.056 0 0 1 77.455 32.401 C 76.979 31.91 76.684 31.57 76.194 31.194 A 6.807 6.807 0 0 0 76 31.05 L 80.5 30.95 L 80.2 30.65 L 75.3 30.55 L 73.2 29.05 L 78.4 28.95 L 78 28.65 L 72.2 28.45 A 71.909 71.909 0 0 0 70.85 27.713 A 22.396 22.396 0 0 0 69.5 27.05 L 75.8 26.85 A 0.954 0.954 0 0 1 75.731 26.824 C 75.533 26.741 75.566 26.657 75.363 26.573 A 0.973 0.973 0 0 0 75.3 26.55 L 67.8 26.35 C 66.3 25.85 64.9 25.35 63.4 25.05 L 72.6 24.85 A 0.913 0.913 0 0 1 72.461 24.791 C 72.263 24.686 72.152 24.537 71.91 24.454 A 0.941 0.941 0 0 0 71.9 24.45 L 67.2 24.35 C 63.7 24.25 60.2 24.15 57.5 24.15 C 54.7 24.15 51.3 24.25 47.8 24.35 L 43.1 24.45 A 0.913 0.913 0 0 0 42.961 24.509 C 42.763 24.614 42.652 24.763 42.41 24.846 A 0.941 0.941 0 0 1 42.4 24.85 L 51.6 25.05 C 50.1 25.35 48.7 25.85 47.2 26.35 L 39.6 26.55 A 1.231 1.231 0 0 1 39.465 26.672 C 39.406 26.716 39.333 26.76 39.226 26.803 A 1.947 1.947 0 0 1 39.1 26.85 L 45.6 27.05 L 42.8 28.45 L 37 28.65 L 36.6 28.95 L 41.9 29.05 L 39.8 30.55 L 34.8 30.65 L 34.5 30.95 L 39.1 31.05 A 19.496 19.496 0 0 0 38.786 31.279 C 38.304 31.638 37.917 31.975 37.541 32.461 A 6.017 6.017 0 0 0 37.4 32.65 L 33.6 32.75 L 33.1 32.75 L 32.9 32.75 A 1.69 1.69 0 0 0 32.773 32.886 C 32.748 32.918 32.728 32.949 32.715 32.981 A 0.183 0.183 0 0 0 32.7 33.05 L 36.9 33.15 L 35.5 34.65 L 31.4 34.75 L 31.1 35.15 L 34.1 35.15 C 34.4 35.15 34.7 35.25 35 35.25 A 5.449 5.449 0 0 0 34.45 35.888 C 34.312 36.075 34.174 36.286 34.023 36.538 A 13.679 13.679 0 0 0 33.9 36.75 L 30.1 36.75 A 1.69 1.69 0 0 0 29.973 36.886 C 29.948 36.918 29.928 36.949 29.915 36.981 A 0.183 0.183 0 0 0 29.9 37.05 A 0.124 0.124 0 0 1 29.896 37.08 C 29.88 37.148 29.808 37.16 29.801 37.237 A 0.138 0.138 0 0 0 29.8 37.25 L 33.5 37.25 L 32.6 38.75 L 28.9 38.85 L 28.7 39.25 L 32.2 39.35 L 31.5 40.75 L 27.9 40.85 L 27.7 41.35 L 31.2 41.45 L 30.6 42.85 L 27.1 42.85 L 27 43.15 A 0.231 0.231 0 0 1 26.98 43.237 C 26.958 43.29 26.924 43.343 26.909 43.396 A 0.191 0.191 0 0 0 26.9 43.45 L 30.3 43.55 C 30.2 44.05 30 44.55 29.9 44.85 L 26.4 44.95 A 1.13 1.13 0 0 1 26.398 45.027 C 26.383 45.238 26.311 45.274 26.301 45.5 A 1.203 1.203 0 0 0 26.3 45.55 L 29.7 45.65 L 29.4 46.85 L 25.9 46.95 A 0.285 0.285 0 0 0 25.83 47.081 C 25.81 47.157 25.803 47.254 25.801 47.372 A 10.419 10.419 0 0 0 25.8 47.55 L 25.7 47.65 L 29.2 47.75 L 29 48.85 L 25.5 48.95 A 0.734 0.734 0 0 1 25.495 49.053 C 25.488 49.103 25.469 49.141 25.42 49.149 A 0.127 0.127 0 0 1 25.4 49.15 A 9.251 9.251 0 0 1 25.399 49.344 C 25.395 49.538 25.377 49.673 25.3 49.75 L 28.9 49.85 A 2.147 2.147 0 0 1 28.886 50.075 C 28.859 50.332 28.8 50.62 28.8 50.85 L 25.2 50.95 A 0.817 0.817 0 0 0 25.13 51.179 C 25.1 51.358 25.1 51.581 25.1 51.85 L 28.7 51.95 L 28.7 52.85 L 25 52.95 L 25 53.05 L 25 53.15 L 28.6 53.25 L 28.6 54.15 L 25.1 54.25 A 14.024 14.024 0 0 0 25.102 54.564 C 25.108 54.811 25.128 55.006 25.2 55.15 L 28.7 55.25 C 28.7 55.75 28.7 56.05 28.8 56.25 L 25.3 56.35 C 25.4 56.45 25.4 56.65 25.4 56.85 A 0.351 0.351 0 0 1 25.454 56.918 C 25.477 56.957 25.488 56.995 25.494 57.034 A 0.78 0.78 0 0 1 25.5 57.15 L 28.9 57.25 L 29.1 58.35 L 25.7 58.45 L 25.7 58.55 L 25.9 59.15 L 29.3 59.25 L 29.6 60.45 L 26.3 60.55 A 1.13 1.13 0 0 0 26.302 60.627 C 26.317 60.838 26.389 60.874 26.399 61.1 A 1.203 1.203 0 0 1 26.4 61.15 L 29.8 61.25 A 4.035 4.035 0 0 0 29.914 61.682 C 30.013 61.994 30.13 62.272 30.2 62.55 L 26.9 62.65 A 0.231 0.231 0 0 0 26.92 62.737 C 26.942 62.79 26.976 62.843 26.991 62.896 A 0.191 0.191 0 0 1 27 62.95 C 27.086 63.036 27.098 63.122 27.1 63.145 A 0.083 0.083 0 0 1 27.1 63.15 L 30.5 63.25 L 31.1 64.65 L 27.7 64.75 L 27.9 65.25 L 31.4 65.35 C 31.653 65.688 31.764 66.096 31.972 66.516 A 3.357 3.357 0 0 0 32.1 66.75 L 29.5 66.75 L 28.7 66.85 A 0.235 0.235 0 0 0 28.706 66.898 C 28.725 66.988 28.79 67.117 28.862 67.207 A 0.535 0.535 0 0 0 28.9 67.25 L 32.5 67.35 L 33.4 68.85 L 29.8 68.85 L 29.9 69.05 C 29.986 69.136 29.998 69.222 30 69.245 A 0.083 0.083 0 0 1 30 69.25 L 33.8 69.35 A 9.91 9.91 0 0 0 34.455 70.288 A 41.434 41.434 0 0 0 34.9 70.85 L 34.1 70.85 L 31.1 70.95 L 31.4 71.35 L 35.3 71.45 L 36.7 72.95 L 32.7 73.05 A 0.214 0.214 0 0 0 32.734 73.158 C 32.772 73.222 32.836 73.286 32.9 73.35 L 33.1 73.35 L 33.6 73.35 L 37.3 73.45 A 10.127 10.127 0 0 1 37.306 73.456 C 37.738 73.888 38.17 74.394 38.731 74.846 A 5.914 5.914 0 0 0 39 75.05 L 34.5 75.15 L 34.8 75.45 L 39.7 75.55 C 40.3 76.05 41 76.55 41.8 77.05 L 36.6 77.15 L 37 77.45 L 42.7 77.65 A 112.869 112.869 0 0 1 43.363 78.023 C 44.019 78.394 44.675 78.75 45.5 79.05 L 39.1 79.25 A 2.032 2.032 0 0 1 39.201 79.286 C 39.345 79.343 39.432 79.4 39.5 79.456 A 1.497 1.497 0 0 1 39.6 79.55 L 47.1 79.75 C 48.6 80.25 50 80.75 51.5 81.05 L 42.4 81.25 A 1.336 1.336 0 0 1 42.62 81.347 C 42.806 81.449 42.953 81.577 43.1 81.65 L 47.8 81.75 L 57.5 81.95 L 67.2 81.75 L 71.9 81.65 A 0.688 0.688 0 0 1 71.946 81.608 C 72.075 81.502 72.338 81.338 72.6 81.25 L 63.3 81.05 C 64.8 80.75 66.2 80.25 67.7 79.75 L 75.3 79.55 A 2.032 2.032 0 0 0 75.401 79.514 C 75.545 79.457 75.632 79.4 75.7 79.344 A 1.497 1.497 0 0 0 75.8 79.25 L 69.4 79.05 C 70.3 78.65 71.2 78.15 72.1 77.65 L 78 77.45 L 78.4 77.15 L 73.1 77.05 L 75.2 75.55 L 80.2 75.45 L 80.5 75.15 L 75.8 75.05 A 5.316 5.316 0 0 0 76.36 74.584 C 76.764 74.203 77.108 73.802 77.6 73.45 L 81.4 73.35 L 81.8 73.35 L 82 73.35 L 82.3 73.05 L 78.1 72.95 L 79.5 71.45 L 83.6 71.35 L 83.8 70.95 L 80.8 70.85 L 79.9 70.85 L 81.1 69.35 L 84.9 69.25 L 85.1 69.05 A 2.501 2.501 0 0 1 85.1 69.024 C 85.101 68.949 85.109 68.941 85.2 68.85 L 81.5 68.85 L 82.4 67.35 L 86 67.25 L 86.3 66.85 L 82.7 66.75 L 83.4 65.35 L 87 65.25 A 2.344 2.344 0 0 1 87.001 65.247 C 87.101 64.949 87.2 64.85 87.2 64.75 L 83.8 64.65 C 84.081 64.181 84.187 63.8 84.281 63.343 A 15.386 15.386 0 0 0 84.3 63.25 L 87.8 63.15 L 87.9 62.95 C 88 62.85 88 62.75 88 62.65 L 84.6 62.55 A 4.817 4.817 0 0 1 84.602 62.544 C 84.684 62.3 84.829 61.927 84.935 61.53 A 4.7 4.7 0 0 0 85 61.25 L 88.5 61.15 L 88.7 60.55 L 85.3 60.45 L 85.6 59.25 L 89.1 59.15 A 1.13 1.13 0 0 1 89.102 59.073 C 89.117 58.862 89.189 58.826 89.199 58.601 A 1.203 1.203 0 0 0 89.2 58.55 L 89.2 58.45 L 85.7 58.35 A 10.908 10.908 0 0 1 85.701 58.345 C 85.791 57.987 85.881 57.708 85.897 57.365 A 2.358 2.358 0 0 0 85.9 57.25 L 89.5 57.15 L 89.5 56.85 A 0.242 0.242 0 0 1 89.515 56.775 C 89.542 56.69 89.599 56.578 89.6 56.353 A 1.41 1.41 0 0 0 89.6 56.35 L 86.1 56.25 C 86.1 55.75 86.1 55.45 86.2 55.25 L 89.8 55.15 A 14.024 14.024 0 0 1 89.802 54.836 C 89.808 54.589 89.828 54.394 89.9 54.25 L 86.2 54.15 L 86.2 53.25 L 90 53.15 L 90 53.05 Z M 85.7 53.15 L 82.5 53.25 L 82.5 53.95 L 85.7 54.05 A 0.862 0.862 0 0 0 85.626 54.3 C 85.61 54.403 85.604 54.517 85.601 54.635 A 11.025 11.025 0 0 0 85.6 54.85 L 82.4 54.85 L 82.4 55.75 L 85.5 55.85 A 0.307 0.307 0 0 0 85.408 56.043 C 85.4 56.099 85.4 56.166 85.4 56.25 A 0.351 0.351 0 0 0 85.346 56.318 C 85.323 56.357 85.312 56.395 85.306 56.434 A 0.78 0.78 0 0 0 85.3 56.55 L 82.2 56.55 A 2.147 2.147 0 0 1 82.186 56.775 C 82.159 57.032 82.1 57.32 82.1 57.55 L 85.1 57.55 L 85.1 57.65 A 1.13 1.13 0 0 1 85.098 57.727 C 85.083 57.938 85.011 57.974 85.001 58.2 A 1.203 1.203 0 0 0 85 58.25 L 81.9 58.25 L 81.7 59.25 L 84.7 59.35 A 2.344 2.344 0 0 1 84.699 59.354 C 84.599 59.651 84.5 59.75 84.5 59.85 L 81.5 59.95 A 2.208 2.208 0 0 0 81.251 60.498 A 8.636 8.636 0 0 0 81.1 61.05 L 84.1 61.15 C 84.05 61.2 84.025 61.25 84.013 61.3 A 0.609 0.609 0 0 0 84 61.45 L 83.9 61.55 L 80.9 61.65 L 80.3 62.85 L 83.4 62.85 L 83.2 63.35 L 80.1 63.35 L 79.5 64.55 L 82.5 64.65 C 82.5 64.65 82.416 64.734 82.325 64.98 A 2.22 2.22 0 0 0 82.3 65.05 L 79.1 65.05 C 78.8 65.45 78.7 65.85 78.4 66.25 L 81.6 66.35 L 81.5 66.45 L 81.3 66.75 L 78 66.75 C 77.714 67.227 77.337 67.703 77.043 68.007 A 4.089 4.089 0 0 1 77 68.05 L 77.8 68.05 L 80.4 68.15 L 80.2 68.45 L 76.6 68.55 L 75.4 69.75 L 79.1 69.85 L 78.8 70.15 L 78.7 70.15 L 78.3 70.15 L 75 70.25 A 20.686 20.686 0 0 0 73.781 71.279 A 11.103 11.103 0 0 0 73.5 71.55 L 77.5 71.65 C 77.425 71.65 77.35 71.706 77.275 71.777 A 3.29 3.29 0 0 0 77.2 71.85 L 72.9 71.95 A 13.594 13.594 0 0 0 72.534 72.221 C 72.12 72.538 71.793 72.817 71.364 73.09 A 6.432 6.432 0 0 1 71.1 73.25 L 75.7 73.35 C 75.422 73.443 75.316 73.535 75.302 73.548 A 0.071 0.071 0 0 0 75.3 73.55 L 70.2 73.75 L 67.8 74.95 L 73.4 75.05 L 73 75.35 L 66.4 75.45 A 22.066 22.066 0 0 1 65.453 75.791 C 64.525 76.1 63.625 76.325 62.5 76.55 L 70.6 76.75 L 70 77.05 L 65.9 77.15 C 62.8 77.25 59.9 77.35 57.5 77.35 C 55.475 77.35 53.023 77.279 50.444 77.197 A 4278.17 4278.17 0 0 1 49 77.15 L 44.9 77.05 L 44.3 76.75 L 52.3 76.55 A 16.426 16.426 0 0 1 50.198 76.04 A 26.076 26.076 0 0 1 48.5 75.45 L 41.9 75.35 L 41.5 75.05 L 47 74.95 L 44.6 73.75 L 39.6 73.55 L 39.6 73.65 L 39.3 73.35 L 43.8 73.25 C 43.142 72.874 42.75 72.498 42.124 72.04 A 12.281 12.281 0 0 0 42 71.95 L 37.7 71.85 L 37.5 71.65 L 41.4 71.55 L 39.9 70.25 L 36.7 70.15 L 36.3 70.15 L 36.1 70.15 A 2.214 2.214 0 0 1 35.997 70.042 C 35.965 70.006 35.938 69.969 35.921 69.933 A 0.193 0.193 0 0 1 35.9 69.85 L 39.4 69.75 L 38.2 68.45 L 34.8 68.45 L 34.5 68.15 L 37.2 68.05 L 37.8 68.05 L 36.8 66.75 L 33.6 66.75 C 33.514 66.664 33.502 66.578 33.5 66.555 A 0.083 0.083 0 0 1 33.5 66.55 L 33.4 66.35 L 36.5 66.25 L 35.7 65.05 L 32.6 65.05 C 32.507 64.772 32.415 64.666 32.402 64.652 A 0.071 0.071 0 0 0 32.4 64.65 L 33.1 64.65 L 35.4 64.55 L 34.8 63.35 L 31.7 63.35 A 1.156 1.156 0 0 0 31.698 63.285 C 31.686 63.06 31.607 63.043 31.6 62.961 A 0.14 0.14 0 0 1 31.6 62.95 L 31.6 62.85 L 34.5 62.85 C 34.247 62.513 34.279 62.175 34.114 61.838 A 1.145 1.145 0 0 0 34 61.65 L 31 61.55 L 31 61.35 A 11.548 11.548 0 0 1 30.982 61.332 C 30.901 61.251 30.9 61.244 30.9 61.155 A 12.41 12.41 0 0 1 30.9 61.15 L 33.8 61.05 A 2.208 2.208 0 0 1 33.551 60.502 A 8.636 8.636 0 0 1 33.4 59.95 L 30.5 59.85 C 30.41 59.76 30.401 59.671 30.328 59.437 A 4.791 4.791 0 0 0 30.3 59.35 L 33.2 59.25 L 32.9 58.25 L 30 58.25 A 0.285 0.285 0 0 1 29.93 58.119 C 29.91 58.043 29.903 57.946 29.901 57.828 A 10.419 10.419 0 0 1 29.9 57.65 L 29.8 57.55 L 32.8 57.55 L 32.6 56.55 L 29.6 56.55 L 29.6 56.25 A 0.253 0.253 0 0 0 29.595 56.203 C 29.577 56.109 29.517 55.974 29.503 55.885 A 0.224 0.224 0 0 1 29.5 55.85 L 32.5 55.75 C 32.5 55.45 32.4 55.15 32.4 54.85 L 29.4 54.85 A 0.862 0.862 0 0 1 29.326 54.6 C 29.31 54.497 29.304 54.383 29.301 54.265 A 11.025 11.025 0 0 1 29.3 54.05 L 32.4 53.95 A 0.25 0.25 0 0 1 32.344 53.844 C 32.31 53.732 32.302 53.559 32.3 53.345 A 24.86 24.86 0 0 1 32.3 53.15 L 29.2 53.15 L 29.2 53.05 L 29.2 52.95 L 32.4 52.85 A 6.084 6.084 0 0 1 32.406 52.504 C 32.414 52.375 32.431 52.264 32.468 52.194 A 0.186 0.186 0 0 1 32.5 52.15 L 29.3 52.05 C 29.3 51.785 29.3 51.521 29.369 51.325 A 0.64 0.64 0 0 1 29.4 51.25 L 32.5 51.25 C 32.5 50.95 32.6 50.65 32.6 50.35 L 29.5 50.25 A 0.253 0.253 0 0 1 29.505 50.203 C 29.523 50.109 29.583 49.974 29.597 49.885 A 0.224 0.224 0 0 0 29.6 49.85 L 29.6 49.55 L 32.7 49.55 L 32.9 48.55 L 29.8 48.55 L 29.9 48.45 A 9.251 9.251 0 0 1 29.901 48.256 C 29.905 48.062 29.923 47.927 30 47.85 L 33 47.85 L 33.3 46.85 L 30.3 46.75 A 4.776 4.776 0 0 0 30.326 46.671 C 30.375 46.514 30.396 46.421 30.429 46.35 A 0.347 0.347 0 0 1 30.5 46.25 L 33.5 46.15 A 5.955 5.955 0 0 1 33.725 45.391 A 1.86 1.86 0 0 1 33.9 45.05 L 30.9 44.95 A 0.486 0.486 0 0 1 30.926 44.758 C 30.937 44.731 30.953 44.704 30.975 44.677 A 0.389 0.389 0 0 1 31 44.65 L 31 44.55 L 34.1 44.45 C 34.353 44.113 34.321 43.775 34.486 43.438 A 1.145 1.145 0 0 1 34.6 43.25 L 31.6 43.25 A 1.07 1.07 0 0 1 31.602 43.187 C 31.615 42.971 31.694 43.023 31.7 42.777 A 1.227 1.227 0 0 0 31.7 42.75 L 34.9 42.75 L 35.5 41.55 L 32.4 41.45 C 32.4 41.45 32.484 41.366 32.575 41.12 A 2.22 2.22 0 0 0 32.6 41.05 L 35.8 41.05 L 36.6 39.75 L 33.4 39.75 A 2.501 2.501 0 0 1 33.4 39.724 C 33.401 39.649 33.409 39.641 33.5 39.55 A 11.548 11.548 0 0 0 33.518 39.532 C 33.599 39.451 33.6 39.444 33.6 39.355 A 12.41 12.41 0 0 0 33.6 39.35 L 36.9 39.35 L 37.9 38.05 L 37.2 38.05 L 34.5 37.95 L 34.8 37.65 L 38.3 37.55 L 39.5 36.35 L 35.9 36.25 C 35.9 36.175 35.956 36.1 36.027 36.025 A 3.29 3.29 0 0 1 36.1 35.95 L 36.3 35.95 L 36.7 35.95 L 40 35.85 L 41.5 34.55 L 37.5 34.45 L 37.7 34.25 L 42.1 34.15 A 13.594 13.594 0 0 0 42.466 33.879 C 42.88 33.562 43.207 33.283 43.636 33.01 A 6.432 6.432 0 0 1 43.9 32.85 L 39.3 32.75 L 39.6 32.45 L 44.7 32.35 L 47.1 31.15 L 41.5 31.05 L 41.9 30.75 L 48.6 30.65 C 49.9 30.15 51.2 29.75 52.4 29.55 L 44.3 29.35 L 44.9 29.05 L 49 28.95 C 52.1 28.85 55.1 28.75 57.5 28.75 C 59.525 28.75 61.906 28.821 64.463 28.904 A 24266.742 24266.742 0 0 1 65.9 28.95 L 70 29.05 L 70.6 29.35 L 62.6 29.55 A 18.491 18.491 0 0 1 66.241 30.552 A 30.021 30.021 0 0 1 66.5 30.65 L 73 30.75 L 73.4 31.05 L 67.9 31.15 L 70.3 32.35 L 75.3 32.45 L 75.7 32.75 L 71.2 32.85 C 71.858 33.226 72.25 33.602 72.876 34.06 A 12.281 12.281 0 0 0 73 34.15 L 77.2 34.25 L 77.5 34.45 L 73.6 34.55 L 75.1 35.85 L 78.3 35.95 L 78.7 35.95 L 78.8 35.95 L 79.1 36.25 L 75.5 36.35 L 76.7 37.55 L 80.2 37.65 L 80.4 37.95 L 77.8 38.05 L 77.1 38.05 A 7.808 7.808 0 0 0 77.341 38.352 C 77.594 38.656 77.875 38.975 78.1 39.35 L 81.3 39.35 L 81.5 39.55 L 81.6 39.75 L 78.5 39.75 C 78.8 40.15 78.9 40.65 79.2 41.05 L 82.3 41.05 C 82.393 41.328 82.485 41.434 82.498 41.448 A 0.071 0.071 0 0 0 82.5 41.45 L 81.9 41.45 L 79.6 41.55 L 80.2 42.75 L 83.2 42.75 C 83.293 43.028 83.385 43.134 83.398 43.148 A 0.071 0.071 0 0 0 83.4 43.15 L 83.4 43.25 L 80.4 43.25 L 81 44.45 L 83.9 44.55 A 11.548 11.548 0 0 1 83.918 44.568 C 83.999 44.649 84 44.656 84 44.746 A 12.41 12.41 0 0 1 84 44.75 A 0.124 0.124 0 0 0 84.004 44.78 C 84.02 44.848 84.092 44.86 84.099 44.937 A 0.138 0.138 0 0 1 84.1 44.95 L 81.2 45.05 A 5.955 5.955 0 0 0 81.425 45.809 A 1.86 1.86 0 0 0 81.6 46.15 L 84.5 46.25 A 0.244 0.244 0 0 0 84.525 46.347 C 84.561 46.43 84.63 46.541 84.7 46.75 L 81.8 46.85 L 82 47.85 L 85 47.85 A 1.13 1.13 0 0 0 85.002 47.927 C 85.017 48.138 85.089 48.174 85.099 48.4 A 1.203 1.203 0 0 1 85.1 48.45 L 85.1 48.55 L 82.2 48.55 A 2.324 2.324 0 0 0 82.232 48.893 C 82.261 49.089 82.3 49.3 82.3 49.55 L 85.3 49.55 A 0.609 0.609 0 0 0 85.313 49.7 C 85.323 49.742 85.342 49.784 85.378 49.827 A 0.394 0.394 0 0 0 85.4 49.85 C 85.4 49.935 85.4 50.001 85.408 50.057 A 0.307 0.307 0 0 0 85.5 50.25 L 82.5 50.35 L 82.5 51.25 L 85.6 51.25 C 85.6 51.515 85.6 51.779 85.669 51.975 A 0.64 0.64 0 0 0 85.7 52.05 L 82.6 52.15 L 82.6 52.85 L 85.7 52.95 A 1.701 1.701 0 0 1 85.733 52.95 C 85.797 52.952 85.8 52.962 85.8 53.038 A 6.453 6.453 0 0 1 85.8 53.05 L 85.7 53.15 Z M 72.3 53.05 C 71 54.75 69.6 56.35 68 57.65 A 22.443 22.443 0 0 1 63.024 60.932 A 13.089 13.089 0 0 1 57.5 62.25 C 53.4 62.25 49.7 59.95 47 57.65 C 45.4 56.35 43.9 54.75 42.6 53.05 C 43.9 51.35 45.4 49.75 47 48.45 A 22.443 22.443 0 0 1 51.976 45.168 A 13.089 13.089 0 0 1 57.5 43.85 C 61.6 43.85 65.3 46.15 68 48.45 C 69.6 49.75 71 51.35 72.3 53.05 Z M 57.5 83.05 L 46.7 83.25 C 47.2 83.55 47.7 83.45 48.2 83.75 L 57.5 83.95 L 66.8 83.75 A 1.604 1.604 0 0 1 67.126 83.602 C 67.486 83.484 67.835 83.484 68.133 83.296 A 0.991 0.991 0 0 0 68.2 83.25 L 57.5 83.05 Z M 48.2 22.35 L 57.5 22.15 L 66.8 22.35 A 7.382 7.382 0 0 1 67.286 22.461 C 67.585 22.542 67.871 22.653 68.2 22.85 L 57.5 23.05 L 46.7 22.85 A 8.094 8.094 0 0 1 47.159 22.669 C 47.554 22.528 47.864 22.452 48.089 22.385 A 3.522 3.522 0 0 0 48.2 22.35 Z M 65.5 53.05 C 64.7 52.15 63.9 51.25 63.1 50.55 C 61.6 49.35 59.8 48.05 57.5 48.05 A 7.287 7.287 0 0 0 53.9 49.09 C 53.129 49.525 52.429 50.046 51.8 50.55 C 50.9 51.25 50.1 52.15 49.4 53.05 C 50.1 53.95 50.9 54.85 51.8 55.55 A 10.409 10.409 0 0 0 55.557 57.762 A 6.762 6.762 0 0 0 57.5 58.05 A 6.846 6.846 0 0 0 60.6 57.288 A 12.218 12.218 0 0 0 63.1 55.55 C 63.9 54.85 64.7 53.95 65.5 53.05 Z M 33.9 17.25 L 33.3 15.95 C 28.2 19.35 23.8 23.75 20.3 29.05 A 1.919 1.919 0 0 1 20.751 28.837 C 20.969 28.763 21.219 28.706 21.5 28.65 A 0.609 0.609 0 0 1 21.65 28.663 C 21.692 28.673 21.734 28.693 21.777 28.728 A 0.394 0.394 0 0 1 21.8 28.75 A 2.39 2.39 0 0 1 22.063 28.759 C 22.119 28.766 22.172 28.777 22.216 28.796 A 0.259 0.259 0 0 1 22.3 28.85 C 25.4 24.15 29.2 20.35 33.9 17.25 Z M 53.9 96.15 L 53.7 96.15 L 53.7 96.55 L 53.8 96.65 L 53.9 96.65 A 47.311 47.311 0 0 0 57.704 96.805 A 41.877 41.877 0 0 0 71.7 94.45 L 71.5 94.15 L 71.3 93.55 A 42.173 42.173 0 0 1 56.632 96.243 A 40.381 40.381 0 0 1 53.9 96.15 Z M 66.8 27.65 L 57.5 27.85 L 48.1 27.65 A 4.817 4.817 0 0 0 48.106 27.648 C 48.35 27.566 48.723 27.421 49.12 27.316 A 4.7 4.7 0 0 1 49.4 27.25 L 57.5 27.05 L 65.6 27.25 C 65.999 27.33 66.334 27.473 66.606 27.579 A 4.31 4.31 0 0 0 66.8 27.65 Z M 48.1 78.45 L 57.5 78.25 L 66.8 78.45 C 66.5 78.55 66.1 78.75 65.6 78.85 L 57.5 79.05 L 49.4 78.85 A 4.035 4.035 0 0 1 48.968 78.736 C 48.656 78.637 48.378 78.52 48.1 78.45 Z M 15.4 46.25 L 14 45.55 A 46.988 46.988 0 0 0 13.362 53.071 A 38.385 38.385 0 0 0 13.5 56.35 C 13.6 57.65 13.8 59.05 14.1 60.45 A 4.432 4.432 0 0 1 14.669 60.1 C 14.934 59.958 15.217 59.82 15.5 59.65 C 15.2 58.55 15.1 57.35 15 56.15 C 14.821 53.024 14.882 50.057 15.253 47.25 A 35.588 35.588 0 0 1 15.4 46.25 Z M 100.9 60.55 L 100.9 60.15 A 47.649 47.649 0 0 0 101.538 52.552 A 38.692 38.692 0 0 0 101.4 49.25 C 101.311 48.188 101.301 47.047 101.092 46.036 A 6.395 6.395 0 0 0 101 45.65 A 5.844 5.844 0 0 0 100.741 45.744 C 100.495 45.839 100.19 45.974 99.875 46.149 A 6.172 6.172 0 0 0 99.7 46.25 A 8.738 8.738 0 0 1 99.856 46.923 C 100.005 47.708 100.021 48.386 100.1 49.25 A 36.257 36.257 0 0 1 100.238 52.44 C 100.238 54.462 100.079 56.529 99.78 58.659 A 55.86 55.86 0 0 1 99.6 59.85 A 2.785 2.785 0 0 0 100.017 60.105 C 100.287 60.242 100.572 60.353 100.9 60.55 Z M 85.1 18.45 L 84.7 18.15 L 84.7 18.65 L 84.7 19.35 L 84.7 19.45 L 84.8 19.55 A 36.925 36.925 0 0 1 89.219 24.098 A 35.039 35.039 0 0 1 89.5 24.45 C 90.719 25.856 91.762 27.263 92.629 28.504 A 71.512 71.512 0 0 1 92.8 28.75 L 93.3 28.75 C 93.4 28.65 93.5 28.65 93.6 28.65 A 1.802 1.802 0 0 0 93.73 28.677 C 94.047 28.732 94.234 28.684 94.5 28.95 C 92 24.95 88.8 21.45 85.1 18.45 Z M 26 75.15 L 29.4 79.55 C 31.3 81.55 33.3 83.25 35.6 84.85 A 4.277 4.277 0 0 0 35.786 84.506 C 35.909 84.251 35.982 84.036 36.043 83.882 A 1.681 1.681 0 0 1 36.1 83.75 C 34.1 82.25 32.1 80.65 30.4 78.75 A 25.567 25.567 0 0 1 28.138 76.129 A 40.831 40.831 0 0 1 27 74.55 L 26 75.15 Z M 85.2 85.15 L 85.4 86.85 L 85.8 86.55 C 89 83.85 91.8 80.75 94.1 77.35 A 9.251 9.251 0 0 0 93.906 77.351 C 93.712 77.356 93.577 77.373 93.5 77.45 A 3.185 3.185 0 0 1 93.458 77.45 C 93.368 77.449 93.236 77.441 93.145 77.385 A 0.239 0.239 0 0 1 93.1 77.35 A 9.251 9.251 0 0 1 92.906 77.349 C 92.712 77.345 92.577 77.327 92.5 77.25 C 90.4 80.05 88 82.75 85.3 85.05 L 85.2 85.15 Z M 79.3 21.35 L 78.8 22.35 A 25.577 25.577 0 0 1 85.367 28.947 A 27.24 27.24 0 0 1 86.5 30.75 L 86.6 30.85 L 86.7 30.85 L 86.8 30.85 C 87.028 30.85 87.141 30.908 87.226 30.936 A 0.24 0.24 0 0 0 87.3 30.95 L 87.8 30.95 L 87.6 30.55 C 85.5 26.95 82.7 23.85 79.3 21.35 Z M 62 90.15 L 61.4 90.25 L 60.1 90.25 C 60.1 90.55 60 90.85 59.9 91.25 A 1.759 1.759 0 0 1 60.262 91.176 C 60.5 91.15 60.78 91.15 61.1 91.15 L 61.4 91.25 L 61.4 91.05 L 61.8 91.05 L 62.3 90.95 C 64.7 90.65 67.1 90.05 69.4 89.35 L 69.1 88.75 C 66.6 89.45 64.3 89.95 62 90.15 Z M 20.4 55.25 L 20.4 54.95 C 20.3 52.95 20.2 50.95 20.5 49.05 A 3.245 3.245 0 0 0 20.234 48.869 C 20.131 48.807 20.034 48.757 19.942 48.716 A 4.445 4.445 0 0 0 19.5 48.55 C 19.1 51.15 19 53.85 19.2 56.55 C 19.2 56.95 19.3 57.25 19.3 57.55 A 1.956 1.956 0 0 1 19.866 57.278 C 20.118 57.193 20.375 57.119 20.6 56.95 A 0.231 0.231 0 0 0 20.58 56.863 C 20.558 56.81 20.524 56.757 20.509 56.704 A 0.191 0.191 0 0 1 20.5 56.65 C 20.5 56.18 20.5 55.845 20.47 55.585 A 1.662 1.662 0 0 0 20.4 55.25 Z M 98 39.25 L 99.3 38.85 A 64.836 64.836 0 0 0 96.491 32.419 A 47.794 47.794 0 0 0 95.6 30.75 C 95.6 31.25 95.4 31.75 95.1 32.45 A 47.669 47.669 0 0 1 97.259 37.161 A 34.965 34.965 0 0 1 98 39.25 Z M 97.8 66.85 C 97 69.15 96 71.35 94.8 73.45 C 95.1 73.95 95.4 74.55 95.5 75.05 C 97 72.55 98.2 69.95 99.1 67.25 C 98.7 66.95 98.2 66.95 97.8 66.85 Z M 19.1 74.35 L 19.3 74.75 L 19.5 74.35 L 19.6 74.25 A 0.231 0.231 0 0 1 19.62 74.163 C 19.642 74.11 19.676 74.057 19.691 74.004 A 0.191 0.191 0 0 0 19.7 73.95 A 1.908 1.908 0 0 1 19.752 73.812 C 19.834 73.616 19.917 73.533 20 73.45 L 20.1 73.15 L 20.1 72.95 C 19 70.95 18 68.85 17.3 66.75 L 15.8 67.15 C 16.7 69.65 17.8 72.05 19.1 74.35 Z M 64.9 9.35 L 64.7 9.25 L 64.6 9.75 L 64.7 9.85 L 64.8 9.85 C 67.3 10.25 69.6 10.85 71.8 11.75 A 5.281 5.281 0 0 1 71.802 11.745 C 71.896 11.464 71.989 11.271 71.999 11.167 A 0.181 0.181 0 0 0 72 11.15 C 69.7 10.35 67.4 9.75 64.9 9.35 Z M 18.7 35.05 L 18.7 34.95 L 18.6 34.95 L 18.7 34.95 L 18.4 33.45 L 18.2 32.65 L 17.9 33.35 A 28.782 28.782 0 0 0 15.989 37.927 A 39.856 39.856 0 0 0 15.7 38.85 L 17.1 39.25 C 17.6 37.75 18 36.45 18.7 35.15 L 18.7 35.05 Z M 36.8 23.45 L 36.3 22.35 C 34.459 23.513 33.182 24.675 31.74 26.11 A 87.174 87.174 0 0 0 31.6 26.25 L 31.2 26.65 L 31.7 26.75 A 1.07 1.07 0 0 1 31.763 26.752 C 31.979 26.765 31.927 26.844 32.173 26.85 A 1.227 1.227 0 0 0 32.2 26.85 L 32.5 26.95 L 32.6 26.85 L 33 26.45 L 33.3 26.25 A 19.872 19.872 0 0 1 35.958 23.989 A 12.688 12.688 0 0 1 36.8 23.45 Z M 51 90.85 L 50.7 90.35 A 0.244 0.244 0 0 0 50.675 90.253 C 50.639 90.171 50.57 90.059 50.5 89.85 L 50.3 89.55 L 50.2 89.55 C 48.7 89.25 47.3 88.95 45.8 88.45 L 45.3 89.55 C 47 90.05 48.8 90.45 50.5 90.75 L 51 90.85 Z M 32 27.45 L 31.4 27.45 L 30.6 27.45 L 30.5 27.45 L 30.5 27.55 A 21.09 21.09 0 0 0 29.311 28.977 C 29.013 29.369 28.749 29.749 28.523 30.107 A 11.315 11.315 0 0 0 28.2 30.65 L 28.1 30.65 L 28.1 30.75 L 28.2 30.95 L 28.2 31.25 L 28.4 31.85 L 28.7 31.35 A 23.977 23.977 0 0 1 30.999 28.373 A 17.681 17.681 0 0 1 31.5 27.85 L 32 27.45 Z M 94.6 54.95 L 94.6 54.85 C 94.5 53.55 94.5 52.25 94.2 50.95 L 94.1 50.85 L 94 50.75 L 93.7 50.55 L 93.2 50.25 L 93.3 50.85 A 24.93 24.93 0 0 1 93.539 54.144 A 18.12 18.12 0 0 1 93.5 55.35 L 93.5 55.95 L 94 55.55 L 94.5 54.95 L 94.6 54.95 Z M 22.9 70.05 L 23.8 69.05 A 63.456 63.456 0 0 0 23.278 67.75 A 30.927 30.927 0 0 1 22.3 65.15 L 21.1 65.55 C 21.6 67.05 22.2 68.55 22.9 70.05 Z M 65.8 16.15 L 64.9 16.05 L 65.5 16.65 L 66 17.05 L 66.3 17.35 L 66.4 17.35 C 67.215 17.622 67.948 17.565 68.747 17.775 A 4.034 4.034 0 0 1 69 17.85 L 69.5 16.85 C 68.3 16.55 67 16.45 65.8 16.15 Z M 91.7 64.85 L 90.4 68.05 L 90.2 68.25 L 90.4 68.35 L 90.5 68.45 L 90.7 68.45 L 90.8 68.45 A 0.104 0.104 0 0 1 90.819 68.452 C 90.887 68.464 90.824 68.548 91.092 68.55 A 1.305 1.305 0 0 0 91.1 68.55 L 91.3 68.65 L 91.4 68.45 C 91.9 67.35 92.4 66.35 92.8 65.25 A 5.955 5.955 0 0 1 92.041 65.025 A 1.86 1.86 0 0 1 91.7 64.85 Z M 82.1 87.65 L 80.8 88.45 C 80.9 88.75 81 89.05 81.2 89.15 L 81.3 89.35 L 81.4 89.75 L 82.9 88.75 L 83 88.65 L 83 88.55 L 83 87.25 L 83 86.75 L 82.6 87.05 C 82.514 87.136 82.428 87.148 82.405 87.15 A 0.083 0.083 0 0 1 82.4 87.15 L 82.3 87.25 L 82.2 87.35 L 82.1 87.45 L 82.1 87.55 L 82.1 87.65 Z M 57.179 21.149 A 25.136 25.136 0 0 0 57.5 21.15 A 9.058 9.058 0 0 0 57.78 21.147 C 57.994 21.141 58.223 21.119 58.5 21.05 A 26.533 26.533 0 0 0 58.582 21.05 C 58.661 21.05 58.733 21.049 58.801 21.045 A 0.981 0.981 0 0 0 59.2 20.95 C 58.1 20.85 56.9 20.85 55.7 20.95 A 0.855 0.855 0 0 0 55.953 21.03 C 56.027 21.041 56.105 21.046 56.192 21.048 A 8.74 8.74 0 0 0 56.4 21.05 A 1.861 1.861 0 0 0 56.859 21.136 C 56.956 21.144 57.062 21.147 57.179 21.149 Z M 57.843 84.982 A 2.324 2.324 0 0 0 57.5 84.95 A 1.401 1.401 0 0 0 57.482 84.95 C 57.184 84.954 56.792 85.05 56.4 85.05 A 2.066 2.066 0 0 1 56.214 85.103 C 56.011 85.15 55.856 85.15 55.7 85.15 C 56.375 85.206 57.05 85.231 57.707 85.224 A 18.755 18.755 0 0 0 59.2 85.15 A 2.811 2.811 0 0 1 58.902 85.139 C 58.838 85.133 58.77 85.122 58.696 85.105 A 2.053 2.053 0 0 1 58.5 85.05 C 58.25 85.05 58.039 85.011 57.843 84.982 Z M 59 26.05 L 55.9 26.05 A 0.285 0.285 0 0 0 56.031 26.12 C 56.107 26.14 56.204 26.147 56.322 26.149 A 10.419 10.419 0 0 0 56.5 26.15 C 56.753 26.234 57.077 26.248 57.353 26.25 A 19.46 19.46 0 0 0 57.5 26.25 A 2.937 2.937 0 0 0 58.344 26.168 A 1.603 1.603 0 0 0 58.4 26.15 A 1.514 1.514 0 0 0 58.887 26.096 A 0.839 0.839 0 0 0 59 26.05 Z M 55.9 80.05 L 59 80.05 A 1.514 1.514 0 0 1 58.513 79.996 A 0.839 0.839 0 0 1 58.4 79.95 C 58.1 79.95 57.8 79.85 57.5 79.85 A 2.147 2.147 0 0 0 57.275 79.864 C 57.018 79.891 56.73 79.95 56.5 79.95 C 56.24 80.037 56.055 80.048 55.945 80.05 A 3.126 3.126 0 0 1 55.9 80.05 Z M 54 91.25 L 54.9 91.25 A 10.406 10.406 0 0 0 54.898 91.241 C 54.811 90.895 54.725 90.623 54.704 90.361 A 1.451 1.451 0 0 1 54.7 90.25 L 54.4 90.25 L 54.4 90.15 L 54.2 90.15 A 11.548 11.548 0 0 0 54.182 90.132 C 54.1 90.05 54.094 90.05 54 90.05 L 53.3 89.95 L 53.5 90.45 L 53.8 91.05 L 53.9 91.25 L 54 91.25 Z M 94.6 56.05 L 94.2 56.25 L 93.7 56.45 L 93.6 56.55 A 0.861 0.861 0 0 0 93.73 56.657 C 93.987 56.829 94.243 56.793 94.5 57.05 A 0.285 0.285 0 0 0 94.57 56.919 C 94.59 56.843 94.597 56.746 94.599 56.628 A 10.419 10.419 0 0 0 94.6 56.45 L 94.6 56.05 Z"/></g></svg>