<?xml version="1.0" standalone="no"?>
<!DOCTYPE svg PUBLIC "-//W3C//DTD SVG 20010904//EN"
 "http://www.w3.org/TR/2001/REC-SVG-20010904/DTD/svg10.dtd">
<svg version="1.0" xmlns="http://www.w3.org/2000/svg"
 width="900.000000pt" height="900.000000pt" viewBox="0 0 900.000000 900.000000"
 preserveAspectRatio="xMidYMid meet">
<metadata>
Created by potrace 1.10, written by Peter Selinger 2001-2011
</metadata>
<g transform="translate(0.000000,900.000000) scale(0.100000,-0.100000)"
fill="#000000" stroke="none">
<path d="M2478 6681 c-32 -29 -33 -31 -33 -114 1 -91 4 -102 83 -267 93 -195
273 -461 524 -777 49 -62 88 -116 86 -120 -1 -5 -23 -38 -48 -75 -48 -73 -47
-72 -163 -84 -43 -4 -71 -11 -74 -20 -3 -8 11 -35 30 -61 58 -81 68 -106 55
-144 -29 -89 -42 -102 -124 -130 -109 -37 -112 -45 -36 -114 l62 -57 0 -79 c0
-66 -3 -80 -19 -88 -40 -22 -709 43 -956 93 -144 29 -215 57 -215 85 0 36 291
141 500 181 25 4 58 13 73 19 16 6 40 11 54 11 14 0 39 6 56 14 18 8 45 17 61
21 15 3 26 9 22 12 -9 9 -350 -17 -435 -33 -40 -8 -85 -14 -99 -14 -24 0 -68
-11 -200 -51 -144 -44 -192 -88 -192 -176 0 -52 3 -59 40 -95 40 -38 212 -128
245 -128 9 0 25 -5 36 -11 71 -37 459 -114 779 -153 263 -32 653 -72 774 -79
37 -2 40 -4 53 -47 46 -148 59 -183 98 -257 94 -179 247 -341 410 -434 175
-101 360 -152 550 -152 283 0 559 112 758 308 45 45 137 157 164 200 41 66
105 212 124 285 12 47 24 87 26 90 3 3 43 8 91 11 486 37 1022 108 1282 169
276 66 419 121 495 191 44 41 45 43 45 105 0 58 -3 66 -33 96 -88 87 -398 154
-802 173 -87 4 -103 2 -75 -6 19 -6 50 -17 68 -25 18 -8 45 -14 59 -14 14 0
50 -7 80 -15 29 -8 77 -21 106 -29 182 -48 324 -93 379 -120 64 -32 85 -61 51
-72 -10 -3 -25 -9 -33 -13 -26 -14 -122 -39 -211 -55 -273 -50 -880 -106 -921
-84 -15 7 -18 23 -18 87 l0 78 64 57 c40 35 63 63 60 71 -3 8 -44 26 -90 41
-79 25 -86 29 -106 68 -36 70 -30 120 25 199 26 38 45 72 42 77 -3 5 -43 11
-90 15 -90 8 -127 25 -146 69 -5 11 -20 37 -33 57 l-24 35 32 42 c293 388 391
524 451 624 154 259 180 310 211 426 18 67 18 92 -1 140 -51 128 -235 87 -500
-112 -177 -132 -385 -316 -358 -316 15 0 45 17 143 81 102 68 322 194 404 233
80 38 148 58 160 46 14 -14 -8 -76 -51 -148 -42 -68 -201 -295 -230 -327 -10
-11 -54 -65 -98 -120 -44 -55 -84 -105 -90 -111 -5 -6 -57 -66 -114 -133 -58
-66 -111 -121 -119 -121 -20 0 -62 47 -61 68 0 9 4 53 8 97 10 89 4 100 -38
80 -98 -49 -159 -59 -189 -32 -10 10 -23 17 -29 17 -6 0 -22 13 -36 29 -19 23
-25 44 -30 112 -4 45 -11 87 -15 91 -5 5 -43 -14 -86 -43 -71 -47 -81 -51
-118 -45 -22 4 -56 15 -76 25 -33 17 -40 27 -61 95 -13 42 -30 84 -39 92 -14
15 -21 10 -75 -50 l-59 -66 -67 0 c-84 0 -97 9 -153 105 -23 41 -48 75 -53 75
-6 0 -26 -30 -45 -66 -56 -106 -66 -114 -152 -114 l-73 0 -58 65 c-33 36 -62
65 -66 65 -11 0 -41 -57 -41 -78 0 -11 -9 -40 -20 -65 -22 -51 -55 -72 -123
-82 -38 -6 -49 -2 -112 39 -99 65 -101 65 -109 -46 -6 -85 -9 -95 -34 -115
-15 -12 -31 -22 -36 -23 -5 0 -18 -7 -28 -17 -22 -19 -78 -19 -116 0 -54 29
-100 46 -106 40 -10 -10 -7 -105 4 -143 15 -50 -18 -109 -60 -110 -9 0 -54 46
-100 102 -47 55 -92 108 -100 117 -8 9 -51 61 -95 116 -44 55 -86 107 -94 115
-8 8 -51 64 -97 125 -150 200 -241 362 -217 386 23 23 212 -64 432 -197 62
-38 121 -73 130 -79 9 -5 30 -20 46 -31 17 -12 45 -29 63 -38 l33 -17 -12 23
c-33 64 -352 315 -514 405 -115 64 -140 73 -206 73 -51 0 -63 -4 -91 -29z
m2042 -758 c3 -72 8 -134 11 -138 4 -3 56 -13 115 -21 363 -51 674 -230 884
-509 29 -38 58 -73 65 -78 16 -9 27 2 113 105 35 43 71 78 81 78 26 0 106
-135 174 -290 62 -144 104 -308 114 -439 6 -91 2 -101 -50 -101 -34 0 -43 18
-56 128 -18 141 -71 325 -122 424 -7 13 -15 30 -19 38 -14 31 -37 19 -90 -46
l-53 -66 23 -61 c64 -172 109 -404 82 -421 -5 -3 -57 -6 -116 -7 -79 -2 -110
1 -116 11 -4 7 -11 44 -14 82 -11 111 -67 269 -136 386 -70 119 -223 282 -325
348 -208 135 -427 194 -670 181 -387 -22 -718 -236 -900 -580 -51 -97 -101
-254 -110 -350 -5 -47 -12 -70 -24 -76 -9 -4 -62 -6 -119 -3 -78 3 -105 8
-109 19 -7 17 12 147 34 228 15 56 47 153 78 235 12 31 11 38 -4 63 -22 34
-90 107 -101 107 -24 0 -106 -195 -144 -341 -13 -51 -30 -134 -36 -184 -6 -49
-16 -95 -22 -102 -13 -16 -60 -17 -76 -1 -14 14 -16 132 -2 157 5 10 14 45 19
77 15 83 45 184 77 259 27 64 115 241 134 270 11 17 23 36 26 43 3 6 16 12 28
12 15 0 42 -27 91 -89 46 -60 77 -90 91 -90 14 -1 35 19 66 62 52 70 190 209
258 260 202 150 380 223 638 261 56 8 107 18 112 21 6 4 10 61 10 135 0 138 1
140 55 137 l30 -2 5 -132z m-223 115 c11 -19 3 -72 -13 -84 -8 -6 -38 -15 -67
-18 -65 -9 -175 -38 -247 -66 -30 -12 -63 -24 -73 -27 -49 -15 -291 -150 -307
-172 -3 -4 -32 -28 -65 -53 -33 -25 -73 -60 -89 -77 -36 -37 -55 -39 -85 -7
-30 32 -23 52 42 107 63 54 206 163 227 172 8 4 38 21 65 38 28 16 66 37 85
45 19 9 58 26 85 39 60 27 119 47 200 68 184 49 229 55 242 35z m471 -4 c170
-40 199 -47 229 -60 17 -8 40 -14 51 -14 11 0 25 -7 32 -15 7 -8 19 -15 28
-15 21 0 195 -94 266 -144 102 -72 241 -191 244 -210 4 -20 -34 -66 -56 -66
-8 0 -47 31 -88 69 -185 172 -476 314 -729 355 -79 13 -95 24 -95 66 0 54 15
58 118 34z m-234 -665 c292 -53 524 -225 651 -484 54 -110 75 -198 75 -315 0
-143 -39 -273 -118 -389 -63 -93 -208 -219 -228 -198 -4 3 12 26 35 49 54 56
100 127 135 207 145 343 -8 740 -359 930 -303 165 -675 100 -937 -164 -37 -38
-80 -86 -95 -109 -15 -23 -30 -43 -33 -46 -3 -3 -11 -16 -17 -30 l-12 -25 0
28 c-1 15 3 27 8 27 5 0 11 12 14 28 8 40 80 146 145 215 141 147 308 236 512
272 97 16 150 17 224 4z m-514 -471 c-209 -211 -266 -495 -155 -772 43 -108
94 -185 175 -266 118 -119 247 -186 415 -216 101 -18 159 -18 262 0 237 42
463 203 590 420 12 20 13 20 13 -6 0 -15 -4 -30 -10 -33 -5 -3 -10 -12 -10
-20 0 -30 -79 -144 -154 -222 -103 -108 -178 -160 -312 -214 -318 -129 -666
-44 -920 223 -147 155 -224 345 -224 551 0 189 62 340 193 472 77 77 124 111
156 114 7 1 -1 -14 -19 -31z m613 -78 c106 -40 191 -125 233 -235 14 -38 19
-74 18 -150 -1 -87 -4 -107 -28 -157 -52 -107 -125 -172 -241 -214 -116 -42
-248 -23 -357 52 -55 39 -120 122 -143 187 -15 39 -20 76 -19 147 0 84 4 103
30 160 33 70 109 156 165 186 107 56 232 65 342 24z"/>
<path d="M4414 4700 c-17 -5 -51 -28 -76 -50 -55 -47 -94 -138 -86 -198 17
-123 125 -222 243 -222 86 0 162 44 212 124 23 35 27 52 27 117 0 67 -4 82
-30 125 -46 74 -98 105 -187 110 -39 2 -86 -1 -103 -6z"/>
<path d="M2896 3998 c4 -24 12 -54 19 -68 7 -14 18 -42 24 -62 12 -37 11 -40
-38 -115 -28 -42 -51 -82 -51 -89 0 -7 31 -14 85 -19 71 -6 91 -11 115 -32 17
-14 30 -30 30 -36 0 -6 7 -19 16 -29 24 -26 20 -84 -11 -152 -14 -32 -24 -65
-20 -73 5 -15 11 -15 151 3 34 5 46 1 72 -21 29 -24 33 -49 12 -65 -17 -12
-114 -97 -129 -111 -9 -9 -90 -76 -181 -150 -290 -236 -459 -358 -565 -404
-47 -21 -55 -22 -66 -9 -31 38 64 229 317 634 51 83 41 90 -27 19 -165 -172
-339 -416 -414 -578 -61 -131 -13 -241 105 -241 41 0 146 23 178 39 10 5 49
23 87 42 194 92 561 341 835 566 38 32 72 52 82 50 35 -9 138 -83 143 -102 3
-11 9 -54 13 -95 9 -93 18 -96 103 -39 68 47 107 53 163 26 17 -9 38 -18 47
-20 8 -3 23 -31 33 -63 26 -83 44 -124 55 -124 5 0 38 30 73 66 l63 66 68 -5
c75 -5 94 -17 125 -76 40 -75 57 -101 68 -101 6 0 30 34 53 74 23 41 49 80 57
87 8 6 46 14 85 17 l71 5 64 -69 64 -69 20 24 c11 13 20 31 20 40 0 9 9 41 19
71 15 43 25 56 46 62 14 3 32 12 40 18 7 6 32 12 54 13 33 1 52 -7 100 -41 80
-56 96 -55 105 4 3 26 6 62 6 80 0 18 3 40 6 49 7 16 136 105 152 105 4 0 36
-23 72 -51 261 -202 651 -479 674 -479 3 0 38 -19 78 -43 197 -115 324 -150
411 -113 58 24 69 46 65 123 -5 83 -16 109 -95 243 -67 113 -198 284 -320 418
-104 114 -111 97 -18 -43 108 -161 266 -452 291 -534 12 -41 12 -47 -2 -58
-41 -31 -261 112 -604 392 -211 172 -350 296 -350 313 0 8 12 26 26 39 23 21
34 24 68 19 149 -20 156 -20 156 3 0 11 -11 46 -25 77 -34 77 -33 116 7 168
47 61 51 63 143 71 47 4 87 10 90 14 2 5 -16 39 -41 77 -63 94 -64 100 -42
158 11 28 23 65 28 81 4 17 11 38 15 48 4 9 3 17 -1 17 -21 -1 -37 -20 -44
-56 -21 -103 -131 -338 -213 -453 -73 -103 -179 -225 -201 -229 -19 -4 -66 34
-66 54 0 6 21 34 46 60 65 70 142 175 202 277 29 49 52 91 52 94 0 4 11 29 24
57 38 79 68 174 60 187 -9 15 -157 7 -177 -9 -8 -7 -25 -40 -37 -75 -28 -77
-78 -170 -144 -267 -60 -89 -245 -277 -309 -314 -71 -42 -68 -53 44 -146 88
-72 119 -110 90 -110 -5 0 -16 -6 -23 -12 -43 -40 -225 -130 -368 -183 -101
-37 -276 -78 -316 -73 -26 3 -29 7 -32 44 -3 47 11 58 94 69 156 22 464 140
464 177 0 15 -111 118 -128 118 -4 0 -52 -17 -107 -39 -146 -56 -276 -88 -425
-103 l-25 -3 -5 -134 c-5 -122 -7 -134 -25 -141 -11 -4 -29 -4 -40 0 -18 6
-20 18 -25 141 l-5 134 -55 7 c-151 20 -257 46 -374 91 -44 17 -88 30 -98 30
-18 -2 -138 -100 -138 -113 0 -10 90 -57 163 -85 85 -31 228 -71 292 -80 76
-11 87 -19 83 -68 -3 -38 -6 -42 -33 -45 -16 -2 -59 4 -95 13 -164 41 -187 47
-213 61 -16 8 -35 14 -44 14 -8 0 -27 6 -41 14 -15 8 -73 37 -130 65 -119 59
-193 108 -186 126 3 6 35 36 71 66 121 99 127 104 117 121 -5 9 -38 38 -73 64
-176 132 -355 364 -421 546 -34 92 -44 100 -138 106 -45 2 -82 0 -85 -5 -12
-19 81 -244 150 -363 37 -64 155 -219 197 -259 20 -19 36 -45 36 -57 0 -22
-38 -54 -64 -54 -38 0 -231 261 -303 410 -30 63 -61 128 -69 143 -8 16 -14 36
-14 46 0 9 -7 26 -15 37 -8 10 -15 33 -15 50 0 29 -15 54 -32 54 -5 0 -5 -19
-2 -42z"/>
</g>
</svg>
