<?xml version="1.0" standalone="no"?>
<!DOCTYPE svg PUBLIC "-//W3C//DTD SVG 20010904//EN"
 "http://www.w3.org/TR/2001/REC-SVG-20010904/DTD/svg10.dtd">
<svg version="1.0" xmlns="http://www.w3.org/2000/svg"
 width="900.000000pt" height="900.000000pt" viewBox="0 0 900.000000 900.000000"
 preserveAspectRatio="xMidYMid meet">
<metadata>
Created by potrace 1.10, written by Peter Selinger 2001-2011
</metadata>
<g transform="translate(0.000000,900.000000) scale(0.100000,-0.100000)"
fill="#000000" stroke="none">
<path d="M4122 7324 c-176 -38 -321 -104 -460 -207 -53 -39 -102 -97 -83 -97
6 0 11 5 11 10 0 6 4 10 10 10 5 0 49 19 97 43 98 47 135 62 208 83 63 18 244
44 310 44 78 0 256 -27 298 -44 32 -14 37 -21 37 -50 0 -57 -16 -63 -210 -75
-173 -10 -223 -17 -370 -47 -185 -38 -445 -128 -610 -210 -74 -37 -75 -37
-217 -40 -139 -4 -191 -12 -333 -57 -266 -85 -517 -303 -650 -567 -54 -108
-82 -194 -105 -330 -13 -77 -20 -213 -8 -165 3 11 14 39 24 62 10 23 19 49 19
58 0 9 14 51 32 93 90 217 241 400 434 527 74 49 102 55 127 27 34 -38 22 -65
-79 -179 -140 -156 -242 -295 -327 -443 -49 -86 -136 -265 -162 -335 -46 -123
-52 -139 -61 -167 -5 -15 -45 -64 -89 -110 -164 -169 -256 -336 -305 -558 -27
-119 -27 -370 -1 -490 22 -96 68 -228 99 -280 11 -19 30 -53 42 -75 44 -80
160 -212 160 -181 0 9 -4 16 -10 16 -5 0 -10 4 -10 10 0 5 -19 49 -43 97 -47
98 -62 135 -83 208 -18 63 -44 244 -44 310 0 78 27 256 44 298 14 32 21 37 50
37 57 0 63 -16 75 -210 10 -173 17 -223 47 -370 38 -182 117 -414 206 -600
l41 -85 3 -140 c4 -217 61 -403 177 -583 60 -93 77 -114 171 -205 169 -165
361 -260 606 -302 77 -13 213 -20 165 -8 -11 3 -39 14 -62 24 -23 10 -49 19
-58 19 -28 0 -180 67 -252 111 -95 58 -182 129 -254 207 -74 81 -159 208 -159
237 0 34 36 60 77 56 6 0 60 -44 120 -97 242 -216 500 -379 755 -479 51 -20
108 -42 126 -50 18 -8 42 -15 53 -15 13 0 58 -36 112 -88 179 -172 342 -262
567 -312 119 -27 370 -27 490 -1 96 22 228 68 280 99 19 11 53 30 74 42 87 47
211 160 176 160 -5 0 -10 -4 -10 -10 0 -5 -4 -10 -10 -10 -5 0 -49 -19 -97
-43 -98 -47 -135 -62 -208 -83 -63 -18 -244 -44 -310 -44 -78 0 -256 27 -297
44 -33 14 -38 21 -38 50 0 57 16 63 210 75 173 10 223 17 370 47 186 39 402
112 580 196 l104 50 143 4 c140 4 192 13 333 57 302 96 586 370 697 671 40
110 73 275 72 361 l-1 50 -10 -35 c-5 -19 -13 -39 -18 -45 -4 -5 -17 -44 -30
-85 -47 -159 -141 -311 -275 -446 -93 -94 -233 -194 -270 -194 -12 0 -29 8
-38 18 -34 38 -22 65 79 179 140 156 242 295 327 443 49 86 136 265 162 335
46 123 52 139 61 167 5 15 45 64 89 110 164 169 256 336 305 558 27 119 27
370 1 490 -22 96 -68 228 -99 280 -11 19 -30 53 -42 75 -42 76 -145 194 -158
181 -3 -4 -2 -10 3 -14 23 -16 112 -217 141 -317 18 -63 44 -244 44 -310 0
-78 -27 -256 -44 -297 -14 -34 -20 -38 -51 -38 -55 0 -62 21 -74 215 -10 168
-17 219 -47 365 -37 181 -129 447 -209 608 -35 71 -36 75 -40 216 -6 225 -60
401 -180 587 -58 89 -76 111 -169 202 -169 165 -361 260 -606 302 -77 13 -213
20 -165 8 11 -3 39 -14 62 -24 23 -10 48 -19 56 -19 27 0 171 -63 246 -107 99
-58 187 -129 262 -211 74 -81 159 -208 159 -237 0 -34 -36 -60 -77 -56 -6 0
-60 44 -120 97 -282 252 -571 423 -902 534 -55 18 -79 35 -153 106 -177 168
-336 254 -558 304 -105 24 -378 26 -478 4z m138 -533 c0 -11 -37 -35 -120 -79
-89 -48 -280 -176 -376 -253 -172 -139 -346 -332 -410 -457 -14 -28 9 -25 29
3 69 94 262 275 392 366 52 36 203 129 210 129 2 0 26 13 52 28 51 30 243 113
358 155 170 62 246 79 388 85 121 5 271 -14 347 -43 19 -8 112 -43 205 -79
152 -59 252 -104 310 -139 342 -208 588 -439 779 -732 93 -142 107 -169 146
-260 5 -11 18 -40 28 -65 95 -216 128 -309 155 -425 93 -412 84 -803 -29
-1170 -30 -95 -118 -305 -125 -298 -4 5 -9 107 -12 228 -3 121 -10 252 -16
290 -17 104 -40 214 -56 266 -8 26 -15 54 -15 63 0 8 -6 30 -14 48 -8 18 -22
53 -31 78 -27 72 -88 190 -98 190 -5 0 -6 -8 -2 -17 19 -46 78 -259 98 -353
19 -93 21 -137 21 -380 0 -280 -5 -341 -51 -565 -46 -233 -138 -401 -316 -578
-132 -133 -272 -240 -462 -354 -20 -12 -93 -47 -130 -63 -11 -5 -45 -20 -75
-33 -237 -105 -259 -111 -365 -111 -88 1 -107 4 -157 29 -32 15 -78 45 -102
66 -48 43 -110 130 -119 169 -3 14 -20 77 -37 140 -82 309 -109 572 -117 1150
-6 485 -6 478 46 675 34 127 46 138 87 73 33 -52 64 -88 76 -88 12 0 10 63 -7
159 -8 47 -21 137 -30 199 -18 137 -40 292 -60 432 -8 58 -21 157 -29 220 -26
198 -75 561 -91 670 -8 58 -18 130 -22 160 -6 39 -12 55 -23 55 -11 0 -17 -16
-23 -55 -7 -56 -32 -232 -42 -305 -3 -22 -21 -157 -40 -300 -20 -143 -42 -309
-51 -370 -8 -60 -19 -141 -24 -180 -4 -38 -12 -99 -18 -135 -6 -36 -18 -119
-26 -185 -9 -66 -23 -159 -31 -206 -17 -95 -19 -159 -7 -159 11 0 40 34 75 88
45 69 54 58 99 -118 l40 -155 -6 -465 c-4 -371 -9 -500 -25 -640 -33 -286 -72
-486 -125 -644 -53 -157 -221 -276 -388 -276 -59 0 -94 7 -169 34 -352 127
-637 305 -890 556 -120 120 -232 255 -227 275 3 16 4 16 115 -51 64 -39 257
-139 333 -172 19 -8 43 -19 52 -23 9 -5 49 -20 89 -34 197 -68 406 -108 509
-95 36 4 52 8 36 9 -41 2 -226 48 -331 82 -366 120 -871 480 -1040 739 -71
111 -113 213 -148 365 -57 251 -75 468 -58 687 22 280 55 415 179 728 79 200
87 216 188 375 87 137 183 255 318 390 156 155 277 249 481 372 20 12 92 47
130 63 11 5 40 18 65 28 199 87 345 142 376 142 10 0 40 7 68 15 122 35 286
56 286 36z m244 -1603 c4 -18 11 -166 17 -328 5 -162 11 -302 12 -310 1 -8 -4
-43 -11 -77 -10 -50 -17 -63 -31 -63 -15 0 -22 15 -35 71 -9 39 -14 74 -11 79
2 4 9 143 15 309 10 296 14 351 30 351 4 0 10 -15 14 -32z"/>
<path d="M3045 5608 c15 -49 277 -845 289 -878 25 -67 38 -105 46 -135 5 -16
20 -61 33 -100 14 -38 53 -155 87 -260 33 -104 67 -206 74 -225 8 -19 22 -62
32 -95 18 -60 42 -100 53 -89 3 3 11 40 16 82 7 57 14 78 26 80 10 2 53 -41
114 -112 107 -124 115 -139 335 -589 61 -125 115 -225 121 -222 16 10 10 146
-9 200 -10 28 -70 156 -133 285 -66 134 -122 263 -131 300 -47 191 -58 270
-38 270 7 0 45 -18 86 -40 47 -27 75 -37 79 -30 4 6 0 19 -8 28 -8 9 -76 109
-152 222 -233 346 -456 677 -567 840 -57 85 -156 230 -218 323 -62 92 -119
167 -127 167 -10 0 -12 -7 -8 -22z m515 -990 c6 -13 19 -36 30 -53 11 -16 24
-39 30 -50 6 -11 21 -38 33 -60 13 -22 46 -84 75 -137 29 -54 61 -112 71 -130
75 -128 113 -214 118 -264 4 -34 2 -54 -4 -54 -20 0 -83 80 -112 142 -31 68
-31 67 -116 263 -31 72 -65 150 -76 175 -11 25 -26 59 -33 75 -8 17 -21 46
-29 65 -14 31 -14 50 -1 50 2 0 9 -10 14 -22z"/>
<path d="M5837 5518 c-41 -62 -126 -187 -188 -278 -105 -155 -316 -467 -634
-940 -76 -113 -145 -213 -153 -223 -10 -12 -12 -21 -5 -28 6 -6 32 4 79 31 38
22 74 40 81 40 17 0 16 -33 -3 -127 -31 -155 -48 -210 -102 -318 -120 -244
-177 -362 -194 -410 -19 -54 -25 -190 -9 -200 6 -3 60 97 121 222 220 450 228
465 335 589 61 71 104 114 114 112 12 -2 19 -23 26 -80 6 -42 13 -79 16 -82
11 -11 35 29 53 89 10 33 24 76 32 95 7 19 41 121 74 225 34 105 73 222 87
260 13 39 28 84 33 100 8 29 19 63 46 135 12 35 276 835 289 878 4 16 2 22 -8
22 -8 0 -49 -51 -90 -112z m-390 -896 c-7 -17 -31 -69 -43 -97 -7 -16 -24 -55
-37 -85 -14 -30 -57 -129 -95 -220 -39 -91 -83 -189 -97 -217 -26 -55 -90
-133 -108 -133 -6 0 -8 20 -4 54 5 50 43 136 118 264 10 18 42 76 71 130 29
53 62 115 75 137 12 22 27 49 33 60 6 11 19 34 30 50 11 17 24 40 30 53 5 13
15 20 20 17 6 -4 9 -9 7 -13z"/>
</g>
</svg>
