<svg width="102.113" height="100.174" viewBox="0 0 102.113 100.174"><g id="solar_blast" fill-rule="evenodd"><title>solar_blast</title><path unicode="E116" d="M 64.274 11.881 A 0.686 0.686 0 0 1 64.273 11.88 C 64.24 11.859 64.215 11.84 64.205 11.809 A 0.113 0.113 0 0 1 64.2 11.774 C 61.3 10.374 58.2 9.274 55 8.574 A 49.243 49.243 0 0 1 57.254 9.838 C 65.688 14.877 66.2 18.974 66.2 18.974 L 59.1 15.674 C 54.2 13.474 48.9 12.374 43.6 12.374 L 43.5 12.374 C 39.4 12.574 35.5 13.274 31.9 14.274 A 59.256 59.256 0 0 0 26.371 16.07 A 47.845 47.845 0 0 0 20.1 18.974 A 21.821 21.821 0 0 0 18.5 19.877 A 93.87 93.87 0 0 0 17.7 20.374 A 0.083 0.083 0 0 1 17.7 20.379 C 17.698 20.401 17.686 20.487 17.6 20.574 A 51.9 51.9 0 0 0 18.258 20.497 A 15.246 15.246 0 0 0 20.1 20.174 A 42.542 42.542 0 0 1 20.138 20.164 C 20.928 19.967 21.813 19.77 22.6 19.574 C 23.4 19.374 24.2 19.074 25.2 18.774 C 24.5 19.674 23.7 20.474 22.8 21.074 C 21.5 22.074 20.3 23.174 19.4 24.574 A 1.637 1.637 0 0 0 19.282 24.705 C 19.156 24.861 19.078 25.017 19 25.174 L 18.9 25.274 L 18.9 25.374 A 65.253 65.253 0 0 1 18.513 26.065 C 17.355 28.111 15.326 31.519 14.725 32.479 A 8.983 8.983 0 0 1 14.6 32.674 A 4.15 4.15 0 0 1 13.796 33.61 C 12.65 34.635 10.889 35.419 9.72 35.964 A 70.185 70.185 0 0 0 9.7 35.974 C 8.9 36.374 8.1 36.774 7.2 36.974 A 7.354 7.354 0 0 0 5.571 37.75 A 11.132 11.132 0 0 0 2.9 40.274 A 1.186 1.186 0 0 1 2.834 40.432 A 2.141 2.141 0 0 1 2.4 40.974 C 2.306 40.974 2.3 40.974 2.218 40.891 A 11.548 11.548 0 0 1 2.2 40.874 C 2.5 39.074 2.8 37.274 3.1 35.474 A 17.99 17.99 0 0 1 3.463 34.124 A 56.456 56.456 0 0 1 3.9 32.774 C 1.538 35.749 0.323 38.034 0.057 38.559 A 6.394 6.394 0 0 0 0 38.674 A 1750.905 1750.905 0 0 0 0.307 37.651 C 0.418 37.283 0.535 36.889 0.655 36.471 A 80.262 80.262 0 0 0 1.1 34.874 A 8.636 8.636 0 0 1 1.251 34.321 A 2.208 2.208 0 0 1 1.5 33.774 A 3.004 3.004 0 0 1 1.567 33.546 A 7.775 7.775 0 0 1 2 32.574 C 2.3 31.774 2.6 30.974 3 30.074 C 3.299 29.177 3.796 28.38 4.294 27.484 A 34.028 34.028 0 0 0 4.3 27.474 C 4.5 27.074 4.725 26.649 4.963 26.224 A 29.92 29.92 0 0 1 5.7 24.974 C 6.2 24.074 6.8 23.274 7.4 22.474 C 7.9 21.674 8.4 20.774 9.1 20.074 A 68.442 68.442 0 0 1 9.696 19.318 C 11.063 17.61 12.264 16.288 13.39 15.183 A 37.172 37.172 0 0 1 16.1 12.774 C 16.85 12.174 17.544 11.63 18.097 11.184 A 39.063 39.063 0 0 0 18.6 10.774 A 4.286 4.286 0 0 0 18.81 10.623 C 18.913 10.545 19.004 10.471 19.09 10.408 A 1.453 1.453 0 0 1 19.3 10.274 L 19.5 10.074 A 71.44 71.44 0 0 0 20.442 9.462 C 20.872 9.178 21.33 8.873 21.821 8.551 A 90.619 90.619 0 0 1 23.5 7.474 C 24.3 7.074 25.1 6.574 25.9 6.174 A 12.614 12.614 0 0 1 26.172 6.015 C 26.379 5.897 26.574 5.796 26.774 5.701 A 9.446 9.446 0 0 1 27.3 5.474 A 3.064 3.064 0 0 1 27.555 5.302 A 7.902 7.902 0 0 1 28.7 4.774 C 29.7 4.374 30.7 3.974 31.7 3.474 A 20.574 20.574 0 0 1 33.25 2.936 A 180.537 180.537 0 0 1 34.8 2.474 L 36.4 1.874 L 38.1 1.574 C 39.2 1.274 40.2 1.074 41.3 0.774 A 62.177 62.177 0 0 1 42.816 0.546 C 46.039 0.103 49.078 -0.059 51.493 0.019 A 30.075 30.075 0 0 1 52.6 0.074 A 29.63 29.63 0 0 1 53.143 0.078 C 53.974 0.094 54.718 0.142 55.328 0.2 A 22.851 22.851 0 0 1 56 0.274 C 56.5 0.274 56.8 0.374 57 0.374 L 57.3 0.374 A 12.184 12.184 0 0 0 58.575 0.611 A 37.894 37.894 0 0 0 60 0.774 C 60.2 0.824 60.425 0.874 60.663 0.924 A 75.773 75.773 0 0 0 61.4 1.074 A 37.924 37.924 0 0 0 61.592 1.111 C 62.048 1.2 62.563 1.299 63 1.474 C 64.1 1.674 65.2 1.974 66.3 2.274 L 69.9 3.474 A 57.597 57.597 0 0 1 71.502 4.136 A 56.495 56.495 0 0 1 83.7 11.274 C 86.655 13.711 89.173 16.312 91.093 18.634 A 41.974 41.974 0 0 1 92.9 20.974 A 2.408 2.408 0 0 0 92.979 21.119 C 93.118 21.354 93.286 21.556 93.434 21.747 A 3.95 3.95 0 0 1 93.6 21.974 L 94.2 22.874 A 23.277 23.277 0 0 1 94.346 23.096 C 94.488 23.314 94.615 23.519 94.729 23.717 A 6.103 6.103 0 0 1 95.1 24.474 C 95.6 25.274 95.9 25.774 95.9 25.774 L 95.9 25.674 C 97.9 29.274 100.1 34.374 101.3 40.274 A 49.435 49.435 0 0 1 102.113 49.27 C 102.113 52.462 101.813 55.659 101.2 58.674 C 100.138 63.893 98.216 68.564 96.333 72.065 A 43.493 43.493 0 0 1 95.6 73.374 C 94.109 75.917 90.619 80.152 88.636 82.437 A 74.647 74.647 0 0 1 87.9 83.274 C 87.1 80.974 86.2 78.674 85.6 76.374 A 6.734 6.734 0 0 1 85.57 76.263 C 85.422 75.712 85.35 75.162 85.35 74.621 A 6.105 6.105 0 0 1 86.9 70.574 C 89.791 67.105 92.34 62.545 93.816 59.259 A 32.629 32.629 0 0 0 94.6 57.374 A 44.934 44.934 0 0 0 97.048 42.761 A 44.444 44.444 0 0 0 96.8 38.074 C 96.9 40.174 96.5 42.374 96.3 44.474 C 96.046 45.54 95.844 46.581 95.614 47.622 A 29.769 29.769 0 0 1 94.8 50.674 L 94.3 52.174 L 94 52.874 L 93.7 53.574 A 38.88 38.88 0 0 1 93.088 55.024 C 93.034 55.142 92.98 55.261 92.926 55.38 A 37.786 37.786 0 0 1 92.4 56.474 A 8.085 8.085 0 0 1 92.381 56.516 C 91.981 57.402 91.392 58.288 90.9 59.174 L 90.2 60.374 C 89.966 60.764 89.731 61.033 89.497 61.37 A 5.362 5.362 0 0 0 89.3 61.674 C 88.6 62.674 87.9 63.574 87.1 64.474 A 3.536 3.536 0 0 1 87.082 64.379 C 87.027 64.059 87.009 63.705 87.003 63.365 A 27.166 27.166 0 0 1 87 62.874 L 87 62.674 A 17.182 17.182 0 0 1 86.95 61.355 A 18.822 18.822 0 0 1 88.1 54.974 A 20.574 20.574 0 0 0 88.638 53.424 A 180.542 180.542 0 0 0 89.1 51.874 A 33.847 33.847 0 0 0 90.128 43.274 A 46.635 46.635 0 0 0 90 39.874 L 89.8 38.374 L 89.7 37.574 L 89.6 36.874 L 88.9 33.774 C 88.6 32.774 88.3 31.774 88 30.774 C 87.7 29.774 87.2 28.774 86.8 27.774 A 481.012 481.012 0 0 0 86.35 26.875 A 88.403 88.403 0 0 0 85 24.274 C 85.2 26.074 86.2 27.974 86.3 29.774 C 86.369 30.186 86.39 30.599 86.429 30.979 A 5.336 5.336 0 0 0 86.5 31.474 C 86.8 33.574 87.3 38.074 86.7 39.574 A 833.146 833.146 0 0 1 86.626 39.433 C 86.096 38.42 82.834 32.187 81.436 29.439 A 108.386 108.386 0 0 1 81.1 28.774 A 6.479 6.479 0 0 0 81.044 29.058 C 80.899 29.882 80.89 30.778 80.8 31.674 L 80.8 34.374 A 208.385 208.385 0 0 1 80.532 33.97 C 78.842 31.423 77.36 29.034 76.6 26.374 A 58.366 58.366 0 0 0 75.013 27.424 A 158.529 158.529 0 0 0 73.5 28.474 C 73.5 28.388 73.426 28.375 73.342 28.31 A 0.438 0.438 0 0 1 73.3 28.274 A 8.184 8.184 0 0 1 73.422 27.774 C 73.433 27.732 73.444 27.69 73.455 27.649 A 3.485 3.485 0 0 0 73.6 26.774 C 73.7 25.974 73.8 25.174 73.7 24.474 C 73.327 22.516 72.867 17.431 66.005 12.944 A 27.184 27.184 0 0 0 64.4 11.974 A 0.434 0.434 0 0 0 64.365 11.942 C 64.334 11.917 64.304 11.9 64.278 11.884 A 1.585 1.585 0 0 0 64.278 11.884 M 79.1 50.274 L 77.7 43.174 L 75 40.574 L 60.4 28.274 L 51 24.974 L 42.5 23.274 L 40 24.874 L 41.2 28.974 L 46.6 31.374 L 53.7 35.474 L 55.7 37.474 L 59 40.774 L 58.8 40.774 L 60.4 42.474 A 17.471 17.471 0 0 0 60.382 42.515 C 60.212 42.903 58.894 45.938 58.8 46.874 L 57.8 42.074 L 55.4 40.374 C 52.188 40.026 49.277 39.679 48.565 39.593 A 184.096 184.096 0 0 1 48.4 39.574 L 39.1 43.374 L 36.1 41.174 L 31.3 40.874 L 28.9 45.474 L 33.3 51.974 A 90.681 90.681 0 0 0 32.686 51.517 C 31.231 50.445 29.7 49.374 29.7 49.374 L 28.8 50.074 A 1.686 1.686 0 0 0 28.697 50.13 C 28.559 50.211 28.463 50.292 28.3 50.374 C 28.201 50.472 28.2 50.571 28.103 50.67 A 0.421 0.421 0 0 1 28.1 50.674 L 26.6 51.874 L 26.5 55.074 L 29.2 56.974 L 35.5 54.174 L 37.7 56.374 L 39.2 57.774 L 35.7 59.674 L 34.2 63.274 L 32 66.174 L 33.1 69.574 L 35.5 69.974 L 38.6 68.074 L 39.4 66.174 L 43.1 64.474 L 43.7 66.574 L 40.2 69.074 L 39.4 72.774 L 37.4 76.674 A 43.517 43.517 0 0 1 37.427 76.691 C 37.67 76.846 39.474 77.998 39.773 78.249 A 0.444 0.444 0 0 1 39.8 78.274 L 43.7 76.474 L 44.7 74.374 L 45.8 74.074 A 137.452 137.452 0 0 0 45.805 74.095 C 46.153 75.663 46.425 76.772 46.487 77.088 A 0.625 0.625 0 0 1 46.5 77.174 A 0.021 0.021 0 0 0 46.495 77.189 C 46.495 77.55 51.8 82.374 51.8 82.374 L 55.2 91.374 L 61.3 94.974 L 65.3 100.174 A 45.508 45.508 0 0 0 71.318 97.224 C 79.301 92.581 84.553 86.626 84.6 86.574 L 81.2 76.074 L 79.1 50.274 Z M 26.1 42.574 L 25.8 38.474 L 26.8 38.374 A 3.993 3.993 0 0 0 28.852 37.528 A 2.663 2.663 0 0 0 29.9 35.474 L 30.1 31.274 L 28.1 34.174 C 27.49 35.044 26.35 35.612 25.141 35.612 A 3.826 3.826 0 0 1 24.6 35.574 L 21 34.974 L 23 41.674 A 3.302 3.302 0 0 1 23.135 42.531 C 23.158 43.512 22.721 44.435 21.907 45.097 A 4.212 4.212 0 0 1 20.7 45.774 L 17.2 47.274 A 48.775 48.775 0 0 1 19.405 47.513 C 21.818 47.831 23.701 48.263 25.1 48.574 C 26.079 48.867 26.962 48.682 27.844 48.298 A 7.785 7.785 0 0 0 27.9 48.274 C 26.7 47.474 25.3 46.574 25 46.374 A 0.268 0.268 0 0 1 24.929 46.222 C 24.917 46.145 24.933 46.062 24.976 46.001 A 0.222 0.222 0 0 1 25 45.974 A 3.996 3.996 0 0 0 26.118 43.042 A 6.109 6.109 0 0 0 26.1 42.574 Z M 6.3 44.874 C 7.5 43.574 8.7 42.374 9.4 40.774 C 8 41.374 6.7 42.174 5.4 42.974 A 7.123 7.123 0 0 0 2.451 47.591 A 14.458 14.458 0 0 0 2.2 49.074 A 1.292 1.292 0 0 0 2.19 49.177 C 2.135 50.109 2.469 54.347 2.828 55.982 A 4.883 4.883 0 0 0 2.9 56.274 A 13.984 13.984 0 0 1 3.519 60.082 A 8.89 8.89 0 0 1 3.5 60.674 L 3.5 63.674 A 6.483 6.483 0 0 1 3.989 63.157 C 4.355 62.804 4.725 62.486 5 62.074 A 12.508 12.508 0 0 0 6.937 55.306 A 14.492 14.492 0 0 0 6.9 54.274 C 6.6 51.774 7.2 49.574 8.4 47.474 A 31.82 31.82 0 0 1 9.513 45.724 A 403.549 403.549 0 0 0 10.7 43.974 A 2.214 2.214 0 0 0 10.592 43.87 C 10.556 43.839 10.519 43.812 10.483 43.794 A 0.193 0.193 0 0 0 10.4 43.774 C 9.328 44.269 8.323 44.695 7.106 44.83 A 7.333 7.333 0 0 1 6.3 44.874 Z M 54.3 54.874 L 49.2 52.974 L 46.9 49.774 L 47.9 49.674 L 56.3 51.674 L 54.3 54.874 Z M 5.7 72.974 C 6 72.174 6.3 71.374 6.7 70.674 C 7.525 69.024 7.426 67.374 7.326 65.724 A 97.708 97.708 0 0 1 7.3 65.274 A 51.112 51.112 0 0 1 6.76 66.4 C 5.862 68.239 4.964 70.123 5.483 72.274 A 5.822 5.822 0 0 0 5.7 72.974 Z"/></g></svg>