<svg width="96.2" height="122" viewBox="0 0 96.2 122"><g id="solar_hammer_slam" fill-rule="evenodd"><title>solar_hammer_slam</title><path unicode="E114" d="M 28.6 36.6 L 27.9 37.5 A 39.97 39.97 0 0 1 27.886 36.421 C 27.886 29.691 29.448 26.328 22.7 44.1 L 0 73.1 L 6.7 73.1 A 3458.381 3458.381 0 0 0 7.055 72.65 C 10.447 68.359 36.99 34.759 38.3 32.7 L 42.3 27.6 A 27.552 27.552 0 0 1 41.512 32.225 C 41.211 33.469 40.857 34.759 40.502 36.118 A 120.422 120.422 0 0 0 40.2 37.3 C 45 31.2 46.5 22.9 47.3 21.2 L 47.6 20.9 L 48 21.5 A 6.653 6.653 0 0 1 48.047 21.619 C 48.713 23.34 49.76 27.892 52.01 32.444 A 28.559 28.559 0 0 0 55 37.3 A 100.199 100.199 0 0 0 54.698 36.092 C 54.295 34.522 53.892 33.073 53.567 31.685 A 25.298 25.298 0 0 1 52.9 27.6 L 56.5 32 C 57.899 34.238 85.383 68.039 89.088 72.594 A 2875.287 2875.287 0 0 0 89.5 73.1 L 96.2 73.1 L 72.2 43.2 C 65.623 25.96 67.487 30.071 67.302 37.126 A 37.672 37.672 0 0 1 67.3 37.2 L 66.5 36.2 C 64.1 26.6 60.9 19.2 60.9 19.2 A 53.673 53.673 0 0 1 60.912 19.311 C 60.998 20.117 61.525 25.158 61.8 30.2 L 60.6 28.8 C 57.5 20.9 53.2 9.4 53.2 10.2 A 69.986 69.986 0 0 0 54.013 19.521 A 3542.539 3542.539 0 0 0 54.2 20.9 L 51.5 17.4 A 106.86 106.86 0 0 1 51.458 17.24 C 49.089 8.203 48.196 0 47.6 0 A 0.487 0.487 0 0 0 47.363 0.37 C 46.947 1.569 46.386 5.561 45.349 10.586 A 119.565 119.565 0 0 1 43.8 17.2 L 41 20.8 C 41.45 18.025 41.788 15.419 41.97 12.813 A 63.003 63.003 0 0 0 42.1 10.2 A 0.059 0.059 0 0 0 42.093 10.164 C 41.918 9.962 38.513 18.739 35.701 26.108 A 1919.32 1919.32 0 0 0 34.6 29 L 33.5 30.4 C 33.7 24.8 34.3 19.2 34.3 19.2 C 34.3 19.2 31.649 25.497 29.287 34.019 A 130.025 130.025 0 0 0 28.6 36.6 Z M 11.5 81.2 L 31.2 81.2 A 1074.103 1074.103 0 0 0 31.222 81.142 C 35.419 69.853 34.009 73.119 34.233 78.02 A 21.042 21.042 0 0 0 34.3 79 A 77.85 77.85 0 0 1 34.993 76.191 C 36.438 70.76 38.151 66.566 38.526 65.675 A 18.815 18.815 0 0 1 38.6 65.5 C 38.6 65.5 38.178 69.295 38.032 73.091 A 71.504 71.504 0 0 0 38 74.1 A 494.878 494.878 0 0 0 38.515 72.78 C 40.572 67.491 43.802 58.993 43.802 59.379 A 0.157 0.157 0 0 1 43.8 59.4 C 43.8 62.5 43.3 65.5 42.8 68.9 L 44.2 67.1 C 46.372 60.299 47.028 53.231 47.516 52.468 A 0.116 0.116 0 0 1 47.6 52.4 C 47.915 52.4 48.353 55.744 49.257 60.044 A 89.891 89.891 0 0 0 50.1 63.7 L 52.1 66.3 A 53.606 53.606 0 0 1 51.482 61.492 A 28.27 28.27 0 0 1 51.4 59.4 A 0.058 0.058 0 0 1 51.405 59.37 C 51.535 59.178 54.06 65.687 55.985 70.851 A 460.558 460.558 0 0 1 56.3 71.7 L 57.2 72.8 A 80.618 80.618 0 0 0 57.101 70.47 C 56.947 67.722 56.7 65.5 56.7 65.5 C 56.7 65.5 58.8 70.5 60.5 77 L 61 77.7 A 28.18 28.18 0 0 0 61.006 77.101 C 61.006 73.019 60.183 70.834 63.468 79.527 A 3830.616 3830.616 0 0 0 64.1 81.2 L 84.7 81.2 L 48.6 35.1 L 11.5 81.2 Z M 59.2 87.5 A 240.775 240.775 0 0 0 58.137 84.614 C 55.864 78.568 54.57 75.941 54.503 75.806 A 2.191 2.191 0 0 0 54.5 75.8 C 54.5 75.8 54.3 76.4 54.6 81.2 A 16.1 16.1 0 0 1 53.224 78.74 C 51.413 74.708 51.9 71.3 51.9 71.3 C 51.1 73.3 50.9 76.6 51.3 79.8 C 48.709 75.333 48.114 68.952 48.016 67.213 A 8.825 8.825 0 0 1 48 66.8 A 9.609 9.609 0 0 1 47.981 67.266 C 47.874 69.077 47.265 75.377 44.7 79.8 C 45.053 76.974 44.939 74.069 44.356 72.052 A 8.021 8.021 0 0 0 44.1 71.3 A 1.427 1.427 0 0 1 44.103 71.319 C 44.142 71.629 44.59 75.615 42.152 79.983 A 16.241 16.241 0 0 1 41.4 81.2 A 133.988 133.988 0 0 0 41.444 80.464 C 41.658 76.712 41.529 75.927 41.504 75.816 A 0.186 0.186 0 0 0 41.5 75.8 A 12.263 12.263 0 0 0 41.421 75.962 C 41.063 76.709 39.499 80.077 36.98 87.005 A 260.021 260.021 0 0 0 36.8 87.5 C 33.858 95.64 40.727 101.28 47.596 101.494 A 12.981 12.981 0 0 0 48 101.5 A 12.981 12.981 0 0 0 48.404 101.494 C 54.765 101.296 61.126 96.445 59.696 89.264 A 12.203 12.203 0 0 0 59.2 87.5 Z M 64.2 99.1 L 64.1 98.9 L 59.2 104 L 59.3 104.1 C 62.3 106.7 65.6 108.9 69.2 110.6 L 72.8 112.3 L 71 108.8 C 69.2 105.2 66.9 102 64.2 99.1 Z M 26.2 108.7 L 24.5 112.3 L 28.1 110.5 C 31.6 108.7 34.8 106.5 37.7 103.8 L 37.9 103.6 L 32.9 98.7 L 32.7 98.9 C 30.1 101.9 27.9 105.2 26.2 108.7 Z M 47.5 118.3 L 48.8 122 L 50.1 118.2 C 51.3 114.5 52 110.6 52.1 106.6 L 52.1 106.4 L 45.1 106.5 L 45.2 106.7 C 45.4 110.7 46.2 114.6 47.5 118.3 Z M 30.4 93.4 L 30.3 86.4 L 30.1 86.4 C 26.1 86.7 22.2 87.5 18.5 88.8 L 14.8 90.1 L 18.5 91.3 C 22.3 92.6 26.2 93.3 30.1 93.4 L 30.4 93.4 Z M 65.9 86.3 L 65.7 86.3 L 65.8 93.2 L 66 93.2 C 70 93 73.9 92.2 77.6 90.9 L 81.3 89.5 L 77.5 88.3 C 73.8 87.1 69.9 86.4 65.9 86.3 Z"/></g></svg>