<svg width="88.012" height="112.4" viewBox="0 0 88.012 112.4"><g id="solar_tian_super" fill-rule="evenodd"><title>solar_tian_super</title><path unicode="E126" d="M 33.106 92.6 L 32.906 92.5 C 33.197 91.431 33.3 89.607 32.663 87.028 A 20.032 20.032 0 0 0 32.606 86.8 L 32.306 85.3 L 31.806 86.8 A 0.124 0.124 0 0 1 31.802 86.83 C 31.785 86.898 31.714 86.91 31.706 86.987 A 0.138 0.138 0 0 0 31.706 87 C 31.706 85.825 31.61 84.361 31.23 82.516 A 26.653 26.653 0 0 0 31.206 82.4 A 22.697 22.697 0 0 0 27.421 76.184 C 27.191 75.903 26.955 75.624 26.713 75.344 A 54.819 54.819 0 0 0 25.506 74 L 24.606 73.1 L 24.706 74.2 C 25.006 75.7 25.006 77 25.106 78.2 L 25.106 78.3 A 26.36 26.36 0 0 1 29.254 85.402 A 23.669 23.669 0 0 1 30.506 90 L 30.606 90.5 L 30.806 92.5 A 27.386 27.386 0 0 1 22.106 88.766 A 19.369 19.369 0 0 1 19.206 86.4 A 15.728 15.728 0 0 1 15.873 81.607 C 14.501 78.485 14.315 75.019 15.277 71.414 A 20.886 20.886 0 0 1 16.006 69.2 C 19.966 59.382 22.701 53.716 24.042 51.192 A 27.638 27.638 0 0 1 24.706 50 A 8.689 8.689 0 0 0 24.71 50.23 C 24.735 51.124 24.841 53.39 24.214 58.436 A 101.771 101.771 0 0 1 24.206 58.5 L 24.206 59.1 L 24.506 58.6 A 25.776 25.776 0 0 0 27.29 54.012 C 29.311 49.721 29.646 45.866 29.697 43.696 A 33.242 33.242 0 0 0 29.706 42.9 L 30.006 43.7 L 30.006 42.8 C 30.106 38.3 29.506 34.1 28.306 31.2 L 28.006 31.2 C 28.006 31.291 29.165 39.415 23.948 48.337 A 31.933 31.933 0 0 1 22.206 51 A 235.248 235.248 0 0 0 22.342 49.349 C 22.957 41.555 22.606 40.5 22.606 40.5 L 22.506 40.2 L 22.306 40.5 A 1.917 1.917 0 0 1 22.201 40.71 C 21.532 41.981 17.678 49.075 11.606 64.3 A 23.981 23.981 0 0 0 10.322 68.744 C 9.279 74.448 10.716 79.711 14.507 84.115 A 22.405 22.405 0 0 0 15.506 85.2 C 19.406 89.1 24.806 91.7 30.806 92.8 A 121.555 121.555 0 0 1 30.804 93.572 C 30.8 94.209 30.785 94.737 30.73 95.213 A 7.056 7.056 0 0 1 30.706 95.4 C 30.621 95.653 30.608 95.977 30.606 96.253 A 19.46 19.46 0 0 0 30.606 96.4 L 30.006 99 L 31.506 96.5 C 32.006 95.4 32.506 94.3 32.906 93.1 C 33.496 93.1 33.945 93.171 34.491 93.193 A 7.71 7.71 0 0 0 34.806 93.2 L 34.806 93 A 6.559 6.559 0 0 1 34.454 92.991 C 33.991 92.966 33.638 92.894 33.134 92.819 A 18.93 18.93 0 0 0 33.006 92.8 A 1.701 1.701 0 0 1 33.006 92.767 C 33.007 92.703 33.017 92.7 33.094 92.7 A 6.453 6.453 0 0 1 33.106 92.7 L 33.106 92.6 Z M 66.406 40.7 L 66.306 40.4 L 66.106 40.7 C 66.028 41.01 66.011 41.441 66.007 41.991 A 73.187 73.187 0 0 0 66.006 42.5 A 136.286 136.286 0 0 0 66.011 43.816 C 66.021 44.986 66.057 46.568 66.174 48.827 A 189.906 189.906 0 0 0 66.306 51.1 A 30.736 30.736 0 0 1 63.533 46.238 C 60.11 38.707 60.889 32.224 60.995 31.473 A 3.775 3.775 0 0 1 61.006 31.4 L 60.706 31.3 C 59.406 34.2 58.706 38.3 58.706 43 L 58.706 43.8 L 59.006 43 A 9.96 9.96 0 0 0 58.949 43.626 C 58.786 46.308 59.319 52.123 63.205 57.938 A 26.448 26.448 0 0 0 63.806 58.8 L 64.106 59.2 L 64.106 58.7 C 63.739 53.567 63.793 51.29 63.804 50.33 A 19.863 19.863 0 0 0 63.806 50.1 C 64.489 51.467 66.778 55.898 70.173 64.64 A 273.587 273.587 0 0 1 72.006 69.5 A 18.74 18.74 0 0 1 72.99 73.195 C 73.678 77.606 72.527 81.727 69.646 85.235 A 18.867 18.867 0 0 1 68.406 86.6 A 22.283 22.283 0 0 1 61.219 91.093 A 31.888 31.888 0 0 1 57.206 92.4 A 7.022 7.022 0 0 1 57.221 91.936 C 57.253 91.455 57.329 91.036 57.406 90.5 L 57.506 90 A 25.446 25.446 0 0 1 62.045 79.32 A 31.208 31.208 0 0 1 62.806 78.3 L 62.806 78.2 A 15.544 15.544 0 0 0 63.008 76.901 C 63.115 75.959 63.136 75.104 63.206 74.2 L 63.306 73.1 L 62.406 74 A 29.961 29.961 0 0 0 58.259 79.377 A 26.09 26.09 0 0 0 56.706 82.4 C 56.306 84.3 56.206 85.8 56.206 87 L 56.206 86.8 L 55.606 85.3 L 55.306 86.8 A 24.063 24.063 0 0 0 55.086 88.216 C 54.871 89.945 54.91 91.261 54.978 92.162 A 21.957 21.957 0 0 0 55.006 92.5 L 54.806 92.6 L 54.906 92.7 L 54.906 92.8 A 23.877 23.877 0 0 1 53.721 92.944 A 12.176 12.176 0 0 1 52.606 93 L 52.606 93.2 C 53.406 93.2 54.206 93.1 55.006 93.1 A 47.87 47.87 0 0 0 55.732 94.896 C 55.926 95.343 56.119 95.761 56.312 96.137 A 12.533 12.533 0 0 0 56.506 96.5 L 57.906 99 L 57.306 96.4 C 57.306 96.1 57.306 95.7 57.206 95.4 A 16.397 16.397 0 0 1 57.114 94.66 C 57.062 94.126 57.039 93.502 57.106 92.7 A 32.409 32.409 0 0 0 66.976 89.197 A 26.859 26.859 0 0 0 72.106 85.5 A 19.462 19.462 0 0 0 76.414 79.623 C 78.181 75.836 78.507 71.595 77.392 67.144 A 25.052 25.052 0 0 0 76.606 64.6 A 386.551 386.551 0 0 0 74.363 58.725 C 69.414 46.081 66.493 40.788 66.406 40.7 Z M 62.806 24.8 L 66.206 24.2 A 54.973 54.973 0 0 1 66.236 24.195 C 67.925 23.898 69.506 23.699 69.606 23.6 L 73.606 20.3 L 71.806 18.8 A 23.377 23.377 0 0 1 70.499 17.777 C 70.135 17.47 69.802 17.17 69.499 16.883 A 21.283 21.283 0 0 1 69.106 16.5 L 65.806 15.8 A 31.8 31.8 0 0 0 64.381 15.513 A 19.2 19.2 0 0 0 62.806 15.3 L 66.006 15 A 20.011 20.011 0 0 1 66.327 14.943 C 67.585 14.728 68.844 14.628 69.381 14.546 A 1.552 1.552 0 0 0 69.606 14.5 A 6.451 6.451 0 0 0 69.927 14.31 C 71.145 13.549 73.408 11.762 73.408 11.607 A 0.01 0.01 0 0 0 73.406 11.6 A 15.702 15.702 0 0 1 73.089 11.314 C 72.188 10.479 70.564 8.858 69.886 8.18 A 1397.566 1397.566 0 0 1 69.806 8.1 A 1.175 1.175 0 0 1 69.64 7.886 C 69.502 7.661 69.378 7.332 69.306 6.9 A 4.2 4.2 0 0 1 69.217 6.31 C 69.166 5.647 69.295 5.043 69.606 4.5 C 70.106 3.6 70.706 2.8 71.406 2 L 72.206 1.1 L 72.406 0.8 A 0.68 0.68 0 0 0 72.453 0.746 C 72.545 0.632 72.677 0.416 72.766 0.138 A 2.142 2.142 0 0 0 72.806 0 L 60.106 0 A 1.13 1.13 0 0 0 60.029 0.002 C 59.818 0.017 59.782 0.089 59.556 0.099 A 1.203 1.203 0 0 1 59.506 0.1 A 2.176 2.176 0 0 0 58.785 0.525 A 1.847 1.847 0 0 0 58.706 0.6 A 6.191 6.191 0 0 1 57.699 1.571 C 57.049 2.077 56.345 2.467 55.64 2.975 A 11.54 11.54 0 0 0 55.606 3 C 54.976 3.36 54.427 3.477 53.813 3.716 A 6.517 6.517 0 0 0 53.606 3.8 A 5.028 5.028 0 0 1 52.206 4.163 C 51.731 4.225 51.256 4.25 50.806 4.3 A 25.01 25.01 0 0 1 50.224 4.346 C 49.429 4.4 48.8 4.4 47.906 4.4 L 27.006 4.4 C 26.306 4.4 25.606 4.5 24.906 4.5 L 22.606 4.7 C 21.621 4.7 20.54 4.894 19.362 5.186 A 31.188 31.188 0 0 0 19.306 5.2 L 16.806 5.7 C 15.795 5.976 15.122 5.998 14.089 6.387 A 8.885 8.885 0 0 0 13.806 6.5 A 10.952 10.952 0 0 1 12.193 7.254 C 11.931 7.355 11.668 7.45 11.406 7.544 A 26.437 26.437 0 0 0 10.206 8 A 5.947 5.947 0 0 0 9.118 8.563 C 8.781 8.775 8.456 9 8.106 9.2 A 15.943 15.943 0 0 0 4.776 11.995 A 41.071 41.071 0 0 0 4.306 12.5 C 4.006 12.8 3.906 13.2 3.606 13.6 L 3.306 14.4 A 2.953 2.953 0 0 0 3.11 14.812 C 2.922 15.304 2.907 15.763 2.906 16.27 A 57.507 57.507 0 0 0 2.906 16.4 L 2.906 18.7 C 3.206 20 3.506 21.3 4.006 22.6 A 1.513 1.513 0 0 0 4.252 23.117 C 4.353 23.257 4.482 23.392 4.638 23.515 A 2.508 2.508 0 0 0 4.906 23.7 A 0.645 0.645 0 0 0 4.937 23.757 C 5.016 23.881 5.095 23.881 5.174 23.756 A 0.645 0.645 0 0 0 5.206 23.7 A 12.105 12.105 0 0 0 5.401 23.044 C 5.544 22.518 5.659 22.03 5.863 21.581 A 3.392 3.392 0 0 1 6.006 21.3 C 6.081 20.998 6.214 20.753 6.403 20.608 A 0.692 0.692 0 0 1 6.606 20.5 C 7.006 20.2 7.506 20.4 7.906 20.4 L 10.106 20.6 A 3.388 3.388 0 0 1 10.353 20.612 C 11.33 20.687 13.827 21.094 14.395 21.1 A 1.166 1.166 0 0 0 14.406 21.1 L 18.306 22 A 13.278 13.278 0 0 1 19.506 22.188 C 19.831 22.259 20.156 22.354 20.481 22.495 A 4.509 4.509 0 0 1 20.706 22.6 A 19.969 19.969 0 0 1 21.484 22.902 C 22.225 23.206 22.881 23.525 23.706 23.9 L 26.206 25 C 27.036 25.461 27.865 25.922 28.695 26.54 A 12.544 12.544 0 0 1 28.906 26.7 C 30.106 27.4 31.206 28.2 32.306 29 A 24.777 24.777 0 0 0 33.232 29.678 C 33.389 29.789 33.547 29.9 33.706 30.013 A 16.203 16.203 0 0 1 35.106 31.1 C 35.806 31.8 36.506 32 37.306 32.7 A 1.69 1.69 0 0 0 37.442 32.827 C 37.473 32.852 37.505 32.872 37.537 32.885 A 0.183 0.183 0 0 0 37.606 32.9 L 38.206 32.9 L 39.306 32.9 L 39.406 32.9 L 49.506 32.9 L 49.606 32.9 L 49.906 32.9 A 43.19 43.19 0 0 0 50.129 32.9 C 50.981 32.895 50.858 32.834 51.506 32 L 53.506 29.1 A 0.671 0.671 0 0 1 53.536 29.045 C 53.62 28.912 53.703 28.91 53.786 28.982 A 0.371 0.371 0 0 1 53.806 29 C 54.904 29.3 55.803 29.499 56.602 30.297 A 4.058 4.058 0 0 1 56.606 30.3 A 11.532 11.532 0 0 0 57.623 31.199 A 27.43 27.43 0 0 0 58.706 32 C 59.12 32.248 59.603 32.428 60.04 32.483 A 2.155 2.155 0 0 0 60.306 32.5 L 72.106 32.5 A 1.856 1.856 0 0 1 72.154 32.501 C 72.474 32.509 73.101 32.585 73.006 32.3 C 72.706 31.5 72.406 31 72.206 30.7 L 70.206 27.3 C 70.014 26.821 69.822 26.341 69.542 26.038 A 1.327 1.327 0 0 0 69.506 26 A 0.327 0.327 0 0 0 69.401 25.954 C 69.004 25.825 67.593 25.563 66.106 25.3 A 38.082 38.082 0 0 0 64.323 24.98 A 22.754 22.754 0 0 0 62.806 24.8 Z M 84.29 80.963 A 0.151 0.151 0 0 0 84.302 80.932 A 0.128 0.128 0 0 0 84.306 80.9 C 84.806 78.3 87.706 71 82.906 58.8 C 82.466 57.731 81.907 56.583 81.179 55.355 A 31.565 31.565 0 0 0 79.706 53.1 L 78.706 51.7 L 80.106 53.2 A 31.518 31.518 0 0 1 85.554 62.017 C 86.21 63.585 86.736 65.153 87.13 66.653 A 28.644 28.644 0 0 1 87.806 70 A 40.161 40.161 0 0 1 87.809 70.031 C 88.944 80.854 85.044 86.327 82.598 88.978 A 31.178 31.178 0 0 1 81.706 89.9 L 80.206 91.1 A 11.603 11.603 0 0 1 80.042 91.181 C 79.903 91.248 79.778 91.3 79.706 91.3 A 0.193 0.193 0 0 0 79.788 91.279 C 79.825 91.262 79.861 91.235 79.898 91.203 A 2.214 2.214 0 0 0 80.006 91.1 A 1.788 1.788 0 0 0 80.086 91.014 C 80.222 90.86 80.31 90.702 80.377 90.529 A 3.616 3.616 0 0 0 80.506 90.1 C 80.606 89.4 80.306 89.4 80.606 89 A 74.087 74.087 0 0 1 74.015 94.234 C 66.303 99.67 59.856 101.967 57.905 102.546 A 4.632 4.632 0 0 1 57.306 102.7 L 58.106 102.2 A 14.904 14.904 0 0 0 58.495 102.07 C 60.488 101.371 59.741 100.984 67.006 95.7 A 6.453 6.453 0 0 0 67.018 95.7 C 67.094 95.7 67.104 95.697 67.106 95.633 A 1.701 1.701 0 0 0 67.106 95.6 A 41.839 41.839 0 0 0 69.465 94.204 A 44.837 44.837 0 0 0 75.906 89.2 A 69.052 69.052 0 0 0 77.43 87.839 A 35.727 35.727 0 0 0 78.406 86.9 L 79.106 86.1 L 78.906 87 A 6.491 6.491 0 0 0 78.817 87.217 C 78.605 87.767 78.595 88.044 78.506 88.4 L 78.406 88.5 L 78.706 88.2 C 79.806 86.7 81.706 84.1 83.606 80 A 2.303 2.303 0 0 1 83.671 79.785 C 83.737 79.602 83.817 79.439 83.889 79.284 A 2.799 2.799 0 0 0 84.006 79 C 84.006 79.23 84.064 79.518 84.092 79.775 A 2.147 2.147 0 0 1 84.106 80 C 84.106 80.375 84.106 80.694 84.148 80.914 A 0.726 0.726 0 0 0 84.206 81.1 L 84.206 81.3 A 1.319 1.319 0 0 1 84.206 81.295 C 84.206 81.132 84.237 81.059 84.264 81.009 A 2.136 2.136 0 0 1 84.281 80.979 M 9.606 86.9 L 8.806 86.1 A 10.264 10.264 0 0 0 8.808 86.109 C 8.903 86.489 8.998 86.778 9.005 86.977 A 0.648 0.648 0 0 1 9.006 87 L 9.506 88.4 L 9.506 88.5 A 1.69 1.69 0 0 1 9.379 88.364 C 9.354 88.332 9.333 88.301 9.321 88.269 A 0.183 0.183 0 0 1 9.306 88.2 A 169.51 169.51 0 0 1 8.438 87.016 C 7.347 85.504 5.877 83.324 4.449 80.305 A 42.323 42.323 0 0 1 4.306 80 L 4.006 79 A 0.798 0.798 0 0 0 3.937 79.226 C 3.916 79.354 3.909 79.511 3.907 79.707 A 28.057 28.057 0 0 0 3.906 80 C 3.806 80.3 3.806 80.7 3.806 81.1 L 3.806 81.3 C 3.713 81.022 3.621 80.916 3.607 80.902 A 0.071 0.071 0 0 0 3.606 80.9 A 16.708 16.708 0 0 0 3.422 80.093 C 2.714 77.218 0.957 71.047 4.052 61.462 A 45.213 45.213 0 0 1 5.006 58.8 C 5.597 57.395 6.244 56.044 7.147 54.627 A 24.385 24.385 0 0 1 8.206 53.1 L 9.206 51.7 L 7.906 53.2 A 32.335 32.335 0 0 0 2.379 62.017 C 1.191 64.804 0.442 67.592 0.206 70 A 37.857 37.857 0 0 0 0.052 71.914 C -0.502 82.055 3.544 87.049 5.801 89.387 A 39.805 39.805 0 0 0 6.306 89.9 A 88.951 88.951 0 0 0 6.669 90.262 C 7.152 90.739 7.462 91.019 7.706 91.1 C 7.906 91.2 8.106 91.3 8.306 91.3 A 0.235 0.235 0 0 1 8.258 91.294 C 8.168 91.275 8.039 91.21 7.949 91.138 A 0.535 0.535 0 0 1 7.906 91.1 A 1.604 1.604 0 0 1 7.668 90.801 C 7.54 90.592 7.473 90.369 7.406 90.1 C 7.31 89.431 7.489 89.401 7.417 89.051 A 1.177 1.177 0 0 0 7.406 89 A 74.094 74.094 0 0 0 14.474 94.568 C 22.028 99.804 28.274 102.013 30.081 102.559 A 4.893 4.893 0 0 0 30.606 102.7 L 29.806 102.2 C 27.406 101.4 28.506 101.4 20.906 95.7 A 1.701 1.701 0 0 1 20.873 95.7 C 20.809 95.699 20.806 95.689 20.806 95.612 A 6.453 6.453 0 0 1 20.806 95.6 C 17.706 93.9 14.706 91.7 12.006 89.2 C 11.546 88.872 11.044 88.415 10.499 87.856 A 32.113 32.113 0 0 1 9.606 86.9 Z M 27.206 9.3 L 27.206 9.4 L 33.806 9.2 L 27.206 9.9 A 1.645 1.645 0 0 1 26.802 10.984 A 2.856 2.856 0 0 1 26.606 11.2 A 11.737 11.737 0 0 1 26.276 11.518 C 25.5 12.236 24.906 12.517 23.689 12.583 A 12.561 12.561 0 0 1 23.006 12.6 A 4.622 4.622 0 0 1 22.857 12.605 C 21.09 12.641 20.798 11.579 20.506 10.8 A 3.79 3.79 0 0 0 20.502 10.637 C 20.484 10.23 20.418 9.65 20.506 9.3 C 20.506 9.005 20.699 8.903 20.991 8.9 A 1.316 1.316 0 0 1 21.006 8.9 L 21.506 8.9 L 39.506 8.2 L 27.206 9.3 Z M 39.906 92.7 L 40.206 94.4 L 40.406 95.6 L 40.806 97.7 L 41.106 99.4 C 41.179 99.911 41.199 100.423 41.321 100.973 A 4.638 4.638 0 0 0 41.506 101.6 L 41.806 103.8 C 42.106 104.5 42.106 105.3 42.206 106.1 L 42.506 108.1 A 6.659 6.659 0 0 1 42.638 108.69 C 42.78 109.488 42.763 110.143 42.992 110.858 A 3.894 3.894 0 0 0 43.006 110.9 C 43.1 111.561 43.284 112.043 44.061 112.348 A 2.993 2.993 0 0 0 44.206 112.4 L 44.206 90.5 L 39.606 90.5 A 17.287 17.287 0 0 0 39.606 90.604 C 39.607 90.695 39.609 90.764 39.617 90.819 A 0.296 0.296 0 0 0 39.706 91 L 39.906 92.7 Z M 46.506 107.3 L 46.806 105.5 L 47.106 103.9 L 47.406 102.2 A 3.71 3.71 0 0 1 47.439 101.709 C 47.5 101.25 47.631 100.875 47.706 100.5 L 48.006 98.3 L 48.306 96.6 L 48.606 94.9 L 48.906 93.1 C 49.006 92.4 49.006 91.7 49.306 91 A 17.287 17.287 0 0 1 49.306 90.896 C 49.307 90.805 49.309 90.736 49.317 90.681 A 0.296 0.296 0 0 1 49.406 90.5 L 44.806 90.5 L 44.806 112.4 A 2.599 2.599 0 0 0 45.235 112.171 C 45.416 112.049 45.555 111.912 45.66 111.756 A 1.629 1.629 0 0 0 45.906 111.1 C 45.996 110.466 46.005 109.831 46.229 109.197 A 3.233 3.233 0 0 1 46.306 109 A 6.264 6.264 0 0 1 46.312 108.712 C 46.336 108.202 46.421 107.896 46.506 107.3 Z M 49.906 86.1 L 39.106 86.1 A 11.548 11.548 0 0 1 39.088 86.118 C 39.005 86.2 39 86.2 38.906 86.2 A 0.408 0.408 0 0 0 38.754 86.16 C 38.595 86.148 38.403 86.203 38.205 86.267 A 17.081 17.081 0 0 0 38.106 86.3 C 37.506 86.4 37.006 86.7 36.706 87.2 C 36.406 87.7 36.506 88.1 36.806 88.6 C 37.056 88.85 37.375 89.17 37.88 89.269 A 1.679 1.679 0 0 0 38.206 89.3 A 0.798 0.798 0 0 0 38.432 89.369 C 38.56 89.39 38.717 89.397 38.913 89.399 A 28.057 28.057 0 0 0 39.206 89.4 L 39.306 89.4 L 49.506 89.4 L 49.706 89.4 C 50.206 89.4 50.506 89.4 50.706 89.3 A 1.572 1.572 0 0 0 51.022 89.27 C 51.293 89.214 51.511 89.086 51.754 88.912 A 9.196 9.196 0 0 0 51.906 88.8 A 1.979 1.979 0 0 0 52.225 88.382 C 52.339 88.18 52.406 87.973 52.406 87.8 C 52.406 86.965 51.975 86.474 51.033 86.328 A 3.626 3.626 0 0 0 50.806 86.3 C 50.715 86.209 50.542 86.201 50.436 86.2 A 3.989 3.989 0 0 0 50.406 86.2 A 17.287 17.287 0 0 1 50.302 86.2 C 50.211 86.199 50.142 86.197 50.087 86.189 A 0.296 0.296 0 0 1 49.906 86.1 Z M 44.406 80.1 L 47.506 77.6 L 44.406 75.2 L 41.206 77.6 L 44.406 80.1 Z M 44.406 75 L 47.506 72.5 L 44.406 70.1 L 41.206 72.5 L 44.406 75 Z M 44.406 69.9 L 47.506 67.5 L 44.406 65 L 41.206 67.5 L 44.406 69.9 Z M 44.406 64.8 L 47.506 62.4 L 44.406 59.9 L 41.206 62.4 L 44.406 64.8 Z M 44.306 85.1 L 44.506 85.1 L 47.506 82.7 L 44.406 80.3 L 41.206 82.7 L 44.306 85.1 Z M 44.406 39.6 L 41.206 42 L 44.406 44.4 L 47.506 42 L 44.406 39.6 Z M 44.406 54.6 L 47.506 52.2 L 44.406 49.8 L 41.206 52.2 L 44.406 54.6 Z M 44.406 49.5 L 47.506 47.1 L 44.406 44.7 L 41.206 47.1 L 44.406 49.5 Z M 44.406 59.7 L 47.506 57.3 L 44.406 54.9 L 41.206 57.3 L 44.406 59.7 Z M 43.406 35.2 L 41.206 36.9 L 44.406 39.3 L 47.506 36.9 L 45.406 35.2 L 43.406 35.2 Z M 49.806 69.2 L 47.706 67.6 L 44.606 70 L 47.706 72.4 L 49.806 70.8 L 49.806 69.2 Z M 49.806 79.4 L 47.706 77.8 L 44.606 80.2 L 47.706 82.6 L 49.806 81 L 49.806 79.4 Z M 49.806 64.1 L 47.706 62.5 L 44.606 64.9 L 47.706 67.3 L 49.806 65.7 L 49.806 64.1 Z M 49.806 74.3 L 47.706 72.7 L 44.606 75.1 L 47.706 77.5 L 49.806 75.9 L 49.806 74.3 Z M 49.806 48.8 L 47.706 47.2 L 44.606 49.6 L 47.706 52 L 49.806 50.4 L 49.806 48.8 Z M 49.806 53.9 L 47.706 52.3 L 44.606 54.7 L 47.706 57.1 L 49.806 55.5 L 49.806 53.9 Z M 49.806 59 L 47.706 57.4 L 44.606 59.8 L 47.706 62.2 L 49.806 60.6 L 49.806 59 Z M 49.806 43.8 L 47.706 42.1 L 44.606 44.5 L 47.706 46.9 L 49.806 45.3 L 49.806 43.8 Z M 49.806 38.7 L 47.706 37 L 44.606 39.4 L 47.706 41.8 L 49.806 40.2 L 49.806 38.7 Z M 39.106 45.4 L 41.106 46.9 L 44.206 44.5 L 41.106 42.1 L 39.106 43.6 L 39.106 45.4 Z M 39.106 40.3 L 41.106 41.8 L 44.206 39.4 L 41.106 37 L 39.106 38.5 L 39.106 40.3 Z M 39.106 65.8 L 41.106 67.3 L 44.206 64.9 L 41.106 62.5 L 39.106 64 L 39.106 65.8 Z M 39.106 70.9 L 41.106 72.4 L 44.206 70 L 41.106 67.6 L 39.106 69.1 L 39.106 70.9 Z M 39.106 81.1 L 41.106 82.6 L 44.206 80.2 L 41.106 77.8 L 39.106 79.3 L 39.106 81.1 Z M 39.106 76 L 41.106 77.5 L 44.206 75.1 L 41.106 72.7 L 39.106 74.2 L 39.106 76 Z M 39.106 60.7 L 41.106 62.2 L 44.206 59.8 L 41.106 57.4 L 39.106 58.9 L 39.106 60.7 Z M 39.106 55.6 L 41.106 57.1 L 44.206 54.7 L 41.106 52.3 L 39.106 53.8 L 39.106 55.6 Z M 39.106 50.5 L 41.106 52 L 44.206 49.6 L 41.106 47.2 L 39.106 48.7 L 39.106 50.5 Z M 49.806 84.5 L 47.706 82.9 L 44.906 85.1 L 49.806 85.1 L 49.806 84.5 Z M 39.106 85.1 L 43.906 85.1 L 41.106 82.9 L 39.106 84.4 L 39.106 85.1 Z M 47.706 36.7 L 49.706 35.2 L 45.706 35.2 L 47.706 36.7 Z M 39.106 35.2 L 41.106 36.7 L 43.006 35.2 L 39.106 35.2 Z M 49.806 65.9 L 47.906 67.5 L 49.806 69 L 49.806 65.9 Z M 49.806 81.2 L 47.906 82.7 L 49.806 84.2 L 49.806 81.2 Z M 49.806 71 L 47.906 72.5 L 49.806 74 L 49.806 71 Z M 49.806 76.1 L 47.906 77.6 L 49.806 79.1 L 49.806 76.1 Z M 49.806 50.7 L 47.906 52.2 L 49.806 53.7 L 49.806 50.7 Z M 49.806 60.9 L 47.906 62.4 L 49.806 63.9 L 49.806 60.9 Z M 49.806 55.8 L 47.906 57.3 L 49.806 58.8 L 49.806 55.8 Z M 49.806 45.6 L 47.906 47.1 L 49.806 48.6 L 49.806 45.6 Z M 49.806 35.4 L 47.906 36.9 L 49.806 38.4 L 49.806 35.4 Z M 49.806 40.5 L 47.906 42 L 49.806 43.5 L 49.806 40.5 Z M 39.106 73.9 L 40.906 72.5 L 39.106 71.2 L 39.106 73.9 Z M 39.106 53.5 L 40.906 52.2 L 39.106 50.8 L 39.106 53.5 Z M 39.106 48.4 L 40.906 47.1 L 39.106 45.7 L 39.106 48.4 Z M 39.106 38.2 L 40.906 36.9 L 39.106 35.5 L 39.106 38.2 Z M 39.106 43.3 L 40.906 42 L 39.106 40.6 L 39.106 43.3 Z M 39.106 79 L 40.906 77.6 L 39.106 76.3 L 39.106 79 Z M 39.106 63.7 L 40.906 62.4 L 39.106 61 L 39.106 63.7 Z M 39.106 68.8 L 40.906 67.5 L 39.106 66.1 L 39.106 68.8 Z M 39.106 58.6 L 40.906 57.3 L 39.106 55.9 L 39.106 58.6 Z M 39.106 84.1 L 40.906 82.7 L 39.106 81.4 L 39.106 84.1 Z M 53.813 29.002 A 40.81 40.81 0 0 1 53.81 29.001" id="0"/></g></svg>