<svg width="174.401" height="100" viewBox="0 0 174.401 100"><g id="stasis_warlock_super" fill-rule="evenodd"><title>stasis_warlock_super</title><path unicode="E085" d="M 147.2 50 L 139.4 49.9 L 136.4 48.1 L 139.3 48.8 L 145.5 49 C 145.6 49.1 153.2 46.2 153.2 46.2 L 142.1 45.5 L 135.4 45.5 A 95.584 95.584 0 0 1 134.785 45.498 C 132.56 45.483 127.595 45.406 125.528 45.4 A 82.61 82.61 0 0 0 125.3 45.4 L 129.7 36.9 L 120.6 42.4 L 117.4 45 A 89.331 89.331 0 0 1 115.163 44.775 C 114.006 44.64 113.008 44.479 112.255 44.249 A 6.294 6.294 0 0 1 112.1 44.2 A 573.174 573.174 0 0 1 110.943 43.91 C 106.894 42.888 107.142 42.894 107.194 42.899 A 0.189 0.189 0 0 1 107.2 42.9 L 109 42 C 109 42 115.9 37 115.3 35.5 A 15.213 15.213 0 0 0 114.585 35.752 C 111.718 36.833 106.1 39.6 106.1 39.6 C 106.1 39.6 100.2 40.9 97.3 40.9 C 95.709 40.9 91.314 40.812 87.641 40.637 A 151.715 151.715 0 0 1 86.9 40.6 A 131.947 131.947 0 0 0 89.245 38.706 C 91.425 36.906 93 35.5 93 35.5 A 10.494 10.494 0 0 1 93.056 35.482 C 93.688 35.279 99.534 33.44 102.283 33.997 A 3.957 3.957 0 0 1 102.3 34 C 104.3 34.5 107 33.7 108.4 33.2 C 109.094 33.002 110.87 28.967 110.802 28.901 A 0.003 0.003 0 0 0 110.8 28.9 L 104.4 30 L 92 28.4 L 77.8 36.3 L 72.3 44 L 72 42.4 L 75.5 35.9 L 74.1 25.2 L 72.9 26.1 C 72.9 26.1 67.7 38.6 67.2 38.9 A 1.687 1.687 0 0 0 66.976 39.103 C 65.965 40.133 62.682 44.309 60.4 44.4 C 58.563 44.477 56.959 44.553 55.815 44.63 A 39.453 39.453 0 0 0 54.9 44.7 A 1.035 1.035 0 0 0 54.675 44.737 C 53.879 44.934 51.7 45.849 49.852 45.898 A 5.743 5.743 0 0 1 49.7 45.9 A 43.451 43.451 0 0 1 48.293 45.879 C 46.489 45.82 45.287 45.639 44.403 45.336 A 5.862 5.862 0 0 1 44.3 45.3 A 2.721 2.721 0 0 0 43.205 45.006 A 3.463 3.463 0 0 0 43 45 L 32.6 44.6 A 516.355 516.355 0 0 1 29.439 44.48 C 22.241 44.184 16.488 43.813 16.4 43.9 L 6 45.2 L 5.2 46.4 A 243.88 243.88 0 0 0 5.236 46.406 C 5.564 46.457 8.028 46.841 8.443 46.894 A 0.729 0.729 0 0 0 8.5 46.9 A 3.641 3.641 0 0 1 8.672 46.917 C 10.083 47.069 19.613 48.22 20.945 48.381 A 2456.527 2456.527 0 0 1 21.1 48.4 L 10.7 49.3 L 6.4 50.6 L 25.1 52.1 L 11.8 53 L 0 53.1 L 6.8 54.8 L 17.1 56.1 C 17.2 56.2 24 55.7 32.6 55.4 L 43 55 C 43.5 55 43.9 54.9 44.3 54.7 C 45.398 54.301 46.995 54.101 49.686 54.1 A 34.126 34.126 0 0 1 49.7 54.1 C 51.8 54.1 54.4 55.3 54.9 55.3 A 39.453 39.453 0 0 0 55.815 55.37 C 56.517 55.417 57.391 55.464 58.386 55.511 A 369.383 369.383 0 0 0 60.4 55.6 C 62.711 55.692 66.046 59.97 67.012 60.934 A 1.439 1.439 0 0 0 67.2 61.1 A 0.627 0.627 0 0 1 67.337 61.277 C 68.231 62.729 72.266 72.379 72.833 73.74 A 211.496 211.496 0 0 1 72.9 73.9 L 74.1 74.8 L 75.5 64.1 L 72 57.6 L 72.3 56 L 77.8 63.7 L 92 71.6 L 104.4 70 L 110.8 71.1 A 0.005 0.005 0 0 0 110.804 71.094 C 110.82 70.922 109.136 67.111 108.431 66.811 A 0.266 0.266 0 0 0 108.4 66.8 C 107 66.3 104.3 65.5 102.3 66 C 99.4 66.6 93 64.5 93 64.5 C 93 64.5 91.477 63.14 89.353 61.383 A 132.677 132.677 0 0 0 86.9 59.4 A 165.623 165.623 0 0 1 88.403 59.328 C 91.376 59.199 94.652 59.125 96.478 59.105 A 79.783 79.783 0 0 1 97.3 59.1 A 14.076 14.076 0 0 1 98.252 59.136 C 101.119 59.333 105.477 60.265 106.04 60.387 A 21.547 21.547 0 0 1 106.1 60.4 A 62.026 62.026 0 0 0 106.198 60.448 C 107.017 60.849 112.763 63.652 115.169 64.457 A 10.442 10.442 0 0 0 115.3 64.5 C 115.9 63 109 58 109 58 L 107.2 57.1 A 0.189 0.189 0 0 1 107.194 57.101 C 107.141 57.106 106.885 57.112 111.174 56.032 A 596.19 596.19 0 0 1 112.1 55.8 A 9.445 9.445 0 0 1 113.27 55.506 C 114.217 55.322 115.38 55.19 116.671 55.068 A 173.017 173.017 0 0 1 117.4 55 L 120.6 57.6 L 129.7 63.1 L 125.3 54.6 A 124.156 124.156 0 0 0 126.092 54.597 C 128.407 54.582 132.806 54.515 134.829 54.502 A 92.104 92.104 0 0 1 135.4 54.5 L 142.1 54.5 L 147.2 53.9 L 160.4 52.7 L 173.8 52.6 L 174.4 51.9 A 0.011 0.011 0 0 1 174.401 51.905 C 174.401 52.077 168.799 50.799 168.7 50.7 C 168.607 50.7 149.929 50.089 147.467 50.009 A 145113.91 145113.91 0 0 1 147.2 50 Z M 136.1 34.1 L 136.7 34.1 C 130.1 14.3 111.4 0 89.3 0 C 67.3 0 48.6 14.3 42 34.1 L 42.6 34.1 A 46.035 46.035 0 0 1 64.621 12.276 A 56.293 56.293 0 0 1 89.3 6.7 A 56.354 56.354 0 0 1 115.264 12.881 A 45.717 45.717 0 0 1 136.1 34.1 Z M 136.1 65.9 L 136.7 65.9 C 130.1 85.7 111.4 100 89.3 100 C 67.3 100 48.6 85.7 42 65.9 L 42.6 65.9 A 46.035 46.035 0 0 0 64.621 87.724 A 56.293 56.293 0 0 0 89.3 93.3 A 56.354 56.354 0 0 0 115.264 87.119 A 45.717 45.717 0 0 0 136.1 65.9 Z M 65.2 71.6 L 55.8 85.3 L 31.7 99.4 L 49.6 79.7 L 65.2 71.6 Z M 65.2 28.4 L 55.8 14.7 L 31.7 0.6 L 49.6 20.3 L 65.2 28.4 Z M 113.5 28.4 L 122.9 14.7 L 147 0.6 L 129 20.3 L 113.5 28.4 Z M 113.5 71.6 L 122.9 85.3 L 147 99.4 L 129 79.7 L 113.5 71.6 Z M 51 1.6 L 53.1 8.7 L 65.6 18.8 L 57.1 4.7 L 51 1.6 Z M 51 98.4 L 53.1 91.3 L 65.6 81.2 L 57.1 95.3 L 51 98.4 Z M 127.7 1.6 L 125.6 8.7 L 113.1 18.8 L 121.6 4.7 L 127.7 1.6 Z M 127.7 98.4 L 125.6 91.3 L 113.1 81.2 L 121.6 95.3 L 127.7 98.4 Z M 72.9 6 L 79.8 25 L 70.4 7.3 L 72.9 6 Z M 84.6 82.9 L 83.7 94.7 L 80.5 97.1 L 77.5 93 L 83.2 82.6 L 84.6 82.9 Z M 107.4 13.7 L 100.4 24 L 102.7 14.7 L 107.4 13.7 Z"/></g></svg>