<svg width="256.6" height="57.1" viewBox="0 0 256.6 57.1"><g id="stasis_titan_spear" fill-rule="evenodd"><title>stasis_titan_spear</title><path unicode="E092" d="M 84 18.2 L 98.6 0 L 71.3 18.8 L 60.8 22.9 L 47 23.9 L 27 16.2 L 33.7 22.9 L 14.5 20 L 22.7 24.8 L 0 28.6 L 22.7 32.3 L 14.5 37.1 L 33.7 34.2 L 27 40.9 L 47 33.2 L 60.8 34.2 L 71.3 38.3 L 98.6 57.1 L 84 38.9 L 110.4 53.3 L 100 40.1 L 115.8 46.4 L 99.4 28.6 L 115.8 10.7 L 100 17 L 110.4 3.8 L 84 18.2 Z M 122.1 14.3 L 106.4 28.6 L 122.1 42.8 L 129.1 42.3 A 4824.401 4824.401 0 0 1 131.714 42.552 C 142.425 43.588 158.8 45.2 158.8 45.2 L 148.4 40.7 L 184.1 37.8 L 256.6 28.6 L 184.1 19.3 L 148.4 16.4 L 158.8 11.9 A 8106.915 8106.915 0 0 1 158.401 11.939 C 155.59 12.216 138.618 13.885 129.1 14.8 L 122.1 14.3 Z"/></g></svg>