<svg width="111.8" height="103.6" viewBox="0 0 111.8 103.6"><g id="stasis_titan_super" fill-rule="evenodd"><title>stasis_titan_super</title><path unicode="E083" d="M 65.9 70.3 L 62.7 67.8 L 62.7 53.6 L 67.1 48.5 L 62.7 43.4 L 62.7 0 L 61.2 0 C 60.924 6.632 59.375 15.129 56.632 17.836 A 3.483 3.483 0 0 1 55.9 18.4 A 4.911 4.911 0 0 1 54.258 16.666 C 52.081 13.174 50.844 5.859 50.6 0 L 49.1 0 L 49.1 43.4 L 44.7 48.5 L 49.1 53.6 L 49.1 67.8 L 45.9 70.3 L 33.1 62.2 L 39.6 75 L 46.6 79.4 L 55.9 71.5 L 65.3 79.4 L 72.2 75 L 78.7 62.2 L 65.9 70.3 Z M 92.8 63.8 L 83.6 72.3 L 55.9 89.6 L 28.3 72.3 L 19 63.8 L 18.7 63.9 L 18.7 67.5 L 55.9 103.6 L 93.1 67.5 L 93.1 63.9 L 92.8 63.8 Z M 91.8 1.2 L 73.5 51.3 L 74.3 59.2 L 79.3 55.3 L 90.3 32.5 L 92.3 9.3 L 91.8 1.2 Z M 19.5 9.3 L 21.6 32.5 L 32.5 55.3 L 37.5 59.2 L 38.3 51.3 L 20 1.2 L 19.5 9.3 Z M 43.5 47.7 L 47.4 42.7 L 43.4 10.7 L 40.8 18.3 L 43.5 47.7 Z M 68.3 47.7 L 64.4 42.7 L 68.5 10.7 L 71 18.3 L 68.3 47.7 Z M 98.2 34.6 L 94.4 40.2 L 86.1 55.3 L 85.7 59.7 A 0.21 0.21 0 0 0 85.791 59.862 A 0.189 0.189 0 0 0 85.9 59.9 L 90.3 59.6 L 97.9 49.1 L 102.3 28.7 L 98.2 34.6 Z M 9.5 28.7 L 13.9 49.1 L 21.6 59.6 L 25.9 59.9 A 0.21 0.21 0 0 0 26.062 59.809 A 0.189 0.189 0 0 0 26.1 59.7 L 25.7 55.3 L 17.4 40.2 L 13.6 34.6 L 9.5 28.7 Z M 80.6 98.8 L 89.7 90.6 L 79 92.1 L 65.5 103.6 L 80.6 98.8 Z M 31.3 98.8 L 22.1 90.6 L 32.8 92.1 L 46.3 103.6 L 31.3 98.8 Z M 9.3 82.9 L 1.9 77.6 L 0 71.5 L 14.7 75.4 L 15.4 80.1 L 9.3 82.9 Z M 102.5 82.9 L 109.9 77.6 L 111.8 71.5 L 97.1 75.4 L 96.4 80.1 L 102.5 82.9 Z M 89.8 95.3 L 105.6 88.2 L 93.3 86.1 C 93.5 86.2 89.8 95.3 89.8 95.3 Z M 22 95.3 L 6.3 88.2 L 18.5 86.1 C 18.313 86.194 21.541 94.169 21.956 95.192 A 167.896 167.896 0 0 0 22 95.3 Z M 19.3 79.6 L 31.3 86 L 26.1 88.7 L 19.3 79.6 Z M 92.5 79.6 L 80.6 86 L 85.7 88.7 L 92.5 79.6 Z" id="0"/></g></svg>