<svg width="109.7" height="109.894" viewBox="0 0 109.7 109.894"><g id="stasis_hunter_melee" fill-rule="evenodd"><title>stasis_hunter_melee</title><path unicode="E087" d="M 63 33.894 A 1.093 1.093 0 0 1 62.993 33.88 C 62.937 33.772 62.564 33.026 62.627 32.435 A 0.812 0.812 0 0 1 62.8 31.994 A 0.496 0.496 0 0 1 62.931 31.878 C 63.362 31.617 64.121 32.048 64.194 32.09 A 0.59 0.59 0 0 1 64.2 32.094 L 72 44.394 L 78.2 34.894 L 80.8 45.294 L 85.4 41.194 C 85.4 41.194 87.87 38.325 94.02 37.638 A 24.191 24.191 0 0 1 96.4 37.494 C 98.797 37.411 100.647 38.011 102.967 39.351 A 36.698 36.698 0 0 1 104.5 40.294 A 0.935 0.935 0 0 1 104.514 40.302 C 105.373 40.798 108.272 44.191 108.658 44.644 A 29.054 29.054 0 0 1 108.7 44.694 L 108.6 39.894 L 106.7 34.994 L 97.1 31.094 L 95.1 31.894 L 87.4 27.194 L 84.9 28.294 L 63.2 25.794 L 52 34.294 L 42.4 35.094 C 42.213 35.187 40.098 37.209 39.828 37.467 A 63.196 63.196 0 0 0 39.8 37.494 L 30.6 43.794 L 45.6 41.394 A 4.543 4.543 0 0 1 45.618 41.396 C 45.794 41.417 47.197 41.595 47.02 41.777 A 0.123 0.123 0 0 1 47 41.794 L 40.7 47.994 L 32.8 58.994 L 33.2 59.594 L 47.3 49.094 A 109.153 109.153 0 0 1 47.364 49.061 C 47.972 48.752 52.701 46.353 52.701 46.489 A 0.011 0.011 0 0 1 52.7 46.494 A 90.814 90.814 0 0 0 52.383 46.958 C 51.313 48.535 49.62 51.111 49.264 51.686 A 1.916 1.916 0 0 0 49.2 51.794 C 48.7 52.794 46.6 56.094 47.1 56.594 A 0.139 0.139 0 0 0 47.167 56.632 C 48.099 56.934 57.062 55.037 58.102 54.815 A 72.007 72.007 0 0 0 58.2 54.794 L 67.8 61.594 L 63 33.894 L 62.3 33.994 L 64.3 51.394 C 64.3 51.394 64.009 57.411 63.905 57.303 A 0.025 0.025 0 0 1 63.9 57.294 C 63 55.694 61.1 51.894 61 51.794 C 60.507 50.808 58.653 47.392 57.93 47.392 A 0.214 0.214 0 0 0 57.9 47.394 C 57.3 47.594 53.9 57.994 53.9 57.994 L 43.2 62.894 L 69.6 72.594 L 69.9 71.894 L 53.8 64.894 A 91.505 91.505 0 0 1 53.739 64.855 C 53.168 64.492 48.799 61.708 48.889 61.597 A 0.014 0.014 0 0 1 48.9 61.594 A 100.705 100.705 0 0 1 49.463 61.625 C 51.352 61.735 54.444 61.954 55.011 61.989 A 2.881 2.881 0 0 0 55.1 61.994 C 56.162 61.994 59.338 62.072 60.194 61.674 A 0.358 0.358 0 0 0 60.4 61.494 C 60.7 60.794 53.3 52.694 53.3 52.694 L 54.4 40.994 L 32.8 58.994 M 32.8 58.994 A 1.273 1.273 0 0 1 32.788 59.013 C 32.685 59.172 31.943 60.279 31.2 60.094 C 30.638 60.094 30.602 59.039 30.6 58.907 A 0.907 0.907 0 0 1 30.6 58.894 L 37.4 45.994 L 26 45.294 L 33.8 37.894 L 27.9 35.894 A 2.726 2.726 0 0 1 27.722 35.85 C 26.838 35.606 22.824 34.215 19.2 28.294 C 17.7 25.794 17.4 23.594 17.6 19.794 C 17.6 18.794 19.3 14.094 19.3 14.094 L 15.2 16.494 L 11.9 20.594 L 13.3 30.894 L 15.1 32.194 L 14.7 41.194 L 17 42.794 L 25.7 62.894 L 38.6 68.294 L 44.1 76.194 A 0.275 0.275 0 0 0 44.162 76.234 C 44.652 76.493 47.5 77.294 47.5 77.294 L 57.5 82.094 L 48 70.294 C 48 70.294 47.325 68.848 47.679 68.89 A 0.167 0.167 0 0 1 47.7 68.894 L 56.2 71.294 L 69.6 72.594 L 43.2 62.894 M 69.6 72.594 A 1.618 1.618 0 0 1 69.629 72.596 C 69.792 72.61 70.612 72.697 71.095 73.04 A 0.861 0.861 0 0 1 71.4 73.394 A 0.528 0.528 0 0 1 71.412 73.434 C 71.547 73.982 70.707 74.438 70.609 74.489 A 0.693 0.693 0 0 1 70.6 74.494 L 56 75.094 L 61.2 85.294 L 50.9 82.294 L 52.1 88.394 C 52.1 88.394 53.6 92.894 49.9 99.694 C 48.5 102.194 46.6 103.594 43.3 105.394 A 1.533 1.533 0 0 1 43.272 105.406 C 42.369 105.785 38.149 106.66 37.567 106.78 A 49.035 49.035 0 0 1 37.5 106.794 L 41.7 109.094 L 46.9 109.894 L 55 103.494 L 55.3 101.294 L 63.3 97.094 L 63.5 94.394 L 76.6 76.794 L 74.8 62.894 L 78.9 54.194 A 0.43 0.43 0 0 0 78.894 54.138 C 78.819 53.66 78.1 50.694 78.1 50.694 L 77.3 39.594 L 71.8 53.794 A 5.295 5.295 0 0 1 71.79 53.807 C 71.685 53.942 70.8 55.076 70.8 54.794 L 68.6 46.194 L 63 33.894 M 78.7 16.994 C 81 16.994 83.3 17.194 85.5 17.594 A 0.123 0.123 0 0 0 85.52 17.596 C 85.942 17.596 83.073 14.605 79.585 11.615 A 73.311 73.311 0 0 0 78 10.294 A 16.231 16.231 0 0 1 79.468 10.987 C 83.817 13.296 88.457 17.809 89.397 18.346 A 0.5 0.5 0 0 0 89.5 18.394 C 92.78 19.143 95.708 20.156 98.203 21.186 A 60.913 60.913 0 0 1 98.7 21.394 A 54.059 54.059 0 0 0 84.474 8.463 A 56.201 56.201 0 0 0 82.7 7.394 A 54.722 54.722 0 0 0 62.188 0.441 C 59.878 0.146 57.562 0 55.255 0 A 54.917 54.917 0 0 0 34.7 3.994 C 45.781 2.303 57.479 4.052 68.139 9.572 A 56.74 56.74 0 0 1 70.2 10.694 C 73.3 12.494 76.1 14.694 78.7 16.994 Z M 8.738 50.794 A 90.151 90.151 0 0 0 10.3 53.894 C 9.6 57.294 9.2 60.794 9.2 64.394 A 56.258 56.258 0 0 0 9.315 67.992 A 54.803 54.803 0 0 0 21 98.494 A 55.511 55.511 0 0 1 10.882 88.097 A 54.818 54.818 0 0 1 0 55.194 A 54.742 54.742 0 0 1 0 55.02 A 56.017 56.017 0 0 1 4.1 34.294 A 71.723 71.723 0 0 0 4.815 38.559 A 60.647 60.647 0 0 0 6.1 43.794 A 0.277 0.277 0 0 1 6.108 43.832 C 6.219 44.655 4.508 51.103 4.747 56.187 A 15.771 15.771 0 0 0 4.9 57.794 C 5.771 52.667 7.109 47.447 7.377 47.654 A 0.083 0.083 0 0 1 7.4 47.694 A 42.12 42.12 0 0 0 8.738 50.794 Z M 74.289 97.888 A 52.088 52.088 0 0 0 76.5 94.594 C 79.7 93.494 83 92.194 86.1 90.394 A 56.806 56.806 0 0 0 89.905 87.98 A 54.623 54.623 0 0 0 109.7 63.094 A 55.328 55.328 0 0 1 105.5 77.71 A 54.658 54.658 0 0 1 82.7 102.994 A 54.555 54.555 0 0 1 81.798 103.504 A 53.886 53.886 0 0 1 62.6 109.794 A 89.094 89.094 0 0 0 64.358 108.384 C 66.144 106.912 68 105.244 69.8 103.294 A 1.226 1.226 0 0 1 70.119 103.117 C 71.477 102.519 76.599 101.021 80.421 98.798 A 16.794 16.794 0 0 0 82.5 97.394 A 74.02 74.02 0 0 1 81.529 97.755 C 76.828 99.466 72.126 100.661 72.5 100.194 A 49.483 49.483 0 0 0 74.289 97.888 Z M 83.5 84.694 L 88.9 80.594 L 91.4 74.994 L 89.4 75.194 L 84.6 78.494 L 84.2 83.094 L 83.5 84.694 Z M 52.9 15.094 L 53.8 16.294 L 55.7 16.294 L 61.4 12.394 L 59.2 12.494 L 55.4 13.294 L 52.9 10.894 L 51.9 10.294 A 0.968 0.968 0 0 0 51.91 10.406 C 52.008 11.146 52.78 14.563 52.888 15.039 A 92.996 92.996 0 0 0 52.9 15.094 Z M 18.3 83.594 L 19 77.894 L 19.8 76.994 L 21.7 79.794 L 22.3 82.494 L 23.9 85.694 L 23.4 86.194 L 20.3 84.694 L 18.3 83.594 Z"/></g></svg>