<svg width="115.006" height="110.206" viewBox="0 0 115.006 110.206"><g id="stasis_hunter_super" fill-rule="evenodd"><title>stasis_hunter_super</title><path unicode="E084" d="M 105.1 53.306 L 101.1 50.606 L 98.6 45.406 L 95 43.206 A 0.433 0.433 0 0 0 95.001 43.2 C 95.015 43.108 95.164 41.997 94.42 41.324 A 1.634 1.634 0 0 0 94.4 41.306 A 43.117 43.117 0 0 0 91.696 38.799 C 81.485 30.031 61.017 18.414 58.139 16.796 A 104.097 104.097 0 0 0 57.8 16.606 L 50.9 9.806 L 25.6 0.006 C 25.503 -0.091 23.796 1.042 23.796 1.103 A 0.003 0.003 0 0 0 23.799 1.106 L 45.1 16.406 L 45.3 17.806 L 27.8 11.206 L 17.7 8.806 L 10.3 7.606 L 2.1 6.806 L 0 7.206 L 46.2 27.506 L 21.4 26.506 L 49.7 38.006 L 49.9 40.406 L 44.8 53.606 L 43.3 45.706 A 2.171 2.171 0 0 0 43.074 44.778 C 42.967 44.551 42.825 44.324 42.652 44.097 A 5.504 5.504 0 0 0 42.5 43.906 L 42.3 43.606 L 40.6 56.806 A 5.937 5.937 0 0 1 40.263 58.112 A 6.667 6.667 0 0 1 40 58.706 L 24 88.706 L 18.2 96.606 L 23.3 94.706 C 23.8 94.406 24.2 94.006 24.6 93.606 L 30.4 86.906 L 22.1 103.706 C 21.907 104.381 21.807 106.732 21.8 107.615 A 11.841 11.841 0 0 0 21.8 107.706 L 22.8 110.206 L 32 93.206 L 50 64.506 C 50.4 64.006 50.8 63.506 51.3 63.106 L 61.8 54.806 L 61.4 54.806 A 2.836 2.836 0 0 0 60.963 54.717 C 60.443 54.653 59.972 54.749 59.5 54.906 L 51.9 57.706 L 58.8 50.106 L 62.4 47.906 L 63.1 41.906 L 66.4 46.706 A 96.833 96.833 0 0 1 66.484 46.697 C 67.359 46.603 74.789 45.812 76.2 45.906 C 78.54 45.906 83.067 45.906 84.96 53.229 A 20.513 20.513 0 0 1 85.1 53.806 C 92.793 51.648 97.054 57.324 97.633 58.86 A 1.035 1.035 0 0 1 97.7 59.106 C 108.8 62.906 114 72.706 114.9 73.406 A 6.744 6.744 0 0 0 115.005 72.276 C 115.092 65.425 106.199 54.617 105.192 53.415 A 17.384 17.384 0 0 0 105.1 53.306 Z M 26.6 39.806 L 29.4 44.506 L 24.5 47.106 L 16.3 39.306 L 15.2 36.506 L 26.6 39.806 Z M 65.4 12.706 L 67.7 17.406 L 71.3 15.106 L 70.8 9.606 L 66.1 4.406 L 66.6 9.806 L 65.4 12.706 Z M 59.2 69.006 L 59 74.906 L 62 73.606 L 63 71.706 L 65.1 74.006 L 66.1 66.306 L 59.2 69.006 Z M 47.8 94.406 L 47.2 98.506 L 47.2 101.806 L 43.9 101.206 L 40.7 100.406 C 40.793 100.126 46.901 95.139 47.712 94.478 A 189.991 189.991 0 0 1 47.8 94.406 Z"/></g></svg>