<svg width="108.6" height="108.7" viewBox="0 0 108.6 108.7"><g id="void_hunter_super" fill-rule="evenodd"><title>void_hunter_super</title><path unicode="E127" d="M 28.037 57.016 A 0.151 0.151 0 0 1 28.068 57.004 A 0.128 0.128 0 0 1 28.1 57 L 28.6 56.8 A 15.994 15.994 0 0 1 33.863 55.886 A 14.806 14.806 0 0 1 35.7 56 L 35.8 56 A 24.86 24.86 0 0 1 35.995 56 C 36.209 56.002 36.382 56.01 36.494 56.044 A 0.25 0.25 0 0 1 36.6 56.1 L 36.7 56.1 A 2.657 2.657 0 0 1 36.813 56.102 C 37.076 56.114 37.343 56.16 37.642 56.184 A 4.344 4.344 0 0 0 38 56.2 L 39 56.4 C 41.3 57 43.4 58 45.3 59.4 L 45.3 59.5 L 45.7 59.8 L 46.6 60.5 L 62 45.1 L 66.1 38 L 60.3 39.1 L 98.5 10.2 L 69.5 48.4 L 70.6 42.6 L 63.6 46.7 L 48.2 62.1 A 11.872 11.872 0 0 1 48.626 62.629 C 49.089 63.236 49.565 63.959 50.1 64.8 A 6.453 6.453 0 0 0 50.1 64.812 C 50.1 64.889 50.103 64.899 50.167 64.9 A 1.701 1.701 0 0 0 50.2 64.9 C 50.2 64.981 50.266 65.129 50.344 65.235 A 0.586 0.586 0 0 0 50.4 65.3 A 12.41 12.41 0 0 0 50.4 65.304 C 50.4 65.394 50.401 65.401 50.482 65.482 A 11.548 11.548 0 0 0 50.5 65.5 A 0.191 0.191 0 0 0 50.509 65.554 C 50.524 65.607 50.558 65.66 50.58 65.713 A 0.231 0.231 0 0 1 50.6 65.8 L 50.9 66.4 A 1.35 1.35 0 0 1 50.98 66.519 C 51.149 66.802 51.141 67.035 51.286 67.26 A 0.844 0.844 0 0 0 51.4 67.4 L 51.4 67.5 A 0.14 0.14 0 0 0 51.4 67.511 C 51.407 67.593 51.486 67.609 51.498 67.835 A 1.156 1.156 0 0 1 51.5 67.9 A 17.732 17.732 0 0 1 52.559 73.981 A 19.799 19.799 0 0 1 52.5 75.5 L 52.5 75.6 A 11.025 11.025 0 0 1 52.499 75.815 C 52.496 75.933 52.49 76.047 52.474 76.15 A 0.862 0.862 0 0 1 52.4 76.4 L 52.4 76.8 C 52.323 76.877 52.305 77.012 52.301 77.206 A 9.251 9.251 0 0 0 52.3 77.4 L 52.1 78 L 52.1 78.3 A 9.316 9.316 0 0 1 52.07 78.415 C 51.98 78.757 51.89 79.01 51.8 79.1 L 51.8 79.3 A 0.191 0.191 0 0 1 51.791 79.354 C 51.776 79.407 51.742 79.46 51.72 79.513 A 0.231 0.231 0 0 0 51.7 79.6 C 51.3 80.8 50.8 82 50.1 83.1 A 2.059 2.059 0 0 1 49.93 83.47 C 49.822 83.659 49.679 83.862 49.5 84.1 C 48.3 86 46.9 87.5 44.8 89 C 43.9 89.6 39.8 92.2 34.3 92.2 L 34.2 92.2 L 33.6 92.2 L 33.2 92.2 L 33.1 92.2 A 10.419 10.419 0 0 1 32.922 92.199 C 32.804 92.197 32.707 92.19 32.631 92.17 A 0.285 0.285 0 0 1 32.5 92.1 L 32.1 92.1 L 31.9 92.1 A 1.227 1.227 0 0 1 31.873 92.1 C 31.627 92.094 31.679 92.015 31.463 92.002 A 1.07 1.07 0 0 0 31.4 92 L 31.3 92 A 18.729 18.729 0 0 1 29.511 91.598 A 17.321 17.321 0 0 1 25.1 89.7 C 24.891 89.63 24.78 89.561 24.697 89.525 A 0.244 0.244 0 0 0 24.6 89.5 L 24.6 89.4 C 23.219 88.506 22.036 87.546 20.836 86.306 A 26.916 26.916 0 0 1 20 85.4 A 16.539 16.539 0 0 1 19.341 84.542 C 17.305 81.704 15.587 77.368 16.4 70.5 L 16.6 69.5 C 17.2 67.2 18.2 65.1 19.6 63.2 L 19.7 63.1 L 20 62.8 C 21.4 61 23.1 59.5 25 58.4 A 6.453 6.453 0 0 0 25.012 58.4 C 25.089 58.4 25.099 58.397 25.1 58.333 A 1.701 1.701 0 0 0 25.1 58.3 C 25.181 58.3 25.329 58.234 25.435 58.156 A 0.586 0.586 0 0 0 25.5 58.1 L 25.6 58 L 27.7 57.1 A 1.319 1.319 0 0 0 27.705 57.1 C 27.868 57.099 27.941 57.069 27.991 57.042 A 2.136 2.136 0 0 0 28.021 57.025 M 107 63.3 L 108.1 61.9 L 107.9 61.6 A 118.59 118.59 0 0 1 106.237 59.772 C 104.563 57.886 103.39 56.362 103.594 55.814 A 0.309 0.309 0 0 1 103.6 55.8 L 103.9 55.1 A 2.78 2.78 0 0 1 104.261 55.18 C 104.987 55.386 106.023 55.907 106.7 56.5 L 108.2 57.9 L 108.6 58.4 C 108.2 57.2 107.8 56.1 107.3 55 C 106.5 53.1 105.5 51.1 104.6 50 A 14.892 14.892 0 0 0 101.207 47.457 C 95.349 44.135 86.899 43.016 85.595 41.898 A 0.702 0.702 0 0 1 85.5 41.8 A 1.079 1.079 0 0 1 85.356 41.627 C 85.261 41.481 85.23 41.322 85.295 41.115 A 0.929 0.929 0 0 1 85.3 41.1 L 86.2 40.5 A 2.868 2.868 0 0 0 86.58 40.193 C 86.698 40.082 86.815 39.955 86.933 39.812 A 5.715 5.715 0 0 0 87.1 39.6 L 87.4 39.3 A 2.852 2.852 0 0 0 88.216 38.534 A 4.336 4.336 0 0 0 88.6 37.9 C 90.3 34.4 89.7 31.4 89.6 31.1 A 3.501 3.501 0 0 1 89.596 31.082 C 89.498 30.574 89.396 29.489 89.1 28.6 A 6.491 6.491 0 0 0 88.994 28.159 C 88.897 27.804 88.768 27.431 88.637 27.095 A 11.88 11.88 0 0 0 88.6 27 L 87.8 30 C 86.58 34.316 77.967 45.057 65.428 54.709 A 114.165 114.165 0 0 1 62.9 56.6 A 0.954 0.954 0 0 0 62.831 56.626 C 62.633 56.709 62.666 56.793 62.463 56.877 A 0.973 0.973 0 0 1 62.4 56.9 L 59.5 60.1 A 3.185 3.185 0 0 0 59.542 60.1 C 59.632 60.099 59.764 60.091 59.855 60.035 A 0.239 0.239 0 0 0 59.9 60 A 4.749 4.749 0 0 0 59.907 59.998 C 60.203 59.898 60.402 59.8 60.6 59.8 C 61.427 59.8 63.436 61.236 65.309 61.236 A 3.311 3.311 0 0 0 65.8 61.2 A 7.025 7.025 0 0 0 67.22 60.978 A 10.417 10.417 0 0 0 71.8 58.3 L 72.5 57.5 C 75.748 53.267 76.284 51.166 77.54 49.671 A 5.997 5.997 0 0 1 77.6 49.6 L 77.7 49.6 C 83.59 43.71 89.68 49.68 93.481 51.889 A 13.671 13.671 0 0 0 93.5 51.9 L 93.4 54.3 C 93.5 54.4 99.2 65.6 100.1 68.5 C 103.3 79.8 100 87.5 98.1 94 C 97.57 95.501 97.196 96.69 96.979 97.705 A 12.724 12.724 0 0 0 96.9 98.1 C 96.5 100.4 97.2 103 98.1 105.1 A 29.834 29.834 0 0 0 99.642 108.25 A 33.064 33.064 0 0 0 99.9 108.7 A 0.285 0.285 0 0 1 99.83 108.569 C 99.81 108.493 99.803 108.396 99.801 108.278 A 10.419 10.419 0 0 1 99.8 108.1 A 3.857 3.857 0 0 0 99.791 107.855 C 99.766 107.475 99.701 106.979 99.7 106.417 A 7.421 7.421 0 0 1 99.7 106.4 L 99.8 106.5 A 36.5 36.5 0 0 1 100.084 103.9 A 45.576 45.576 0 0 1 100.4 102 C 100.9 99.3 101.8 95.7 103.5 91.8 A 128.581 128.581 0 0 0 105.391 87.168 C 107.349 82.055 108.272 78.285 108.272 74.877 A 18.257 18.257 0 0 0 107.9 71.2 A 3.853 3.853 0 0 0 107.874 70.754 C 107.844 70.497 107.793 70.252 107.737 69.983 A 32.881 32.881 0 0 1 107.7 69.8 C 106.9 64.9 107 63.6 107 63.3 Z M 51.1 36.2 L 50.4 36.9 A 10.089 10.089 0 0 0 47.51 42.23 A 10.14 10.14 0 0 0 47.4 42.9 C 47.314 44.616 48.479 46.405 48.812 47.573 A 1.967 1.967 0 0 1 48.9 48.1 A 0.899 0.899 0 0 1 48.853 48.366 C 48.814 48.49 48.757 48.629 48.7 48.8 C 48.609 48.891 48.601 49.063 48.6 49.169 A 3.989 3.989 0 0 0 48.6 49.2 L 51.8 46.2 A 118.081 118.081 0 0 1 56.262 40.38 C 64.929 29.774 73.885 22.562 78.132 21.049 A 6.793 6.793 0 0 1 78.6 20.9 L 81.6 20 C 81.1 19.8 80.5 19.6 80 19.5 A 7.125 7.125 0 0 0 79.544 19.366 C 78.781 19.167 78.017 19.083 77.6 19 A 0.734 0.734 0 0 1 77.549 18.997 C 77.074 18.957 73.846 18.577 70.8 20.1 C 70.215 20.393 69.844 20.685 69.569 20.939 A 9.111 9.111 0 0 0 69.3 21.2 C 69.3 21.2 69.216 21.284 69.125 21.53 A 2.22 2.22 0 0 0 69.1 21.6 C 68.6 21.9 68.4 22.1 68.1 22.4 A 2.063 2.063 0 0 1 67.929 22.772 C 67.824 22.954 67.687 23.15 67.517 23.378 A 17.854 17.854 0 0 1 67.5 23.4 C 67.2 23.4 67 23.3 66.8 23.2 A 1.058 1.058 0 0 1 66.581 22.941 C 65.352 21.012 64.357 11.598 60.274 5.994 A 12.624 12.624 0 0 0 58.6 4.1 C 57.726 3.226 56.346 2.478 54.862 1.806 A 47.56 47.56 0 0 0 53.7 1.3 C 52.6 0.8 51.5 0.4 50.3 0 L 50.7 0.5 L 52.1 2 A 4.727 4.727 0 0 1 52.522 2.491 C 53.06 3.203 53.52 4.142 53.6 4.7 L 52.9 5 C 52.2 5.3 49.7 3.3 47 0.8 L 46.8 0.5 L 45.4 1.6 C 45.1 1.7 43.8 1.7 38.9 0.9 C 38.5 0.9 38 0.8 37.5 0.7 A 25.124 25.124 0 0 0 36.259 0.55 C 31.837 0.13 27.414 0.96 20.19 3.834 A 130.094 130.094 0 0 0 16.9 5.2 A 45.455 45.455 0 0 1 12.671 6.796 C 11.408 7.203 10.211 7.529 9.104 7.792 A 48.746 48.746 0 0 1 6.7 8.3 A 43.736 43.736 0 0 1 3.956 8.729 A 34.99 34.99 0 0 1 2.2 8.9 L 0.6 8.9 A 9.251 9.251 0 0 1 0.406 8.899 C 0.212 8.895 0.077 8.877 0 8.8 A 30.588 30.588 0 0 0 3.15 10.408 A 27.771 27.771 0 0 0 3.6 10.6 A 25.613 25.613 0 0 0 6.242 11.466 C 7.251 11.729 8.294 11.906 9.308 11.906 A 7.537 7.537 0 0 0 10.6 11.8 A 30.129 30.129 0 0 1 11.154 11.656 C 11.986 11.445 12.892 11.235 14.198 10.78 A 30.253 30.253 0 0 0 14.7 10.6 C 21.1 8.7 29 5.1 40.2 8.6 A 10.112 10.112 0 0 1 41.048 8.885 C 44.656 10.248 53.376 14.856 54.237 15.182 A 0.243 0.243 0 0 0 54.3 15.2 L 56.8 15.2 C 58.862 18.832 64.681 24.874 59.407 30.581 A 11.245 11.245 0 0 1 59.1 30.9 L 58.9 31.1 A 6.091 6.091 0 0 1 58.27 31.602 C 57.088 32.435 55.309 33.233 52.439 35.234 A 53.658 53.658 0 0 0 51.1 36.2 Z M 39.1 85.3 L 39 85.3 A 2.501 2.501 0 0 1 38.974 85.3 C 38.899 85.299 38.891 85.291 38.8 85.2 C 38.8 85.2 38.6 85.1 38.2 84.8 L 37.4 84.3 L 36.5 83.5 L 35.8 82.7 L 35.5 82.4 L 35.2 82 A 0.214 0.214 0 0 0 35.166 81.892 C 35.128 81.828 35.064 81.764 35 81.7 C 34.914 81.614 34.902 81.528 34.9 81.505 A 0.083 0.083 0 0 1 34.9 81.5 A 11.548 11.548 0 0 1 34.882 81.482 C 34.8 81.4 34.8 81.394 34.8 81.3 L 34.8 81.2 L 34.8 86.3 L 33.5 86.3 L 33.7 86.1 L 33.5 85.9 A 1.238 1.238 0 0 0 33.419 85.711 C 33.315 85.515 33.177 85.377 33.1 85.3 A 7.76 7.76 0 0 1 32.791 84.722 C 32.643 84.419 32.495 84.086 32.348 83.744 A 133.745 133.745 0 0 1 32.2 83.4 A 3.183 3.183 0 0 1 32 82.901 C 31.959 82.765 31.93 82.634 31.915 82.513 A 1.653 1.653 0 0 1 31.9 82.3 C 31.81 82.21 31.801 82.121 31.728 81.887 A 4.791 4.791 0 0 0 31.7 81.8 L 31.7 81.4 A 0.285 0.285 0 0 1 31.63 81.269 C 31.61 81.193 31.603 81.096 31.601 80.978 A 10.419 10.419 0 0 1 31.6 80.8 L 31.6 80.5 L 29.4 85 A 0.861 0.861 0 0 0 29.27 84.893 C 29.013 84.721 28.757 84.757 28.5 84.5 L 28.5 84.4 L 28.5 84.2 A 0.25 0.25 0 0 1 28.444 84.094 C 28.41 83.982 28.402 83.809 28.4 83.595 A 24.86 24.86 0 0 1 28.4 83.4 A 0.798 0.798 0 0 1 28.331 83.174 C 28.31 83.046 28.303 82.889 28.301 82.693 A 28.057 28.057 0 0 1 28.3 82.4 L 28.3 81.3 L 28.7 79.3 C 28.795 79.016 28.889 78.822 28.899 78.717 A 0.181 0.181 0 0 0 28.9 78.7 C 28.986 78.614 28.998 78.528 29 78.505 A 0.083 0.083 0 0 0 29 78.5 L 25.3 81.6 A 2.016 2.016 0 0 1 24.988 81.166 C 24.878 80.976 24.776 80.783 24.617 80.618 A 1.285 1.285 0 0 0 24.6 80.6 L 24.6 80.4 A 0.579 0.579 0 0 0 24.682 80.293 C 24.746 80.19 24.809 80.036 24.873 79.803 A 4.73 4.73 0 0 0 24.9 79.7 C 25.2 79.2 25.4 78.5 25.8 77.8 A 2.032 2.032 0 0 1 25.836 77.699 C 25.893 77.555 25.95 77.468 26.006 77.4 A 1.497 1.497 0 0 1 26.1 77.3 L 26.4 76.9 C 26.5 76.7 26.7 76.5 27 76.2 L 27.4 75.7 C 27.486 75.614 27.572 75.602 27.595 75.6 A 0.083 0.083 0 0 1 27.6 75.6 L 22.8 76.7 A 10.406 10.406 0 0 0 22.798 76.691 C 22.711 76.345 22.625 76.073 22.604 75.811 A 1.451 1.451 0 0 1 22.6 75.7 L 22.6 75.6 L 22.8 75.4 L 23.3 74.9 C 23.7 74.5 24.3 73.9 25 73.5 A 3.488 3.488 0 0 1 25.248 73.33 C 25.526 73.156 25.744 73.078 25.9 73 C 26.172 72.728 26.362 72.703 26.618 72.626 A 2.783 2.783 0 0 0 26.7 72.6 C 27.1 72.5 27.3 72.4 27.4 72.4 C 27.486 72.314 27.572 72.302 27.595 72.3 A 0.083 0.083 0 0 1 27.6 72.3 L 22.9 71.3 A 2.167 2.167 0 0 1 23.072 70.434 A 1.559 1.559 0 0 1 23.2 70.2 L 23.3 70.1 L 24 69.8 C 24.7 69.6 25.4 69.4 26.1 69.3 L 26.7 69.3 A 0.242 0.242 0 0 0 26.775 69.285 C 26.86 69.258 26.972 69.201 27.197 69.2 A 1.41 1.41 0 0 1 27.2 69.2 A 14.024 14.024 0 0 1 27.514 69.202 C 27.761 69.208 27.956 69.228 28.1 69.3 L 28.7 69.3 A 11.548 11.548 0 0 0 28.718 69.318 C 28.8 69.4 28.806 69.4 28.9 69.4 L 29 69.4 L 25.1 66.3 L 25.8 65.5 L 26.1 65.5 C 26.365 65.5 26.629 65.5 26.825 65.569 A 0.64 0.64 0 0 1 26.9 65.6 A 4.72 4.72 0 0 1 27.285 65.617 C 27.606 65.643 27.984 65.703 28.363 65.811 A 4.479 4.479 0 0 1 28.9 66 A 2.208 2.208 0 0 0 29.448 66.249 A 8.636 8.636 0 0 0 30 66.4 A 0.586 0.586 0 0 0 30.065 66.456 C 30.171 66.534 30.319 66.6 30.4 66.6 L 30.8 66.9 A 1.908 1.908 0 0 1 30.938 66.952 C 31.134 67.034 31.217 67.117 31.3 67.2 C 31.386 67.286 31.472 67.298 31.495 67.3 A 0.083 0.083 0 0 0 31.5 67.3 L 29.3 62.8 L 30.5 62.2 A 2.501 2.501 0 0 1 30.5 62.226 C 30.499 62.301 30.491 62.309 30.4 62.4 L 30.4 62.5 A 2.501 2.501 0 0 1 30.426 62.5 C 30.501 62.501 30.509 62.509 30.6 62.6 A 1.336 1.336 0 0 1 30.82 62.697 C 31.006 62.799 31.153 62.927 31.3 63 C 31.6 63.1 31.8 63.3 32.1 63.6 A 18.667 18.667 0 0 0 32.108 63.606 C 32.415 63.836 32.662 64.007 32.804 64.164 A 0.623 0.623 0 0 1 32.9 64.3 L 33.7 65.1 L 34 65.5 A 1.69 1.69 0 0 1 34.127 65.636 C 34.152 65.668 34.172 65.699 34.185 65.731 A 0.183 0.183 0 0 1 34.2 65.8 C 34.286 65.886 34.298 65.972 34.3 65.995 A 0.083 0.083 0 0 1 34.3 66 A 1.701 1.701 0 0 0 34.3 66.033 C 34.301 66.097 34.311 66.1 34.388 66.1 A 6.453 6.453 0 0 0 34.4 66.1 L 34.6 66.4 C 34.686 66.486 34.698 66.572 34.7 66.595 A 0.083 0.083 0 0 1 34.7 66.6 L 34.7 61.8 C 35.1 61.8 35.5 61.9 35.9 61.9 L 35.9 62 C 36.1 62.2 36.2 62.4 36.3 62.6 A 4.642 4.642 0 0 1 36.776 63.354 A 17.073 17.073 0 0 1 37.3 64.5 L 37.6 65.5 A 1.07 1.07 0 0 0 37.602 65.563 C 37.615 65.779 37.694 65.727 37.7 65.973 A 1.227 1.227 0 0 1 37.7 66 A 0.253 0.253 0 0 0 37.705 66.047 C 37.723 66.141 37.783 66.276 37.797 66.366 A 0.224 0.224 0 0 1 37.8 66.4 A 6.084 6.084 0 0 0 37.806 66.746 C 37.814 66.875 37.831 66.986 37.868 67.056 A 0.186 0.186 0 0 0 37.9 67.1 L 37.9 67.3 L 39.9 63.1 C 40.268 63.376 40.637 63.313 40.927 63.536 A 0.74 0.74 0 0 1 41 63.6 L 41 63.7 C 41 63.8 41.1 64.1 41.1 64.4 A 2.324 2.324 0 0 0 41.132 64.743 C 41.161 64.939 41.2 65.15 41.2 65.4 A 1.07 1.07 0 0 1 41.198 65.463 C 41.185 65.679 41.106 65.627 41.1 65.873 A 1.227 1.227 0 0 0 41.1 65.9 L 37 70 A 4.153 4.153 0 0 0 34.735 69.339 C 33.727 69.339 32.711 69.689 31.876 70.362 A 4.739 4.739 0 0 0 31.5 70.7 A 5.015 5.015 0 0 0 30.495 72.12 C 29.78 73.65 29.978 75.393 31.089 76.682 A 4.525 4.525 0 0 0 31.5 77.1 A 5.015 5.015 0 0 0 32.92 78.105 C 34.45 78.82 36.193 78.622 37.482 77.511 A 4.525 4.525 0 0 0 37.9 77.1 A 4.692 4.692 0 0 0 38.993 75.427 C 39.402 74.334 39.349 73.119 38.79 71.958 A 5.345 5.345 0 0 0 38.6 71.6 L 43 67.3 L 44.1 66.3 L 44.9 67.3 L 44.8 67.4 A 0.333 0.333 0 0 1 44.787 67.481 C 44.759 67.588 44.69 67.759 44.618 68.03 A 5.212 5.212 0 0 0 44.6 68.1 C 44.321 68.752 44.041 69.404 43.762 69.895 A 5.441 5.441 0 0 1 43.7 70 A 2.032 2.032 0 0 1 43.664 70.101 C 43.607 70.245 43.55 70.332 43.494 70.4 A 1.497 1.497 0 0 1 43.4 70.5 L 43.1 70.9 C 43 71.1 42.8 71.3 42.5 71.6 C 42.227 71.873 42.285 71.981 42.071 72.073 A 0.887 0.887 0 0 1 42 72.1 L 41.9 72.2 L 46.5 71.2 L 46.7 72.4 C 46.544 72.556 46.388 72.713 46.279 72.869 A 1.071 1.071 0 0 0 46.2 73 C 45.7 73.4 45.2 73.9 44.5 74.3 A 3.488 3.488 0 0 1 44.252 74.47 C 43.974 74.644 43.756 74.722 43.6 74.8 A 1.753 1.753 0 0 0 43.596 74.802 A 1.842 1.842 0 0 0 43.591 74.804 C 43.588 74.806 43.585 74.807 43.583 74.809 C 43.386 74.91 43.107 75.09 42.742 75.189 A 2.123 2.123 0 0 1 42.7 75.2 C 42.416 75.295 42.222 75.389 42.117 75.399 A 0.181 0.181 0 0 1 42.1 75.4 C 42.014 75.486 41.928 75.498 41.905 75.5 A 0.083 0.083 0 0 1 41.9 75.5 L 46.5 76.5 C 46.4 77 46.2 77.5 46.1 77.8 A 0.333 0.333 0 0 0 46.019 77.813 C 45.903 77.844 45.713 77.922 45.4 78 A 6.932 6.932 0 0 1 44.876 78.184 C 44.651 78.254 44.404 78.319 44.139 78.376 A 8.834 8.834 0 0 1 43.4 78.5 A 9.251 9.251 0 0 0 43.206 78.501 C 43.012 78.505 42.877 78.523 42.8 78.6 L 42.3 78.6 L 41.4 78.6 A 0.981 0.981 0 0 0 41.001 78.505 C 40.933 78.501 40.861 78.5 40.782 78.5 A 26.533 26.533 0 0 0 40.7 78.5 L 40.5 78.5 L 44.2 81.4 C 43.947 81.653 43.836 81.906 43.628 82.159 A 1.968 1.968 0 0 1 43.5 82.3 L 43.3 82.3 L 42.6 82.3 A 10.49 10.49 0 0 0 42.579 82.296 C 42.081 82.197 41.388 82.096 40.5 81.8 A 1.976 1.976 0 0 0 40.322 81.752 C 40.054 81.689 39.744 81.644 39.5 81.4 C 39.222 81.307 39.116 81.215 39.102 81.202 A 0.071 0.071 0 0 1 39.1 81.2 C 38.822 81.107 38.716 81.015 38.702 81.002 A 0.071 0.071 0 0 1 38.7 81 C 38.606 80.906 38.425 80.725 38.156 80.62 A 1.198 1.198 0 0 0 38.1 80.6 C 38.014 80.514 37.928 80.502 37.905 80.5 A 0.083 0.083 0 0 0 37.9 80.5 L 40.1 84.9 C 39.7 85.2 39.4 85.2 39 85.5 C 39.086 85.414 39.098 85.328 39.1 85.305 A 0.083 0.083 0 0 0 39.1 85.3 Z M 46.2 56.9 L 46.4 56.7 A 20.595 20.595 0 0 0 34.366 52.804 C 31.387 52.804 28.343 53.451 25.4 54.8 A 22.715 22.715 0 0 0 17.879 60.514 A 20.971 20.971 0 0 0 14.9 65.1 A 6.084 6.084 0 0 0 15.246 65.094 C 15.375 65.086 15.486 65.069 15.556 65.032 A 0.186 0.186 0 0 0 15.6 65 C 17.9 61.1 21.2 57.7 25.7 55.6 A 23.71 23.71 0 0 1 29.925 54.205 C 31.578 53.828 33.231 53.645 34.86 53.645 A 21.282 21.282 0 0 1 46.2 56.9 Z M 29.5 94.3 L 28.9 94.8 A 21.2 21.2 0 0 0 34.158 95.47 C 36.811 95.47 39.473 94.958 42.107 93.918 A 24.453 24.453 0 0 0 43.1 93.5 A 22.448 22.448 0 0 0 47.916 90.441 A 20.992 20.992 0 0 0 48.2 90.2 A 48.159 48.159 0 0 0 47.713 90.202 C 47.263 90.206 46.925 90.225 46.7 90.3 C 45.583 91.159 44.392 91.871 43.254 92.372 A 12.707 12.707 0 0 1 42.7 92.6 C 38.4 94.6 33.8 95.1 29.5 94.3 Z M 14.8 66.6 L 14.2 66.8 C 13.7 68.3 13.4 69.8 13.1 71.4 L 13.1 71.5 L 13 71.9 L 13 72 C 12.7 75.1 13.1 78.2 14.2 81.3 C 13.1 78.2 12.8 75.2 13.3 72.1 L 13.3 71.7 C 13.6 69.9 14.1 68.2 14.8 66.6 Z M 48.712 88.528 A 20.456 20.456 0 0 0 54.1 80.5 A 0.24 0.24 0 0 0 54.174 80.486 C 54.259 80.458 54.372 80.4 54.6 80.4 C 53.6 83.5 52 86.3 49.8 88.7 A 3.476 3.476 0 0 0 49.545 88.711 C 49.197 88.736 48.798 88.8 48.4 88.8 A 18.134 18.134 0 0 0 48.712 88.528 Z M 51.4 61.7 C 51.5 61.8 51.5 62 51.8 62.1 C 51.859 62.278 51.989 62.491 52.148 62.719 A 17.257 17.257 0 0 0 52.5 63.2 A 179.604 179.604 0 0 1 52.65 63.463 A 18.654 18.654 0 0 1 53.6 65.3 A 9.865 9.865 0 0 0 53.543 65.169 A 22.729 22.729 0 0 0 52.5 63.2 A 14.075 14.075 0 0 1 52.087 62.63 C 51.956 62.436 51.852 62.255 51.8 62.1 L 51.4 61.7 L 50.7 60.8 L 50.7 60.7 A 1.285 1.285 0 0 1 50.717 60.718 C 50.876 60.883 50.978 61.076 51.088 61.266 A 2.016 2.016 0 0 0 51.4 61.7 Z M 55.4 76.2 L 55.2 75.9 C 54.9 77.1 54.8 78.3 54.4 79.4 A 4.776 4.776 0 0 1 54.479 79.374 C 54.636 79.325 54.729 79.304 54.8 79.271 A 0.347 0.347 0 0 0 54.9 79.2 C 55.158 78.255 55.268 77.531 55.357 76.648 A 44.32 44.32 0 0 0 55.4 76.2 Z M 54 66.2 A 0.734 0.734 0 0 0 54.005 66.303 C 54.012 66.353 54.031 66.391 54.08 66.399 A 0.127 0.127 0 0 0 54.1 66.4 C 54.017 66.4 54.003 66.331 54 66.25 A 1.729 1.729 0 0 1 54 66.2 Z M 14.482 82.082 A 11.548 11.548 0 0 0 14.5 82.1 A 0.394 0.394 0 0 1 14.458 82.05 C 14.41 81.983 14.402 81.924 14.4 81.906 A 0.084 0.084 0 0 1 14.4 81.9 C 14.4 81.994 14.4 82 14.482 82.082 Z M 26.4 54.2 L 26.6 54.2 L 26.4 54.2 Z M 22 75.9 L 22 75.8 L 22 75.9 Z M 43.583 74.809 C 43.581 74.81 43.58 74.81 43.578 74.811"/></g></svg>