<svg width="99.101" height="99.101" viewBox="0 0 99.101 99.101"><g id="void_shield_throw" fill-rule="evenodd"><title>void_shield_throw</title><path unicode="E095" d="M 84.601 14.5 C 75.201 5.2 62.801 0 49.501 0 C 36.301 0 23.801 5.2 14.501 14.5 C 5.101 23.9 0.001 36.3 0.001 49.6 C 0.001 62.8 5.101 75.2 14.501 84.6 C 23.801 94 36.301 99.1 49.501 99.1 C 62.801 99.1 75.201 94 84.601 84.6 C 93.901 75.2 99.101 62.8 99.101 49.6 C 99.101 36.3 93.901 23.9 84.601 14.5 Z M 49.501 96.7 C 23.501 96.7 2.401 75.6 2.401 49.6 C 2.401 23.5 23.501 2.5 49.501 2.5 C 75.501 2.5 96.601 23.5 96.601 49.6 C 96.601 75.6 75.501 96.7 49.501 96.7 Z M 73.601 49.6 C 73.601 36.3 62.801 25.4 49.501 25.4 C 36.201 25.4 25.401 36.3 25.401 49.6 C 25.401 62.9 36.201 73.7 49.501 73.7 C 62.801 73.7 73.601 62.9 73.601 49.6 Z M 49.501 69.6 C 38.501 69.6 29.501 60.6 29.501 49.6 C 29.501 38.5 38.501 29.5 49.501 29.5 C 60.601 29.5 69.501 38.5 69.501 49.6 C 69.501 60.6 60.601 69.6 49.501 69.6 Z M 21.601 58.6 L 19.401 58.6 L 7.701 58.6 C 7.201 58.6 6.801 59.1 6.901 59.5 C 10.501 74.3 21.501 86.2 35.801 90.9 L 35.901 90.9 L 37.201 90.9 A 0.559 0.559 0 0 0 37.425 90.856 C 37.779 90.702 37.824 90.187 37.514 89.962 A 0.521 0.521 0 0 0 37.401 89.9 A 41.194 41.194 0 0 1 28.073 84.983 A 14.429 14.429 0 0 1 23.501 79.4 C 22.401 77 23.801 73.4 24.501 71.8 C 25.182 70.632 26.242 69.275 27.128 68.742 A 2.449 2.449 0 0 1 27.201 68.7 C 24.701 65.7 22.801 62.3 21.601 58.6 Z M 91.401 58.6 L 79.701 58.6 L 77.501 58.6 C 76.301 62.2 74.401 65.5 72.001 68.4 A 12.775 12.775 0 0 1 72.411 68.83 C 73.192 69.688 73.991 70.78 74.501 71.8 C 75.195 73.288 76.676 76.841 75.627 79.339 A 3.99 3.99 0 0 1 75.601 79.4 C 73.201 84.8 67.401 87.5 61.701 89.9 C 61.112 90.096 61.293 90.87 61.867 90.899 A 0.661 0.661 0 0 0 61.901 90.9 L 63.101 90.9 L 63.201 90.9 C 77.501 86.2 88.601 74.3 92.101 59.5 A 0.494 0.494 0 0 0 92.151 59.329 C 92.17 59.141 92.081 58.95 91.931 58.811 A 0.785 0.785 0 0 0 91.401 58.6 Z M 7.701 40.5 L 19.401 40.5 L 21.601 40.5 C 22.701 36.9 24.601 33.6 27.001 30.8 A 6.6 6.6 0 0 1 26.081 29.77 C 25.577 29.085 25.109 28.253 24.601 27.3 A 23.431 23.431 0 0 1 24.399 26.856 C 23.689 25.247 22.598 22.263 23.382 20.092 A 3.777 3.777 0 0 1 23.501 19.8 A 17.277 17.277 0 0 1 31.837 11.748 A 64.027 64.027 0 0 1 37.401 9.2 C 37.834 9.027 37.817 8.404 37.415 8.24 A 0.563 0.563 0 0 0 37.201 8.2 L 35.901 8.2 L 35.801 8.2 C 21.501 12.9 10.501 24.8 6.901 39.6 C 6.801 40.1 7.201 40.5 7.701 40.5 Z M 77.501 40.5 L 79.701 40.5 L 91.401 40.5 A 0.851 0.851 0 0 0 91.859 40.371 C 92.076 40.232 92.201 39.993 92.136 39.712 A 0.767 0.767 0 0 0 92.101 39.6 C 88.601 24.8 77.501 12.9 63.201 8.2 L 63.101 8.2 L 61.901 8.2 A 0.588 0.588 0 0 0 61.638 8.259 C 61.256 8.448 61.2 9.033 61.701 9.2 A 198.415 198.415 0 0 1 62.189 9.407 C 65.63 10.866 69.071 12.461 71.743 14.74 A 13.978 13.978 0 0 1 75.601 19.8 C 76.628 22.041 75.388 25.329 74.649 26.976 A 23.778 23.778 0 0 1 74.501 27.3 C 74.201 28.1 72.901 30 72.101 30.8 C 74.501 33.6 76.301 36.9 77.501 40.5 Z M 59.801 56.1 L 50.101 50.4 A 1.477 1.477 0 0 0 49.798 50.336 C 49.597 50.314 49.382 50.326 49.195 50.373 A 1.287 1.287 0 0 0 49.101 50.4 L 39.401 56.1 A 0.442 0.442 0 0 0 39.302 56.146 C 39.132 56.255 39.133 56.449 39.306 56.557 A 0.446 0.446 0 0 0 39.401 56.6 L 49.101 62.3 A 1.477 1.477 0 0 0 49.403 62.364 C 49.605 62.387 49.819 62.374 50.006 62.327 A 1.287 1.287 0 0 0 50.101 62.3 L 59.801 56.6 A 0.442 0.442 0 0 0 59.899 56.554 C 60.069 56.445 60.068 56.251 59.895 56.143 A 0.446 0.446 0 0 0 59.801 56.1 Z M 39.401 43.1 L 49.101 48.7 A 1.477 1.477 0 0 0 49.403 48.764 C 49.605 48.787 49.819 48.774 50.006 48.727 A 1.287 1.287 0 0 0 50.101 48.7 L 59.801 43.1 A 0.688 0.688 0 0 0 59.89 43.03 C 60.085 42.846 60.07 42.616 59.843 42.516 A 0.487 0.487 0 0 0 59.801 42.5 L 50.101 36.9 C 49.801 36.7 49.401 36.7 49.101 36.9 L 39.401 42.5 A 0.427 0.427 0 0 0 39.296 42.551 C 39.125 42.666 39.136 42.879 39.33 43.047 A 0.709 0.709 0 0 0 39.401 43.1 Z M 48.101 49.3 L 38.401 43.7 A 0.847 0.847 0 0 0 38.316 43.65 C 38.064 43.521 37.901 43.629 37.901 43.9 L 37.901 55.2 A 0.508 0.508 0 0 0 37.916 55.332 C 37.969 55.527 38.15 55.584 38.401 55.5 L 48.101 49.8 A 0.442 0.442 0 0 0 48.199 49.754 C 48.369 49.645 48.368 49.451 48.195 49.343 A 0.446 0.446 0 0 0 48.101 49.3 Z M 60.601 43.7 L 50.901 49.3 A 0.442 0.442 0 0 0 50.802 49.346 C 50.632 49.455 50.633 49.649 50.806 49.757 A 0.446 0.446 0 0 0 50.901 49.8 L 60.601 55.5 C 60.901 55.6 61.101 55.5 61.101 55.2 L 61.101 43.9 C 61.101 43.6 60.901 43.5 60.601 43.7 Z"/></g></svg>