<svg width="109.803" height="98.668" viewBox="0 0 109.803 98.668"><g id="void_ball" fill-rule="evenodd"><title>void_ball</title><path unicode="E096" d="M 68.802 27.998 A 25.817 25.817 0 0 0 69.7 27.339 C 80.3 29.039 88.3 38.139 88.3 49.239 C 88.3 60.239 80.3 69.339 69.8 71.139 A 7.868 7.868 0 0 0 67.811 70.015 C 62.056 67.667 50.614 68.22 47.961 67.61 A 1.368 1.368 0 0 1 47.5 67.439 A 0.367 0.367 0 0 1 47.442 67.394 C 46.396 66.363 67.2 67.198 67.2 64.339 C 66.933 63.006 65.402 62.067 63.872 61.735 A 6.002 6.002 0 0 0 63.3 61.639 C 62.1 61.439 61.1 61.139 60.2 61.139 C 60.104 61.139 34.844 59.302 32.739 58.269 A 0.199 0.199 0 0 1 32.6 58.139 C 32.6 57.239 58.8 57.439 58 55.439 A 3.237 3.237 0 0 0 56.434 53.163 C 53.762 51.411 48.318 51.389 44.619 51.262 A 84.982 84.982 0 0 1 44 51.239 C 44 51.239 13.738 50.04 11.349 49.324 A 0.191 0.191 0 0 1 11.2 49.239 A 0.414 0.414 0 0 1 11.467 49.135 C 14.549 48.457 43.342 46.578 49.153 46.031 A 20.623 20.623 0 0 0 50 45.939 A 40.088 40.088 0 0 0 52.531 45.451 C 54.326 45.039 55.916 44.503 56.91 43.803 A 2.526 2.526 0 0 0 57.9 42.639 C 57.8 39.539 0 39.039 0 38.539 C 0 38.07 34.02 37.513 38.349 37.034 A 1.004 1.004 0 0 0 38.8 36.939 A 136.557 136.557 0 0 1 39.843 36.784 C 44.731 36.077 51.709 35.273 56.717 33.865 A 24.12 24.12 0 0 0 59.7 32.839 C 62.817 31.592 66.252 29.79 68.802 27.998 Z M 91.574 16.646 A 0.686 0.686 0 0 1 91.573 16.646 C 91.54 16.625 91.515 16.606 91.505 16.574 A 0.113 0.113 0 0 1 91.5 16.539 L 91.2 16.239 C 91.1 16.139 90.9 15.939 90.8 15.839 C 90.2 15.139 89.5 14.539 88.9 13.939 A 1.029 1.029 0 0 1 88.825 13.897 C 88.65 13.79 88.475 13.626 88.3 13.539 L 87.8 13.139 A 14.311 14.311 0 0 0 87.276 12.633 A 6.67 6.67 0 0 0 86.8 12.239 C 86.5 12.089 86.256 11.883 85.984 11.662 A 9.551 9.551 0 0 0 85.7 11.439 A 7.755 7.755 0 0 1 85.672 11.42 C 85.375 11.22 84.988 10.933 84.6 10.739 L 84.1 10.339 C 83.9 10.239 83.7 10.139 83.5 9.939 L 82.4 9.339 A 4.76 4.76 0 0 0 82.288 9.257 C 81.925 9.001 81.563 8.82 81.2 8.639 L 80.6 8.339 L 80 8.039 C 79.6 7.839 79.2 7.639 78.8 7.439 C 78.55 7.314 78.261 7.228 77.982 7.132 A 3.931 3.931 0 0 1 77.5 6.939 L 76.9 6.639 C 76.7 6.639 76.5 6.539 76.3 6.439 A 3.647 3.647 0 0 1 76.051 6.379 C 75.838 6.321 75.643 6.25 75.455 6.183 A 5.014 5.014 0 0 0 75 6.039 C 71.7 4.939 68.2 4.139 64.7 3.839 C 61.2 3.539 57.6 3.639 54.1 4.139 C 50.6 4.639 47.2 5.539 44 6.839 C 40.7 8.139 37.7 9.839 34.8 11.739 A 0.596 0.596 0 0 1 34.665 11.914 A 1.586 1.586 0 0 1 34.3 12.139 L 33.8 12.539 L 33.3 12.939 A 4.383 4.383 0 0 0 33.15 13.016 A 0.783 0.783 0 0 0 32.8 13.339 C 32.6 13.489 32.425 13.614 32.263 13.739 A 4.606 4.606 0 0 0 31.8 14.139 L 31.3 14.539 L 30.8 14.939 L 29.9 15.839 C 29.8 15.939 29.7 15.939 29.6 16.039 L 29.4 16.239 L 29 16.739 L 28.9 16.739 A 51.582 51.582 0 0 1 29.809 15.741 C 42.572 2.09 61.539 -3.29 78.998 2.013 A 48.562 48.562 0 0 1 94.1 9.739 C 94.19 9.829 96.476 11.871 97.804 13.298 A 14.645 14.645 0 0 1 98.2 13.739 A 6.51 6.51 0 0 0 98.263 13.822 C 98.439 14.049 98.615 14.246 98.791 14.454 A 8.376 8.376 0 0 1 99.1 14.839 C 99.247 14.986 99.34 15.133 99.458 15.28 A 1.962 1.962 0 0 0 99.6 15.439 A 1.029 1.029 0 0 0 99.642 15.514 C 99.748 15.689 99.913 15.864 100 16.039 L 100.2 16.239 C 100.3 16.339 100.4 16.439 100.5 16.539 A 1.029 1.029 0 0 0 100.542 16.614 C 100.648 16.789 100.813 16.964 100.9 17.139 A 8.9 8.9 0 0 1 100.998 17.29 C 101.139 17.51 101.236 17.674 101.4 17.839 A 0.193 0.193 0 0 0 101.421 17.922 C 101.438 17.958 101.465 17.995 101.497 18.031 A 2.214 2.214 0 0 0 101.6 18.139 A 0.421 0.421 0 0 1 101.603 18.142 C 101.7 18.241 101.701 18.34 101.8 18.439 A 48.717 48.717 0 0 1 104.277 22.512 A 43.656 43.656 0 0 1 107.6 30.339 A 16.711 16.711 0 0 1 107.674 30.546 A 38.384 38.384 0 0 1 108.6 33.839 C 108.725 34.526 108.889 35.253 109.043 36.019 A 31.139 31.139 0 0 1 109.3 37.439 A 28.725 28.725 0 0 1 109.538 39.289 A 111.989 111.989 0 0 1 109.7 41.139 L 109.7 42.139 A 1.603 1.603 0 0 1 109.718 42.195 A 2.937 2.937 0 0 1 109.8 43.039 L 109.8 44.039 L 109.8 45.039 A 31.779 31.779 0 0 1 109.798 45.352 C 109.775 47.764 109.479 50.347 109 52.839 A 29.675 29.675 0 0 1 108.413 55.439 A 36.867 36.867 0 0 1 107.6 58.039 C 107.5 58.639 107.3 59.139 107 59.739 C 106.9 60.039 106.8 60.339 106.7 60.639 A 2.417 2.417 0 0 0 106.567 60.864 A 4.485 4.485 0 0 0 106.3 61.539 C 106.1 61.839 106 62.139 105.8 62.539 C 105.738 62.726 105.636 62.914 105.544 63.101 A 2.78 2.78 0 0 0 105.4 63.439 L 105.1 63.839 A 0.543 0.543 0 0 1 105.096 63.905 C 105.077 64.064 104.988 64.162 104.9 64.339 C 104.775 64.526 104.689 64.714 104.593 64.901 A 3.308 3.308 0 0 1 104.4 65.239 A 22.861 22.861 0 0 1 104.026 65.838 A 83.375 83.375 0 0 1 103.3 66.939 A 0.439 0.439 0 0 0 103.296 66.943 C 103.197 67.044 103.099 67.24 103 67.339 L 102.7 67.739 C 102.5 68.039 102.3 68.339 102.1 68.639 A 0.14 0.14 0 0 0 102.098 68.641 C 102.084 68.655 102 68.747 102 68.839 L 101.8 69.039 L 101.5 69.439 C 101.3 69.639 101.1 69.939 100.9 70.239 A 1.467 1.467 0 0 0 100.838 70.283 C 100.572 70.481 100.386 70.753 100.2 70.939 A 3.833 3.833 0 0 1 99.85 71.376 C 99.725 71.514 99.6 71.639 99.5 71.739 A 1.467 1.467 0 0 1 99.456 71.801 C 99.258 72.067 98.986 72.253 98.8 72.439 L 98.4 72.839 L 98 73.239 A 2.323 2.323 0 0 1 97.917 73.318 C 97.821 73.405 97.711 73.494 97.603 73.594 A 1.962 1.962 0 0 0 97.3 73.939 C 97 74.139 96.8 74.339 96.5 74.539 L 96.1 74.939 L 95.9 75.039 C 95.8 75.139 95.8 75.139 95.7 75.239 A 56.076 56.076 0 0 0 95.588 75.314 C 95.327 75.489 95.075 75.664 94.9 75.839 L 94.5 76.139 L 94 76.439 C 93.8 76.639 93.5 76.839 93.2 77.039 A 1.561 1.561 0 0 0 93.138 77.071 C 92.978 77.161 92.889 77.25 92.8 77.339 L 92.3 77.639 L 91.9 77.839 C 91.738 77.92 91.641 78.001 91.503 78.083 A 1.686 1.686 0 0 1 91.4 78.139 C 89 79.539 86.5 80.639 83.9 81.439 C 81.3 82.239 78.6 82.739 75.8 82.939 A 29.354 29.354 0 0 1 73.632 83.017 A 38.427 38.427 0 0 1 67.8 82.539 C 66.2 82.239 64.7 81.839 63.2 81.439 L 63.8 81.439 A 2.989 2.989 0 0 1 63.954 81.443 C 64.323 81.462 64.75 81.539 65.1 81.539 L 66.5 81.539 L 67.9 81.539 L 68.6 81.539 L 69.3 81.439 L 70 81.439 L 70.7 81.339 A 4.31 4.31 0 0 1 70.817 81.317 C 71.278 81.238 71.731 81.231 72.1 81.139 C 72.6 81.039 73.1 80.939 73.5 80.839 C 74 80.739 74.5 80.639 74.9 80.539 A 27.807 27.807 0 0 0 77.402 79.891 A 28.675 28.675 0 0 0 80.7 78.639 C 81.7 78.189 82.725 77.689 83.75 77.126 A 32.989 32.989 0 0 0 86.8 75.239 C 88.9 73.739 90.9 72.039 92.7 70.039 C 94.6 68.139 96.2 65.739 97.7 63.239 A 0.849 0.849 0 0 0 97.705 63.228 C 97.775 63.084 97.794 62.942 97.838 62.837 A 0.3 0.3 0 0 1 97.9 62.739 A 0.421 0.421 0 0 0 97.903 62.735 C 98 62.637 98.001 62.538 98.1 62.439 L 98.2 62.239 A 6.842 6.842 0 0 0 98.217 62.204 C 98.309 62.018 98.379 61.854 98.45 61.701 A 3.303 3.303 0 0 1 98.7 61.239 A 6.291 6.291 0 0 0 98.803 61.024 C 98.854 60.909 98.898 60.803 98.938 60.701 A 10.467 10.467 0 0 0 99.1 60.239 C 99.3 59.839 99.4 59.539 99.6 59.139 C 99.65 58.989 99.725 58.814 99.8 58.626 A 4.641 4.641 0 0 0 100 58.039 C 100.075 57.964 100.094 57.831 100.141 57.685 A 1.045 1.045 0 0 1 100.2 57.539 A 0.849 0.849 0 0 0 100.205 57.528 C 100.275 57.384 100.294 57.242 100.338 57.137 A 0.3 0.3 0 0 1 100.4 57.039 A 11.071 11.071 0 0 1 100.438 56.893 C 100.525 56.562 100.613 56.289 100.7 55.939 A 0.849 0.849 0 0 0 100.705 55.928 C 100.775 55.784 100.794 55.642 100.838 55.537 A 0.3 0.3 0 0 1 100.9 55.439 A 0.61 0.61 0 0 1 100.9 55.43 C 100.902 55.33 100.927 55.23 100.952 55.13 A 1.215 1.215 0 0 0 101 54.839 A 39.672 39.672 0 0 0 101.155 54.259 A 39.243 39.243 0 0 0 102.4 45.639 A 40.92 40.92 0 0 0 102.42 44.361 C 102.42 42.643 102.312 40.907 102.093 39.172 A 40.366 40.366 0 0 0 98.3 26.439 L 98.1 26.139 L 98 25.839 L 97.7 25.239 C 97.6 25.039 97.5 24.839 97.4 24.639 L 97.2 24.439 L 97.1 24.139 A 5.597 5.597 0 0 0 96.75 23.551 C 96.626 23.366 96.503 23.193 96.404 23.044 A 7.011 7.011 0 0 1 96.4 23.039 L 96.3 22.739 L 96.1 22.439 A 0.567 0.567 0 0 0 96.09 22.42 C 96.034 22.317 95.951 22.241 95.872 22.161 A 0.875 0.875 0 0 1 95.7 21.939 C 95.6 21.739 95.5 21.539 95.4 21.339 L 95.2 21.139 L 95 20.839 C 94.77 20.533 94.599 20.285 94.397 20.006 A 20.631 20.631 0 0 0 94.2 19.739 L 94 19.539 L 93.8 19.239 C 93.7 19.139 93.5 18.939 93.4 18.739 A 0.567 0.567 0 0 0 93.39 18.72 C 93.334 18.617 93.251 18.541 93.172 18.461 A 0.875 0.875 0 0 1 93 18.239 A 0.421 0.421 0 0 1 92.997 18.235 C 92.9 18.137 92.899 18.038 92.8 17.939 L 92.6 17.739 A 4.298 4.298 0 0 1 92.53 17.667 C 92.356 17.485 92.183 17.275 92.009 17.076 A 6.641 6.641 0 0 0 91.7 16.739 A 0.434 0.434 0 0 0 91.665 16.707 C 91.634 16.682 91.604 16.665 91.578 16.649 A 1.585 1.585 0 0 0 91.578 16.649 M 101.4 82.039 L 101.2 82.239 C 101.1 82.339 101 82.439 100.9 82.539 A 3.697 3.697 0 0 0 100.478 82.876 A 13.715 13.715 0 0 0 100 83.339 L 99.5 83.739 L 99 84.139 C 98.7 84.439 98.4 84.739 98 85.039 A 0.715 0.715 0 0 1 97.896 85.122 C 97.849 85.154 97.795 85.185 97.737 85.217 A 7.718 7.718 0 0 1 97.5 85.339 L 96.5 86.139 A 1.483 1.483 0 0 0 96.213 86.339 C 96.125 86.414 96.05 86.489 96 86.539 C 93.1 88.539 90.1 90.139 86.8 91.439 C 83.6 92.739 80.2 93.639 76.7 94.139 A 36.365 36.365 0 0 1 70.529 94.636 A 53.32 53.32 0 0 1 66.1 94.439 C 62.6 94.139 59.1 93.439 55.8 92.339 A 5.24 5.24 0 0 0 55.187 92.089 C 54.982 92.016 54.764 91.944 54.523 91.848 A 7.883 7.883 0 0 1 54.5 91.839 A 0.814 0.814 0 0 1 54.238 91.79 C 54.125 91.751 54.013 91.695 53.9 91.639 L 53.3 91.339 C 52.9 91.239 52.5 91.039 52 90.839 C 51.6 90.639 51.2 90.439 50.8 90.239 A 1.108 1.108 0 0 0 50.594 90.163 C 50.475 90.131 50.357 90.109 50.239 90.057 A 0.865 0.865 0 0 1 50.2 90.039 L 49.6 89.639 A 25.541 25.541 0 0 1 49.013 89.339 C 48.895 89.276 48.783 89.214 48.679 89.152 A 4.377 4.377 0 0 1 48.5 89.039 C 48.106 88.842 47.713 88.548 47.319 88.348 A 3.428 3.428 0 0 0 47.3 88.339 C 47.144 88.261 46.988 88.183 46.831 88.057 A 1.637 1.637 0 0 1 46.7 87.939 L 46.2 87.639 C 45.8 87.339 45.4 87.139 45.1 86.839 A 20.631 20.631 0 0 0 44.833 86.642 C 44.554 86.44 44.306 86.269 44 86.039 C 43.7 85.739 43.3 85.539 43 85.239 L 42.5 84.739 A 1.586 1.586 0 0 1 42.135 84.514 A 0.596 0.596 0 0 1 42 84.339 A 43.787 43.787 0 0 1 40.288 82.82 A 17.193 17.193 0 0 1 40 82.539 A 0.875 0.875 0 0 0 39.828 82.317 C 39.749 82.237 39.666 82.16 39.61 82.057 A 0.567 0.567 0 0 1 39.6 82.039 L 39.3 81.839 C 39.3 81.764 39.244 81.689 39.173 81.614 A 3.29 3.29 0 0 0 39.1 81.539 C 38.8 81.239 38.5 80.939 38.2 80.539 L 38 80.339 C 38 80.264 37.944 80.189 37.873 80.114 A 3.29 3.29 0 0 0 37.8 80.039 A 9.056 9.056 0 0 1 37.758 79.997 C 37.652 79.889 37.488 79.714 37.4 79.539 A 9.056 9.056 0 0 1 37.358 79.497 C 37.252 79.389 37.088 79.214 37 79.039 L 36.8 78.839 L 36.6 78.539 A 20.631 20.631 0 0 1 36.403 78.272 C 36.201 77.993 36.03 77.745 35.8 77.439 L 35.6 77.239 L 35.5 76.939 A 1.89 1.89 0 0 1 35.353 76.772 C 35.244 76.634 35.172 76.511 35.1 76.439 A 2.912 2.912 0 0 0 34.888 76.064 C 34.839 75.994 34.783 75.923 34.714 75.853 A 1.688 1.688 0 0 0 34.7 75.839 L 34.6 75.639 L 34.4 75.339 A 5.197 5.197 0 0 0 33.859 74.418 A 2.119 2.119 0 0 0 33.7 74.239 L 33.6 73.939 L 33.4 73.639 L 33.1 73.039 A 6.295 6.295 0 0 0 32.955 72.76 C 32.924 72.706 32.893 72.656 32.863 72.614 A 0.633 0.633 0 0 0 32.8 72.539 L 32.7 72.239 L 32.5 71.939 L 32.5 71.839 L 24.7 71.839 A 46.013 46.013 0 0 0 28.112 78.458 A 49.716 49.716 0 0 0 29 79.839 A 0.586 0.586 0 0 1 29.056 79.904 C 29.134 80.01 29.2 80.158 29.2 80.239 C 29.3 80.339 29.4 80.439 29.5 80.539 A 3.532 3.532 0 0 0 29.663 80.839 C 29.698 80.895 29.737 80.951 29.782 81.008 A 1.637 1.637 0 0 0 29.9 81.139 C 29.988 81.314 30.152 81.489 30.258 81.664 A 1.029 1.029 0 0 1 30.3 81.739 C 30.4 81.839 30.5 81.939 30.6 82.039 C 30.6 82.114 30.656 82.189 30.727 82.264 A 3.29 3.29 0 0 0 30.8 82.339 C 30.888 82.514 31.052 82.689 31.158 82.864 A 1.029 1.029 0 0 1 31.2 82.939 A 1.146 1.146 0 0 1 31.496 83.16 A 1.133 1.133 0 0 1 31.7 83.439 C 31.979 83.811 32.258 84.096 32.537 84.456 A 6.51 6.51 0 0 1 32.6 84.539 A 145.953 145.953 0 0 0 34.031 86.066 C 34.188 86.23 34.344 86.392 34.5 86.551 A 28.064 28.064 0 0 0 36.4 88.339 L 36.7 88.639 C 56.639 104.687 83.863 100.491 100.52 83.043 A 52.041 52.041 0 0 0 101.9 81.539 L 101.8 81.639 L 101.4 82.039 Z M 60.4 16.139 L 61.1 16.039 C 61.3 16.039 61.5 15.939 61.8 15.939 L 62.5 15.939 C 62.7 15.939 62.9 15.839 63.2 15.839 L 64.6 15.839 L 66 15.839 C 66.4 15.839 66.9 15.939 67.4 15.939 C 67.5 15.939 67.7 16.039 67.9 16.039 C 66.4 15.539 64.9 15.139 63.3 14.939 A 28.808 28.808 0 0 0 57.861 14.442 A 34.688 34.688 0 0 0 55.3 14.539 A 29.706 29.706 0 0 0 51.25 14.976 A 36.564 36.564 0 0 0 47.2 15.939 C 44.6 16.739 42.1 17.939 39.7 19.239 A 1.686 1.686 0 0 0 39.597 19.295 C 39.459 19.376 39.363 19.458 39.2 19.539 L 38.8 19.839 L 38.4 20.039 A 1.686 1.686 0 0 0 38.297 20.095 C 38.159 20.176 38.063 20.258 37.9 20.339 C 37.6 20.539 37.4 20.739 37.1 20.939 L 36.6 21.239 L 36.2 21.539 A 2.668 2.668 0 0 1 35.938 21.764 C 35.795 21.873 35.634 21.983 35.47 22.092 A 90.279 90.279 0 0 1 35.4 22.139 L 35.2 22.339 L 35 22.539 L 34.6 22.839 A 1.746 1.746 0 0 1 34.593 22.846 C 34.393 23.044 34.096 23.242 33.8 23.539 C 33.614 23.725 33.342 23.911 33.144 24.177 A 1.467 1.467 0 0 0 33.1 24.239 L 32.7 24.539 A 0.771 0.771 0 0 0 32.643 24.604 C 32.578 24.686 32.506 24.792 32.403 24.873 A 0.601 0.601 0 0 1 32.3 24.939 C 32.114 25.125 31.928 25.397 31.662 25.595 A 1.467 1.467 0 0 1 31.6 25.639 A 3.289 3.289 0 0 1 31.409 25.897 C 31.278 26.058 31.135 26.204 30.955 26.384 A 116.412 116.412 0 0 1 30.9 26.439 C 30.725 26.614 30.55 26.865 30.375 27.127 A 56.076 56.076 0 0 0 30.3 27.239 A 2.388 2.388 0 0 0 29.675 27.927 A 22.485 22.485 0 0 0 29.6 28.039 L 29.3 28.439 L 29.1 28.639 A 0.113 0.113 0 0 0 29.099 28.64 C 29.091 28.648 29.048 28.694 29.021 28.752 A 0.211 0.211 0 0 0 29 28.839 C 28.8 29.139 28.6 29.339 28.4 29.639 L 28.1 30.039 A 1.686 1.686 0 0 1 28.044 30.142 C 27.963 30.28 27.881 30.376 27.8 30.539 C 27.603 30.736 27.503 31.03 27.309 31.229 A 0.863 0.863 0 0 1 27.3 31.239 L 35.3 31.239 A 42.053 42.053 0 0 1 38.195 27.565 A 28.627 28.627 0 0 1 38.4 27.339 A 39.642 39.642 0 0 1 42.197 23.789 A 28.347 28.347 0 0 1 44.3 22.239 C 46.113 20.97 48.007 19.866 49.835 19.074 A 21.809 21.809 0 0 1 50.4 18.839 C 52.4 17.939 54.3 17.339 56.2 16.839 C 56.638 16.751 56.998 16.664 57.417 16.576 A 21.256 21.256 0 0 1 57.6 16.539 C 58 16.439 58.5 16.339 59 16.239 C 59.4 16.239 59.9 16.139 60.4 16.139 Z"/></g></svg>