<svg width="108.698" height="94.6" viewBox="0 0 108.698 94.6"><g id="void_titan_super" fill-rule="evenodd"><title>void_titan_super</title><path unicode="E128" d="M 76.664 63.8 L 76.664 63 C 71.964 70.3 63.764 75.1 54.564 75.1 L 54.264 75.1 L 54.264 87.9 C 50.564 87.4 47.064 86.5 43.664 85.1 C 37.864 82.7 30.964 78.3 26.664 70.2 C 26.205 69.478 25.875 68.455 25.589 67.3 A 56.453 56.453 0 0 1 25.164 65.4 C 24.864 64.3 24.664 63.2 24.464 62.1 C 24.864 63.7 25.664 65.1 26.764 66.3 A 11.676 11.676 0 0 0 29.172 68.337 C 31.119 69.574 33.846 70.5 37.764 70.5 L 39.764 70.5 A 26.836 26.836 0 0 1 28.118 50.138 A 27.965 27.965 0 0 1 28.064 49.1 L 15.164 49.1 C 15.664 45.5 16.564 42 17.964 38.5 A 39.865 39.865 0 0 1 19.656 34.869 C 22.116 30.222 25.895 25.393 31.678 21.839 A 32.553 32.553 0 0 1 32.764 21.2 C 33.75 20.752 35.216 20.224 36.877 19.831 A 24.343 24.343 0 0 1 37.464 19.7 A 19.429 19.429 0 0 1 39.351 19.25 A 55.511 55.511 0 0 1 40.764 19 C 39.164 19.5 37.764 20.3 36.564 21.4 C 34.776 23.018 33.061 25.577 32.59 29.943 A 22.931 22.931 0 0 0 32.464 32.4 L 32.464 33.7 A 26.47 26.47 0 0 1 52.835 21.657 A 26.296 26.296 0 0 1 54.564 21.6 L 54.564 8.8 C 58.264 9.3 61.764 10.2 65.164 11.6 C 70.964 14 77.864 18.4 82.164 26.5 A 11.93 11.93 0 0 1 82.388 27.03 C 82.617 27.606 82.857 28.312 83.082 29.083 A 31.503 31.503 0 0 1 83.664 31.4 C 83.964 32.5 84.164 33.6 84.364 34.7 C 83.964 33.1 83.164 31.7 82.064 30.5 C 80.164 28.4 76.764 26.3 71.064 26.3 A 6.795 6.795 0 0 1 70.776 26.294 C 70.322 26.275 70.03 26.215 69.551 26.202 A 6.946 6.946 0 0 0 69.364 26.2 C 76.164 30.9 80.564 38.3 80.964 47.1 L 93.964 47.1 C 93.464 50.8 92.564 54.3 91.164 57.8 A 38.717 38.717 0 0 1 89.517 61.383 C 87.101 65.996 83.401 70.706 77.754 74.19 A 32.245 32.245 0 0 1 76.364 75 C 75.539 75.525 74.208 75.881 72.877 76.195 A 1855.291 1855.291 0 0 1 71.564 76.5 A 29.104 29.104 0 0 1 70.161 76.845 C 70.095 76.859 70.03 76.873 69.964 76.888 A 51.924 51.924 0 0 1 68.364 77.2 C 69.864 76.8 71.264 76 72.464 74.9 C 74.244 73.289 76.025 70.672 76.526 66.318 A 22.034 22.034 0 0 0 76.664 63.8 Z M 54.564 4.1 C 30.264 4.1 10.664 24 10.664 48.4 C 10.664 72.8 30.264 92.7 54.564 92.7 C 78.764 92.7 98.364 72.8 98.364 48.4 C 98.364 24 78.764 4.1 54.564 4.1 Z M 0.664 57.7 L 0.764 58 L 0.964 57.8 L 2.164 56.7 L 2.164 56.6 A 49.18 49.18 0 0 1 1.863 51.168 A 50.308 50.308 0 0 1 9.064 25.4 C 18.164 10.5 33.364 1.4 50.464 0.9 L 50.564 0.8 A 1.146 1.146 0 0 1 50.785 0.504 A 1.133 1.133 0 0 1 51.064 0.3 L 51.164 0 L 50.964 0 L 49.764 0 C 32.264 0 15.764 9.3 6.964 24.2 C 0.964 34.3 -1.236 46.1 0.664 57.7 Z M 54.564 26.6 C 42.664 26.6 32.964 36.3 32.964 48.4 C 32.964 60.4 42.664 70.1 54.564 70.1 C 66.464 70.1 76.164 60.4 76.164 48.4 C 76.164 36.3 66.464 26.6 54.564 26.6 Z M 54.564 66.3 C 44.664 66.3 36.764 58.3 36.764 48.4 A 17.981 17.981 0 0 1 44.582 33.459 A 17.653 17.653 0 0 1 54.564 30.4 A 17.815 17.815 0 0 1 72.363 48.162 A 18.955 18.955 0 0 1 72.364 48.4 C 72.364 58.3 64.464 66.3 54.564 66.3 Z M 76.564 92.6 L 76.464 92.6 L 76.464 92.7 A 8.041 8.041 0 0 1 76.32 93.273 C 76.233 93.587 76.137 93.927 76.074 94.335 A 5.919 5.919 0 0 0 76.064 94.4 L 75.964 94.6 L 76.264 94.5 C 86.964 90.6 95.764 83.1 101.664 73.4 C 104.164 69.4 105.964 65 107.164 60.3 L 107.264 60 L 106.964 60.2 L 104.164 62.3 L 104.064 62.3 C 102.964 65.8 101.464 69.1 99.564 72.2 C 93.964 81.4 86.164 88.3 76.564 92.6 Z M 2.764 60.6 L 2.664 60.3 L 2.564 60.5 L 1.564 61.6 L 1.564 61.7 C 2.364 65 3.464 68.1 4.964 71 L 4.964 71.1 L 6.364 73.7 A 1.701 1.701 0 0 0 6.364 73.733 C 6.366 73.797 6.376 73.8 6.452 73.8 A 6.453 6.453 0 0 0 6.464 73.8 C 9.964 80 14.464 85.1 20.164 89.2 L 20.264 89 C 14.664 84.8 10.264 79.5 6.964 73.1 L 6.564 72.2 C 4.664 68.5 3.564 64.6 2.764 60.6 Z M 106.264 33.1 L 106.164 33.2 L 105.264 34 L 105.264 34.1 A 50.464 50.464 0 0 1 106.793 46.329 C 106.793 46.682 106.789 47.036 106.781 47.39 A 46.007 46.007 0 0 1 105.464 57.4 L 105.464 57.8 L 105.764 57.5 L 108.064 55.4 L 108.164 55.3 C 108.577 52.563 108.75 49.783 108.684 47.003 A 48.226 48.226 0 0 0 106.364 33.3 L 106.264 33.1 Z M 55.064 47.5 L 64.464 42.1 A 1.523 1.523 0 0 0 64.552 42.005 C 64.761 41.757 64.731 41.589 64.464 41.5 L 55.064 36 A 1.417 1.417 0 0 0 54.621 35.925 C 54.469 35.924 54.316 35.949 54.164 36 L 44.764 41.5 A 0.588 0.588 0 0 0 44.668 41.541 C 44.469 41.65 44.5 41.836 44.764 42.1 L 54.164 47.5 A 1.014 1.014 0 0 0 54.301 47.616 C 54.53 47.775 54.758 47.76 54.987 47.571 A 1.119 1.119 0 0 0 55.064 47.5 Z M 54.164 49.2 L 44.764 54.7 C 44.464 54.9 44.464 55.1 44.764 55.2 L 54.164 60.7 A 1.417 1.417 0 0 0 54.607 60.775 C 54.759 60.776 54.912 60.751 55.064 60.7 L 64.464 55.2 C 64.736 55.109 64.762 54.937 64.541 54.756 A 0.981 0.981 0 0 0 64.464 54.7 L 55.064 49.2 A 1.417 1.417 0 0 0 54.621 49.125 C 54.469 49.124 54.316 49.149 54.164 49.2 Z M 43.364 42.9 L 43.364 53.8 A 0.926 0.926 0 0 0 43.373 53.936 C 43.415 54.216 43.596 54.273 43.852 54.108 A 0.976 0.976 0 0 0 43.864 54.1 L 53.264 48.6 C 53.536 48.509 53.562 48.337 53.341 48.156 A 0.981 0.981 0 0 0 53.264 48.1 L 43.864 42.6 C 43.564 42.5 43.364 42.6 43.364 42.9 Z M 55.864 48.6 L 65.264 54.1 A 0.976 0.976 0 0 0 65.329 54.119 C 65.541 54.174 65.634 54.106 65.658 53.915 A 0.942 0.942 0 0 0 65.664 53.8 L 65.664 42.9 C 65.664 42.603 65.566 42.502 65.274 42.597 A 1.151 1.151 0 0 0 65.264 42.6 L 55.864 48.1 A 0.442 0.442 0 0 0 55.766 48.146 C 55.596 48.255 55.597 48.449 55.77 48.557 A 0.446 0.446 0 0 0 55.864 48.6 Z M 70.064 1.6 L 69.864 1.6 L 69.864 2 L 69.964 2 C 74.464 3 78.564 4.6 82.364 6.9 L 82.564 6.7 C 78.664 4.4 74.564 2.7 70.064 1.6 Z M 104.664 31.9 L 104.764 31.6 A 1.99 1.99 0 0 0 105.284 30.802 A 2.381 2.381 0 0 0 105.364 30.5 L 105.364 30.4 C 104.464 28.2 103.564 26.1 102.464 24.1 L 102.364 24.1 L 102.364 24 C 102.287 24 102.09 23.94 101.82 23.867 A 13.124 13.124 0 0 0 101.564 23.8 L 101.264 23.7 L 101.364 24 C 102.664 26.5 103.764 29 104.564 31.6 L 104.664 31.9 Z M 26.564 90.7 L 26.464 90.8 L 26.864 90.8 L 26.564 90.6 L 26.564 90.7 Z"/></g></svg>