<svg width="135.083" height="99.5" viewBox="0 0 135.083 99.5"><g id="void_soul" fill-rule="evenodd"><title>void_soul</title><path unicode="E093" d="M 49.565 54.6 L 50.365 55.1 A 314.248 314.248 0 0 0 58.236 59.231 C 75.305 67.87 83.465 69.763 86.265 70.2 C 87.244 70.004 88.224 69.616 89.11 69.318 A 22.425 22.425 0 0 1 89.165 69.3 L 88.865 69.1 C 93.965 63.9 96.865 57.1 96.865 49.7 C 96.865 34.3 84.265 21.7 68.765 21.7 C 56.165 21.7 45.365 30 41.965 41.9 C 37.465 38.7 33.365 35.4 29.365 31.7 C 36.365 16.6 51.565 6.6 68.365 6.6 C 92.165 6.6 111.565 25.9 111.565 49.7 C 111.565 56.8 109.665 63.7 106.165 70.1 A 0.127 0.127 0 0 0 106.167 70.125 C 106.18 70.189 106.243 70.199 106.26 70.2 A 0.079 0.079 0 0 0 106.264 70.2 C 108.265 71 110.465 71.4 112.565 71.9 L 112.665 71.9 C 116.165 64.8 118.065 57.4 118.065 49.7 C 118.065 22.3 95.765 0 68.365 0 C 49.865 0 32.965 10.5 24.465 26.9 A 10.175 10.175 0 0 0 23.665 26.063 C 23.397 25.807 23.13 25.564 22.885 25.32 A 10.891 10.891 0 0 1 22.865 25.3 C 20.233 20.885 19.114 17.046 19.694 14.58 A 4.029 4.029 0 0 1 20.165 13.4 A 0.124 0.124 0 0 1 20.168 13.37 C 20.185 13.302 20.257 13.29 20.264 13.213 A 0.138 0.138 0 0 0 20.265 13.2 A 1.622 1.622 0 0 1 20.2 13.231 C 20.048 13.298 19.979 13.3 20.059 13.3 A 12.852 12.852 0 0 0 20.065 13.3 L 19.665 13.3 C 19.365 13.4 19.065 13.5 18.765 13.6 A 0.523 0.523 0 0 0 18.666 13.609 C 18.552 13.631 18.467 13.689 18.351 13.754 A 2.022 2.022 0 0 1 18.265 13.8 L 18.065 13.8 C 17.966 13.899 17.77 13.997 17.669 14.096 A 0.439 0.439 0 0 0 17.665 14.1 A 2.387 2.387 0 0 0 17.355 14.376 C 16.287 15.486 14.699 18.763 16.886 24.494 A 23.676 23.676 0 0 0 17.665 26.3 A 41.414 41.414 0 0 0 28.337 39.488 C 30.597 41.456 32.886 43.215 34.965 44.8 C 38.165 47.2 41.465 49.5 44.665 51.7 C 46.265 52.8 47.865 53.7 49.565 54.6 Z M 39.979 70.139 A 5.325 5.325 0 0 0 39.865 70.1 C 51.778 78.1 64.523 84.966 76.587 89.908 A 158.127 158.127 0 0 0 81.965 92 A 129.315 129.315 0 0 0 92.685 95.443 C 99.16 97.196 104.943 98.1 109.865 98.1 A 35.483 35.483 0 0 0 113.38 97.931 A 26.444 26.444 0 0 0 114.465 97.8 C 124.065 96.9 130.165 94.3 133.365 89.9 A 40.602 40.602 0 0 1 130.179 90.782 C 124.161 92.215 115.381 93.269 109.339 93.027 A 36.905 36.905 0 0 1 108.765 93 C 76.904 91.213 45.241 71.99 39.979 70.139 Z M 13.665 37.7 A 18.858 18.858 0 0 0 14.354 38.709 C 18.801 44.839 32.933 59.007 34.065 60.8 C 32.765 60.5 13.765 48.4 6.365 36.6 C 0.565 26.5 -1.535 16.6 1.165 9.4 A 10.823 10.823 0 0 1 1.235 9.214 C 4.02 1.995 13.09 1.699 16.065 1.6 A 24.742 24.742 0 0 1 16.603 1.594 C 21.115 1.594 26.754 2.789 33.965 5 C 33.565 5.4 33.165 5.9 32.665 6.3 A 1.456 1.456 0 0 1 32.595 6.396 A 3.039 3.039 0 0 1 31.865 7 L 31.565 7.3 C 31.165 7.6 30.765 8 30.565 8.3 C 23.965 6.4 15.565 5.2 10.365 9.4 A 8.725 8.725 0 0 0 7.683 13.156 C 5 20.202 9.607 31.489 13.665 37.7 Z M 20.165 61.2 L 20.165 61.4 C 25.565 83.8 45.365 99.5 68.365 99.5 A 41.141 41.141 0 0 0 74.286 99.043 C 75.792 98.825 77.361 98.533 79.03 98.173 A 98.475 98.475 0 0 0 79.365 98.1 L 80.665 97.8 A 98.789 98.789 0 0 0 77.963 96.588 C 77.021 96.175 76.093 95.764 75.165 95.3 A 54.227 54.227 0 0 0 73.724 94.656 C 72.798 94.256 71.931 93.9 71.065 93.5 C 70.566 93.3 69.967 93.101 69.567 92.901 A 2.945 2.945 0 0 1 69.565 92.9 L 68.365 92.9 C 52.265 92.9 37.765 83.7 30.365 69.3 A 1.958 1.958 0 0 0 30.052 69.05 C 29.98 69.002 29.902 68.953 29.816 68.898 A 8.9 8.9 0 0 1 29.665 68.8 C 26.865 66.6 24.065 64.3 21.265 62.1 C 20.893 61.821 20.607 61.542 20.248 61.263 A 6.51 6.51 0 0 0 20.165 61.2 Z M 93.365 78.9 L 94.065 79.2 A 102.618 102.618 0 0 0 101.72 81.978 C 104.379 82.822 106.876 83.482 109.216 83.991 A 68.953 68.953 0 0 0 115.765 85.1 A 224.751 224.751 0 0 1 117.736 85.143 C 122.755 85.268 127.612 85.393 132.091 82.968 A 16.214 16.214 0 0 0 133.365 82.2 A 2.559 2.559 0 0 0 134.061 81.489 C 134.855 80.336 135.276 78.355 134.996 76.928 A 3.134 3.134 0 0 0 134.765 76.2 C 134.596 75.863 134.498 75.454 134.472 75.094 A 2.661 2.661 0 0 1 134.465 74.9 L 134.465 74.7 L 134.365 74.5 C 133.06 71.311 130.915 67.859 127.967 64.22 A 75.224 75.224 0 0 0 124.265 60 C 123.865 62.1 123.065 64.1 122.065 66 C 122.865 67.5 123.765 69.2 124.165 71 A 8.19 8.19 0 0 1 124.386 72.335 C 124.596 74.966 123.396 77.199 121.165 78.4 A 11.982 11.982 0 0 1 117.171 79.572 C 115.568 79.779 113.965 79.754 112.565 79.7 A 61.924 61.924 0 0 1 107.565 79.337 A 74.098 74.098 0 0 1 102.565 78.6 A 49.313 49.313 0 0 1 99.577 77.863 A 89.383 89.383 0 0 1 96.365 76.9 A 31.326 31.326 0 0 1 95.66 77.031 A 113.962 113.962 0 0 1 94.665 77.2 C 93.365 77.5 92.065 77.8 90.765 78 A 7.681 7.681 0 0 0 91.205 78.202 C 91.413 78.29 91.629 78.371 91.831 78.434 A 4.31 4.31 0 0 0 92.065 78.5 A 3.652 3.652 0 0 0 92.715 78.737 C 92.827 78.769 92.94 78.797 93.049 78.823 A 50.806 50.806 0 0 1 93.365 78.9 Z M 71.065 93.5 L 70.965 93.7 L 71.065 93.5 Z M 31.565 7.3 A 1.567 1.567 0 0 1 31.511 7.351 A 1.253 1.253 0 0 1 31.467 7.39 M 31.515 7.334 C 31.346 7.451 31.347 7.48 31.43 7.419"/></g></svg>