<svg width="103.7" height="111.2" viewBox="0 0 103.7 111.2"><g id="void_quickfall" fill-rule="evenodd"><title>void_quickfall</title><path unicode="E097" d="M 70.2 74.9 L 101.9 24.9 L 100.1 23.5 L 60.4 65.2 L 82.7 24.8 L 80.9 23.6 L 57.8 51.1 L 53.6 0 L 51.4 0 L 46.2 51 L 24.1 23 L 22.2 24.2 L 44.2 66.1 L 3.6 23.5 L 1.8 24.9 L 33.5 74.9 C 37.5 81.2 44.4 84.9 51.9 84.9 C 59.3 84.9 66.2 81.2 70.2 74.9 Z M 43.3 93.7 L 10.7 94.5 L 11.9 96.2 A 1.962 1.962 0 0 1 12.042 96.359 C 12.16 96.506 12.253 96.653 12.4 96.8 L 12.7 97.2 L 13.6 97.2 L 14.3 97.2 L 46.5 98 L 56.1 98 L 89.4 97.2 L 91 97.2 L 91.3 96.8 C 91.495 96.605 91.689 96.411 91.792 96.216 A 0.863 0.863 0 0 0 91.8 96.2 L 93 94.5 L 60.4 93.7 L 43.3 93.7 Z M 24.1 107.9 L 27.6 109.8 A 3.235 3.235 0 0 0 28.402 110.348 A 17.78 17.78 0 0 0 28.7 110.5 L 51.8 111.2 L 51.9 111.2 L 74.5 110.6 L 75 110.5 C 75.363 110.319 75.725 110.138 76.088 109.882 A 4.76 4.76 0 0 0 76.2 109.8 L 79.6 107.9 L 51.8 107.2 L 24.1 107.9 Z M 42.5 12.7 L 39.5 12.7 L 39.5 35.3 L 42.5 35.3 L 42.5 12.7 Z M 64.2 12.7 L 61.2 12.7 L 61.2 35.3 L 64.2 35.3 L 64.2 12.7 Z M 80.9 82.1 L 79.3 84.4 L 99.1 83.9 L 100.3 80.9 L 81.9 80.5 L 81.6 81 C 81.4 81.4 81.1 81.7 80.9 82.1 Z M 22.1 81 L 21.8 80.5 L 3.5 80.9 L 4.6 83.9 L 24.4 84.4 L 23.2 82.6 A 10.685 10.685 0 0 1 22.65 81.838 C 22.505 81.62 22.36 81.394 22.201 81.152 A 32.342 32.342 0 0 0 22.1 81 Z M 87.2 66.8 L 87 68.1 C 86.9 68.7 86.9 69.2 86.7 69.8 L 86.4 71.2 L 102.2 70.8 L 103.1 70.7 L 103.3 69.5 C 103.4 69.2 103.4 68.8 103.5 68.5 L 103.7 67.3 L 87.2 66.8 Z M 16.5 68.2 L 16.3 66.9 L 0 67.3 L 0.6 70.8 L 17.1 71.2 L 16.8 69.8 C 16.7 69.3 16.6 68.7 16.5 68.2 Z M 13.9 53.8 L 1.3 54.2 L 1.1 55 C 1 55.4 0.9 55.8 0.8 56.3 L 0.6 57.6 L 14 57.9 L 13.9 53.8 Z M 89.3 57.9 L 101.8 57.6 L 103.1 57.4 L 102.8 56.1 A 2.158 2.158 0 0 0 102.771 55.776 C 102.748 55.627 102.713 55.466 102.674 55.301 A 27.303 27.303 0 0 0 102.6 55 L 102.4 54.2 L 90.2 53.8 L 89.3 57.9 Z"/></g></svg>