<?xml version="1.0" standalone="no"?>
<!DOCTYPE svg PUBLIC "-//W3C//DTD SVG 20010904//EN"
 "http://www.w3.org/TR/2001/REC-SVG-20010904/DTD/svg10.dtd">
<svg version="1.0" xmlns="http://www.w3.org/2000/svg"
 width="900.000000pt" height="900.000000pt" viewBox="0 0 900.000000 900.000000"
 preserveAspectRatio="xMidYMid meet">
<metadata>
Created by potrace 1.10, written by Peter Selinger 2001-2011
</metadata>
<g transform="translate(0.000000,900.000000) scale(0.100000,-0.100000)"
fill="#000000" stroke="none">
<path d="M4230 6480 c-186 -34 -309 -74 -465 -152 -111 -55 -121 -61 -185
-103 -107 -71 -212 -157 -310 -255 -113 -112 -131 -132 -199 -222 -48 -64 -37
-60 -226 -78 -196 -17 -384 -46 -535 -82 -25 -6 -61 -14 -80 -18 -145 -32
-351 -111 -468 -179 -77 -45 -181 -135 -170 -146 4 -4 37 11 73 34 75 47 173
99 213 111 15 5 52 18 82 29 167 64 622 144 865 153 113 4 123 -2 94 -50 -51
-86 -99 -183 -134 -267 -20 -49 -44 -107 -53 -128 -19 -47 -25 -50 -137 -76
-106 -25 -174 -45 -270 -78 -38 -14 -79 -27 -90 -30 -117 -32 -398 -165 -517
-245 -171 -116 -261 -217 -318 -357 -29 -70 -30 -80 -30 -222 0 -125 3 -160
21 -212 59 -179 180 -361 358 -537 106 -105 319 -282 346 -288 25 -6 17 18
-23 72 -72 96 -163 246 -227 372 -84 164 -84 182 -2 125 275 -189 705 -375
1217 -527 30 -9 65 -20 76 -24 40 -15 478 -121 637 -154 328 -67 361 -73 702
-115 310 -39 469 -46 1060 -46 680 0 695 1 1150 85 185 34 470 141 593 224 71
47 150 122 140 132 -4 3 -33 -12 -65 -34 -78 -53 -230 -124 -328 -155 -120
-37 -432 -107 -475 -107 -14 0 -68 -6 -120 -15 -173 -27 -421 -40 -750 -40
-399 0 -703 20 -1075 71 -290 39 -668 107 -840 150 -33 8 -87 22 -120 30 -67
17 -148 39 -215 59 -25 7 -72 21 -105 30 -33 9 -78 23 -100 30 -22 8 -52 16
-67 19 -16 4 -28 11 -28 17 0 13 59 9 340 -24 395 -47 651 -59 1126 -54 236 2
492 10 569 16 266 21 629 64 775 92 224 42 285 55 405 86 60 15 77 19 250 67
50 14 128 39 175 56 47 17 96 35 110 40 73 24 245 107 350 169 198 118 316
243 382 404 26 65 28 78 28 213 0 106 -4 154 -15 181 -8 19 -15 42 -15 50 0
16 -64 150 -100 209 -54 88 -149 205 -249 305 -107 106 -339 299 -360 299 -19
0 -13 -20 18 -59 107 -136 305 -484 299 -527 -3 -21 -11 -17 -113 47 -205 128
-473 254 -814 380 l-63 24 -72 140 c-39 77 -102 187 -141 244 -86 127 -233
301 -322 378 -36 32 -80 71 -97 86 -40 37 -232 164 -316 209 -142 77 -316 134
-510 169 -139 25 -403 24 -540 -1z m569 -125 c176 -38 220 -54 386 -134 66
-33 160 -87 210 -122 90 -65 261 -226 326 -309 41 -51 149 -208 149 -214 0 -3
13 -27 28 -53 48 -81 129 -281 152 -373 5 -19 13 -53 19 -75 40 -160 44 -202
44 -418 0 -233 -8 -273 -38 -201 -9 22 -20 57 -25 79 -27 121 -87 283 -156
422 -195 392 -505 697 -854 841 -121 50 -152 60 -264 84 -121 26 -406 28 -511
3 -124 -29 -189 -46 -220 -60 -16 -7 -70 -30 -119 -50 -279 -120 -541 -354
-719 -642 -62 -102 -126 -224 -158 -303 -27 -68 -89 -257 -89 -271 0 -6 -10
-43 -21 -81 -16 -51 -24 -66 -30 -56 -14 25 -21 316 -11 423 14 138 27 198 79
360 38 118 109 281 156 360 86 141 171 251 281 360 153 153 240 216 418 303
137 67 180 83 338 122 178 44 436 46 629 5z m-2153 -1490 c7 -17 -20 -64 -39
-69 -180 -43 -462 -175 -605 -283 -40 -30 -78 -52 -85 -50 -16 5 105 124 173
168 126 83 209 124 390 195 151 58 158 60 166 39z m2329 -90 c468 -63 804
-202 875 -362 24 -55 25 -77 2 -124 -32 -66 -105 -135 -187 -174 -22 -11 -47
-25 -55 -32 -8 -6 -26 -13 -39 -15 -33 -4 -40 -28 -9 -28 34 0 176 44 309 96
111 43 173 77 254 142 36 28 67 52 69 52 2 0 11 -15 20 -34 64 -135 -79 -299
-364 -419 -87 -36 -177 -67 -221 -76 -19 -4 -41 -11 -47 -15 -6 -3 -30 -10
-54 -15 -24 -5 -88 -18 -143 -30 -631 -130 -1547 -95 -2075 80 -123 41 -149
52 -255 104 -131 65 -231 152 -260 228 -21 54 -17 140 8 164 14 14 22 10 82
-41 77 -65 203 -129 350 -176 55 -18 118 -38 140 -46 48 -16 95 -18 95 -4 0 6
-8 13 -17 16 -77 25 -212 112 -249 160 -56 73 -66 122 -39 187 74 177 521 340
1034 378 168 12 639 2 776 -16z m1478 -63 c48 -26 147 -97 188 -134 55 -50 93
-107 114 -170 19 -57 19 -59 0 -115 -19 -59 -66 -128 -119 -173 -54 -47 -171
-121 -186 -118 -13 3 -15 32 -17 188 -1 162 -19 386 -39 503 -8 43 6 48 59 19z
m-3871 -232 c2 -5 -1 -64 -6 -131 -15 -195 6 -262 118 -374 99 -99 198 -161
368 -234 111 -47 444 -151 483 -151 10 0 41 -6 69 -14 94 -26 276 -56 489 -81
488 -56 1155 -45 1622 26 349 53 699 142 930 236 143 59 336 170 403 233 12
12 28 20 35 17 20 -7 -123 -141 -213 -199 -119 -78 -169 -102 -385 -188 -293
-116 -717 -202 -1260 -256 -243 -25 -905 -25 -1130 0 -414 44 -832 117 -1035
181 -274 87 -471 171 -603 259 -78 52 -176 150 -207 206 -20 37 -24 59 -24
125 0 93 16 126 105 211 53 50 142 114 158 114 5 0 14 7 21 15 14 17 57 20 62
5z"/>
</g>
</svg>
