<svg width="204.4" height="92.53" viewBox="0 0 204.4 92.53"><g id="warlock_blade" fill-rule="evenodd"><title>warlock_blade</title><path unicode="E119" d="M 161.6 39.807 L 162.6 39.807 A 8.84 8.84 0 0 1 163.084 39.839 C 166.144 40.088 182.34 41.889 189.8 47.507 A 21.173 21.173 0 0 1 186.285 49.592 C 177.353 53.889 163.124 55.107 162.6 55.107 L 159.5 55.207 A 24.936 24.936 0 0 1 152.526 60.918 C 149.713 62.531 146.434 63.858 142.813 64.839 A 56.061 56.061 0 0 1 133.5 66.507 A 50.446 50.446 0 0 0 135.85 66.595 A 145.714 145.714 0 0 0 138.2 66.607 A 55.048 55.048 0 0 0 150.724 65.213 C 154.542 64.32 158.011 63.023 161.033 61.405 A 32.138 32.138 0 0 0 165.4 58.607 A 39.062 39.062 0 0 1 154.663 68.787 C 150.094 71.811 144.649 74.351 138.561 76.225 A 81.287 81.287 0 0 1 121.1 79.507 C 123.7 79.707 126.3 79.807 128.8 79.807 A 87.566 87.566 0 0 0 152.422 76.638 C 158.592 74.899 164.164 72.506 168.858 69.615 A 43.275 43.275 0 0 0 176.3 63.907 A 53.915 53.915 0 0 1 161.233 77.284 C 154.953 81.182 147.523 84.446 139.256 86.884 A 121.59 121.59 0 0 1 114 91.407 C 117.5 91.707 121.2 91.907 124.9 91.907 A 128.116 128.116 0 0 0 161.09 86.874 C 181.025 80.965 196.085 70.327 201.844 57.52 A 28.137 28.137 0 0 0 204.4 45.907 A 33.301 33.301 0 0 0 192.386 21.657 C 178.343 8.669 153.366 0.007 124.9 0.007 C 121.2 0.007 117.5 0.107 114 0.407 A 124.846 124.846 0 0 1 142.657 6.155 C 150.522 8.772 157.537 12.126 163.404 16.058 A 51.107 51.107 0 0 1 176.2 27.907 A 47.819 47.819 0 0 0 163.183 19.209 C 157.69 16.635 151.37 14.664 144.521 13.458 A 90.902 90.902 0 0 0 128.8 12.107 A 97.047 97.047 0 0 0 122.993 12.275 A 93.119 93.119 0 0 0 121.1 12.407 C 141.3 14.007 157.8 22.307 165.3 33.207 C 160.384 29.462 153.459 26.691 145.332 25.654 A 56.379 56.379 0 0 0 138.2 25.207 C 136.6 25.207 135.1 25.307 133.5 25.407 A 50.012 50.012 0 0 1 146.046 28.017 C 149.7 29.309 152.912 31.002 155.549 33 A 21.506 21.506 0 0 1 161.6 39.807 Z M 71.4 48.107 L 71.4 51.107 A 8.948 8.948 0 0 1 71.378 51.735 C 71.352 52.113 71.304 52.431 71.25 52.688 A 5.621 5.621 0 0 1 71.2 52.907 L 71.2 53.107 L 154.8 51.607 A 17.615 17.615 0 0 0 155.301 51.589 C 158.421 51.447 174.957 50.431 183.647 46.562 A 20.506 20.506 0 0 0 184.8 46.007 C 176.343 42.006 159.122 40.569 155.467 40.341 A 16.394 16.394 0 0 0 154.8 40.307 L 71.2 38.807 L 71.2 39.007 A 5.925 5.925 0 0 1 71.291 39.427 C 71.346 39.742 71.39 40.154 71.399 40.781 A 16.744 16.744 0 0 1 71.4 41.007 L 71.4 44.407 L 161.9 45.707 A 0.165 0.165 0 0 1 162.016 45.758 C 162.055 45.796 162.085 45.857 162.096 45.94 A 0.533 0.533 0 0 1 162.1 46.007 A 0.21 0.21 0 0 1 162.009 46.169 A 0.189 0.189 0 0 1 161.9 46.207 L 71.4 48.107 Z M 67.2 36.907 L 59.2 20.607 A 4.426 4.426 0 0 0 58.891 20.234 C 58.793 20.13 58.695 20.04 58.596 19.968 A 1.086 1.086 0 0 0 58.3 19.807 L 46.4 14.407 L 46.2 14.407 L 46.2 14.607 L 49.8 31.007 A 1.455 1.455 0 0 0 49.927 31.382 C 50.069 31.66 50.284 31.836 50.5 31.907 L 59.3 36.107 C 60.436 38.853 60.945 42.406 60.996 45.493 A 31.268 31.268 0 0 1 61 46.007 C 61 48.9 60.592 52.201 59.627 54.95 A 16.728 16.728 0 0 1 59.3 55.807 L 50.5 60.007 C 50.201 60.107 49.903 60.405 49.801 60.901 A 1.687 1.687 0 0 0 49.8 60.907 L 46.2 77.307 L 46.2 77.507 A 0.112 0.112 0 0 0 46.204 77.539 C 46.223 77.606 46.312 77.596 46.4 77.507 L 58.3 72.207 L 59.2 71.307 L 67.1 55.407 L 68.9 54.107 A 1.666 1.666 0 0 0 69.36 53.285 A 1.737 1.737 0 0 0 69.4 52.907 L 69.4 39.307 A 1.688 1.688 0 0 0 69.304 38.738 A 1.693 1.693 0 0 0 68.9 38.107 L 67.2 36.907 Z M 53.3 36.107 L 46.1 36.107 L 38.6 38.607 L 38.6 39.907 L 47.9 39.907 A 10.889 10.889 0 0 1 48.477 39.919 C 50.054 40 52.9 40.657 52.9 46.007 C 52.9 51.51 49.789 51.966 48.27 52.004 A 14.395 14.395 0 0 1 47.9 52.007 L 38.6 52.007 L 38.6 53.307 L 46.1 55.807 L 54 55.807 C 55.952 55.515 57.237 54.174 57.948 52.994 A 6.953 6.953 0 0 0 58 52.907 C 59.1 51.007 59.6 48.707 59.6 46.007 C 59.6 41.866 58.111 37.5 54.94 36.381 A 4.894 4.894 0 0 0 53.3 36.107 Z M 47.7 41.207 L 38.2 41.207 L 38.1 41.207 L 19.6 41.207 L 19.6 50.707 L 38.1 50.707 L 38.2 50.807 L 47.7 50.707 A 9.444 9.444 0 0 0 47.972 50.704 C 49.621 50.656 51.27 50.12 51.556 47.019 A 11.007 11.007 0 0 0 51.6 46.007 C 51.6 41.912 49.786 41.264 47.972 41.211 A 9.405 9.405 0 0 0 47.7 41.207 Z M 111.565 12.236 A 8.074 8.074 0 0 0 112.4 11.907 A 12.706 12.706 0 0 1 109.897 11.459 C 103.518 9.588 104.403 3.12 98.31 0.787 A 10.416 10.416 0 0 0 97.8 0.607 C 93.4 -0.693 90.2 0.307 87.9 1.607 A 10.06 10.06 0 0 0 85.172 3.797 A 13.932 13.932 0 0 0 84.5 4.607 A 18.947 18.947 0 0 1 85.998 4.305 C 90.778 3.548 93.56 5.215 96.746 7.444 A 1391.234 1391.234 0 0 0 98.4 8.607 C 103.219 12.222 107.952 13.431 111.565 12.236 Z M 98.4 83.807 C 94.1 86.707 91.1 89.507 84.5 87.907 A 12.191 12.191 0 0 0 86.273 89.794 A 9.412 9.412 0 0 0 87.9 90.907 C 90.086 92.143 93.084 93.197 97.152 92.012 A 15.072 15.072 0 0 0 97.8 91.807 A 8.77 8.77 0 0 0 100.032 90.841 C 104.341 88.184 104.192 82.648 110.073 81.011 A 12.665 12.665 0 0 1 112.4 80.607 C 109.373 79.053 105.408 79.707 101.219 82.023 A 29.482 29.482 0 0 0 98.4 83.807 Z M 0 42.107 L 12.7 39.007 L 18.1 41.007 L 18.1 50.907 L 12.7 53.007 L 0 49.807 L 0 42.107 Z M 44.705 47.386 A 2.066 2.066 0 0 0 46.1 47.907 A 2.186 2.186 0 0 0 46.349 47.893 C 46.916 47.828 47.385 47.541 47.676 47.111 A 1.951 1.951 0 0 0 48 46.007 A 2.204 2.204 0 0 0 47.958 45.575 A 1.888 1.888 0 0 0 46.1 44.007 C 45 44.007 44.1 44.907 44.1 46.007 A 1.837 1.837 0 0 0 44.705 47.386 Z M 12.7 38.907 L 12.7 39.007 L 12.7 38.907 Z M 12.7 39.007 L 12.7 38.907 L 12.7 39.007 Z"/></g></svg>