<?xml version="1.0" encoding="UTF-8" standalone="no"?>
<svg
   xmlns:dc="http://purl.org/dc/elements/1.1/"
   xmlns:cc="http://creativecommons.org/ns#"
   xmlns:rdf="http://www.w3.org/1999/02/22-rdf-syntax-ns#"
   xmlns:svg="http://www.w3.org/2000/svg"
   xmlns="http://www.w3.org/2000/svg"
   xmlns:sodipodi="http://sodipodi.sourceforge.net/DTD/sodipodi-0.dtd"
   xmlns:inkscape="http://www.inkscape.org/namespaces/inkscape"
   version="1.0"
   width="900.000000pt"
   height="900.000000pt"
   viewBox="0 0 900.000000 900.000000"
   preserveAspectRatio="xMidYMid meet"
   id="svg14"
   sodipodi:docname="altars_of_sorrow.svg"
   inkscape:version="1.0.1 (3bc2e813f5, 2020-09-07)">
  <defs
     id="defs18" />
  <sodipodi:namedview
     pagecolor="#ffffff"
     bordercolor="#666666"
     borderopacity="1"
     objecttolerance="10"
     gridtolerance="10"
     guidetolerance="10"
     inkscape:pageopacity="0"
     inkscape:pageshadow="2"
     inkscape:window-width="1754"
     inkscape:window-height="1057"
     id="namedview16"
     showgrid="false"
     inkscape:zoom="0.52443753"
     inkscape:cx="982.55339"
     inkscape:cy="663.93279"
     inkscape:window-x="158"
     inkscape:window-y="-8"
     inkscape:window-maximized="1"
     inkscape:current-layer="svg14" />
  <metadata
     id="metadata2">
Created by potrace 1.10, written by Peter Selinger 2001-2011
<rdf:RDF>
  <cc:Work
     rdf:about="">
    <dc:format>image/svg+xml</dc:format>
    <dc:type
       rdf:resource="http://purl.org/dc/dcmitype/StillImage" />
  </cc:Work>
</rdf:RDF>
</metadata>
  <g
     transform="translate(0.000000,900.000000) scale(0.100000,-0.100000)"
     fill="#000000"
     stroke="none"
     id="g12">
    <path
       id="path4"
       style="stroke-width:0.133333"
       d="m 615.20117,98.996094 c 0,0 -4.42706,1.697886 -6.40039,2.337886 -2,0.66667 -4.80143,2.13204 -6.13476,3.33204 -2.53334,2.26666 -7.9987,5.4664 -15.33204,9.0664 -2.13333,1.06667 -10.53463,8.53412 -18.66796,16.80078 -8,8.13334 -15.2,14.80078 -16,14.80078 -1.33334,0 -10,9.73347 -10,11.4668 0,0.4 -1.86667,3.06576 -4,5.73242 -2.26667,2.66667 -4.6668,5.60039 -5.4668,6.40039 -0.66667,0.93334 -2.66654,1.73243 -4.5332,1.73243 -1.73334,0 -4.5323,1.2013 -6.26563,2.66796 -1.6,1.46667 -6.93437,5.19844 -11.73437,8.39844 -4.66667,3.06667 -12.8,10.1349 -18,15.60156 -28,29.73334 -50.93334,52.2655 -64,62.79883 -8,6.66667 -26.13282,23.20026 -40.13282,36.9336 -14,13.73333 -31.06718,29.06757 -37.86718,34.26757 -17.46667,13.2 -21.20013,16.5336 -23.4668,20.9336 -1.2,2.26666 -8.13294,10.13294 -15.59961,17.59961 -7.46667,7.46666 -16.2668,16.66653 -19.4668,20.5332 -3.2,3.86667 -6.39974,6.93359 -7.0664,6.93359 -2.53334,0 -24.93243,19.73269 -41.73243,36.66602 -9.6,9.73333 -18.93463,18.13268 -20.66796,18.66602 -4.53334,1.46666 -10.26524,6.40104 -15.86524,13.73437 -2.53333,3.46667 -9.60156,11.33294 -15.60156,17.59961 -6,6.26667 -14.13229,15.2 -18.26563,20 -9.46666,11.2 -16.13411,17.33398 -18.80078,17.33398 -1.06666,0 -4.1332,1.86667 -6.5332,4 -2.53333,2.13334 -5.2,4 -6,4 -0.8,0 -5.20052,4.66563 -9.86719,10.26563 -4.53333,5.73333 -13.06601,14.9332 -18.66601,20.5332 -5.73334,5.6 -10.40039,10.66732 -10.40039,11.33399 0,1.33333 -5.199223,9.06744 -11.199223,16.80078 C 88.133464,592.80091 73.466406,604 71.066406,604 c -3.066666,0 -12.132291,8.53398 -18.265625,17.33398 -4,5.6 -10.667448,13.20026 -14.800781,16.9336 -6.266667,5.6 -7.332682,7.2 -6.666016,10 0.533334,2.26666 -5.2e-4,3.86627 -1.867187,5.59961 -1.733333,1.6 -2.800781,4.26601 -2.800781,6.66601 0,2.53334 -1.066016,5.06654 -2.666016,6.53321 -2.133333,1.73333 -2.666536,3.73385 -2.533203,9.86718 0.266667,6.66667 -0.133985,7.86706 -3.333985,10.40039 -2.133333,1.73334 -3.466796,4.1323 -3.466796,6.26563 0,2.44281 1.082031,5.08984 1.082031,5.08984 0,0 3.150541,-0.96892 4.917969,-3.08984 1.733333,-1.86667 4.401432,-3.60052 6.134765,-3.86719 2.266667,-0.26666 3.998568,-2.1319 5.865235,-5.86523 3.466666,-7.2 5.601041,-9.60013 11.734375,-13.4668 7.6,-4.8 10.399479,-2.40104 14.132812,12.26563 1.866667,7.33333 6.665886,12.1345 13.199219,13.20117 3.866667,0.53333 7.334635,2.66679 12.667969,7.46679 4,3.6 7.732812,6.66602 8.132812,6.66602 0,0 0.800781,-1.19935 0.800781,-2.66602 0,-3.46666 1.865625,-4.13372 12.265626,-4.40039 L 114,704.66602 l 0.66602,-5.86524 c 0.53333,-5.06667 1.2013,-6.13398 4.66796,-7.33398 6.4,-2.26667 12.13217,-7.19935 16.79883,-14.66602 2.4,-3.73333 9.73425,-12.26745 16.26758,-18.80078 6.53333,-6.66667 12.8,-13.46732 14,-15.33398 5.46667,-8.4 10.93333,-14.40013 22,-23.4668 6.53333,-5.46667 12.80052,-9.86524 13.86719,-9.86524 2.8,0 10.53268,-6.9345 16.66601,-15.20117 2.8,-3.73333 8.26615,-9.19948 12.13282,-12.13281 6.93333,-5.2 13.86705,-12.40078 16.40039,-16.80078 2.4,-4.4 12.80039,-11.86524 16.40039,-11.86524 2.66666,0 5.86562,-2.26653 12.26562,-8.5332 4.66667,-4.66667 10.66784,-9.46654 13.20117,-10.5332 5.2,-2.26667 13.33204,-9.6 13.33204,-12 0,-2.53334 11.0677,-12.9336 13.73437,-12.9336 2.8,0 40.53203,-37.20078 47.33203,-46.80078 2.4,-3.2 8.80091,-9.73229 14.26758,-14.26562 5.46667,-4.53334 10.93424,-10 12.26758,-12 4.53333,-7.33334 11.46562,-13.60039 16.26562,-14.40039 6.53334,-1.33334 12.53308,-6.26719 19.06641,-15.86719 8.26667,-12 29.33463,-32.40065 34.66797,-33.33398 3.06666,-0.53334 5.99909,-2.79974 9.73242,-7.06641 5.6,-6.8 12.93372,-12.26563 16.40039,-12.26563 1.86667,0 24.26563,-22.00052 24.26563,-23.86718 0,-0.53334 3.60143,-4.80013 8.13476,-9.4668 4.53333,-4.8 9.19844,-10.80065 10.39844,-13.33398 5.46667,-11.6 16.2668,-24.13217 29.4668,-34.79883 3.33333,-2.66667 9.4677,-10.00091 13.73437,-16.26758 6.66667,-9.86667 17.06693,-20.00039 22.93359,-22.40039 3.73334,-1.6 15.33204,-9.59935 15.33204,-10.66602 0,-0.68436 1.03125,-1.41992 1.03125,-1.41992 0,0 5.92031,0.98045 6.96875,2.88672 0.8,1.46667 2.13359,2.66602 2.93359,2.66602 0.8,0 3.33294,1.46783 5.59961,3.20117 2.26667,1.73333 5.46836,3.46666 7.06836,4 3.06666,0.93333 20.39844,17.73242 20.39844,19.73242 0,2.8 11.60013,16.26706 19.46679,22.40039 9.2,7.2 24.53321,26.53411 24.53321,30.80078 0,1.6 1.86809,4.39896 4.13476,6.26563 2.26667,2 6.79948,6.93359 10.13281,10.93359 11.73334,14.4 26.26602,29.33398 28.66602,29.33398 3.2,0 10.13411,4.93282 16.80078,12.13282 3.2,3.46666 7.33203,6.53359 9.33203,6.93359 3.46667,0.66667 30.9336,25.6 30.9336,28 0,1.6 8.93346,12.66602 13.46679,16.66602 2.53334,2.13333 6.66732,4.26744 9.33399,4.80078 4.8,0.8 11.19974,6.53307 17.0664,15.0664 1.6,2.4 7.33269,8.00039 12.66602,12.40039 5.46667,4.53334 11.46823,10.66576 13.60156,13.73243 5.6,8.66666 17.7319,19.4664 25.86524,23.0664 4,1.86667 8.8013,4.79987 10.66796,6.53321 1.86667,1.73333 6.53178,4.40052 10.39844,5.86718 3.73334,1.6 9.8668,4.00013 13.4668,5.4668 14.4,5.73333 40.66784,21.3332 41.20117,24.5332 0.12335,0.55508 0.26736,1.4941 0.26736,1.4941 0,0 -1.80785,3.16541 -2.66775,4.24028 -4.66667,6 -3.33333,8.53268 16,28.66601 4,4.13334 9.46667,10.53334 12,14 5.86667,8 8.7993,10.66732 14.666,13.33399 6.5333,2.93333 24.4007,17.99935 31.334,26.66601 4.4,5.33334 6,8.53295 6,11.59961 0,5.06667 2.0009,7.4668 6.2676,7.4668 2.1333,0 3.9989,1.59974 6.2656,5.06641 1.7333,2.93333 4.9331,5.86744 7.0664,6.80078 2.1333,0.93333 5.9997,4.93294 9.0664,9.59961 2.9333,4.53333 8.2677,10.93372 11.7344,14.40039 3.6,3.33333 8.3988,7.99896 10.7988,10.26562 2.2667,2.13334 8.1341,6.66719 12.8008,9.86719 4.6667,3.2 10.5331,7.86758 13.0664,10.26758 2.4,2.4 6.6673,5.86627 9.334,7.59961 2.6667,1.73333 6.2672,4.66705 7.8672,6.40039 1.6,1.6 4.6655,5.06536 6.7988,7.33203 3.4667,3.73333 9.5996,6.00104 9.5996,3.73437 0,-1.6 -4.6659,-8.13424 -7.1992,-10.26757 l -2.8008,-2.26563 3.0664,-3.06836 c 2.9334,-3.33333 3.8677,-6.39844 1.7344,-6.39844 -1.6,0 -10.8008,-8.93372 -10.8008,-10.40039 0,-0.66666 -1.1993,-2.79935 -2.666,-4.66601 -3.0667,-3.86667 -2.2671,-7.60156 1.5996,-7.60156 1.6,0 8.3995,-5.33217 16.1328,-12.79883 7.4667,-7.06667 16.8003,-14.93347 20.9336,-17.4668 9.0667,-5.86667 13.334,-14 13.334,-14 0,-1.73333 -5.0658,-7.73424 -13.7324,-16.26758 -7.6,-7.33333 -16.2673,-17.19961 -19.334,-21.59961 -5.3333,-8 -7.8664,-10.1332 -25.0664,-20.5332 -5.6,-3.33333 -9.8668,-7.59922 -15.4668,-15.19922 -4.2667,-5.86667 -7.7344,-11.33424 -7.7344,-12.26758 0,-0.8 -3.866,-5.06588 -8.666,-9.19922 -4.8,-4.26666 -10.9339,-10.79987 -13.8672,-14.5332 -6,-8 -14.9328,-17.20078 -22.1328,-22.80078 -5.2,-4 -11.7327,-10.40091 -20.666,-20.26758 -7.4667,-8 -18.8,-16.93268 -24,-18.66601 -2.5333,-0.93334 -5.8673,-3.19974 -7.334,-5.06641 -1.4667,-2 -7.1993,-8.26615 -12.66602,-14.13281 -5.46666,-5.86667 -12.66666,-13.73295 -16,-17.59961 -3.33333,-3.73334 -7.46731,-8.26667 -9.33398,-10 -5.06667,-4.8 -22.8,-18.93425 -28,-22.26758 -2.53333,-1.73333 -6.39935,-5.33281 -8.66602,-8.13281 -2.13333,-2.66667 -9.73411,-10.80052 -16.80078,-17.86719 -7.06666,-7.2 -15.19948,-16.26615 -18.13281,-20.13281 -3.33333,-4.4 -11.33372,-11.73321 -20.40039,-18.53321 -8.26667,-6.26666 -24.93255,-21.19974 -37.19922,-33.0664 -12.13333,-12 -26.00078,-25.20065 -30.80078,-29.33399 -4.8,-4.26666 -8.93398,-7.86757 -9.33398,-8.26757 -0.4,-0.4 -4,-3.19896 -8,-6.26563 -6.66667,-5.2 -33.4655,-31.73463 -58.79883,-58.66797 -5.6,-6 -13.73334,-13.06523 -18,-15.86523 -4.4,-2.8 -9.59961,-6.53477 -11.59961,-8.13477 -2.13334,-1.73333 -5.20026,-3.0664 -6.9336,-3.0664 -2.13333,0 -4.80052,-1.99857 -7.86718,-5.86524 -2.66667,-3.06667 -4.80078,-6.26693 -4.80078,-6.93359 0,-0.66667 -2.53243,-3.73412 -5.73243,-6.80078 -30,-29.46667 -36.80091,-35.73399 -40.26757,-37.33399 -5.6,-2.66666 -13.3323,-7.46666 -16.26563,-10 -1.84,-1.68 -9.19922,-4.736326 -9.19922,-4.736326 z M 1138.3633,683.4707 c -1.1127,0.0284 -2.5423,2.28288 -2.5637,3.3957 -0.023,1.17888 1.0489,3.52943 2.2062,3.75511 1.1467,0.22362 3.0447,-2.30185 3.2169,-3.45745 0.2294,-1.54041 -1.3025,-3.73306 -2.8594,-3.69336 z"
       transform="matrix(7.5,0,0,-7.5,0,9000)"
       sodipodi:nodetypes="cccccssccsccccsccssscccscscsccscsccccscccscccccscscsccccccccscccsccsscscccccsscccccsccsscscsccsccsccccccscccccccccsscscccscsccscccsscscccccccsccccccscccccccccsccccscsccccsssss" />
    <path
       id="path6"
       style="stroke-width:0.133333"
       d="m 617.06445,303.68359 c 0,0 -4.85387,1.72487 -7.99804,4.04883 -2.66667,2 -8.79961,8.53516 -13.59961,14.53516 -4.8,6 -12.26602,13.59831 -16.66602,16.93164 -4.4,3.46667 -9.33359,8.1332 -10.93359,10.5332 -8.26667,11.73334 -23.0681,27.46823 -26.13477,27.60156 -0.8,0 -3.33151,1.46537 -5.46484,3.33204 -2.13334,1.86666 -5.20078,3.73372 -6.80078,4.40039 -1.6,0.53333 -9.73334,7.59961 -18,15.59961 -8.26667,8.13333 -16.66602,16.13333 -18.66602,18 -3.6,3.06666 -6.66693,7.0664 -12.93359,17.0664 -1.6,2.4 -4.26706,4.66836 -6.40039,5.06836 -1.86667,0.4 -4.40013,1.33333 -5.4668,2 -1.06667,0.66667 -3.73242,2.26628 -5.73242,3.59961 -2,1.2 -6.13503,4.53255 -9.06836,7.19922 -2.93333,2.8 -5.86654,5.06641 -6.5332,5.06641 -0.66667,0 -4.00013,3.73424 -7.4668,8.26757 -3.46667,4.66667 -7.86576,9.59974 -9.73242,11.06641 -4.53334,3.6 -18.80078,18.26732 -18.80078,19.33398 0,2.8 -14.66628,17.33347 -19.59961,19.4668 -2.4,1.06667 -4.40039,2.53255 -4.40039,3.19922 0,0.8 -0.93334,1.33398 -2,1.33398 -2.93334,0 -15.73204,11.99922 -33.33204,31.19922 -4.4,4.93334 -10.66666,10.13438 -14,11.73438 -3.33333,1.6 -7.46731,4.26666 -9.33398,6 -1.86667,1.73333 -3.73424,3.0664 -4.26758,3.0664 -0.66666,0 -1.0664,0.6668 -1.0664,1.4668 0,1.73333 -11.06602,14.79987 -20.66602,24.5332 -3.73333,3.6 -8.93294,9.33269 -11.59961,12.66602 -8.8,11.06667 -19.73398,21.19909 -25.33398,23.73242 -7.33334,3.2 -19.06693,14.00182 -26.9336,24.53516 -3.33333,4.66666 -9.06549,10.93281 -12.79883,14.13281 -3.6,3.2 -9.46744,10.13203 -12.80078,15.33203 -3.46666,5.33334 -7.4664,11.06745 -9.0664,12.80078 -3.33334,3.73334 -15.73256,13.19987 -19.19922,14.53321 -5.73334,2.26666 -13.3336,9.20013 -16.9336,15.46679 -2.26666,3.73334 -10.40091,13.06745 -18.26757,20.80078 -17.33334,16.93334 -17.86628,18.53269 -7.59961,26.66602 3.73333,2.93333 7.33333,5.33398 8,5.33398 1.86666,0 20.00013,16.93334 23.46679,22 2.93334,4.26667 3.73321,4.66511 8.53321,4.39844 6.53333,-0.26666 9.20078,1.86823 6.80078,5.60156 -4.26667,6.8 0.39961,7.19935 7.59961,0.66602 6.26666,-5.73333 11.33281,-7.33398 22.13281,-7.33398 6.4,0 8.39961,-0.53321 9.59961,-2.53321 0.8,-1.33333 3.19974,-2.7987 5.06641,-3.33203 4.26666,-1.06667 11.4677,-8.00169 19.73437,-19.06836 3.46667,-4.66666 10.66563,-12.66523 16.26563,-17.86523 5.46666,-5.2 10,-10.0013 10,-10.66797 0,-0.66667 1.99987,-3.86641 4.5332,-7.06641 4,-5.33333 7.7332,-8.79909 22.5332,-21.73242 2.13334,-1.86667 6.0013,-4.26732 8.66797,-5.33398 5.2,-2.13334 19.60026,-16.26654 20.93359,-20.53321 0.53334,-1.33333 2.53269,-3.46653 4.66602,-4.5332 3.6,-1.86667 11.99961,-9.86602 25.59961,-24.66602 4.13333,-4.4 7.33346,-6.66796 9.4668,-6.66796 3.2,0 15.59961,-8.39987 15.59961,-10.53321 0,-1.73333 11.86796,-16.13307 20.66796,-25.0664 12.53334,-12.66667 26,-28.26563 26,-30.26563 0,-0.37757 0.59663,-2.09742 0.59663,-2.09742 0,0 -2.01684,-0.86898 -2.73139,-1.50414 -2.8,-2.26667 -1.4668,-12.26615 2.5332,-18.13281 1.6,-2.26667 9.06693,-8.1336 16.9336,-12.9336 7.73333,-4.93333 18.26731,-11.86679 23.33398,-15.46679 5.2,-3.6 13.46602,-9.46693 18.66602,-12.9336 5.06666,-3.6 14.13333,-11.19974 20,-17.0664 10.4,-10.26667 21.46744,-18.79909 30.80078,-23.73243 2.53333,-1.2 5.33281,-3.4664 6.13281,-5.0664 2.66667,-4.13334 9.86641,-8.13451 13.06641,-7.20117 2.13333,0.66666 4.2664,-0.66589 9.0664,-5.19922 8,-7.73334 15.86836,-13.86745 19.06836,-14.80078 1.33333,-0.53334 2.5332,-1.19909 2.5332,-1.73243 0,-0.53333 1.60013,-2.80026 3.4668,-4.93359 7.82508,-9.21859 12.11592,-13.52511 14.67578,-14.85938 0.62426,-0.32537 1.58985,-0.77148 1.58985,-0.77148 0,0 0.77353,0.45614 1.32617,0.74805 1.98265,1.04724 5.24962,3.81376 8.27344,7.15039 3.86666,4.26666 9.20052,8.66666 11.86718,10 8.53334,4.26666 14.26758,8.26614 20.26758,14.13281 3.2,3.2 8.40013,7.19974 11.4668,9.06641 3.06666,1.86666 7.0664,5.46666 9.0664,8 2,2.53333 4.93178,5.33333 6.39844,6 2.8,1.2 5.4668,2.93229 19.4668,12.26562 2.93333,2 5.4668,4.26693 5.4668,4.9336 0,0.66666 1.86666,3.33437 4,5.73437 2.26666,2.53333 4,5.2 4,6 0,1.33333 14,15.99974 24,25.06641 6.66666,6 9.73476,9.46614 12.13476,14.13281 4.8,9.2 24.26589,29.3332 37.19922,38.5332 5.46667,3.86667 12.79948,9.46706 16.13281,12.40039 3.46667,3.06667 9.46732,8.13347 13.33399,11.4668 3.86666,3.33333 9.99909,8.79948 13.73242,12.13281 3.73333,3.33334 8.80169,7.46641 11.06836,9.06641 2.4,1.6 7.59961,7.3332 11.59961,12.5332 4,5.33334 9.46666,11.73477 12,14.13477 2.66666,2.53333 4.79883,5.33333 4.79883,6 0.13333,2.26666 22.4013,21.33216 26.66796,22.79883 5.73334,2 21.86537,15.73307 29.33204,25.0664 11.06666,13.86667 12.39974,15.20052 21.0664,23.86719 4.66667,4.66667 10.53503,11.46732 13.06836,15.33398 6.53333,9.73334 14.26641,16.40039 19.06641,16.40039 5.46666,0 14.26536,7.46693 15.33203,12.9336 0.53671,2.60677 4.13128,6.91461 4.13128,6.91461 0,0 2.5535,0.15179 4.5367,0.15179 1.6,0 3.9991,1.86654 5.7324,4.53321 12.1333,18 22.2676,21.46679 22.2676,21.46679 0,0 1.5995,-9.33463 -1.8672,-12.66796 -1.8667,-1.73334 -3.334,-4.53178 -3.334,-6.39844 0,-1.73334 -1.1993,-4.66849 -2.666,-6.53516 -1.8667,-2.4 -2.666,-5.46575 -2.666,-9.73242 0,-3.46667 -0.9333,-8.93281 -2,-12.13281 -2,-5.46667 -1.8682,-6.00117 0.3984,-9.20117 2.2667,-2.8 3.7335,-3.33204 9.4668,-3.33204 2.2864,0 5.9727,1.3532 5.9727,1.3532 0,0 1.9697,-3.21296 3.4941,-5.75359 2.9333,-4.8 7.9999,-5.73424 12.5332,-2.26757 3.7334,2.8 9.2012,2.53398 13.2012,-0.66602 1.8667,-1.46667 3.8665,-2.66602 4.5332,-2.66602 1.8667,0 9.7324,-7.73489 9.7324,-9.60156 0,-0.93333 -6.5332,-7.99909 -14.5332,-15.73242 -7.8667,-7.73333 -16.3993,-17.06693 -18.666,-20.93359 -3.8667,-6.13334 -16.1341,-17.73243 -18.8008,-17.73243 -2.2667,0 -14.3995,-8.93398 -18.1328,-13.33398 -2.1333,-2.53333 -6.2659,-8.26602 -9.1992,-12.66602 -2.9333,-4.4 -10.53361,-13.33385 -16.93361,-19.86718 -6.53333,-6.4 -11.73437,-12.40065 -11.73437,-13.33399 0,-1.73333 -9.99935,-11.46614 -22.66602,-22.13281 -4.8,-4 -9.46654,-8.53333 -10.5332,-10 -4.66667,-6.8 -17.86602,-18.00065 -22.66602,-19.33398 -6.13333,-1.6 -7.60052,-2.9336 -19.86719,-16.9336 -5.33333,-6 -12.79935,-14 -16.66601,-18 -3.86667,-3.86666 -10.00013,-10.53216 -13.4668,-14.79883 -3.6,-4.13333 -7.20143,-7.59961 -8.13476,-7.59961 -1.06667,0 -2.9323,-1.33307 -4.26563,-3.0664 -2.26667,-2.93334 -5.99974,-5.46797 -13.06641,-8.66797 -4.26666,-2 -11.60104,-9.46615 -19.73437,-20.13281 -4.13333,-5.46667 -10.79883,-12.66667 -14.79883,-16 -4,-3.33334 -9.06784,-8.53347 -11.20117,-11.4668 C 789.19961,458.8 786,455.60052 782,453.86719 c -2.26667,-0.93334 -6.8,-4.13308 -10,-7.06641 -3.33333,-3.06667 -7.19935,-5.4668 -8.66602,-5.4668 -3.6,0 -8.66796,-3.60143 -8.66796,-6.13476 0,-1.06667 -0.53204,-1.86524 -1.33204,-1.86524 -0.66666,0 -2.26731,-1.86809 -3.33398,-4.13476 -2.53333,-4.8 -41.06693,-42.79896 -44.93359,-44.26563 -1.46667,-0.53333 -4.53269,-2.40091 -6.66602,-4.26757 -2.13333,-1.86667 -4.53398,-3.33204 -5.33398,-3.33204 -2.53334,0 -11.46719,-8.80156 -21.86719,-21.60156 -5.86667,-7.06666 -14.53294,-15.99909 -19.59961,-19.73242 -4.93333,-3.73333 -8.93359,-7.33333 -8.93359,-8 0,-2.26667 -13.06524,-17.46602 -17.86524,-20.66602 -3.05413,-2.07941 -7.73633,-3.65039 -7.73633,-3.65039 z M 184.3125,823.49023 c -1.10526,-0.042 -2.30093,1.08271 -2.92383,2.03711 -0.63349,0.97064 -1.28835,2.75292 -0.36914,3.45899 1.40124,1.07632 4.19779,-0.30422 4.94727,-1.9043 0.5224,-1.11529 -0.0354,-3.0627 -1.1875,-3.49805 -0.1523,-0.0575 -0.30891,-0.0877 -0.4668,-0.0937 z"
       transform="matrix(7.5,0,0,-7.5,0,9000)"
       sodipodi:nodetypes="ccscccscccccsccsccscsscsssscccccccccccsccccsscccsccccccsscsccccccccccccscscssscssccscsccccssccccccscsccscccscsccsccccssccscscsccccccscccscccsssccssccsccsssssss" />
    <path
       d="m 4590,5087 c -77,-41 -118,-78 -186,-172 -20,-27 -57,-66 -82,-85 -70,-55 -85,-70 -154,-156 -77,-96 -137,-153 -159,-154 -9,0 -22,-7 -30,-16 -7,-8 -29,-24 -48,-34 -20,-10 -90,-72 -156,-137 -108,-106 -146,-137 -273,-217 -18,-12 -43,-39 -54,-61 -11,-22 -64,-83 -118,-135 -53,-52 -116,-121 -139,-152 -47,-62 -144,-148 -169,-148 -20,0 -30,-9 -127,-109 -189,-195 -234,-244 -239,-258 -4,-8 -15,-27 -26,-42 -12,-14 -39,-50 -61,-79 -36,-48 -85,-87 -149,-119 -52,-27 -94,-65 -128,-114 -47,-70 -61,-87 -111,-133 -87,-81 -141,-141 -141,-158 0,-21 40,-58 118,-110 63,-42 79,-45 108,-23 33,25 73,18 110,-19 39,-39 42,-56 14,-81 -11,-10 -20,-28 -20,-40 0,-24 17,-35 55,-35 49,0 63,-90 20,-130 -16,-15 -25,-34 -25,-53 0,-18 -11,-42 -30,-64 -16,-18 -30,-44 -30,-57 0,-16 -7,-26 -21,-29 -17,-5 -20,-12 -17,-44 2,-30 7,-38 23,-38 16,0 21,8 23,43 3,37 6,42 28,42 13,0 31,8 39,18 50,57 73,89 76,107 3,11 13,21 24,23 28,5 65,42 65,63 0,10 12,25 28,33 15,9 38,31 52,50 15,22 34,36 47,36 11,0 40,16 63,35 73,61 191,186 195,206 2,10 34,53 71,93 37,41 80,94 96,118 35,52 207,207 229,208 25,0 105,69 144,123 18,27 58,67 87,88 55,41 127,117 128,134 0,13 114,135 126,135 5,0 49,41 96,90 48,50 92,90 99,90 7,0 34,23 59,50 39,42 52,50 82,50 27,0 40,6 52,25 9,14 23,25 31,25 8,0 19,9 25,20 6,11 17,20 26,20 8,0 69,56 136,125 66.59,69.2359 104.3976,107.9393 134.9493,120.9985 8.1247,3.4729 23.8716,10.1261 23.8716,10.1261 0,0 14.7218,-7.014 22.6695,-10.6363 21.0936,-9.6136 44.5002,-31.4039 78.5096,-63.4883 40,-37 103,-94 141,-126 37,-32 88,-85 113,-118 29,-37 62,-67 88,-79 77,-37 101,-52 156,-98 106,-88 176,-154 220,-209 35,-43 239,-256 413,-432 111,-112 155,-150 173,-150 30,0 92,-61 170,-167 75,-102 219,-205 255,-182 8,5 26,9 42,9 29,0 36,-20 17,-50 -6,-9 -5,-17 3,-22 19,-12 55,-9 64,5 4,8 24,28 44,46 39,33 64,33 74,0 9,-28 31,-23 45,10 14,35 151,173 201,203 19,11 53,36 77,55 66,54 61,70 -57,183 -54,52 -117,124 -140,159 -28,44 -56,73 -93,96 -29,19 -65,43 -80,54 -14,12 -30,21 -35,21 -28,1 -113,104 -113,138 0,28 -12,43 -132,153 -37,34 -88,90 -114,124 -35,48 -56,67 -90,80 -46,17 -152,122 -182,180 -18,37 -28,44 -117,91 -111,58 -180,118 -215,185 -10,20 -36,51 -57,69 -21,18 -86,79 -144,136 -58,57 -110,104 -116,104 -6,0 -27,14 -48,30 -21,17 -43,30 -49,30 -17,0 -95,78 -161,160 -60,76 -74,89 -154,155 -24,20 -60,57 -79,83 -56,76 -104,121 -158,153 -32.898,18.7178 -65.6553,32.6965 -65.6553,32.6965 0,0 -23.1969,-8.9062 -38.3447,-16.6965 z"
       id="path8"
       sodipodi:nodetypes="cccccccccsccscccccccsscscsscscsccscscccsccscsccccccscscscssscscscccccccsccscccccccccccccsccccccssscscccccc" />
    <path
       d="m 4523,3255 c -12.5019,-5.358 -34.5401,-20.247 -34.5401,-20.247 0,0 -0.8156,-31.6822 16.5401,-38.753 32,-12 16,-44 -37,-71 -48,-25 -97,-57 -138,-92 -78,-68 -121,-98 -164,-119 -28,-13 -58,-28 -66,-33 -8,-6 -32,-18 -53,-27 -51,-22 -178,-143 -203,-191 -22,-43 -93,-123 -110,-123 -6,0 -17,-6 -23,-14 -14,-17 -136,-76 -158,-76 -43,0 -169,-104 -223,-184 -14,-20 -44,-62 -67,-93 -24,-31 -43,-61 -43,-67 0,-6 -11,-28 -25,-48 -14,-20 -25,-43 -25,-51 0,-7 -11,-28 -25,-47 -33,-45 -32,-77 6,-134 30,-44 135,-126 163,-126 27,0 189,-129 332,-265 27,-26 66,-59 88,-74 75,-50 82,-56 125,-96 23,-22 61,-52 84,-67 64,-41 149,-109 217,-172 87,-80 110,-91 187,-91 60,0 75,-3 95,-22 14,-13 29,-23 35,-23 6,0 50,-41 98,-91 81,-85 88,-91 111,-80 5.9486,2.74551 20.1963,11.14314 20.1963,11.14314 0,0 3.8037,10.97513 3.8037,15.85686 0,9 25,39 55,67 39,36 55,57 55,76 0,43 14,54 52,47 26,-5 46,0 82,19 26,14 55,25 65,25 25,0 117,76 132,109 20,43 236,234 305,269 41,21 81,62 144,147 52,72 163,181 222,219 30,18 68,47 86,64 18,17 42,34 52,37 10,3 32,32 47,63 26,54 28,66 31,215 l 4,157 -31,46 c -33,51 -144,126 -212,144 -21,6 -39,14 -39,18 0,4 -26,20 -57,35 -56,26 -80,47 -281,252 -39,40 -67,59 -103,69 -27,8 -59,22 -71,30 -12,9 -30,16 -39,16 -9,0 -24,9 -34,20 -10,11 -39,32 -64,47 -25,14 -57,37 -71,51 -49,48 -152,122 -169,122 -10,0 -31,12 -46,26 -19,17 -36,24 -51,21 -16,-3 -31,4 -45,19 -13,13 -28,24 -35,24 -6,0 -19,11 -28,25 -12,19 -25,25 -51,25 -18,0 -37,5 -40,10 -8,13 -13,12 -52,-5 z"
       id="path10"
       sodipodi:nodetypes="cccccccccscsccsssccscccccscscccscsccsccccsscccccsccccssccscccscscc" />
  </g>
</svg>
