<?xml version="1.0" standalone="no"?>
<!DOCTYPE svg PUBLIC "-//W3C//DTD SVG 20010904//EN"
 "http://www.w3.org/TR/2001/REC-SVG-20010904/DTD/svg10.dtd">
<svg version="1.0" xmlns="http://www.w3.org/2000/svg"
 width="900.000000pt" height="900.000000pt" viewBox="0 0 900.000000 900.000000"
 preserveAspectRatio="xMidYMid meet">
<metadata>
Created by potrace 1.10, written by Peter Selinger 2001-2011
</metadata>
<g transform="translate(0.000000,900.000000) scale(0.100000,-0.100000)"
fill="#000000" stroke="none">
<path d="M4430 8844 c-6 -14 -10 -108 -10 -209 0 -200 -8 -251 -57 -351 -101
-212 -291 -372 -528 -445 -68 -21 -85 -41 -65 -79 6 -11 23 -22 38 -26 214
-45 440 -222 542 -424 12 -25 27 -53 32 -63 5 -10 18 -49 30 -85 23 -76 33
-92 58 -92 22 0 50 31 50 56 0 10 7 32 15 48 8 15 15 34 15 41 0 19 69 145
110 200 102 138 211 219 403 299 21 9 46 16 55 16 33 0 63 30 60 58 -3 24 -12
30 -79 53 -238 81 -418 234 -516 439 -57 119 -63 154 -63 369 0 212 -2 221
-52 221 -21 0 -31 -6 -38 -26z"/>
<path d="M4437 6834 c-4 -4 -7 -14 -7 -22 0 -29 -83 -122 -139 -156 -31 -19
-81 -39 -111 -45 -36 -7 -326 -12 -860 -15 -772 -3 -810 -4 -919 -25 -63 -11
-132 -26 -155 -32 -72 -18 -150 -41 -174 -50 -13 -5 -52 -19 -85 -30 -105 -35
-317 -144 -427 -220 -176 -121 -372 -304 -488 -457 -174 -228 -308 -498 -371
-747 -57 -224 -56 -211 -56 -545 0 -332 -2 -309 52 -530 34 -140 108 -334 163
-430 14 -25 29 -52 32 -62 11 -28 117 -188 181 -272 140 -185 387 -402 589
-519 249 -144 445 -214 763 -273 127 -23 494 -23 620 0 321 60 497 123 775
277 162 90 369 268 519 445 154 182 263 360 346 564 14 36 30 74 34 85 5 11
17 40 27 65 72 177 248 370 424 467 30 17 64 32 75 34 11 3 20 11 20 19 0 13
-97 15 -775 17 -508 2 -780 -1 -790 -7 -13 -9 -10 -14 14 -32 96 -72 156 -158
187 -267 34 -117 17 -243 -48 -363 -38 -71 -196 -234 -309 -319 -51 -38 -95
-69 -98 -69 -3 0 -27 -13 -53 -28 -214 -125 -520 -188 -780 -163 -65 6 -145
19 -178 28 -126 33 -186 53 -238 78 -30 14 -56 25 -60 25 -12 0 -165 95 -222
138 -33 25 -103 88 -156 141 -251 252 -389 588 -389 946 0 196 31 349 110 543
97 240 318 493 555 634 71 43 208 108 250 119 17 4 62 17 100 29 138 40 194
43 1077 49 l856 6 43 30 c24 17 57 50 74 74 l30 43 0 411 c0 393 -3 436 -28
411z"/>
<path d="M6055 6590 c-142 -10 -250 -30 -415 -77 -145 -41 -357 -132 -457
-196 -24 -15 -45 -27 -47 -27 -7 0 -132 -86 -201 -138 -87 -66 -311 -294 -383
-389 -34 -45 -62 -85 -62 -88 0 -4 -12 -24 -27 -44 -33 -42 -42 -59 -99 -167
-44 -85 -114 -242 -114 -256 0 -14 -68 -153 -94 -191 -14 -21 -26 -42 -26 -46
0 -5 -41 -52 -91 -105 -104 -110 -228 -198 -322 -230 -10 -3 -17 -12 -14 -19
3 -9 170 -13 781 -15 698 -2 777 -1 783 14 3 9 -3 21 -18 31 -166 112 -242
366 -167 558 49 124 218 307 391 423 26 18 50 32 53 32 2 0 22 11 42 24 126
79 342 146 539 166 253 26 504 -22 740 -141 355 -180 610 -497 709 -879 78
-301 47 -634 -86 -916 -136 -291 -358 -515 -645 -653 -107 -52 -172 -75 -295
-104 -128 -31 -293 -37 -1066 -37 -485 0 -782 -4 -805 -10 -58 -16 -124 -82
-149 -146 -19 -53 -20 -72 -18 -441 2 -251 7 -388 13 -390 6 -2 19 14 30 34
31 60 81 118 131 152 92 60 72 59 969 64 716 4 831 6 905 21 235 46 300 64
453 122 101 39 294 133 309 151 6 7 15 13 20 13 13 0 118 72 215 147 366 284
648 727 746 1173 44 194 47 230 47 480 0 250 -3 286 -47 480 -141 640 -607
1193 -1228 1462 -292 126 -651 183 -1000 158z"/>
<path d="M4473 1902 c-6 -4 -21 -36 -33 -71 -70 -208 -192 -373 -350 -473 -78
-49 -208 -108 -240 -108 -30 0 -73 -42 -64 -64 7 -18 82 -56 111 -56 19 0 133
-58 203 -103 120 -77 230 -205 294 -341 41 -86 55 -186 56 -382 0 -118 4 -174
12 -182 19 -19 66 -15 78 7 6 12 10 101 10 219 0 168 3 209 19 258 41 131 147
286 246 364 22 17 47 37 56 44 26 21 139 86 150 86 6 0 23 6 37 13 15 8 54 23
87 34 54 17 60 22 60 47 0 32 -19 44 -110 72 -201 60 -383 219 -482 419 -48
96 -63 134 -63 158 0 47 -43 81 -77 59z"/>
</g>
</svg>
