<?xml version="1.0" standalone="no"?>
<!DOCTYPE svg PUBLIC "-//W3C//DTD SVG 20010904//EN"
 "http://www.w3.org/TR/2001/REC-SVG-20010904/DTD/svg10.dtd">
<svg version="1.0" xmlns="http://www.w3.org/2000/svg"
 width="600.000000pt" height="600.000000pt" viewBox="0 0 600.000000 600.000000"
 preserveAspectRatio="xMidYMid meet">
<metadata>
Created by potrace 1.10, written by Peter Selinger 2001-2011
</metadata>
<g transform="translate(0.000000,600.000000) scale(0.100000,-0.100000)"
fill="#000000" stroke="none">
<path d="M2849 5149 c-56 -40 -69 -56 -69 -89 0 -20 -13 -38 -50 -69 -73 -62
-84 -81 -71 -128 6 -22 22 -50 36 -63 24 -23 25 -28 25 -148 l0 -124 -47 -61
c-26 -34 -50 -64 -53 -67 -3 -3 -29 -34 -59 -70 -98 -117 -280 -290 -306 -290
-4 0 -20 -9 -36 -20 -25 -19 -28 -27 -31 -88 l-3 -67 -255 -3 -254 -2 -29 -27
c-33 -32 -57 -77 -57 -108 0 -11 -7 -30 -15 -41 -19 -26 -19 -113 1 -142 8
-12 23 -22 32 -22 43 0 78 -147 52 -216 -8 -19 -8 -30 0 -38 5 -5 10 -38 10
-73 0 -50 -5 -72 -25 -103 l-25 -40 -118 0 c-164 -1 -166 -2 -170 -153 -3 -88
0 -116 10 -125 9 -7 63 -12 139 -14 l124 -3 3 -852 2 -853 -34 -14 c-18 -7
-45 -26 -59 -41 -28 -31 -62 -127 -53 -150 5 -13 190 -15 1528 -13 l1523 3 -3
41 c-5 81 -57 155 -117 166 -20 3 -20 12 -22 848 -2 465 1 851 6 859 6 10 37
13 126 12 76 -1 122 2 131 10 10 8 14 40 14 121 0 102 -1 110 -25 133 -23 24
-30 25 -139 25 l-116 0 -31 43 c-29 39 -30 46 -25 107 7 82 7 91 0 166 -5 55
-3 66 21 104 15 24 40 47 56 53 28 11 29 13 29 84 0 40 -4 73 -9 73 -5 0 -12
15 -16 33 -11 54 -34 95 -69 122 -32 25 -33 25 -282 27 l-249 3 -3 68 c-3 61
-5 69 -30 84 -87 53 -117 77 -211 172 -95 96 -152 162 -253 292 l-38 48 0 123
c1 122 1 123 29 151 62 61 47 126 -45 195 -35 26 -44 39 -44 63 0 32 -27 63
-87 100 -52 32 -63 21 -63 -61 l0 -70 -60 0 -59 0 -3 72 c-4 87 -14 93 -79 47z
m-431 -2629 c1 -91 0 -175 -3 -188 l-5 -22 -228 2 -227 3 -3 188 -2 187 232
-2 233 -3 3 -165z m807 -190 l0 -355 -235 0 -235 0 -3 345 c-1 190 0 351 3
358 3 10 56 12 237 10 l233 -3 0 -355z m805 -179 c0 -482 -2 -539 -16 -545
-31 -12 -429 -7 -442 6 -9 9 -12 142 -12 538 0 290 3 530 7 533 3 4 109 7 235
7 l228 0 0 -539z m-1620 -1 c7 -13 9 -194 8 -547 l-3 -528 -230 0 -230 0 -3
534 c-1 386 1 538 9 547 9 11 57 14 225 14 201 0 214 -1 224 -20z m810 -350
c7 -12 9 -140 8 -372 l-3 -353 -235 0 -235 0 -3 353 c-1 232 1 360 8 372 10
19 22 20 230 20 208 0 220 -1 230 -20z m805 -535 l0 -190 -230 0 -230 0 -3
180 c-1 98 0 185 3 192 3 11 52 13 232 11 l228 -3 0 -190z"/>
<path d="M652 2151 c-12 -3 -34 -18 -50 -32 -15 -14 -40 -34 -57 -44 -16 -10
-34 -24 -40 -30 -5 -6 -48 -40 -95 -75 -184 -137 -224 -196 -189 -274 25 -54
43 -56 464 -56 266 0 393 3 408 11 47 25 67 51 67 91 0 51 -32 93 -130 169
-41 32 -95 75 -120 95 -24 19 -60 47 -79 62 -19 15 -48 39 -65 53 -34 28 -78
40 -114 30z"/>
<path d="M4898 2150 c-70 -10 -101 -91 -58 -154 19 -31 126 -126 139 -126 5 0
21 -12 36 -26 15 -14 57 -48 94 -76 36 -28 68 -54 71 -58 13 -18 95 -70 112
-70 22 0 84 38 136 83 20 18 84 68 142 111 138 104 175 140 190 186 14 43 9
77 -17 109 -18 21 -22 21 -413 24 -217 1 -412 0 -432 -3z"/>
</g>
</svg>
