<svg viewBox="-25 -25 225.4398 206.52735" id="dungeon" width="225.4398" height="206.52736">
	<title>dungeon</title>
	<path transform="translate(-43.882,-31.25582)" d="m 142.09068,174.152 c 0.7832,-0.97999 1.42497,-2.06505 1.90655,-3.22343 0.521,-1.70929 0.26053,-3.57144 0.26053,-5.35607 V 134.434 c -8.40618,-0.0974 -16.62531,-0.0366 -25.11223,-0.0431 v 28.49526 c 0,2.72446 -0.24438,5.57165 0.52077,8.228 0.30027,1.07978 0.76884,2.10548 1.38847,3.03936 l -0.0245,-0.0393 c -3.256,4.30052 -6.565,8.67156 -10.23388,13.51761 -3.40456,-4.36376 -6.71627,-8.608 -10.20966,-13.08591 1.95231,-4.00285 1.46087,-8.33836 1.47217,-12.62219 0.0194,-7.289 0.005,-14.578 0.005,-21.867 v -5.37356 H 77.77534 c -0.04521,0.0514 -0.16875,0.17493 -0.27236,0.31354 -0.09985,0.13349 -0.25676,0.28259 -0.25676,0.4247 -0.01184,11.62478 -0.011,23.24955 -0.011,35.39267 l 1.92889,3.31145 c -3.33782,4.41409 -6.65223,8.797 -10.31354,13.63872 -3.40645,-4.465 -6.68775,-8.766 -10.06594,-13.19384 1.99025,-3.97405 1.50716,-8.1427 1.5085,-12.25562 0.01005,-33.49467 -2.8e-4,-66.98922 -0.031,-100.48366 C 60.3275,59.425074 60.030821,57.02286 59.38205,54.705 57.72633,49.47865 53.12761,47.617 48.44788,46.03641 47.00397,45.54874 45.50973,45.20941 43.882,44.75883 V 31.25582 h 175.4398 v 13.20675 c -0.94682,0.3924 -2.17542,0.90618 -3.40725,1.41135 -2.43229,0.853764 -4.81349,1.846625 -7.13183,2.97367 -3.78215,2.09065 -5.59667,5.52939 -5.72963,9.83826 -0.0428,1.38712 -0.0205,2.7764 -0.0205,4.16487 -6.7e-4,33.320973 0.01,66.64202 0.0315,99.96315 0.004,2.367 0.0842,4.72628 0.10684,7.28657 0.0313,1.86966 0.53204,3.70147 1.4563,5.327 l -0.0291,-0.0552 c -2.62273,3.51034 -6.58522,7.76779 -10.0541,12.41092 -3.49337,-4.56239 -6.80671,-8.10825 -10.29659,-12.66578 0.62799,-1.28837 1.12237,-2.63768 1.4754,-4.0268 l 0.0331,-0.1518 c 0.51754,-2.11433 0.26053,-4.35057 0.26053,-6.52465 V 134.5215 c -8.21079,-0.26026 -16.24233,-0.0982 -24.78712,-0.13026 v 5.623 c 0,8.50387 -0.0737,17.00857 0.0412,25.51083 -0.0457,1.65285 0.003,3.30695 0.14587,4.95425 0.23096,1.49567 0.67753,2.94995 1.32577,4.31748 -2.75918,3.61394 -6.34192,8.22613 -9.85628,12.82942 -3.51357,-4.49376 -7.12994,-8.7862 -10.79531,-13.474 z M 119.12,50.25682 v 25.37136 h 25.085 L 144.187,50.256975 Z M 101.80969,75.60477 V 50.30182 H 77.33988 v 25.30295 z m 84.215,0.02234 -0.33836,-25.328445 H 161.477 V 75.62711 Z m -66.91357,41.94371 H 144.184 l -0.11251,-24.58473 -24.96017,0.17036 z m -41.85354,-0.0126 24.50749,-0.0571 V 93.20839 c 0,0 -24.42541,0.31355 -24.50749,-0.02314 z m 84.20633,0.0126 c 4.46443,0 24.48784,0.0772 24.48784,0.0772 V 92.65747 c -8.25223,0.01507 -16.25525,-0.05222 -24.48784,0.04279 z" />
</svg>
