<?xml version="1.0" encoding="UTF-8" standalone="no"?>
<svg
   xmlns:svg="http://www.w3.org/2000/svg"
   xmlns="http://www.w3.org/2000/svg"
   xmlns:sodipodi="http://sodipodi.sourceforge.net/DTD/sodipodi-0.dtd"
   xmlns:inkscape="http://www.inkscape.org/namespaces/inkscape"
   version="1.0"
   width="3700"
   height="3700"
   inkscape:version="1.0.1 (3bc2e813f5, 2020-09-07)"
   sodipodi:docname="edz.svg">
  <defs />
  <sodipodi:namedview
     inkscape:zoom="0.06953125"
     inkscape:cx="517.77574"
     inkscape:cy="-28.724609"
     inkscape:window-width="1754"
     inkscape:window-height="1057"
     inkscape:window-x="158"
     inkscape:window-y="-8"
     inkscape:window-maximized="1" />
  <g
     transform="matrix(0.9,0,0,0.9,-854.47765,-574.77237)">
    <path
       d="m 396.35547,240.21875 c -0.42497,0.0492 -0.67149,0.67292 -1.02149,1.78125 -0.53333,1.46667 -1.73463,4.39935 -2.66796,6.66602 -6.66667,15.6 -8.93295,27.33463 -9.59961,50.66796 -0.4,14.13334 -0.1336,23.86693 1.0664,28.9336 1.6,8.13333 0.8013,11.86666 -1.33203,6 -0.66667,-1.86667 -2.0013,-3.73425 -2.66797,-4.26758 -0.8,-0.4 -1.46679,-1.59987 -1.46679,-2.5332 0,-2.13334 -4.26693,-11.33347 -8.9336,-19.4668 C 362.26576,295.06667 348.8,279.73307 332,265.06641 c -9.06667,-8 -11.60078,-9.06576 -12.80078,-5.73243 -1.33333,3.33334 5.46823,31.46576 9.60156,39.73243 1.06667,2.13333 1.86524,4.40117 1.86524,5.20117 0,3.73333 15.99974,31.46549 19.0664,32.79883 1.33334,0.66666 1.20104,4.26757 -0.26562,4.26757 -0.8,0 -1.73282,-0.66679 -2.13282,-1.46679 -0.53333,-0.66667 -2.2677,-2.0013 -3.73437,-2.66797 -1.6,-0.66667 -4.66693,-2.39857 -6.93359,-3.86524 -10.53334,-6.8 -29.06537,-13.86718 -47.33204,-17.86718 -10.8,-2.4 -22.1345,-2.80026 -23.20117,-0.9336 -1.6,2.53334 16.53386,22.00052 29.86719,31.86719 7.73333,5.6 32.53398,18.93359 35.33398,18.93359 0.93334,0 3.4668,0.93334 5.4668,2 2.13333,1.06667 4.93281,2 6.13281,2 3.06667,0 4.39909,2.53347 1.73243,3.4668 -1.06667,0.53333 -8.26576,0.2668 -15.73243,-0.5332 -20.26666,-2.13334 -42.40117,0.93216 -63.20117,8.79883 -15.46666,5.86666 -20.93151,10.00104 -15.46484,11.73437 1.33333,0.4 4.2651,1.59987 6.39844,2.5332 4,1.73334 13.20065,4.40013 25.33398,7.4668 12,2.8 36.66719,3.19987 47.86719,0.5332 9.73333,-2.26666 15.20013,-2.00065 13.46679,0.66602 -0.4,0.66667 -1.86783,1.33398 -3.20117,1.33398 -1.2,0 -3.46692,0.93334 -4.93359,2 -1.33333,1.06667 -3.33281,2 -4.13281,2 -2.8,0 -22.26719,12.26602 -29.86719,18.66602 -15.06667,12.8 -33.06602,34.00039 -30.66602,36.40039 3.06667,3.06667 28.40052,-2.40117 41.86719,-9.20117 2.13333,-1.06667 4.39974,-1.86524 5.06641,-1.86524 2.4,0 23.46588,-13.46666 31.19922,-20 C 355.99935,427.06732 360,425.20052 360,427.86719 c 0,0.53333 -2.93372,4.93294 -6.40039,9.59961 -6.4,8.53333 -18.93359,32.53372 -18.93359,36.40039 0,1.06666 -0.53256,2.26601 -1.19922,2.66601 -1.2,0.8 -4.93269,12.40026 -8.66602,26.9336 -2.26667,8.66666 -2.80169,18.66575 -1.06836,19.73242 3.2,2 35.20026,-28.53164 38.9336,-36.93164 0.4,-0.93334 2.26809,-4.00026 4.13476,-6.9336 4.53333,-7.06666 10.79909,-20.40117 11.73242,-25.20117 0.53334,-2.13333 1.46758,-4.13372 2.26758,-4.40039 0.93333,-0.26666 1.33203,7.86784 1.33203,25.20117 0,22 0.40078,27.20052 2.80078,35.86719 3.6,12.66667 6.9323,22.66654 8.26563,24.5332 0.66667,0.66667 1.46667,3.06641 2,5.06641 2,8.53333 7.20117,0.53294 13.20117,-20.40039 4.93333,-17.06667 6.66628,-45.33333 3.59961,-58 -1.73333,-7.06667 -1.73333,-15.33398 0,-15.33398 0.8,0 1.73281,1.06757 2.13281,2.26757 1.6,5.2 9.06797,20.93373 12.66797,26.40039 1.33333,2.13334 3.06576,5.19935 3.73242,6.66602 0.66667,1.46667 3.46615,5.06667 6.13282,8 2.66666,2.93333 6.13437,7.06641 7.73437,9.06641 4.13333,5.33333 27.86589,24.93281 29.19922,24.13281 2.8,-1.73333 -0.26641,-23.59831 -5.06641,-34.93164 -1.06666,-2.4 -1.86718,-5.33373 -1.86718,-6.40039 0,-1.2 -0.79857,-3.73295 -1.86524,-5.59961 -1.06667,-2 -3.20078,-6.26823 -4.80078,-9.60156 -4.26667,-8.8 -5.3332,-10.53178 -12.5332,-20.39844 -3.73334,-4.93334 -7.06771,-8.9336 -7.73438,-8.9336 -0.53333,0 -1.0664,-0.93333 -1.0664,-2 0,-2.13333 3.46757,-2.80026 4.26757,-0.93359 0.8,2.26667 17.86641,13.59948 27.06641,18.13281 18,8.66667 28.53424,11.86615 54.26758,16.13282 6.8,1.06666 7.33229,-1.06576 2.26562,-7.73243 -10.8,-14.13333 -29.19987,-29.86614 -44.5332,-38.13281 -2.93333,-1.6 -6.26732,-3.46667 -7.33398,-4 -1.06667,-0.66667 -4.66667,-2.2668 -8,-3.4668 -3.33334,-1.2 -6.93334,-2.80013 -8,-3.46679 -1.06667,-0.66667 -3.46589,-1.86654 -5.19922,-2.53321 -6.13334,-2.66666 -1.06615,-3.86666 7.86718,-2 19.86667,4.26667 52.93204,0.53204 75.33204,-8.66796 10.13333,-4.13334 14,-6.13308 14,-7.06641 0,-0.93333 -7.06602,-4.4 -16.66602,-8 -19.06667,-7.2 -41.19922,-9.86628 -61.19922,-7.59961 -7.6,0.93333 -14.93476,1.33411 -16.13476,0.80078 -2.8,-1.06667 -1.33243,-3.4668 2.26757,-3.4668 1.46667,0 4.26615,-0.80052 6.13282,-1.86718 2,-1.06667 6.00026,-3.06706 8.93359,-4.40039 10,-4.53334 24.40026,-15.0668 34.93359,-25.4668 15.06667,-14.93333 22.26667,-24.26706 20,-26.40039 -0.93333,-0.93333 -26.00117,3.20026 -29.20117,4.93359 -1.2,0.66667 -3.19896,1.20117 -4.26562,1.20117 -1.2,0 -5.99987,1.73334 -10.53321,4 -4.66666,2.13334 -8.93398,4 -9.33398,4 -1.73333,0 -15.06589,8.66563 -25.19922,16.26563 -5.6,4.26667 -10.53359,7.73437 -10.93359,7.73437 -2.26667,0 -0.13308,-4.53411 4.93359,-10.80078 6.8,-8.66666 7.4668,-9.86718 13.4668,-21.86718 6.26666,-12.8 8.79883,-18.79883 8.79883,-20.79883 0,-0.93334 0.80052,-4.13451 1.86718,-7.20117 2.93334,-8.53334 6.53256,-30.13347 5.19922,-31.4668 -3.33333,-3.33333 -38.26484,29.8668 -43.46484,41.4668 -0.53334,1.06666 -2.1349,3.73333 -3.60156,6 -1.46667,2.13333 -3.0668,4.93333 -3.4668,6 -0.4,1.06666 -1.59987,3.73333 -2.5332,6 -7.6,17.46666 -7.99974,17.86718 -9.06641,15.86718 -0.66667,-1.06666 -0.3987,-4.00026 0.66797,-6.93359 2.26666,-6.53333 2.26666,-37.06628 0,-47.59961 -2.4,-10.93333 -5.46771,-21.73307 -7.73438,-27.06641 -1.06666,-2.4 -1.86718,-5.20091 -1.86718,-6.26757 0,-1.06667 -1.46589,-3.59961 -3.19922,-5.59961 -1.725,-2.025 -2.56494,-2.91094 -3.11133,-2.84766 z M 398.59375,366 a 26,26 0 0 1 0.10547,0 26,26 0 0 1 26,26 26,26 0 0 1 -26,26 26,26 0 0 1 -26,-26 26,26 0 0 1 25.89453,-26 z"
       id="path4"
       style="stroke-width:0.133333"
       transform="matrix(7.5,0,0,-7.5,0,6000)" />
    <path
       d="m 1427,3962 c -22,-24 -21,-35 6,-80 12,-20 31,-54 41,-74 18,-35 23,-38 61,-38 49,0 57,8 103,98 37,72 37,75 16,96 -18,19 -63,21 -99,4 -19,-9 -28,-9 -37,0 -18,18 -73,14 -91,-6 z"
       id="path6" />
    <path
       d="m 4332,3964 c -22,-15 -30,-58 -12,-69 5,-3 22,-33 37,-66 29,-62 45,-74 98,-67 28,3 37,16 100,132 19,37 19,38 -5,64 -24,25 -62,29 -84,7 -18,-19 -35,-19 -60,0 -25,19 -46,19 -74,-1 z"
       id="path8" />
    <path
       d="m 1281,3853 c -16,-19 -20,-35 -16,-57 5,-24 0,-39 -19,-65 -15,-19 -26,-42 -26,-51 0,-28 36,-53 67,-47 15,3 52,11 82,16 64,12 80,25 87,72 6,33 2,39 -61,97 -37,34 -73,62 -80,62 -8,0 -23,-12 -34,-27 z"
       id="path10" />
    <path
       d="m 1676,3811 -66,-69 17,-39 c 22,-47 30,-53 70,-53 18,0 53,-5 77,-12 36,-9 48,-9 60,1 22,18 21,87 0,99 -11,6 -17,24 -18,55 -1,48 -26,87 -56,87 -9,0 -47,-31 -84,-69 z"
       id="path12" />
    <path
       d="m 4180,3850 c -14,-14 -20,-33 -20,-64 0,-26 -6,-48 -15,-56 -9,-8 -15,-29 -15,-56 0,-37 3,-44 23,-49 12,-3 45,1 72,10 28,8 62,15 76,15 21,0 31,9 47,41 11,23 18,46 15,53 -10,21 -133,126 -148,126 -8,0 -24,-9 -35,-20 z"
       id="path14" />
    <path
       d="m 4578,3808 c -57,-60 -59,-65 -53,-103 7,-44 18,-55 56,-55 14,0 47,-7 73,-16 88,-30 134,22 81,91 -14,20 -26,45 -25,58 1,12 2,28 1,35 -2,18 -39,52 -57,52 -9,0 -43,-28 -76,-62 z"
       id="path16" />
    <path
       d="m 1370,3590 c -30,-15 -63,-31 -72,-34 -27,-8 -24,-71 4,-90 12,-9 30,-16 40,-16 9,0 29,-16 44,-36 23,-30 32,-35 62,-32 34,3 36,5 48,58 29,129 29,136 -9,159 -43,26 -50,26 -117,-9 z"
       id="path18" />
    <path
       d="m 1605,3609 c -4,-5 -18,-14 -32,-20 -16,-6 -23,-15 -20,-27 3,-9 11,-48 17,-87 17,-98 16,-95 54,-95 28,0 40,7 61,34 15,19 38,36 55,39 35,8 64,48 55,76 -4,13 -34,34 -79,56 -77,37 -101,42 -111,24 z"
       id="path20" />
    <path
       d="m 4281,3589 c -30,-16 -59,-29 -66,-29 -18,0 -45,-34 -45,-57 0,-26 29,-51 69,-59 21,-5 36,-15 41,-30 16,-41 75,-58 103,-30 9,9 16,48 21,102 6,87 6,88 -21,111 -35,28 -37,28 -102,-8 z"
       id="path22" />
    <path
       d="m 4493,3597 c -28,-19 -32,-27 -32,-67 0,-64 14,-129 32,-147 23,-23 74,-8 92,28 9,16 23,29 32,29 31,0 83,41 83,65 0,26 -24,55 -44,55 -7,0 -38,14 -69,30 -31,17 -58,30 -59,29 -2,0 -17,-11 -35,-22 z"
       id="path24" />
    <path
       d="m 1655,2840 c -93,-8 -115,-16 -115,-40 0,-20 22,-41 69,-65 45,-23 212,-23 247,-1 30,20 51,20 62,1 7,-13 15,-9 45,21 20,20 34,41 30,47 -4,6 -10,4 -17,-5 -17,-24 -55,-32 -62,-14 -18,47 -115,68 -259,56 z"
       id="path26" />
    <path
       d="m 4198,2840 c -43,-5 -82,-27 -101,-58 -5,-7 -18,-10 -33,-6 -32,8 -32,-15 0,-38 21,-15 25,-15 30,-3 7,19 31,19 61,-1 35,-23 200,-22 246,1 77,39 91,77 37,93 -42,13 -180,20 -240,12 z"
       id="path28" />
    <path
       d="m 1714,2517 c -45,-26 -73,-55 -80,-83 -3,-16 -18,-49 -32,-74 -24,-42 -25,-53 -25,-184 0,-94 4,-141 11,-144 6,-2 34,21 61,50 75,79 142,228 127,280 -27,92 -36,135 -32,150 5,21 -1,22 -30,5 z"
       id="path30" />
    <path
       d="m 4266,2512 c 4,-15 -5,-58 -32,-150 -15,-52 52,-201 127,-280 27,-29 55,-52 61,-50 7,3 11,50 11,144 0,131 -1,142 -25,184 -14,25 -29,58 -32,74 -7,28 -35,57 -80,83 -29,17 -35,16 -30,-5 z"
       id="path32" />
    <path
       d="m 1261,2435 c -18,-8 -48,-15 -67,-15 -18,0 -35,-4 -39,-9 -10,-16 159,-111 198,-111 46,0 145,70 119,84 -9,5 -33,22 -53,38 -42,32 -101,37 -158,13 z"
       id="path34" />
    <path
       d="m 4616,2441 c -4,-5 -26,-22 -50,-38 l -43,-29 51,-38 c 44,-33 57,-37 91,-33 44,5 199,93 190,108 -4,5 -21,9 -39,9 -19,0 -50,7 -69,15 -40,17 -123,20 -131,6 z"
       id="path36" />
    <path
       d="m 2893,1798 c -30,-15 -37,-42 -20,-75 8,-16 27,-51 41,-79 27,-54 54,-70 99,-59 27,7 97,132 97,174 0,36 -45,60 -78,42 -26,-14 -79,-14 -87,-1 -8,12 -23,12 -52,-2 z"
       id="path38" />
    <path
       d="m 2730,1685 c -7,-9 -13,-34 -13,-57 0,-29 -8,-55 -25,-81 -21,-32 -23,-41 -14,-62 10,-22 18,-25 60,-25 64,0 152,27 158,48 3,9 10,25 16,36 8,16 -1,29 -58,87 -70,70 -100,83 -124,54 z"
       id="path40" />
    <path
       d="m 3174,1682 c -10,-10 -41,-41 -67,-69 -45,-46 -48,-52 -36,-74 7,-13 15,-31 19,-39 9,-19 80,-38 148,-39 46,-1 54,2 64,24 9,21 7,30 -16,65 -17,26 -26,53 -26,79 0,64 -45,92 -86,53 z"
       id="path42" />
    <path
       d="m 2805,1406 c -46,-24 -81,-49 -83,-59 -5,-27 25,-67 51,-67 14,0 39,-18 65,-45 23,-25 51,-45 62,-45 29,0 51,52 57,134 6,71 5,72 -26,99 -18,15 -36,27 -39,26 -4,0 -43,-20 -87,-43 z"
       id="path44" />
    <path
       d="m 3038,1417 c -27,-21 -27,-24 -21,-101 5,-62 11,-84 29,-105 22,-25 24,-25 51,-11 15,9 34,28 41,43 8,16 24,29 40,33 15,3 32,7 37,9 16,4 38,52 32,68 -6,16 -143,87 -167,87 -8,0 -27,-10 -42,-23 z"
       id="path46" />
  </g>
</svg>
