<?xml version="1.0" encoding="UTF-8" standalone="no"?>
<svg
   xmlns:svg="http://www.w3.org/2000/svg"
   xmlns="http://www.w3.org/2000/svg"
   xmlns:sodipodi="http://sodipodi.sourceforge.net/DTD/sodipodi-0.dtd"
   xmlns:inkscape="http://www.inkscape.org/namespaces/inkscape"
   version="1.0"
   width="1000"
   height="1000"
   inkscape:version="1.0.1 (3bc2e813f5, 2020-09-07)"
   sodipodi:docname="exo_frame.svg">
  <defs />
  <sodipodi:namedview
     inkscape:zoom="0.125"
     inkscape:cx="-1687.377"
     inkscape:cy="-2073.1079"
     inkscape:window-width="1754"
     inkscape:window-height="1057"
     inkscape:window-x="158"
     inkscape:window-y="-8"
     inkscape:window-maximized="1" />
  <path
     d="m 548.94518,949.99784 c -4.36041,-0.0837 -5.09544,-2.63934 -7.24419,-12.70458 -10.27783,-47.33596 -15.63391,-80.91983 -13.60729,-84.68354 1.59237,-2.7504 3.03993,-0.14481 10.42264,17.80524 1.73709,4.34277 4.34277,9.69877 5.93505,12.15973 2.31615,3.90843 2.7504,4.05324 3.47427,1.59228 0.57897,-1.59228 0.28944,-7.38262 -0.43434,-12.88342 -0.8685,-5.50089 -1.88181,-16.79202 -2.46087,-25.18794 -0.57906,-8.39601 -1.59237,-16.06824 -2.46087,-17.08155 -1.8819,-2.31606 -82.80173,-2.6056 -84.24938,-0.14472 -3.47418,5.5008 -6.65883,56.31094 -3.6189,56.31094 0.8685,0 1.88181,-1.15803 2.31615,-2.60559 0.43425,-1.30284 2.7504,-6.94846 5.06646,-12.44926 2.31615,-5.5008 4.19805,-10.71207 4.19805,-11.72538 0,-0.86859 1.73709,-3.18474 3.76371,-5.21136 l 3.90843,-3.47418 -0.8685,5.06655 c -0.43434,2.7504 -1.30284,8.97498 -1.73709,13.752 -0.86859,8.54083 -3.18474,22.29283 -7.23798,41.97997 -1.15803,5.5008 -3.18465,15.92343 -4.48749,23.16133 -1.44756,7.09317 -3.18465,13.89681 -4.05324,14.91012 -1.01331,1.44756 -3.47418,1.73709 -9.40923,1.01331 -13.7521,-1.73718 -27.5041,-6.94845 -46.90171,-17.95005 -15.48919,-8.68555 -50.37589,-21.42424 -79.90661,-29.09647 -9.55404,-2.46087 -19.97667,-5.79033 -23.0166,-7.38261 -5.35599,-2.7504 -17.51572,-11.72547 -25.33267,-18.52912 -3.61899,-3.18465 -4.19796,-6.07986 -11.0016,-52.2577 -1.15812,-8.39601 -3.18474,-20.70045 -4.34277,-27.50409 -1.15803,-6.80364 -3.03993,-19.54233 -4.34277,-28.22788 -3.03993,-21.27942 -6.22458,-42.12468 -8.68545,-57.90331 -2.89521,-17.80524 -6.07986,-39.08476 -8.68554,-57.17953 -1.30284,-8.39601 -3.18465,-20.70045 -4.34277,-27.50409 -3.03984,-17.95006 -3.47418,-22.72708 -2.60559,-23.74039 1.59228,-1.59228 12.01491,-0.8685 16.79193,1.15812 4.6323,1.88181 4.92183,2.60568 7.3827,14.76531 5.5008,28.80694 9.69876,51.24448 13.17303,70.78682 2.31606,13.17303 4.48749,25.04322 8.54073,46.32265 1.15803,6.36939 3.18465,17.80533 4.48749,25.33275 1.30284,7.52742 3.32946,17.80525 4.48749,22.72699 1.15803,4.92183 2.02663,10.42263 2.02663,12.15972 0,1.8819 0.8685,7.23789 2.02662,12.01491 1.15803,4.92183 3.18465,15.34437 4.48749,23.30614 1.30284,7.96167 3.32946,18.67383 4.34277,23.8851 1.15803,5.21127 2.46087,12.44925 2.89512,16.06815 0.43434,3.76371 2.02662,7.67224 3.32946,8.83027 3.03993,2.7504 16.35768,7.09317 18.09477,5.93514 1.44765,-0.86859 0.14481,-8.97508 -2.46087,-15.48919 -2.7504,-6.36939 -5.21127,-14.47578 -5.21127,-16.93674 0,-1.15803 2.7504,-3.32937 6.07986,-4.92174 5.35599,-2.60568 22.58227,-20.84517 22.8718,-24.17464 0,-0.57906 1.88181,-3.76371 4.19796,-7.23789 2.31615,-3.47427 6.94845,-11.43594 10.27782,-17.80533 3.32946,-6.3693 7.67223,-14.33106 9.69885,-17.80524 l 3.47418,-6.07987 h 15.77862 c 8.54074,0 16.64722,-0.43425 17.95006,-0.8685 1.59237,-0.57906 2.31615,-2.7504 2.31615,-7.09317 0,-3.47418 0.8685,-6.94845 2.02662,-7.81695 1.30284,-1.15812 27.64881,-1.44756 95.82995,-1.30284 l 93.94814,0.43425 0.72378,7.96176 0.72387,7.96167 16.79193,0.43425 c 19.54233,0.43434 18.23949,-0.43425 27.64882,17.66053 16.79193,31.84686 33.58395,54.28441 42.70374,57.03481 1.59229,0.57897 3.47419,1.88181 3.90844,3.03993 0.43425,1.15803 -1.59237,8.68545 -4.34278,16.79193 -2.89512,8.25121 -4.63221,15.19966 -3.90843,15.92344 1.30284,1.30284 6.65884,-0.14481 15.92344,-3.90852 3.90843,-1.59228 4.77702,-2.89512 6.07977,-9.55405 2.31615,-11.29113 6.07986,-31.2678 7.3827,-39.519 0.57906,-4.05324 2.17134,-12.44917 3.32946,-18.81856 5.5008,-28.37259 8.54073,-45.45415 9.69876,-52.83676 0.57906,-4.34277 1.8819,-10.85688 2.60568,-14.47587 0.86859,-3.61899 2.60568,-12.73869 3.90852,-20.26612 2.46087,-13.89681 4.92174,-28.08315 8.68546,-47.77029 1.15803,-5.93506 3.18465,-16.79194 4.34277,-23.88511 1.30284,-7.23789 3.32946,-17.66052 4.34277,-23.16132 1.15803,-5.64561 2.31606,-13.17304 2.89512,-16.79194 0.43425,-3.90852 2.02662,-7.81695 3.61899,-9.26451 2.89512,-2.60568 19.39761,-4.77702 20.70036,-2.75049 0.72387,1.15812 -0.43425,9.11979 -5.5008,40.3876 -2.7504,17.08146 -5.93505,38.36098 -8.68545,57.17953 -2.60568,17.80524 -5.79033,38.93995 -8.83026,57.17953 -1.15812,7.09317 -3.03993,19.83187 -4.19796,28.22788 -4.92183,33.14961 -9.55413,62.96986 -12.30454,79.61707 -1.59228,8.97498 -5.06646,12.88351 -21.71367,24.7537 -8.97507,6.3693 -13.17303,8.10639 -34.74199,13.752 -26.05653,6.80364 -61.81183,20.26611 -79.32754,29.82025 -18.52912,10.27782 -30.2545,14.47578 -44.73037,16.35768 -1.8999,0.25326 -3.40515,0.42354 -4.626,0.40005 z M 694.05149,838.43247 c -2.24514,-0.045 -9.98524,-5.20227 -17.72524,-12.02401 -9.55404,-8.54073 -22.58235,-30.25449 -32.57064,-54.57394 -2.46087,-6.22458 -1.30284,-5.79033 -21.13471,-5.93505 l -15.19965,-0.14472 -0.43425,-31.70214 -0.28953,-31.70206 11.87019,1.01331 c 39.08476,3.32946 43.71697,3.61899 45.30934,2.31615 1.15812,-0.8685 2.02662,-11.43594 2.7504,-29.96497 0.57906,-15.77862 1.59237,-33.43914 2.17143,-39.37428 l 1.01331,-10.71207 10.85679,-9.84358 10.71217,-9.84357 11.58066,-0.43425 c 6.36939,-0.28953 12.73869,0.14472 14.18634,0.72378 3.47418,1.59237 3.76371,-1.73709 -9.84357,81.35417 -1.15812,7.09317 -3.18474,19.54233 -4.34277,27.50409 -1.30284,7.96167 -3.18465,20.26612 -4.48749,27.50401 -5.35608,33.43923 -6.51411,39.95335 -8.54073,51.96826 -1.15812,7.23789 -1.73709,13.46256 -1.15812,14.04153 0.72378,0.57906 3.18474,1.30284 5.5008,1.59237 3.7638,0.43425 4.34277,1.01331 4.19805,4.77702 -0.28953,6.65892 -2.89521,22.29283 -3.90852,23.30614 -0.10854,0.10854 -0.28197,0.1584 -0.51426,0.15381 z M 307.65765,837.1596 c -0.16515,0 -0.32031,-0.0117 -0.46512,-0.0387 -2.46087,-0.43425 -6.22458,-15.63391 -5.64552,-22.14802 0.28953,-3.47418 1.15803,-4.48749 4.77702,-5.06655 4.19796,-0.72378 4.34277,-1.01331 3.90843,-8.68545 -0.14472,-4.34277 -1.01331,-10.85688 -1.73709,-14.47587 -0.72378,-3.6189 -2.60559,-15.63391 -4.34277,-26.78023 -1.59228,-11.14641 -3.90843,-25.767 -5.06646,-32.57064 -3.47427,-20.55574 -6.22467,-37.6372 -8.68554,-53.56055 -3.03993,-19.83195 -6.07986,-38.36097 -8.83027,-53.41582 -2.17134,-11.58066 -2.17134,-12.44925 0.28953,-14.18634 2.75041,-2.02662 18.81856,-2.46087 24.7537,-0.72378 1.73709,0.57906 7.96167,5.5008 13.752,11.14641 l 10.71216,10.13302 1.59228,38.21625 c 1.30285,28.08307 2.17144,38.65042 3.619,40.09798 1.88181,1.73709 10.56735,1.44765 44.73027,-1.59228 10.71217,-1.01331 11.0017,-1.01331 11.8702,2.31606 1.59237,5.64561 1.15812,52.98157 -0.43425,57.17953 l -1.59237,3.90852 -15.19957,-0.86859 -15.05493,-0.8685 -3.6189,5.64552 c -2.02662,3.18474 -3.61899,6.3694 -3.61899,7.09318 0,2.7504 -10.85688,23.16132 -18.23958,34.30773 -7.71283,11.63943 -22.35421,24.90913 -27.47323,24.93748 z m 210.1531,-89.47136 c -5.9526,0 -12.10023,-0.01 -18.37917,-0.0288 -71.94485,0 -91.77671,-0.43425 -92.79002,-1.73709 -0.57906,-1.01331 -1.15812,-15.6339 -1.15812,-32.42584 V 683.0973 l 5.93514,-18.09478 c 6.3693,-19.54242 8.10639,-22.29282 14.91003,-24.31944 2.46096,-0.72378 7.81696,-2.60568 11.72548,-4.19796 4.05324,-1.59237 7.96167,-3.03993 8.97498,-3.03993 2.46087,-0.14481 6.22458,5.64552 6.22458,9.69876 0,1.8819 1.01331,7.3827 2.17143,12.30453 1.15803,4.92174 2.46087,10.71207 2.89512,12.88341 1.59237,8.2513 2.02662,8.39602 41.69044,8.39602 20.12139,0 37.20286,-0.57906 38.07145,-1.15804 1.44756,-1.01331 3.6189,-8.54073 8.68545,-30.3993 1.30284,-5.79033 2.89521,-10.85688 3.61899,-11.29113 0.72378,-0.28953 4.34277,0.28953 8.10648,1.44756 19.83186,6.22467 25.04313,9.11979 25.04313,14.04162 0,1.44756 0.86859,4.77702 2.02663,7.38261 7.23789,16.64721 8.10648,23.16133 8.10648,56.89 0,18.96337 -0.57906,32.71546 -1.44756,33.29443 -0.63333,0.37998 -32.74255,0.75996 -74.41094,0.75213 z m -292.84088,-44.4691 -8.54074,-1.15812 c -10.27782,-1.30275 -24.02991,-7.67214 -31.2678,-14.76531 -12.30445,-12.01492 -18.09478,-35.17624 -25.04323,-100.028 -4.92174,-46.7569 -1.44756,-84.68363 9.40932,-101.33075 1.15803,-1.73718 3.32946,-3.18474 4.6323,-3.18474 3.47419,0 3.76372,2.17143 4.77703,35.46576 1.01331,30.39931 3.90843,50.95495 8.68545,60.07475 1.44756,2.7504 6.94845,9.98829 12.15972,15.92343 10.71207,12.01491 9.84357,9.40923 16.64721,50.66533 5.50081,33.14971 6.65884,40.3876 7.52743,49.07314 z m 554.5198,-0.69606 c -5.54418,0.0837 -5.55561,-2.90484 -2.9907,-16.09587 1.15803,-6.5142 3.32946,-18.38431 4.6323,-26.34607 1.30275,-7.96167 3.18465,-19.68714 4.34268,-26.05644 1.01332,-6.36939 2.46097,-14.91013 2.89522,-18.81865 1.15803,-8.68545 2.17134,-10.56735 8.68545,-17.66052 8.54073,-9.1197 15.92343,-19.68705 17.80533,-25.04314 2.89512,-8.68554 6.07986,-37.34766 6.94836,-62.96986 0.43425,-13.60728 1.01331,-25.47747 1.44756,-26.49078 0.86859,-2.89512 3.18474,-2.02662 6.94845,2.89521 14.76532,19.54233 15.77863,74.11618 2.89512,153.1542 -4.77702,28.95174 -10.42254,42.41422 -21.42423,50.66542 -9.26451,6.80364 -19.2528,11.29113 -28.51732,12.44925 -1.42497,0.1809 -2.6415,0.30168 -3.66822,0.31725 z M 611.0145,687.05451 c -0.22419,-0.0117 -0.36108,-0.12411 -0.40851,-0.33786 -0.43434,-1.15803 -1.73709,-7.23789 -3.18474,-13.60729 -4.63221,-20.84517 -7.96167,-33.29433 -11.0016,-41.40081 -1.59237,-4.34277 -3.47418,-9.40933 -4.19796,-11.43595 -3.03993,-9.40923 -12.59398,-24.75369 -18.67384,-30.10968 -6.65892,-5.79033 -17.95005,-9.98838 -43.28272,-16.21297 -9.40932,-2.31615 -7.52742,-5.35608 6.22459,-10.42263 6.36939,-2.31606 14.91012,-5.21127 18.81855,-6.22458 18.3843,-5.35608 57.03481,-12.30444 67.45735,-12.30444 3.47427,0 14.91013,-1.01331 25.18795,-2.17134 10.42263,-1.30284 27.35937,-3.32946 37.63719,-4.48749 51.53393,-6.07986 91.7768,-18.81865 113.05623,-35.46586 11.0016,-8.68545 11.43594,-8.10639 10.85688,14.62059 -0.57906,29.09647 -7.23789,57.32434 -15.48918,66.15461 l -3.6189,3.90843 -50.95495,0.14481 c -58.33757,0.14472 -55.44245,-0.43434 -71.5106,14.18625 -4.6323,4.19805 -10.56735,9.69885 -13.31775,12.01491 -2.60568,2.31615 -6.07986,5.93514 -7.52742,8.10648 -2.7504,3.76372 -7.09317,22.72708 -7.09317,30.83356 0,5.64552 -6.65893,14.91012 -19.10809,26.63551 -5.17509,4.93992 -8.5347,7.49061 -9.76779,7.57467 -0.036,0 -0.0693,0 -0.10152,0 z m -223.75165,-1.85895 c -2.61018,-0.0432 -6.79096,-3.63141 -13.91572,-11.07289 -11.87019,-12.44916 -13.46256,-16.06815 -15.19965,-35.75529 -1.01331,-11.43585 -3.03993,-14.91004 -14.62059,-25.91173 -27.79363,-26.34597 -22.29274,-24.7536 -83.09126,-24.7536 -56.31094,0 -53.27101,0.57897 -59.35087,-11.43594 -6.22467,-12.30445 -11.29113,-42.55894 -11.29113,-68.47067 0,-6.07986 0.57897,-10.56735 1.44756,-10.56735 0.72378,0 4.63221,2.31615 8.54073,5.06655 19.2528,13.89672 48.78352,24.89842 84.82835,31.70206 17.80524,3.32946 81.78841,11.0016 91.77679,11.0016 11.00161,0 50.52061,6.94836 64.56215,11.29113 19.25289,5.93514 35.46576,12.44925 35.03151,13.89681 -0.57897,1.59237 -4.92174,3.18465 -21.27942,7.52743 -16.50249,4.48749 -27.06985,10.1331 -33.43924,18.3843 -12.01491,15.05484 -23.8851,47.77021 -29.96496,82.07795 -0.78705,4.65714 -1.87155,7.05537 -4.03425,7.01964 z M 500.00947,566.7126 c -1.59228,0 -10.13166,-3.90843 -22.58083,-10.27782 -3.32946,-1.73709 -29.96469,-10.4229 -40.82157,-13.46283 -18.81856,-4.92174 -29.53126,-6.51384 -94.81727,-13.17267 -45.01981,-4.6323 -80.19497,-11.14786 -95.24981,-17.51725 -2.60568,-1.15803 -5.35752,-2.02518 -6.22602,-2.02518 -3.76371,0 -28.95058,-13.60809 -36.62272,-19.83267 -14.18634,-11.43594 -14.47749,-12.3039 -12.59568,-39.22894 2.31615,-33.72868 5.93676,-61.37839 12.59568,-98.00228 4.19796,-23.01651 6.51411,-34.88563 8.68545,-42.12352 1.15812,-4.05324 2.02527,-8.54181 2.02527,-9.98946 0,-1.44756 0.86877,-5.93424 2.02689,-9.98748 1.15803,-4.05324 3.18438,-11.58093 4.48723,-16.7922 5.79033,-22.58227 12.1608,-39.37483 18.09585,-47.62603 3.32946,-4.92184 13.60674,-9.98812 24.60834,-12.59371 5.35608,-1.15803 8.72289,-1.73655 12.23325,-1.73655 3.51036,0 7.16499,0.57852 13.10005,1.73655 13.46256,2.7504 33.00372,10.13392 66.58768,25.33357 13.46256,5.93505 124.05953,61.52059 134.19264,67.16611 8.10648,4.6323 12.30309,4.92381 18.8172,1.1601 7.96167,-4.77702 30.39895,-16.35741 72.81316,-37.49212 40.96657,-20.55573 56.60102,-27.93897 83.9603,-40.09869 4.92183,-2.17134 23.01715,-9.41005 31.84741,-12.73951 12.30453,-4.48749 25.04232,-5.93487 36.04401,-3.90825 10.85689,1.8819 26.63605,9.12033 28.0837,12.88405 0.43425,1.30284 1.59147,3.32892 2.45997,4.48695 2.46087,3.03993 9.98838,23.30613 13.02831,34.74198 1.30275,5.21136 3.18465,12.59461 4.34268,16.64785 1.01331,3.90843 2.89548,12.15909 4.19832,18.09414 1.30285,5.93514 3.32911,14.7654 4.48723,19.54242 4.77702,21.27943 9.55431,48.63934 12.88377,73.10351 1.15803,9.11979 2.89539,22.14747 3.76398,28.95111 1.01331,6.80365 2.0277,22.14856 2.46204,34.01875 l 0.86715,21.71377 -7.09317,6.80274 c -10.42263,9.98829 -14.61978,12.88323 -29.52991,20.12112 -18.09477,8.83026 -44.44129,15.77898 -77.44618,20.55601 -25.76701,3.76371 -51.67927,6.80445 -57.90394,6.80445 -7.67215,0 -48.20338,5.21046 -60.07358,7.81614 -25.47738,5.5008 -45.30961,12.01545 -62.82532,20.55618 -7.23798,3.47427 -13.89825,6.36966 -14.91156,6.36966 z m 45.41374,-65.82601 c 1.17045,-0.0126 1.91403,-0.17415 2.21256,-0.47268 1.44765,-1.44765 -0.72378,-13.464 -5.5008,-31.7035 -1.15803,-4.05324 -2.02689,-9.12006 -2.02689,-11.2914 0,-4.6323 -3.76281,-12.30336 -6.22369,-12.30336 -0.86859,0 -7.23825,-2.31723 -14.04189,-5.06763 -6.80364,-2.75049 -13.60728,-5.06655 -15.19965,-4.92183 -1.59228,0 -9.55431,2.60595 -17.80551,5.93541 -12.7387,5.06655 -14.91067,6.51411 -15.63445,9.69876 -0.43434,2.02662 -1.73682,7.6725 -2.75013,12.44952 -1.8819,8.10648 -5.93397,26.4916 -7.38153,33.44005 -0.86859,4.63221 2.45997,5.20956 14.33016,2.60388 14.6206,-3.32946 43.28218,-3.18465 58.77136,0 5.22487,1.14003 9.01594,1.65726 11.25046,1.63278 z M 282.45215,484.64033 c 0.7065,0 1.42588,0 2.15866,-0.009 17.80533,-0.14481 24.75252,-0.86742 38.3598,-4.05207 22.29283,-5.06655 26.05771,-5.93433 31.12417,-7.81615 2.46096,-0.8685 10.8558,-3.90987 18.81747,-6.66027 21.56896,-7.81695 24.46471,-9.40815 25.3333,-14.4747 1.30284,-7.23789 -1.44702,-29.53099 -4.48695,-37.34794 -4.05324,-10.42263 -12.16081,-20.70072 -19.25398,-24.89868 -7.58304,-4.43889 -24.0651,-9.33705 -36.73296,-11.62647 a 54.284362,54.284362 0 0 1 30.92931,49.00402 54.284362,54.284362 0 0 1 -54.28432,54.28441 54.284362,54.284362 0 0 1 -54.28441,-54.28441 54.284362,54.284362 0 0 1 44.86069,-53.4593 c -0.71469,-0.18117 -1.54071,-0.27567 -2.61441,-0.27567 -2.71422,0 -6.98373,0.57843 -14.87304,1.73647 -15.77872,2.46096 -26.49142,7.67223 -36.76924,17.95005 -8.2512,8.2512 -16.06698,21.56877 -18.23841,31.55706 -0.57897,2.31616 -1.88271,6.94927 -3.04074,10.13392 -1.01331,3.32946 -2.02662,11.2914 -2.17143,17.80551 -0.43425,13.02831 1.0134,15.63426 12.015,22.72735 11.77965,7.57269 21.25071,9.70965 43.15149,9.70425 z m 432.15498,-0.14904 c 0.46008,0 0.92088,0 1.38231,0 23.45086,0 31.41253,-1.73745 45.01981,-9.69912 12.30444,-7.2379 14.18715,-13.75147 10.13391,-35.46523 -7.52742,-39.66373 -25.91253,-59.49595 -59.49649,-64.5625 -8.50455,-1.26658 -11.91933,-1.79875 -14.34519,-1.73647 -0.89685,0.0234 -1.66437,0.13788 -2.49795,0.31608 a 54.284362,54.284362 0 0 1 42.78718,53.05223 54.284362,54.284362 0 0 1 -54.28442,54.28432 54.284362,54.284362 0 0 1 -54.28432,-54.28432 54.284362,54.284362 0 0 1 27.30979,-47.10673 c -10.75104,2.15622 -23.07466,5.58396 -28.06471,8.21502 -7.09317,3.61899 -16.35912,14.18436 -20.26755,22.72509 -4.34277,9.69885 -7.23681,25.18858 -6.80256,36.19018 0.43434,10.56735 0.14445,10.27782 16.35741,16.35768 41.75146,15.81715 68.07251,21.67489 97.05278,21.71602 z M 500.15536,297.46162 c -2.7504,0 -4.92174,-1.01331 -32.42584,-15.34437 -34.59727,-18.23959 -107.26589,-54.1396 -109.29251,-54.1396 -0.43425,0 -4.77702,-1.8819 -9.84357,-4.19796 -18.96337,-8.97508 -22.43755,-10.27792 -38.65051,-15.92344 -18.52902,-6.22467 -27.50401,-7.52742 -43.28272,-6.07986 -8.10639,0.72378 -10.71207,0.57906 -11.29113,-0.86859 -0.8685,-2.02662 14.47587,-21.71367 32.1364,-41.40082 20.84517,-23.16132 63.54883,-58.33765 86.85496,-71.365872 20.1214,-11.291132 36.91333,-19.108084 57.90331,-27.069755 3.18466,-1.158121 7.2379,-2.171431 9.1198,-2.316151 l 3.18465,-0.14481 v 57.903308 57.90341 l 3.76371,1.44756 c 2.17134,0.8685 24.60888,1.44756 53.27101,1.44756 39.80854,0 50.08645,-0.43425 51.3892,-1.88181 1.01331,-1.44765 1.73718,-19.83196 1.8819,-59.06144 l 0.43425,-57.034808 4.34277,0.14481 c 2.46087,0.14472 6.65892,1.013311 9.40932,2.026621 51.96817,19.252804 96.40901,49.217767 139.69173,94.237667 17.37099,17.94997 35.46577,40.82185 35.46577,44.58556 0,0.72378 -7.3827,1.30275 -17.66053,1.30275 -20.70045,-0.14472 -28.37259,1.8819 -60.5089,15.34446 -29.09646,12.30445 -111.75347,52.69195 -150.83823,73.68194 -6.80364,3.76371 -13.60728,6.80364 -15.05484,6.80364 z m 12.93129,-131.93301 c -4.24971,0 -9.03186,-0.0324 -14.37885,-0.0864 l -40.3876,-0.43425 -0.43425,-55.29772 -0.28953,-55.442349 3.18474,-0.57906 c 1.88181,-0.43425 6.22458,-1.447561 9.84348,-2.171341 15.92344,-3.18474 63.69373,-1.01331 70.78682,3.329371 2.60568,1.59237 2.31615,107.121169 -0.43425,109.292509 -1.05849,0.94095 -9.47539,1.40409 -27.89056,1.38942 z"
     style="stroke-width:0.144759" />
</svg>
