<?xml version="1.0" encoding="UTF-8" standalone="no"?>
<svg
   xmlns:svg="http://www.w3.org/2000/svg"
   xmlns="http://www.w3.org/2000/svg"
   xmlns:sodipodi="http://sodipodi.sourceforge.net/DTD/sodipodi-0.dtd"
   xmlns:inkscape="http://www.inkscape.org/namespaces/inkscape"
   version="1.0"
   width="7500"
   height="7500"
   inkscape:version="1.0.1 (3bc2e813f5, 2020-09-07)"
   sodipodi:docname="garden_of_salvation.svg">
  <defs />
  <sodipodi:namedview
     inkscape:zoom="0.081741544"
     inkscape:cx="1419.8243"
     inkscape:cy="2488.1829"
     inkscape:window-width="1754"
     inkscape:window-height="1057"
     inkscape:window-x="158"
     inkscape:window-y="-8"
     inkscape:window-maximized="1" />
  <path
     id="path4"
     style="display:inline;stroke-width:0.999997"
     d="m 3942.5984,228.32408 v 516.59179 c -28.3439,-1.28669 -67.4832,-1.50956 -116.2031,-0.53516 -106,2 -158.002,-0.99414 -168.002,-8.99414 -0.6364,-0.49495 -1.2853,-0.95205 -1.9414,-1.38672 v -24.61328 h -25 v 21.86719 c -1.6676,0.57348 -3.3556,1.26958 -5.0664,2.125 -45,23.00001 -70.9863,22.01173 -100.9863,-2.98828 l -14.6055,-12.17383 -3.4414,-98.5371 -24.9844,0.87109 3.916,112.16796 -0.8886,2.66797 c -13,36.00001 -28.998,39.00196 -41.9981,7.00195 -0.5354,-1.30041 -0.9884,-2.32974 -1.4668,-3.44336 l -7.9258,-226.99608 -24.9843,0.87109 8.6328,247.21485 c -16.0824,9.40114 -42.5589,15.35547 -74.2598,15.35547 -66,0 -88,53.00195 -49,116.00195 16.9999,29 25.9941,33.99805 57.9941,33.99805 h 37.002 l 1.0098,54.99023 c 1,29.99998 3.9981,69.00588 7.998,85.00588 6,27 2.9981,30.998 -37.0019,48.998 -24,10 -83.0079,26.0059 -133.0079,36.0059 -129.5183,23.7578 -230.7875,45.1584 -285.4668,59.7167 l -51.6425,-207.1249 c 7.6017,-3.58347 14.0641,-7.4908 19.1211,-11.59963 26,-21.9999 25.9882,-22.00195 6.9882,-52.00195 -9.9999,-16 -22.9902,-31.99219 -28.9902,-35.99219 -6,-4.5 -15.6679,-6.75192 -26.9238,-7.01562 -1.1725,-0.0275 -2.3616,-0.033 -3.5664,-0.0176 -18.0731,0.23063 -39.5292,5.24609 -56.5215,14.03516 -18.9999,11 -33.9902,11.99218 -50.9902,5.99218 -25,-9.9999 -99.9961,9 -120.9961,30 -6,5.0001 -17.006,9.00782 -25.0059,9.00782 -9,0 -29,7.0001 -45,15 -15,8 -32.998,15 -37.998,15 -10,0 -230.0079,103.00193 -313.0079,146.00193 -75.6015,39.6774 -120.0268,63.4871 -152.1796,82.0215 l -234.0957,-405.46679 -21.6504,12.5 234.2246,405.68939 c -16.956,10.3129 -30.9347,19.5708 -46.2891,30.2521 -27,19.9999 -50.998,43 -52.998,52 -4,22 56.9922,106.9922 76.9922,106.9922 9,0 27.0019,-7 41.0019,-15 14,-8 32.004,-16.9903 40.0039,-20.9903 4.0154,-2.0077 12.316,-6.7911 22.3652,-12.8242 l 13.9043,24.0801 c -5.3139,3.9354 -9.8803,7.6158 -13.2714,10.7461 -12,11 -51.004,37.9883 -85.0039,58.9883 -35.0001,22 -88.9922,58.0019 -121.9922,82.0019 -26.9053,20.179 -53.7506,36.7802 -65.7969,41.5703 l -241.25,-357.668 -20.7266,13.9786 240.1914,356.0976 c -0.5488,0.9672 -1.0301,1.975 -1.4218,3.0196 -3,7 -32,34.0038 -64,59.0038 -129,100 -441.0039,425.9984 -509.0039,532.9983 -22.9999,35.0001 -40.9942,54.0078 -53.9942,54.0078 -29,0 -25,-13.0059 19,-62.0059 22,-24 65.9982,-77.0039 97.9981,-119.0039 78,-103.0002 236.9921,-272.0002 297.9921,-319.0002 104,-78.9999 152.9982,-133.0019 157.9981,-172.0019 5.0001,-33 2.0059,-40.9882 -23.9941,-62.9883 -17,-13.9999 -38.9981,-25.0039 -48.9981,-25.0039 -42,0 -367.9942,305.998 -488.9941,457.998 -25,32.0001 -65.008,82.0061 -88.0079,111.0061 -24,28.9999 -42.9942,60.9961 -42.9942,71.9961 0,10 -1.998,19 -3.998,19 -14.0001,0 -92.00976,-49 -125.00976,-79 -21,-20 -60.002,-52.0001 -86.0019,-71 -97.00021,-71.0003 -109.00207,-84.008 -97.00207,-107.008 12,-21 7.01172,-32.9883 -13.98828,-32.9883 -13,0 -54.00976,59 -54.00976,79 0,6 6.004,11 14.0039,11 8,0 15.9961,7.0001 19.9961,15 3,8 11.99804,15.0001 18.99804,15.0001 15,0 102.01367,79.0021 94.01377,86.0021 -6,7 -37.002,-7.0118 -37.002,-16.0118 0,-11 -101.0019,-71.9942 -108.002,-64.9942 -3,3 1.00391,11.0021 10.00391,18.0021 9,6 17.98828,23.9941 21.98828,38.9941 3.9999,16 13.00195,28.0078 22.00195,28.0078 23,0 117.00976,64.9902 166.00986,114.9902 78.9999,79 79,80.0078 64,96.0079 -8.0001,7.9999 -23.0039,29.998 -33.0039,48.998 -9.9999,18.9999 -30.9999,52.9962 -45,75.9961 -14,23.0001 -35,56.0001 -45,75 -9.9999,19.0001 -27.002,46.0098 -37.002,61.0098 -8.3131,12.9314 -12.138,24.1465 -11.4941,32.4804 l -243.49814,-140.584 -12.5,21.6504 253.98834,146.6407 c -9.655,3.3834 -18.7337,10.2799 -23.49813,19.8086 -14.99998,34 -35.00193,67.9902 -48.00193,80.9902 -6,6 -11.00195,22.0098 -11.00195,35.0098 0,18 5.00586,22.996 21.00586,19.996 12,-2 26,-10.004 30,-18.0039 5,-8 21.99415,-38.9979 38.99425,-67.998 11.5906,-19.7724 20.3827,-39.531 23.8613,-51.6973 l 202.03516,116.6446 c -13.9147,30.5953 -37.1596,81.0533 -61.89256,134.0527 -34,74.0001 -65.9942,146.9961 -68.9942,161.9961 -4,15 -18,53.0098 -30,84.0098 -26,64 -49.0098,76.9921 -80.0097,42.9921 -10.0002,-11 -23.99611,-19.9941 -30.99621,-19.9941 -19,0 -44.0039,40.9923 -44.0039,72.9922 0,15 -5.98828,38.0098 -13.98828,50.0098 -7,12 -19.00196,43.9903 -26.00196,69.9902 -13.9996,53 -9.00195,62.0078 56.99805,92.0078 16.5254,6.7604 26.8442,15.2122 30.95703,24.5098 l -265.79883,-96.7422 -8.55078,23.4922 161.4043,58.7461 c -2.21833,3.3956 -4.22742,7.3877 -6.01953,11.9961 -14.0001,35 -30.98828,135.998 -32.98828,187.998 -1,38 0.99218,41.0059 46.99218,62.0059 38.09953,18.6067 53.41427,35.6299 44.58985,50.3984 l -263.46094,-37.0273 -3.47852,24.7578 258.17774,36.2851 c -2.18642,15.0748 -4.23206,37.5806 -4.83203,61.5821 -2.0001,39 -8.0001,100.9921 -15,136.9921 -12.0002,74 -6.99209,498 9.00781,675 13,145 31.00381,261.0059 48.00391,310.0059 8,23 13.98828,62.0039 13.98828,89.0039 0,3.3435 0.0892,6.6116 0.24414,9.8066 l -67.28711,16.7774 c -2.70704,-10.4575 -6.34404,-22.25 -10.94531,-35.5938 -25.0003,-71 -29.00782,-75 -73.00782,-75 -33.99999,0 -38.99414,3.0021 -38.99414,22.002 0,16 -13.00391,31.0077 -40.00391,47.0078 -43,27 -52.00586,47.9923 -40.00586,91.9922 13,44 28.01172,59.0039 61.01172,59.0039 30,0 44.98828,-23.9941 32.98828,-53.9941 -3,-9 -0.99022,-16.0118 5.00977,-16.0118 6,0 11,4.0097 11,9.0098 0,4.9999 8.99229,12.9961 20.99219,15.9961 15,5 18.00391,10.0019 10.00391,18.002 -6,6 -11,24.9941 -11,42.9941 0,24 -6.99414,36.0098 -27.99414,50.0098 -62.00002,41 -64.00206,59.9902 -18.00196,185.9902 19,51 37,104.0079 41,118.0078 8,27 41.99249,103.002 110.99219,247.002 18.4939,38.5288 34.57249,76.9752 40.99609,96.7441 l -256.25195,136.252 11.73828,22.0742 251,-133.459 c 7.06511,17.6953 23.70284,46.7629 38.27154,67.8418 l -117.62896,62.5449 11.73633,22.0742 121.46683,-64.5859 c 1.3249,1.3981 2.5587,2.5852 3.6719,3.5019 4,3 23.0078,31.0039 43.0078,63.0039 23.95,37.3853 45.8473,61.1159 64.7031,70.2071 l 8.5274,13.6445 18.5586,-11.5957 c 2.6418,-1.1324 5.1772,-2.7192 7.6035,-4.7519 l 39.23826,-24.5196 c 2.6094,3.6781 5.4479,7.0963 8.3652,10.0137 12,10.0001 28.0058,34.0059 36.0059,51.0059 0.592,1.5028 1.2174,2.9385 1.8594,4.3418 l -41.7442,28.1562 13.9805,20.7246 42.4785,-28.6523 c 14.1789,11.7265 34.1065,12.5455 60.418,2.4257 15.4398,-5.8818 18.9747,-29.5962 11.4258,-50.8847 l 62.795,-42.3555 c 15.4252,21.4167 48.4703,49.2363 62.7871,49.2363 9.9999,0 30.9882,-11 47.9883,-26 27,-22 28.998,-27.9961 18.998,-49.9961 -6,-13 -7.9941,-27 -4.9941,-30 10,-10 36.0001,15.0019 71,71.002 18,27 47.004,66.0039 63.0039,85.0039 17.0001,19.0001 51,60 75,90 43.0001,54 78.0019,74.9922 78.0019,46.9922 0,-12.9999 -68.0039,-106.002 -104.0039,-142.002 -18,-18 -96.0039,-131.9979 -130.0039,-187.998 -3.2387,-5.5059 -7.2407,-11.8734 -11.4726,-18.4121 l 153.9999,-103.875 -13.9804,-20.7246 -153.8711,103.7871 c -4.3091,-6.3138 -8.3864,-12.1674 -11.6777,-16.7754 -10,-12.9999 -19,-26.9923 -19,-31.9922 0,-1.258 -1.2885,-4.4995 -3.5801,-9.0918 l 129.6484,-81.0137 -13.248,-21.2011 -128.7832,80.4726 c -4.1541,-6.6927 -8.9074,-13.926 -14.0371,-21.1679 -31.0001,-47 -38.9921,-86.9981 -16.9922,-86.9981 8.0001,0 30.998,-18.0001 52.998,-41 21,-22.0001 48.0039,-45.0098 59.0039,-50.0098 11,-5 28.9902,-14.9882 39.9903,-21.9882 10.9999,-7 46.0037,-27.0097 78.0039,-46.0098 52.9999,-30 58.0039,-36 55.0039,-64 -4,-47 -29.004,-44.9981 -119.0039,7.0019 -43,25 -103.996,60.0079 -135.9961,77.0079 -30.9999,17 -62.0079,37.9921 -69.0078,46.9921 -16,22 -42.996,8.0039 -49.9961,-26.996 -1.876,-7.9728 -5.3027,-16.8167 -9.4336,-24.9004 l 145.0664,-77.1328 -11.7363,-22.0743 -147.5176,78.4375 c -0.4619,-0.4615 -0.9244,-0.9252 -1.3828,-1.3379 -11.0002,-9 -19.0001,-23 -19.0001,-30 0,-7 -8.9903,-29 -20.9903,-49 -26,-43 -21.0039,-50.9941 56.9962,-94.9941 48,-27 53.0039,-32.9961 44.0039,-49.9961 -13,-25 -11.0018,-25.002 -82.002,0.9981 -65,22.9999 -88.0078,15.9942 -88.0078,-25.0059 -1.0001,-10.9999 -7.0001,-31.9961 -15,-45.9961 -8.0001,-14.0001 -14.0001,-39.9941 -15,-57.9941 0,-30 4.0097,-34 54.0097,-56 60,-27 73,-41.0118 56,-61.0118 -8,-9 -19.0018,-10.9902 -33.0019,-5.9902 -49.9999,18 -103.99806,20.9902 -116.99806,5.9902 -19,-23 -32.0097,-104.9961 -20.0097,-120.9961 2.2323,-2.53 2.7927,-4.9696 2.082,-7.2402 l 136.95116,-34.1445 c 9.3497,32.4451 21.2361,57.3808 28.9707,57.3808 4.9999,0 16,-5.9921 26,-12.9921 16.0002,-11 15.9962,-15.0001 0.9961,-49 -8.0001,-21 -15,-47.004 -15,-59.004 0,-12 -5.9883,-44.9921 -13.9883,-72.9921 -36,-126 -50.0098,-286.002 -50.0098,-566.002 0,-276 12.9981,-420 48.9981,-570 6.9999,-30 21,-89.0038 30,-130.0039 9.0001,-41 22,-93.0059 30.0001,-115.0059 6.9999,-22.0001 19.9999,-64.9941 30,-94.9941 30.9999,-96 125.0058,-327.9999 171.0058,-420 24,-48.9999 44.0039,-96.0039 44.0039,-104.0039 0,-10.9999 -20.0057,-26.002 -36.0058,-26.002 -1.9999,0 -25.9981,44.002 -52.9981,97.002 -43,88 -81.998,177.0078 -127.998,298.0078 -8,22 -21.0039,54.9981 -29.0039,71.9981 -13,32 -32.0021,42.0038 -48.0021,25.0039 -4,-4.0001 -26,-12.002 -49,-18.002 -40,-10.0001 -42,-12.0039 -41,-48.0039 1,-20 8.998,-55.0059 18.9981,-77.0059 15,-31 16.0058,-41.9882 6.0058,-51.9882 -10,-9 -17.0058,-7.0021 -32.0058,11.998 -10,12.9999 -19,29.9941 -19,38.9941 0,22 -39.99026,101.9961 -50.99026,101.9961 -5,0 -9.0097,19.002 -9.0097,41.002 0,42 -30.9981,164.0077 -52.9981,208.0078 -6,12.9999 -9.9979,34.998 -7.998,48.9981 2.5699,24.8427 -19.8063,147.9437 -33.8204,191.5507 l -31.5312,-4.4316 c 1.1979,-9.8761 2.0483,-20.1744 2.3496,-30.1172 2,-33 9.9981,-80.0019 18.9981,-104.0019 7.9999,-24 15,-55.0059 15,-70.0059 0,-13.9999 6.9999,-38.9902 15,-54.9902 7.9999,-15 15,-41.0118 15,-57.0118 0,-42 63.0079,-235 137.00776,-424 19.0001,-48 138.0001,-288.9961 161.0001,-326.9961 73,-118 97.9902,-156.0057 114.9902,-175.0058 18,-19.9999 22.002,-20.9981 41.002,-7.9981 11,8 31.0078,15 43.0078,15 27,0 55.9924,15.0079 91.9921,47.0079 14.0001,13 29.002,22.998 33.002,22.998 3.9999,0 22.0059,14 40.0059,30 35,32 55.0039,35.004 70.0039,10.0039 8,-12 -3,-29.0077 -45,-73.0078 -31,-30.9999 -60.0098,-56.9961 -65.0098,-56.9961 -6,0 -36.0021,-23.9941 -67.0019,-53.9941 -50.0001,-49 -55.0001,-57.0118 -45,-76.0118 13.9999,-25 42.0039,-38.0019 48.0039,-22.0019 9,29 42.9942,3.0019 124.9941,-93.9981 57,-67 95.0078,-103.9902 107.0078,-103.9902 36,0 20.9941,32.9883 -55.0059,122.9883 -56,66 -75,96.0078 -75,118.0078 0,17 5.0079,28.9941 13.0079,27.9941 6,0 49.9922,-42.9961 95.9921,-94.9961 46,-52 90.0079,-93.998 99.0079,-93.998 9,0 25.998,10.0059 37.998,21.0059 13.9999,13 29.9941,19 38.9941,15 14,-5 13.0059,-10.0097 -8.9941,-39.0098 -14,-18.9999 -26,-40.9941 -26,-49.9941 0,-8 28.002,-40.002 63.002,-71.002 55,-50 64.9961,-54.9941 94.9961,-49.9941 27.9999,5 39.0039,-0.016 85.0039,-38.0137 132,-111.0002 278.002,-212.9944 397.0019,-274.9944 47.0001,-25.0001 89.9961,-48.9982 94.9961,-52.9981 6,-4 68.9941,-33.0039 139.9941,-63.0038 243,-102.9999 558.0059,-191.998 700.0059,-198.998 l 60,-3.0039 7.9981,69.0098 c 7.9999,76.9999 18.998,95.9902 52.998,95.9902 29,0 37.0039,-24.9981 29.0039,-93.9981 -13,-100.9999 -26,-95.9921 225,-95.9921 166,0 218.9923,-3.0079 222.9922,-13.0079 6,-17 -3.9883,-79.9921 -13.9883,-91.9921 -0.8137,-0.8138 -2.4631,-1.5725 -4.7988,-2.2676 v -230.5235 c 18.7454,1.0897 39.9625,2.0654 61.7949,2.7812 148,5 324.004,37.0117 509.0039,91.0117 3.0867,0.912 7.0631,2.0634 10.3867,3.0391 l -59.3222,237.9317 c -24.3216,-2.6927 -36.0684,1.3758 -36.0684,12.0215 0,15 34.9941,38.9961 64.9941,45.9961 17,4 46.0099,12 65.0098,19 19.0001,8 60,21.0098 90,31.0098 30,10.0001 59.9922,22.0019 65.9922,26.0019 6,5 41.0059,19.9982 77.0059,33.9981 226,85 536.0019,283.9901 761.0019,489.9903 74,67 240.9961,247.9981 311.9961,337.9981 49,62 46,74.0117 -41,136.0117 -75,54 -85.9961,70.9922 -60.9961,102.9922 20,27 34.9941,21.9979 113.9942,-37.002 39.9999,-30 79.0039,-54.9902 85.0039,-54.9902 12,0 76.0039,88.9922 78.0039,106.9922 1,18 66.994,97.998 79.9941,97.998 28.9999,0 19.0059,-38.9979 -34.9941,-127.998 -30.9999,-51 -56.002,-99.002 -56.002,-108.002 0,-21 98.9883,-112.9941 137.9883,-128.9941 32.0001,-12.9999 35.0078,-12.0038 58.0078,15.9961 13,16.0001 22.9941,32.0059 23.9941,36.0059 0,4 19.002,34.9942 41.002,68.9941 42,63 160.0079,293.0078 174.0078,339.0078 4.0001,14 11.0001,28.9961 15,34.9961 4.0001,5.0001 17.0001,39 30,75 13.0001,36 26.0001,69 30,75 14.0001,20.0001 39.9902,113.998 39.9902,142.998 0,1.0019 0.027,2.0155 0.08,3.0372 l -94.2129,34.291 c -13.0622,-38.8434 -29.2042,-79.8528 -35.8574,-88.3203 -12,-14 -40.0039,4.9979 -40.0039,26.998 0,10.9999 11.004,57 25.0039,101 14.0001,44 24.9902,82.9941 24.9902,87.9941 0,4 -20,17.004 -45,29.004 -61,30 -57.9981,53.9941 7.002,49.9941 27.9999,-2 49.0098,2.0098 54.0098,9.0098 4,6 12.994,42.9902 19.9941,80.9902 5.2444,28.4069 8.1951,45.5443 8.3535,57.9258 l -92.3066,19.6211 5.1992,24.455 80.127,-17.0312 c -2.0026,3.4001 -4.4481,6.9646 -7.379,11.0352 -18,24 -18.9942,32.998 -8.9941,86.998 16.9999,101.0001 27.0039,401.9941 18.0039,574.9941 -12,247.9999 -41.0039,417.006 -123.0039,715.0059 l -13.0078,49.9941 -43.9883,-0.9961 c -40,-0.9999 -87.0019,-12.9942 -131.0019,-34.9941 -46,-23.0001 -89,3.9883 -71,43.9883 8,17 32.9941,30.0018 98.9941,52.0019 94,30 105.0019,38 97.002,64 -19.0001,61 -153.9942,331.0097 -218.9942,440.0098 -35,57.9999 -64,110.9922 -64,117.9922 0,16 49.0021,52.998 71.002,52.998 12,0 40,-37.0001 90,-120 39,-66 72.9882,-120 73.9882,-120 4,0 48.0079,24.006 73.0079,40.0059 12,8.0001 22.0019,20.9922 22.0019,27.9922 0,13 -53.0039,116.0078 -70.0039,137.0078 -5,7 -7.0039,15.002 -3.0039,18.002 12.9999,12.9999 44.0098,7 50.0098,-11 18,-48 72.9882,-120.0059 96.9882,-126.0059 7.0755,-1.7688 12.3911,-3.9163 16.3165,-6.7891 l 26.3867,14.0293 c -7.4318,16.5066 -15.1378,34.7091 -21.6973,51.7637 -15,38 -32.998,75.9941 -37.998,83.9941 -6,7 -16.002,21.0098 -22.002,31.0098 -11.8883,20.961 -22.2324,39.3247 -31.4766,55.8672 l -71.705,-44.8066 -13.2481,21.2011 72.7891,45.4824 c -39.9502,72.2755 -51.3555,97.6992 -51.3555,109.2579 1.0001,18 128.002,121.9902 161.002,129.9902 11.0001,3 23.9941,-7.9981 38.9941,-33.9981 10.6762,-17.2461 32.8052,-49.2846 54.2266,-78.4824 l 402.7812,251.6856 13.2481,-21.2012 -401.0645,-250.6133 c 23.7617,-31.8531 51.9849,-74.7368 62.8047,-95.3926 11,-22 24.0039,-42 29.0039,-45 4.9999,-3 8.9941,-16 8.9941,-30 0,-16 11,-34.9921 30,-50.9921 2.8,-2.1412 5.4769,-4.4258 8.0196,-6.7715 l 53.2773,28.3281 11.7363,-22.0742 -48.2968,-25.6797 c 3.3292,-5.1784 5.2636,-9.7361 5.2636,-12.8106 0,-7 9.0001,-28 19,-45 4.2233,-7.147 7.587,-14.0791 10.0879,-20.8379 l 48.0508,25.5489 11.7363,-22.0742 -54.5488,-29.0039 c 0.1243,-4.9507 -0.3103,-9.8221 -1.3222,-14.629 -3,-16 -1.0059,-38.9921 4.9941,-50.9921 6,-12 21.0078,-47.0059 32.0078,-77.0059 12,-30 28.0059,-69.9941 36.0059,-87.9941 18,-43 17.9882,-86.0118 -1.0118,-102.0118 -11.151,-9.2925 -16.1497,-24.7187 -14.0664,-37.0175 l 234.1739,67.1484 6.8906,-24.0312 -223.2539,-64.0176 c 1.3939,-3.1049 -1.5195,-7.5157 -8.7383,-14.0782 -5.6321,-4.9281 -10.7575,-13.8219 -13.3047,-22.4941 l 178.8106,51.2734 6.8906,-24.0312 -195.8066,-56.1465 c -4.2916,-3.1841 -9.9292,-4.7687 -16.2286,-4.6543 l -56.6289,-16.2383 c 1.3298,-8.1147 3.4734,-16.7274 6.2676,-24.7109 7,-19.9999 17.006,-49.9921 21.0059,-65.9922 4,-16.9999 15.9961,-64 26.9961,-105 11,-40.9999 28.0019,-115.9999 37.0019,-165 10.0001,-49.9999 21.002,-95 26.002,-101 5.0001,-6 30,-10.998 56,-11.998 39,0 52.9961,4.9863 75.9961,25.9863 15,14 26.998,34.004 26.998,44.0039 0,23.0001 35.0039,24.0078 44.0039,2.0078 3,-9 5.9902,-30.0019 5.9902,-48.0019 0,-18 5.002,-46.9961 11.002,-64.9961 8,-23 8,-35 0,-45 -8,-10 -8.002,-16.0019 3.998,-26.002 11,-9 15,-34.0019 15,-97.0019 0,-46 7.0118,-115.002 16.0118,-153.002 21,-93 16.9882,-124.9961 -16.0118,-124.9961 h -24.9902 l -6.0058,144.9902 c -8,180 -6.9981,172 -18.9981,165 -5,-3 -8.998,-69.9903 -7.998,-155.9902 l 1.9922,-149.0039 -31.9921,-27.9941 -30.9961,-27.0118 -5.5235,-128.7324 190.9043,-6.6679 -0.8711,-24.9844 -191.084,6.6718 c -3.1372,-71.7712 -8.6086,-137.0506 -11.4296,-149.2753 -6,-26 12,-29.004 45,-6.0039 12,7.9999 22.998,12 22.998,7 4.6637,-27.982 4.4911,-78.9093 0.8965,-104.9082 l 322.6074,-22.5586 -1.7441,-24.9395 -328.9278,23 c -4.9122,-14.8587 -11.0291,-43.9139 -14.8339,-73.5918 -6,-43.9999 -20.9942,-91.0019 -38.9942,-123.0019 -15,-29 -42.9999,-111.0079 -60,-182.0079 -18,-72 -39.0098,-142.0019 -46.0098,-157.0019 -18.9999,-37 -17.998,-45.9981 7.002,-52.9981 13.5268,-4.7343 17.4342,-6.7308 9.5859,-13.0918 l 50.2989,-18.3066 c 12.5292,3.0846 38.4656,-4.523 39.1054,-14.2324 l 35.336,-12.8633 c 16.3326,3.0315 40.9097,-5.3484 40.5254,-14.748 l 330.8847,-120.4336 -8.5508,-23.4922 -513.5468,186.916 c -14.6745,-10.9245 -28.0073,-28.6264 -30.6309,-41.7442 -4,-15 -15.0058,-41.994 -25.0058,-57.9941 -26,-43.9999 -59.004,-116.0077 -59.004,-129.0078 0,-6.9999 -7,-20.9923 -15,-31.9922 -8,-10.0001 -15,-26.0098 -15,-35.0098 0,-9 -8.998,-26.9902 -18.998,-39.9902 -18,-23 -19.998,-23.0059 -37.998,-6.0059 -11.0001,9 -24,17.0059 -30,17.0059 -6,0 -45.9942,-69.0019 -87.9942,-153.0019 -42.9999,-83 -96.9999,-181.0021 -120,-217.002 -24,-36 -45.0098,-71.9961 -46.0098,-79.9961 -0.4217,-1.6871 -0.6054,-3.411 -0.5566,-5.1953 l 206.6816,-173.4258 -16.0703,-19.1523 -103.9961,87.2636 c -5.3278,-1.7641 -17.4905,1.2857 -35.0527,10.5059 -5.3529,2.9198 -10.4628,3.9944 -14.8379,3.7617 l 206.6074,-173.3652 -16.0683,-19.1504 -186.9258,156.8477 c -0.054,-1.5206 -0.608,-2.9382 -1.7695,-4.0997 -3,-4 -14.0118,-0.9979 -23.0118,7.002 -14,11.0001 -17.9901,11 -28.9902,-4 -15,-21 -31.0078,-21.9921 -39.0078,-1.9922 -8,22.0001 -33.9922,18.002 -46.9922,-7.998 -2.1924,-3.7584 -5.4648,-8.6951 -9.416,-14.1934 l 57.6133,-48.3418 13.1269,-11.0137 c 2.1053,4.1046 5.6374,8.622 10.6719,14.545 22,28 59.0039,29.0039 59.0039,3.0039 0,-30.1179 -4.6271,-52.6223 -12.0293,-65.9219 l 159.0391,-133.4494 229.8144,-192.8361 -16.0703,-19.1523 -229.8144,192.836 -166.2735,139.5217 c -6.1739,1.8515 -12.7557,7.1713 -19.3984,16.2773 l -44.1406,37.0391 -56.8653,47.7149 c -5.322,-6.4062 -10.9019,-12.6695 -16.2636,-18.0313 -25,-25.9999 -29.0079,-35.0019 -24.0079,-67.0019 7,-41 9.0059,-35.9981 -113.9941,-172.9983 -12.4583,-13.9532 -27.1519,-30.8867 -40.9883,-46.8418 l 122.6778,-136.2461 -18.5801,-16.7286 -120.6172,133.961 c -7.3889,-8.4849 -14.2286,-16.2951 -19.5,-22.1523 -36,-42.9999 -179.9922,-166.9921 -192.9922,-166.9921 -4,0 -7.998,20.9978 -7.998,45.9979 0,24.9999 -3.0059,48.0039 -6.0059,51.0039 -3,3 -25.9961,-12.0019 -49.9961,-33.0019 -7.1728,-6.0252 -15.29,-12.8975 -23.6367,-19.9551 l 174.9902,-208.5468 -19.1504,-16.0684 -174.959,208.5058 c -14.4876,-12.1302 -28.3373,-23.5029 -38.25,-30.9374 -43,-35 -43.9941,-45 -4.9941,-60 17,-6 30,-15 30,-19 0,-4 -17.002,-19.0097 -37.0019,-35.0098 -21,-15 -52.0059,-38.9941 -70.0059,-53.9941 -2.6416,-2.2893 -4.9785,-4.335 -7.1777,-6.2774 l 81.8886,-112.7089 -20.2265,-14.6934 -27.4453,37.7734 c -7.1879,-4.6049 -17.6414,-10.0612 -32.0332,-17.0898 -29.0001,-14.0001 -101.9941,-58.0078 -162.9942,-96.0078 -40.9155,-26.0673 -81.1546,-50.1501 -117.7832,-70.7521 l 135.541,-234.76556 -21.6523,-12.5 -135.7598,235.14256 c -64.0045,-34.9244 -113.8702,-57.1191 -131.3555,-57.1191 -11,0 -30.996,12.9999 -45.996,29.9999 l -26.002,30 -68.9941,-32.0078 c -37,-16.9998 -72.002,-34.9902 -78.002,-39.9902 -17,-15 -57.0059,-8.0039 -85.0059,15.9961 -27,22 -30.9882,23.0059 -77.9882,10.0059 -28,-7.0001 -59.9999,-16.9981 -71,-22.9981 -11,-6 -30.0079,-11.0019 -43.0078,-11.0019 -13.0001,0 -33,-7 -45,-15 -4.7894,-3.1929 -13.1138,-7.0221 -23.1954,-10.8535 l 23.6954,-95.03714 c 8.4904,2.9921 17.6127,5.76058 26.496,7.89258 25,7 52,13.99219 60,16.99219 8,3 29,-5.99815 45,-18.99805 34,-29.0001 29.0098,-36.99805 -39.9902,-56.99805 -21.9999,-6 -48.0117,-17.99999 -57.0117,-26 -3.8919,-3.11351 -8.5455,-5.45816 -13.5391,-6.93945 l 16.0586,-64.4082 -24.2578,-6.04688 -17.6523,70.80274 c -12.3209,3.28141 -34.277,-0.70849 -51.6055,-8.40821 -18,-7.99999 -92.9921,-26.99803 -166.9922,-41.99804 -103.9999,-21.00002 -141.0117,-25.00586 -162.0117,-17.00586 -22.9999,8 -31.9981,5.99414 -52.9981,-10.00586 -18,-14 -46.9921,-20.99024 -102.9921,-24.99024 -42,-3 -82.996,-10.99609 -90.9961,-15.99609 -2.7867,-2.43837 -11.9015,-4.38901 -26.8008,-5.81642 V 228.32408 Z m -170.332,630.18165 c 46.122,0.12403 90.6191,3.37304 124.1191,9.87304 1.7907,0.33257 3.6459,0.65321 5.5391,0.96484 v 61.93555 c -32.1907,-0.88966 -68.3921,-1.58115 -106.5254,-1.88867 -51.7231,-0.84103 -99.9657,-2.03796 -138.9473,-3.36524 v -61.07617 c 35.9087,-4.3697 76.4448,-6.54921 115.8145,-6.44335 z m 429.58,1.74608 c 45.2957,-0.22062 163.4239,15.63086 183.5489,26.13087 22.0001,11.00009 142.9941,39.00781 169.9941,39.00781 12,0 29.002,5.99414 37.002,12.99414 2.4755,1.92542 6.3482,4.1577 11.1308,6.50195 l -24.0976,96.64452 c -9.2789,-2.7664 -18.903,-5.2516 -28.0332,-7.1406 -102,-21 -133.9981,-28.0078 -217.9981,-47.00783 -47,-11 -131.9941,-24.99414 -188.9941,-30.99414 -57,-6 -108.0098,-14.0039 -114.0098,-18.0039 -2.7425,-1.37127 -26.3226,-3.15837 -62.791,-4.79102 v -58.14453 c 74.1572,3.28212 167.9912,-1.65341 219.793,-14.05664 3,-0.75 7.9842,-1.10911 14.455,-1.14063 z m -570.3945,8.82032 v 56.03125 c -38.8771,-1.55346 -64.1548,-3.20888 -66.9082,-4.64258 l -0.1797,-5.11524 c 5.7086,-12.5924 43.2828,-38.85143 67.0879,-46.27343 z m 295.4727,3.51172 c 5.0467,0.51282 10.2654,0.98095 15.6738,1.39062 v 58.60156 c -5.0617,-0.18698 -10.2914,-0.36901 -15.6738,-0.54687 z m -488.5372,62.79687 c 3,0 5.0098,36.00987 5.0098,80.00978 0,44 -3.0019,79.9961 -7.0019,79.9961 -5,0 -8.0021,-25.9942 -7.002,-57.9942 1,-75.99996 2.9941,-102.01168 8.9941,-102.01168 z m -570.6542,76.50588 51.1425,205.121 c -5.0355,1.5966 -9.2438,3.066 -12.4902,4.3848 -16.9999,8.0001 -35.9922,13.9884 -42.9922,13.9884 -0.8275,0 -2.0026,0.1568 -3.4336,0.4297 l -53.0137,-212.6368 c 6.1852,-1.0038 13.2392,-1.9135 21.4512,-2.7871 14.2204,-1.9751 27.4807,-4.8984 39.336,-8.5 z m -85.002,17.5273 v 0 l 53.2226,213.4669 c -65.7311,22.2096 -222.8462,87.5194 -252.5703,106.5098 -19,12 -60.9922,34.9941 -91.9922,49.9941 -58,26 -72.0019,47.998 -48.0019,71.998 8,8.0001 -12.998,27.0059 -67.9981,62.0059 -53.5797,35.2676 -84.1609,51.2105 -104.8477,51.2715 l -83.041,-143.832 c 8.4259,-5.4914 15.9585,-10.9665 20.8809,-15.4415 31,-27 185,-107.996 319,-165.996 66,-28.0001 125,-58.9982 131,-67.9982 7,-12 4.0078,-21.0137 -12.9922,-38.0137 -21,-21 -24.0039,-21.9902 -33.0039,-5.9902 -6,10 -15.994,18.002 -23.9941,18.002 -7.9999,0 -31.002,6.998 -52.002,15.998 -21,9 -50.9979,23.002 -67.998,29.002 -48.9999,21.0001 -115.9999,54.0001 -180,90.0001 -33,18 -80.0039,43.998 -104.0039,56.998 -10.9985,5.2793 -22.9613,12.1086 -34.0215,19.123 l -13.2852,-23.0136 c 3.7902,-2.364 7.5849,-4.7447 11.3008,-7.1094 69,-44.0001 78.0118,-49.0021 151.0117,-86.002 39,-19 74.9902,-34.9961 80.9902,-34.9961 6,0 15.9981,-7 22.9981,-15 7,-7.9999 23.0098,-15 35.0098,-15 12,0 27.9961,-7 34.9961,-15 7,-7.9999 20.0039,-15 29.0039,-15 9,0 24.9941,-7 34.9941,-15 11,-7.9999 25.9999,-15 34,-15 7.9999,0 43.9979,-13.9999 78.998,-30 33.9999,-16.9999 71.9981,-30 82.9981,-30 12,0 24,-10.0077 30,-24.0078 3.7188,-10.625 8.5686,-17.298 19.3457,-21.9688 z m 962.8477,22.3262 c 58.6632,0.063 135.9833,3.9492 156.3457,9.2441 v 108.9082 h 25 v -105.2148 c 4.7107,0.4331 9.9307,0.865 15.6738,1.291 v 228.6231 c -14.126,-0.9685 -31.8118,-1.1506 -50.211,-0.207 -39,1 -99.9999,-0.9981 -135,-3.9981 l -64,-7.0019 v -59.004 c 0,-55 2.002,-59.9942 26.002,-68.9942 14,-6 47.0078,-10.0058 73.0078,-10.0058 46,0 79.9981,-17.9883 63.9981,-32.9883 -3,-4 -42.004,-7.0019 -85.0039,-7.0019 -68.0001,0 -81.0058,-2.9981 -100.0059,-22.9981 l -14.9336,-14.2871 v -9.0976 l 26.9453,-4.6231 c 11.5625,-1.875 34.8429,-2.6741 62.1817,-2.6445 z m -138.3829,3.5117 c 10.6037,0.1691 20.268,2.8532 24.2559,8.2793 v 16.3164 c -5.8936,14.4858 -25.4824,22.1244 -60.5273,23.3535 l -1.1739,-33.5957 c 4.5239,-9.0094 20.0619,-13.9771 34.6485,-14.3418 0.9375,-0.023 1.8704,-0.026 2.7968,-0.012 z m -80.1543,15.4649 c 4.6687,0 10.4825,1.8906 17.3575,5.6718 0.2014,0.094 0.3838,0.1707 0.582,0.2618 l 0.9219,26.3769 c -21.4601,-1.1294 -32.5157,-5.0011 -32.5157,-11.6387 0,-13.7813 4.7415,-20.6719 13.6543,-20.6718 z m 63.7266,85.2597 c 0.284,0 0.5742,0.016 0.8711,0.039 4.7499,0.375 11.25,3.375 22.75,9.375 15,9 18.998,21.9961 18.998,64.9962 0,59 -7.998,65.9962 -67.998,60.9961 -44.0001,-3.9999 -49.9941,-12.002 -53.9941,-71.0021 l -3.002,-49.9942 h 32.0059 c 2.6536,-0.1474 5.2644,-0.3509 7.8359,-0.582 l 3.1035,88.8849 24.9844,-0.8711 -3.2227,-92.295 c 2.9508,-0.9505 5.1587,-2.0005 6.293,-3.1348 4.2188,-4.2188 7.1155,-6.4577 11.375,-6.4121 z m 982.0293,15.4785 c 40.7716,11.855 89.1215,25.7255 120.5957,34.9375 41,12 116,39.9962 165,60.9962 50,22 110,49.0039 135,59.0039 25,11 56.9961,25.9982 71.9961,33.9981 14,8 30.998,15 37.998,15 6.9502,0 28.6966,12.8206 49.5606,29.6425 l -25.2578,43.7461 c -5.0567,-2.6175 -10.2162,-5.4311 -15.293,-8.3926 -24,-14.0001 -51.0039,-26.996 -59.0039,-30.996 -8,-3 -26.998,-12.0098 -41.998,-20.0098 -30,-16 -64.0079,-17.9961 -73.0079,-4.9961 -3,5 7.002,15.9942 22.002,23.9941 189.9068,95.9324 385.5475,211.9897 440.6211,259.9941 l -37.9082,52.1757 c -5.4852,-3.8421 -10.8322,-7.3353 -15.7149,-10.1621 -18,-11.0001 -64.9902,-39.0039 -103.9902,-63.0039 -114.9999,-69.9998 -279.0098,-151.992 -305.0098,-151.992 -31,0 -31.9921,17 -1.9921,30 12,6 29.002,14 37.0019,19 8.0001,4.9999 22.0001,12 30,15 8.0001,4 32.9902,16.9959 54.9902,30.996 22,12.9999 47.002,24.004 56.002,25.004 9,0 18.9981,7.0001 22.998,15 3,7.9999 11.9982,14.9999 18.9981,14.9999 16.1122,0 127.4119,69.1381 179.8633,112.1191 l -18.7305,25.7793 c -17.8334,-11.2344 -45.1254,-29.1046 -75.1309,-48.9082 -99,-67.9999 -256.9902,-150.9901 -388.9902,-204.9901 -46.9999,-20 -93.0079,-40.0001 -103.0078,-45 -11.0001,-6 -72.998,-28.0098 -138.998,-50.0098 -40.3612,-13.4537 -72.6159,-22.713 -97.1934,-27.8906 z m -1234.6504,15.7813 c 13.7457,0.1008 17.5645,3.584 22.252,10.1464 4,7 12.9961,33.008 19.9961,58.008 15,57 9.9961,61 -93.0039,79 -161,28 -375.9961,84.9979 -435.9961,116.998 -14,7.9999 -31.9981,14.002 -37.9981,14.002 -6.9999,0 -70.998,24.9902 -142.998,54.9902 -102,43 -133.0079,53.0078 -144.0078,43.0078 -28.0001,-23 -10.0059,-51.0059 49.9941,-81.0059 40.0001,-20 57.0117,-34.0019 57.0117,-48.0019 0,-11 -7.0098,-19 -16.0098,-19 -18.9999,0 -13.998,-21 7.002,-30 l 36.0059,-17.9883 c 31.0001,-16 129.998,-49.0117 172.998,-57.0117 6.0896,-1.282 12.3422,-2.8851 18.25,-4.586 l 24.0254,96.3594 24.2578,-6.0469 -24.6426,-98.8378 c 1.3183,-0.6778 2.3938,-1.3162 3.1094,-1.8887 4.8785,-3.5947 25.644,-10.8272 55.0918,-19.7774 l 22.4082,89.877 24.2578,-6.0469 -22.6758,-90.9453 c 88.2893,-25.6327 224.997,-59.9646 279.9219,-68.1017 53.5,-8.5 81.7402,-12.75 97.8652,-13.125 1.0079,-0.023 1.9684,-0.032 2.8848,-0.025 z m 1927.252,19.1562 c 0.6135,0 1.2531,0.2081 1.9062,0.5664 l -52.6816,91.2482 c -3.8008,-1.8012 -6.7121,-2.8262 -8.2285,-2.8262 -6,0 -15.998,-7 -22.9981,-15 -10.9999,-13 -9.0098,-19.9902 9.9902,-39.9902 12,-13.0001 32.004,-26.0079 44.004,-28.008 11,-2 24.0078,-4.9902 28.0078,-5.9902 z m 16.5195,25.2579 c 7.9226,10.4268 27.0303,24.9261 47.4805,34.7422 24,13 51.9961,31 60.9961,41 15,17 13.998,19.994 -11.002,42.9941 -31.0001,29 -48.0059,31.004 -66.0059,10.004 -7,-7.9999 -17.0018,-15 -22.0019,-15 -4.9999,0 -23.9961,-11.004 -41.9961,-25.004 -4.3638,-3.394 -8.8431,-6.6052 -13.1992,-9.5332 z m 316.9316,164.418 -16.875,23.2265 c -2.3067,-5.8896 1.6585,-10.1699 10.4219,-17.9023 2.0881,-1.8793 4.264,-3.6641 6.4531,-5.3242 z m -3022.3711,9.5293 c 9.707,0.031 17.2501,3.8222 14.9063,11.791 -3,7 -12.9941,14.9922 -23.9941,16.9922 -10,2 -22.996,9.0058 -26.9961,17.0058 -10,18.0001 -60.006,18.9961 -55.0059,0.9961 3,-6 15.0039,-14 29.0039,-15 13,-2 27.9923,-10.0019 31.9922,-18.0019 5.0001,-8.5 17.5001,-13.2403 28.125,-13.7402 0.6641,-0.031 1.3216,-0.045 1.9687,-0.043 z m 2596.7813,14.2539 c 13.12,9.0817 24.0709,15.5391 28.125,15.5391 9,0 42.0137,19.996 203.0137,124.996 16.3789,10.5981 34.5527,22.3098 51.1777,32.8809 l -25.541,35.1563 c -4.5641,-2.9929 -8.8054,-5.6946 -12.6445,-8.0372 -130,-78 -230.002,-140.9941 -232.002,-147.9941 -2.0001,-4 -8.9961,-7.0019 -15.9961,-7.0019 -3.1393,0 -10.1151,-2.2258 -19.0019,-5.9297 z m -3007.1758,33.875 68.6582,118.9199 c -15.7712,3.4909 -46.4377,22.0428 -103.3476,59.7363 -97.6665,66.0518 -147.8197,100.216 -174.4414,119.6191 l -72.3633,-107.2832 c 3.34,-2.7598 6.3252,-5.2448 8.7968,-7.3262 45,-37.9999 219.002,-156.0077 262.002,-178.0077 3.394,-1.697 7.0021,-3.6084 10.6953,-5.6582 z m 278.0235,122.5527 c 0.8768,-0.01 1.7236,0.012 2.5371,0.059 11.3887,0.6562 16.7421,6.6719 16.7421,18.0469 0,23 -7.998,29 -93.998,74.9999 -69,37.9999 -91.994,36.9999 -83.9941,0 4.0001,-21 122.9902,-93.0019 155.9902,-93.0019 0.9375,-0.063 1.8456,-0.096 2.7227,-0.1035 z m 3032.6621,30.3477 c 9.002,5.6129 16.9231,10.4598 22.623,13.7597 37.0566,22.0958 90.1297,63.609 149.8555,115.168 l -30.2129,36.0078 c -57.5031,-47.2101 -122.697,-97.3147 -168.3008,-129.0997 z m -3611.6192,53.9803 71.9492,106.672 c -5.8183,4.9241 -8.7521,8.1702 -10.7089,11.1054 -5.0001,7 -31.9922,32.004 -61.9922,55.004 -126,98 -325.0098,305.0022 -455.0098,472.0021 -25,32 -46,49.9961 -60,49.9961 -20,-1 -86.0019,-52.002 -86.0019,-67.002 0,-12 83.0078,-118.9921 163.0078,-211.9921 95.9999,-110.0002 274.9921,-286.0041 361.9921,-355.0042 25.5801,-19.6771 54.4585,-42.6873 76.7637,-60.7813 z m 3555.0078,23.9395 c 8.71,6.475 16.4521,10.8398 20.2305,10.8398 12.9999,0 98.0099,63.9981 144.0098,108.9981 1.2152,1.2153 2.5185,2.495 3.8886,3.8223 l -45.5879,54.3281 c -20.5305,-16.8484 -40.0631,-32.046 -54.3066,-42.1543 -31,-22 -68.002,-50.9941 -82.0019,-64.9941 -6.0372,-5.6059 -14.3099,-12.7001 -23.2872,-19.8379 z m -3198.7519,21.0117 c 10.7911,0.06 21.041,1.8867 24.9785,5.8242 17.0001,17.0001 -18.9863,48.0039 -186.9863,164.004 -4.2035,2.9241 -8.317,5.8938 -12.9004,9.373 l -29.9239,-44.3652 c 15.9574,-13.552 58.7322,-44.6365 96.8184,-71.0039 39,-26 72.9961,-51.002 75.9961,-56.002 3,-4.5 15.002,-7.2482 27.377,-7.7481 1.5468,-0.062 3.099,-0.091 4.6406,-0.082 z m 3446.7012,46.4141 c 196.0842,172.1153 451.0066,438.2206 455.2128,489.1741 l -33.1816,27.8418 c -6.0172,-8.2389 -13.5979,-17.5981 -21.7422,-26.5996 -18.9999,-20 -43.0078,-57.0021 -54.0078,-82.002 -11,-25 -23.9902,-45 -28.9902,-45 -5,0 -29.9999,-21.0039 -56,-48.0039 -129,-131.0002 -160.0039,-162.0002 -228.0039,-225.0002 -17.6078,-16.1991 -39.3759,-35.0562 -63.1036,-54.877 z m -312.584,21.5371 c 15.783,12.5799 29.6144,21.8809 32.8632,21.8809 22,0 265.0059,216.9983 265.0059,236.9983 0,17 -25,4.996 -60,-29.004 -14,-13 -54,-45.9943 -90,-72.9943 -66,-49.9999 -108.002,-86.0077 -142.0019,-118.0078 -9.0457,-8.141 -18.0712,-15.4353 -21.9356,-16.7578 z m 251.1074,51.7266 c 21.2781,19.1688 48.765,42.4197 70.7558,60.1543 45,36 56.0079,49.9902 54.0079,69.9902 -2,18.0001 -10.0079,26.008 -28.0079,28.008 -19,2 -40.996,-13.0001 -90.996,-60.0001 -14.7398,-13.9431 -32.4981,-29.6245 -50.4864,-44.8477 z m -3608.8262,32.041 29.0938,43.1328 c -21.4917,17.7744 -55.471,47.3177 -122.5098,105.9768 -42,37 -86.9902,78.0039 -99.9902,93.0039 -24.9999,27 -71.002,35.9923 -71.002,12.9922 1.0001,-15.9999 103.9902,-124.9922 159.9902,-166.9924 38.6161,-29.6356 55.7554,-44.2195 104.418,-88.1133 z m 3789.2285,167.8967 c 0.5986,-0.012 1.2093,-5e-4 1.8282,0.022 18.567,0.7939 46.7286,19.3808 81.5332,54.1855 48,48 52.9921,57 42.9921,75 -6,12 -18.9882,21.0059 -28.9882,21.0059 -24.9999,0 -125.0118,-114.9999 -117.0118,-135 3.4375,-9.375 9.5097,-14.3482 17.8848,-15.1172 0.5759,-0.053 1.1632,-0.084 1.7617,-0.096 z m -1743.6367,40.2168 c -6,0 -72,57.9902 -146,129.9902 -74,71 -139.0019,130.0059 -146.0019,130.0059 -7,0 -70.9981,-59.0059 -142.9981,-130.0059 -72.9999,-72 -138,-128.9941 -146,-128.9941 -8,1 -22.0079,3.0059 -32.0078,6.0059 -11.0001,3 -17.0001,11.9981 -15,22.998 3.9999,25.0001 315.0098,339.9902 335.0098,339.9902 18,0 324.9921,-304.9921 335.9922,-331.9921 6,-17 -16.9941,-37.9981 -42.9942,-37.9981 z m 1677.4336,30.1641 c 0.3229,0 0.6572,0.023 1,0.057 9.1406,0.8984 25.3165,12.1426 46.5664,32.7676 45,44 86.0001,105.0019 75,112.0019 -12.9999,8 -130.0039,-114 -130.0039,-135 0,-6.6796 2.5941,-9.8944 7.4375,-9.8261 z m -1419.4453,29.8359 c -15,0 -105.9863,83.996 -280.9863,259.9961 -142,143 -264.0039,259.9941 -269.0039,259.9941 -6,0 -127.0039,-115.9882 -269.0039,-257.9882 -143,-141 -267.0021,-258.0136 -277.002,-259.0137 -9,-1.9999 -24.998,2.0137 -33.998,8.0137 -10.0001,5 -18.004,15.994 -18.004,23.9941 0,18 580.004,595.0039 599.004,595.0039 14,0 586.0058,-564.0059 595.0058,-587.0059 7,-17 -21.0116,-42.9941 -46.0117,-42.9941 z m -3362.19736,1.0117 c 1.4531,-0.078 3.2012,0.2308 5.2012,0.9805 7,2.0001 15.0059,10.0077 17.0059,17.0078 3,7.9999 -1.0078,11.9941 -9.0078,8.9941 -7,-2 -14.9921,-9.9921 -16.9922,-16.9921 -2.25,-6 -0.5666,-9.7559 3.7929,-9.9903 z m 5400.74616,59.459 c 0.3168,0 0.6441,0.012 0.9824,0.043 0.7735,0.068 1.6016,0.2339 2.4766,0.4844 6,3 11,7.996 11,11.996 -1.0001,12 -14.9979,9.002 -18.998,-3.998 -2.461,-4.9219 -0.2125,-8.5026 4.539,-8.5254 z m -351.0332,27.918 c 8.8255,0.138 14.4863,3.4179 14.4863,10.6054 0,4 20.004,29.0059 44.004,55.0059 l 44.0039,46.9922 -32.0059,16.0098 c -18,8 -38,27.9903 -45,43.9902 -20,46.0001 -38.9941,38.0059 -102.9941,-42.9941 -21,-25 -37.9981,-49.002 -37.9981,-52.002 0,-2.9999 16.9981,-21 37.9981,-41 23.375,-22 58.0893,-36.9108 77.5058,-36.6074 z m -3026.5137,1.6113 c -2,1 -15.996,7.9961 -30.996,15.9961 -16.0001,8 -27.9942,19.998 -27.9942,26.998 0,7 147.9903,158.9982 328.9902,337.9981 239.0001,237 331.0098,334.0001 335.0098,356 10,43 166.9921,197.0098 192.9922,189.0098 27.9999,-9 172.998,-171.0079 172.998,-193.0079 0,-11 136.0099,-154.998 335.0098,-352.998 317.0001,-317 332.9883,-334.998 317.9883,-352.998 -9.9999,-10 -26.9902,-17 -39.9902,-15 -14,2 -151.9961,131.9941 -371.9961,349.9941 -375.9999,373 -371.0137,369.9979 -458.0137,352.998 -33,-6 -85.998,-53.996 -393.9981,-360.9961 -195.9999,-195 -357.9999,-353.9941 -360,-353.9941 z m -1414.5585,5.4531 c 0.4943,-0.017 0.9733,-0.01 1.4375,0.025 3.4277,0.258 5.9941,1.961 7.1191,5.5235 4.0001,11 -72.9883,77.998 -77.9883,67.998 -4,-5 0.9942,-12 8.9942,-15 9,-3 15.996,-10.0001 15.996,-15 0,-18.1035 29.1176,-43.0228 44.4415,-43.5469 z m 4582.9023,46.7168 c 1.1499,1.8906 2.3788,3.5487 3.6582,4.8282 6,6 8.0098,16.0019 5.0098,22.0019 -9.9999,15 -36.0059,13.9922 -36.0059,-2.0078 0,-0.4525 -0.101,-1.0128 -0.2773,-1.6504 z m -5066.1173,10.6914 c 21.984,0.7789 47.0293,25.3868 69.7793,69.1368 18,36 48.9942,54.9921 68.9943,42.9921 18,-11 21.0097,20.002 5.0097,56.002 -9,18 -45.0098,79.0039 -80.0098,134.0039 -36,54.9999 -69.9922,110.9941 -76.9922,124.9941 -0.3859,0.9004 -1.1806,2.6794 -1.7832,4.045 L 833.41274,2584.6036 c 17.4245,-5.004 43.7355,-33.6384 60.9805,-67.2207 40,-78.9999 144.00206,-231.9922 161.00196,-237.9922 3,-0.875 6.0782,-1.2499 9.2187,-1.1387 z m 1661.7716,57.1387 c -10.9999,0 -27.9941,8.9922 -38.9941,20.9922 -18,20.0001 -15.9961,22.0019 299.0039,337.0019 239,238 316.0019,319.9981 311.0019,333.9981 -4,13 50.9982,73.0078 217.9981,238.0078 123,121.0001 229,219.9902 236,219.9902 7,0 111.9979,-98.0019 232.998,-217.0019 169.9999,-169 219.002,-223 217.002,-240 -2,-16.9999 65.9903,-89.9883 309.9902,-332.9883 171,-171 312.0117,-315.998 312.0117,-322.998 0,-19 -21.004,-37.002 -44.0039,-37.002 -13.0001,0 -133.996,113.9901 -345.9961,324.9902 -180,179 -334.0039,325.0059 -344.0039,325.0059 -9,0 -85.9941,65.004 -169.9941,145.0039 -84.9999,80 -162.0136,144.9902 -173.0137,144.9902 -9.9999,0 -75.9882,-57.9962 -152.9883,-135.9961 -78.9999,-80 -150.998,-142.9921 -172.998,-151.9921 -24,-11 -149,-129.0097 -356,-335.0098 -204.9999,-204.9999 -325.0136,-316.9922 -338.0137,-316.9922 z m 2256.0059,129.9902 c -8,0 -153.0021,139.0059 -322.002,310.0059 -238,240 -314.002,310.0039 -333.002,310.0039 -33,0 -425.9921,393.9883 -421.9921,422.9883 3,17 31,32.0098 101,54.0098 25,8 427.0019,-391.0039 427.0019,-423.004 0,-15 93,-115.0019 300,-322.0019 165,-165 300,-303.9941 300,-308.9941 0,-14 -34.0058,-43.0079 -51.0058,-43.0079 z m -2469.9161,1.8614 c -9.4746,0.1913 -20.9609,4.0254 -27.0859,10.1504 -6,6 -11.9961,18.998 -11.9961,26.998 0,9 135,150.9961 300,315.9961 213,214 300,306.998 300,322.998 0,29 387.9999,422.0059 416,422.0059 10.9999,0 29.0059,-6.0039 40.0059,-14.0039 11.0001,-8 30.9882,-16.002 43.9882,-18.002 56,-7 37.0098,-34.9999 -170.9902,-244 -151,-150.9999 -210.0078,-203.9941 -227.0078,-203.9941 -18,0 -101.002,-76.998 -333.002,-307.998 -170,-169.0001 -317.0019,-308.0039 -326.0019,-310.0039 -1.2499,-0.1253 -2.5566,-0.1742 -3.9102,-0.1465 z m -182.7343,148.2383 c -0.212,0 -0.4064,0.022 -0.5918,0.062 -0.8476,0.1839 -1.5039,0.7246 -2.7539,0.8497 -4,0 -16.0039,7.9882 -25.0039,17.9882 -10.0001,10 -18.004,23.0039 -18.004,29.0039 0,6 132.0098,142.9942 294.0098,304.9942 213,213 295,301.0137 300,323.0137 5,21 59.9942,82.9961 188.9942,210.9961 99.9999,99 189.0019,182.9902 198.0019,185.9902 19,6 92.9942,-43.9941 102.9941,-68.9942 9,-22.9999 -357,-388.9999 -405,-405 -23,-7.9999 -121.9882,-98.998 -317.9882,-292.998 -284.8125,-282.2695 -308.0873,-305.8748 -314.6582,-305.9062 z m 2848.8379,7.2832 c -10.6251,-0.01 -22.8183,10 -52.1934,35.625 -25.9999,23 -161.9962,155.9902 -300.9961,294.9902 -178,178 -261,254.0039 -281,258.0039 -19,4.0001 -88.002,64.998 -221.002,198.998 -156,157 -190.9902,196.0039 -185.9902,213.0039 9,26 80.9903,73.0058 99.9902,66.0059 9,-3 99.0059,-89.0019 201.0059,-191.0019 124,-124 184.9941,-192.9961 184.9941,-206.9961 0,-14 95,-116.006 300,-321.0059 165,-165 300,-305.002 300,-311.002 0,-7 -10.9941,-18.996 -23.9941,-26.996 -8.625,-6 -14.4394,-9.6192 -20.8144,-9.625 z m 779.6035,14.2382 c -7.9433,-0.068 -18.6601,5.5137 -24.7852,13.3887 -15,18 -11.0078,27.002 50.9922,131.002 54,90 143.0079,268.998 174.0078,348.998 14.0001,38 31.9902,86 39.9902,105 7,19 21.0119,60 31.0118,90 9,30 21.9882,71 28.9882,90 8,19 21,68.9961 30,109.9961 9,41.0001 23.0118,103.0058 31.0118,137.0059 8.0001,34 13.9882,81 13.9882,105 0,22.9999 7,67.998 15,97.998 9,34 15,101.002 15,176.002 0,95 3,123.9881 15,133.9882 21,16.9999 43.0059,6.0039 51.0059,-26.9961 7.9999,-31 -13,-332.0039 -26,-378.0039 -8,-27 -16.0059,-75.9902 -40.0059,-219.9902 -8,-52 -50.996,-194.0078 -75.996,-253.0078 -8,-18 -14.004,-36.9922 -14.004,-42.9922 0,-6 -5.9881,-24.9981 -13.9882,-41.998 -8,-18 -24.0059,-61.002 -36.0059,-97.002 -42,-127 -231.002,-472.0078 -262.0019,-478.0078 -1.0001,-0.2497 -2.0742,-0.3711 -3.209,-0.3809 z m -3800.7852,148.3887 c -6,0 -17.998,7.9883 -26.998,17.9883 -10,10.0001 -17.0059,24.0116 -17.0059,31.0117 0,7 136.9941,148.9922 304.9941,316.9922 215,216 302.0079,309.0098 298.0079,320.0098 -4,11 51.9979,74 187.998,210 106.9999,107 199.002,193.9882 206.002,193.9882 17,0 72.9921,-74.998 72.9921,-97.998 0,-28 -364.9882,-391.9922 -392.9882,-391.9922 -15,0 -117.0019,-95 -322.002,-300 -165,-165 -306,-300 -311,-300 z m 3185.9902,0 c -5,0 -142.998,135 -307.998,300 -218.0001,219 -305.002,300 -322.002,300 -32,0 -390,355.9902 -390,388.9902 0,25 55.0079,101 73.0079,101 7,0 98.002,-85.9902 202.0019,-189.9902 144,-144 189.002,-195.0098 187.002,-211.0098 -3,-16 65.9902,-90.996 294.9902,-319.9961 164,-165 298.9962,-308.0018 300.9961,-318.0019 3,-18 -20.9981,-50.9922 -37.9981,-50.9922 z m 1331.9395,64.0723 c 2.5,0.1095 5.3204,2.1797 8.0703,6.9297 5.0001,6 5.9883,18.9961 2.9883,26.9961 -4.9999,12 -6.9999,11.9942 -15,-2.0059 -8.25,-15 -3.5586,-32.248 3.9414,-31.9199 z m -4674.9316,125.9179 c -7,0 -18.006,9.0098 -25.0059,20.0098 -6,11 -11.9961,24.9922 -11.9961,31.9922 0,7 132.9999,145.998 296,307.998 187.9999,187 303.004,309.0039 314.0039,333.0039 19.0001,42 402,437.0059 424,437.0059 8,0 17.9982,-6.0078 22.9981,-13.0078 15,-18.9999 34.9921,-91.9941 31.9921,-109.9941 -6.9999,-31 -390,-406.002 -424,-416.002 -22,-6 -119.998,-97 -322.998,-300 -161.0001,-160 -297.994,-291.0059 -304.9941,-291.0059 z m 3505.0039,0 c -9,0 -151.0059,135 -317.0059,300 -216,214.9999 -306.994,300 -323.9941,300 -15,0 -81.0079,59.0098 -223.0078,200.0098 -184.0001,182 -200.0001,201.9922 -195,226.9922 10.9999,54 37.0039,103.0078 55.0039,103.0078 27,0 418.0019,-399 427.0019,-435 4.0001,-22 88.9922,-112.0078 305.9922,-328.0078 178,-177.9999 299.0039,-305.9922 299.0039,-316.9922 0,-30 -10.9941,-50.0098 -27.9941,-50.0098 z m -3642.0118,210 c -10,0 -20.9941,7.0118 -23.9941,16.0118 -3,9 -6.0059,22.9921 -6.0059,31.9921 0,10 140.002,156.9961 311.002,326.9961 247,247 315.998,320.0118 333.998,361.0118 18,38 56.004,81.9882 164.004,182.9882 78,74 141.0058,139.0039 141.0058,145.0039 0,6 -70.0098,80.004 -155.0098,164.004 -109,107 -153.9921,158.002 -151.9921,172.0019 1,14 -90.0059,111.9902 -321.0059,343.9902 -289,290 -322.9941,327.0118 -319.9941,353.0118 2,21 8.9961,28.996 26.9961,30.9961 19,3 76.0019,-49.0039 326.0019,-299.004 197,-196.9999 312.9961,-306 330.9961,-311 38,-10 453.998,-425.0039 453.998,-453.0039 0,-27 -419.992,-444.9902 -447.9921,-444.9902 -13,0 -130.0079,-110.0038 -332.0079,-310.0039 -178,-177.9999 -319,-310.0059 -330,-310.0059 z m 3771.0059,0 c -8,0 -153.0019,138.002 -322.0019,307.002 -195,195 -315.9961,309.0019 -330.9961,311.0019 -26,4 -457.9981,428 -457.9981,450 0,7 98.9902,111.0021 219.9902,232.002 151,152.0001 226.0118,220.0039 241.0118,220.0039 15,0 113.9961,91.9961 326.9961,304.9961 167,168 311.9921,304.9941 320.9921,304.9941 22,0 41,-18.9902 41,-39.9902 0,-9 -145.9901,-162.0001 -324.9902,-341 -252,-251 -325.0039,-329.9999 -325.0039,-349 0,-19 -37,-62.0077 -150,-174.0078 -82,-81.9999 -150,-155.002 -150,-161.002 0,-7 68,-79 150,-161 105,-103 150,-153.996 150,-169.9961 0,-15.9999 91.0039,-112.996 325.0039,-345.996 214.0001,-213 324.9902,-330.0039 324.9902,-344.004 0,-22.9999 -17.9941,-44.0039 -38.9941,-44.0039 z m 974.7441,15.5821 c 2.5876,6.2176 5.8252,11.4211 9.25,14.4179 8,7 15,20.0039 15,29.0039 0,9 6.004,35.9961 14.004,60.9961 23,73.9999 45.996,176.0078 45.996,208.0079 0,4.5235 0.5752,10.1865 1.5586,16.3828 l -101.75,21.6269 c -1.9286,-8.5312 -3.8944,-15.7644 -5.8046,-21.0176 -17,-45 -21.004,-118.9921 -10.004,-151.9921 6,-17.0001 2.0119,-27.9961 -17.9882,-45.9961 -14,-13.0001 -29.0078,-39.0078 -32.0078,-58.0079 -1.6092,-9.3869 -5.4865,-23.7233 -10.4551,-39.8632 z m -5553.7422,154.4277 c 18,0 27.9922,5 27.9922,15 0,17 -32.9903,117.9942 -50.9903,158.9941 -7,14.0001 -18.0057,26.002 -25.0058,26.002 -17.99996,0 -33.99416,-31.9961 -23.99416,-49.9961 4,-8 9.9903,-34.0117 13.9903,-57.0117 9.99986,-69 25.00776,-92.9883 58.00776,-92.9883 z m 75.8984,31.8731 c 0.3457,0 0.696,0.01 1.0488,0.031 1.6133,0.1058 3.3047,0.459 5.0547,1.084 6,2 9.9982,22.0078 7.9981,43.0078 -1.9999,21 -8.0039,45.002 -14.0039,52.002 -6,6.9999 -13.9922,29 -16.9922,49 -3,20 -10.0117,36.0018 -16.0117,37.0019 -17.0001,1.9999 -16.9961,-64.0099 -0.9961,-99.0098 9,-18 15.9961,-42.0018 15.9961,-52.0019 0,-19.4961 7.1898,-31.0813 17.9062,-31.1152 z m 620.0919,28.1269 c -9.9999,0 -21.9922,8.9999 -27.9922,19 -5,10.9999 -10.0059,24.9922 -10.0059,31.9922 0,6 159.0098,170.002 354.0098,363.0019 331,328.0001 354.9961,354.004 360.9961,393.004 4,24 2,57 -4,75 -8,23 -119.996,141.998 -360.9961,382.998 -192,192 -350.0098,357.0059 -350.0098,366.0059 0,9 9.0099,23.998 20.0098,33.998 25.0001,22.0001 -16.0039,58.9981 375.9961,-333.0019 235,-235 319.002,-311.9981 337.002,-311.9981 31,0 203.0019,-173.0116 191.0019,-192.0117 -5,-7 -41.0019,-46.9883 -82.0019,-88.9883 -51,-53 -82.9999,-78.998 -105,-82.998 -25,-5 -104.9981,-79.0118 -356.9981,-331.0118 -178.9999,-179 -333.0117,-324.9902 -342.0117,-324.9902 z m 3995.0098,0 c -8,0 -161.0079,145.002 -339.0079,322.002 -204.9999,205 -333.9941,327 -353.9941,334 -35,12 -190.0059,160.9882 -190.0059,182.9882 0,7 37.002,51.002 82.002,97.002 60,62 89.0078,84.0078 107.0078,84.0078 20,0 96.9922,70.9922 357.9922,331.9922 327.9999,328 332.998,331.0078 352.998,313.0078 11,-10 20.0098,-26.998 20.0098,-37.998 0,-12 -127.0058,-146.0079 -351.0058,-369.0079 -374,-372 -374.9922,-373.9999 -361.9922,-454 5,-28.9999 61.994,-90.0019 353.9941,-382.0019 192,-191 352.0059,-354.9981 355.0059,-363.9981 7,-23 -13.0039,-57.9941 -33.0039,-57.9941 z m -4990.69157,50.4141 16,5.8242 c -2.02774,3.8805 -6.44248,2.1887 -16,-5.8242 z m -10.31445,29.582 c 5,0 8.00596,17.002 6.00586,37.002 -3,42 -28.00781,58.9941 -28.00781,19.9941 0,-32 9.00195,-56.9961 22.00195,-56.9961 z m 5954.87902,58.8105 c 2.3734,8.7204 5.1766,17.1989 8.1191,24.1875 9,21 15,67.0059 15,107.0059 0,11.8513 0.4698,23.9694 1.3106,35.4473 l -107.9648,7.5488 c -3.3222,-17.9765 -6.8959,-45.2196 -9.3458,-74.0059 -1.6685,-25.5843 -5.1939,-54.2482 -9.3691,-78.4492 z m -5719.41406,55.9786 c 4.3254,-0.1137 8.9746,2.4043 15.5371,7.2168 17.99996,13 18.00576,16.9881 2.0058,92.9882 -4.4111,21.011 -8.6301,44.9348 -12.625,71.0313 l -58.1308,-8.1699 c 8.9728,-81.7053 20.8738,-132.0117 34.75,-148.8614 7.875,-9.5625 12.9016,-14.0589 18.4629,-14.205 z m 89.07806,22.0156 c 15.441,-0.3072 14.9667,53.6914 -0.5332,100.1914 -9,26 -16.0117,67.0077 -16.0117,92.0078 -1.0001,24.9999 -6,65.9962 -11,90.9961 -18,74.0001 -28,374.9941 -19,529.9941 9,159 22.9999,271.0059 45,370.0059 7.9999,36 18.0019,87.0039 22.0019,115.0039 1.4131,11.103 3.4449,22.4038 5.875,33.3789 l -181.20896,45.1797 c -3.1543,0.4989 -6.1588,1.219 -8.8808,2.2148 l -24.7168,6.1622 c -5.155,-7.3687 -10.6849,-25.6238 -21.0625,-61.9454 -51,-180 -84.99815,-753.9902 -56.9981,-954.9902 5,-39 8.9902,-92.0077 9.9903,-118.0078 0,-27 5.0116,-57.9902 12.0117,-69.9902 2.5892,-5.1785 5.3607,-15.026 7.7578,-27.1856 l 26.3847,3.709 c -0.2296,5.3513 0.9885,11.7367 3.8555,17.4707 6,11 4.9982,29.0058 -3.0019,51.0059 -9,24 -11.9981,130.9902 -11.9981,384.9902 0,325 0.9883,354.0059 17.9883,370.0059 15,16 19.0078,16.0019 28.0078,3.0019 5,-7.9999 7.9961,-31.0098 4.9961,-50.0098 -21,-152 -12,-568.9903 15,-710.9902 3.7974,-18.987 7.589,-39.9425 10.1211,-56.3437 l 57.6328,8.0996 c -28.1349,200.1122 -43.474,506.5111 -30.7519,653.2382 10,103.0001 24.0019,148.0059 37.0019,115.0059 3,-8.0001 5.9981,-154.0059 7.9981,-325.0059 1,-211.9999 6.00776,-315.0039 13.00776,-325.0039 6,-8 11.9922,-47.9902 12.9922,-88.9902 1.0001,-44 6.9961,-83.0058 15.9961,-96.0059 6.9999,-12 15.0079,-40.0019 17.0078,-63.0019 2.0001,-22.9999 7.9921,-41.9903 12.9922,-43.9902 0.5312,-0.125 1.0468,-0.1913 1.5449,-0.2012 z m 592.4649,23.1992 c -2,0 -10.0079,8.996 -17.0078,19.9961 -27,44 -16.9922,57.9961 238.0078,311.9961 138,137 249.9902,257.0019 249.9902,266.0019 0,10 -111.9902,129.9961 -249.9902,266.9961 -166.9999,166 -250.0039,256 -250.0039,270 1,21 25.9981,62.0097 33.9981,54.0098 103,-96 585.996,-585.998 585.996,-592.998 0,-10 -579.9902,-596.002 -590.9902,-596.002 z m 4181.5469,13.5313 c -18.3313,0.4442 -74.6095,54.377 -298.5547,277.4609 -160,161.0001 -292.002,298.998 -292.002,307.998 0,18 570.004,591.0059 588.004,591.0059 15,0 26.0018,-42.9941 18.0019,-72.9941 -3,-12 -116,-132 -251,-266 -135,-134 -244.9961,-249 -244.9961,-255 0,-6 112.9902,-124.0059 249.9902,-261.0059 260,-260.0001 270.0118,-274.0038 237.0118,-318.0039 -1.375,-2 -3.1192,-3.2625 -5.6094,-3.4414 -0.2724,-0.02 -0.5547,-0.026 -0.8457,-0.02 z m 883.3281,76.7968 c 2.0876,15.111 4.8904,27.1117 8.127,32.6602 8,14 13,76.0019 15,161.0019 0.4091,17.1823 0.8033,32.1567 1.2207,45.5371 l -119.8262,4.1836 c -1.4153,-120.2784 -4.5034,-216.4212 -8.3047,-236.125 z M 537.39709,3875.3809 c -20,0 -21.00781,8.0079 -32.00781,152.0079 -15,194 -16.00196,183.9921 7.99804,207.9921 22,22 74.00196,27.0098 86.00196,9.0098 3,-6 8.00391,-52.0078 10.00391,-103.0078 2,-49.9999 5.99414,-120.9981 8.99414,-157.9981 l 6.00586,-67.998 -33.00196,-19.9961 c -17.99999,-10.9999 -41.99414,-20.0098 -53.99414,-20.0098 z m 1066.99231,60 c -4,0 -12.0001,5.0118 -19,12.0118 -7,7 -11.9961,24.9979 -11.9961,41.998 0,24 19.9941,48.9902 109.9941,140.9902 61,61 110.0098,116.0118 110.0098,121.0118 0,6 -49.0098,60.9921 -110.0098,121.9921 -89,90 -109.9941,117.0059 -109.9941,141.0059 0,15.9999 6.9961,33.9961 15.9961,41.9961 14,11 35,-7.0059 165,-137.0059 82,-83 149.0039,-157 149.0039,-165 0,-14 -285.0039,-319 -299.0039,-319 z m 4303.1543,12.7012 c -19.7067,-0.4133 -58.7109,36.8692 -157.1484,135.3067 -82.9999,83 -146.9981,154.9961 -146.9981,165.996 0,26.0001 63.002,98.002 191.002,217.002 105,97 111.994,101.9941 124.9941,83.9941 7.9999,-10.0001 14.0039,-27.998 14.0039,-37.998 0,-11 -49.0039,-68.9922 -115.0039,-136.9922 -63,-65 -115.0059,-121.0098 -115.0059,-125.0098 0,-5 47,-55.0019 105,-112.0019 113,-112 129,-133.996 120,-161.9961 -5.5,-17.5312 -10.5212,-28.0844 -20.8437,-28.3008 z m 844.9883,61.8203 c 2.6866,62.8178 7.221,76.0795 21.8613,91.4903 19.9999,21 21.004,29.9961 14.0039,135.9961 -6.9999,130 -20,212.9941 -41,278.9941 -8,25.0001 -19.0098,74.0098 -24.0098,110.0098 -5,35 -14.998,92.9941 -22.998,128.9941 -14.0001,64 -19.9902,86.9941 -50.9902,184.9941 -9,27 -16.0118,60.0118 -16.0118,72.0118 0,12 -3.9942,23.9942 -8.9941,27.9941 -5,3 -11.996,18.994 -15.9961,34.9941 -9.9999,45 -34.0078,53.0039 -84.0078,29.0039 -22,-10.9999 -41.002,-25.0019 -41.002,-33.0019 0,-7 9.0099,-38.9981 20.0098,-71.9981 39,-112.9999 89.9902,-344.998 114.9902,-528.998 12,-93 16.004,-189.0059 14.004,-415.0059 -0.086,-13.9907 -0.2042,-27.7084 -0.334,-41.2714 z m -3759.1348,385.4844 c -3,0 -95,90.998 -206,202.998 -134,135 -203.0078,212.0058 -208.0078,231.0059 -5,19.9999 -87.9902,109 -264.9902,285 -354,351.9999 -357.0079,355 -343.0078,386 6,14 19.0039,24.9902 29.0039,24.9902 10.0001,0 153.0019,-135 318.0019,-300 192,-192 307.9922,-300 320.9922,-300 23,0 214.998,-179 337.998,-315 l 85.004,-92.9882 -21.0059,-54.0079 c -18,-47 -31.9882,-67.998 -47.9883,-67.998 z m 1505.9922,0 c -9,0 -22.9922,17.002 -31.9922,37.002 -38,91 -46.0019,78.0039 172.9981,295.0039 139.0001,138 206,197.9882 221,197.9882 16,0 107.9921,86.0058 316.9921,295.0059 162,162 304,298.9941 315,304.9941 15,8 21,6.0079 30,-8.9921 5,-11.0001 10.0059,-27.0079 10.0059,-36.0079 0,-10 -133.998,-150.9961 -296.998,-315.9961 -200,-199.9999 -300.998,-309 -307.9981,-330 -10.9999,-36 -405.0078,-438.998 -429.0078,-438.998 z M 528.32873,4477.711 c -9.2505,-0.1065 -16.43945,1.6056 -18.93945,5.668 -4,6 1.00781,82.0137 9.00781,169.0137 17,172 24.99219,191.9961 80.99219,195.9961 28,2 29.00586,1.0018 32.00586,-48.9981 4,-74.0001 -23.00391,-284.0001 -40.00391,-300 -12.375,-12.375 -42.7114,-21.4461 -63.0625,-21.6797 z m 6517.06067,107.6797 c 6,0 8,10.002 4,22.002 -3,13 -6.002,33.9882 -7.002,47.9882 -0.9999,17 -3.9941,12 -8.9941,-15 -8,-42 -6.0039,-54.9902 11.9961,-54.9902 z m -3939.9902,34.9961 -196.0098,195 c -154,153.9999 -195.9961,201.0019 -195.9961,221.002 0,19.9999 -22.998,48.9999 -97.998,120 -52.9999,51.9999 -142.0079,140.998 -197.0079,198.998 -55,57.9999 -145.998,148.0059 -202.998,201.0059 -56.0001,53 -101.9961,102.9902 -101.9961,110.9902 0,16 30.9961,48.0039 45.9961,48.0039 5,0 141.998,-133.0059 303.998,-295.0059 230,-230 300.0099,-294.9902 320.0098,-294.9902 19.0001,0 68.9883,-42.998 212.9883,-187.998 117,-118.0001 187.0019,-195.0118 187.0019,-207.0118 0,-11 -17.9941,-39.9942 -38.9941,-64.9941 z m 1290,3.998 -36.0059,37.002 c -61.0001,63 -58.996,67 149.0039,274 115.0001,115 193.9941,185.998 207.9942,187.998 15,2 129.0059,108.9961 317.0058,296.9961 162,162 301.9902,295.0059 309.9902,295.0059 22,0 40.0059,-19.9942 40.0059,-42.9941 0,-12 -111.998,-132.002 -296.998,-318.002 -184,-183 -298.0079,-305.0078 -298.0079,-317.0078 0,-18 -174.9961,-205.9941 -326.996,-349.9941 z m -168.002,180.9961 c -5,1 -19.9999,10.0078 -34,21.0079 -13.9999,10.9999 -33.0117,26.998 -42.0117,33.998 -9.9999,8 -17.9883,21.9999 -17.9883,30 0,21.9999 372.9922,394.9941 395.9922,394.9941 28,1 36,8 345,315 157,157 292.0078,285 298.0078,285 22,0 50.9902,-20.9902 50.9902,-35.9902 0,-9 -133.9882,-151.0001 -298.9882,-315 -203,-204 -300,-307.998 -304,-326.998 -4,-18 -69.0039,-90.0097 -194.0039,-215.0098 -104,-102.9999 -192.9981,-187.002 -198.9981,-187.002 z m -955.0058,10.0059 c -8,0 -96.9981,82.9941 -198.9981,184.9941 -110,109 -190.9961,199.0059 -199.9961,220.0059 -9,21.9999 -124.0059,143.998 -302.0058,322.998 -159,159 -288.004,294.9981 -288.004,303.9981 0,9 11.0059,23.0078 25.0059,32.0078 l 26,16.9922 296.9981,-296.9981 c 187.9999,-187.9999 310.0059,-302 332.0058,-311 48,-20 399.9902,-370.9942 399.9902,-398.9941 0,-22.0001 -62.996,-74.004 -90.996,-74.0039 z m 232.7832,129.541 c -0.803,-0.01 -1.6136,0.01 -2.4356,0.053 -33.6121,1.8495 -84.1269,49.4687 -234.3457,200.4062 -130,129.9999 -199.0077,205.998 -197.0078,217.998 2.0001,11 -99.9922,120.006 -297.9922,317.0059 -165,165 -300,307.0001 -300,315 0,22.0001 20.0039,39.9902 44.0039,39.9902 12,0 129.9981,-110.9941 322.9981,-304.9941 227,-228 309.9921,-304.9961 327.9921,-304.9961 17,0 78.0001,-54.0117 229,-207.0117 119.0001,-118.9999 206,-214 206,-225 0,-12 -7.0019,-17.9883 -22.0019,-17.9883 -12.9999,0 -31.9961,-7 -41.9961,-15 -12.1289,-9.2285 -22.1699,-15.3321 -34.2148,-15.4629 z m 496.5742,0.1875 c -0.5351,0 -1.0657,0.01 -1.5938,0.027 -11.2656,0.4373 -21.0175,5.9882 -32.7676,14.2382 -11,8 -29.9941,16.0039 -42.9941,18.0039 -14,1 -26.0039,8.9961 -29.0039,15.9961 -2.0001,7 90.0098,107.0119 204.0098,222.0118 166,166.0001 213.9902,210 234.9902,210 20,0 44.9999,19.9921 101,76.9921 41,42.9999 179.0059,181.002 306.0059,307.002 208,206 232.9961,227.9961 255.9961,221.9961 57,-14 36.998,-39.9941 -273.002,-349.9941 -230,-230 -296.9981,-303.004 -292.998,-318.004 3,-14.0001 -43.004,-65.998 -194.004,-217.998 -153.5625,-154.3008 -201.9275,-200.129 -235.6386,-200.2715 z m -252.3594,80.2715 c -13,0 -96,75.9941 -240,218.9941 -165,166 -216.9922,223 -211.9922,236 5,13 -70.0098,93.0118 -309.0098,331.0118 -173,173 -315,317.9979 -315,322.998 0,9 44.0118,41 57.0118,41 4,0 150.9941,-143.998 327.9941,-318.998 192,-192 334.0039,-325.0097 355.0039,-335.0098 19.0001,-7.9999 100.0001,-77.9942 180,-154.9941 79.0001,-78 151.9902,-141.0079 159.9902,-141.0079 9,0 81.0059,65.0058 160.0059,145.0059 88,87 155.006,146 171.0059,150 17.0001,3.9999 144.9941,122.9962 353.9941,330.9961 180,178.0001 333.004,324.0078 340.0039,324.0078 6,0 20.9883,-9.998 32.9883,-22.998 l 21.0059,-23.0118 -314.004,-313.9902 c -239,-238.9999 -315,-321.0078 -315,-339.0078 0,-31 -421.998,-450.9961 -453.998,-450.9961 z m -2992.7052,48.8145 c 2.63374,12.5431 6.70293,22.1814 11.70313,27.1816 7.9999,9 14.99998,27.0058 14.99998,40.0059 0,39 70.00203,247.0019 161.00203,479.0019 15.4568,40.4821 29.263,78.1909 35.4903,98.1035 l -53.4395,28.416 c -9.2142,-7.4805 -27.2509,-11.5293 -52.041,-11.5293 -25,0 -61.0117,-25.9921 -61.0117,-42.9921 0,-3 -15.9903,-40.9981 -35.99035,-82.9981 -38,-79.0001 -37.00195,-92.9999 7.99805,-94 26.0002,0 29.9922,-16.0001 12.9923,-56 -8.0002,-20.0001 -15.00013,-44.0098 -15.00013,-54.0098 0,-9 -8.99412,-28.9921 -19.99412,-42.9921 -11,-14 -19.9961,-40 -19.9961,-60 0,-20 -4.0039,-38.9981 -10.0039,-41.9981 -5,-3 -10.00586,-20.0058 -10.00586,-36.0059 0,-18.9999 -10.0001,-39 -26,-56 -18,-18 -22,-28.9921 -15,-35.9921 8.52218,-8.5222 11.5527,-21.5762 8.91992,-41.8907 z m 135.30474,1.4335 v 0 c 5.5875,0.4472 15.9102,8.0332 25.4024,21.7441 18,25 21.0019,73.998 7.0019,82.998 -6,3 -12.9961,-10.9921 -15.9961,-31.9921 -3,-21 -10.0097,-46 -16.0097,-56 -6.1251,-10.9375 -5.5426,-16.3221 -1.4512,-16.7442 0.3287,-0.034 0.6802,-0.036 1.0527,-0.01 z m 5864.39066,91.252 22.7618,6.5273 c -14.7276,13.7007 -16.1605,12.8248 -21.754,-3.0234 -0.4098,-1.0247 -0.7418,-2.2044 -1.0078,-3.5039 z m -263.1543,19.5664 c 0.7694,0 1.5332,0.012 2.2911,0.051 12.125,0.6248 22.8749,6.8828 35.875,18.8828 25.9999,24 28.0019,42.998 7.0019,63.998 -11,10.0001 -23.0039,12.0059 -44.0039,6.0059 -74,-21 -90.9941,-49.002 -42.9941,-74.0019 17.3437,-9.8438 30.2889,-14.8619 41.83,-14.9356 z m -5547.59186,72.166 c 2.3841,-0.3757 7.1954,6.5801 16.7579,21.7676 10.0001,17 23,46.998 30,67.998 7.0001,20 17.00186,38.9961 22.00186,41.9961 12,8 12.0039,62.0058 -0.9961,70.0059 -5,3 -12.0098,-7.002 -16.00966,-22.002 -4,-15 -12.996,-37.0039 -19.9961,-48.0039 -7.9999,-11 -14.0039,-34.0019 -14.0039,-52.0019 0,-16.9999 -3.9903,-34.9981 -9.9903,-37.9981 -5,-3 -10.0039,-15.9921 -10.0039,-27.9921 0,-8.75 0.386,-13.4774 2.2402,-13.7696 z m 5464.76186,36.7676 c 4.0001,0 24.998,11.004 48.998,25.0039 42,25.0001 41.9961,24.9923 30.9961,61.9922 -6,21 -19.0038,49.0077 -29.0039,62.0078 -0.02,0.026 -0.039,0.054 -0.059,0.08 l -101.1563,-53.7871 c 2.0418,-5.2 3.2168,-9.484 3.2168,-12.2989 0,-17 38.0079,-82.9981 47.0079,-82.998 z m -2662.002,71.002 c -11,0 -55.0019,35.0018 -97.0019,78.0019 -53.0001,52.9999 -78.004,85 -78.004,101 0,17 -84.9941,107.9941 -334.9941,357.9941 -184,185 -334.9961,340 -334.9961,345 0,13 31.9961,36.002 49.9961,37.002 9,0 172.9941,-157.0039 364.9941,-348.0039 383,-381 384.0099,-381.0039 470.0098,-359.0039 40.0001,11 83,50.0039 394,359.0039 193,192 356.9942,348.0039 364.9942,348.0039 7,0 24.0018,-9 37.0019,-19 l 23.9941,-19.9941 -337.0019,-338.0137 c -219,-219 -337.9981,-344.9923 -337.9981,-357.9922 0,-27 -158.9941,-184.9981 -184.9941,-183.998 z m 2824.9941,38.9921 c 17,0 19.004,5.0078 14.004,28.0079 -3,15 -15.004,38.9941 -25.004,53.9941 -1.7702,2.6554 -3.4813,5.3712 -5.1445,8.0859 l -37.0762,-19.7129 c 25.7817,-53.0724 38.559,-70.375 53.2207,-70.375 z m -224.2089,7.7735 99.5898,52.9531 c -3.3191,7.606 -5.3711,14.727 -5.3711,19.2832 0,44 -52.0039,48.0019 -104.0039,7.002 l -26.9961,-22.002 24.9902,-37.998 c 4.2037,-6.3054 8.2188,-12.8783 11.7911,-19.2383 z m -5315.7853,77.2324 25.0039,30 c 13,15.9999 24.9903,36.9999 24.9903,45 0,8 6.9999,23.9981 15,33.998 9.44,12.9802 14.6997,33.6164 14.5547,48.3594 l -19.1231,10.168 c -16.3813,-18.0993 -40.4316,-64.2216 -40.4316,-82.5215 0,-10 -3.9903,-22.0039 -9.9903,-25.0039 -5,-3 -10.0039,-18.0039 -10.0039,-33.0039 z m 5476.4552,8.1973 35.7969,19.0332 c -1.4249,3.6151 -2.2579,6.6585 -2.2579,8.7754 0,6 -8.998,25.9922 -18.998,42.9921 -3.4806,5.9172 -8.3079,15.273 -13.7363,26.5411 l -27.3086,-14.5196 c 0.016,-0.6675 0.043,-1.3189 0.043,-2.0156 0,-11.8323 11.4495,-45.8162 26.461,-80.8066 z M 1121.737,5675.9962 c 6.5368,0.3758 16.0879,11.1426 25.6504,31.3926 9,17 15.008,32.9999 13.0079,34 -9.0001,9 -47.0079,-30.0079 -47.0079,-47.0079 0,-12.6875 3.2653,-18.6769 8.3496,-18.3847 z m -134.61716,66.9648 c 2.9733,5.5744 7.5058,12.2228 12.8164,18.8047 l -48.8731,25.9863 c -0.5439,-0.4485 -1.0697,-0.8878 -1.664,-1.3632 -5.5615,-4.3257 -10.3572,-10.5607 -13.2149,-16.3458 z m 2762.26956,12.4297 c -15,0 -108.9941,87.9884 -308.9941,287.9883 -157.9999,158 -287.0079,292.0078 -287.0079,298.0078 0,18 23.0039,34 48.004,34 18,0 87.0078,-62.0001 279.0078,-255 141,-140.0001 262.9922,-255 271.9922,-255 9,0 130.996,114.9999 270.996,255 231,231.9999 258,254.9922 285,252.9922 69,-7 51.0001,-29.9922 -251,-331.9922 -198,-197.9999 -292.998,-285.9961 -307.998,-285.9961 z m -2732.9415,25.9102 c 8.5405,11.6275 13.224,22.7535 10.9395,28.0839 -8.0001,22.0001 -51.00006,39.0079 -78.99996,32.0079 l -26,-7.002 11.0703,-8.9629 z m 195.0548,55.0957 c 6.7368,-0.2437 17.3945,11.3711 30.8945,34.9961 12.0456,20.0759 19.1397,38.1645 20.5567,49.9511 l -15.9688,9.9805 c -17.8269,-12.9643 -43.5976,-53.7414 -43.5976,-72.9395 0,-14.4375 2.8754,-21.7985 8.1152,-21.9882 z m -166.3028,76.3652 c 23.3281,2e-4 63.4414,30.3456 82.1914,68.627 3.065,5.6191 6.594,11.8286 10.3398,18.205 l -75.8808,47.4141 c -2.8406,-1.0649 -5.6748,-1.6211 -8.4629,-1.6211 -15,0 -19.9981,-6.0078 -18.9981,-17.0078 2,-10 0,-34.9863 -4.9961,-55.9863 -4,-20 -3.0039,-44.002 0.9961,-52.002 3.0625,-5.25 8.2787,-7.629 14.8106,-7.6289 z m 229.5743,48.6035 c 10.7859,0.2075 30.9474,21.8962 36.9141,40.377 l -12.5586,8.4707 c -3.4088,-2.4405 -7.3335,-5.7022 -11.7325,-9.8262 -15,-14.0001 -23.0039,-29.0059 -18.0039,-36.0059 1,-1.75 2.4396,-2.6893 4.1895,-2.9453 0.3828,-0.056 0.78,-0.078 1.1914,-0.07 z m -124.0157,59.5664 c 7.1175,11.2298 14.1237,21.5569 19.6407,28.4531 9.9898,12.2952 18.1872,25.1563 21.457,33.1856 l -65.8302,44.4023 c -10.0203,-11.1253 -25.7475,-32.7821 -34.6406,-49.58 -2.8227,-5.1323 -5.846,-9.7267 -8.9961,-13.7383 z m -172.92386,28.8711 c 9.8766,0.067 15.5528,10.1758 15.5528,29.582 0,2.9507 0.5373,6.1649 1.4629,9.4903 l -22.627,14.1387 c -1.3694,-2.8547 -2.968,-6.0227 -4.8359,-9.625 -13,-25 -12.9883,-32.0079 -2.9883,-39.0079 5.0625,-3.0937 9.5708,-4.6043 13.4355,-4.5781 z m 2771.55476,15.5781 c -6,0 -85.002,75.0118 -176.002,166.0118 -137,138 -161.998,167.9921 -153.998,181.9921 6,9 22.006,17.9942 36.0059,19.9942 21,2 48.9903,-20.9863 155.9902,-126.9863 71.0001,-72 133.0078,-131.002 137.0078,-131.002 4,0 66.9941,57.9902 139.9941,129.9902 97,95 139.002,130.0059 157.002,130.0059 21.9999,0 48.0039,-16 48.0039,-30 0,-12 -332.0039,-340.0059 -344.0039,-340.0059 z m 2036.5645,83.877 c -0.5125,-0.011 -1.036,3e-4 -1.5743,0.029 -18.9465,1.085 -54.0566,28.2832 -117.9941,88.0957 -54,51 -126.9961,114.998 -161.9961,142.998 -70,56 -283.9961,204 -345.9961,240 -65,38 -276.996,142.9981 -319.9961,157.9981 -21.9999,8 -102.9999,38.0059 -180,66.0058 -76.9999,28.0001 -147.0058,51.0059 -156.0058,51.0059 -9,0 -38.9942,5.9902 -64.9942,13.9902 -134,39 -323.0039,69.0098 -479.0039,76.0098 l -130.0059,4.9964 v 25.0039 24.9902 l 105,-1.9921 c 206,-2.0001 459.0059,-48.9961 715.0059,-131.9961 256,-83 426,-165 660,-319 226,-149 503.9923,-389.0137 492.9922,-424.0137 -2.9296,-9.082 -7.7451,-13.954 -15.4316,-14.1211 z" />
</svg>
