<?xml version="1.0" standalone="no"?>
<!DOCTYPE svg PUBLIC "-//W3C//DTD SVG 20010904//EN"
 "http://www.w3.org/TR/2001/REC-SVG-20010904/DTD/svg10.dtd">
<svg version="1.0" xmlns="http://www.w3.org/2000/svg"
 width="720.000000pt" height="720.000000pt" viewBox="0 0 720.000000 720.000000"
 preserveAspectRatio="xMidYMid meet">
<metadata>
Created by potrace 1.10, written by Peter Selinger 2001-2011
</metadata>
<g transform="translate(0.000000,720.000000) scale(0.100000,-0.100000)"
fill="#000000" stroke="none">
<path d="M6254 6421 c-66 -21 -153 -65 -184 -93 -132 -119 -267 -244 -320
-295 -127 -121 -156 -146 -210 -182 -30 -20 -73 -45 -95 -55 -22 -10 -52 -25
-67 -33 -14 -7 -34 -13 -43 -13 -9 0 -39 -7 -66 -16 -48 -16 -112 -15 -151 1
-13 5 -21 1 -28 -16 -6 -13 -19 -37 -30 -54 -25 -39 -50 -94 -50 -111 0 -40
49 -103 81 -104 9 0 22 -7 29 -15 7 -8 18 -15 26 -15 22 0 64 -53 64 -82 0
-15 5 -30 10 -33 6 -3 10 -13 10 -21 0 -18 -46 -18 -102 0 -93 30 -155 34
-333 22 -102 -7 -135 -15 -222 -53 -18 -7 -48 -20 -68 -29 -106 -45 -104 -43
-107 -104 -3 -53 -4 -55 -33 -58 -16 -1 -56 -9 -88 -18 -80 -21 -174 -22 -223
-3 -57 23 -104 40 -143 49 -18 5 -38 13 -44 19 -6 6 -23 11 -37 11 -14 0 -34
6 -45 14 -11 7 -31 16 -45 19 -27 5 -75 22 -132 45 -30 12 -43 12 -70 2 -18
-6 -60 -15 -92 -20 -85 -13 -91 -31 -36 -113 15 -23 36 -58 46 -77 11 -20 37
-55 59 -79 22 -23 43 -48 47 -55 4 -7 3 -82 -1 -167 -5 -85 -7 -157 -4 -161 2
-5 26 -8 52 -8 47 0 49 -2 97 -62 27 -34 72 -90 99 -124 118 -147 183 -229
228 -287 63 -81 149 -170 213 -221 55 -44 154 -126 357 -299 l127 -109 0 -50
0 -51 78 6 c42 4 112 10 155 13 l78 7 67 -66 c37 -36 91 -77 120 -92 29 -15
55 -31 58 -36 3 -5 18 -9 34 -9 30 0 40 15 40 57 0 13 8 54 17 89 14 52 15 69
5 84 -6 11 -16 36 -21 57 -10 43 -27 92 -47 141 -8 18 -14 43 -14 55 0 13 -4
27 -9 33 -6 5 -14 27 -20 49 -10 44 -27 93 -47 143 -18 42 -18 118 1 195 7 34
18 80 22 102 8 39 9 40 55 43 37 2 52 9 68 29 11 14 20 33 20 42 0 10 7 26 15
37 8 10 15 27 15 36 0 9 6 29 14 45 38 76 46 108 46 176 0 40 5 101 10 137 11
68 2 146 -27 247 -8 29 -13 62 -11 75 3 20 8 23 36 20 46 -5 142 -103 142
-146 0 -8 14 -26 31 -40 47 -40 83 -35 173 25 68 44 76 53 69 72 -23 64 12
242 68 337 5 8 15 29 23 45 23 50 149 206 243 300 7 7 43 48 80 92 37 43 85
96 105 118 37 41 64 75 85 110 44 72 83 190 83 248 0 33 -3 37 -25 37 -48 0
-30 17 -767 -742 -36 -38 -69 -68 -73 -68 -14 0 -125 114 -125 128 0 9 64 81
143 161 78 80 217 222 307 316 91 93 191 196 223 228 84 86 107 120 107 155 0
30 -2 32 -37 31 -21 -1 -61 -8 -89 -18z"/>
<path d="M3516 4256 c-25 -21 -42 -25 -117 -28 -87 -3 -88 -3 -129 -43 l-40
-39 0 -88 c0 -76 -3 -92 -25 -124 -28 -41 -30 -56 -12 -96 7 -15 138 -157 292
-315 619 -638 571 -594 636 -573 21 7 40 19 43 26 4 10 29 14 97 14 l91 0 39
37 39 37 0 83 c0 75 3 89 31 138 34 61 33 74 -12 132 -28 35 -611 634 -773
795 -78 77 -109 85 -160 44z"/>
<path d="M2991 3720 c-18 -16 -38 -20 -95 -20 -133 0 -177 -42 -186 -178 -4
-66 -10 -96 -27 -123 -43 -68 -33 -86 138 -259 52 -52 222 -228 379 -390 157
-162 296 -304 310 -315 30 -25 102 -26 128 -2 14 13 38 17 93 17 84 0 120 16
163 73 23 30 26 43 26 117 0 65 4 88 18 103 11 13 17 35 17 67 0 57 31 21
-444 509 -446 457 -407 421 -456 421 -25 -1 -49 -8 -64 -20z"/>
<path d="M2494 3201 c-12 -5 -25 -14 -29 -20 -3 -6 -40 -11 -87 -11 -91 0
-119 -12 -159 -68 -23 -32 -27 -49 -30 -123 -3 -65 -8 -92 -21 -106 -12 -13
-18 -36 -18 -65 0 -44 3 -48 98 -144 53 -55 225 -232 382 -394 385 -399 375
-390 423 -390 24 0 49 8 64 20 20 16 41 20 94 20 78 0 113 12 151 53 33 33 36
46 40 149 2 55 8 82 21 95 10 12 17 36 17 63 0 41 -4 47 -154 204 -85 88 -277
286 -428 439 -239 243 -277 279 -308 282 -19 3 -45 1 -56 -4z"/>
<path d="M1956 2655 c-32 -22 -48 -25 -121 -25 l-83 0 -41 -46 -41 -47 0 -87
c0 -65 -4 -91 -15 -100 -17 -14 -29 -71 -21 -102 6 -25 11 -31 430 -463 381
-394 395 -408 425 -427 35 -24 60 -22 101 6 28 19 52 24 123 28 88 4 89 5 125
43 35 37 36 40 40 129 4 77 8 96 28 123 45 59 36 79 -88 210 -302 317 -736
757 -760 769 -38 20 -60 18 -102 -11z"/>
<path d="M1023 2312 c-17 -11 -40 -64 -47 -107 -8 -50 9 -169 52 -350 21 -93
20 -232 -4 -310 -20 -67 -32 -88 -46 -79 -5 3 -25 3 -44 -1 -42 -7 -60 -41
-37 -67 9 -10 13 -27 10 -40 -17 -68 -39 -137 -63 -196 -8 -18 -14 -39 -14
-47 0 -8 -6 -29 -14 -47 -26 -63 -38 -103 -46 -148 -4 -25 -12 -72 -18 -105
-6 -33 -18 -105 -27 -160 -9 -55 -21 -127 -27 -160 -6 -33 -12 -71 -12 -85 -1
-29 10 -30 109 -11 125 25 172 33 236 40 37 5 72 11 77 15 6 4 39 11 74 15 61
8 113 23 153 44 11 6 33 14 50 18 16 4 55 17 85 29 30 12 66 24 80 27 14 3 34
12 45 19 26 18 64 18 71 -1 4 -8 17 -15 30 -15 28 0 44 31 44 83 0 39 22 55
88 63 26 3 68 12 94 21 42 13 53 13 100 -1 55 -15 138 -32 223 -46 28 -5 64
-14 82 -20 40 -15 145 -8 198 13 37 14 40 18 43 59 3 40 -1 48 -43 92 l-45 48
0 128 c0 71 -3 135 -6 144 -4 11 -19 16 -50 16 l-43 0 -146 183 c-80 100 -151
189 -158 197 -7 8 -34 43 -61 77 -27 35 -65 75 -85 90 -20 15 -54 44 -76 65
-22 20 -56 50 -76 65 -48 37 -268 221 -296 248 -13 13 -23 36 -25 60 l-3 40
-131 5 -131 5 -46 43 c-26 23 -50 43 -54 43 -42 6 -61 6 -70 1z"/>
</g>
</svg>
