<?xml version="1.0" encoding="UTF-8" standalone="no"?>
<svg
   xmlns:svg="http://www.w3.org/2000/svg"
   xmlns="http://www.w3.org/2000/svg"
   xmlns:sodipodi="http://sodipodi.sourceforge.net/DTD/sodipodi-0.dtd"
   xmlns:inkscape="http://www.inkscape.org/namespaces/inkscape"
   version="1.0"
   width="347"
   height="358.5"
   inkscape:version="1.0.1 (3bc2e813f5, 2020-09-07)"
   sodipodi:docname="relic.svg">
  <defs />
  <sodipodi:namedview
     inkscape:zoom="1.3110938"
     inkscape:cx="143.85289"
     inkscape:cy="123.56194"
     inkscape:window-width="1754"
     inkscape:window-height="1057"
     inkscape:window-x="158"
     inkscape:window-y="-8"
     inkscape:window-maximized="1" />
  <path
     d="M 168.92657,2.0208192 113.57343,26.479181 A 7.6756555,7.6756555 123.08063 0 0 109,33.5 v 14 a 7.6760763,7.6760763 56.920807 0 0 4.57333,7.021049 l 12.17365,5.379782 a 2.0629376,2.0629376 91.421181 0 1 -0.0946,3.812828 L 76.167926,82.708221 A 7.2749434,7.2749434 124.50037 0 0 71.5,89.5 v 24 c 0,2.76142 2.055499,5.88665 4.591085,6.98039 6.826647,2.94471 13.653293,5.88943 20.47994,8.83414 2.535586,1.09374 2.501191,2.78262 -0.07682,3.77221 -18.775431,7.20715 -37.550863,14.41429 -56.326294,21.62144 C 37.589894,155.69777 35.5,158.73858 35.5,161.5 v 33 c 0,2.76142 2.066696,5.86023 4.616094,6.92137 7.076901,2.94565 14.153801,5.8913 21.230702,8.83695 2.549398,1.06114 2.526198,2.72359 -0.05182,3.71318 C 42.419289,221.21706 23.543601,228.46263 4.6679135,235.70819 2.0898961,236.69778 0,239.73858 0,242.5 v 41 c 0,2.76142 2.0759811,5.83757 4.6368336,6.87077 54.7421104,22.08615 109.4842264,44.17231 164.2263364,66.25846 2.56085,1.0332 6.71281,1.0332 9.27366,0 54.74211,-22.08615 109.48423,-44.17231 164.22634,-66.25846 C 344.92402,289.33757 347,286.26142 347,283.5 v -41 c 0,-2.76142 -2.0899,-5.80222 -4.66791,-6.79181 -18.87569,-7.24556 -37.75138,-14.49113 -56.62707,-21.73669 -2.57801,-0.98959 -2.60121,-2.65204 -0.0518,-3.71318 7.07691,-2.94565 14.1538,-5.8913 21.23071,-8.83695 C 309.4333,200.36023 311.5,197.26142 311.5,194.5 v -33 c 0,-2.76142 -2.08989,-5.80223 -4.66791,-6.79182 -18.77543,-7.20715 -37.55086,-14.41429 -56.32629,-21.62144 -2.57802,-0.98959 -2.61241,-2.67847 -0.0768,-3.77221 6.82665,-2.94471 13.6533,-5.88943 20.47995,-8.83414 C 273.4445,119.38665 275.5,116.26142 275.5,113.5 v -24 a 7.2749434,7.2749434 55.499626 0 0 -4.66793,-6.791779 L 221.34762,63.713659 a 2.0629376,2.0629376 88.578819 0 1 -0.0946,-3.812828 l 12.17365,-5.379782 A 7.6760763,7.6760763 123.07919 0 0 238,47.5 v -14 a 7.6756555,7.6756555 56.91937 0 0 -4.57343,-7.020819 L 178.07343,2.0208192 a 11.315789,11.315789 0 0 0 -9.14686,0 z m -28.8434,64.2129638 28.84343,12.745324 a 11.315298,11.315298 0 0 0 9.1468,0 l 28.84343,-12.745324 c 2.52582,-1.116109 6.66328,-1.218632 9.24128,-0.228993 17.29043,6.63743 34.58085,13.27486 51.87128,19.91229 2.578,0.989639 2.61239,2.678581 0.0768,3.772357 -30.00505,12.943363 -60.0101,25.886743 -90.01515,38.830103 -2.53557,1.09378 -6.64655,1.09378 -9.18212,0 -30.00505,-12.94336 -60.0101,-25.88674 -90.01515,-38.830103 -2.53557,-1.093776 -2.501175,-2.782718 0.07682,-3.772357 17.290425,-6.63743 34.580847,-13.27486 51.871277,-19.91229 2.578,-0.989639 6.71546,-0.887116 9.24128,0.228993 z M 113.63596,136.6758 c 18.42434,7.9479 36.84866,15.89581 55.273,23.84371 2.53556,1.0938 6.64652,1.0938 9.18208,0 18.42434,-7.9479 36.84866,-15.89581 55.273,-23.84371 2.53556,-1.0938 6.68094,-1.17827 9.25895,-0.18868 19.61006,7.52747 39.22013,15.05493 58.83019,22.5824 2.57801,0.98959 2.6012,2.65201 0.0518,3.71312 l -123.38885,51.3566 a 12.01295,12.01295 0 0 1 -9.23224,0 L 45.49503,162.78264 c -2.549413,-1.06111 -2.526224,-2.72353 0.05179,-3.71312 19.610062,-7.52747 39.220124,-15.05493 58.830188,-22.5824 2.57801,-0.98959 6.72339,-0.90512 9.25895,0.18868 z m -32.346045,81.88231 c 29.198005,12.15331 58.395995,24.30664 87.593995,36.45995 2.5494,1.06115 6.68279,1.06117 9.23219,3e-5 29.19864,-12.15333 58.39728,-24.30668 87.59592,-36.46001 2.5494,-1.06114 6.70599,-1.11911 9.28399,-0.12949 19.85682,7.62248 39.71366,15.24495 59.57048,22.86743 2.578,0.98962 2.59232,2.63045 0.032,3.6649 -52.15418,21.07162 -104.30836,42.14326 -156.46254,63.21488 -2.56035,1.03445 -6.71149,1.03445 -9.27184,0 C 116.7099,287.10418 64.55572,266.03254 12.40154,244.96092 c -2.5603478,-1.03445 -2.546027,-2.67526 0.03199,-3.66486 19.857465,-7.6225 39.714929,-15.24501 59.572394,-22.86751 2.578014,-0.9896 6.7346,-0.93159 9.283994,0.12956 z" />
</svg>
