<?xml version="1.0" encoding="UTF-8" standalone="no"?>
<svg
   xmlns:svg="http://www.w3.org/2000/svg"
   xmlns="http://www.w3.org/2000/svg"
   xmlns:sodipodi="http://sodipodi.sourceforge.net/DTD/sodipodi-0.dtd"
   xmlns:inkscape="http://www.inkscape.org/namespaces/inkscape"
   version="1.1"
   width="169.78322"
   height="167.84975"
   inkscape:version="1.0.1 (3bc2e813f5, 2020-09-07)"
   sodipodi:docname="seasonal-arena.svg">
  <defs />
  <sodipodi:namedview
     inkscape:zoom="5.1653338"
     inkscape:cx="84.891612"
     inkscape:cy="83.924876"
     inkscape:window-width="1754"
     inkscape:window-height="1057"
     inkscape:window-x="158"
     inkscape:window-y="-8"
     inkscape:window-maximized="1" />
  <path
     d="M 81.868511,4.5788151e-4 A 80.78623,80.78623 0 0 0 46.61461,8.2231139 77.24883,77.24883 0 0 0 31.397813,17.828583 l 0.144531,-0.113281 A 82.62664,82.62664 0 0 0 1.6067967,66.86765 87.37083,87.37083 0 0 0 0.47398467,92.63522 79.85284,79.85284 0 0 0 19.366563,138.06296 a 83.99921,83.99921 0 0 0 25.136719,20.3418 81.135,81.135 0 0 0 22.169919,7.8457 l 0.5293,0.0879 a 87.19223,87.19223 0 0 0 17.68945,1.49805 87.19539,87.19539 0 0 0 17.687499,-1.49805 83.00566,83.00566 0 0 0 23.15039,-8.15235 l -0.44922,0.21876 a 84.00366,84.00366 0 0 0 25.13477,-20.3418 79.851,79.851 0 0 0 18.89453,-45.42774 87.3708,87.3708 0 0 0 -1.13476,-25.76757 h 0.002 A 82.62658,82.62658 0 0 0 138.24156,17.715302 76.58128,76.58128 0 0 0 123.62633,8.4242859 L 123.1693,8.2231139 A 80.79274,80.79274 0 0 0 84.891951,0.04733288 80.78623,80.78623 0 0 0 81.868511,4.6288151e-4 Z M 84.891951,2.8774109 c 3.28156,0.02234 6.57823,0.196802 9.88672,0.488281 a 75.10231,75.10231 0 0 1 27.363279,7.8847661 c 22.65018,11.37878 36.6095,29.74542 42.71485,54.218752 a 42.74209,42.74209 0 0 1 0.93359,5.29492 l 0.0195,0.21484 c 0.27074,2.1738 0.40552,4.36554 0.66016,7.23829 -2.22682,-2.39235 -4.07645,-4.29416 -5.83203,-6.2793 h -0.002 C 149.95464,59.860728 138.8716,48.183094 126.29625,38.035614 A 84.40314,84.40314 0 0 0 101.57555,23.725068 47.048,47.048 0 0 0 85.772811,21.047333 c -0.29475,0 -0.58757,0.0025 -0.88086,0.0078 -0.26213,-0.0051 -0.57135,-0.0078 -0.88086,-0.0078 a 47.9,47.9 0 0 0 -16.13672,2.78125 l 0.33399,-0.105469 a 84.39938,84.39938 0 0 0 -24.720704,14.3125 C 30.912297,48.182834 19.829033,59.860748 9.1478127,71.93796 c -1.75557,1.98515 -3.605201,3.88722 -5.832031,6.2793 0.2546,-2.87276 0.389406,-5.06448 0.660156,-7.23829 a 46.50145,46.50145 0 0 1 1.017578,-5.82617 l -0.06445,0.31641 C 11.034433,40.995898 24.993757,22.629238 47.643907,11.250458 A 75.11279,75.11279 0 0 1 75.007191,3.3656919 c 3.30848,-0.291209 6.60319,-0.465941 9.88476,-0.488281 z m 0,31.8593751 c 1.68534,3.6e-4 3.38052,0.05534 5.08594,0.164063 11.815849,0.735 22.083179,5.389776 31.955079,11.316406 7.62164,4.57558 14.43068,10.232596 21.14453,16.035156 6.986,6.037529 13.25015,12.779289 20.21484,19.777349 h -17.84961 c -2.12833,-2.342 -4.19713,-4.706 -6.35937,-6.98047 A 117.43167,117.43167 0 0 0 121.24351,59.365692 72.09986,72.09986 0 0 0 95.989611,48.146942 l -0.49219,-0.09375 a 30.05637,30.05637 0 0 0 -5.71094,-0.636718 h -0.0273 c -1.67887,-0.05087 -3.18671,-0.0055 -4.86719,-0.002 -1.68048,-0.0035 -3.18636,-0.04892 -4.86523,0.002 a 31.19362,31.19362 0 0 0 -5.94336,0.671875 l 0.20312,-0.03516 a 72.92376,72.92376 0 0 0 -25.978552,11.4668 l 0.232422,-0.154297 A 117.43174,117.43174 0 0 0 30.700547,75.04929 c -2.16223,2.27473 -4.229092,4.63843 -6.357422,6.98047 H 6.4935157 C 13.458216,75.03169 19.720447,68.28993 26.706407,62.252411 c 6.71385,-5.80256 13.522881,-11.459586 21.144531,-16.035156 9.871893,-5.92636 20.139223,-10.581126 31.955073,-11.316406 1.70579,-0.10622 3.40097,-0.161196 5.08594,-0.164063 z m 4.66602,15.773438 c 0.54968,0.02733 1.06816,0.05848 1.40234,0.103515 a 39.56816,39.56816 0 0 1 8.0625,1.607422 75.281,75.281 0 0 1 24.078129,12.546879 107.18576,107.18576 0 0 1 12.9375,11.6582 l 0.0508,0.0547 c 1.751,1.87184 3.8396,4.46103 5.53515,6.50781 a 1.48415,1.48415 0 0 1 -0.16796,2.21484 c -17.68947,18.21591 -28.33344,26.13721 -41.722659,29.96485 -2.67347,0.76429 -6.5844,1.75907 -10.1875,2.06836 A 33.688,33.688 0 0 0 118.57947,83.87156 33.688,33.688 0 0 0 89.557991,50.510234 Z m -9.5586,0.03125 a 33.688,33.688 0 0 0 0.22852,66.693356 c -3.60023,-0.31028 -7.50653,-1.30282 -10.17773,-2.0664 -13.38922,-3.82738 -24.035144,-11.74894 -41.724614,-29.96485 a 1.48414,1.48414 0 0 1 -0.166015,-2.21484 c 1.69555,-2.04678 3.784166,-4.63597 5.535156,-6.50781 A 107.04337,107.04337 0 0 1 46.432969,64.95554 l 0.25,-0.1875 a 75.28666,75.28666 0 0 1 24.078122,-12.546879 38.49846,38.49846 0 0 1 8.23828,-1.607422 c 0.2595,-0.03112 0.64788,-0.04993 1,-0.07227 z m 1.52735,9.041015 a 12.91153,12.91153 0 0 1 1.30078,2.357422 c 0.5477,1.760419 0.91915,3.574189 1.51367,5.974609 2.53069,-2.73765 2.6344,-5.748288 4.12891,-8.292968 v 7.681638 c 3.66348,-0.64539 3.90993,-3.75007 5.89453,-6.685544 -0.47825,3.661864 -0.83593,6.398214 -1.32227,10.123044 2.61223,-2.61223 4.51611,-4.51584 6.89258,-6.89258 -0.0379,2.35574 -1.15301,3.53349 -1.97656,4.86329 a 18.24782,18.24782 0 0 0 -1.1582,2.81054 c 3.492299,1.35268 5.010429,-2.0606 8.630849,-2.73828 -2.49408,2.49355 -4.26847,4.26706 -6.724599,6.72266 2.561899,0.098 4.037749,0.49954 5.248039,0.0996 1.12527,-0.37168 2.07822,-1.0817 3.42578,-0.73828 -1.58521,2.15658 -4.84154,2.23344 -5.82226,5.4375 h 8.01758 c -2.25,2.82834 -5.92802,1.333 -8.10157,3.86718 2.21364,2.46421 5.67344,1.62392 8.50586,3.77539 h -8.50976 c 0.54016,1.09431 0.68156,1.90268 1.1582,2.2461 1.55507,1.11987 3.23142,2.78142 5.26367,4.04687 A 17.148,17.148 0 0 1 105.39,94.14108 c -1.48859,-0.0377 -3.442,-1.35123 -5.707029,-1.22851 a 17.19391,17.19391 0 0 0 1.988279,2.52539 c 0.94924,1.20681 1.2822,1.39178 2.28711,2.55469 0.34423,0.12111 0.36467,0.81473 0.62305,1.03515 -0.0998,0.0996 -0.19926,0.19908 -0.29883,0.29883 -0.22041,-0.25837 -0.44169,-0.0427 -0.66211,-0.30078 0.0616,-0.0616 -0.5873,-0.36025 -0.52539,-0.42188 -0.97885,-0.0692 -3.514389,-2.09915 -5.851569,-2.88476 0,1.10695 2.66712,5.92324 2.68946,7.68555 -1.748,-1.74859 -3.65133,-3.65249 -5.66797,-5.66993 -2.45748,3.5612 0.94599,6.22601 -0.37305,9.28125 -1.34863,-2.2941 -2.62209,-4.45711 -3.9414,-6.70117 -0.4072,0.48983 0.1464,1.67701 -0.49414,2.44727 0,1.93482 -0.94727,3.54535 -0.94727,5.86718 l -0.44531,0.12305 c -0.47044,-1.19953 -0.96938,-2.38938 -1.4043,-3.60156 -0.47206,-1.31634 -0.88482,-2.65313 -1.49414,-4.49805 -2.69808,2.57752 -1.18995,6.3468 -4.06836,8.4668 v -8.78906 c -3.29691,1.39547 -3.15423,4.93785 -5.93359,7.11328 0.74389,-2.86926 1.34312,-5.17588 2.01757,-7.77735 -0.664,-0.10362 -1.36613,-0.21412 -2.02148,-0.3164 -1.58655,1.32281 -3.1066,2.59006 -4.62695,3.85742 a 2.745,2.745 0 0 1 -0.5625,0.86133 c -0.0998,-0.0996 -0.19926,-0.19908 -0.29883,-0.29883 0.25837,-0.22042 3.29006,-4.85287 3.41602,-7.59375 0.0996,0.0412 -5.38969,2.15909 -7.52149,3.42969 -0.32888,-0.29523 -0.23365,-0.61814 -0.3125,-0.74414 -0.0495,-0.0791 0.18344,-0.50127 0.24023,-0.5586 1.83308,-1.84976 3.20173,-3.21735 5.51172,-5.52734 a 28.27528,28.27528 0 0 0 -5.24609,0.0742 c -1.24395,0.26295 -2.29263,0.81701 -3.88672,0.46875 a 35.86166,35.86166 0 0 0 7.63672,-4.76367 c -3.58649,-0.92528 -6.52803,-0.23009 -9.38867,-1.1543 2.54871,-0.84132 5.33411,-2.15709 8.14258,-3.08399 a 10.836,10.836 0 0 0 -3.85743,-1.97265 21.52157,21.52157 0 0 1 -4.39453,-1.4375 l 0.13672,0.0566 c 2.78124,-0.862 5.6887,-0.18505 9.07227,-0.7793 -2.29976,-2.35924 -7.10251,-4.70284 -7.9336,-5.24219 a 13.28231,13.28231 0 0 1 1.99024,-0.14453 c 0.20972,0 0.41729,0.006 0.625,0.0156 a 64.78132,64.78132 0 0 0 6.88867,0.91797 29.67483,29.67483 0 0 0 -3.2168,-3.44532 c -0.90188,-0.94036 -1.83821,-1.84799 -3.23047,-3.24023 a 12.16118,12.16118 0 0 1 5.80274,1.76758 7.99546,7.99546 0 0 0 3.11328,0.94922 c -0.77026,-2.33636 -2.99147,-5.8126 -2.96484,-6.24805 -0.34422,-0.12111 -0.36468,-0.5784 -0.62305,-0.79883 l 0.29883,-0.29883 c 0.22032,0.25819 0.43981,0.51702 0.66015,0.77539 -0.0616,0.0616 0.11438,0.12392 0.0527,0.18555 1.50527,1.09188 3.39939,2.28259 4.94531,3.58008 0.52025,0 0.31589,0.23633 1.33789,0.23633 -0.657,-2.49678 -1.03625,-5.07427 -1.65234,-7.416018 l 0.47265,-0.265625 c 1.48644,2.251863 2.97306,4.502973 5.04297,7.638673 v -9.304689 c 0.23236,-0.08773 0.46474,-0.175752 0.69727,-0.263672 z M 6.7200787,85.70944 H 24.095079 c 4.663849,4.77312 8.926628,9.4128 13.486328,13.74024 a 78.48683,78.48683 0 0 0 24.939454,16.50586 61.64643,61.64643 0 0 0 16.20312,4.1289 l 0.29883,0.0273 c 1.42615,0.14265 3.08076,0.22461 4.75586,0.22461 0.39133,0 0.78254,-0.005 1.17188,-0.0137 l -0.0586,0.002 c 0.3313,0.008 0.72196,0.0117 1.11328,0.0117 1.6048,0 3.19024,-0.0776 4.75782,-0.22461 l 0.20703,-0.0156 c -0.0647,0.006 -0.13056,0.008 -0.19531,0.0137 a 63.52138,63.52138 0 0 0 16.912099,-4.30859 l -0.42382,0.1543 A 78.47936,78.47936 0 0 0 132.2025,99.44969 c 4.55942,-4.32743 8.82248,-8.96712 13.48633,-13.74024 h 17.375 c -0.67175,0.75977 -1.07732,1.28661 -1.54883,1.74414 -6.86376,6.65869 -13.53587,13.53237 -20.66016,19.90039 -8.44737,7.55114 -17.58828,14.23052 -27.92578,19.06446 -5.28313,2.4704 -10.66372,4.73582 -16.490229,5.60351 a 73.40889,73.40889 0 0 1 -11.54688,1.08008 73.37672,73.37672 0 0 1 -11.54492,-1.08008 c -5.82652,-0.868 -11.20737,-3.13313 -16.49023,-5.60351 -10.337504,-4.83394 -19.480108,-11.51332 -27.927738,-19.06446 -7.124,-6.368 -13.796386,-13.24171 -20.6601563,-19.90039 -0.47152,-0.45753 -0.877069,-0.98437 -1.548828,-1.74414 z m -3.333985,3.87891 c 4.68781,5.06459 8.9872033,9.64938 13.2207033,14.29492 10.39778,11.41028 21.257161,22.33819 34.119141,31 8.353433,5.62574 17.147973,10.21022 27.500003,11.3457 a 59.03636,59.03636 0 0 0 6.66601,0.36524 61.58858,61.58858 0 0 0 6.94532,-0.39258 l -0.27735,0.0273 c 10.351999,-1.13574 19.144579,-5.72023 27.498049,-11.3457 12.862,-8.66187 23.72137,-19.58976 34.11914,-31 4.2335,-4.64581 8.5329,-9.23033 13.2207,-14.29492 a 74.88763,74.88763 0 0 1 -8.74023,32.09961 c -9.19045,17.55786 -23.09222,29.90176 -41.41016,37.43164 a 80.98977,80.98977 0 0 1 -31.355469,5.76367 80.99989,80.99989 0 0 1 -31.35547,-5.76367 C 35.218575,151.58972 21.318722,139.24584 12.128282,121.68796 A 74.883,74.883 0 0 1 3.3860937,89.58835 Z" />
</svg>
