<svg viewBox="-10 -10 65.980022 71.24665" id="skull" width="50.632271" height="55.898888">
	<title>skull</title>
	<g transform="translate(-54.171865,-51.398623)">
		<path d="m 107.38442,59.58228 c 0.0698,2.68815 0.20947,5.6556 0.1995,8.628 a 18.78422,18.78422 0 0 0 1.12214,6.25407 l -0.0399,-0.12967 a 26.02267,26.02267 0 0 1 1.3715,4.8676 l 0.0249,0.16957 c 0.58352,4.319 -1.75054,6.79269 -5.28653,8.67789 a 1.51122,1.51122 0 0 1 -0.72316,0.18454 h -0.0499 a 2.44459,2.44459 0 0 1 -0.69822,-0.22942 l 0.015,0.005 c -0.2344,-0.84784 0.25436,-1.37649 0.57853,-1.95 0.409,-0.7082 0.84784,-1.37649 1.22189,-2.09965 a 3.55209,3.55209 0 0 0 -0.84286,-4.73793 9.41536,9.41536 0 0 0 -0.88774,-0.67329 l -0.0349,-0.01994 c -2.369,-0.49874 -4.09955,0.73812 -5.82017,1.93007 A 7.73845,7.73845 0 0 0 93.799,87.4413 c 0.04987,1.2219 0.05485,2.43879 0,3.66068 -0.05486,0.99246 -0.23441,1.98 -0.36408,3.08214 h -2.30409 a 4.10976,4.10976 0 0 1 -1.26677,-2.88764 c -0.49374,-4.02974 -2.99238,-6.21417 -6.5932,-7.35128 a 19.12493,19.12493 0 0 0 -6.08949,-0.97252 19.45353,19.45353 0 0 0 -6.7129,1.187 l 0.13466,-0.04489 c -3.34149,1.182 -5.65061,3.31656 -6.09947,7.072 A 4.994,4.994 0 0 1 63.212,94.219 l 0.005,-0.005 h -2.28922 c -0.14463,-1.04234 -0.34911,-2.03481 -0.409,-3.00235 a 37.0085,37.0085 0 0 1 0,-3.86515 7.31186,7.31186 0 0 0 -3.00235,-6.32389 17.72486,17.72486 0 0 0 -3.51106,-2.13456 l -0.10972,-0.04489 a 11.19482,11.19482 0 0 0 -2.67818,-0.53862 15.08334,15.08334 0 0 0 -1.52112,1.27175 l 0.005,-0.005 a 3.33316,3.33316 0 0 0 -0.60845,4.09456 c 0.43888,0.81293 0.97751,1.62586 1.39146,2.46372 0.27928,0.56357 0.87776,1.08724 0.409,1.98495 -0.30921,0 -0.75807,0.18952 -1.0573,0.04489 C 47.24763,86.93758 45.09811,85.222 44.37,82.30439 a 10.10667,10.10667 0 0 1 0.45883,-5.5758 c 0.45385,-1.40641 1.01741,-2.78291 1.37151,-4.20927 a 18.249,18.249 0 0 0 0.47379,-3.551 v -0.03491 c 0.08479,-1.62586 0,-3.25172 0.05985,-4.88256 0.05486,-1.47624 0.17954,-2.95747 0.34911,-4.42872 a 2.74942,2.74942 0 0 1 1.50117,-2.26423 l 0.015,-0.005 c 1.60092,-0.71318 2.37894,-2.03482 3.29161,-3.4163 A 29.28448,29.28448 0 0 1 68.12444,41.88734 l 0.20449,-0.04987 a 30.72463,30.72463 0 0 1 8.74272,-1.23685 32.13769,32.13769 0 0 1 4.40877,0.30422 L 81.31584,40.8849 a 30.04747,30.04747 0 0 1 15.51547,6.75279 26.3125,26.3125 0 0 1 6.19422,7.26151 l 0.0648,0.12468 a 3.71556,3.71556 0 0 0 1.81039,1.82036 c 1.1022,0.44386 1.67074,1.33659 2.49365,2.733 z M 83.94413,54.969 c 0.15959,2.06473 0.32418,4.34393 0.50372,6.62312 a 4.55206,4.55206 0 0 0 3.50108,4.38388 75.18567,75.18567 0 0 0 11.10171,1.81039 2.626,2.626 0 0 0 0.409,0.02992 2.65445,2.65445 0 0 0 2.21934,-1.192 l 0.005,-0.01 c 0.83287,-1.22188 1.22189,-5.42118 -0.28428,-6.91238 A 12.37232,12.37232 0 0 0 96.6518,56.38537 60.58247,60.58247 0 0 0 86.48267,54.0813 2.18255,2.18255 0 0 0 83.93416,54.97402 Z M 70.16424,54.41541 a 4.93254,4.93254 0 0 0 -1.43634,-0.3541 h -0.02 a 17.79349,17.79349 0 0 0 -3.31156,0.409 l 0.1197,-0.01994 A 84.90476,84.90476 0 0 0 57.1474,56.57 c -3.83523,1.31166 -5.71544,4.41375 -5.16185,8.10435 0.409,2.61334 1.59594,3.32653 3.82526,3.1021 1.99991,-0.19949 3.99981,-0.44387 5.98475,-0.788 1.64581,-0.28927 3.25172,-0.75808 4.88256,-1.13212 a 3.9683,3.9683 0 0 0 3.07716,-3.39136 28.28908,28.28908 0 0 0 0.52866,-5.501 c 0,-0.89272 -0.0399,-1.78046 -0.1197,-2.65324 l 0.01,0.11471 z M 81.655,74.1801 c 0.25435,-0.53863 0.5486,-1.13212 0.81293,-1.73558 a 7.80984,7.80984 0 0 0 0.31918,-4.39879 17.45341,17.45341 0 0 0 -3.3365,-7.77021 l 0.02992,0.04489 c -1.42636,-1.90515 -3.19685,-1.86026 -4.67309,0.02992 -0.0798,0.10473 -0.1197,0.24438 -0.20449,0.34911 a 17.12874,17.12874 0 0 0 -3.03227,7.077 l -0.015,0.10473 a 8.83431,8.83431 0 0 0 0.34911,4.85763 l -0.01995,-0.05984 c 0.60845,1.62586 1.77548,2.0797 3.37141,1.34157 0.30422,-0.14462 0.57354,-0.35908 0.88275,-0.48875 0.47379,-0.20448 0.96255,-0.36407 1.4114,-0.52866 1.167,1.03736 2.2792,1.77549 4.10953,1.177 z" />
		<path d="m 59.44655,102.73734 a 2.5094,2.5094 0 0 0 2.43879,-0.24437 9.658,9.658 0 0 1 5.501,-6.52837 c 5.44613,-2.738 11.10172,-3.46617 16.95681,-1.11217 a 16.05141,16.05141 0 0 1 5.78526,3.58587 13.12756,13.12756 0 0 1 2.47868,4.334 l 2.12958,0.0948 a 7.06968,7.06968 0 0 0 1.08723,-3.79035 c 0,-0.10971 0,-0.21944 -0.005,-0.32916 v 0.015 q 0.03492,-3.95991 0.02494,-7.92482 V 90.8078 a 9.03022,9.03022 0 0 1 0.80794,-3.74545 l -0.02493,0.05486 a 1.35491,1.35491 0 0 1 1.8453,-0.91268 c 0.9426,1.85527 0.57354,3.88011 0.47379,5.875 -0.03491,0.60346 -0.17455,1.197 -0.20448,1.79543 -0.16459,3.3764 -0.1945,6.75778 -0.50372,10.11922 a 25.22459,25.22459 0 0 1 -1.30168,5.87 l 0.05486,-0.17455 a 5.40536,5.40536 0 0 1 -8.08441,2.88265 c -1.51114,-0.89273 -2.9425,-1.93008 -4.50851,-2.69813 a 24.84549,24.84549 0 0 0 -5.05711,-1.98993 l -0.17954,-0.0399 a 10.06125,10.06125 0 0 0 -2.19441,-0.2394 10.1699,10.1699 0 0 0 -4.77284,1.182 l 0.05486,-0.0249 c -2.16948,1.0573 -4.23421,2.33405 -6.36878,3.47115 a 9.95678,9.95678 0 0 1 -2.67817,1.157 l -0.06983,0.015 a 5.5022,5.5022 0 0 1 -5.79025,-3.50607 28.84321,28.84321 0 0 1 -1.28672,-5.52093 l -0.015,-0.15461 c -0.30922,-2.87767 -0.32417,-5.79524 -0.4738,-8.69784 -0.10972,-2.08468 -0.29425,-4.16938 -0.33415,-6.25905 a 20.24684,20.24684 0 0 1 0.35909,-3.03726 l -0.02,0.12967 c 1.00245,-0.48876 1.69568,-0.1995 1.965,0.5885 a 13.28463,13.28463 0 0 1 0.84784,3.64072 l 0.005,0.05486 c 0.13466,2.70311 0.04489,5.4162 0.06982,8.13428 a 9.424,9.424 0 0 0 1.00245,4.01976 l -0.02494,-0.0549 z" />
	</g>
</svg>
