<?xml version="1.0" standalone="no"?>
<!DOCTYPE svg PUBLIC "-//W3C//DTD SVG 20010904//EN"
 "http://www.w3.org/TR/2001/REC-SVG-20010904/DTD/svg10.dtd">
<svg version="1.0" xmlns="http://www.w3.org/2000/svg"
 width="600.000000pt" height="600.000000pt" viewBox="0 0 600.000000 600.000000"
 preserveAspectRatio="xMidYMid meet">
<metadata>
Created by potrace 1.10, written by Peter Selinger 2001-2011
</metadata>
<g transform="translate(0.000000,600.000000) scale(0.100000,-0.100000)"
fill="#000000" stroke="none">
<path d="M517 5651 c-29 -66 -53 -75 -207 -81 l-135 -5 0 -40 0 -40 136 -3
136 -3 35 -33 c19 -18 39 -49 44 -67 l10 -34 89 -2 c147 -5 132 18 137 -210 3
-182 6 -202 26 -241 48 -92 156 -166 232 -160 l35 3 2 230 c1 183 4 229 15
227 23 -5 1028 -1020 1029 -1039 0 -10 0 -84 -1 -164 -1 -127 1 -147 15 -153
9 -3 85 -6 169 -6 l153 0 254 -256 c140 -140 262 -260 272 -265 15 -9 58 31
279 255 l261 266 164 0 c123 0 163 3 164 13 0 6 0 78 -1 160 l-1 147 517 525
c284 289 521 525 525 525 5 0 10 -105 11 -232 l3 -233 35 -3 c21 -2 56 6 85
19 54 24 145 110 145 138 0 9 6 23 13 29 8 9 13 72 17 215 l5 202 110 3 c113
3 124 7 125 47 1 21 21 48 54 75 14 11 54 16 145 20 l126 5 0 40 0 40 -126 5
c-130 5 -145 10 -179 55 -8 11 -17 29 -20 40 -6 20 -7 20 -2446 23 l-2440 2
-17 -39z m1580 -328 c11 -25 5 -843 -7 -843 -6 0 -680 671 -839 835 -1 2 0 8
4 14 4 8 138 11 420 11 385 0 415 -1 422 -17z m1038 -138 l0 -150 -42 -3 c-44
-3 -52 -12 -48 -52 1 -14 3 -31 4 -37 1 -10 28 -13 101 -13 121 0 124 -6 43
-82 -96 -90 -119 -111 -170 -161 l-50 -48 -89 82 c-171 157 -195 181 -191 193
2 7 42 13 103 16 l99 5 3 47 3 47 -43 3 -43 3 -5 138 c-3 76 -1 145 3 153 7
12 37 14 165 12 l157 -3 0 -150z m1560 145 c9 -15 -839 -865 -854 -856 -16 10
-16 837 1 854 16 16 843 17 853 2z m-1495 -1509 c0 -11 -218 -231 -228 -231
-14 0 -233 226 -226 233 11 11 454 8 454 -2z"/>
<path d="M3715 3432 c-55 -54 -165 -158 -245 -232 -80 -74 -183 -170 -229
-215 -46 -44 -95 -91 -110 -105 -123 -116 -151 -140 -160 -140 -6 0 -29 17
-50 38 -172 165 -223 214 -351 332 -80 74 -181 169 -225 212 -161 155 -210
198 -228 198 -16 0 -17 -46 -17 -867 0 -478 0 -874 0 -880 0 -41 -95 25 -229
158 -103 104 -213 246 -268 348 -29 52 -51 98 -68 136 -10 22 -24 53 -31 68
-8 16 -14 35 -14 42 0 8 -6 29 -14 47 -16 39 -35 113 -47 183 -5 28 -14 86
-22 130 l-13 80 -154 0 -155 0 -8 -30 c-24 -80 -84 -152 -153 -184 -23 -11
-46 -26 -50 -32 -9 -15 22 -161 58 -264 5 -16 14 -43 18 -60 10 -36 37 -109
49 -133 4 -9 16 -35 26 -57 9 -22 21 -47 26 -55 5 -8 12 -22 15 -30 3 -8 9
-22 14 -30 5 -8 21 -37 36 -65 31 -59 134 -215 154 -235 3 -3 31 -36 62 -75
73 -91 156 -176 243 -251 81 -70 191 -154 200 -154 3 0 22 -12 41 -27 65 -49
392 -213 425 -213 6 0 173 162 371 360 198 198 363 360 367 360 5 0 168 -163
364 -362 l356 -361 43 17 c206 85 349 166 513 290 44 33 97 76 117 95 21 18
46 40 57 47 21 15 170 178 213 234 48 62 118 160 118 165 0 2 14 25 31 50 32
48 142 258 152 291 3 10 15 44 27 74 37 97 86 264 94 320 2 19 6 42 8 50 2 10
-15 24 -47 40 -67 33 -135 105 -161 171 l-22 54 -146 3 c-144 3 -146 2 -150
-20 -19 -88 -26 -133 -26 -160 0 -53 -55 -238 -106 -355 -104 -242 -289 -482
-479 -625 -73 -54 -91 -62 -99 -41 -4 9 -6 401 -6 872 0 471 0 864 0 874 0 9
-3 17 -7 17 -5 0 -53 -44 -108 -98z"/>
<path d="M730 3151 c-58 -31 -84 -75 -84 -146 -1 -70 18 -104 76 -141 67 -43
158 -25 211 42 18 23 22 41 22 95 0 78 -18 110 -81 146 -47 27 -97 28 -144 4z"/>
<path d="M5058 3149 c-85 -44 -115 -154 -63 -231 56 -82 148 -102 223 -48 68
49 92 115 66 182 -22 54 -40 75 -86 99 -47 24 -93 24 -140 -2z"/>
<path d="M200 2868 c0 -125 34 -345 76 -494 8 -28 14 -58 14 -67 0 -9 6 -31
14 -49 8 -18 24 -62 35 -98 33 -103 52 -154 62 -165 5 -5 9 -15 9 -23 0 -15
120 -259 150 -307 11 -16 24 -39 29 -50 5 -11 21 -37 35 -58 14 -21 26 -41 27
-45 0 -4 48 -70 107 -147 l107 -140 180 -7 c153 -6 182 -10 192 -25 9 -12 13
-64 13 -174 l0 -158 78 -59 c80 -61 156 -113 182 -125 8 -4 29 -16 45 -27 17
-11 39 -24 50 -30 11 -6 40 -22 64 -35 24 -14 52 -25 61 -25 14 0 410 388 410
403 0 3 -21 16 -47 28 -140 65 -187 89 -278 143 -116 69 -229 152 -334 245
-113 99 -156 145 -291 307 -24 29 -144 205 -153 224 -4 8 -16 30 -28 49 -23
39 -85 160 -106 208 -39 91 -46 109 -83 213 -6 19 -16 51 -20 70 -4 19 -12 49
-18 65 -6 17 -18 70 -29 119 -17 86 -19 90 -53 105 -19 9 -49 26 -67 38 -37
27 -103 123 -103 150 0 39 -18 43 -177 43 l-153 0 0 -102z"/>
<path d="M5412 2953 c-5 -10 -15 -34 -21 -55 -16 -50 -82 -121 -135 -146 -41
-20 -44 -24 -59 -84 -8 -35 -21 -85 -27 -113 -7 -27 -16 -66 -20 -85 -5 -19
-14 -51 -20 -70 -23 -64 -40 -109 -56 -152 -22 -56 -139 -294 -164 -333 -11
-16 -23 -37 -27 -45 -3 -8 -25 -40 -48 -70 -23 -30 -46 -62 -51 -71 -20 -37
-139 -175 -219 -254 -199 -199 -452 -371 -712 -482 -24 -10 -42 -23 -40 -30 4
-22 389 -403 406 -403 9 1 34 12 56 25 22 14 50 29 63 35 12 5 50 28 83 50 33
22 62 40 64 40 5 0 146 101 155 110 3 3 24 20 47 38 l41 32 7 150 c5 100 12
153 20 160 7 6 80 13 161 17 85 3 155 11 163 17 34 27 236 308 281 391 6 11
26 47 45 80 52 92 102 198 145 305 12 30 28 70 36 88 8 18 14 39 14 47 0 8 6
29 14 47 35 84 92 321 106 443 5 39 13 106 20 150 6 44 10 103 8 130 l-3 50
-162 3 c-147 2 -163 1 -171 -15z"/>
<path d="M2425 1056 c-300 -302 -545 -555 -545 -562 0 -8 12 -16 28 -20 15 -3
43 -11 62 -18 79 -29 107 -38 140 -46 19 -4 49 -12 65 -18 78 -25 311 -68 481
-88 160 -18 537 -16 679 5 196 29 339 57 450 88 117 33 162 46 195 59 19 7 44
14 55 16 56 9 31 38 -520 588 l-545 545 -545 -549z m768 32 c104 -104 187
-192 185 -197 -7 -19 -389 -401 -400 -401 -18 0 -398 382 -398 400 0 8 89 104
197 212 165 165 199 195 212 185 9 -6 101 -96 204 -199z"/>
<path d="M2872 995 c-72 -72 -92 -99 -86 -112 3 -10 48 -58 100 -107 l92 -88
96 92 c53 51 96 100 96 109 0 18 -179 201 -195 200 -6 0 -52 -43 -103 -94z"/>
</g>
</svg>
