<svg width="100.3" height="90.2" viewBox="0 0 100.3 90.2"><g id="stasis_key_0" fill-rule="evenodd"><title>stasis_key_0</title><path unicode="E076" d="M 47.4 63.1 L 47 63.4 C 41.4 67 35 69.3 28.3 70.2 L 28.3 39.8 C 28.3 33.3 32.7 28.9 39.3 28.9 L 64.6 28.9 L 64.7 28.4 C 64.873 27.274 64.971 25.848 64.93 24.058 A 38.807 38.807 0 0 0 64.9 23.2 C 64.9 21.3 64.7 19.5 64.2 17.8 L 64.1 17.3 L 63.6 17.3 A 884.319 884.319 0 0 1 60.512 17.346 C 56.441 17.4 53.938 17.4 51.5 17.4 A 169.678 169.678 0 0 1 47.86 17.476 C 46.352 17.492 44.644 17.498 42.505 17.499 A 4317.586 4317.586 0 0 1 39.3 17.5 C 27 17.5 16.9 27.5 16.9 39.8 L 16.9 82.9 L 17.6 82.9 A 12.173 12.173 0 0 1 17.66 82.897 C 17.953 82.881 19.302 82.815 21.449 82.802 A 123.305 123.305 0 0 1 22.2 82.8 L 23.6 82.8 L 26 82.7 C 33 82.5 39.9 80.9 46 78.2 C 46 78.2 46.1 78.1 46.1 78.1 L 57.6 90.2 L 74.5 90.2 L 47.8 63.5 L 47.4 63.1 Z M 62.4 11.7 L 62.2 10.9 C 61.15 7.575 59.028 4.403 56.906 1.518 A 162.824 162.824 0 0 0 56 0.3 L 55.8 0 L 22.9 0.1 C 10.3 0.1 0 10.3 0 22.8 L 0 90.2 L 11.6 90.2 L 11.6 22.8 C 11.6 17.061 15.078 12.91 20.39 11.924 A 13.753 13.753 0 0 1 22.9 11.7 L 62.4 11.7 Z M 76.9 0.4 L 76.8 0 L 61.9 0 L 62.7 1 C 67.5 7.6 70.3 16.2 70.3 24.7 C 70.3 37.7 64.2 50.2 53.6 59 L 53.1 59.4 L 83.7 90 L 83.9 90.2 L 100.3 90.2 L 71.2 61.1 L 70.2 60 C 78.3 50 82.9 37.5 82.9 24.7 C 82.9 17 80.8 8.4 76.9 0.4 Z"/></g></svg>