<svg width="89.7" height="90.206" viewBox="0 0 89.7 90.206"><g id="stasis_key_1" fill-rule="evenodd"><title>stasis_key_1</title><path unicode="E077" d="M 72.7 10.906 L 72.7 0.006 L 62.2 0.006 C 59.5 0.006 56.8 0.206 54.4 1.006 A 22.643 22.643 0 0 0 46.537 5.698 A 23.884 23.884 0 0 0 46.1 6.106 C 43.3 8.706 41.4 11.906 40.2 15.606 C 39.5 17.806 39 20.206 39 22.606 L 39 63.606 C 36.9 62.906 35.1 61.806 33.4 60.506 A 18.408 18.408 0 0 1 27.114 48.971 A 18.993 18.993 0 0 1 27 47.906 L 17.7 47.906 A 26.892 26.892 0 0 0 21.793 60.695 A 36.304 36.304 0 0 0 21.8 60.706 C 25.6 66.906 31.7 71.606 39 73.206 L 39 89.706 C 41.2 90.006 43.4 90.206 45.7 90.206 C 47.6 90.206 49.5 90.106 51.3 89.906 L 51.3 73.206 C 62.9 70.506 71.8 60.306 72.7 47.906 L 62.8 47.906 A 17.863 17.863 0 0 1 56.239 60.55 A 17.929 17.929 0 0 1 51.3 63.406 L 51.3 21.606 A 11.42 11.42 0 0 1 51.469 19.602 A 10.605 10.605 0 0 1 52.6 16.406 A 10.082 10.082 0 0 1 59.384 11.244 A 14.319 14.319 0 0 1 61.4 10.906 L 72.7 10.906 Z M 17.7 23.706 L 17.7 10.306 C 17.3 10.706 16.8 11.006 16.4 11.406 A 26.137 26.137 0 0 1 15.478 12.18 C 15.322 12.306 15.167 12.431 15.013 12.556 A 16.928 16.928 0 0 0 13.7 13.706 C 12.8 14.506 12 15.306 11.2 16.306 A 23.413 23.413 0 0 0 9 18.898 A 42.53 42.53 0 0 0 8.7 19.306 A 8.548 8.548 0 0 0 8.466 19.549 C 8.137 19.905 7.901 20.234 7.675 20.66 A 6.944 6.944 0 0 0 7.6 20.806 C 6.7 22.206 5.8 23.406 5.1 24.906 C 4.4 26.206 3.7 27.706 3.1 29.206 C 2.9 29.506 2.8 30.006 2.6 30.506 C 2.1 31.906 1.7 33.306 1.4 34.706 C 1 35.906 0.8 37.206 0.6 38.506 C 0.4 39.206 0.3 39.906 0.3 40.606 A 33.649 33.649 0 0 0 0.077 42.943 C 0.059 43.222 0.045 43.503 0.033 43.784 A 39.912 39.912 0 0 0 0 45.406 A 35.33 35.33 0 0 0 0.109 48.022 A 68.058 68.058 0 0 0 0.2 49.106 A 27.243 27.243 0 0 0 0.54 52.074 A 12.764 12.764 0 0 0 0.7 52.806 C 0.9 54.006 1.1 55.206 1.5 56.406 A 19.136 19.136 0 0 0 1.95 58.34 A 14.933 14.933 0 0 0 2.5 59.906 A 88.116 88.116 0 0 0 3.113 61.556 A 30.774 30.774 0 0 0 3.8 63.206 A 29.923 29.923 0 0 0 5.97 67.428 A 58.68 58.68 0 0 0 7.3 69.506 C 8 70.406 8.6 71.406 9.3 72.306 A 57.058 57.058 0 0 1 11.534 74.922 A 25.235 25.235 0 0 1 11.6 75.006 A 5.098 5.098 0 0 1 11.882 75.316 C 12.049 75.512 12.203 75.709 12.4 75.906 A 16.257 16.257 0 0 1 13.876 77.192 C 14.161 77.467 14.438 77.744 14.7 78.006 C 15.8 79.006 17 79.906 18.2 80.806 C 18.299 80.905 18.495 81.004 18.596 81.102 A 0.439 0.439 0 0 1 18.6 81.106 A 36.095 36.095 0 0 0 23.213 83.876 A 849.287 849.287 0 0 0 24.8 84.706 C 24.973 84.879 25.146 84.977 25.384 85.001 A 1.189 1.189 0 0 0 25.5 85.006 A 0.738 0.738 0 0 0 25.593 85.086 C 25.762 85.206 25.931 85.206 26.1 85.206 C 28.2 86.206 30.5 87.106 32.9 87.706 L 32.9 76.906 C 20.5 72.006 11.2 59.306 11.2 45.306 C 11.2 42.806 11.6 40.106 11.6 40.106 A 30.03 30.03 0 0 1 11.856 38.595 C 12.079 37.456 12.337 36.467 12.546 35.732 A 39.441 39.441 0 0 1 12.7 35.206 A 41.427 41.427 0 0 1 13.064 33.842 C 13.5 32.319 14.175 30.331 15.3 28.006 A 27.998 27.998 0 0 1 16.202 26.234 C 16.638 25.443 17.138 24.606 17.7 23.706 Z M 72.7 10.906 L 72.7 24.906 A 28.971 28.971 0 0 1 73.663 26.531 C 73.95 27.056 74.2 27.556 74.4 28.006 A 37.539 37.539 0 0 1 75.383 30.214 C 75.996 31.722 76.411 33.032 76.708 34.096 A 42.708 42.708 0 0 1 77 35.206 A 34.93 34.93 0 0 1 77.147 35.708 C 77.443 36.753 77.83 38.321 78 40.106 A 9.535 9.535 0 0 1 78.012 40.175 C 78.089 40.611 78.5 43.041 78.5 45.306 C 78.5 59.306 69.2 72.006 56.8 76.906 L 56.8 87.706 C 59.1 87.106 61.5 86.206 63.6 85.206 A 0.973 0.973 0 0 0 63.984 85.154 C 64.038 85.132 64.092 85.1 64.145 85.056 A 0.779 0.779 0 0 0 64.2 85.006 C 64.481 85.006 64.674 84.919 64.861 84.744 A 1.568 1.568 0 0 0 64.9 84.706 C 67 83.606 69.1 82.506 71.1 81.106 A 0.654 0.654 0 0 1 71.149 81.062 C 71.254 80.977 71.399 80.892 71.4 80.807 A 0.076 0.076 0 0 0 71.4 80.806 C 72.7 79.906 73.9 79.006 74.9 78.006 C 75.617 77.379 76.333 76.672 77.05 76.1 A 10.539 10.539 0 0 1 77.3 75.906 A 4.058 4.058 0 0 0 77.645 75.512 A 8.754 8.754 0 0 0 78 75.006 L 80.4 72.306 C 81.1 71.406 81.7 70.406 82.4 69.506 A 45.41 45.41 0 0 0 83.707 67.428 A 43.785 43.785 0 0 0 85.9 63.206 C 86.4 62.106 86.8 61.006 87.1 59.906 A 19.59 19.59 0 0 0 87.852 57.681 A 140.023 140.023 0 0 0 88.2 56.406 C 88.6 55.206 88.8 54.006 89 52.806 A 20.721 20.721 0 0 0 89.481 49.349 A 184.241 184.241 0 0 0 89.5 49.106 A 60.831 60.831 0 0 0 89.623 47.564 A 33.274 33.274 0 0 0 89.7 45.406 A 39.912 39.912 0 0 0 89.667 43.784 C 89.628 42.831 89.555 41.878 89.448 40.985 A 28.539 28.539 0 0 0 89.4 40.606 C 89.4 39.906 89.3 39.206 89.1 38.506 C 88.9 37.206 88.7 35.906 88.3 34.706 C 88 33.306 87.5 31.906 87.1 30.506 C 86.908 30.027 86.808 29.548 86.624 29.245 A 1.076 1.076 0 0 0 86.6 29.206 C 86 27.706 85.3 26.206 84.5 24.906 C 84.124 23.965 83.629 23.142 83.091 22.314 A 327.384 327.384 0 0 1 82.1 20.806 A 3.841 3.841 0 0 0 81.649 20.108 C 81.495 19.917 81.326 19.737 81.142 19.549 A 39.084 39.084 0 0 0 80.9 19.306 C 80.2 18.206 79.4 17.206 78.5 16.306 C 77.6 15.306 76.9 14.506 76 13.706 C 75.1 12.906 74.2 12.206 73.3 11.406 C 73.115 11.314 72.93 11.136 72.746 10.952 A 44.423 44.423 0 0 1 72.7 10.906 Z"/></g></svg>