<svg width="81.4" height="90.001" viewBox="0 0 81.4 90.001"><g id="stasis_key_3" fill-rule="evenodd"><title>stasis_key_3</title><path unicode="E079" d="M 0 22.6 L 0 76.9 L 13.9 76.9 L 13.9 22.6 A 8.742 8.742 0 0 1 15.528 17.537 A 11.687 11.687 0 0 1 19.6 14 A 894.612 894.612 0 0 0 22.688 21.395 C 27.497 32.79 34.4 48.739 40.554 62.979 A 16338.747 16338.747 0 0 1 43.5 69.8 L 58.5 69.8 A 4092 4092 0 0 0 54.774 60.854 C 48.245 45.226 40.769 27.592 36.522 18.11 A 218.545 218.545 0 0 0 34.5 13.7 L 68.5 13.7 L 68.5 0 L 22.5 0 A 22.341 22.341 0 0 0 0.045 21.136 A 23.829 23.829 0 0 0 0 22.6 Z M 68.5 13.7 L 68.5 69.2 A 8.076 8.076 0 0 1 67.5 73.228 C 66.199 75.517 63.706 76.9 60.5 76.9 L 14 76.9 L 14 90 L 60.5 90 A 20.816 20.816 0 0 0 77.134 81.862 A 20.737 20.737 0 0 0 81.4 69.2 L 81.4 13.7 L 68.5 13.7 Z"/></g></svg>