<?xml version="1.0" standalone="no"?>
<!DOCTYPE svg PUBLIC "-//W3C//DTD SVG 20010904//EN"
 "http://www.w3.org/TR/2001/REC-SVG-20010904/DTD/svg10.dtd">
<svg version="1.0" xmlns="http://www.w3.org/2000/svg"
 width="900.000000pt" height="900.000000pt" viewBox="0 0 900.000000 900.000000"
 preserveAspectRatio="xMidYMid meet">
<metadata>
Created by potrace 1.10, written by Peter Selinger 2001-2011
</metadata>
<g transform="translate(0.000000,900.000000) scale(0.100000,-0.100000)"
fill="#000000" stroke="none">
<path d="M4180 7739 c-259 -24 -586 -99 -820 -189 -30 -12 -66 -25 -80 -30
-123 -40 -433 -204 -595 -315 -96 -65 -124 -86 -220 -161 -110 -87 -145 -120
-145 -134 0 -16 176 -190 192 -190 7 0 58 36 113 81 89 71 327 239 340 239 3
0 24 12 48 27 51 32 252 132 327 163 30 12 69 29 87 36 17 8 36 14 42 14 6 0
25 6 43 14 128 53 362 109 613 147 139 21 509 23 669 5 166 -19 387 -62 501
-97 107 -33 274 -92 357 -127 106 -46 304 -147 329 -168 8 -8 18 -14 22 -14
22 0 297 -196 396 -282 24 -21 51 -38 59 -38 21 0 192 170 192 191 0 9 -24 36
-52 60 -29 23 -57 47 -63 53 -14 15 -106 85 -185 140 -164 114 -417 255 -585
325 -44 18 -87 37 -97 41 -14 8 -138 50 -278 94 -146 46 -426 98 -621 116
-134 12 -451 11 -589 -1z"/>
<path d="M4110 7143 c-154 -26 -280 -55 -445 -103 -127 -37 -405 -161 -405
-180 0 -6 11 -30 23 -53 116 -207 189 -334 197 -347 5 -8 17 -29 26 -47 27
-55 36 -57 101 -28 132 61 184 81 288 110 129 37 215 54 337 69 59 7 114 19
123 26 13 11 15 52 15 275 0 145 -3 270 -6 279 -8 20 -130 20 -254 -1z"/>
<path d="M4610 6876 c0 -173 4 -287 10 -291 5 -3 49 -10 97 -16 105 -12 202
-32 343 -71 114 -31 131 -37 262 -93 47 -20 94 -35 103 -33 9 1 33 32 53 68
46 81 158 275 195 338 37 64 40 70 34 86 -8 21 -132 77 -357 161 -168 63 -525
135 -668 135 l-72 0 0 -284z"/>
<path d="M2940 6675 c-252 -179 -502 -432 -661 -668 -42 -64 -49 -94 -21 -104
9 -4 71 -39 137 -78 66 -39 127 -74 135 -78 8 -4 24 -13 35 -20 74 -45 156
-88 164 -85 5 1 41 45 80 96 75 99 113 142 200 230 68 68 223 200 274 231 20
12 37 30 37 39 0 10 -18 49 -41 87 -23 39 -45 79 -50 90 -6 11 -15 29 -22 40
-7 11 -30 51 -52 90 -22 38 -45 79 -52 90 -6 11 -19 34 -28 52 -31 59 -35 58
-135 -12z"/>
<path d="M5928 6727 c-8 -7 -42 -59 -75 -117 -33 -58 -90 -156 -127 -219 -36
-62 -69 -124 -72 -136 -5 -20 9 -34 98 -101 130 -98 322 -292 413 -417 39 -53
76 -97 84 -97 8 0 60 26 115 59 56 32 119 69 141 81 22 12 77 44 123 71 45 27
87 49 92 49 5 0 11 9 15 19 4 13 -10 41 -41 87 -165 244 -442 522 -686 687
-53 37 -69 43 -80 34z"/>
<path d="M2029 6631 c-8 -10 -50 -63 -94 -117 -71 -88 -130 -168 -175 -239
-122 -192 -215 -366 -293 -555 -70 -168 -138 -384 -171 -540 -59 -284 -70
-392 -69 -715 0 -275 8 -398 39 -560 24 -121 73 -334 91 -390 106 -328 204
-539 396 -850 7 -10 57 -80 112 -155 107 -146 171 -220 189 -220 6 0 50 39 98
87 89 89 104 117 73 143 -23 19 -187 238 -231 308 -68 110 -72 116 -98 162
-25 43 -123 241 -152 305 -47 106 -117 316 -147 445 -75 317 -82 375 -82 720
0 359 6 411 86 745 24 102 106 355 120 370 5 5 9 15 9 23 0 17 140 305 183
376 65 108 159 245 234 340 119 150 118 125 5 239 -53 53 -100 97 -103 97 -4
0 -13 -9 -20 -19z"/>
<path d="M6817 6552 c-48 -48 -87 -95 -87 -105 0 -9 15 -34 33 -54 77 -87 277
-368 277 -390 0 -4 6 -14 14 -22 23 -28 126 -231 176 -351 109 -263 170 -488
215 -796 19 -131 22 -577 5 -689 -6 -38 -13 -92 -16 -120 -5 -51 -17 -111 -54
-270 -60 -253 -183 -562 -308 -773 -18 -29 -32 -55 -32 -57 0 -18 -211 -313
-277 -388 -18 -20 -33 -45 -33 -55 0 -22 170 -192 191 -192 9 0 23 8 30 19 8
10 48 60 89 112 41 51 87 111 103 134 59 84 137 204 157 241 12 21 29 53 39
69 26 44 95 181 124 245 150 337 238 667 277 1032 13 127 13 512 -1 653 -24
255 -103 593 -189 815 -12 30 -25 66 -30 80 -14 45 -128 284 -174 365 -130
232 -387 585 -425 585 -9 0 -56 -39 -104 -88z"/>
<path d="M4220 6029 c-130 -24 -221 -50 -305 -85 -207 -86 -377 -197 -519
-338 -243 -241 -377 -484 -452 -826 -18 -81 -19 -154 -19 -1615 l0 -1530 100
-66 c134 -89 258 -154 278 -146 16 6 17 85 17 1002 0 676 3 995 10 995 6 0 24
-16 41 -35 43 -48 168 -151 264 -216 280 -190 642 -282 983 -250 206 20 379
68 547 152 169 85 260 147 386 267 53 50 99 89 103 85 3 -3 6 -455 6 -1003 0
-548 3 -999 6 -1003 3 -3 18 0 32 6 48 21 246 139 300 179 l52 39 0 1512 c0
1443 -1 1516 -19 1607 -35 176 -62 256 -144 430 -143 301 -456 595 -779 732
-136 58 -200 77 -363 109 -132 25 -387 25 -525 -2z m515 -628 c73 -22 78 -23
160 -61 206 -95 390 -297 471 -515 47 -126 57 -188 57 -340 0 -174 -16 -248
-88 -410 -55 -126 -209 -302 -330 -380 -279 -179 -622 -204 -914 -68 -244 114
-444 351 -514 608 -49 182 -37 422 30 590 123 311 407 546 717 596 93 15 333
3 411 -20z"/>
<path d="M2087 5677 c-50 -77 -145 -324 -191 -497 -10 -36 -24 -88 -32 -116
-8 -28 -14 -63 -14 -78 0 -16 -6 -54 -14 -85 -8 -31 -17 -96 -21 -146 -3 -49
-8 -102 -11 -116 -3 -17 1 -33 11 -43 14 -14 49 -16 270 -16 141 0 265 4 279
10 22 8 26 16 26 47 0 51 28 227 45 289 8 28 15 57 15 65 0 40 115 353 142
386 23 29 -1 58 -89 108 -48 28 -107 62 -132 77 -26 15 -53 31 -61 35 -8 4
-52 29 -97 55 -44 26 -88 48 -96 48 -8 0 -21 -10 -30 -23z"/>
<path d="M6770 5654 c-41 -25 -84 -49 -95 -55 -11 -5 -29 -15 -40 -22 -11 -7
-73 -43 -138 -80 -134 -79 -134 -79 -89 -179 64 -141 84 -201 135 -413 8 -33
20 -103 27 -155 18 -150 20 -158 36 -164 28 -11 524 -7 545 4 18 10 19 19 14
93 -6 83 -27 231 -47 322 -5 28 -14 70 -19 95 -9 47 -51 189 -74 250 -80 218
-142 350 -164 350 -9 -1 -50 -21 -91 -46z"/>
<path d="M1827 4342 c-24 -5 -25 -18 -12 -152 20 -202 78 -467 140 -630 53
-142 139 -330 151 -330 4 0 103 56 174 98 72 43 268 156 295 170 32 17 31 28
-4 104 -56 121 -121 307 -121 347 0 12 -4 31 -10 41 -8 16 -45 235 -52 315
l-3 30 -271 5 c-149 3 -278 4 -287 2z"/>
<path d="M6586 4308 c-2 -18 -10 -73 -16 -123 -6 -49 -19 -121 -27 -160 -16
-72 -80 -288 -94 -315 -26 -53 -69 -166 -69 -181 0 -11 21 -30 58 -51 31 -18
66 -38 77 -45 11 -7 27 -15 35 -19 8 -4 47 -27 87 -51 39 -24 75 -43 79 -43 4
0 15 -6 23 -14 25 -21 110 -66 126 -66 25 0 128 233 188 425 55 174 104 440
109 585 l3 85 -287 3 -287 2 -5 -32z"/>
<path d="M6267 3283 c-12 -11 -8 -811 4 -818 27 -17 284 265 419 458 57 82 59
97 14 121 -10 6 -38 23 -62 39 -24 15 -45 27 -48 27 -4 0 -184 105 -224 130
-22 14 -89 50 -93 50 -2 0 -7 -3 -10 -7z"/>
<path d="M2532 3195 c-79 -47 -145 -85 -148 -85 -9 0 -140 -84 -146 -94 -10
-15 15 -54 120 -193 108 -142 307 -353 333 -353 19 0 19 14 17 402 -3 349 -5
403 -18 405 -8 2 -79 -35 -158 -82z"/>
<path d="M2407 2121 c-48 -50 -87 -94 -87 -100 0 -26 336 -291 370 -291 16 0
20 34 20 177 l0 145 -38 37 c-73 70 -141 121 -160 121 -11 0 -56 -39 -105 -89z"/>
<path d="M6358 2139 c-49 -39 -90 -80 -93 -92 -3 -12 -4 -87 -3 -167 3 -124 5
-145 19 -148 14 -2 223 144 269 189 8 8 34 29 58 47 23 19 42 41 42 50 0 21
-169 192 -190 192 -8 0 -54 -32 -102 -71z"/>
</g>
</svg>
