<?xml version="1.0" encoding="UTF-8" standalone="no"?>
<svg
   xmlns:svg="http://www.w3.org/2000/svg"
   xmlns="http://www.w3.org/2000/svg"
   xmlns:sodipodi="http://sodipodi.sourceforge.net/DTD/sodipodi-0.dtd"
   xmlns:inkscape="http://www.inkscape.org/namespaces/inkscape"
   version="1.0"
   width="1000"
   height="1000"
   inkscape:version="1.0.1 (3bc2e813f5, 2020-09-07)"
   sodipodi:docname="king's_fall.svg">
  <defs />
  <sodipodi:namedview
     inkscape:zoom="0.55625"
     inkscape:cx="581.40325"
     inkscape:cy="476.17057"
     inkscape:window-width="1754"
     inkscape:window-height="1057"
     inkscape:window-x="158"
     inkscape:window-y="-8"
     inkscape:window-maximized="1" />
  <path
     d="m 500.552,12.560687 c -0.66578,6.324889 -1.498,14.647 -1.66444,18.808111 -0.99867,17.143666 -4.32756,47.935666 -5.82545,54.926222 -0.83233,4.161111 -1.498,11.984 -1.498,17.47667 -0.16655,10.153 -3.82822,30.12622 -7.65644,40.77855 -4.82678,13.81478 -6.15845,17.80945 -7.48989,22.46978 -2.16378,7.98933 -5.15978,16.31144 -7.65645,21.30478 -1.33155,2.66311 -2.33022,5.49255 -2.33022,6.15844 0,3.09356 -19.11855,33.64311 -23.29033,37.41145 -0.31734,0.28655 -0.66,0.564 -0.66,0.564 0,0 -0.46767,-0.38311 -0.69545,-0.53867 -4.34289,-2.96589 -9.32477,-20.45556 -12.80389,-45.759 -1.33166,-10.48589 -2.49666,-22.80267 -2.49666,-27.13022 0,-4.32756 -0.99867,-13.31545 -2.33034,-19.97311 -1.33144,-6.65778 -2.82944,-16.478 -3.49522,-21.97067 -0.99866,-10.31933 -3.64178,-24.641 -5.32611,-29.127444 -0.211,-0.561667 -0.60655,-1.637223 -0.60655,-1.637223 0,0 -0.73367,1.669223 -1.03889,2.719223 -1.119,3.848444 -2.07023,13.409114 -2.18289,23.884444 0,7.82278 -0.83211,18.97456 -1.66434,24.96644 -0.99866,5.992 -2.82955,23.13567 -4.16111,38.282 -1.498,15.14634 -3.32889,31.62423 -4.32755,36.61756 -0.99867,4.99322 -2.33022,25.63222 -3.16234,45.77189 -1.66444,48.60144 -1.498,48.10211 -24.30077,73.40144 -6.32489,6.99067 -12.48323,14.14767 -13.64834,15.81211 -0.90733,1.29612 -2.42022,2.49134 -3.67422,2.95689 -0.16433,0.0611 -0.31989,0.30167 -0.31989,0.30167 0,0 -0.50755,-0.0956 -0.66633,-0.0956 -1.498,0 -8.65511,-5.992 -16.145,-13.14911 -7.48989,-7.32344 -18.30878,-17.64289 -23.96778,-23.13555 -9.32089,-8.98789 -27.13033,-21.97056 -39.61355,-28.79467 -6.82412,-3.82822 -22.80267,-12.81622 -25.79867,-14.81355 -1.33156,-0.83212 -6.32478,-3.49523 -11.15178,-5.82545 -4.66033,-2.33022 -9.15433,-4.99322 -9.65367,-5.82555 -1.66433,-2.663 -14.31411,-1.99734 -17.643,0.99866 -2.49666,2.33034 -3.66166,1.99734 -13.48188,-2.49666 -7.48989,-3.66167 -13.31545,-5.15967 -18.97445,-5.15967 -4.494,0 -9.65378,-0.99867 -11.48467,-2.33022 -8.82144,-5.992 -22.80266,-12.64978 -26.46444,-12.64967 -2.82222,0 -4.89167,-0.0422 -7.92822,-1.04244 0,0 3.35378,4.50277 5.70189,6.29955 2.81644,2.15511 7.68689,4.926 14.54311,8.22478 4.99333,2.49667 10.65233,5.992 12.31678,7.98933 1.83088,1.99734 4.16111,3.49534 5.32622,3.49534 1.16511,0 3.82822,2.16366 5.992,4.99322 1.99733,2.66311 4.99333,4.99333 6.65766,4.99333 5.82556,0 15.47934,6.65767 26.79734,18.64156 10.65244,11.31822 11.31822,12.48322 10.31955,17.97589 -0.66577,3.16244 -1.43977,6.35733 -1.83089,6.99066 -0.45722,0.74034 -0.906,2.17978 -0.906,2.17978 0,0 -2.85844,-0.99744 -3.85244,-1.61222 -1.03522,-0.64045 -2.05389,-1.67756 -2.89789,-3.06422 -3.66178,-5.49267 -13.149,-14.48056 -18.14233,-16.97723 -3.32889,-1.83089 -4.82689,-1.83089 -6.32489,-0.33289 -1.33156,1.33156 -2.33022,1.33156 -3.82811,-0.16644 -1.26422,-1.26411 -3.091,-1.89078 -4.786,-1.89744 -2.51211,-0.0445 -4.33611,0.35011 -6.48311,-1.04256 0,0 1.91433,5.52111 2.40333,6.98411 1.21811,3.64378 5.37922,8.92389 13.69256,17.59345 9.32088,9.82022 10.65233,11.81755 9.65366,15.97866 -0.15011,0.751 -0.88389,0.98367 -0.88389,0.98367 0,0 1.04956,2.61433 1.49045,3.46867 1.562,3.02655 5.81222,7.519 15.705,17.51811 9.48722,9.65377 25.29933,28.29533 35.28589,41.61089 9.98655,13.31533 19.80677,25.96511 21.80411,28.29533 27.796,32.12355 31.62422,37.11678 47.43633,60.91822 12.98256,19.47378 13.64833,20.30611 20.63889,33.28867 2.33022,4.49389 5.65911,10.153 7.15711,12.64966 1.498,2.33012 8.48856,13.48189 15.31278,24.63356 6.82422,10.98522 13.81478,22.137 15.31278,24.63356 2.996,4.827 8.48855,14.48066 13.48189,23.635 1.66444,3.16244 4.49388,7.98933 6.15844,10.81877 1.66444,2.66311 4.99322,8.32223 7.157,12.48323 2.33022,4.16111 5.65911,10.15311 7.65644,13.31555 1.83078,3.16245 3.99467,6.99056 4.66034,8.32211 0.66578,1.33156 2.996,5.82556 5.49266,9.98667 5.49267,9.48722 13.64834,29.46033 17.47656,42.443 1.66444,5.49267 3.99467,12.98255 4.99322,16.64433 1.16522,3.66167 3.49534,11.15167 4.99334,16.64434 1.66444,5.49266 3.82822,12.64966 4.99333,15.812 1.99722,5.65911 4.16111,12.98266 9.65367,31.62433 4.494,15.14633 7.82288,30.792 7.82288,36.11811 0,2.66311 1.165,8.65511 2.49667,13.149 1.33145,4.494 2.49667,11.31822 2.49667,15.31289 0,8.15567 3.82811,37.61611 7.48989,57.75567 1.33155,7.32355 2.82944,21.13833 3.32877,30.792 0.49945,9.65377 1.50567,19.13911 1.99734,21.13833 0.57144,2.32367 2.95378,5.89522 2.95378,5.89522 0,0 3.22088,-3.85955 4.70266,-7.39322 l 2.16378,-5.15967 2.49667,3.99467 c 1.83089,2.82944 2.996,9.82011 3.49533,22.80267 0.49922,10.486 1.66444,19.64033 2.66311,20.639 0.35122,0.35122 1.347,1.26244 1.347,1.26244 0,0 0.40645,-1.09022 0.74067,-1.90778 0.88455,-2.16433 1.53144,-7.44933 2.23978,-17.16411 2.16377,-33.28867 7.32355,-70.90489 11.984,-89.21355 1.33144,-4.99334 2.33011,-12.64967 2.33011,-16.81078 0,-8.98789 4.16111,-30.62556 7.98933,-42.11022 0.99867,-2.82945 2.66311,-9.82012 3.82822,-15.812 4.82678,-26.13167 6.82411,-33.788 13.149,-49.933 1.99734,-4.99334 4.161,-11.48467 4.99334,-14.14767 0.83211,-2.82956 2.33011,-7.65645 3.49522,-10.81889 0.99866,-3.16244 2.82955,-8.48856 3.99466,-11.651 1.16512,-3.16244 3.66178,-10.65244 5.49267,-16.64433 7.32345,-22.63623 14.48045,-39.28056 21.97045,-50.76511 1.83088,-2.82967 3.99466,-6.49134 4.99333,-8.32223 0.99867,-1.83089 3.16233,-5.65911 4.99333,-8.32211 1.83078,-2.82966 3.99467,-6.49133 4.99322,-8.32222 0.99867,-1.83089 3.16245,-5.65911 4.99334,-8.32211 1.83089,-2.82967 3.99466,-6.49133 4.99333,-8.32222 0.99867,-1.83089 3.16245,-5.65911 4.99322,-8.32211 1.83089,-2.82956 3.99467,-6.49134 4.99334,-8.32223 1.83089,-3.82811 3.16244,-5.82544 12.98255,-20.47244 3.82822,-5.82556 6.99067,-10.81889 6.99067,-11.15178 0,-0.16644 5.49267,-8.655 12.15033,-18.64155 15.81211,-23.96789 15.81211,-24.13434 17.80934,-27.96256 0.99866,-1.83078 3.16255,-5.65911 4.99333,-8.32211 1.831,-2.82956 3.82822,-6.15845 4.494,-7.49 0.99867,-2.16367 17.643,-25.29933 22.63633,-31.62422 1.165,-1.33145 4.99334,-6.32478 8.32211,-10.81878 5.65911,-7.32356 24.13423,-28.46178 31.12489,-35.45233 2.49667,-2.49667 8.15567,-9.65378 28.29534,-35.619 5.82555,-7.65634 18.47522,-21.47112 27.796,-30.95834 12.64966,-12.64966 17.14366,-18.30878 17.14366,-21.47122 0,-2.82956 3.16245,-7.32344 9.98667,-14.31411 3.838,-3.98022 6.18889,-6.47322 7.41544,-8.179 0.86023,-1.19622 1.78689,-3.10956 1.78689,-3.10956 0,0 -1.32178,-0.64211 -2.04533,-1.19477 -1.50811,-1.15178 -2.92645,-4.15645 -2.996,-6.65767 -0.0656,-2.35511 -0.77622,-4.87156 -0.77622,-4.87156 0,0 -2.41378,0.0111 -3.55123,-0.12177 -2.50333,-0.27812 -5.328,0.83066 -7.32355,2.996 -3.02633,3.284 -7.38122,3.445 -7.38122,3.445 0,0 -0.0978,-4.16356 2.38789,-7.43967 2.15288,-2.83778 2.16377,-3.66167 0,-6.99056 -2.33012,-3.66177 -2.16367,-4.16111 4.66044,-9.48722 3.82822,-3.16244 9.15444,-6.15844 11.651,-6.82422 2.82956,-0.66578 5.15978,-2.66311 6.15844,-5.15967 0.83223,-2.33033 2.82956,-4.16111 4.32756,-4.16111 1.49789,0 5.49256,-1.99733 8.82144,-4.66044 3.32889,-2.49667 7.49,-5.32611 9.32078,-6.32478 1.831,-0.99867 3.329,-3.329 3.329,-4.99333 0,-0.77 -0.0455,-2.12978 -0.0455,-2.12978 0,0 -2.42167,-1.31856 -3.68078,-1.56511 -2.24567,-0.43967 -4.94856,0.19789 -6.426,2.19689 -1.66445,2.16366 -3.49533,2.663 -8.48867,1.66433 -5.659,-0.83211 -7.48989,-0.33278 -13.81466,4.494 -4.16112,2.996 -9.98667,6.32489 -12.81623,7.49 -4.99333,1.66444 -5.49266,1.498 -5.49266,-1.33156 0,-1.66444 1.498,-3.82822 3.32889,-4.82677 1.83088,-0.99867 3.32888,-2.49667 3.32888,-3.329 0,-0.55034 0.0478,-1.15834 0.0478,-1.15834 0,0 -2.21178,-0.561 -3.61555,-0.338 -3.04778,0.48411 -7.98634,2.43545 -14.57511,5.82389 -9.32078,4.66045 -12.81612,5.65911 -16.97723,4.82689 -2.82955,-0.66578 -5.659,-0.49933 -6.32477,0.16644 -0.49934,0.83223 -3.16245,2.996 -5.992,4.99334 -16.31145,11.31811 -27.796,18.97444 -28.62823,18.97444 -0.49933,0 -3.66177,1.99734 -6.99066,4.494 -3.32878,2.66311 -7.32345,5.32622 -8.82145,6.32489 -11.651,7.157 -25.79866,17.97578 -39.44711,30.62545 -18.448,17.161 -29.03211,25.96666 -32.386,27.156 -0.264,0.0933 -0.70744,0.4 -0.70744,0.4 0,0 -0.27256,-0.31912 -0.36167,-0.42567 -16.14122,-19.31056 -21.63756,-26.96378 -20.63889,-29.12756 0.49933,-1.66444 -2.33022,-5.992 -8.15578,-12.48322 -4.99322,-5.49267 -9.82011,-11.31822 -10.81877,-12.98255 -2.99589,-5.82556 -5.32623,-26.29812 -4.99323,-43.941 0.33289,-18.47534 -2.33033,-46.937 -5.15977,-56.59078 -0.99867,-3.16245 -1.83089,-12.15034 -1.83089,-19.97322 0,-7.82278 -1.16511,-20.47245 -2.49667,-28.29534 -1.33156,-7.82278 -2.49667,-21.97055 -2.49667,-31.45778 0,-12.15033 -0.83222,-19.64022 -2.82955,-25.29933 -1.06867,-2.872221 -2.13734,-5.127888 -3.05545,-6.573332 -0.73266,-1.153445 -2.13122,-2.657556 -2.13122,-2.657556 0,0 -0.42222,1.263667 -0.47233,2.240222 -0.0422,0.831112 -0.66578,9.154446 -1.498,18.808116 -1.66445,21.804 -4.32756,35.61888 -8.48867,43.60811 -1.83078,3.49533 -3.82811,11.651 -4.82678,18.30877 -4.66044,36.28467 -5.49266,42.94234 -6.49133,52.76245 -0.49933,5.992 -1.82856,10.99111 -2.663,11.31822 -0.11233,0.0444 -0.35033,0.24556 -0.35033,0.24556 0,0 -0.79145,-0.77334 -1.24767,-1.21989 -1.68889,-1.65289 -4.28744,-5.21822 -6.72422,-9.51156 -3.66178,-5.992 -7.98934,-12.98266 -9.48722,-15.31289 -6.82423,-10.65233 -16.47789,-32.62277 -19.64034,-45.27244 -0.83222,-3.16245 -3.16244,-9.98667 -5.15978,-14.98 -1.83077,-4.99333 -4.16111,-12.15033 -4.99333,-15.812 -0.66578,-3.66178 -2.16378,-9.32089 -3.16244,-12.48333 -0.83211,-3.16234 -1.66434,-10.98523 -1.66434,-17.47656 0,-6.32478 -0.83222,-14.647 -1.83089,-18.308778 -1.33155,-5.659 -3.49533,-27.463 -7.65644,-77.063222 C 506.53844,7.5212422 506.00311,4.5782422 505.37311,2.8839089 504.96144,1.7766867 504.08044,2e-5 504.08044,2e-5 c 0,0 -1.03577,1.6585556 -1.52211,2.8012222 -0.76455,1.7958889 -1.47766,5.0563334 -2.00611,9.7599998 z m 5.82544,253.160223 c 0,1.66433 1.16512,4.494 2.49667,6.32478 1.33156,1.66455 2.49678,3.99466 2.49678,5.15977 0,0.99867 4.161,7.82289 9.15433,14.97989 4.99334,7.15711 10.30734,14.98634 11.651,17.47656 0.95256,1.76555 2.14811,4.411 2.14811,4.411 0,0 -0.72466,1.41089 -1.10111,2.37033 -1.10378,2.814 -3.97544,7.18322 -9.702,15.855 -3.99466,5.82545 -7.15711,10.98522 -7.15711,11.651 -0.13989,2.51767 -5.92189,8.32667 -8.94967,9.62322 -0.57522,0.24634 -1.17688,0.53 -1.17688,0.53 0,0 -0.55312,-0.55122 -0.82767,-0.81188 -4.73067,-4.49323 -27.37978,-37.89523 -28.49278,-42.29712 -0.04,-0.15933 -0.31622,-0.64566 -0.31622,-0.64566 0,0 0.51655,-0.96334 0.76644,-1.61878 1.15756,-3.03511 4.23645,-8.40544 8.03834,-14.047 5.15977,-7.49 10.98522,-17.643 12.98255,-22.80267 1.37422,-3.31055 2.84211,-5.871 4.14,-7.45255 1.03767,-1.26456 2.792,-2.39567 2.792,-2.39567 0,0 1.05734,1.69045 1.05722,3.68978 z m -66.078,114.34644 c 13.476,19.53389 18.59512,27.22134 20.337,31.04334 0.60312,1.32344 1.43256,2.87611 1.43256,2.87611 0,0 -1.05089,1.40478 -1.78722,2.64389 -4.33334,7.29233 -19.63045,25.91933 -24.84789,30.03377 -0.66422,0.52389 -1.732,1.33323 -1.732,1.33323 0,0 -1.11622,-0.86178 -1.946,-1.44634 -2.06856,-1.457 -4.51133,-4.42677 -5.93689,-7.39655 -2.82956,-6.15845 -13.31544,-21.97045 -22.63633,-33.95445 l -7.48989,-9.82011 3.99466,-2.66311 c 2.33012,-1.498 6.65767,-3.49533 9.65367,-4.32755 3.99467,-1.16512 6.82411,-3.66178 9.32078,-8.15567 3.62767,-6.53 6.289,-10.16056 8.62233,-11.53056 0.491,-0.28822 1.47034,-1.13133 1.47034,-1.13133 0,0 0.69822,0.46744 1.059,0.51144 1.33211,0.16256 5.992,5.65912 10.48588,11.98389 z m 146.30378,-6.15833 c 0.358,0.82167 7.157,7.157 15.47911,14.31411 8.15578,6.99056 15.43778,13.667 15.97856,14.81345 0.10889,0.23044 0.556,0.95733 0.556,0.95733 0,0 -0.54056,0.81944 -0.78278,1.40278 -0.69889,1.68277 -2.23489,3.95789 -4.26711,6.295 -6.32489,7.157 -20.79278,28.13389 -22.63633,32.78933 -0.70134,1.771 -2.76556,3.564 -2.76556,3.564 0,0 -2.97711,-1.456 -4.32755,-2.45522 -3.80423,-2.81478 -7.55389,-9.146 -7.55389,-15.423 0,-4.32745 -1.99734,-7.65634 -9.32078,-15.64567 -3.29233,-3.67955 -5.73967,-6.79578 -7.04689,-9.02111 -0.93978,-1.59967 -1.68622,-2.899 -1.68622,-2.899 0,0 1.20244,-1.15489 1.66411,-1.88244 1.72667,-2.72123 5.45933,-8.45156 9.39922,-14.49278 6.99056,-10.48589 9.98656,-13.64834 12.81611,-13.64834 0.655,0 3.43967,-0.10777 3.43967,-0.10777 0,0 0.84689,0.96389 1.05433,1.43966 z m -65.91155,97.20289 c 11.15166,9.48722 15.47911,12.31678 30.95844,20.63889 l 4.49389,2.33022 -3.66178,5.992 c -1.99722,3.32889 -4.99322,7.98933 -6.49122,10.31944 -1.66444,2.49667 -3.66178,5.992 -4.66044,7.82289 -0.99867,1.83089 -3.16245,5.49267 -4.99334,8.32211 -1.83078,2.66312 -3.82811,6.15845 -4.32744,7.48989 -0.49934,1.33167 -1.99734,4.99334 -3.32889,7.82289 -6.82411,15.81211 -10.15311,25.133 -12.15033,32.95578 -0.66578,2.82956 -2.16378,6.65767 -3.16245,8.655 -1.16511,1.99733 -1.99722,5.65911 -1.99722,8.32222 0,2.49667 -0.79356,5.85056 -1.66456,7.15711 -0.68477,1.02711 -1.71155,2.26978 -1.71155,2.26978 0,0 -1.41367,-1.57178 -2.616,-3.10211 -1.39867,-1.78 -2.82945,-5.15967 -3.32878,-7.48989 -3.49533,-18.14233 -16.97722,-54.75978 -25.63222,-69.90611 -2.49667,-4.16111 -4.827,-8.65511 -5.49267,-9.98667 -0.66578,-1.33155 -2.996,-5.659 -5.15978,-9.48722 l -3.82822,-6.82411 4.66045,-3.49533 c 2.49666,-1.99734 4.99322,-3.49534 5.49255,-3.49534 1.498,0 15.14633,-9.82022 20.30611,-14.647 4.93789,-4.548 10.78867,-9.299 13.59256,-11.16389 0.78766,-0.52388 1.55378,-0.82011 1.55378,-0.82011 0,0 1.02233,0.57089 2.33555,1.55545 2.43933,1.82889 6.48578,5.08555 10.81356,8.76411 z m -17.643,467.53911 c 0,2.132 -2.19289,3.77667 -2.19289,3.77667 0,0 -1.36567,-1.264 -1.96822,-2.27867 -1.19767,-2.01711 1.60033,-6.61778 1.60033,-6.61778 0,0 0.50478,0.53878 0.89633,0.79222 0.81478,0.52723 1.66445,2.49656 1.66445,4.32756 z"
     id="path4"
     sodipodi:nodetypes="ccccccssscscsscscscccsccsscsccccccccscscsccscsccscsccssccscccscsccccccccccsccccccsssssscscccscsccscccccsccscscscccsccccccsccscscsscsscsccccscsscsccccssscsccccscccscscccccssscscsccccscsccccccsccscscscssscsccscsscsccscscscsscscccccsscscscscscscsscscscscscccccscscccsscsccscccscscscscscss"
     style="stroke-width:0.166443" />
</svg>
