<?xml version="1.0" standalone="no"?>
<!DOCTYPE svg PUBLIC "-//W3C//DTD SVG 20010904//EN"
 "http://www.w3.org/TR/2001/REC-SVG-20010904/DTD/svg10.dtd">
<svg version="1.0" xmlns="http://www.w3.org/2000/svg"
 width="600.000000pt" height="600.000000pt" viewBox="0 0 600.000000 600.000000"
 preserveAspectRatio="xMidYMid meet">
<metadata>
Created by potrace 1.10, written by Peter Selinger 2001-2011
</metadata>
<g transform="translate(0.000000,600.000000) scale(0.100000,-0.100000)"
fill="#000000" stroke="none">
<path d="M2749 5918 c-90 -114 -145 -222 -195 -383 -18 -56 -19 -118 -24 -984
-3 -610 -8 -925 -15 -928 -6 -2 -64 51 -130 117 l-120 120 -3 120 -4 119 -143
144 c-182 183 -214 233 -236 356 -14 80 -9 83 132 79 l117 -3 58 -57 c31 -32
63 -58 71 -58 10 0 13 24 13 105 0 136 -15 181 -89 262 -102 111 -107 204 -15
295 30 31 34 39 21 44 -9 3 -42 -2 -72 -12 -44 -13 -66 -28 -99 -66 -37 -43
-45 -59 -55 -121 -22 -130 -14 -122 -110 -123 l-83 -1 -79 -80 -79 -80 0 -127
c0 -69 -3 -126 -7 -126 -3 0 -35 27 -70 61 l-63 61 -318 -4 -317 -3 -69 -35
c-47 -23 -85 -53 -122 -94 -30 -33 -54 -64 -54 -69 0 -6 -6 -18 -14 -26 -7 -9
-16 -29 -20 -44 -6 -26 -5 -27 16 -16 12 6 30 19 40 29 31 29 110 67 164 79
45 11 56 10 90 -6 24 -11 47 -33 61 -58 21 -38 23 -51 23 -230 0 -195 7 -241
52 -325 68 -130 201 -232 347 -265 45 -11 219 -20 309 -16 28 2 7 32 -77 114
-87 86 -89 87 -138 87 -97 0 -207 76 -262 180 -22 41 -25 61 -29 209 -4 132
-2 165 9 172 17 11 200 12 214 1 6 -4 266 -265 580 -580 l570 -573 5 -632 c5
-679 3 -647 57 -792 16 -42 75 -165 96 -200 29 -48 111 -144 118 -139 13 7 12
4541 -1 4549 -5 3 -28 -18 -51 -47z"/>
<path d="M3118 5964 c-11 -10 -10 -4554 0 -4554 8 0 96 107 119 145 21 35 80
158 96 200 54 145 52 113 57 792 l5 632 570 573 c314 315 575 576 580 580 14
11 197 10 214 -1 11 -7 13 -40 9 -172 -4 -148 -7 -168 -29 -209 -55 -104 -165
-180 -262 -180 -49 0 -51 -1 -138 -87 -84 -82 -105 -112 -76 -114 89 -4 263 5
308 16 146 33 279 135 347 265 45 84 52 130 52 325 0 179 2 192 23 230 14 25
37 47 61 58 34 16 45 17 90 6 54 -12 133 -50 164 -79 10 -10 28 -23 40 -29 21
-11 22 -10 16 16 -4 15 -13 35 -20 44 -8 8 -14 20 -14 26 0 5 -24 36 -54 69
-37 41 -75 71 -122 94 l-69 35 -317 3 -318 4 -63 -61 c-35 -34 -67 -61 -70
-61 -4 0 -7 57 -7 126 l0 127 -79 80 -79 80 -83 1 c-95 1 -87 -8 -110 121 -18
104 -65 161 -157 190 -29 9 -60 14 -69 11 -13 -5 -9 -13 21 -44 92 -91 87
-184 -15 -295 -74 -81 -89 -126 -89 -262 0 -82 3 -105 14 -105 7 0 39 26 70
58 l56 57 118 3 c142 4 147 1 133 -79 -22 -123 -54 -173 -236 -356 l-143 -144
-4 -119 -3 -120 -120 -120 c-66 -66 -124 -119 -130 -117 -7 3 -12 318 -15 928
-5 1001 -2 937 -57 1084 -51 135 -193 352 -215 329z"/>
<path d="M1400 3333 c-116 -41 -175 -78 -261 -164 -48 -47 -93 -97 -100 -112
-31 -57 -87 -174 -101 -212 -38 -97 -77 -270 -66 -287 6 -9 10 -7 14 10 4 12
10 22 15 22 7 0 26 29 47 75 15 32 155 187 198 219 21 17 41 33 44 36 3 4 12
10 20 13 8 4 29 16 45 27 17 11 37 22 45 26 8 3 29 11 45 18 17 7 60 19 96 26
112 22 190 -15 240 -112 18 -36 19 -73 19 -1190 0 -737 4 -1167 11 -1193 5
-22 13 -60 18 -85 12 -59 26 -98 74 -198 54 -111 150 -242 178 -242 5 0 9 375
11 833 3 787 4 834 22 872 10 22 25 56 34 75 9 19 36 61 59 92 l43 56 0 367
c0 339 1 370 20 425 25 75 64 146 101 185 16 17 29 35 29 41 0 13 -254 263
-305 300 -109 79 -169 94 -380 93 -128 0 -181 -4 -215 -16z"/>
<path d="M4080 3334 c-69 -23 -110 -44 -170 -90 -59 -45 -290 -275 -290 -289
0 -5 13 -23 29 -40 37 -39 76 -110 101 -185 19 -55 20 -86 20 -425 l0 -367 43
-56 c23 -31 50 -73 59 -92 9 -19 24 -53 34 -75 18 -38 19 -85 22 -872 2 -458
6 -833 11 -833 28 0 124 131 178 242 48 100 62 139 74 198 5 25 13 63 18 85 7
26 11 456 11 1193 0 1117 1 1154 19 1190 50 97 128 134 240 112 36 -7 80 -19
96 -26 17 -7 37 -15 45 -18 8 -4 29 -15 45 -26 17 -11 37 -23 45 -27 8 -3 17
-9 20 -13 3 -3 23 -19 44 -36 44 -32 178 -182 201 -223 7 -14 19 -36 24 -48 6
-13 15 -23 20 -23 5 0 11 -10 15 -22 4 -17 8 -19 14 -10 11 17 -28 190 -66
287 -14 38 -70 155 -101 212 -7 15 -52 65 -100 112 -88 88 -150 126 -266 165
-67 22 -367 22 -435 0z"/>
</g>
</svg>
