<?xml version="1.0" standalone="no"?>
<!DOCTYPE svg PUBLIC "-//W3C//DTD SVG 20010904//EN"
 "http://www.w3.org/TR/2001/REC-SVG-20010904/DTD/svg10.dtd">
<svg version="1.0" xmlns="http://www.w3.org/2000/svg"
 width="900.000000pt" height="900.000000pt" viewBox="0 0 900.000000 900.000000"
 preserveAspectRatio="xMidYMid meet">
<metadata>
Created by potrace 1.10, written by Peter Selinger 2001-2011
</metadata>
<g transform="translate(0.000000,900.000000) scale(0.100000,-0.100000)"
fill="#000000" stroke="none">
<path d="M4350 8653 c-112 -41 -210 -110 -267 -186 -77 -104 -102 -182 -103
-318 0 -97 3 -114 32 -185 61 -153 165 -253 316 -305 77 -26 247 -26 324 0
151 52 255 152 316 305 29 71 32 88 32 185 -1 76 -6 120 -19 156 -62 173 -158
272 -325 335 -41 16 -75 20 -171 19 -66 0 -127 -3 -135 -6z"/>
<path d="M2103 7099 c-66 -19 -123 -106 -123 -186 0 -72 48 -144 119 -181 33
-17 225 -116 536 -278 66 -34 171 -88 233 -120 63 -32 132 -74 154 -93 125
-107 116 -321 -19 -422 -26 -19 -59 -39 -73 -44 -14 -5 -205 -11 -425 -14
-382 -6 -401 -7 -432 -27 -40 -25 -66 -59 -81 -103 -17 -49 -17 -782 0 -799 9
-9 159 -12 613 -12 556 0 609 1 706 20 259 48 440 142 610 317 171 175 268
359 313 593 14 74 16 166 14 720 l-3 635 -1055 2 c-629 1 -1068 -3 -1087 -8z"/>
<path d="M4737 7103 c-4 -3 -7 -292 -7 -642 1 -585 2 -643 20 -726 25 -121 43
-173 92 -275 56 -116 115 -199 217 -303 170 -175 351 -269 610 -317 97 -19
150 -20 706 -20 454 0 604 3 613 12 17 17 17 750 0 799 -15 44 -41 78 -81 103
-31 20 -50 21 -432 27 -220 3 -411 9 -425 14 -14 5 -47 25 -73 44 -136 101
-144 315 -17 424 23 20 93 61 154 92 61 31 192 99 291 151 99 51 230 119 290
150 196 100 218 113 251 145 32 31 54 85 54 134 0 81 -58 165 -128 184 -41 12
-2124 16 -2135 4z"/>
<path d="M4410 4993 c-85 -116 -216 -246 -334 -334 -47 -35 -86 -66 -86 -71 0
-4 37 -35 83 -69 106 -79 300 -276 356 -362 26 -41 50 -67 61 -67 11 0 35 26
61 67 56 85 248 281 357 362 45 34 82 65 82 69 0 5 -39 36 -86 71 -118 88
-249 218 -334 334 -40 53 -76 97 -80 97 -4 0 -40 -44 -80 -97z"/>
<path d="M2103 4339 c-66 -20 -123 -106 -123 -186 0 -68 48 -145 110 -177 14
-7 102 -52 195 -101 94 -49 222 -115 285 -148 119 -61 138 -71 168 -86 9 -6
68 -36 130 -68 139 -71 186 -110 218 -179 66 -144 -10 -330 -156 -379 -14 -5
-205 -11 -425 -14 l-400 -6 -35 -25 c-41 -28 -60 -53 -77 -95 -15 -40 -18
-797 -3 -826 10 -18 23 -19 181 -19 233 0 346 -28 524 -129 83 -47 257 -224
325 -331 76 -117 75 -116 115 -200 20 -41 43 -87 51 -102 8 -14 14 -31 14 -38
0 -11 89 -196 113 -235 38 -62 138 -189 196 -248 86 -90 294 -247 326 -247 5
0 16 -6 24 -13 16 -14 137 -66 201 -87 158 -52 175 -54 430 -55 209 0 254 3
305 18 33 10 89 27 125 38 179 55 373 173 528 323 62 60 175 200 219 271 23
38 113 225 113 236 0 6 6 23 14 37 8 15 31 61 51 102 39 82 37 78 111 196 64
100 179 227 264 291 86 66 213 123 334 153 67 16 117 20 255 20 158 0 171 1
181 19 15 29 12 786 -3 826 -17 42 -36 67 -77 95 l-35 25 -400 6 c-220 3 -411
9 -425 14 -148 51 -223 233 -156 379 32 69 79 108 218 179 62 32 121 62 131
68 28 15 46 24 167 87 63 32 192 98 285 147 94 49 181 94 195 101 38 19 86 75
99 113 30 90 -3 185 -82 235 -31 21 -43 21 -632 21 -557 0 -605 -1 -665 -19
-166 -48 -269 -90 -343 -140 -21 -14 -40 -26 -43 -26 -29 0 -232 -200 -290
-285 -64 -94 -122 -211 -153 -310 -48 -153 -52 -207 -49 -641 2 -279 7 -417
14 -434 7 -14 20 -45 30 -70 27 -65 47 -93 164 -216 161 -169 210 -284 210
-489 0 -133 -15 -196 -72 -311 -58 -116 -210 -257 -331 -308 -204 -84 -435
-62 -618 60 -132 87 -238 232 -283 385 -24 83 -22 274 4 357 40 126 79 190
187 303 130 134 148 160 191 279 15 39 17 100 17 480 0 447 1 439 -42 590 -46
164 -145 331 -273 461 -72 73 -160 149 -173 149 -3 0 -23 12 -44 26 -50 34
-163 86 -238 109 -33 10 -80 25 -105 33 -38 13 -134 16 -640 18 -364 2 -608
-1 -627 -7z"/>
</g>
</svg>
