<?xml version="1.0" standalone="no"?>
<!DOCTYPE svg PUBLIC "-//W3C//DTD SVG 20010904//EN"
 "http://www.w3.org/TR/2001/REC-SVG-20010904/DTD/svg10.dtd">
<svg version="1.0" xmlns="http://www.w3.org/2000/svg"
 width="600.000000pt" height="600.000000pt" viewBox="0 0 600.000000 600.000000"
 preserveAspectRatio="xMidYMid meet">
<metadata>
Created by potrace 1.10, written by Peter Selinger 2001-2011
</metadata>
<g transform="translate(0.000000,600.000000) scale(0.100000,-0.100000)"
fill="#000000" stroke="none">
<path d="M170 5823 c0 -9 6 -58 14 -107 33 -205 38 -244 46 -316 4 -41 13
-108 19 -147 6 -40 16 -106 22 -145 6 -40 15 -109 19 -153 15 -150 21 -162
107 -245 43 -41 181 -174 307 -295 227 -218 265 -255 425 -410 l82 -80 20 24
c10 13 19 30 19 39 0 26 69 100 116 124 25 12 47 25 49 28 2 3 0 38 -5 78 -9
71 -12 75 -102 195 -50 67 -97 127 -103 132 -6 6 -40 48 -75 95 -35 47 -69 90
-76 95 -6 6 -46 57 -89 115 -43 58 -83 110 -89 115 -7 6 -41 48 -76 95 -35 47
-67 87 -70 90 -4 3 -51 63 -106 133 -160 207 -194 250 -225 287 -16 19 -68 88
-116 152 -84 112 -113 138 -113 101z"/>
<path d="M5606 5720 c-49 -66 -97 -128 -106 -137 -16 -18 -61 -75 -225 -288
-47 -60 -98 -126 -114 -145 -39 -47 -112 -140 -222 -285 -51 -66 -97 -124
-103 -130 -7 -5 -41 -48 -76 -95 -35 -47 -69 -89 -75 -95 -6 -5 -47 -57 -90
-115 -43 -58 -91 -120 -107 -138 -24 -28 -28 -41 -28 -96 l0 -63 39 -18 c69
-31 141 -120 141 -174 0 -42 24 -29 128 71 59 57 119 114 133 128 14 14 136
131 270 260 134 129 279 269 322 310 86 83 92 95 107 245 4 44 13 113 19 153
6 39 16 105 22 145 6 39 15 106 19 147 4 41 13 109 20 150 32 208 40 266 40
278 0 32 -32 2 -114 -108z"/>
<path d="M2835 5570 c-87 -6 -145 -16 -250 -45 -27 -8 -61 -16 -75 -19 -24 -4
-43 -10 -135 -43 -158 -58 -213 -98 -290 -213 -24 -36 -71 -92 -105 -125 -63
-62 -88 -98 -101 -150 -4 -16 -17 -55 -29 -85 -41 -106 -51 -135 -60 -165 -4
-16 -18 -55 -30 -85 -41 -106 -51 -135 -60 -165 -4 -16 -19 -55 -31 -85 -21
-49 -23 -72 -24 -215 -1 -206 -14 -236 -110 -254 -26 -5 -53 -15 -60 -22 -25
-27 -46 -207 -52 -458 -3 -136 -3 -259 0 -273 9 -32 54 -88 72 -88 8 0 24 21
36 46 13 25 27 48 31 50 9 6 48 -68 48 -91 0 -8 12 -20 28 -26 15 -6 36 -16
47 -22 11 -6 38 -13 60 -16 45 -7 56 -28 35 -67 -10 -18 -10 -37 -1 -86 6 -35
19 -99 27 -143 16 -84 37 -166 59 -225 7 -19 21 -62 30 -95 10 -33 23 -76 30
-95 7 -19 18 -51 24 -70 7 -19 16 -50 21 -68 10 -39 46 -82 70 -82 9 0 25 -7
36 -15 10 -8 26 -15 35 -15 9 0 37 -9 62 -20 44 -20 46 -21 41 -58 -3 -20 -10
-56 -15 -80 -19 -84 -3 -110 158 -266 140 -136 147 -141 189 -142 24 0 51 -7
60 -15 34 -28 108 -48 250 -68 125 -18 315 13 411 67 12 7 39 12 60 12 35 0
48 11 196 155 l157 154 0 53 c0 29 -7 75 -15 102 -8 27 -15 53 -15 57 0 10 86
49 107 49 8 0 27 6 41 13 15 8 40 20 56 28 22 11 34 28 49 74 11 33 25 76 32
95 7 19 21 62 30 95 10 33 24 75 31 93 8 18 14 39 14 47 0 8 6 29 14 47 8 18
21 67 30 108 8 41 22 109 31 150 18 86 19 142 5 156 -16 16 -1 44 29 50 14 3
41 12 59 20 18 8 39 14 46 14 18 0 48 46 56 85 8 40 36 45 52 8 15 -35 38 -63
52 -63 6 0 26 21 44 48 l32 47 0 165 c0 91 -5 199 -10 240 -6 41 -15 125 -20
185 -9 100 -12 112 -35 133 -14 12 -38 22 -53 22 -88 0 -130 93 -117 257 10
138 10 138 -35 253 -41 106 -51 135 -60 165 -4 17 -18 55 -30 85 -41 106 -51
135 -60 165 -4 17 -18 55 -30 85 -12 30 -26 70 -31 88 -6 19 -40 63 -82 105
-39 40 -86 95 -105 122 -84 125 -175 186 -347 235 -16 4 -43 13 -60 19 -34 11
-118 32 -220 55 -84 18 -208 24 -330 16z m125 -370 c0 -37 23 -116 46 -162 8
-14 14 -31 14 -37 0 -30 112 -193 183 -268 92 -95 229 -193 304 -216 10 -3 50
-17 88 -31 39 -14 86 -26 105 -26 51 0 73 -17 34 -25 -54 -13 -139 -37 -179
-52 -227 -86 -431 -273 -525 -483 -47 -103 -70 -177 -70 -220 0 -70 -17 -67
-39 7 -12 39 -21 75 -21 81 0 13 -20 60 -63 152 -34 71 -97 160 -161 229 -40
42 -176 151 -206 164 -8 4 -22 11 -30 16 -8 5 -33 17 -55 26 -22 10 -49 23
-60 28 -11 6 -36 14 -55 18 -100 23 -145 36 -143 45 1 5 26 12 55 15 30 3 63
11 75 17 12 7 29 12 37 12 25 0 143 58 221 108 161 104 272 243 368 465 10 21
17 42 17 48 0 6 10 42 21 81 23 73 39 77 39 8z"/>
<path d="M377 4394 c-8 -9 6 -132 44 -379 6 -38 15 -104 19 -145 4 -41 13
-106 19 -145 5 -38 15 -106 22 -149 6 -44 13 -85 15 -91 3 -7 37 -29 77 -49
40 -21 99 -52 132 -70 89 -48 272 -146 335 -179 30 -16 74 -39 97 -52 24 -13
45 -20 48 -15 8 13 19 553 12 581 -4 13 -34 47 -68 74 -34 28 -72 59 -85 70
-12 12 -44 39 -70 60 -26 22 -82 69 -124 105 -42 36 -139 117 -215 180 -76 63
-161 136 -189 162 -53 49 -58 52 -69 42z"/>
<path d="M5444 4352 c-28 -26 -113 -99 -189 -162 -76 -63 -173 -144 -215 -180
-42 -36 -98 -83 -124 -105 -26 -21 -58 -48 -70 -60 -13 -11 -58 -49 -100 -83
l-76 -64 0 -289 c0 -257 2 -290 16 -296 9 -3 28 1 43 9 14 9 67 37 116 63 116
61 264 140 340 181 33 18 92 49 132 70 40 20 74 42 77 49 2 6 9 47 15 91 7 43
17 111 22 149 6 39 15 104 19 145 4 41 13 109 20 150 43 281 52 371 35 376 -5
2 -33 -18 -61 -44z"/>
<path d="M546 3131 c-3 -4 -1 -35 4 -67 9 -57 22 -153 55 -399 17 -129 45
-313 50 -331 2 -6 51 -16 112 -22 59 -7 151 -17 203 -23 52 -6 151 -15 218
-20 68 -5 127 -11 132 -14 4 -3 66 -9 136 -15 71 -5 155 -13 187 -16 l57 -7 0
29 c0 16 -6 49 -14 74 -8 25 -21 70 -30 100 -41 152 -76 271 -85 288 -8 18
-58 43 -171 87 -25 10 -60 24 -77 32 -18 7 -49 20 -68 28 -19 8 -50 21 -67 29
-18 7 -53 21 -78 31 -25 10 -60 24 -77 31 -18 8 -48 20 -65 27 -18 8 -49 21
-68 29 -19 9 -71 30 -115 48 -96 39 -140 58 -178 76 -33 16 -53 18 -61 5z"/>
<path d="M5280 3125 c-32 -16 -75 -35 -175 -75 -44 -18 -93 -38 -110 -45 -137
-59 -166 -71 -215 -90 -25 -10 -60 -24 -77 -31 -18 -8 -48 -20 -65 -27 -18 -8
-49 -21 -68 -29 -19 -9 -55 -23 -80 -33 -25 -9 -57 -23 -72 -31 -14 -8 -31
-14 -37 -14 -6 0 -29 -11 -50 -25 -28 -17 -41 -33 -46 -57 -3 -18 -12 -53 -20
-78 -7 -25 -20 -70 -28 -100 -20 -73 -47 -165 -63 -219 -8 -25 -11 -48 -6 -53
4 -4 50 -1 102 7 52 8 120 15 150 15 30 0 82 5 115 10 33 6 112 15 175 19 63
5 158 14 210 20 52 6 144 16 203 23 61 6 110 16 112 22 5 18 33 202 50 331 33
246 46 342 55 399 5 32 7 63 4 67 -7 12 -34 10 -64 -6z"/>
<path d="M5178 2075 c-3 -3 -56 -9 -119 -14 -63 -5 -157 -14 -209 -20 -52 -6
-144 -16 -205 -22 -123 -13 -155 -22 -155 -43 0 -9 -6 -30 -14 -48 -8 -18 -22
-53 -31 -78 -16 -43 -109 -233 -130 -268 -110 -179 -246 -330 -405 -451 -95
-73 -153 -111 -210 -139 -25 -13 -52 -27 -60 -31 -15 -9 -59 -28 -122 -54 -55
-23 -101 -39 -138 -47 -19 -4 -55 -13 -80 -19 -265 -65 -549 -52 -830 39 -150
49 -326 141 -455 239 -143 107 -357 344 -408 451 -4 8 -16 29 -27 45 -24 39
-71 135 -100 205 -12 30 -28 70 -36 88 -8 18 -14 41 -14 51 0 10 -6 23 -13 29
-15 12 -209 42 -277 42 -28 0 -94 6 -148 14 -53 8 -137 16 -187 18 -88 3 -90
3 -93 -21 -4 -22 19 -130 40 -196 6 -16 14 -46 18 -65 18 -78 82 -243 142
-365 32 -65 75 -142 99 -180 10 -16 22 -37 26 -45 16 -34 120 -179 183 -255
67 -81 286 -289 375 -356 118 -89 284 -194 355 -225 8 -3 42 -19 75 -34 33
-15 80 -35 105 -45 25 -9 56 -22 70 -27 14 -6 39 -14 55 -18 17 -5 44 -13 60
-18 131 -45 269 -70 466 -83 341 -22 660 18 934 118 102 38 289 125 350 164
17 10 39 23 50 29 34 17 153 97 165 110 3 3 34 28 70 55 200 151 408 388 562
641 21 35 143 286 160 329 31 78 46 121 60 170 54 180 80 297 72 318 -6 17
-16 21 -26 12z"/>
</g>
</svg>
