<?xml version="1.0" standalone="no"?>
<!DOCTYPE svg PUBLIC "-//W3C//DTD SVG 20010904//EN"
 "http://www.w3.org/TR/2001/REC-SVG-20010904/DTD/svg10.dtd">
<svg version="1.0" xmlns="http://www.w3.org/2000/svg"
 width="900.000000pt" height="900.000000pt" viewBox="0 0 900.000000 900.000000"
 preserveAspectRatio="xMidYMid meet">
<metadata>
Created by potrace 1.10, written by Peter Selinger 2001-2011
</metadata>
<g transform="translate(0.000000,900.000000) scale(0.100000,-0.100000)"
fill="#000000" stroke="none">
<path d="M4097 8331 c-286 -286 -367 -373 -360 -385 11 -20 734 -746 743 -746
8 0 744 736 748 749 4 13 -716 735 -743 745 -16 6 -84 -59 -388 -363z"/>
<path d="M3205 7739 c-16 -5 -52 -17 -80 -25 -27 -9 -66 -21 -85 -29 -250 -93
-340 -133 -633 -283 -16 -8 -31 -21 -34 -29 -4 -10 228 -249 732 -753 644
-644 736 -740 727 -756 -6 -11 -72 -79 -146 -153 l-136 -134 -22 19 c-12 10
-363 361 -779 778 -714 717 -759 759 -781 749 -13 -6 -51 -33 -85 -59 -33 -27
-78 -62 -99 -79 -71 -56 -199 -167 -263 -230 l-63 -61 796 -800 c438 -439 795
-802 793 -806 -5 -17 -279 -288 -290 -288 -7 0 -363 351 -792 780 -576 576
-785 780 -800 778 -28 -4 -264 -315 -340 -449 -5 -10 -29 -49 -51 -86 -98
-160 -274 -512 -274 -546 0 -7 -6 -21 -13 -32 -8 -11 -16 -29 -20 -40 -3 -11
-15 -45 -27 -75 -23 -62 -82 -239 -104 -315 -13 -46 -21 -76 -60 -232 -15 -58
-32 -151 -60 -318 -36 -213 -41 -326 -41 -880 l0 -550 315 -3 314 -2 396 395
396 395 439 -2 440 -3 3 -24 c2 -14 -3 -48 -12 -75 -8 -28 -25 -91 -36 -141
-12 -49 -25 -101 -29 -115 -5 -14 -16 -61 -26 -105 -9 -44 -22 -93 -27 -110
-9 -27 -21 -79 -48 -195 -7 -31 -34 -142 -75 -302 -16 -63 -37 -146 -59 -235
-8 -32 -22 -86 -30 -120 -9 -35 -23 -91 -32 -125 -8 -35 -22 -86 -30 -115 -21
-74 -20 -117 2 -149 10 -14 26 -36 34 -48 19 -27 101 -137 112 -151 14 -16
368 -494 418 -563 25 -35 136 -185 248 -335 111 -150 215 -289 230 -310 52
-74 74 -97 91 -97 17 0 77 21 171 59 30 13 88 36 128 52 39 16 107 43 150 60
42 17 93 37 112 44 51 19 173 68 264 106 128 54 227 162 187 205 -25 26 -55
96 -67 157 -14 74 -5 151 36 292 11 39 25 93 31 120 6 28 15 57 19 65 4 8 10
31 14 52 6 32 2 41 -35 84 -105 121 -117 271 -30 392 29 41 22 49 -55 63 -403
73 -745 272 -964 559 -92 121 -153 239 -193 375 -14 45 -20 76 -42 217 -3 21
-1 47 5 58 11 20 15 20 1543 18 l1532 -3 3 -70 c6 -126 -63 -347 -148 -480
-11 -16 -23 -37 -27 -45 -12 -26 -90 -123 -140 -175 -145 -151 -313 -264 -518
-349 -74 -31 -101 -40 -240 -80 -27 -8 -74 -17 -103 -21 -96 -11 -97 -14 -50
-101 29 -54 32 -67 32 -144 -1 -98 -19 -143 -85 -215 -44 -47 -45 -52 -25
-115 8 -25 22 -74 31 -110 9 -36 22 -85 30 -110 39 -128 49 -198 37 -260 -11
-61 -53 -163 -72 -175 -47 -29 52 -142 174 -199 42 -20 80 -36 85 -36 5 0 30
-9 57 -21 65 -27 82 -34 129 -52 52 -19 178 -70 420 -167 107 -44 141 -54 158
-47 9 3 45 45 81 94 36 48 69 93 73 98 4 6 51 69 103 140 52 72 176 240 277
375 239 321 237 319 430 580 91 124 170 231 176 238 6 8 6 28 -2 60 -36 143
-44 171 -57 218 -8 28 -14 58 -14 66 0 9 -7 38 -15 64 -19 64 -65 248 -75 299
-5 22 -18 76 -30 120 -12 44 -26 98 -31 120 -15 74 -36 161 -47 196 -11 35
-29 109 -42 169 -7 31 -35 143 -75 300 -34 134 -37 150 -32 165 6 13 60 15
444 15 l437 0 396 -395 396 -395 306 0 c263 0 307 2 318 15 20 24 7 1131 -14
1275 -9 58 -22 139 -28 180 -21 139 -26 165 -48 260 -35 151 -38 161 -60 235
-12 39 -25 86 -30 105 -5 19 -25 80 -45 135 -20 55 -40 111 -45 125 -34 104
-214 484 -273 578 -15 23 -27 44 -27 48 0 3 -13 26 -30 51 -16 24 -30 46 -30
48 0 17 -267 391 -323 453 -11 12 -28 22 -36 22 -9 0 -367 -351 -796 -780
-428 -429 -784 -780 -790 -780 -20 0 -287 276 -283 293 1 9 355 369 786 801
430 431 782 791 782 799 0 25 -302 294 -421 374 -25 17 -51 38 -58 47 -8 9
-21 16 -30 16 -9 0 -360 -344 -779 -765 -420 -421 -771 -769 -781 -774 -14 -8
-42 15 -159 132 -78 78 -142 147 -142 152 0 6 331 341 736 746 490 490 735
742 731 751 -11 31 -368 203 -587 283 -19 7 -53 19 -75 27 -73 27 -110 40
-140 48 -16 4 -38 11 -48 15 -15 6 -132 -105 -631 -604 -336 -336 -618 -611
-626 -611 -9 0 -290 275 -625 610 -335 336 -612 610 -615 609 -3 0 -18 -5 -35
-10z m1384 -2614 c331 -58 557 -370 507 -701 -37 -249 -198 -439 -436 -513
-89 -28 -269 -29 -356 -2 -169 53 -317 180 -387 331 -46 99 -57 153 -57 270 0
128 9 168 69 290 76 158 255 292 432 324 99 18 129 19 228 1z"/>
</g>
</svg>
