<?xml version="1.0" standalone="no"?>
<!DOCTYPE svg PUBLIC "-//W3C//DTD SVG 20010904//EN"
 "http://www.w3.org/TR/2001/REC-SVG-20010904/DTD/svg10.dtd">
<svg version="1.0" xmlns="http://www.w3.org/2000/svg"
 width="768.000000pt" height="768.000000pt" viewBox="0 0 768.000000 768.000000"
 preserveAspectRatio="xMidYMid meet">
<metadata>
Created by potrace 1.10, written by Peter Selinger 2001-2011
</metadata>
<g transform="translate(0.000000,768.000000) scale(0.100000,-0.100000)"
fill="#000000" stroke="none">
<path d="M7415 7311 c-23 -8 -79 -36 -115 -57 -17 -10 -39 -13 -67 -9 -63 9
-132 -32 -286 -167 l-31 -27 30 -11 29 -12 -28 -24 c-32 -27 -75 -32 -83 -9
-4 8 -17 15 -30 15 -61 0 -8 66 123 153 34 22 60 44 57 49 -8 13 -70 9 -101
-6 -32 -16 -57 -27 -133 -56 -30 -12 -73 -29 -95 -38 -22 -9 -69 -42 -104 -74
-49 -45 -71 -58 -96 -58 -31 0 -61 -28 -77 -71 -4 -9 -19 -20 -34 -23 -16 -4
-48 -25 -71 -47 -23 -21 -47 -39 -53 -39 -5 0 -13 -12 -16 -27 -9 -34 -54 -80
-88 -89 -28 -7 -126 -114 -126 -138 0 -8 -4 -17 -9 -21 -9 -5 -35 -55 -56
-105 -6 -15 -11 -24 -55 -95 -14 -22 -36 -62 -49 -90 -13 -27 -34 -64 -47 -82
-13 -17 -24 -36 -24 -41 0 -12 -58 -122 -75 -142 -16 -19 -129 -209 -137 -232
-4 -9 -31 -52 -60 -95 -67 -100 -72 -109 -99 -163 -12 -25 -38 -70 -59 -100
-20 -30 -46 -75 -59 -100 -13 -25 -35 -61 -50 -80 -15 -19 -36 -53 -46 -75
-11 -22 -32 -56 -47 -76 -16 -20 -28 -42 -28 -48 0 -15 -41 -91 -49 -91 -4 0
-12 -12 -18 -27 -6 -16 -20 -44 -31 -63 -11 -19 -30 -57 -42 -85 -13 -27 -39
-72 -59 -100 -41 -56 -55 -80 -71 -115 -6 -13 -22 -46 -36 -73 -13 -27 -24
-55 -24 -62 0 -7 -6 -26 -14 -42 -8 -15 -22 -49 -31 -75 -9 -27 -20 -48 -25
-48 -17 0 -140 229 -140 261 0 12 6 33 13 47 8 15 21 42 30 60 9 19 17 40 17
47 0 7 6 26 14 42 8 15 29 60 46 98 17 39 38 84 47 100 9 17 45 86 81 155 90
174 152 292 162 310 5 8 18 35 30 60 11 25 25 52 30 60 5 8 11 22 14 30 4 8
15 29 26 45 10 17 39 71 64 120 25 50 54 106 64 125 11 19 29 55 41 80 12 25
27 54 33 65 23 41 28 51 45 85 9 19 19 43 22 52 7 21 101 136 164 200 53 54
58 73 22 90 -20 9 -22 14 -14 29 7 13 6 26 -1 40 -21 38 7 102 72 164 49 48
58 62 58 92 0 47 30 83 93 109 48 21 52 25 58 62 5 39 28 75 88 140 17 18 31
37 31 43 0 5 3 9 8 9 19 1 54 41 48 56 -6 15 -9 14 -31 -6 -14 -13 -25 -29
-25 -37 0 -7 -10 -13 -23 -13 -21 0 -66 -45 -67 -67 -1 -15 -38 -53 -53 -53
-8 0 -17 7 -21 15 -8 22 -19 19 -57 -15 -41 -36 -57 -37 -86 -6 -27 28 -29 48
-7 86 20 33 13 60 -16 60 -28 0 -36 26 -16 49 9 10 16 25 16 34 0 27 37 41 71
27 16 -7 39 -10 52 -6 28 7 89 65 81 77 -7 12 -65 39 -83 39 -23 0 -83 -32
-121 -64 -37 -31 -47 -32 -73 -9 -11 10 -34 17 -55 17 -32 0 -46 -9 -103 -67
-36 -37 -74 -84 -83 -105 -23 -48 -96 -110 -238 -197 -17 -11 -52 -45 -76 -75
-25 -30 -74 -88 -110 -129 -64 -70 -80 -93 -101 -136 -5 -11 -25 -36 -46 -55
-44 -43 -62 -77 -71 -138 -3 -26 -12 -58 -20 -72 -7 -14 -15 -36 -18 -50 -3
-14 -15 -36 -28 -50 -13 -13 -31 -40 -42 -60 -10 -19 -25 -39 -32 -43 -8 -4
-14 -24 -14 -43 0 -22 -6 -37 -15 -40 -9 -4 -15 -19 -15 -39 0 -19 -4 -36 -9
-39 -5 -4 -19 -27 -31 -54 -12 -26 -25 -54 -30 -62 -5 -8 -18 -35 -30 -60 -11
-25 -24 -52 -29 -60 -6 -8 -34 -63 -63 -122 -29 -59 -58 -108 -64 -108 -6 0
-21 21 -33 48 -12 26 -25 54 -30 62 -9 15 -23 48 -54 120 -24 58 -47 136 -47
162 0 13 -7 33 -15 44 -8 10 -15 28 -15 40 0 12 -12 52 -26 90 -14 38 -28 78
-31 89 -3 11 -11 34 -19 52 -8 17 -14 47 -14 67 0 20 -7 53 -15 73 -8 19 -15
64 -15 100 0 44 -7 79 -21 111 -12 26 -26 83 -31 127 -4 44 -13 107 -19 140
-5 33 -10 76 -9 95 1 86 -13 276 -22 287 -26 32 -35 0 -47 -165 -7 -92 -14
-183 -17 -202 -3 -19 -9 -78 -14 -130 -5 -60 -16 -113 -30 -144 -14 -29 -25
-83 -30 -135 -5 -47 -13 -102 -19 -121 -6 -19 -11 -47 -11 -62 0 -15 -7 -44
-16 -65 -9 -21 -22 -51 -29 -68 -7 -16 -20 -59 -30 -95 -9 -36 -23 -80 -31
-98 -8 -18 -14 -40 -14 -50 0 -19 -34 -132 -48 -159 -35 -67 -102 -214 -102
-223 0 -7 -6 -24 -13 -38 -8 -15 -20 -40 -28 -57 -21 -43 -38 -37 -62 20 -12
28 -33 69 -46 90 -23 38 -51 92 -65 125 -3 8 -22 37 -41 64 -19 27 -38 60 -42
75 -3 14 -19 42 -34 62 -16 20 -29 41 -29 47 0 5 -7 15 -15 22 -8 7 -15 19
-15 27 0 8 -12 34 -28 57 -15 22 -38 63 -52 89 -14 27 -42 68 -62 92 -21 24
-38 49 -39 57 0 7 -10 32 -22 55 -12 23 -33 63 -47 90 -14 26 -44 76 -67 111
-24 35 -43 67 -43 72 0 12 -66 147 -90 185 -11 17 -23 37 -27 45 -21 41 -70
100 -84 100 -9 0 -24 -11 -33 -25 l-17 -26 -31 26 c-17 14 -33 24 -35 21 -10
-10 30 -67 66 -93 23 -16 42 -39 45 -54 2 -14 24 -44 47 -67 l42 -41 -31 -27
-31 -28 24 -22 c14 -13 25 -28 25 -33 0 -17 -38 -32 -65 -25 -27 7 -75 71 -75
99 0 9 -13 36 -30 60 -17 24 -30 47 -30 52 -1 4 -14 24 -30 43 -17 19 -30 38
-30 43 0 9 -50 77 -77 105 -7 7 -28 36 -47 65 -54 81 -126 161 -157 174 -16 7
-51 32 -77 57 -62 58 -84 59 -109 6 -24 -52 -60 -56 -70 -8 -4 22 -33 58 -95
120 -49 48 -92 88 -97 88 -12 0 -60 -72 -63 -95 -4 -35 14 -114 28 -126 8 -6
14 -15 14 -20 0 -5 13 -28 29 -51 16 -24 46 -69 66 -101 21 -31 55 -74 76 -94
22 -21 39 -45 39 -55 0 -10 26 -38 60 -65 45 -35 60 -53 60 -72 1 -41 31 -86
87 -129 36 -29 53 -51 58 -74 4 -18 14 -42 21 -53 8 -11 14 -32 14 -47 0 -15
4 -29 9 -32 14 -9 51 -85 51 -105 0 -11 8 -34 17 -53 9 -18 23 -46 31 -61 8
-16 15 -45 17 -65 2 -41 17 -77 56 -137 14 -22 36 -60 48 -85 28 -56 37 -71
82 -140 19 -30 46 -77 59 -105 13 -27 30 -57 36 -65 7 -8 29 -49 49 -90 21
-41 55 -98 76 -127 21 -29 39 -58 39 -65 0 -8 13 -29 28 -48 15 -19 42 -64 59
-100 88 -181 166 -340 187 -380 71 -138 117 -237 116 -254 0 -20 -27 -78 -60
-131 -11 -16 -30 -51 -42 -77 -24 -50 -42 -60 -52 -30 -3 9 -17 35 -30 57 -14
22 -25 49 -26 61 0 12 -13 46 -30 77 -16 31 -30 64 -30 72 0 21 -64 137 -109
200 -38 53 -56 81 -67 105 -18 45 -79 159 -98 185 -11 17 -30 48 -41 70 -11
22 -29 54 -41 70 -11 17 -31 50 -44 75 -12 25 -35 61 -51 81 -16 20 -40 59
-54 87 -14 28 -33 59 -43 68 -18 18 -24 29 -67 109 -35 67 -42 78 -100 163
-56 82 -61 91 -70 112 -6 16 -17 34 -58 97 -15 24 -27 45 -27 48 0 3 -20 32
-45 66 -25 34 -45 67 -45 74 0 7 -7 18 -15 25 -8 7 -15 19 -15 27 0 8 -13 34
-28 57 -15 22 -38 62 -51 88 -12 27 -27 50 -32 54 -5 3 -9 14 -9 25 0 10 -4
19 -9 19 -6 0 -16 11 -23 25 -7 13 -32 61 -56 107 -24 46 -49 93 -56 105 -21
37 -116 123 -136 123 -10 0 -27 12 -37 26 -41 61 -137 154 -158 154 -23 0 -51
25 -69 63 -8 15 -22 23 -45 25 -27 3 -47 17 -91 63 -31 32 -63 59 -71 59 -8 0
-24 7 -35 15 -10 8 -29 15 -40 15 -20 0 -134 44 -197 76 -35 17 -119 18 -135
2 -9 -9 -20 -9 -47 1 -49 17 -64 4 -29 -25 16 -13 35 -23 41 -24 7 0 19 -13
27 -29 9 -16 22 -31 31 -34 26 -10 17 -27 -15 -27 -39 0 -40 -23 -2 -56 15
-13 42 -37 60 -53 33 -30 42 -61 18 -61 -7 0 -20 -7 -27 -16 -11 -13 -10 -17
4 -26 10 -5 15 -14 11 -19 -6 -11 -35 16 -78 74 -16 20 -37 37 -48 37 -11 0
-26 13 -36 30 -20 35 -24 36 -59 13 -24 -16 -26 -16 -38 0 -25 35 -50 14 -40
-33 5 -21 17 -35 43 -47 103 -49 392 -300 486 -423 23 -30 53 -75 65 -100 42
-86 76 -140 116 -187 46 -54 105 -140 105 -154 0 -4 13 -24 30 -42 16 -19 30
-40 30 -46 0 -7 11 -27 24 -44 23 -31 34 -52 92 -172 16 -33 36 -66 44 -75 33
-34 80 -99 80 -110 0 -7 13 -29 28 -49 16 -20 37 -54 48 -76 20 -40 55 -96
143 -230 25 -38 56 -90 70 -115 13 -25 33 -58 44 -74 30 -43 54 -91 76 -156
19 -56 31 -86 57 -147 8 -17 14 -36 14 -41 0 -6 6 -23 14 -39 8 -15 22 -48 31
-73 17 -44 25 -64 59 -143 9 -21 16 -44 16 -51 0 -7 14 -32 30 -55 17 -23 33
-56 36 -74 10 -65 29 -114 71 -185 24 -41 43 -76 43 -78 0 -2 24 -39 53 -82
30 -42 79 -129 111 -192 59 -119 69 -138 86 -167 6 -10 13 -25 16 -33 3 -8 11
-28 19 -45 7 -16 16 -38 19 -49 8 -24 -44 -134 -86 -183 -18 -21 -42 -56 -53
-78 -10 -22 -32 -56 -47 -76 -15 -20 -28 -44 -28 -52 0 -8 -7 -20 -15 -27 -8
-7 -15 -17 -15 -22 0 -6 -13 -27 -30 -48 -16 -21 -30 -40 -30 -43 0 -3 -13
-26 -30 -50 -16 -25 -30 -47 -30 -50 0 -4 -14 -26 -30 -51 -17 -24 -33 -59
-36 -78 -4 -18 -10 -37 -14 -43 -3 -5 -22 -46 -40 -90 -18 -44 -37 -84 -41
-90 -4 -5 -21 -44 -38 -85 -24 -58 -43 -86 -83 -121 -43 -39 -51 -53 -52 -84
-1 -23 -8 -40 -19 -46 -9 -6 -17 -21 -17 -34 0 -14 -4 -25 -10 -25 -5 0 -10
-7 -10 -16 0 -12 -7 -15 -24 -12 -20 4 -26 0 -31 -20 -3 -13 -4 -26 -1 -29 8
-8 67 30 94 61 9 11 31 33 48 50 18 17 35 41 39 54 3 12 11 20 16 17 14 -9 11
-63 -5 -72 -16 -10 -46 -66 -46 -88 0 -23 -26 -68 -91 -155 -30 -41 -66 -93
-79 -115 -13 -22 -41 -61 -62 -86 -23 -28 -38 -56 -38 -72 0 -29 24 -38 34
-12 3 9 18 15 38 15 45 0 78 25 79 58 0 15 11 47 24 72 13 25 28 55 34 67 5
11 15 24 20 28 6 3 11 15 11 25 0 10 6 23 14 27 8 4 16 23 18 42 2 19 9 36 16
39 18 5 16 -53 -3 -72 -22 -22 -18 -58 10 -85 33 -31 49 -18 94 74 5 11 23 36
39 55 26 30 33 33 50 23 17 -10 24 -7 51 21 17 17 31 41 31 53 0 27 87 133
110 133 39 0 31 -58 -10 -80 -29 -15 -27 -43 3 -34 12 4 25 11 28 16 3 5 15 9
25 8 11 -1 24 -2 31 -1 12 1 93 117 93 133 0 13 29 65 61 108 14 19 29 42 32
50 4 8 16 29 27 45 11 17 24 40 29 52 5 11 15 24 20 28 6 3 11 15 11 26 0 12
20 44 45 72 25 29 45 56 45 60 0 5 12 26 28 46 15 20 36 53 46 74 11 20 24 37
31 37 12 0 45 -61 45 -85 0 -7 6 -26 14 -42 31 -63 109 -233 152 -330 37 -85
45 -109 85 -228 11 -33 24 -73 30 -90 6 -16 15 -48 19 -70 25 -121 40 -175 60
-225 12 -30 24 -66 27 -80 3 -14 9 -30 14 -35 4 -6 13 -29 18 -50 13 -53 37
-132 52 -175 20 -60 36 -104 49 -140 15 -43 28 -98 39 -172 5 -32 21 -82 34
-111 14 -29 28 -66 32 -82 4 -17 12 -46 20 -65 7 -19 16 -62 19 -95 11 -89 48
-226 69 -253 5 -6 13 -27 16 -45 4 -17 11 -31 16 -29 10 2 10 508 0 932 -3
118 -5 251 -5 295 1 114 1 109 -9 235 -6 63 -14 138 -20 165 -5 28 -10 72 -10
98 -1 26 -8 58 -16 71 -10 14 -18 59 -22 112 -3 49 -9 94 -14 99 -7 10 -15 46
-39 180 -12 70 -28 113 -61 163 -19 28 -29 56 -29 80 0 43 -66 322 -102 427
-5 17 -13 46 -17 65 -4 19 -13 45 -19 57 -7 12 -12 33 -12 47 0 14 -4 28 -10
31 -17 11 -11 36 30 121 22 46 40 89 40 96 0 7 7 22 15 32 8 11 15 28 15 39 0
10 6 31 14 45 8 15 17 35 20 45 3 9 14 17 24 17 13 0 25 -16 41 -57 12 -32 29
-73 37 -91 8 -18 14 -40 14 -50 0 -9 7 -26 15 -36 8 -11 15 -28 15 -37 0 -10
7 -30 15 -46 44 -86 92 -207 104 -263 4 -19 13 -45 19 -57 7 -12 12 -33 12
-47 0 -14 6 -40 14 -58 8 -18 23 -62 35 -98 35 -112 39 -124 86 -235 7 -16 15
-39 18 -50 3 -11 15 -45 27 -75 23 -58 32 -87 50 -160 7 -25 16 -58 22 -75 5
-16 14 -52 20 -80 5 -27 14 -54 19 -60 15 -15 39 23 39 61 0 17 7 51 15 74 8
23 15 75 15 116 0 51 4 77 15 88 8 8 15 23 15 34 0 10 6 38 14 63 7 24 21 73
31 109 9 36 22 79 30 95 29 69 38 93 52 140 8 28 18 73 23 100 7 49 19 89 45
150 24 59 76 170 85 185 16 24 31 62 45 110 8 25 25 77 38 115 14 39 28 87 32
108 4 28 11 37 26 37 11 0 22 -8 25 -17 3 -10 12 -30 20 -45 8 -14 14 -34 14
-43 0 -9 6 -29 14 -43 8 -15 28 -60 44 -100 28 -65 30 -75 18 -100 -39 -80
-54 -123 -75 -222 -4 -19 -13 -45 -19 -57 -7 -12 -12 -32 -12 -44 0 -11 -7
-42 -15 -68 -25 -81 -75 -305 -75 -339 0 -18 -12 -51 -27 -75 -28 -43 -57
-141 -69 -237 -3 -30 -11 -61 -16 -67 -6 -7 -12 -52 -15 -100 -3 -51 -14 -114
-26 -148 -19 -57 -32 -156 -42 -330 -3 -44 -6 -392 -8 -774 -1 -548 1 -695 11
-698 8 -3 12 6 12 28 0 18 6 40 14 48 22 27 37 80 62 225 13 77 28 144 34 150
5 5 10 23 10 39 0 16 7 42 15 58 8 16 22 42 30 58 8 16 15 47 15 70 0 22 7 62
15 88 8 26 22 73 31 103 9 30 22 71 29 90 12 33 28 89 62 210 9 30 22 70 29
88 8 18 14 40 14 48 0 9 6 28 14 42 24 49 38 96 46 157 4 34 12 70 18 82 7 12
12 31 12 43 0 12 6 36 14 53 8 18 16 43 19 57 6 33 26 88 43 123 8 16 14 35
14 42 0 7 6 26 14 42 7 15 20 44 28 63 25 58 50 114 59 130 21 38 49 104 49
114 0 7 7 21 15 32 8 10 15 27 15 36 0 16 6 32 45 123 7 17 16 39 20 50 5 18
8 17 30 -10 13 -17 31 -46 41 -65 10 -19 31 -51 46 -71 15 -20 28 -43 28 -51
0 -8 20 -35 45 -60 25 -25 45 -54 45 -63 0 -9 14 -37 30 -62 17 -24 30 -47 30
-51 0 -4 27 -47 60 -97 33 -49 60 -97 60 -106 0 -9 7 -22 15 -29 8 -7 15 -16
15 -21 0 -15 81 -130 96 -136 8 -3 29 1 46 8 24 10 33 10 36 1 5 -15 22 -16
22 -1 0 14 -47 59 -60 59 -6 0 -16 15 -24 34 -8 19 -24 39 -35 46 -23 12 -28
49 -10 67 8 8 6 18 -7 38 -15 23 -15 28 -2 41 23 24 66 2 84 -43 9 -21 27 -52
40 -70 13 -17 24 -35 24 -38 0 -4 14 -24 30 -45 17 -21 30 -42 30 -47 0 -5 8
-16 18 -25 31 -28 68 -72 87 -103 30 -48 107 -125 140 -139 17 -7 45 -27 62
-45 17 -17 37 -31 45 -31 20 1 48 25 48 42 0 8 3 18 6 21 10 9 44 -12 44 -27
0 -20 137 -146 153 -140 7 2 21 21 30 40 16 32 16 40 2 88 -9 29 -23 61 -33
72 -10 10 -30 41 -46 68 -16 27 -53 74 -82 104 -30 30 -54 58 -54 63 0 12 -33
45 -59 58 -11 6 -32 38 -47 71 -15 33 -30 60 -34 60 -16 0 -77 68 -89 100 -13
34 -44 100 -60 130 -18 31 -41 91 -41 104 0 8 -7 19 -15 26 -8 7 -18 28 -21
49 -8 41 -26 82 -54 126 -11 17 -24 39 -30 50 -15 29 -32 56 -62 96 -16 20
-28 39 -28 42 0 3 -13 26 -30 50 -16 25 -30 48 -30 52 0 3 -11 21 -23 38 -13
18 -34 51 -46 75 -12 24 -39 67 -61 95 -21 29 -44 63 -50 77 -14 33 -33 64
-49 84 -18 22 -16 78 4 118 10 18 21 40 26 48 42 80 109 218 109 224 0 5 13
25 29 45 16 20 39 54 51 76 12 22 30 54 40 70 33 52 90 171 90 186 0 8 7 24
15 35 8 10 15 28 15 39 0 11 7 29 15 39 8 11 15 29 15 40 0 12 7 30 15 40 8
11 15 37 15 57 0 21 4 40 9 44 11 6 40 66 64 130 32 86 49 131 61 160 25 60
39 101 43 132 3 18 11 38 19 44 8 6 14 15 14 20 0 4 13 27 29 51 16 24 39 63
52 88 12 25 32 59 44 75 12 17 25 37 29 45 8 18 21 39 67 110 19 30 45 74 57
97 11 23 35 61 52 84 16 23 30 48 30 55 0 7 26 48 58 91 50 68 66 97 96 173 4
8 15 29 26 45 10 17 31 54 45 83 15 28 30 52 35 52 4 0 16 17 27 38 28 55 69
118 135 203 32 42 58 84 58 92 0 8 7 20 15 27 8 7 15 20 15 30 0 10 7 23 15
30 8 7 15 17 15 22 0 18 63 91 165 192 152 149 180 176 189 176 4 0 31 20 59
44 29 24 68 51 87 61 53 26 70 45 70 77 0 23 -4 28 -25 28 -14 0 -28 -7 -31
-15 -8 -20 -24 -19 -39 2 -16 21 -43 11 -55 -22 -5 -14 -17 -25 -28 -25 -19 0
-62 -39 -62 -56 0 -13 -55 -54 -72 -54 -6 0 -3 7 8 15 19 15 19 16 -3 31 -36
25 -28 47 37 103 33 29 60 58 60 64 0 12 71 61 123 84 15 6 27 17 27 22 0 5
24 22 53 36 28 15 59 33 68 41 8 8 23 14 31 14 9 0 21 7 28 15 7 8 21 15 30
15 29 0 50 11 50 26 0 15 -31 17 -65 5z m-6605 -286 c20 -24 5 -28 -21 -6 -19
16 -20 20 -8 21 9 0 22 -7 29 -15z m5850 5 c0 -12 -28 -25 -36 -17 -9 9 6 27
22 27 8 0 14 -5 14 -10z m150 -60 c0 -12 -28 -25 -36 -17 -9 9 6 27 22 27 8 0
14 -5 14 -10z m-126 -114 c-17 -27 -80 -63 -91 -53 -10 11 77 86 93 80 11 -4
10 -9 -2 -27z m-154 -132 c0 -11 -63 -88 -107 -131 -24 -24 -43 -47 -43 -53 0
-5 -5 -10 -10 -10 -6 0 -15 -10 -21 -23 -6 -13 -19 -28 -29 -35 -18 -11 -19
-10 -7 16 6 15 24 39 40 54 15 15 27 30 27 33 0 3 8 13 18 23 9 10 39 44 67
75 45 52 65 67 65 51z m-2730 -1214 c3 -47 11 -95 18 -107 6 -12 12 -37 12
-56 0 -19 7 -54 15 -77 8 -23 15 -54 15 -69 0 -14 12 -44 27 -66 15 -23 31
-62 35 -90 3 -27 18 -93 31 -145 45 -175 51 -208 40 -233 -18 -36 -31 -79 -38
-122 -4 -21 -13 -52 -21 -67 -8 -15 -14 -38 -14 -51 0 -14 -11 -53 -24 -88
-13 -35 -27 -89 -31 -119 -4 -30 -12 -63 -17 -73 -5 -10 -15 -51 -21 -90 l-12
-71 -20 30 c-10 16 -21 53 -23 84 -3 30 -11 64 -18 75 -8 11 -14 35 -14 55 0
20 -6 44 -13 55 -8 11 -21 45 -31 75 -9 30 -24 70 -32 87 -8 18 -21 47 -28 65
-8 18 -21 50 -30 71 -9 21 -16 48 -16 60 0 13 -7 32 -15 43 -21 28 -18 82 11
197 15 56 30 125 34 152 3 28 17 68 31 90 28 47 58 153 58 211 1 22 8 49 16
60 10 13 14 44 15 96 0 92 6 110 34 106 19 -3 21 -11 26 -88z m-1188 -180 c17
-16 19 -23 10 -32 -10 -10 -14 -8 -18 10 -4 12 -10 22 -15 22 -5 0 -9 5 -9 10
0 15 8 12 32 -10z m-794 -614 c3 -12 -1 -17 -10 -14 -7 3 -15 13 -16 22 -3 12
1 17 10 14 7 -3 15 -13 16 -22z m3760 -112 c-25 -26 -38 -30 -38 -13 0 14 43
49 53 42 4 -2 -3 -15 -15 -29z m-1600 -1256 c0 -43 -6 -82 -14 -95 -8 -12 -14
-29 -14 -37 0 -22 -19 -30 -26 -11 -4 9 1 24 10 34 9 10 16 26 16 36 0 10 -7
26 -16 36 -16 18 -15 27 5 59 5 8 12 23 15 33 13 40 25 12 24 -55z m246 -1355
c-10 -46 -13 -53 -24 -53 -11 0 -14 63 -3 73 17 18 33 6 27 -20z m-34 -103 c0
-22 -16 -35 -25 -20 -9 14 4 52 16 45 5 -4 9 -15 9 -25z"/>
</g>
</svg>
