<?xml version="1.0" encoding="UTF-8" standalone="no"?>
<svg
   xmlns:svg="http://www.w3.org/2000/svg"
   xmlns="http://www.w3.org/2000/svg"
   xmlns:sodipodi="http://sodipodi.sourceforge.net/DTD/sodipodi-0.dtd"
   xmlns:inkscape="http://www.inkscape.org/namespaces/inkscape"
   viewBox="0 0 204.40449 204.40449"
   id="svg76"
   sodipodi:docname="festival-of-the-lost.svg"
   inkscape:version="1.0.1 (3bc2e813f5, 2020-09-07)">
  <defs />
  <sodipodi:namedview
     inkscape:zoom="4.3541117"
     inkscape:cx="102.20225"
     inkscape:cy="102.20225"
     inkscape:window-width="1754"
     inkscape:window-height="1057"
     inkscape:window-x="158"
     inkscape:window-y="-8"
     inkscape:window-maximized="1"
     inkscape:current-layer="svg76" />
  <path
     d="M 102.20312 31.287109 A 70.487839 70.487839 0 0 0 31.71875 101.02344 L 35.982422 98.916016 C 35.982422 98.916016 35.688854 100.96816 35.683594 102.0625 A 20.06041 20.06041 0 0 0 36.166016 105.21289 L 31.728516 103.20703 A 70.487839 70.487839 0 0 0 48.886719 147.88477 C 51.749625 142.06293 54.612586 136.24115 57.46875 130.41602 C 60.149697 124.94428 62.825847 119.47014 65.498047 113.99414 C 65.749827 113.47831 66.132518 112.76503 66.423828 112.0918 C 66.423828 112.0918 72.463139 118.19165 75.105469 120.83398 C 83.610399 129.33887 102.12695 147.80273 102.12695 147.80273 C 114.13261 135.79452 126.1218 123.80461 138.0918 111.83203 C 138.0918 111.83203 140.32738 116.49264 141.2168 118.31445 C 144.04312 124.10352 146.89267 129.88175 149.7168 135.67188 C 151.54591 139.42665 153.36136 143.18868 155.16211 146.95703 C 155.29927 147.24406 155.43196 147.53484 155.56836 147.82227 A 70.487839 70.487839 0 0 0 172.66406 103.62695 L 168.72461 105.52344 C 168.83955 104.15039 168.99547 103.10236 168.99414 102.05469 C 168.99289 101.05496 168.82693 100.05513 168.70508 98.753906 L 172.67969 100.67578 A 70.487839 70.487839 0 0 0 102.20312 31.287109 z M 172.67969 100.67578 A 70.487839 70.487839 0 0 1 172.68945 101.77539 A 70.487839 70.487839 0 0 1 172.66406 103.62695 L 175.73047 102.15039 L 172.67969 100.67578 z M 155.56836 147.82227 A 70.487839 70.487839 0 0 1 148.47266 154.94922 C 154.24483 154.90877 158.61285 154.86245 158.84766 154.80859 C 157.75193 152.47127 156.66963 150.14293 155.56836 147.82227 z M 148.47266 154.94922 C 127.16721 155.09851 77.66002 155.14642 56.035156 155.03906 A 70.487839 70.487839 0 0 0 102.20312 172.26367 A 70.487839 70.487839 0 0 0 148.47266 154.94922 z M 56.035156 155.03906 A 70.487839 70.487839 0 0 1 48.886719 147.88477 C 48.471325 148.72949 48.058114 149.57527 47.642578 150.41992 C 46.910318 151.90977 46.169146 153.39384 45.410156 154.92383 C 45.944057 154.97506 50.335951 155.01077 56.035156 155.03906 z M 31.728516 103.20703 A 70.487839 70.487839 0 0 1 31.714844 101.77539 A 70.487839 70.487839 0 0 1 31.71875 101.02344 L 29.417969 102.16211 L 31.728516 103.20703 z M 102.48438 38.478516 L 105.10352 43.71875 L 99.511719 43.71875 L 102.48438 38.478516 z M 107.24023 45.048828 A 34.30769 34.30769 0 0 1 112.2793 45.806641 A 54.83631 54.83631 0 0 1 121.91406 48.423828 A 58.79458 58.79458 0 0 1 131.89844 53.199219 A 49.92992 49.92992 0 0 1 139.69922 58.958984 A 58.59194 58.59194 0 0 1 144.02734 63 A 49.76467 49.76467 0 0 1 150.80664 71.980469 C 151.87166 73.903689 153.03008 75.780919 153.98828 77.755859 A 53.17985 53.17985 0 0 1 158.15039 90.171875 C 158.47803 91.744215 158.59869 93.358646 158.88281 94.941406 C 159.55769 98.700966 159.36032 102.48985 159.34961 106.26172 A 36.359 36.359 0 0 1 158.45898 111.90625 A 60.13207 60.13207 0 0 1 156.09375 120.7207 A 51.37906 51.37906 0 0 1 151.05469 131.16211 C 150.89399 131.40178 150.77137 131.66633 150.625 131.91602 C 150.48755 132.15049 150.16881 132.55691 149.93945 132.93164 C 149.93945 132.93164 139.95789 112.38121 139.21094 110.73242 C 142.10755 107.83492 145.06241 104.87999 148.11914 101.82227 C 148.11914 101.82227 131.09875 84.698594 123.24414 76.871094 A 8.63959 8.63959 0 0 1 121.53906 74.478516 C 118.95442 69.155866 116.33748 63.84874 113.74219 58.53125 C 111.86019 54.67519 107.24023 45.048828 107.24023 45.048828 z M 99.039062 45.070312 L 105.61523 45.070312 C 110.04715 53.753772 114.04492 62.901294 118.43945 72.039062 L 102.22461 55.496094 C 97.042387 60.682564 91.887671 65.842344 86.582031 71.152344 C 86.752971 70.585084 98.170192 46.967053 99.039062 45.070312 z M 97.380859 45.113281 C 97.380859 45.113281 84.969171 70.545812 83.507812 73.638672 A 7.39024 7.39024 0 0 1 81.998047 75.742188 C 73.819347 83.908107 55.824219 101.58984 55.824219 101.58984 L 65.287109 111.01758 C 61.845929 118.05565 58.465703 124.97089 54.970703 132.11914 A 34.09981 34.09981 0 0 1 51 125.13867 A 59.48693 59.48693 0 0 1 45.941406 102.19531 L 45.939453 102.10938 A 0.84172 0.84172 0 1 0 45.9375 101.69531 C 45.93757 99.686741 46.092278 97.172904 46.111328 96.958984 C 46.234248 95.579004 46.434198 94.182279 46.679688 92.824219 A 59.86867 59.86867 0 0 1 50.908203 78.810547 A 60.54444 60.54444 0 0 1 59.244141 65.472656 A 54.34157 54.34157 0 0 1 65.304688 59.199219 A 56.59128 56.59128 0 0 1 79.681641 49.894531 A 61.65112 61.65112 0 0 1 91.144531 46.119141 C 92.596311 45.778911 96.739939 45.113321 97.380859 45.113281 z M 102.22852 46.103516 A 0.84083 0.84083 0 0 0 102.24805 47.783203 A 0.84081 0.84081 0 0 0 103.08984 46.943359 A 0.84083 0.84083 0 0 0 102.22852 46.103516 z M 102.22852 49.621094 A 0.8408767 0.8408767 0 0 0 102.24805 51.302734 A 0.84084 0.84084 0 0 0 103.08984 50.460938 A 0.84083 0.84083 0 0 0 102.22852 49.621094 z M 102.22852 53.097656 A 0.84083 0.84083 0 0 0 102.24805 54.777344 A 0.84083 0.84083 0 0 0 103.08984 53.9375 A 0.84083 0.84083 0 0 0 102.22852 53.097656 z M 58.228516 56.886719 A 1.4679199 1.4679199 0 0 1 59.697266 58.353516 A 1.4679199 1.4679199 0 0 1 58.228516 59.822266 A 1.4679199 1.4679199 0 0 1 56.761719 58.353516 A 1.4679199 1.4679199 0 0 1 58.228516 56.886719 z M 146.67578 56.886719 A 1.4679199 1.4679199 0 0 1 148.14453 58.353516 A 1.4679199 1.4679199 0 0 1 146.67578 59.822266 A 1.4679199 1.4679199 0 0 1 145.20898 58.353516 A 1.4679199 1.4679199 0 0 1 146.67578 56.886719 z M 77.714844 58.007812 A 0.84084 0.84084 0 1 0 78.140625 59.574219 A 0.84082 0.84082 0 0 0 78.441406 58.423828 A 0.84084 0.84084 0 0 0 77.714844 58.007812 z M 126.53125 58.007812 A 0.84083 0.84083 0 0 0 126.50195 58.009766 A 0.84083 0.84083 0 1 0 127.27344 59.273438 A 0.84083 0.84083 0 0 0 126.97266 58.123047 A 0.84083 0.84083 0 0 0 126.53125 58.007812 z M 124.75391 61.042969 A 0.84083 0.84083 0 0 0 124.72461 61.044922 A 0.84083 0.84083 0 1 0 125.49609 62.310547 A 0.84082 0.84082 0 0 0 125.19531 61.160156 A 0.84083 0.84083 0 0 0 124.75391 61.042969 z M 79.492188 61.044922 A 0.84083 0.84083 0 1 0 79.917969 62.611328 A 0.84082 0.84082 0 0 0 80.21875 61.460938 A 0.84083 0.84083 0 0 0 79.492188 61.044922 z M 102.39453 62.232422 C 105.41362 64.848332 115.41602 75.032625 116.17969 76.390625 A 30.65549 30.65549 0 0 0 102.10352 72.839844 A 29.60578 29.60578 0 0 0 88.183594 76.445312 L 102.39453 62.232422 z M 122.99805 64.042969 A 0.84083 0.84083 0 0 0 122.9668 64.044922 A 0.84083 0.84083 0 1 0 123.74023 65.310547 A 0.84084 0.84084 0 0 0 123.43945 64.160156 A 0.84083 0.84083 0 0 0 122.99805 64.042969 z M 81.248047 64.044922 A 0.84083 0.84083 0 1 0 81.675781 65.611328 A 0.84083 0.84083 0 0 0 81.976562 64.460938 A 0.84083 0.84083 0 0 0 81.248047 64.044922 z M 67.21875 66.078125 A 0.84084 0.84084 0 1 0 67.822266 67.503906 A 0.84086 0.84086 0 0 0 67.804688 66.314453 A 0.84084 0.84084 0 0 0 67.21875 66.078125 z M 137.07227 66.078125 A 0.84083 0.84083 0 1 0 137.63281 67.521484 A 0.84085 0.84085 0 0 0 137.65039 66.333984 A 0.84083 0.84083 0 0 0 137.07227 66.078125 z M 69.744141 68.527344 A 0.84084 0.84084 0 1 0 70.347656 69.953125 A 0.84082 0.84082 0 0 0 70.328125 68.763672 A 0.84084 0.84084 0 0 0 69.744141 68.527344 z M 134.54883 68.527344 A 0.84084 0.84084 0 1 0 135.10742 69.970703 A 0.84082 0.84082 0 0 0 135.125 68.783203 A 0.84084 0.84084 0 0 0 134.54883 68.527344 z M 48.269531 70.21875 A 1.4679199 1.4679199 0 0 1 49.738281 71.6875 A 1.4679199 1.4679199 0 0 1 48.269531 73.154297 A 1.4679199 1.4679199 0 0 1 46.802734 71.6875 A 1.4679199 1.4679199 0 0 1 48.269531 70.21875 z M 156.64648 70.21875 A 1.4679199 1.4679199 0 0 1 158.11328 71.6875 A 1.4679199 1.4679199 0 0 1 156.64648 73.154297 A 1.4679199 1.4679199 0 0 1 155.17773 71.6875 A 1.4679199 1.4679199 0 0 1 156.64648 70.21875 z M 72.240234 70.947266 A 0.84083 0.84083 0 1 0 72.841797 72.373047 A 0.84083 0.84083 0 0 0 72.824219 71.185547 A 0.84083 0.84083 0 0 0 72.240234 70.947266 z M 132.05273 70.947266 A 0.84083 0.84083 0 1 0 132.61133 72.392578 A 0.84082 0.84082 0 0 0 132.63086 71.203125 A 0.84083 0.84083 0 0 0 132.05273 70.947266 z M 102.11914 74.076172 A 26.90745 26.90745 0 0 1 102.55469 74.078125 A 27.67543 27.67543 0 1 1 74.789062 101.66797 A 26.63868 26.63868 0 0 1 83.039062 82.080078 A 26.90745 26.90745 0 0 1 102.11914 74.076172 z M 102.3125 78.103516 C 94.600302 78.007853 86.659598 82.473711 84.142578 88.763672 A 5.33528 5.33528 0 0 1 85.820312 88.236328 A 2.22211 2.22211 0 0 1 87.128906 88.707031 C 88.342726 89.752471 87.988759 91.569518 87.667969 92.892578 A 9.03852 9.03852 0 0 0 87.783203 97.501953 A 12.15967 12.15967 0 0 0 91.080078 103.10742 A 2.138 2.138 0 0 0 91.193359 102.08594 A 12.48152 12.48152 0 0 1 91.615234 94.501953 A 7.60409 7.60409 0 0 1 96.501953 89.667969 A 14.00132 14.00132 0 0 1 104.18555 89.695312 A 22.95642 22.95642 0 0 1 115.62891 96.208984 C 117.21218 97.815394 118.7109 99.50523 120.23828 101.14648 A 12.1346 12.1346 0 0 0 118.03125 95.435547 A 33.32418 33.32418 0 0 0 111.37109 88.371094 A 10.01706 10.01706 0 0 0 109.54297 87.09375 A 10.60777 10.60777 0 0 1 113.99219 88.488281 C 115.23941 89.062781 117.67319 89.972194 117.75391 90.021484 C 117.67494 89.970374 117.37406 89.298718 117.21289 89.080078 A 22.631 22.631 0 0 0 111.35547 83.445312 C 109.00517 81.910235 106.78309 80.741846 103.95898 80.847656 A 17.30268 17.30268 0 0 0 101.58594 80.960938 A 5.38173 5.38173 0 0 1 104.16602 79.488281 A 10.81026 10.81026 0 0 1 107.54688 78.933594 C 105.86091 78.392253 104.09224 78.125592 102.3125 78.103516 z M 128.02734 87.757812 A 6.69572 6.69572 0 0 1 128.83594 88.238281 A 9.50118 9.50118 0 0 1 129.58398 88.972656 C 133.74886 93.137263 137.91285 97.301781 142.07422 101.46289 C 141.31691 102.60857 129.47842 114.51772 127.88867 115.71875 C 128.62167 113.87932 129.26817 112.11804 130.02148 110.40234 A 21.47218 21.47218 0 0 0 131.26953 104.69531 A 25.15041 25.15041 0 0 0 131.29492 98.933594 A 20.17261 20.17261 0 0 0 130.05664 93.224609 C 129.35649 91.462819 128.7338 89.670651 128.02734 87.757812 z M 76.769531 87.880859 A 42.45354 42.45354 0 0 0 73.849609 97 A 26.716 26.716 0 0 0 73.816406 106.45898 A 36.27431 36.27431 0 0 0 77.027344 115.77344 C 72.197344 110.94508 67.594051 106.34249 62.869141 101.61914 C 67.365471 97.038346 72.021541 92.441599 76.769531 87.880859 z M 102.46484 94.714844 A 7.04832 7.04832 0 1 0 109.51172 101.76367 A 7.04832 7.04832 0 0 0 102.46484 94.714844 z M 102.51172 98.162109 A 3.665 3.665 0 0 1 106.17578 101.82617 A 3.665 3.665 0 0 1 102.51172 105.49219 A 3.665 3.665 0 0 1 98.845703 101.82617 A 3.665 3.665 0 0 1 102.51172 98.162109 z M 113.66797 100.37109 C 113.67992 100.38595 113.77257 101.50489 113.875 102.13281 A 12.64684 12.64684 0 0 1 113.9707 106.27344 A 9.31607 9.31607 0 0 1 112.75781 110.20703 C 110.85457 113.39925 107.88177 114.59699 104.36133 114.3418 A 20.54108 20.54108 0 0 1 99.453125 113.45898 A 27.44984 27.44984 0 0 1 86.107422 103.87305 C 85.680672 103.32546 85.221604 102.80347 84.777344 102.26953 A 11.106 11.106 0 0 0 85.738281 106.14062 A 23.96941 23.96941 0 0 0 92.208984 114.25586 A 29.89215 29.89215 0 0 0 94.632812 116.14844 A 27.88591 27.88591 0 0 1 87.738281 114.04688 A 1.645 1.645 0 0 0 88.029297 114.83203 A 18.41972 18.41972 0 0 0 94.451172 120.55664 C 96.820742 121.87716 99.323935 123.0053 102.07812 122.80078 A 6.01866 6.01866 0 0 0 103.94141 122.51562 A 4.91753 4.91753 0 0 1 101.17969 124.29688 A 31.00011 31.00011 0 0 1 97.917969 124.72461 C 106.65279 126.8587 117.22327 122.82807 120.79688 114.81055 A 8.91473 8.91473 0 0 1 118.54883 114.95312 A 1.85248 1.85248 0 0 1 117.17969 113.08398 A 7.59273 7.59273 0 0 1 117.22656 110.30469 A 6.98309 6.98309 0 0 0 117.10547 106.05273 C 116.43899 103.89129 115.58046 101.79929 113.66797 100.37109 z M 40.519531 100.43164 A 1.4679199 1.4679199 0 0 1 41.988281 101.89844 A 1.4679199 1.4679199 0 0 1 40.519531 103.36719 A 1.4679199 1.4679199 0 0 1 39.052734 101.89844 A 1.4679199 1.4679199 0 0 1 40.519531 100.43164 z M 164.4082 100.43164 A 1.4679199 1.4679199 0 0 1 165.875 101.89844 A 1.4679199 1.4679199 0 0 1 164.4082 103.36719 A 1.4679199 1.4679199 0 0 1 162.93945 101.89844 A 1.4679199 1.4679199 0 0 1 164.4082 100.43164 z M 50.207031 101.05859 A 0.84087671 0.84087671 0 0 0 50.226562 102.74023 A 0.84084 0.84084 0 0 0 51.068359 101.89844 A 0.84084 0.84084 0 0 0 50.207031 101.05859 z M 53.724609 101.05859 A 0.84087671 0.84087671 0 0 0 53.744141 102.74023 A 0.84084 0.84084 0 0 0 54.585938 101.89844 A 0.84084 0.84084 0 0 0 53.724609 101.05859 z M 150.36328 101.05859 A 0.8408767 0.8408767 0 0 0 150.38281 102.74023 A 0.84083 0.84083 0 0 0 151.22266 101.89844 A 0.84084 0.84084 0 0 0 150.36328 101.05859 z M 153.83984 101.05859 A 0.84087676 0.84087676 0 0 0 153.85938 102.74023 A 0.84084 0.84084 0 0 0 154.69922 101.89844 A 0.84084 0.84084 0 0 0 153.83984 101.05859 z M 157.35742 101.05859 A 0.8408767 0.8408767 0 0 0 157.37695 102.74023 A 0.84084 0.84084 0 0 0 158.2168 101.89844 A 0.84084 0.84084 0 0 0 157.35742 101.05859 z M 88.033203 127.10938 A 31.29263 31.29263 0 0 0 102.20117 130.74609 A 33.97468 33.97468 0 0 0 116.07227 127.5 C 115.5557 128.02091 115.03478 128.53846 114.52344 129.06445 C 110.90929 132.78209 107.29555 136.49895 103.68164 140.2168 C 103.28353 140.62547 102.28906 141.54883 102.28906 141.54883 C 102.28906 141.54883 92.962692 132.2935 88.451172 127.81055 A 4.926 4.926 0 0 1 88.033203 127.10938 z M 72.205078 131.07227 A 0.84083 0.84083 0 1 0 72.806641 132.49805 L 72.808594 132.49805 A 0.84085 0.84085 0 0 0 72.789062 131.30859 A 0.84083 0.84083 0 0 0 72.205078 131.07227 z M 132.22852 131.07227 A 0.84083 0.84083 0 1 0 132.78711 132.51758 A 0.84084 0.84084 0 0 0 132.80664 131.32812 A 0.84083 0.84083 0 0 0 132.22852 131.07227 z M 156.00195 131.46289 A 1.4679199 1.4679199 0 0 1 157.46875 132.93164 A 1.4679199 1.4679199 0 0 1 156.00195 134.39844 A 1.4679199 1.4679199 0 0 1 154.5332 132.93164 A 1.4679199 1.4679199 0 0 1 156.00195 131.46289 z M 48.978516 131.68164 A 1.4679199 1.4679199 0 0 1 48.980469 131.68164 A 1.4679199 1.4679199 0 0 1 49.044922 131.68164 A 1.4679199 1.4679199 0 0 1 50.513672 133.14844 A 1.4679199 1.4679199 0 0 1 49.044922 134.61719 A 1.4679199 1.4679199 0 0 1 47.576172 133.14844 A 1.4679199 1.4679199 0 0 1 48.978516 131.68164 z M 69.785156 133.56836 A 0.84083 0.84083 0 1 0 70.388672 134.99414 A 0.84081 0.84081 0 0 0 70.369141 133.80469 A 0.84083 0.84083 0 0 0 69.785156 133.56836 z M 134.64844 133.56836 A 0.84084 0.84084 0 1 0 135.20703 135.01367 A 0.84083 0.84083 0 0 0 135.22461 133.82422 A 0.84084 0.84084 0 0 0 134.64844 133.56836 z M 67.335938 136.09375 A 0.84083 0.84083 0 1 0 67.939453 137.52148 A 0.8408 0.8408 0 0 0 67.921875 136.33203 A 0.84083 0.84083 0 0 0 67.335938 136.09375 z M 137.04883 136.09375 A 0.84084 0.84084 0 0 0 137.01953 136.0957 A 0.84084 0.84084 0 1 0 137.6543 137.53906 A 0.84083 0.84083 0 0 0 137.67383 136.34961 A 0.84084 0.84084 0 0 0 137.04883 136.09375 z M 81.273438 137.9043 A 0.84084 0.84084 0 1 0 82.007812 139.14648 A 0.84086 0.84086 0 0 0 81.671875 138.00586 A 0.84084 0.84084 0 0 0 81.273438 137.9043 z M 123.16016 137.9043 A 0.84083 0.84083 0 1 0 123.53906 139.48242 A 0.84085 0.84085 0 0 0 123.875 138.3418 A 0.84083 0.84083 0 0 0 123.16016 137.9043 z M 79.611328 140.95703 A 0.84084 0.84084 0 1 0 80.345703 142.19922 A 0.84087 0.84087 0 0 0 80.009766 141.05859 A 0.84084 0.84084 0 0 0 79.611328 140.95703 z M 124.82227 140.95703 A 0.84084 0.84084 0 1 0 125.20117 142.53516 A 0.84087 0.84087 0 0 0 125.53711 141.39453 A 0.84084 0.84084 0 0 0 124.82227 140.95703 z M 77.927734 144.04492 A 0.84083 0.84083 0 1 0 78.662109 145.28906 A 0.84084 0.84084 0 0 0 78.326172 144.14844 A 0.84083 0.84083 0 0 0 77.927734 144.04492 z M 126.45898 144.04492 A 0.84084 0.84084 0 0 0 126.42773 144.04688 A 0.84084 0.84084 0 1 0 126.88477 145.625 A 0.84086 0.84086 0 0 0 127.2207 144.48438 A 0.84084 0.84084 0 0 0 126.45898 144.04492 z M 102.22852 148.94727 A 0.8408767 0.8408767 0 0 0 102.24805 150.62891 A 0.84083 0.84083 0 0 0 103.08984 149.78711 A 0.84083 0.84083 0 0 0 102.22852 148.94727 z M 102.22852 152.46484 A 0.8408767 0.8408767 0 0 0 102.24805 154.14648 A 0.84081 0.84081 0 0 0 103.08984 153.30469 A 0.84083 0.84083 0 0 0 102.22852 152.46484 z M 83.509766 156.47461 L 122.29492 156.47461 A 86.79446 86.79446 0 0 1 83.509766 156.47461 z " />
</svg>
