<?xml version="1.0" encoding="UTF-8" standalone="no"?>
<svg
   xmlns:svg="http://www.w3.org/2000/svg"
   xmlns="http://www.w3.org/2000/svg"
   xmlns:sodipodi="http://sodipodi.sourceforge.net/DTD/sodipodi-0.dtd"
   xmlns:inkscape="http://www.inkscape.org/namespaces/inkscape"
   version="1.0"
   width="1167.248"
   height="1167.248"
   inkscape:version="1.0.1 (3bc2e813f5, 2020-09-07)"
   sodipodi:docname="guardian_games.svg">
  <defs />
  <sodipodi:namedview
     inkscape:zoom="0.52443753"
     inkscape:cx="320.57417"
     inkscape:cy="421.68719"
     inkscape:window-width="1754"
     inkscape:window-height="1057"
     inkscape:window-x="158"
     inkscape:window-y="-8"
     inkscape:window-maximized="1" />
  <path
     d="m 583.37458,-2.65625e-5 c -4.34284,0 -8.68595,0.0917600025 -11.99414,0.2753900025 C 463.2934,6.2749094 376.70616,92.862152 370.70661,200.94919 c -0.36725,6.61638 -0.36762,17.37227 0.006,23.98828 0.22527,3.9905 5.90458,7.41264 12.50195,8.03516 24.98817,2.35784 49.4246,8.74614 72.35938,18.91015 7.57252,3.35592 10.92714,0.28157 8.82617,-7.72656 -1.65493,-6.30801 -2.80589,-12.73882 -3.44141,-19.23242 -0.64527,-6.59329 -0.64529,-17.36878 -0.008,-23.96289 5.63677,-58.30648 51.98417,-104.713098 110.28326,-110.425778 6.59327,-0.64607 12.05217,-0.5918 12.14062,-0.5918 70.3476,6.21838 116.78156,52.651498 122.42383,111.017578 0.63745,6.59411 0.63564,17.36961 -0.01,23.96289 -0.64721,6.6118 -1.82751,13.16026 -3.53125,19.57812 -2.12427,8.00198 1.2034,11.04898 8.76563,7.66993 22.96903,-10.26332 47.45919,-16.7342 72.51367,-19.15235 6.59603,-0.63662 12.48938,-6.19565 12.71484,-12.81836 0.13639,-4.00639 0.15827,-12.63557 -0.20898,-19.25195 C 790.043,92.862152 703.45576,6.2749084 595.36872,0.27536344 592.06053,0.09173744 587.71742,-2.65625e-5 583.37458,-2.65625e-5 Z m -222,251.4999965625 c -4.34284,0 -8.68595,0.0918 -11.99414,0.27539 -108.08703,5.99955 -194.67427,92.58679 -200.67382,200.67383 -0.36725,6.61638 -0.36485,17.37118 -0.01,23.98828 3.05763,56.98 27.85502,111.50744 71.42968,147.93555 5.08379,4.25 13.77337,10.58559 19.29102,14.25586 10.119,6.73102 21.07392,13.10433 31.37694,18.25781 5.92649,2.96438 15.79479,7.24698 22.04492,9.44726 18.15803,6.39234 37.26732,9.81737 56.54102,10.80469 6.61801,0.33902 17.37225,0.33995 23.98828,-0.0332 2.86211,-0.16143 5.17774,-5.72805 5.17774,-12.35547 v -68.51172 c 0,-5.52285 -4.43548,-9.33225 -9.94727,-9.00781 -3.98463,0.23454 -12.61292,0.27417 -19.20703,-0.36328 -58.36608,-5.64227 -104.79913,-52.07533 -110.4414,-110.44141 -0.63745,-6.59411 -0.63748,-17.37073 0,-23.96484 5.63672,-58.30648 51.98411,-104.7131 110.2832,-110.42578 6.59327,-0.64607 12.05217,-0.5918 12.14062,-0.5918 70.3476,6.21838 116.78156,52.6515 122.42383,111.01758 0.63745,6.59411 0.57007,17.35501 0.5625,23.98242 l -0.30078,263.11719 a 18.40485,18.40485 0 0 0 10.96093,16.85351 l 21.53125,9.52149 c 6.06118,2.68045 15.9388,6.96803 21.63282,10.35156 7.03041,4.17765 13.44725,9.15816 19.15234,14.79297 10.96649,10.83138 16.93274,9.65147 16.9375,-5.8125 l 0.0959,-308.82422 c 0.002,-6.62742 0.0391,-17.37776 -0.32812,-23.99414 C 568.043,344.36215 481.45576,257.77491 373.36872,251.77536 c -3.30819,-0.18363 -7.6513,-0.27539 -11.99414,-0.27539 z m 444.5,0 c -4.34284,0 -8.68595,0.0918 -11.99414,0.27539 -108.08704,5.99955 -194.67428,92.58679 -200.67383,200.67383 -0.36725,6.61638 -0.68967,11.99414 -1.13086,11.99414 v 321.3418 c 0,15.46397 5.98887,16.65752 16.97852,5.84961 5.6656,-5.57192 12.02795,-10.50088 18.99414,-14.64063 5.69392,-3.38369 15.57166,-7.67106 21.63281,-10.35156 l 21.64063,-9.57031 a 18.468574,18.468574 0 0 0 10.99804,-16.85352 l 0.53125,-263.77539 c 0.0133,-6.6274 -0.0379,-17.38831 0.59961,-23.98242 5.63672,-58.30648 51.98412,-104.7131 110.28321,-110.42578 6.59327,-0.64607 12.05217,-0.5918 12.14062,-0.5918 70.3476,6.21838 116.78156,52.6515 122.42383,111.01758 0.63745,6.59411 0.63745,17.37073 0,23.96484 -5.64227,58.36608 -52.07533,104.79914 -110.44141,110.44141 -6.59411,0.63745 -17.36961,0.63559 -23.96289,-0.01 -3.37675,-0.33052 -6.09766,4.62259 -6.09765,11.25 v 66.56641 c 0,6.62742 5.3547,12.49154 11.97851,12.68164 3.36748,0.0966 11.47919,0.1247 18.0918,-0.30078 20.30919,-1.30677 40.32028,-5.82118 59.52929,-12.30469 6.27898,-2.1193 16.31343,-6.00413 22.21875,-9.00586 9.67807,-4.91944 19.8983,-11.2988 27.39649,-16.33398 5.50092,-3.69398 14.02859,-10.2461 19.0039,-14.62305 43.01158,-37.83879 69.2812,-91.18611 72.5196,-148.34961 0.3748,-6.61592 0.375,-17.3719 0.01,-23.98828 -6.0018,-108.08681 -92.58904,-194.67405 -200.67608,-200.6736 -3.30819,-0.18363 -7.6513,-0.27539 -11.99414,-0.27539 z M 214.316,646.74021 c -3.39134,-0.11462 -6.60352,2.54945 -6.60352,6.38085 v 53.10157 c 0,38.90571 22.94951,74.14964 58.53124,89.88476 l 223.40234,98.79297 c 37.80561,16.71857 62.18947,54.16463 62.18946,95.50197 v 34.13877 h 0.56445 c 11.03922,0 19.98113,-8.9608 19.95899,-20 l -0.25391,-127.463 c -0.0792,-39.52756 -23.42762,-75.30235 -59.57813,-91.28907 L 272.81208,679.78122 c -15.21248,-6.72736 -29.79537,-14.79646 -43.57616,-24.11133 l -11.58203,-7.82812 c -1.0581,-0.7152 -2.20745,-1.06336 -3.33789,-1.10156 z m 737.6035,0.70703 c -1.13044,0.0382 -2.28175,0.38441 -3.33984,1.09961 l -11.58203,7.82812 c -13.7808,9.31486 -28.3637,17.38396 -43.57617,24.11133 L 653.70661,786.49606 c -36.15051,15.98672 -59.49695,51.75955 -59.57617,91.28711 l -0.25586,127.46493 c -0.004,1.8307 0.26063,3.5943 0.71875,5.2793 -0.28969,3.0582 -0.45665,6.1432 -0.46289,9.2558 l -0.25586,127.4649 c -0.0221,11.0392 8.91976,20 19.95898,20 h 0.56446 v -34.1387 c -10e-6,-41.3373 24.38579,-78.7853 62.1914,-95.5039 l 223.40039,-98.79303 c 35.58175,-15.73512 58.53126,-50.9771 58.53125,-89.88281 V 795.8281 c 10e-6,-5.10854 -5.70903,-8.14205 -9.9414,-5.28125 l -11.58203,7.82812 c -13.7808,9.31486 -28.36369,17.38396 -43.57617,24.11133 L 653.70661,928.49606 c -11.72166,5.18363 -22.08506,12.45806 -30.75781,21.25586 10.233,-23.70885 29.10485,-43.29616 53.64062,-54.14648 l 223.40039,-98.79297 c 35.58175,-15.73512 58.53321,-50.9771 58.53321,-89.88281 V 653.8281 c -10e-6,-3.8314 -3.21219,-6.49549 -6.60352,-6.38086 z" />
</svg>
